<svg height="384" viewBox="0 0 432 288" width="576" xmlns="http://www.w3.org/2000/svg" xmlns:xlink="http://www.w3.org/1999/xlink"><defs><style>*{stroke-linecap:butt;stroke-linejoin:round}</style></defs><g id="figure_1"><path d="M0 288h432V0H0z" fill="#fff" id="patch_1"/><g id="axes_1"><path d="M52.875 241H402V30H52.875z" fill="#fff" id="patch_2"/><g id="matplotlib.axis_1"><g id="xtick_1"><path clip-path="url(#p9654a53b10)" d="M85.086 241V30" fill="none" stroke="#b0b0b0" stroke-dasharray="3.7,1.6" id="line2d_1"/><g id="line2d_2"><defs><path d="M0 0v3.5" id="m791f368b27" stroke="#000" stroke-width=".8"/></defs><use x="85.086" xlink:href="#m791f368b27" y="241" stroke="#000" stroke-width=".8"/></g><g id="text_1"><defs><path d="M12.406 8.297h16.11v55.625l-17.532-3.516v8.985l17.438 3.515h9.86V8.296H54.39V0H12.406z" id="DejaVuSans-49"/><path d="M31.781 66.406q-7.61 0-11.453-7.5Q16.5 51.422 16.5 36.375q0-14.984 3.828-22.484 3.844-7.5 11.453-7.5 7.672 0 11.5 7.5 3.844 7.5 3.844 22.484 0 15.047-3.844 22.531-3.828 7.5-11.5 7.5zm0 7.813q12.266 0 18.735-9.703 6.468-9.688 6.468-28.141 0-18.406-6.468-28.11-6.47-9.687-18.735-9.687-12.25 0-18.718 9.688-6.47 9.703-6.47 28.109 0 18.453 6.47 28.14Q19.53 74.22 31.78 74.22z" id="DejaVuSans-48"/><path d="M10.594 35.5h62.593v-8.297H10.594z" id="DejaVuSans-8722"/><path d="M40.578 39.313Q47.656 37.797 51.625 33q3.984-4.781 3.984-11.813 0-10.78-7.422-16.703-7.421-5.906-21.093-5.906-4.578 0-9.438.906-4.86.907-10.031 2.72v9.515q4.094-2.39 8.969-3.61 4.89-1.218 10.218-1.218 9.266 0 14.125 3.656 4.86 3.656 4.86 10.64 0 6.454-4.516 10.079-4.515 3.64-12.562 3.64h-8.5v8.11h8.89q7.266 0 11.125 2.906 3.86 2.906 3.86 8.375 0 5.61-3.985 8.61-3.968 3.015-11.39 3.015-4.063 0-8.703-.89-4.641-.876-10.203-2.72v8.782q5.624 1.562 10.53 2.344 4.907.78 9.25.78 11.235 0 17.766-5.109 6.547-5.093 6.547-13.78 0-6.063-3.468-10.235-3.47-4.172-9.86-5.782z" id="DejaVuSans-51"/></defs><g transform="matrix(.1 0 0 -.1 73.336 255.598)"><use transform="translate(0 .766)" xlink:href="#DejaVuSans-49"/><use transform="translate(63.623 .766)" xlink:href="#DejaVuSans-48"/><use transform="matrix(.7 0 0 .7 128.203 39.047)" xlink:href="#DejaVuSans-8722"/><use transform="matrix(.7 0 0 .7 186.855 39.047)" xlink:href="#DejaVuSans-51"/></g></g></g><g id="xtick_2"><path clip-path="url(#p9654a53b10)" d="M148.412 241V30" fill="none" stroke="#b0b0b0" stroke-dasharray="3.7,1.6" id="line2d_3"/><use x="148.412" xlink:href="#m791f368b27" y="241" stroke="#000" stroke-width=".8" id="line2d_4"/><g id="text_2"><defs><path d="M19.188 8.297h34.421V0H7.33v8.297q5.609 5.812 15.296 15.594 9.703 9.797 12.188 12.64 4.734 5.313 6.609 9 1.89 3.688 1.89 7.25 0 5.813-4.078 9.469-4.078 3.672-10.625 3.672-4.64 0-9.797-1.61-5.14-1.609-11-4.89v9.969Q13.767 71.78 18.938 73q5.188 1.219 9.485 1.219 11.328 0 18.062-5.672 6.735-5.656 6.735-15.125 0-4.5-1.688-8.531-1.672-4.016-6.125-9.485-1.218-1.422-7.765-8.187-6.532-6.766-18.453-18.922z" id="DejaVuSans-50"/></defs><g transform="matrix(.1 0 0 -.1 136.662 255.598)"><use transform="translate(0 .766)" xlink:href="#DejaVuSans-49"/><use transform="translate(63.623 .766)" xlink:href="#DejaVuSans-48"/><use transform="matrix(.7 0 0 .7 128.203 39.047)" xlink:href="#DejaVuSans-8722"/><use transform="matrix(.7 0 0 .7 186.855 39.047)" xlink:href="#DejaVuSans-50"/></g></g></g><g id="xtick_3"><path clip-path="url(#p9654a53b10)" d="M211.739 241V30" fill="none" stroke="#b0b0b0" stroke-dasharray="3.7,1.6" id="line2d_5"/><use x="211.739" xlink:href="#m791f368b27" y="241" stroke="#000" stroke-width=".8" id="line2d_6"/><g transform="matrix(.1 0 0 -.1 199.989 255.598)" id="text_3"><use transform="translate(0 .684)" xlink:href="#DejaVuSans-49"/><use transform="translate(63.623 .684)" xlink:href="#DejaVuSans-48"/><use transform="matrix(.7 0 0 .7 128.203 38.966)" xlink:href="#DejaVuSans-8722"/><use transform="matrix(.7 0 0 .7 186.855 38.966)" xlink:href="#DejaVuSans-49"/></g></g><g id="xtick_4"><path clip-path="url(#p9654a53b10)" d="M275.065 241V30" fill="none" stroke="#b0b0b0" stroke-dasharray="3.7,1.6" id="line2d_7"/><use x="275.065" xlink:href="#m791f368b27" y="241" stroke="#000" stroke-width=".8" id="line2d_8"/><g transform="matrix(.1 0 0 -.1 266.265 255.598)" id="text_4"><use transform="translate(0 .766)" xlink:href="#DejaVuSans-49"/><use transform="translate(63.623 .766)" xlink:href="#DejaVuSans-48"/><use transform="matrix(.7 0 0 .7 128.203 39.047)" xlink:href="#DejaVuSans-48"/></g></g><g id="xtick_5"><path clip-path="url(#p9654a53b10)" d="M338.39 241V30" fill="none" stroke="#b0b0b0" stroke-dasharray="3.7,1.6" id="line2d_9"/><use x="338.391" xlink:href="#m791f368b27" y="241" stroke="#000" stroke-width=".8" id="line2d_10"/><g transform="matrix(.1 0 0 -.1 329.59 255.598)" id="text_5"><use transform="translate(0 .684)" xlink:href="#DejaVuSans-49"/><use transform="translate(63.623 .684)" xlink:href="#DejaVuSans-48"/><use transform="matrix(.7 0 0 .7 128.203 38.966)" xlink:href="#DejaVuSans-49"/></g></g><g id="xtick_6"><path clip-path="url(#p9654a53b10)" d="M401.717 241V30" fill="none" stroke="#b0b0b0" stroke-dasharray="3.7,1.6" id="line2d_11"/><use x="401.717" xlink:href="#m791f368b27" y="241" stroke="#000" stroke-width=".8" id="line2d_12"/><g transform="matrix(.1 0 0 -.1 392.917 255.598)" id="text_6"><use transform="translate(0 .766)" xlink:href="#DejaVuSans-49"/><use transform="translate(63.623 .766)" xlink:href="#DejaVuSans-48"/><use transform="matrix(.7 0 0 .7 128.203 39.047)" xlink:href="#DejaVuSans-50"/></g></g><g id="xtick_7"><g id="line2d_13"><defs><path d="M0 0v2" id="mc62ef30ec3" stroke="#000" stroke-width=".6"/></defs><use x="59.886" xlink:href="#mc62ef30ec3" y="241" stroke="#000" stroke-width=".6"/></g></g><g id="xtick_8"><use x="66.023" xlink:href="#mc62ef30ec3" y="241" stroke="#000" stroke-width=".6" id="line2d_14"/></g><g id="xtick_9"><use x="71.037" xlink:href="#mc62ef30ec3" y="241" stroke="#000" stroke-width=".6" id="line2d_15"/></g><g id="xtick_10"><use x="75.277" xlink:href="#mc62ef30ec3" y="241" stroke="#000" stroke-width=".6" id="line2d_16"/></g><g id="xtick_11"><use x="78.949" xlink:href="#mc62ef30ec3" y="241" stroke="#000" stroke-width=".6" id="line2d_17"/></g><g id="xtick_12"><use x="82.189" xlink:href="#mc62ef30ec3" y="241" stroke="#000" stroke-width=".6" id="line2d_18"/></g><g id="xtick_13"><use x="104.149" xlink:href="#mc62ef30ec3" y="241" stroke="#000" stroke-width=".6" id="line2d_19"/></g><g id="xtick_14"><use x="115.301" xlink:href="#mc62ef30ec3" y="241" stroke="#000" stroke-width=".6" id="line2d_20"/></g><g id="xtick_15"><use x="123.212" xlink:href="#mc62ef30ec3" y="241" stroke="#000" stroke-width=".6" id="line2d_21"/></g><g id="xtick_16"><use x="129.349" xlink:href="#mc62ef30ec3" y="241" stroke="#000" stroke-width=".6" id="line2d_22"/></g><g id="xtick_17"><use x="134.364" xlink:href="#mc62ef30ec3" y="241" stroke="#000" stroke-width=".6" id="line2d_23"/></g><g id="xtick_18"><use x="138.603" xlink:href="#mc62ef30ec3" y="241" stroke="#000" stroke-width=".6" id="line2d_24"/></g><g id="xtick_19"><use x="142.275" xlink:href="#mc62ef30ec3" y="241" stroke="#000" stroke-width=".6" id="line2d_25"/></g><g id="xtick_20"><use x="145.515" xlink:href="#mc62ef30ec3" y="241" stroke="#000" stroke-width=".6" id="line2d_26"/></g><g id="xtick_21"><use x="167.475" xlink:href="#mc62ef30ec3" y="241" stroke="#000" stroke-width=".6" id="line2d_27"/></g><g id="xtick_22"><use x="178.627" xlink:href="#mc62ef30ec3" y="241" stroke="#000" stroke-width=".6" id="line2d_28"/></g><g id="xtick_23"><use x="186.539" xlink:href="#mc62ef30ec3" y="241" stroke="#000" stroke-width=".6" id="line2d_29"/></g><g id="xtick_24"><use x="192.675" xlink:href="#mc62ef30ec3" y="241" stroke="#000" stroke-width=".6" id="line2d_30"/></g><g id="xtick_25"><use x="197.69" xlink:href="#mc62ef30ec3" y="241" stroke="#000" stroke-width=".6" id="line2d_31"/></g><g id="xtick_26"><use x="201.929" xlink:href="#mc62ef30ec3" y="241" stroke="#000" stroke-width=".6" id="line2d_32"/></g><g id="xtick_27"><use x="205.602" xlink:href="#mc62ef30ec3" y="241" stroke="#000" stroke-width=".6" id="line2d_33"/></g><g id="xtick_28"><use x="208.841" xlink:href="#mc62ef30ec3" y="241" stroke="#000" stroke-width=".6" id="line2d_34"/></g><g id="xtick_29"><use x="230.802" xlink:href="#mc62ef30ec3" y="241" stroke="#000" stroke-width=".6" id="line2d_35"/></g><g id="xtick_30"><use x="241.953" xlink:href="#mc62ef30ec3" y="241" stroke="#000" stroke-width=".6" id="line2d_36"/></g><g id="xtick_31"><use x="249.865" xlink:href="#mc62ef30ec3" y="241" stroke="#000" stroke-width=".6" id="line2d_37"/></g><g id="xtick_32"><use x="256.002" xlink:href="#mc62ef30ec3" y="241" stroke="#000" stroke-width=".6" id="line2d_38"/></g><g id="xtick_33"><use x="261.016" xlink:href="#mc62ef30ec3" y="241" stroke="#000" stroke-width=".6" id="line2d_39"/></g><g id="xtick_34"><use x="265.255" xlink:href="#mc62ef30ec3" y="241" stroke="#000" stroke-width=".6" id="line2d_40"/></g><g id="xtick_35"><use x="268.928" xlink:href="#mc62ef30ec3" y="241" stroke="#000" stroke-width=".6" id="line2d_41"/></g><g id="xtick_36"><use x="272.167" xlink:href="#mc62ef30ec3" y="241" stroke="#000" stroke-width=".6" id="line2d_42"/></g><g id="xtick_37"><use x="294.128" xlink:href="#mc62ef30ec3" y="241" stroke="#000" stroke-width=".6" id="line2d_43"/></g><g id="xtick_38"><use x="305.279" xlink:href="#mc62ef30ec3" y="241" stroke="#000" stroke-width=".6" id="line2d_44"/></g><g id="xtick_39"><use x="313.191" xlink:href="#mc62ef30ec3" y="241" stroke="#000" stroke-width=".6" id="line2d_45"/></g><g id="xtick_40"><use x="319.328" xlink:href="#mc62ef30ec3" y="241" stroke="#000" stroke-width=".6" id="line2d_46"/></g><g id="xtick_41"><use x="324.342" xlink:href="#mc62ef30ec3" y="241" stroke="#000" stroke-width=".6" id="line2d_47"/></g><g id="xtick_42"><use x="328.581" xlink:href="#mc62ef30ec3" y="241" stroke="#000" stroke-width=".6" id="line2d_48"/></g><g id="xtick_43"><use x="332.254" xlink:href="#mc62ef30ec3" y="241" stroke="#000" stroke-width=".6" id="line2d_49"/></g><g id="xtick_44"><use x="335.493" xlink:href="#mc62ef30ec3" y="241" stroke="#000" stroke-width=".6" id="line2d_50"/></g><g id="xtick_45"><use x="357.454" xlink:href="#mc62ef30ec3" y="241" stroke="#000" stroke-width=".6" id="line2d_51"/></g><g id="xtick_46"><use x="368.605" xlink:href="#mc62ef30ec3" y="241" stroke="#000" stroke-width=".6" id="line2d_52"/></g><g id="xtick_47"><use x="376.517" xlink:href="#mc62ef30ec3" y="241" stroke="#000" stroke-width=".6" id="line2d_53"/></g><g id="xtick_48"><use x="382.654" xlink:href="#mc62ef30ec3" y="241" stroke="#000" stroke-width=".6" id="line2d_54"/></g><g id="xtick_49"><use x="387.668" xlink:href="#mc62ef30ec3" y="241" stroke="#000" stroke-width=".6" id="line2d_55"/></g><g id="xtick_50"><use x="391.908" xlink:href="#mc62ef30ec3" y="241" stroke="#000" stroke-width=".6" id="line2d_56"/></g><g id="xtick_51"><use x="395.58" xlink:href="#mc62ef30ec3" y="241" stroke="#000" stroke-width=".6" id="line2d_57"/></g><g id="xtick_52"><use x="398.819" xlink:href="#mc62ef30ec3" y="241" stroke="#000" stroke-width=".6" id="line2d_58"/></g><g id="text_7"><defs><path d="M-.297 72.906h61.672v-8.312H35.5V0h-9.906v64.594H-.296z" id="DejaVuSans-84"/><path d="M9.422 54.688h8.984V0H9.422zm0 21.296h8.984v-11.39H9.422z" id="DejaVuSans-105"/><path d="M52 44.188q3.375 6.062 8.063 8.937Q64.75 56 71.093 56q8.548 0 13.188-5.984 4.64-5.97 4.64-17V0h-9.03v32.719q0 7.86-2.797 11.656-2.781 3.813-8.485 3.813-6.984 0-11.046-4.641-4.047-4.625-4.047-12.64V0h-9.032v32.719q0 7.906-2.78 11.687-2.782 3.782-8.595 3.782-6.89 0-10.953-4.657-4.047-4.656-4.047-12.625V0H9.08v54.688h9.03v-8.5q3.078 5.03 7.375 7.421Q29.781 56 35.687 56q5.97 0 10.141-3.031Q50 49.953 52 44.187z" id="DejaVuSans-109"/><path d="M56.203 29.594v-4.39H14.891q.593-9.282 5.593-14.142 5-4.859 13.938-4.859 5.172 0 10.031 1.266 4.86 1.265 9.656 3.812v-8.5Q49.266.734 44.187-.344 39.11-1.422 33.892-1.422q-13.094 0-20.735 7.61-7.64 7.625-7.64 20.625 0 13.421 7.25 21.296Q20.016 56 32.328 56q11.031 0 17.453-7.11 6.422-7.093 6.422-19.296zm-8.984 2.64q-.094 7.36-4.125 11.75-4.032 4.407-10.672 4.407-7.516 0-12.031-4.25-4.516-4.25-5.203-11.97z" id="DejaVuSans-101"/><path d="M31 75.875q-6.531-11.219-9.719-22.219-3.172-10.984-3.172-22.265 0-11.266 3.203-22.328Q24.517-2 31-13.188h-7.813Q15.875-1.704 12.235 9.375q-3.64 11.078-3.64 22.016 0 10.89 3.61 21.922 3.624 11.046 10.983 22.562z" id="DejaVuSans-40"/><path d="M44.281 53.078v-8.5q-3.797 1.953-7.906 2.922-4.094.984-8.5.984-6.688 0-10.031-2.047-3.344-2.046-3.344-6.156 0-3.125 2.39-4.906 2.391-1.781 9.626-3.39l3.078-.688q9.562-2.047 13.593-5.781 4.032-3.735 4.032-10.422 0-7.625-6.032-12.078-6.03-4.438-16.578-4.438-4.39 0-9.156.86Q10.688.296 5.422 2v9.281q4.984-2.594 9.812-3.89 4.829-1.282 9.579-1.282 6.343 0 9.75 2.172 3.421 2.172 3.421 6.125 0 3.656-2.468 5.61-2.453 1.953-10.813 3.765l-3.125.735q-8.344 1.75-12.062 5.39-3.704 3.64-3.704 9.985 0 7.718 5.47 11.906Q16.75 56 26.811 56q4.97 0 9.36-.734 4.406-.72 8.11-2.188z" id="DejaVuSans-115"/><path d="M8.016 75.875h7.812q7.313-11.516 10.953-22.563 3.64-11.03 3.64-21.921 0-10.938-3.64-22.016-3.64-11.078-10.953-22.563H8.016Q14.5-2 17.703 9.063q3.203 11.063 3.203 22.329 0 11.28-3.203 22.265-3.203 11-9.687 22.219z" id="DejaVuSans-41"/></defs><g transform="matrix(.1 0 0 -.1 200.495 269.277)"><use xlink:href="#DejaVuSans-84"/><use x="61.037" xlink:href="#DejaVuSans-105"/><use x="88.82" xlink:href="#DejaVuSans-109"/><use x="186.232" xlink:href="#DejaVuSans-101"/><use x="247.756" xlink:href="#DejaVuSans-32"/><use x="279.543" xlink:href="#DejaVuSans-40"/><use x="318.557" xlink:href="#DejaVuSans-109"/><use x="415.969" xlink:href="#DejaVuSans-115"/><use x="468.068" xlink:href="#DejaVuSans-41"/><use x="507.082" xlink:href="#DejaVuSans-32"/></g><defs><path d="M9.422 75.984h8.984V0H9.422z" id="DejaVuSans-108"/><path d="M30.61 48.39q-7.22 0-11.422-5.64-4.204-5.64-4.204-15.453 0-9.813 4.172-15.453 4.188-5.64 11.453-5.64 7.188 0 11.375 5.655 4.203 5.672 4.203 15.438 0 9.719-4.203 15.406-4.187 5.688-11.375 5.688zm0 7.61q11.718 0 18.406-7.625 6.703-7.61 6.703-21.078 0-13.422-6.703-21.078-6.688-7.64-18.407-7.64-11.765 0-18.437 7.64-6.656 7.656-6.656 21.078 0 13.469 6.656 21.078Q18.844 56 30.609 56z" id="DejaVuSans-111"/><path d="M45.406 27.984q0 9.766-4.031 15.125-4.016 5.375-11.297 5.375-7.219 0-11.25-5.375-4.031-5.359-4.031-15.125 0-9.718 4.031-15.093t11.25-5.375q7.281 0 11.297 5.375 4.031 5.375 4.031 15.093zm8.985-21.203q0-13.953-6.203-20.765Q42-20.797 29.203-20.797q-4.734 0-8.937.703-4.203.703-8.157 2.172v8.735q3.954-2.141 7.813-3.157 3.86-1.031 7.86-1.031 8.843 0 13.234 4.61 4.39 4.609 4.39 13.937v4.453q-2.781-4.844-7.125-7.234Q33.938 0 27.875 0 17.828 0 11.672 7.656q-6.156 7.672-6.156 20.328 0 12.688 6.156 20.344Q17.828 56 27.875 56q6.063 0 10.406-2.39 4.344-2.391 7.125-7.22v8.297h8.985z" id="DejaVuSans-103"/><path d="M48.688 27.297q0 9.906-4.079 15.547-4.078 5.64-11.203 5.64-7.14 0-11.218-5.64-4.079-5.64-4.079-15.547 0-9.906 4.078-15.547 4.079-5.64 11.22-5.64 7.124 0 11.202 5.64t4.078 15.547zM18.108 46.39q2.844 4.875 7.157 7.234Q29.594 56 35.594 56q9.968 0 16.187-7.906 6.235-7.907 6.235-20.797T51.78 6.484q-6.218-7.906-16.187-7.906-6 0-10.328 2.375-4.313 2.375-7.157 7.25V0H9.08v75.984h9.03z" id="DejaVuSans-98"/><path d="M34.281 27.484q-10.89 0-15.093-2.484-4.204-2.484-4.204-8.5 0-4.781 3.157-7.594 3.156-2.797 8.562-2.797 7.485 0 12 5.297 4.516 5.297 4.516 14.078v2zm17.922 3.72V0H43.22v8.297Q40.14 3.328 35.547.953q-4.594-2.375-11.234-2.375-8.391 0-13.36 4.719Q6 8.016 6 15.922q0 9.219 6.172 13.906 6.187 4.688 18.437 4.688h12.61v.89q0 6.203-4.078 9.594-4.078 3.39-11.453 3.39-4.688 0-9.141-1.124-4.438-1.125-8.531-3.375v8.312q4.921 1.906 9.562 2.844 4.64.953 9.031.953 11.875 0 17.735-6.156 5.86-6.14 5.86-18.64z" id="DejaVuSans-97"/></defs><g transform="matrix(.1 0 0 -.1 192.864 280.474)"><use xlink:href="#DejaVuSans-32"/><use x="31.787" xlink:href="#DejaVuSans-108"/><use x="59.57" xlink:href="#DejaVuSans-111"/><use x="120.752" xlink:href="#DejaVuSans-103"/><use x="184.229" xlink:href="#DejaVuSans-32"/><use x="216.016" xlink:href="#DejaVuSans-40"/><use x="255.029" xlink:href="#DejaVuSans-98"/><use x="318.506" xlink:href="#DejaVuSans-97"/><use x="379.785" xlink:href="#DejaVuSans-115"/><use x="431.885" xlink:href="#DejaVuSans-101"/><use x="493.408" xlink:href="#DejaVuSans-32"/><use x="525.195" xlink:href="#DejaVuSans-49"/><use x="588.818" xlink:href="#DejaVuSans-48"/><use x="652.441" xlink:href="#DejaVuSans-41"/></g></g></g><g id="matplotlib.axis_2"><g id="ytick_1"><path clip-path="url(#p9654a53b10)" d="M52.875 231.41H402" fill="none" stroke="#b0b0b0" stroke-dasharray="3.7,1.6" id="line2d_59"/><g id="line2d_60"><defs><path d="M0 0h-3.5" id="m21b7e21e44" stroke="#000" stroke-width=".8"/></defs><use x="52.875" xlink:href="#m21b7e21e44" y="231.41" stroke="#000" stroke-width=".8"/></g><g id="text_8"><defs><path d="M10.688 12.406H21V0H10.687z" id="DejaVuSans-46"/></defs><g transform="matrix(.1 0 0 -.1 29.972 235.21)"><use xlink:href="#DejaVuSans-48"/><use x="63.623" xlink:href="#DejaVuSans-46"/><use x="95.41" xlink:href="#DejaVuSans-48"/></g></g></g><g id="ytick_2"><path clip-path="url(#p9654a53b10)" d="M52.875 193.046H402" fill="none" stroke="#b0b0b0" stroke-dasharray="3.7,1.6" id="line2d_61"/><use x="52.875" xlink:href="#m21b7e21e44" y="193.046" stroke="#000" stroke-width=".8" id="line2d_62"/><g transform="matrix(.1 0 0 -.1 29.972 196.845)" id="text_9"><use xlink:href="#DejaVuSans-48"/><use x="63.623" xlink:href="#DejaVuSans-46"/><use x="95.41" xlink:href="#DejaVuSans-50"/></g></g><g id="ytick_3"><path clip-path="url(#p9654a53b10)" d="M52.875 154.682H402" fill="none" stroke="#b0b0b0" stroke-dasharray="3.7,1.6" id="line2d_63"/><use x="52.875" xlink:href="#m21b7e21e44" y="154.682" stroke="#000" stroke-width=".8" id="line2d_64"/><g id="text_10"><defs><path d="M37.797 64.313L12.89 25.39h24.906zm-2.594 8.593H47.61V25.391h10.407v-8.203H47.609V0h-9.812v17.188H4.89v9.515z" id="DejaVuSans-52"/></defs><g transform="matrix(.1 0 0 -.1 29.972 158.482)"><use xlink:href="#DejaVuSans-48"/><use x="63.623" xlink:href="#DejaVuSans-46"/><use x="95.41" xlink:href="#DejaVuSans-52"/></g></g></g><g id="ytick_4"><path clip-path="url(#p9654a53b10)" d="M52.875 116.319H402" fill="none" stroke="#b0b0b0" stroke-dasharray="3.7,1.6" id="line2d_65"/><use x="52.875" xlink:href="#m21b7e21e44" y="116.319" stroke="#000" stroke-width=".8" id="line2d_66"/><g id="text_11"><defs><path d="M33.016 40.375q-6.641 0-10.532-4.547-3.875-4.531-3.875-12.437 0-7.86 3.875-12.438 3.891-4.562 10.532-4.562 6.64 0 10.515 4.562 3.875 4.578 3.875 12.438 0 7.906-3.875 12.437-3.875 4.547-10.515 4.547zm19.578 30.922v-8.984q-3.719 1.75-7.5 2.671-3.782.938-7.5.938-9.766 0-14.922-6.594-5.14-6.594-5.875-19.922 2.875 4.25 7.219 6.516 4.359 2.266 9.578 2.266 10.984 0 17.36-6.672 6.374-6.657 6.374-18.125 0-11.235-6.64-18.032-6.641-6.78-17.672-6.78-12.657 0-19.344 9.687-6.688 9.703-6.688 28.109 0 17.281 8.204 27.563 8.203 10.28 22.015 10.28 3.719 0 7.5-.734t7.89-2.187z" id="DejaVuSans-54"/></defs><g transform="matrix(.1 0 0 -.1 29.972 120.118)"><use xlink:href="#DejaVuSans-48"/><use x="63.623" xlink:href="#DejaVuSans-46"/><use x="95.41" xlink:href="#DejaVuSans-54"/></g></g></g><g id="ytick_5"><path clip-path="url(#p9654a53b10)" d="M52.875 77.955H402" fill="none" stroke="#b0b0b0" stroke-dasharray="3.7,1.6" id="line2d_67"/><use x="52.875" xlink:href="#m21b7e21e44" y="77.955" stroke="#000" stroke-width=".8" id="line2d_68"/><g id="text_12"><defs><path d="M31.781 34.625q-7.031 0-11.062-3.766-4.016-3.765-4.016-10.343 0-6.594 4.016-10.36Q24.75 6.391 31.78 6.391q7.032 0 11.078 3.78 4.063 3.798 4.063 10.345 0 6.578-4.031 10.343-4.016 3.766-11.11 3.766zm-9.86 4.188q-6.343 1.562-9.89 5.906Q8.5 49.079 8.5 55.329q0 8.733 6.219 13.812 6.234 5.078 17.062 5.078 10.89 0 17.094-5.078 6.203-5.079 6.203-13.813 0-6.25-3.547-10.61-3.531-4.343-9.828-5.906 7.125-1.656 11.094-6.5 3.984-4.828 3.984-11.796 0-10.61-6.468-16.282-6.47-5.656-18.532-5.656-12.047 0-18.531 5.656-6.469 5.672-6.469 16.282 0 6.968 4 11.797 4.016 4.843 11.14 6.5zM18.314 54.39q0-5.657 3.53-8.828 3.548-3.172 9.938-3.172 6.36 0 9.938 3.172 3.593 3.171 3.593 8.828 0 5.672-3.593 8.843-3.578 3.172-9.938 3.172-6.39 0-9.937-3.172-3.532-3.172-3.532-8.843z" id="DejaVuSans-56"/></defs><g transform="matrix(.1 0 0 -.1 29.972 81.754)"><use xlink:href="#DejaVuSans-48"/><use x="63.623" xlink:href="#DejaVuSans-46"/><use x="95.41" xlink:href="#DejaVuSans-56"/></g></g></g><g id="ytick_6"><path clip-path="url(#p9654a53b10)" d="M52.875 39.59H402" fill="none" stroke="#b0b0b0" stroke-dasharray="3.7,1.6" id="line2d_69"/><use x="52.875" xlink:href="#m21b7e21e44" y="39.591" stroke="#000" stroke-width=".8" id="line2d_70"/><g transform="matrix(.1 0 0 -.1 29.972 43.39)" id="text_13"><use xlink:href="#DejaVuSans-49"/><use x="63.623" xlink:href="#DejaVuSans-46"/><use x="95.41" xlink:href="#DejaVuSans-48"/></g></g><g id="text_14"><defs><path d="M9.813 72.906h41.89v-8.312H19.672V43.109h28.906v-8.297H19.672V0h-9.86z" id="DejaVuSans-70"/><path d="M41.11 46.297q-1.516.875-3.297 1.281Q36.03 48 33.89 48q-7.625 0-11.703-4.953-4.079-4.953-4.079-14.234V0H9.08v54.688h9.03v-8.5q2.844 4.984 7.375 7.39Q30.031 56 36.531 56q.922 0 2.047-.125 1.125-.11 2.484-.36z" id="DejaVuSans-114"/><path d="M48.781 52.594v-8.407q-3.812 2.11-7.64 3.157-3.828 1.047-7.735 1.047-8.75 0-13.593-5.547-4.829-5.532-4.829-15.547 0-10.016 4.829-15.563 4.843-5.53 13.593-5.53 3.907 0 7.735 1.046 3.828 1.047 7.64 3.156V2.094Q45.016.344 40.984-.531q-4.015-.89-8.562-.89-12.36 0-19.64 7.765-7.266 7.765-7.266 20.953 0 13.375 7.343 21.031Q20.22 56 33.016 56q4.14 0 8.093-.86 3.953-.843 7.672-2.546z" id="DejaVuSans-99"/><path d="M18.313 70.219V54.688h18.5v-6.985h-18.5V18.016q0-6.688 1.828-8.594 1.828-1.906 7.453-1.906h9.218V0h-9.218q-10.407 0-14.36 3.875-3.953 3.89-3.953 14.14v29.688H2.687v6.984h6.594V70.22z" id="DejaVuSans-116"/><path d="M54.89 33.016V0h-8.984v32.719q0 7.765-3.031 11.61-3.031 3.858-9.078 3.858-7.281 0-11.484-4.64-4.204-4.625-4.204-12.64V0H9.08v54.688h9.03v-8.5q3.235 4.937 7.594 7.374Q30.078 56 35.797 56q9.422 0 14.25-5.828 4.844-5.828 4.844-17.156z" id="DejaVuSans-110"/><path d="M37.11 75.984V68.5h-8.594q-4.828 0-6.72-1.953-1.874-1.953-1.874-7.031v-4.828h14.797v-6.985H19.922V0H10.89v47.703H2.297v6.984h8.594V58.5q0 9.125 4.25 13.297 4.25 4.187 13.468 4.187z" id="DejaVuSans-102"/><path d="M44.39 34.188q3.172-1.079 6.172-4.594 3-3.516 6.032-9.672L66.609 0H56l-9.313 18.703q-3.624 7.328-7.015 9.719-3.39 2.39-9.25 2.39h-10.75V0h-9.86v72.906h22.266q12.5 0 18.656-5.234 6.157-5.219 6.157-15.766 0-6.89-3.203-11.437-3.204-4.532-9.297-6.282zM19.673 64.797V38.922h12.406q7.125 0 10.766 3.297 3.64 3.297 3.64 9.687 0 6.39-3.64 9.64-3.64 3.25-10.766 3.25z" id="DejaVuSans-82"/><path d="M14.797 27.297q0-9.906 4.078-15.547 4.078-5.64 11.203-5.64 7.125 0 11.219 5.64 4.11 5.64 4.11 15.547 0 9.906-4.11 15.547-4.094 5.64-11.219 5.64-7.125 0-11.203-5.64-4.078-5.64-4.078-15.547zm30.61-19.094q-2.83-4.875-7.157-7.25-4.313-2.375-10.375-2.375-9.906 0-16.14 7.906-6.22 7.922-6.22 20.813 0 12.89 6.22 20.797Q17.968 56 27.874 56q6.063 0 10.375-2.375 4.328-2.36 7.156-7.234v8.297h8.985v-75.485h-8.985z" id="DejaVuSans-113"/><path d="M8.5 21.578v33.11h8.984V21.922q0-7.766 3.016-11.656 3.031-3.875 9.094-3.875 7.265 0 11.484 4.64 4.234 4.64 4.234 12.656v31h8.985V0h-8.984v8.406Q42.047 3.422 37.718 1q-4.313-2.422-10.032-2.422-9.421 0-14.312 5.86Q8.5 10.296 8.5 21.578zM31.11 56z" id="DejaVuSans-117"/></defs><g transform="matrix(0 -.1 -.1 0 23.892 186.95)"><use xlink:href="#DejaVuSans-70"/><use x="57.41" xlink:href="#DejaVuSans-114"/><use x="98.523" xlink:href="#DejaVuSans-97"/><use x="159.803" xlink:href="#DejaVuSans-99"/><use x="214.783" xlink:href="#DejaVuSans-116"/><use x="253.992" xlink:href="#DejaVuSans-105"/><use x="281.775" xlink:href="#DejaVuSans-111"/><use x="342.957" xlink:href="#DejaVuSans-110"/><use x="406.336" xlink:href="#DejaVuSans-32"/><use x="438.123" xlink:href="#DejaVuSans-111"/><use x="499.305" xlink:href="#DejaVuSans-102"/><use x="534.51" xlink:href="#DejaVuSans-32"/><use x="566.297" xlink:href="#DejaVuSans-82"/><use x="635.717" xlink:href="#DejaVuSans-101"/><use x="697.24" xlink:href="#DejaVuSans-113"/><use x="760.717" xlink:href="#DejaVuSans-117"/><use x="824.096" xlink:href="#DejaVuSans-101"/><use x="885.619" xlink:href="#DejaVuSans-115"/><use x="937.719" xlink:href="#DejaVuSans-116"/><use x="976.928" xlink:href="#DejaVuSans-115"/></g></g></g><path clip-path="url(#p9654a53b10)" d="M109.573 231.41l5.442-.121 2-.297.765-.116.71-.184 2.534-.923.669-.402.653-.52 2.475-3.195.348-.586.319-.555.396-.766.415-.907.565-1.453 1.213-4.21 2.677-13.003.748-4.324.222-1.262 1.016-5.736.8-5.202.427-3.185 1.067-7.904.466-3.439 1.614-12.232.635-4.93 1.602-12.084.433-3.346.928-6.589.562-3.681.302-1.938.575-3.72.797-5.151.25-1.6.65-4.22.17-1.05 1.47-9.115 2.759-13.493 3.812-13.893.875-2.5.304-.848.675-1.678.094-.208.525-1.26.287-.658 1.366-2.961.221-.448.066-.145.447-.978.13-.253.347-.8.81-1.638.44-.866 1.115-1.806.26-.401.485-.69 1-1.272.181-.215.38-.524.178-.217.319-.41 4.234-4.3.785-.611.193-.136.275-.172 5.446-3.371.289-.158.522-.273.264-.166.47-.24.517-.257.145-.073.343-.17.22-.104 1.106-.513.357-.158 1.831-.716.687-.225.217-.067.461-.15 5.204-1.222 11.612-1.33 4.394-.328 5.14-.237.343-.016 3.178-.135 6.925-.153 18.847-.219 22.337-.137 49.808-.074h0" fill="none" stroke="#00aff0" stroke-dasharray="7.4,3.2" stroke-width="2" id="line2d_71"/><path clip-path="url(#p9654a53b10)" d="M108.49 231.41l2.244-.058 3.492-.123 6.931-.425.507-.065 1.049-.131 3.542-.99.41-.201.653-.3.869-.5.234-.145 1.795-1.504.28-.31.425-.49 1.402-1.805 1.787-3.687 2.2-6.937 1.023-4.06.343-1.454 3.373-16.346 4.242-23.883 3.259-18.012.493-3.02 1.01-6.152.366-2.213.429-2.39 1.132-6.315.305-1.654 5.608-29.04.352-1.925.996-5.169.105-.524.497-2.52 2.089-9.43.114-.489.778-3.232.84-3.483.18-.66.667-2.59.396-1.612.125-.431.32-1.072.3-.98.364-1.18 1.737-4.84.376-.956.448-1.072.088-.185.196-.434 2.027-3.785.1-.153.457-.719.25-.365.184-.258.17-.264.324-.45.297-.362.286-.377.242-.325.303-.424.299-.375.262-.338.426-.483.159-.18.626-.656.208-.223.292-.275.182-.198.183-.168.169-.192.319-.334.139-.144 2.155-1.755.463-.344.509-.34.304-.173.16-.08.246-.147 1.999-.893.533-.17 2.443-.565.167-.033 2.168-.332 1.185-.13 1.175-.094 14.154-.43 59.186-.285 56.267-.006h0" fill="none" stroke="maroon" stroke-dasharray="7.4,3.2" stroke-width="2" id="line2d_72"/><path clip-path="url(#p9654a53b10)" d="M109.164 231.408l5.042-.49 1.368-.489.522-.259.607-.354.892-.659.912-1.092 2.172-4.87.478-1.505.695-2.452.38-1.43.607-2.28.222-.887.964-3.917.855-3.753.929-4.598 3.342-21.038 3.57-28.658 1.045-7.626 4.754-32.635.099-.612.567-3.453 3.041-17.147 1.021-4.846.317-1.445.433-1.883.486-2.006.234-.96.335-1.287.961-3.546.27-1.007.648-2.231.44-1.468 1.062-3.217.293-.847.482-1.345.592-1.545.063-.172.44-1.077.299-.721 1.227-2.643 3.206-5.49.232-.328.394-.548.31-.398.217-.288.31-.401.323-.426.15-.182.278-.337.426-.516.157-.175.625-.649.187-.205.207-.2.197-.213.426-.404.255-.242 1.063-.86.497-.368.157-.094.654-.455.262-.2 1.736-1.034 2.475-1.256.472-.176.206-.079.392-.146 3.395-.96.781-.163.599-.105 1.819-.263.311-.041 1.639-.2.616-.065 10.3-.591 32.473-.603 18.892-.354 16.858-.19.488-.004 23.996-.14 18.473-.018h0" fill="none" stroke="#f50" stroke-dasharray="7.4,3.2" stroke-width="2" id="line2d_73"/><path clip-path="url(#p9654a53b10)" d="M205.265 231.41l70.645-.42 3.991-.15.42-.136.206-.145.279-.287.524-1.781.321-2.07.103-.728.463-4.618.157-1.9.062-.803.12-1.738.177-2.699.044-.729.192-3.363.17-2.963.128-2.066.48-7.817.056-.916 1.707-23.02.024-.32.914-7.398.052-.276 1.006-3.87.165-.36.195-.37.267-.393.171-.195.18-.174.534-.48.21-.216.137-.132.16-.156.667-.652.11-.124.139-.13.21-.203 2.503-1.931.453-.168.15-.049.842-.183.33-.062 4.608-.27 4.123-.246.537-.86.303-.199.134-.076.942-.353.568-.156 4.545-.414 2.089-.564.158-.095 1.806-1.373.113-.145.096-.137.336-.418.125-.134.172-.15.16-.157.223-.164.666-.424.18-.125.458-.241 1.575-.947.62-.33 1.18-.797.123-.129.292-.404.123-.175.184-.244 1.281-1.33.197-.162.294-.235.209-.154.883-.512.638-.252.663-.336.871-1.104.588-.641.132-.147.2-.29.186-.242.15-.15 2.225-1.618.39-.207.212-.167.406-.506.133-.18.38-.429 1.363-1.994.128-.221 1.143-2.054.11-.174.706-1.176.12-.197.152-.225.09-.133.202-.267.735-1.514.515-2.166.062-.297.22-1.143.14-.79.117-.745.21-1.567.301-3.222.124-1.973.037-.693.158-3.588.19-5.524.162-5.324.05-1.749.125-4.293.067-2.263.186-5.98.027-.745.233-6.51.052-1.323.527-11.485.193-3.816.052-.963.432-7.237.192-2.475.034-.386.363-3.189.08-.476.15-.845.119-.543.68-1.98.067-.161.825-1.435.129-.159.647-.812.176-.228 2.01-2.304.25-.161.126-.078.23-.126 2.396-.386 25.832-.142 11.49-.002h0" fill="none" stroke="#58b792" stroke-dasharray="7.4,3.2" stroke-width="2" id="line2d_74"/><path clip-path="url(#p9654a53b10)" d="M109.55 231.41l6.295-.117.762-.035 3.362-.177 2.505-.39.787-.172 1.043-.378 1.031-.517.19-.114 3.587-2.59.435-.421 2.454-2.89.46-.642.583-.894 1.159-2.314 3.4-8.597.906-2.689.658-2.215.496-1.897.132-.524 1.059-4.862.855-4.448.36-1.981.487-2.538 1.606-9.186 1.493-8.949.227-1.36 6.25-37.024 4.1-23.01 1.259-6.234.098-.479.333-1.555.385-1.78 1.936-8.225.757-2.958.694-2.603.086-.332 1.303-4.87.201-.692.467-1.53.321-.974.325-.94.559-1.498.244-.643.308-.785 3.497-7.922 1.704-3.155 1.003-1.615.397-.606.153-.252 2.533-3.597.335-.42.521-.655.147-.182.45-.528.16-.2.33-.353.894-.938.195-.21 1.417-1.45.188-.204.177-.157.255-.255 1.672-1.502.157-.132.4-.337.53-.406.231-.178.171-.112.326-.204.175-.125.3-.198.37-.255.465-.298.28-.16.331-.193 1.447-.742.258-.147.137-.056.377-.182.977-.508.408-.167 3.187-1.335.74-.255.707-.25.993-.291.247-.067.729-.189.708-.192.627-.152.61-.158 11.323-2.007 8.288-.671 4.623-.196.467-.017 14.602-.258 62.994-.151h0" fill="none" stroke="#c70d2c" stroke-dasharray="7.4,3.2" stroke-width="2" id="line2d_75"/><path clip-path="url(#p9654a53b10)" d="M68.744 231.408l1.738-.123 3.343-.42.896-.39.713-.58.388-.53.61-1.247 2.241-5.865 1.553-7.508.488-3.588.637-6.627.746-10.577 3.1-48.397.782-11.903.736-9.238.64-6.151.75-5.07 1.276-5.622.788-2.156 1.447-2.721.939-1.13.354-.27.593-.488 1.209-1.013.5-.59 1.822-2.582.564-1.79.774-2.96.737-2.932 1.447-7.085 2.082-7.295 2.07-6.001 1.457-5.656 1.432-6.356.871-2.939.316-.778.472-1.088.543-1.163 1.778-2.815.282-.253.35-.351.62-.517.849-.455.396-.182 1.646-.768 7.528-2.77 2.965-.636 3.623-.45 2.934-.361 1.072-.138 1.273-.124 3.15-.314.386-.051 6.859-.396 35.048-.364 34.498-.019 66.831-.024h0" fill="none" stroke="#98b3be" stroke-dasharray="7.4,3.2" stroke-width="2" id="line2d_76"/><path clip-path="url(#p9654a53b10)" d="M117.34 231.41l3.81-.148 1.486-.814.673-1.003.83-2.038.998-4.346 1.032-6.492.629-4.976 2.325-23.423.57-6.607 1.15-15.264.669-8.812 2.427-28.018 3.385-30.471 1.165-7.542.236-1.304.361-1.994 1.293-6.093 1.446-5.64 1.809-5.033 1.16-2.476.115-.24.209-.42 2.426-3.851 1.134-1.56.876-1.186.234-.286.305-.359.206-.269.273-.304 2.005-2.92.719-1.085.58-.82.207-.28 1.256-1.739.121-.137.35-.426.238-.295.249-.284.234-.234 1.157-1.124.263-.24.179-.201.448-.421.316-.266.16-.124.572-.387.534-.354.314-.189.263-.195.214-.138.485-.327.295-.188.213-.123.25-.142.165-.09 2.135-1.237.142-.09 3.79-2.028.37-.127 1.402-.485.435-.171.435-.145 4.195-1.09 1.22-.225.224-.048 1.581-.31 1-.195.927-.201.194-.05.693-.14.651-.155.674-.139 5.743-.667 4.093-.211 28.835-.34 74.068-.067h0" fill="none" stroke="#1f3757" stroke-dasharray="7.4,3.2" stroke-width="2" id="line2d_77"/><path d="M52.875 241V30" fill="none" stroke="#000" stroke-linecap="square" stroke-width=".8" id="patch_3"/><path d="M402 241V30" fill="none" stroke="#000" stroke-linecap="square" stroke-width=".8" id="patch_4"/><path d="M52.875 241H402" fill="none" stroke="#000" stroke-linecap="square" stroke-width=".8" id="patch_5"/><path d="M52.875 30H402" fill="none" stroke="#000" stroke-linecap="square" stroke-width=".8" id="patch_6"/><g id="text_15"><defs><path d="M19.672 64.797V8.109h11.922q15.093 0 22.093 6.829 7 6.843 7 21.593 0 14.64-7 21.453-7 6.813-22.093 6.813zm-9.86 8.11h20.266q21.188 0 31.094-8.813 9.922-8.813 9.922-27.563 0-18.86-9.969-27.703Q51.172 0 30.078 0H9.813z" id="DejaVuSans-68"/><path d="M11.719 12.406h10.297V0H11.719zm0 39.297h10.297v-12.39H11.719z" id="DejaVuSans-58"/><path d="M34.188 63.188L20.797 26.906h26.812zm-5.579 9.718h11.188L67.578 0h-10.25l-6.64 18.703h-32.86L11.188 0H.78z" id="DejaVuSans-65"/><path d="M64.406 67.281v-10.39q-4.984 4.64-10.625 6.922-5.64 2.296-11.984 2.296-12.5 0-19.14-7.64-6.641-7.64-6.641-22.094 0-14.406 6.64-22.047 6.64-7.64 19.14-7.64 6.345 0 11.985 2.296 5.64 2.297 10.625 6.938V5.609Q59.234 2.094 53.437.33q-5.78-1.75-12.218-1.75-16.563 0-26.094 10.124-9.516 10.14-9.516 27.672 0 17.578 9.516 27.703 9.531 10.14 26.094 10.14 6.531 0 12.312-1.734 5.797-1.734 10.875-5.203z" id="DejaVuSans-67"/></defs><g transform="matrix(.12 0 0 -.12 125.235 24)"><use xlink:href="#DejaVuSans-68"/><use x="77.002" xlink:href="#DejaVuSans-101"/><use x="138.525" xlink:href="#DejaVuSans-99"/><use x="193.506" xlink:href="#DejaVuSans-105"/><use x="221.289" xlink:href="#DejaVuSans-115"/><use x="273.389" xlink:href="#DejaVuSans-105"/><use x="301.172" xlink:href="#DejaVuSans-111"/><use x="362.354" xlink:href="#DejaVuSans-110"/><use x="425.732" xlink:href="#DejaVuSans-32"/><use x="457.52" xlink:href="#DejaVuSans-84"/><use x="518.557" xlink:href="#DejaVuSans-105"/><use x="546.34" xlink:href="#DejaVuSans-109"/><use x="643.752" xlink:href="#DejaVuSans-101"/><use x="705.275" xlink:href="#DejaVuSans-58"/><use x="738.967" xlink:href="#DejaVuSans-32"/><use x="770.754" xlink:href="#DejaVuSans-65"/><use x="839.162" xlink:href="#DejaVuSans-108"/><use x="866.945" xlink:href="#DejaVuSans-108"/><use x="894.729" xlink:href="#DejaVuSans-32"/><use x="926.516" xlink:href="#DejaVuSans-82"/><use x="995.936" xlink:href="#DejaVuSans-101"/><use x="1057.459" xlink:href="#DejaVuSans-113"/><use x="1120.936" xlink:href="#DejaVuSans-117"/><use x="1184.314" xlink:href="#DejaVuSans-101"/><use x="1245.838" xlink:href="#DejaVuSans-115"/><use x="1297.938" xlink:href="#DejaVuSans-116"/><use x="1337.146" xlink:href="#DejaVuSans-115"/><use x="1389.246" xlink:href="#DejaVuSans-32"/><use x="1421.033" xlink:href="#DejaVuSans-40"/><use x="1460.047" xlink:href="#DejaVuSans-67"/><use x="1529.871" xlink:href="#DejaVuSans-68"/><use x="1606.873" xlink:href="#DejaVuSans-70"/><use x="1664.393" xlink:href="#DejaVuSans-41"/></g></g><g id="legend_1"><path d="M293.572 236H395q2 0 2-2V132.253q0-2-2-2H293.572q-2 0-2 2V234q0 2 2 2z" fill="#fff" opacity=".8" stroke="#ccc" id="patch_7"/><path d="M295.572 138.352h20" fill="none" stroke="#00aff0" stroke-dasharray="7.4,3.2" stroke-width="2" id="line2d_78"/><g id="text_16"><defs><path d="M5.516 54.688h42.672v-8.204L14.406 7.172h33.782V0H4.297v8.203l33.797 39.313H5.516z" id="DejaVuSans-122"/></defs><g transform="matrix(.1 0 0 -.1 323.572 141.852)"><use xlink:href="#DejaVuSans-67"/><use x="69.824" xlink:href="#DejaVuSans-108"/><use x="97.607" xlink:href="#DejaVuSans-105"/><use x="125.391" xlink:href="#DejaVuSans-113"/><use x="188.867" xlink:href="#DejaVuSans-122"/></g></g><path d="M295.572 153.03h20" fill="none" stroke="maroon" stroke-dasharray="7.4,3.2" stroke-width="2" id="line2d_80"/><g id="text_17"><defs><path d="M19.672 34.813V8.108H35.5q7.953 0 11.781 3.297 3.844 3.297 3.844 10.078 0 6.844-3.844 10.078-3.828 3.25-11.781 3.25zm0 29.984V42.828h14.61q7.218 0 10.75 2.703 3.546 2.719 3.546 8.282 0 5.515-3.547 8.25-3.531 2.734-10.75 2.734zm-9.86 8.11h25.204q11.28 0 17.375-4.688Q58.5 63.53 58.5 54.89q0-6.703-3.125-10.657-3.125-3.953-9.188-4.922 7.282-1.562 11.313-6.53 4.031-4.954 4.031-12.376 0-9.765-6.64-15.093Q48.25 0 35.984 0H9.812z" id="DejaVuSans-66"/><path d="M9.078 75.984h9.031V31.11l26.813 23.578H56.39l-29-25.578L57.625 0H45.906L18.11 26.703V0H9.08z" id="DejaVuSans-107"/><path d="M39.406 66.219q-10.75 0-17.078-8.016-6.312-8-6.312-21.828 0-13.766 6.312-21.781 6.328-8 17.078-8 10.735 0 17.016 8 6.281 8.015 6.281 21.781 0 13.828-6.281 21.828-6.281 8.016-17.016 8.016zm0 8q15.328 0 24.5-10.281 9.188-10.282 9.188-27.563 0-17.234-9.188-27.516-9.172-10.28-24.5-10.28-15.375 0-24.593 10.25-9.204 10.265-9.204 27.546t9.204 27.563q9.218 10.28 24.593 10.28z" id="DejaVuSans-79"/></defs><g transform="matrix(.1 0 0 -.1 323.572 156.53)"><use xlink:href="#DejaVuSans-117"/><use x="63.379" xlink:href="#DejaVuSans-66"/><use x="131.982" xlink:href="#DejaVuSans-108"/><use x="159.766" xlink:href="#DejaVuSans-111"/><use x="220.947" xlink:href="#DejaVuSans-99"/><use x="275.928" xlink:href="#DejaVuSans-107"/><use x="333.838" xlink:href="#DejaVuSans-32"/><use x="365.625" xlink:href="#DejaVuSans-79"/><use x="444.336" xlink:href="#DejaVuSans-114"/><use x="485.449" xlink:href="#DejaVuSans-105"/><use x="513.232" xlink:href="#DejaVuSans-103"/><use x="576.709" xlink:href="#DejaVuSans-105"/><use x="604.492" xlink:href="#DejaVuSans-110"/></g></g><path d="M295.572 167.708h20" fill="none" stroke="#f50" stroke-dasharray="7.4,3.2" stroke-width="2" id="line2d_82"/><g id="text_18"><defs><path d="M2.984 54.688H12.5L29.594 8.797l17.093 45.89h9.516L35.687 0H23.485z" id="DejaVuSans-118"/></defs><g transform="matrix(.1 0 0 -.1 323.572 171.208)"><use xlink:href="#DejaVuSans-66"/><use x="68.604" xlink:href="#DejaVuSans-114"/><use x="109.717" xlink:href="#DejaVuSans-97"/><use x="170.996" xlink:href="#DejaVuSans-118"/><use x="230.176" xlink:href="#DejaVuSans-101"/></g></g><path d="M295.572 182.386h20" fill="none" stroke="#58b792" stroke-dasharray="7.4,3.2" stroke-width="2" id="line2d_84"/><g id="text_19"><defs><path d="M59.516 10.406v19.578h-16.11v8.11h25.875V6.78Q63.578 2.734 56.687.656 49.813-1.422 42-1.422q-17.094 0-26.75 9.985-9.64 10-9.64 27.812 0 17.875 9.64 27.86 9.656 9.984 26.75 9.984 7.125 0 13.547-1.766 6.422-1.75 11.844-5.172v-10.5q-5.47 4.64-11.625 6.985-6.157 2.343-12.938 2.343-13.39 0-20.11-7.468-6.702-7.47-6.702-22.266 0-14.75 6.703-22.219 6.718-7.469 20.11-7.469 5.218 0 9.312.907 4.109.906 7.375 2.812z" id="DejaVuSans-71"/></defs><g transform="matrix(.1 0 0 -.1 323.572 185.886)"><use xlink:href="#DejaVuSans-68"/><use x="77.002" xlink:href="#DejaVuSans-117"/><use x="140.381" xlink:href="#DejaVuSans-99"/><use x="195.361" xlink:href="#DejaVuSans-107"/><use x="253.271" xlink:href="#DejaVuSans-68"/><use x="330.273" xlink:href="#DejaVuSans-117"/><use x="393.652" xlink:href="#DejaVuSans-99"/><use x="448.633" xlink:href="#DejaVuSans-107"/><use x="506.543" xlink:href="#DejaVuSans-71"/><use x="584.033" xlink:href="#DejaVuSans-111"/></g></g><path d="M295.572 197.064h20" fill="none" stroke="#c70d2c" stroke-dasharray="7.4,3.2" stroke-width="2" id="line2d_86"/><g id="text_20"><defs><path d="M45.406 46.39v29.594h8.985V0h-8.985v8.203Q42.578 3.328 38.25.953q-4.313-2.375-10.375-2.375-9.906 0-16.14 7.906-6.22 7.922-6.22 20.813 0 12.89 6.22 20.797Q17.968 56 27.874 56q6.063 0 10.375-2.375 4.328-2.36 7.156-7.234zm-30.61-19.093q0-9.906 4.079-15.547 4.078-5.64 11.203-5.64 7.125 0 11.219 5.64 4.11 5.64 4.11 15.547 0 9.906-4.11 15.547-4.094 5.64-11.219 5.64-7.125 0-11.203-5.64-4.078-5.64-4.078-15.547z" id="DejaVuSans-100"/><path d="M19.672 64.797v-27.39h12.406q6.89 0 10.64 3.562 3.766 3.562 3.766 10.156 0 6.547-3.765 10.11-3.75 3.562-10.64 3.562zm-9.86 8.11h22.266q12.266 0 18.531-5.548 6.282-5.546 6.282-16.234 0-10.797-6.282-16.313-6.265-5.515-18.53-5.515H19.671V0h-9.86z" id="DejaVuSans-80"/></defs><g transform="matrix(.1 0 0 -.1 323.572 200.564)"><use xlink:href="#DejaVuSans-65"/><use x="68.393" xlink:href="#DejaVuSans-100"/><use x="131.869" xlink:href="#DejaVuSans-98"/><use x="195.346" xlink:href="#DejaVuSans-108"/><use x="223.129" xlink:href="#DejaVuSans-111"/><use x="284.311" xlink:href="#DejaVuSans-99"/><use x="339.291" xlink:href="#DejaVuSans-107"/><use x="397.201" xlink:href="#DejaVuSans-32"/><use x="428.988" xlink:href="#DejaVuSans-80"/><use x="489.291" xlink:href="#DejaVuSans-108"/><use x="517.074" xlink:href="#DejaVuSans-117"/><use x="580.453" xlink:href="#DejaVuSans-115"/></g></g><path d="M295.572 211.742h20" fill="none" stroke="#98b3be" stroke-dasharray="7.4,3.2" stroke-width="2" id="line2d_88"/><g transform="matrix(.1 0 0 -.1 323.572 215.242)" id="text_21"><use xlink:href="#DejaVuSans-84"/><use x="61.084" xlink:href="#DejaVuSans-108"/><use x="88.867" xlink:href="#DejaVuSans-100"/><use x="152.344" xlink:href="#DejaVuSans-116"/><use x="191.553" xlink:href="#DejaVuSans-115"/><use x="243.652" xlink:href="#DejaVuSans-32"/><use x="275.439" xlink:href="#DejaVuSans-98"/><use x="338.916" xlink:href="#DejaVuSans-97"/><use x="400.195" xlink:href="#DejaVuSans-115"/><use x="452.295" xlink:href="#DejaVuSans-101"/><use x="513.818" xlink:href="#DejaVuSans-108"/><use x="541.602" xlink:href="#DejaVuSans-105"/><use x="569.385" xlink:href="#DejaVuSans-110"/><use x="632.764" xlink:href="#DejaVuSans-101"/></g><path d="M295.572 226.42h20" fill="none" stroke="#1f3757" stroke-dasharray="7.4,3.2" stroke-width="2" id="line2d_90"/><g id="text_22"><defs><path d="M8.688 72.906h9.921V28.61q0-11.718 4.235-16.875 4.25-5.14 13.781-5.14 9.469 0 13.719 5.14 4.25 5.157 4.25 16.875v44.297H64.5V27.391q0-14.25-7.063-21.532-7.046-7.28-20.812-7.28-13.828 0-20.89 7.28-7.047 7.282-7.047 21.532z" id="DejaVuSans-85"/><path d="M9.813 72.906h9.859V8.296h35.5V0H9.812z" id="DejaVuSans-76"/></defs><g transform="matrix(.1 0 0 -.1 323.572 229.92)"><use xlink:href="#DejaVuSans-85"/><use x="73.193" xlink:href="#DejaVuSans-82"/><use x="142.676" xlink:href="#DejaVuSans-76"/><use x="198.389" xlink:href="#DejaVuSans-32"/><use x="230.176" xlink:href="#DejaVuSans-98"/><use x="293.652" xlink:href="#DejaVuSans-97"/><use x="354.932" xlink:href="#DejaVuSans-115"/><use x="407.031" xlink:href="#DejaVuSans-101"/><use x="468.555" xlink:href="#DejaVuSans-108"/><use x="496.338" xlink:href="#DejaVuSans-105"/><use x="524.121" xlink:href="#DejaVuSans-110"/><use x="587.5" xlink:href="#DejaVuSans-101"/></g></g></g></g></g><defs><clipPath id="p9654a53b10"><path d="M52.875 30H402v211H52.875z"/></clipPath></defs></svg>