<svg height="384" viewBox="0 0 432 288" width="576" xmlns="http://www.w3.org/2000/svg" xmlns:xlink="http://www.w3.org/1999/xlink"><defs><style>*{stroke-linecap:butt;stroke-linejoin:round}</style></defs><g id="figure_1"><path d="M0 288h432V0H0z" fill="#fff" id="patch_1"/><g id="axes_1"><path d="M52.875 241h338.063V30H52.875z" fill="#fff" id="patch_2"/><g id="matplotlib.axis_1"><g id="xtick_1"><path clip-path="url(#pbbc1c84d09)" d="M52.875 241V30" fill="none" stroke="#b0b0b0" stroke-dasharray="3.7,1.6" id="line2d_1"/><g id="line2d_2"><defs><path d="M0 0v3.5" id="maa1420c42a" stroke="#000" stroke-width=".8"/></defs><use x="52.875" xlink:href="#maa1420c42a" y="241" stroke="#000" stroke-width=".8"/></g><g id="text_1"><defs><path d="M31.781 66.406q-7.61 0-11.453-7.5Q16.5 51.422 16.5 36.375q0-14.984 3.828-22.484 3.844-7.5 11.453-7.5 7.672 0 11.5 7.5 3.844 7.5 3.844 22.484 0 15.047-3.844 22.531-3.828 7.5-11.5 7.5zm0 7.813q12.266 0 18.735-9.703 6.468-9.688 6.468-28.141 0-18.406-6.468-28.11-6.47-9.687-18.735-9.687-12.25 0-18.718 9.688-6.47 9.703-6.47 28.109 0 18.453 6.47 28.14Q19.53 74.22 31.78 74.22z" id="DejaVuSans-48"/><path d="M10.688 12.406H21V0H10.687z" id="DejaVuSans-46"/></defs><g transform="matrix(.1 0 0 -.1 41.742 255.598)"><use xlink:href="#DejaVuSans-48"/><use x="63.623" xlink:href="#DejaVuSans-46"/><use x="95.41" xlink:href="#DejaVuSans-48"/><use x="159.033" xlink:href="#DejaVuSans-48"/></g></g></g><g id="xtick_2"><path clip-path="url(#pbbc1c84d09)" d="M120.487 241V30" fill="none" stroke="#b0b0b0" stroke-dasharray="3.7,1.6" id="line2d_3"/><use x="120.487" xlink:href="#maa1420c42a" y="241" stroke="#000" stroke-width=".8" id="line2d_4"/><g id="text_2"><defs><path d="M19.188 8.297h34.421V0H7.33v8.297q5.609 5.812 15.296 15.594 9.703 9.797 12.188 12.64 4.734 5.313 6.609 9 1.89 3.688 1.89 7.25 0 5.813-4.078 9.469-4.078 3.672-10.625 3.672-4.64 0-9.797-1.61-5.14-1.609-11-4.89v9.969Q13.767 71.78 18.938 73q5.188 1.219 9.485 1.219 11.328 0 18.062-5.672 6.735-5.656 6.735-15.125 0-4.5-1.688-8.531-1.672-4.016-6.125-9.485-1.218-1.422-7.765-8.187-6.532-6.766-18.453-18.922z" id="DejaVuSans-50"/></defs><g transform="matrix(.1 0 0 -.1 109.355 255.598)"><use xlink:href="#DejaVuSans-48"/><use x="63.623" xlink:href="#DejaVuSans-46"/><use x="95.41" xlink:href="#DejaVuSans-48"/><use x="159.033" xlink:href="#DejaVuSans-50"/></g></g></g><g id="xtick_3"><path clip-path="url(#pbbc1c84d09)" d="M188.1 241V30" fill="none" stroke="#b0b0b0" stroke-dasharray="3.7,1.6" id="line2d_5"/><use x="188.1" xlink:href="#maa1420c42a" y="241" stroke="#000" stroke-width=".8" id="line2d_6"/><g id="text_3"><defs><path d="M37.797 64.313L12.89 25.39h24.906zm-2.594 8.593H47.61V25.391h10.407v-8.203H47.609V0h-9.812v17.188H4.89v9.515z" id="DejaVuSans-52"/></defs><g transform="matrix(.1 0 0 -.1 176.967 255.598)"><use xlink:href="#DejaVuSans-48"/><use x="63.623" xlink:href="#DejaVuSans-46"/><use x="95.41" xlink:href="#DejaVuSans-48"/><use x="159.033" xlink:href="#DejaVuSans-52"/></g></g></g><g id="xtick_4"><path clip-path="url(#pbbc1c84d09)" d="M255.713 241V30" fill="none" stroke="#b0b0b0" stroke-dasharray="3.7,1.6" id="line2d_7"/><use x="255.713" xlink:href="#maa1420c42a" y="241" stroke="#000" stroke-width=".8" id="line2d_8"/><g id="text_4"><defs><path d="M33.016 40.375q-6.641 0-10.532-4.547-3.875-4.531-3.875-12.437 0-7.86 3.875-12.438 3.891-4.562 10.532-4.562 6.64 0 10.515 4.562 3.875 4.578 3.875 12.438 0 7.906-3.875 12.437-3.875 4.547-10.515 4.547zm19.578 30.922v-8.984q-3.719 1.75-7.5 2.671-3.782.938-7.5.938-9.766 0-14.922-6.594-5.14-6.594-5.875-19.922 2.875 4.25 7.219 6.516 4.359 2.266 9.578 2.266 10.984 0 17.36-6.672 6.374-6.657 6.374-18.125 0-11.235-6.64-18.032-6.641-6.78-17.672-6.78-12.657 0-19.344 9.687-6.688 9.703-6.688 28.109 0 17.281 8.204 27.563 8.203 10.28 22.015 10.28 3.719 0 7.5-.734t7.89-2.187z" id="DejaVuSans-54"/></defs><g transform="matrix(.1 0 0 -.1 244.58 255.598)"><use xlink:href="#DejaVuSans-48"/><use x="63.623" xlink:href="#DejaVuSans-46"/><use x="95.41" xlink:href="#DejaVuSans-48"/><use x="159.033" xlink:href="#DejaVuSans-54"/></g></g></g><g id="xtick_5"><path clip-path="url(#pbbc1c84d09)" d="M323.325 241V30" fill="none" stroke="#b0b0b0" stroke-dasharray="3.7,1.6" id="line2d_9"/><use x="323.325" xlink:href="#maa1420c42a" y="241" stroke="#000" stroke-width=".8" id="line2d_10"/><g id="text_5"><defs><path d="M31.781 34.625q-7.031 0-11.062-3.766-4.016-3.765-4.016-10.343 0-6.594 4.016-10.36Q24.75 6.391 31.78 6.391q7.032 0 11.078 3.78 4.063 3.798 4.063 10.345 0 6.578-4.031 10.343-4.016 3.766-11.11 3.766zm-9.86 4.188q-6.343 1.562-9.89 5.906Q8.5 49.079 8.5 55.329q0 8.733 6.219 13.812 6.234 5.078 17.062 5.078 10.89 0 17.094-5.078 6.203-5.079 6.203-13.813 0-6.25-3.547-10.61-3.531-4.343-9.828-5.906 7.125-1.656 11.094-6.5 3.984-4.828 3.984-11.796 0-10.61-6.468-16.282-6.47-5.656-18.532-5.656-12.047 0-18.531 5.656-6.469 5.672-6.469 16.282 0 6.968 4 11.797 4.016 4.843 11.14 6.5zM18.314 54.39q0-5.657 3.53-8.828 3.548-3.172 9.938-3.172 6.36 0 9.938 3.172 3.593 3.171 3.593 8.828 0 5.672-3.593 8.843-3.578 3.172-9.938 3.172-6.39 0-9.937-3.172-3.532-3.172-3.532-8.843z" id="DejaVuSans-56"/></defs><g transform="matrix(.1 0 0 -.1 312.192 255.598)"><use xlink:href="#DejaVuSans-48"/><use x="63.623" xlink:href="#DejaVuSans-46"/><use x="95.41" xlink:href="#DejaVuSans-48"/><use x="159.033" xlink:href="#DejaVuSans-56"/></g></g></g><g id="xtick_6"><path clip-path="url(#pbbc1c84d09)" d="M390.938 241V30" fill="none" stroke="#b0b0b0" stroke-dasharray="3.7,1.6" id="line2d_11"/><use x="390.938" xlink:href="#maa1420c42a" y="241" stroke="#000" stroke-width=".8" id="line2d_12"/><g id="text_6"><defs><path d="M12.406 8.297h16.11v55.625l-17.532-3.516v8.985l17.438 3.515h9.86V8.296H54.39V0H12.406z" id="DejaVuSans-49"/></defs><g transform="matrix(.1 0 0 -.1 379.805 255.598)"><use xlink:href="#DejaVuSans-48"/><use x="63.623" xlink:href="#DejaVuSans-46"/><use x="95.41" xlink:href="#DejaVuSans-49"/><use x="159.033" xlink:href="#DejaVuSans-48"/></g></g></g><g id="text_7"><defs><path d="M-.297 72.906h61.672v-8.312H35.5V0h-9.906v64.594H-.296z" id="DejaVuSans-84"/><path d="M9.422 54.688h8.984V0H9.422zm0 21.296h8.984v-11.39H9.422z" id="DejaVuSans-105"/><path d="M52 44.188q3.375 6.062 8.063 8.937Q64.75 56 71.093 56q8.548 0 13.188-5.984 4.64-5.97 4.64-17V0h-9.03v32.719q0 7.86-2.797 11.656-2.781 3.813-8.485 3.813-6.984 0-11.046-4.641-4.047-4.625-4.047-12.64V0h-9.032v32.719q0 7.906-2.78 11.687-2.782 3.782-8.595 3.782-6.89 0-10.953-4.657-4.047-4.656-4.047-12.625V0H9.08v54.688h9.03v-8.5q3.078 5.03 7.375 7.421Q29.781 56 35.687 56q5.97 0 10.141-3.031Q50 49.953 52 44.187z" id="DejaVuSans-109"/><path d="M56.203 29.594v-4.39H14.891q.593-9.282 5.593-14.142 5-4.859 13.938-4.859 5.172 0 10.031 1.266 4.86 1.265 9.656 3.812v-8.5Q49.266.734 44.187-.344 39.11-1.422 33.892-1.422q-13.094 0-20.735 7.61-7.64 7.625-7.64 20.625 0 13.421 7.25 21.296Q20.016 56 32.328 56q11.031 0 17.453-7.11 6.422-7.093 6.422-19.296zm-8.984 2.64q-.094 7.36-4.125 11.75-4.032 4.407-10.672 4.407-7.516 0-12.031-4.25-4.516-4.25-5.203-11.97z" id="DejaVuSans-101"/><path d="M31 75.875q-6.531-11.219-9.719-22.219-3.172-10.984-3.172-22.265 0-11.266 3.203-22.328Q24.517-2 31-13.188h-7.813Q15.875-1.704 12.235 9.375q-3.64 11.078-3.64 22.016 0 10.89 3.61 21.922 3.624 11.046 10.983 22.562z" id="DejaVuSans-40"/><path d="M44.281 53.078v-8.5q-3.797 1.953-7.906 2.922-4.094.984-8.5.984-6.688 0-10.031-2.047-3.344-2.046-3.344-6.156 0-3.125 2.39-4.906 2.391-1.781 9.626-3.39l3.078-.688q9.562-2.047 13.593-5.781 4.032-3.735 4.032-10.422 0-7.625-6.032-12.078-6.03-4.438-16.578-4.438-4.39 0-9.156.86Q10.688.296 5.422 2v9.281q4.984-2.594 9.812-3.89 4.829-1.282 9.579-1.282 6.343 0 9.75 2.172 3.421 2.172 3.421 6.125 0 3.656-2.468 5.61-2.453 1.953-10.813 3.765l-3.125.735q-8.344 1.75-12.062 5.39-3.704 3.64-3.704 9.985 0 7.718 5.47 11.906Q16.75 56 26.811 56q4.97 0 9.36-.734 4.406-.72 8.11-2.188z" id="DejaVuSans-115"/><path d="M8.016 75.875h7.812q7.313-11.516 10.953-22.563 3.64-11.03 3.64-21.921 0-10.938-3.64-22.016-3.64-11.078-10.953-22.563H8.016Q14.5-2 17.703 9.063q3.203 11.063 3.203 22.329 0 11.28-3.203 22.265-3.203 11-9.687 22.219z" id="DejaVuSans-41"/></defs><g transform="matrix(.1 0 0 -.1 196.553 269.277)"><use xlink:href="#DejaVuSans-84"/><use x="61.037" xlink:href="#DejaVuSans-105"/><use x="88.82" xlink:href="#DejaVuSans-109"/><use x="186.232" xlink:href="#DejaVuSans-101"/><use x="247.756" xlink:href="#DejaVuSans-32"/><use x="279.543" xlink:href="#DejaVuSans-40"/><use x="318.557" xlink:href="#DejaVuSans-109"/><use x="415.969" xlink:href="#DejaVuSans-115"/><use x="468.068" xlink:href="#DejaVuSans-41"/></g></g></g><g id="matplotlib.axis_2"><g id="ytick_1"><path clip-path="url(#pbbc1c84d09)" d="M52.875 231.41h338.063" fill="none" stroke="#b0b0b0" stroke-dasharray="3.7,1.6" id="line2d_13"/><g id="line2d_14"><defs><path d="M0 0h-3.5" id="md0656fabe2" stroke="#000" stroke-width=".8"/></defs><use x="52.875" xlink:href="#md0656fabe2" y="231.41" stroke="#000" stroke-width=".8"/></g><g transform="matrix(.1 0 0 -.1 29.972 235.21)" id="text_8"><use xlink:href="#DejaVuSans-48"/><use x="63.623" xlink:href="#DejaVuSans-46"/><use x="95.41" xlink:href="#DejaVuSans-48"/></g></g><g id="ytick_2"><path clip-path="url(#pbbc1c84d09)" d="M52.875 193.046h338.063" fill="none" stroke="#b0b0b0" stroke-dasharray="3.7,1.6" id="line2d_15"/><use x="52.875" xlink:href="#md0656fabe2" y="193.046" stroke="#000" stroke-width=".8" id="line2d_16"/><g transform="matrix(.1 0 0 -.1 29.972 196.845)" id="text_9"><use xlink:href="#DejaVuSans-48"/><use x="63.623" xlink:href="#DejaVuSans-46"/><use x="95.41" xlink:href="#DejaVuSans-50"/></g></g><g id="ytick_3"><path clip-path="url(#pbbc1c84d09)" d="M52.875 154.682h338.063" fill="none" stroke="#b0b0b0" stroke-dasharray="3.7,1.6" id="line2d_17"/><use x="52.875" xlink:href="#md0656fabe2" y="154.682" stroke="#000" stroke-width=".8" id="line2d_18"/><g transform="matrix(.1 0 0 -.1 29.972 158.482)" id="text_10"><use xlink:href="#DejaVuSans-48"/><use x="63.623" xlink:href="#DejaVuSans-46"/><use x="95.41" xlink:href="#DejaVuSans-52"/></g></g><g id="ytick_4"><path clip-path="url(#pbbc1c84d09)" d="M52.875 116.319h338.063" fill="none" stroke="#b0b0b0" stroke-dasharray="3.7,1.6" id="line2d_19"/><use x="52.875" xlink:href="#md0656fabe2" y="116.319" stroke="#000" stroke-width=".8" id="line2d_20"/><g transform="matrix(.1 0 0 -.1 29.972 120.118)" id="text_11"><use xlink:href="#DejaVuSans-48"/><use x="63.623" xlink:href="#DejaVuSans-46"/><use x="95.41" xlink:href="#DejaVuSans-54"/></g></g><g id="ytick_5"><path clip-path="url(#pbbc1c84d09)" d="M52.875 77.955h338.063" fill="none" stroke="#b0b0b0" stroke-dasharray="3.7,1.6" id="line2d_21"/><use x="52.875" xlink:href="#md0656fabe2" y="77.955" stroke="#000" stroke-width=".8" id="line2d_22"/><g transform="matrix(.1 0 0 -.1 29.972 81.754)" id="text_12"><use xlink:href="#DejaVuSans-48"/><use x="63.623" xlink:href="#DejaVuSans-46"/><use x="95.41" xlink:href="#DejaVuSans-56"/></g></g><g id="ytick_6"><path clip-path="url(#pbbc1c84d09)" d="M52.875 39.59h338.063" fill="none" stroke="#b0b0b0" stroke-dasharray="3.7,1.6" id="line2d_23"/><use x="52.875" xlink:href="#md0656fabe2" y="39.591" stroke="#000" stroke-width=".8" id="line2d_24"/><g transform="matrix(.1 0 0 -.1 29.972 43.39)" id="text_13"><use xlink:href="#DejaVuSans-49"/><use x="63.623" xlink:href="#DejaVuSans-46"/><use x="95.41" xlink:href="#DejaVuSans-48"/></g></g><g id="text_14"><defs><path d="M9.813 72.906h41.89v-8.312H19.672V43.109h28.906v-8.297H19.672V0h-9.86z" id="DejaVuSans-70"/><path d="M41.11 46.297q-1.516.875-3.297 1.281Q36.03 48 33.89 48q-7.625 0-11.703-4.953-4.079-4.953-4.079-14.234V0H9.08v54.688h9.03v-8.5q2.844 4.984 7.375 7.39Q30.031 56 36.531 56q.922 0 2.047-.125 1.125-.11 2.484-.36z" id="DejaVuSans-114"/><path d="M34.281 27.484q-10.89 0-15.093-2.484-4.204-2.484-4.204-8.5 0-4.781 3.157-7.594 3.156-2.797 8.562-2.797 7.485 0 12 5.297 4.516 5.297 4.516 14.078v2zm17.922 3.72V0H43.22v8.297Q40.14 3.328 35.547.953q-4.594-2.375-11.234-2.375-8.391 0-13.36 4.719Q6 8.016 6 15.922q0 9.219 6.172 13.906 6.187 4.688 18.437 4.688h12.61v.89q0 6.203-4.078 9.594-4.078 3.39-11.453 3.39-4.688 0-9.141-1.124-4.438-1.125-8.531-3.375v8.312q4.921 1.906 9.562 2.844 4.64.953 9.031.953 11.875 0 17.735-6.156 5.86-6.14 5.86-18.64z" id="DejaVuSans-97"/><path d="M48.781 52.594v-8.407q-3.812 2.11-7.64 3.157-3.828 1.047-7.735 1.047-8.75 0-13.593-5.547-4.829-5.532-4.829-15.547 0-10.016 4.829-15.563 4.843-5.53 13.593-5.53 3.907 0 7.735 1.046 3.828 1.047 7.64 3.156V2.094Q45.016.344 40.984-.531q-4.015-.89-8.562-.89-12.36 0-19.64 7.765-7.266 7.765-7.266 20.953 0 13.375 7.343 21.031Q20.22 56 33.016 56q4.14 0 8.093-.86 3.953-.843 7.672-2.546z" id="DejaVuSans-99"/><path d="M18.313 70.219V54.688h18.5v-6.985h-18.5V18.016q0-6.688 1.828-8.594 1.828-1.906 7.453-1.906h9.218V0h-9.218q-10.407 0-14.36 3.875-3.953 3.89-3.953 14.14v29.688H2.687v6.984h6.594V70.22z" id="DejaVuSans-116"/><path d="M30.61 48.39q-7.22 0-11.422-5.64-4.204-5.64-4.204-15.453 0-9.813 4.172-15.453 4.188-5.64 11.453-5.64 7.188 0 11.375 5.655 4.203 5.672 4.203 15.438 0 9.719-4.203 15.406-4.187 5.688-11.375 5.688zm0 7.61q11.718 0 18.406-7.625 6.703-7.61 6.703-21.078 0-13.422-6.703-21.078-6.688-7.64-18.407-7.64-11.765 0-18.437 7.64-6.656 7.656-6.656 21.078 0 13.469 6.656 21.078Q18.844 56 30.609 56z" id="DejaVuSans-111"/><path d="M54.89 33.016V0h-8.984v32.719q0 7.765-3.031 11.61-3.031 3.858-9.078 3.858-7.281 0-11.484-4.64-4.204-4.625-4.204-12.64V0H9.08v54.688h9.03v-8.5q3.235 4.937 7.594 7.374Q30.078 56 35.797 56q9.422 0 14.25-5.828 4.844-5.828 4.844-17.156z" id="DejaVuSans-110"/><path d="M37.11 75.984V68.5h-8.594q-4.828 0-6.72-1.953-1.874-1.953-1.874-7.031v-4.828h14.797v-6.985H19.922V0H10.89v47.703H2.297v6.984h8.594V58.5q0 9.125 4.25 13.297 4.25 4.187 13.468 4.187z" id="DejaVuSans-102"/><path d="M44.39 34.188q3.172-1.079 6.172-4.594 3-3.516 6.032-9.672L66.609 0H56l-9.313 18.703q-3.624 7.328-7.015 9.719-3.39 2.39-9.25 2.39h-10.75V0h-9.86v72.906h22.266q12.5 0 18.656-5.234 6.157-5.219 6.157-15.766 0-6.89-3.203-11.437-3.204-4.532-9.297-6.282zM19.673 64.797V38.922h12.406q7.125 0 10.766 3.297 3.64 3.297 3.64 9.687 0 6.39-3.64 9.64-3.64 3.25-10.766 3.25z" id="DejaVuSans-82"/><path d="M14.797 27.297q0-9.906 4.078-15.547 4.078-5.64 11.203-5.64 7.125 0 11.219 5.64 4.11 5.64 4.11 15.547 0 9.906-4.11 15.547-4.094 5.64-11.219 5.64-7.125 0-11.203-5.64-4.078-5.64-4.078-15.547zm30.61-19.094q-2.83-4.875-7.157-7.25-4.313-2.375-10.375-2.375-9.906 0-16.14 7.906-6.22 7.922-6.22 20.813 0 12.89 6.22 20.797Q17.968 56 27.874 56q6.063 0 10.375-2.375 4.328-2.36 7.156-7.234v8.297h8.985v-75.485h-8.985z" id="DejaVuSans-113"/><path d="M8.5 21.578v33.11h8.984V21.922q0-7.766 3.016-11.656 3.031-3.875 9.094-3.875 7.265 0 11.484 4.64 4.234 4.64 4.234 12.656v31h8.985V0h-8.984v8.406Q42.047 3.422 37.718 1q-4.313-2.422-10.032-2.422-9.421 0-14.312 5.86Q8.5 10.296 8.5 21.578zM31.11 56z" id="DejaVuSans-117"/></defs><g transform="matrix(0 -.1 -.1 0 23.892 186.95)"><use xlink:href="#DejaVuSans-70"/><use x="57.41" xlink:href="#DejaVuSans-114"/><use x="98.523" xlink:href="#DejaVuSans-97"/><use x="159.803" xlink:href="#DejaVuSans-99"/><use x="214.783" xlink:href="#DejaVuSans-116"/><use x="253.992" xlink:href="#DejaVuSans-105"/><use x="281.775" xlink:href="#DejaVuSans-111"/><use x="342.957" xlink:href="#DejaVuSans-110"/><use x="406.336" xlink:href="#DejaVuSans-32"/><use x="438.123" xlink:href="#DejaVuSans-111"/><use x="499.305" xlink:href="#DejaVuSans-102"/><use x="534.51" xlink:href="#DejaVuSans-32"/><use x="566.297" xlink:href="#DejaVuSans-82"/><use x="635.717" xlink:href="#DejaVuSans-101"/><use x="697.24" xlink:href="#DejaVuSans-113"/><use x="760.717" xlink:href="#DejaVuSans-117"/><use x="824.096" xlink:href="#DejaVuSans-101"/><use x="885.619" xlink:href="#DejaVuSans-115"/><use x="937.719" xlink:href="#DejaVuSans-116"/><use x="976.928" xlink:href="#DejaVuSans-115"/></g></g></g><path clip-path="url(#pbbc1c84d09)" d="M61.11 231.41l1.809-.123.882-.34.301-.15.754-.509 1.386-1.953.43-1.128.496-1.421.376-1.21.595-2.363 1.359-8.673 3.133-26.609 2.532-24.81.761-7.143.504-4.623 1.988-16.354.25-1.756.409-2.82 1.927-12.562.263-1.645.426-2.66 1.072-6.392.798-4.214 1.055-4.836.098-.394.571-2.35.203-.823 1.457-5.16.277-.917 1.39-4.244.263-.697.301-.815.822-2.173.24-.588.28-.631.74-1.758.717-1.51.274-.57 1.258-2.327.145-.25.605-.99.25-.414.866-1.325 1.609-2.242.886-1.158.297-.362.233-.329.129-.188.314-.396.186-.217.42-.524 2.156-2.584.203-.229.72-.69.23-.22 4.655-3.438.866-.567.415-.272.308-.192.287-.189 6.265-3.085.703-.295.379-.151 3.962-1.404 10.94-2.691.736-.135 7.698-1.426.379-.073 1.223-.19 5.16-.772.23-.04 9.735-1.136 12.373-.95 2.485-.139 4.334-.22.17-.008 2.74-.131 1.904-.087 4.432-.191.267-.012 4.933-.178 4.405-.115 5.439-.159.433-.01 13.265-.272 2.854-.053 9.175-.176 1.467-.014 7.67-.109 11.153-.158 45.108-.441 57.775-.276 4.574-.019 37.575-.125h0" fill="none" stroke="#00aff0" stroke-dasharray="7.4,3.2" stroke-width="2" id="line2d_25"/><path clip-path="url(#pbbc1c84d09)" d="M60.792 231.41l.66-.056 3.3-.394.483-.123 1.467-.49 1.42-.852 1.994-2.202 1.853-3.547.375-1.004.355-1.093 1.964-7.987.93-4.61.54-2.681.596-3.091 1.514-8.34.619-3.77.186-1.074.426-2.335 1.403-8.268 3.005-15.569.193-.948 4.28-20.286.574-2.648.447-2.06.125-.505 3.218-12.73.095-.341.28-1.034.321-1.126.555-1.92 3.79-12.24.165-.525.301-.973.413-1.307.22-.703.652-2.07 1.315-4.038 1.183-3.555.193-.571.78-2.215.386-1.04.527-1.478 1.397-3.604.794-1.88.328-.767.52-1.158.349-.774.801-1.662.284-.61.446-.889 1.079-2.209.527-1.014 1.045-2.1.263-.495.24-.403.528-.937.916-1.626.351-.63 1.64-2.712 1.346-1.903.361-.489.443-.57.102-.137.28-.371.328-.387.233-.293.136-.144.382-.458.963-1.055.436-.473.774-.815.142-.15 2.174-2.07.399-.329 4.053-2.977.325-.196.91-.563.26-.144.368-.221.382-.212.673-.377.463-.23.24-.13.537-.253.589-.316.3-.15.437-.196.344-.156 1.539-.664.605-.268.443-.202.51-.243.629-.249.395-.162.707-.294.206-.089.48-.172.318-.11.423-.153.77-.27 1.518-.504.643-.204 2.664-.797.608-.19.504-.153.629-.198.676-.197.21-.057 5.368-1.262.906-.169.395-.078 1.799-.34.405-.084 1.241-.217 1.244-.205 9.757-1.141 1.71-.145 1.806-.121 5.5-.312.487-.024 3.414-.144 2.657-.116 21.94-.515 28.901-.229 155.76-.31h0" fill="none" stroke="maroon" stroke-dasharray="7.4,3.2" stroke-width="2" id="line2d_26"/><path d="M52.875 241V30" fill="none" stroke="#000" stroke-linecap="square" stroke-width=".8" id="patch_3"/><path d="M390.938 241V30" fill="none" stroke="#000" stroke-linecap="square" stroke-width=".8" id="patch_4"/><path d="M52.875 241h338.063" fill="none" stroke="#000" stroke-linecap="square" stroke-width=".8" id="patch_5"/><path d="M52.875 30h338.063" fill="none" stroke="#000" stroke-linecap="square" stroke-width=".8" id="patch_6"/><g id="text_15"><defs><path d="M19.672 64.797V8.109h11.922q15.093 0 22.093 6.829 7 6.843 7 21.593 0 14.64-7 21.453-7 6.813-22.093 6.813zm-9.86 8.11h20.266q21.188 0 31.094-8.813 9.922-8.813 9.922-27.563 0-18.86-9.969-27.703Q51.172 0 30.078 0H9.813z" id="DejaVuSans-68"/><path d="M11.719 12.406h10.297V0H11.719zm0 39.297h10.297v-12.39H11.719z" id="DejaVuSans-58"/><path d="M34.188 63.188L20.797 26.906h26.812zm-5.579 9.718h11.188L67.578 0h-10.25l-6.64 18.703h-32.86L11.188 0H.78z" id="DejaVuSans-65"/><path d="M9.422 75.984h8.984V0H9.422z" id="DejaVuSans-108"/><path d="M64.406 67.281v-10.39q-4.984 4.64-10.625 6.922-5.64 2.296-11.984 2.296-12.5 0-19.14-7.64-6.641-7.64-6.641-22.094 0-14.406 6.64-22.047 6.64-7.64 19.14-7.64 6.345 0 11.985 2.296 5.64 2.297 10.625 6.938V5.609Q59.234 2.094 53.437.33q-5.78-1.75-12.218-1.75-16.563 0-26.094 10.124-9.516 10.14-9.516 27.672 0 17.578 9.516 27.703 9.531 10.14 26.094 10.14 6.531 0 12.312-1.734 5.797-1.734 10.875-5.203z" id="DejaVuSans-67"/></defs><g transform="matrix(.12 0 0 -.12 119.704 24)"><use xlink:href="#DejaVuSans-68"/><use x="77.002" xlink:href="#DejaVuSans-101"/><use x="138.525" xlink:href="#DejaVuSans-99"/><use x="193.506" xlink:href="#DejaVuSans-105"/><use x="221.289" xlink:href="#DejaVuSans-115"/><use x="273.389" xlink:href="#DejaVuSans-105"/><use x="301.172" xlink:href="#DejaVuSans-111"/><use x="362.354" xlink:href="#DejaVuSans-110"/><use x="425.732" xlink:href="#DejaVuSans-32"/><use x="457.52" xlink:href="#DejaVuSans-84"/><use x="518.557" xlink:href="#DejaVuSans-105"/><use x="546.34" xlink:href="#DejaVuSans-109"/><use x="643.752" xlink:href="#DejaVuSans-101"/><use x="705.275" xlink:href="#DejaVuSans-58"/><use x="738.967" xlink:href="#DejaVuSans-32"/><use x="770.754" xlink:href="#DejaVuSans-65"/><use x="839.162" xlink:href="#DejaVuSans-108"/><use x="866.945" xlink:href="#DejaVuSans-108"/><use x="894.729" xlink:href="#DejaVuSans-32"/><use x="926.516" xlink:href="#DejaVuSans-82"/><use x="995.936" xlink:href="#DejaVuSans-101"/><use x="1057.459" xlink:href="#DejaVuSans-113"/><use x="1120.936" xlink:href="#DejaVuSans-117"/><use x="1184.314" xlink:href="#DejaVuSans-101"/><use x="1245.838" xlink:href="#DejaVuSans-115"/><use x="1297.938" xlink:href="#DejaVuSans-116"/><use x="1337.146" xlink:href="#DejaVuSans-115"/><use x="1389.246" xlink:href="#DejaVuSans-32"/><use x="1421.033" xlink:href="#DejaVuSans-40"/><use x="1460.047" xlink:href="#DejaVuSans-67"/><use x="1529.871" xlink:href="#DejaVuSans-68"/><use x="1606.873" xlink:href="#DejaVuSans-70"/><use x="1664.393" xlink:href="#DejaVuSans-41"/></g></g><g id="legend_1"><path d="M285.15 236h98.788q2 0 2-2v-28.356q0-2-2-2H285.15q-2 0-2 2V234q0 2 2 2z" fill="#fff" opacity=".8" stroke="#ccc" id="patch_7"/><path d="M287.15 211.742h20" fill="none" stroke="#00aff0" stroke-dasharray="7.4,3.2" stroke-width="2" id="line2d_27"/><g id="text_16"><defs><path d="M5.516 54.688h42.672v-8.204L14.406 7.172h33.782V0H4.297v8.203l33.797 39.313H5.516z" id="DejaVuSans-122"/></defs><g transform="matrix(.1 0 0 -.1 315.15 215.242)"><use xlink:href="#DejaVuSans-67"/><use x="69.824" xlink:href="#DejaVuSans-108"/><use x="97.607" xlink:href="#DejaVuSans-105"/><use x="125.391" xlink:href="#DejaVuSans-113"/><use x="188.867" xlink:href="#DejaVuSans-122"/></g></g><path d="M287.15 226.42h20" fill="none" stroke="maroon" stroke-dasharray="7.4,3.2" stroke-width="2" id="line2d_29"/><g id="text_17"><defs><path d="M19.672 34.813V8.108H35.5q7.953 0 11.781 3.297 3.844 3.297 3.844 10.078 0 6.844-3.844 10.078-3.828 3.25-11.781 3.25zm0 29.984V42.828h14.61q7.218 0 10.75 2.703 3.546 2.719 3.546 8.282 0 5.515-3.547 8.25-3.531 2.734-10.75 2.734zm-9.86 8.11h25.204q11.28 0 17.375-4.688Q58.5 63.53 58.5 54.89q0-6.703-3.125-10.657-3.125-3.953-9.188-4.922 7.282-1.562 11.313-6.53 4.031-4.954 4.031-12.376 0-9.765-6.64-15.093Q48.25 0 35.984 0H9.812z" id="DejaVuSans-66"/><path d="M9.078 75.984h9.031V31.11l26.813 23.578H56.39l-29-25.578L57.625 0H45.906L18.11 26.703V0H9.08z" id="DejaVuSans-107"/><path d="M39.406 66.219q-10.75 0-17.078-8.016-6.312-8-6.312-21.828 0-13.766 6.312-21.781 6.328-8 17.078-8 10.735 0 17.016 8 6.281 8.015 6.281 21.781 0 13.828-6.281 21.828-6.281 8.016-17.016 8.016zm0 8q15.328 0 24.5-10.281 9.188-10.282 9.188-27.563 0-17.234-9.188-27.516-9.172-10.28-24.5-10.28-15.375 0-24.593 10.25-9.204 10.265-9.204 27.546t9.204 27.563q9.218 10.28 24.593 10.28z" id="DejaVuSans-79"/><path d="M45.406 27.984q0 9.766-4.031 15.125-4.016 5.375-11.297 5.375-7.219 0-11.25-5.375-4.031-5.359-4.031-15.125 0-9.718 4.031-15.093t11.25-5.375q7.281 0 11.297 5.375 4.031 5.375 4.031 15.093zm8.985-21.203q0-13.953-6.203-20.765Q42-20.797 29.203-20.797q-4.734 0-8.937.703-4.203.703-8.157 2.172v8.735q3.954-2.141 7.813-3.157 3.86-1.031 7.86-1.031 8.843 0 13.234 4.61 4.39 4.609 4.39 13.937v4.453q-2.781-4.844-7.125-7.234Q33.938 0 27.875 0 17.828 0 11.672 7.656q-6.156 7.672-6.156 20.328 0 12.688 6.156 20.344Q17.828 56 27.875 56q6.063 0 10.406-2.39 4.344-2.391 7.125-7.22v8.297h8.985z" id="DejaVuSans-103"/></defs><g transform="matrix(.1 0 0 -.1 315.15 229.92)"><use xlink:href="#DejaVuSans-117"/><use x="63.379" xlink:href="#DejaVuSans-66"/><use x="131.982" xlink:href="#DejaVuSans-108"/><use x="159.766" xlink:href="#DejaVuSans-111"/><use x="220.947" xlink:href="#DejaVuSans-99"/><use x="275.928" xlink:href="#DejaVuSans-107"/><use x="333.838" xlink:href="#DejaVuSans-32"/><use x="365.625" xlink:href="#DejaVuSans-79"/><use x="444.336" xlink:href="#DejaVuSans-114"/><use x="485.449" xlink:href="#DejaVuSans-105"/><use x="513.232" xlink:href="#DejaVuSans-103"/><use x="576.709" xlink:href="#DejaVuSans-105"/><use x="604.492" xlink:href="#DejaVuSans-110"/></g></g></g></g></g><defs><clipPath id="pbbc1c84d09"><path d="M52.875 30h338.063v211H52.875z"/></clipPath></defs></svg>