<svg height="384" viewBox="0 0 432 288" width="576" xmlns="http://www.w3.org/2000/svg" xmlns:xlink="http://www.w3.org/1999/xlink"><defs><style>*{stroke-linecap:butt;stroke-linejoin:round}</style></defs><g id="figure_1"><path d="M0 288h432V0H0z" fill="#fff" id="patch_1"/><g id="axes_1"><path d="M52.875 241H402V30H52.875z" fill="#fff" id="patch_2"/><g id="matplotlib.axis_1"><g id="xtick_1"><path clip-path="url(#p218f2ae318)" d="M114.381 241V30" fill="none" stroke="#b0b0b0" stroke-dasharray="3.7,1.6" id="line2d_1"/><g id="line2d_2"><defs><path d="M0 0v3.5" id="m7227dbb1b0" stroke="#000" stroke-width=".8"/></defs><use x="114.381" xlink:href="#m7227dbb1b0" y="241" stroke="#000" stroke-width=".8"/></g><g id="text_1"><defs><path d="M12.406 8.297h16.11v55.625l-17.532-3.516v8.985l17.438 3.515h9.86V8.296H54.39V0H12.406z" id="DejaVuSans-49"/><path d="M31.781 66.406q-7.61 0-11.453-7.5Q16.5 51.422 16.5 36.375q0-14.984 3.828-22.484 3.844-7.5 11.453-7.5 7.672 0 11.5 7.5 3.844 7.5 3.844 22.484 0 15.047-3.844 22.531-3.828 7.5-11.5 7.5zm0 7.813q12.266 0 18.735-9.703 6.468-9.688 6.468-28.141 0-18.406-6.468-28.11-6.47-9.687-18.735-9.687-12.25 0-18.718 9.688-6.47 9.703-6.47 28.109 0 18.453 6.47 28.14Q19.53 74.22 31.78 74.22z" id="DejaVuSans-48"/><path d="M10.594 35.5h62.593v-8.297H10.594z" id="DejaVuSans-8722"/><path d="M19.188 8.297h34.421V0H7.33v8.297q5.609 5.812 15.296 15.594 9.703 9.797 12.188 12.64 4.734 5.313 6.609 9 1.89 3.688 1.89 7.25 0 5.813-4.078 9.469-4.078 3.672-10.625 3.672-4.64 0-9.797-1.61-5.14-1.609-11-4.89v9.969Q13.767 71.78 18.938 73q5.188 1.219 9.485 1.219 11.328 0 18.062-5.672 6.735-5.656 6.735-15.125 0-4.5-1.688-8.531-1.672-4.016-6.125-9.485-1.218-1.422-7.765-8.187-6.532-6.766-18.453-18.922z" id="DejaVuSans-50"/></defs><g transform="matrix(.1 0 0 -.1 102.631 255.598)"><use transform="translate(0 .766)" xlink:href="#DejaVuSans-49"/><use transform="translate(63.623 .766)" xlink:href="#DejaVuSans-48"/><use transform="matrix(.7 0 0 .7 128.203 39.047)" xlink:href="#DejaVuSans-8722"/><use transform="matrix(.7 0 0 .7 186.855 39.047)" xlink:href="#DejaVuSans-50"/></g></g></g><g id="xtick_2"><path clip-path="url(#p218f2ae318)" d="M186.773 241V30" fill="none" stroke="#b0b0b0" stroke-dasharray="3.7,1.6" id="line2d_3"/><use x="186.773" xlink:href="#m7227dbb1b0" y="241" stroke="#000" stroke-width=".8" id="line2d_4"/><g transform="matrix(.1 0 0 -.1 175.023 255.598)" id="text_2"><use transform="translate(0 .684)" xlink:href="#DejaVuSans-49"/><use transform="translate(63.623 .684)" xlink:href="#DejaVuSans-48"/><use transform="matrix(.7 0 0 .7 128.203 38.966)" xlink:href="#DejaVuSans-8722"/><use transform="matrix(.7 0 0 .7 186.855 38.966)" xlink:href="#DejaVuSans-49"/></g></g><g id="xtick_3"><path clip-path="url(#p218f2ae318)" d="M259.165 241V30" fill="none" stroke="#b0b0b0" stroke-dasharray="3.7,1.6" id="line2d_5"/><use x="259.165" xlink:href="#m7227dbb1b0" y="241" stroke="#000" stroke-width=".8" id="line2d_6"/><g transform="matrix(.1 0 0 -.1 250.365 255.598)" id="text_3"><use transform="translate(0 .766)" xlink:href="#DejaVuSans-49"/><use transform="translate(63.623 .766)" xlink:href="#DejaVuSans-48"/><use transform="matrix(.7 0 0 .7 128.203 39.047)" xlink:href="#DejaVuSans-48"/></g></g><g id="xtick_4"><path clip-path="url(#p218f2ae318)" d="M331.556 241V30" fill="none" stroke="#b0b0b0" stroke-dasharray="3.7,1.6" id="line2d_7"/><use x="331.556" xlink:href="#m7227dbb1b0" y="241" stroke="#000" stroke-width=".8" id="line2d_8"/><g transform="matrix(.1 0 0 -.1 322.756 255.598)" id="text_4"><use transform="translate(0 .684)" xlink:href="#DejaVuSans-49"/><use transform="translate(63.623 .684)" xlink:href="#DejaVuSans-48"/><use transform="matrix(.7 0 0 .7 128.203 38.966)" xlink:href="#DejaVuSans-49"/></g></g><g id="xtick_5"><g id="line2d_9"><defs><path d="M0 0v2" id="m655e468191" stroke="#000" stroke-width=".6"/></defs><use x="63.781" xlink:href="#m655e468191" y="241" stroke="#000" stroke-width=".6"/></g></g><g id="xtick_6"><use x="76.529" xlink:href="#m655e468191" y="241" stroke="#000" stroke-width=".6" id="line2d_10"/></g><g id="xtick_7"><use x="85.573" xlink:href="#m655e468191" y="241" stroke="#000" stroke-width=".6" id="line2d_11"/></g><g id="xtick_8"><use x="92.589" xlink:href="#m655e468191" y="241" stroke="#000" stroke-width=".6" id="line2d_12"/></g><g id="xtick_9"><use x="98.321" xlink:href="#m655e468191" y="241" stroke="#000" stroke-width=".6" id="line2d_13"/></g><g id="xtick_10"><use x="103.167" xlink:href="#m655e468191" y="241" stroke="#000" stroke-width=".6" id="line2d_14"/></g><g id="xtick_11"><use x="107.366" xlink:href="#m655e468191" y="241" stroke="#000" stroke-width=".6" id="line2d_15"/></g><g id="xtick_12"><use x="111.069" xlink:href="#m655e468191" y="241" stroke="#000" stroke-width=".6" id="line2d_16"/></g><g id="xtick_13"><use x="136.173" xlink:href="#m655e468191" y="241" stroke="#000" stroke-width=".6" id="line2d_17"/></g><g id="xtick_14"><use x="148.921" xlink:href="#m655e468191" y="241" stroke="#000" stroke-width=".6" id="line2d_18"/></g><g id="xtick_15"><use x="157.965" xlink:href="#m655e468191" y="241" stroke="#000" stroke-width=".6" id="line2d_19"/></g><g id="xtick_16"><use x="164.981" xlink:href="#m655e468191" y="241" stroke="#000" stroke-width=".6" id="line2d_20"/></g><g id="xtick_17"><use x="170.713" xlink:href="#m655e468191" y="241" stroke="#000" stroke-width=".6" id="line2d_21"/></g><g id="xtick_18"><use x="175.559" xlink:href="#m655e468191" y="241" stroke="#000" stroke-width=".6" id="line2d_22"/></g><g id="xtick_19"><use x="179.757" xlink:href="#m655e468191" y="241" stroke="#000" stroke-width=".6" id="line2d_23"/></g><g id="xtick_20"><use x="183.46" xlink:href="#m655e468191" y="241" stroke="#000" stroke-width=".6" id="line2d_24"/></g><g id="xtick_21"><use x="208.565" xlink:href="#m655e468191" y="241" stroke="#000" stroke-width=".6" id="line2d_25"/></g><g id="xtick_22"><use x="221.312" xlink:href="#m655e468191" y="241" stroke="#000" stroke-width=".6" id="line2d_26"/></g><g id="xtick_23"><use x="230.357" xlink:href="#m655e468191" y="241" stroke="#000" stroke-width=".6" id="line2d_27"/></g><g id="xtick_24"><use x="237.373" xlink:href="#m655e468191" y="241" stroke="#000" stroke-width=".6" id="line2d_28"/></g><g id="xtick_25"><use x="243.105" xlink:href="#m655e468191" y="241" stroke="#000" stroke-width=".6" id="line2d_29"/></g><g id="xtick_26"><use x="247.951" xlink:href="#m655e468191" y="241" stroke="#000" stroke-width=".6" id="line2d_30"/></g><g id="xtick_27"><use x="252.149" xlink:href="#m655e468191" y="241" stroke="#000" stroke-width=".6" id="line2d_31"/></g><g id="xtick_28"><use x="255.852" xlink:href="#m655e468191" y="241" stroke="#000" stroke-width=".6" id="line2d_32"/></g><g id="xtick_29"><use x="280.957" xlink:href="#m655e468191" y="241" stroke="#000" stroke-width=".6" id="line2d_33"/></g><g id="xtick_30"><use x="293.704" xlink:href="#m655e468191" y="241" stroke="#000" stroke-width=".6" id="line2d_34"/></g><g id="xtick_31"><use x="302.749" xlink:href="#m655e468191" y="241" stroke="#000" stroke-width=".6" id="line2d_35"/></g><g id="xtick_32"><use x="309.764" xlink:href="#m655e468191" y="241" stroke="#000" stroke-width=".6" id="line2d_36"/></g><g id="xtick_33"><use x="315.496" xlink:href="#m655e468191" y="241" stroke="#000" stroke-width=".6" id="line2d_37"/></g><g id="xtick_34"><use x="320.343" xlink:href="#m655e468191" y="241" stroke="#000" stroke-width=".6" id="line2d_38"/></g><g id="xtick_35"><use x="324.541" xlink:href="#m655e468191" y="241" stroke="#000" stroke-width=".6" id="line2d_39"/></g><g id="xtick_36"><use x="328.244" xlink:href="#m655e468191" y="241" stroke="#000" stroke-width=".6" id="line2d_40"/></g><g id="xtick_37"><use x="353.348" xlink:href="#m655e468191" y="241" stroke="#000" stroke-width=".6" id="line2d_41"/></g><g id="xtick_38"><use x="366.096" xlink:href="#m655e468191" y="241" stroke="#000" stroke-width=".6" id="line2d_42"/></g><g id="xtick_39"><use x="375.141" xlink:href="#m655e468191" y="241" stroke="#000" stroke-width=".6" id="line2d_43"/></g><g id="xtick_40"><use x="382.156" xlink:href="#m655e468191" y="241" stroke="#000" stroke-width=".6" id="line2d_44"/></g><g id="xtick_41"><use x="387.888" xlink:href="#m655e468191" y="241" stroke="#000" stroke-width=".6" id="line2d_45"/></g><g id="xtick_42"><use x="392.735" xlink:href="#m655e468191" y="241" stroke="#000" stroke-width=".6" id="line2d_46"/></g><g id="xtick_43"><use x="396.933" xlink:href="#m655e468191" y="241" stroke="#000" stroke-width=".6" id="line2d_47"/></g><g id="xtick_44"><use x="400.636" xlink:href="#m655e468191" y="241" stroke="#000" stroke-width=".6" id="line2d_48"/></g><g id="text_5"><defs><path d="M-.297 72.906h61.672v-8.312H35.5V0h-9.906v64.594H-.296z" id="DejaVuSans-84"/><path d="M9.422 54.688h8.984V0H9.422zm0 21.296h8.984v-11.39H9.422z" id="DejaVuSans-105"/><path d="M52 44.188q3.375 6.062 8.063 8.937Q64.75 56 71.093 56q8.548 0 13.188-5.984 4.64-5.97 4.64-17V0h-9.03v32.719q0 7.86-2.797 11.656-2.781 3.813-8.485 3.813-6.984 0-11.046-4.641-4.047-4.625-4.047-12.64V0h-9.032v32.719q0 7.906-2.78 11.687-2.782 3.782-8.595 3.782-6.89 0-10.953-4.657-4.047-4.656-4.047-12.625V0H9.08v54.688h9.03v-8.5q3.078 5.03 7.375 7.421Q29.781 56 35.687 56q5.97 0 10.141-3.031Q50 49.953 52 44.187z" id="DejaVuSans-109"/><path d="M56.203 29.594v-4.39H14.891q.593-9.282 5.593-14.142 5-4.859 13.938-4.859 5.172 0 10.031 1.266 4.86 1.265 9.656 3.812v-8.5Q49.266.734 44.187-.344 39.11-1.422 33.892-1.422q-13.094 0-20.735 7.61-7.64 7.625-7.64 20.625 0 13.421 7.25 21.296Q20.016 56 32.328 56q11.031 0 17.453-7.11 6.422-7.093 6.422-19.296zm-8.984 2.64q-.094 7.36-4.125 11.75-4.032 4.407-10.672 4.407-7.516 0-12.031-4.25-4.516-4.25-5.203-11.97z" id="DejaVuSans-101"/><path d="M31 75.875q-6.531-11.219-9.719-22.219-3.172-10.984-3.172-22.265 0-11.266 3.203-22.328Q24.517-2 31-13.188h-7.813Q15.875-1.704 12.235 9.375q-3.64 11.078-3.64 22.016 0 10.89 3.61 21.922 3.624 11.046 10.983 22.562z" id="DejaVuSans-40"/><path d="M44.281 53.078v-8.5q-3.797 1.953-7.906 2.922-4.094.984-8.5.984-6.688 0-10.031-2.047-3.344-2.046-3.344-6.156 0-3.125 2.39-4.906 2.391-1.781 9.626-3.39l3.078-.688q9.562-2.047 13.593-5.781 4.032-3.735 4.032-10.422 0-7.625-6.032-12.078-6.03-4.438-16.578-4.438-4.39 0-9.156.86Q10.688.296 5.422 2v9.281q4.984-2.594 9.812-3.89 4.829-1.282 9.579-1.282 6.343 0 9.75 2.172 3.421 2.172 3.421 6.125 0 3.656-2.468 5.61-2.453 1.953-10.813 3.765l-3.125.735q-8.344 1.75-12.062 5.39-3.704 3.64-3.704 9.985 0 7.718 5.47 11.906Q16.75 56 26.811 56q4.97 0 9.36-.734 4.406-.72 8.11-2.188z" id="DejaVuSans-115"/><path d="M8.016 75.875h7.812q7.313-11.516 10.953-22.563 3.64-11.03 3.64-21.921 0-10.938-3.64-22.016-3.64-11.078-10.953-22.563H8.016Q14.5-2 17.703 9.063q3.203 11.063 3.203 22.329 0 11.28-3.203 22.265-3.203 11-9.687 22.219z" id="DejaVuSans-41"/></defs><g transform="matrix(.1 0 0 -.1 200.495 269.277)"><use xlink:href="#DejaVuSans-84"/><use x="61.037" xlink:href="#DejaVuSans-105"/><use x="88.82" xlink:href="#DejaVuSans-109"/><use x="186.232" xlink:href="#DejaVuSans-101"/><use x="247.756" xlink:href="#DejaVuSans-32"/><use x="279.543" xlink:href="#DejaVuSans-40"/><use x="318.557" xlink:href="#DejaVuSans-109"/><use x="415.969" xlink:href="#DejaVuSans-115"/><use x="468.068" xlink:href="#DejaVuSans-41"/><use x="507.082" xlink:href="#DejaVuSans-32"/></g><defs><path d="M9.422 75.984h8.984V0H9.422z" id="DejaVuSans-108"/><path d="M30.61 48.39q-7.22 0-11.422-5.64-4.204-5.64-4.204-15.453 0-9.813 4.172-15.453 4.188-5.64 11.453-5.64 7.188 0 11.375 5.655 4.203 5.672 4.203 15.438 0 9.719-4.203 15.406-4.187 5.688-11.375 5.688zm0 7.61q11.718 0 18.406-7.625 6.703-7.61 6.703-21.078 0-13.422-6.703-21.078-6.688-7.64-18.407-7.64-11.765 0-18.437 7.64-6.656 7.656-6.656 21.078 0 13.469 6.656 21.078Q18.844 56 30.609 56z" id="DejaVuSans-111"/><path d="M45.406 27.984q0 9.766-4.031 15.125-4.016 5.375-11.297 5.375-7.219 0-11.25-5.375-4.031-5.359-4.031-15.125 0-9.718 4.031-15.093t11.25-5.375q7.281 0 11.297 5.375 4.031 5.375 4.031 15.093zm8.985-21.203q0-13.953-6.203-20.765Q42-20.797 29.203-20.797q-4.734 0-8.937.703-4.203.703-8.157 2.172v8.735q3.954-2.141 7.813-3.157 3.86-1.031 7.86-1.031 8.843 0 13.234 4.61 4.39 4.609 4.39 13.937v4.453q-2.781-4.844-7.125-7.234Q33.938 0 27.875 0 17.828 0 11.672 7.656q-6.156 7.672-6.156 20.328 0 12.688 6.156 20.344Q17.828 56 27.875 56q6.063 0 10.406-2.39 4.344-2.391 7.125-7.22v8.297h8.985z" id="DejaVuSans-103"/><path d="M48.688 27.297q0 9.906-4.079 15.547-4.078 5.64-11.203 5.64-7.14 0-11.218-5.64-4.079-5.64-4.079-15.547 0-9.906 4.078-15.547 4.079-5.64 11.22-5.64 7.124 0 11.202 5.64t4.078 15.547zM18.108 46.39q2.844 4.875 7.157 7.234Q29.594 56 35.594 56q9.968 0 16.187-7.906 6.235-7.907 6.235-20.797T51.78 6.484q-6.218-7.906-16.187-7.906-6 0-10.328 2.375-4.313 2.375-7.157 7.25V0H9.08v75.984h9.03z" id="DejaVuSans-98"/><path d="M34.281 27.484q-10.89 0-15.093-2.484-4.204-2.484-4.204-8.5 0-4.781 3.157-7.594 3.156-2.797 8.562-2.797 7.485 0 12 5.297 4.516 5.297 4.516 14.078v2zm17.922 3.72V0H43.22v8.297Q40.14 3.328 35.547.953q-4.594-2.375-11.234-2.375-8.391 0-13.36 4.719Q6 8.016 6 15.922q0 9.219 6.172 13.906 6.187 4.688 18.437 4.688h12.61v.89q0 6.203-4.078 9.594-4.078 3.39-11.453 3.39-4.688 0-9.141-1.124-4.438-1.125-8.531-3.375v8.312q4.921 1.906 9.562 2.844 4.64.953 9.031.953 11.875 0 17.735-6.156 5.86-6.14 5.86-18.64z" id="DejaVuSans-97"/></defs><g transform="matrix(.1 0 0 -.1 192.864 280.474)"><use xlink:href="#DejaVuSans-32"/><use x="31.787" xlink:href="#DejaVuSans-108"/><use x="59.57" xlink:href="#DejaVuSans-111"/><use x="120.752" xlink:href="#DejaVuSans-103"/><use x="184.229" xlink:href="#DejaVuSans-32"/><use x="216.016" xlink:href="#DejaVuSans-40"/><use x="255.029" xlink:href="#DejaVuSans-98"/><use x="318.506" xlink:href="#DejaVuSans-97"/><use x="379.785" xlink:href="#DejaVuSans-115"/><use x="431.885" xlink:href="#DejaVuSans-101"/><use x="493.408" xlink:href="#DejaVuSans-32"/><use x="525.195" xlink:href="#DejaVuSans-49"/><use x="588.818" xlink:href="#DejaVuSans-48"/><use x="652.441" xlink:href="#DejaVuSans-41"/></g></g></g><g id="matplotlib.axis_2"><g id="ytick_1"><path clip-path="url(#p218f2ae318)" d="M52.875 231.41H402" fill="none" stroke="#b0b0b0" stroke-dasharray="3.7,1.6" id="line2d_49"/><g id="line2d_50"><defs><path d="M0 0h-3.5" id="m91372f4905" stroke="#000" stroke-width=".8"/></defs><use x="52.875" xlink:href="#m91372f4905" y="231.41" stroke="#000" stroke-width=".8"/></g><g id="text_6"><defs><path d="M10.688 12.406H21V0H10.687z" id="DejaVuSans-46"/></defs><g transform="matrix(.1 0 0 -.1 29.972 235.21)"><use xlink:href="#DejaVuSans-48"/><use x="63.623" xlink:href="#DejaVuSans-46"/><use x="95.41" xlink:href="#DejaVuSans-48"/></g></g></g><g id="ytick_2"><path clip-path="url(#p218f2ae318)" d="M52.875 193.046H402" fill="none" stroke="#b0b0b0" stroke-dasharray="3.7,1.6" id="line2d_51"/><use x="52.875" xlink:href="#m91372f4905" y="193.046" stroke="#000" stroke-width=".8" id="line2d_52"/><g transform="matrix(.1 0 0 -.1 29.972 196.845)" id="text_7"><use xlink:href="#DejaVuSans-48"/><use x="63.623" xlink:href="#DejaVuSans-46"/><use x="95.41" xlink:href="#DejaVuSans-50"/></g></g><g id="ytick_3"><path clip-path="url(#p218f2ae318)" d="M52.875 154.682H402" fill="none" stroke="#b0b0b0" stroke-dasharray="3.7,1.6" id="line2d_53"/><use x="52.875" xlink:href="#m91372f4905" y="154.682" stroke="#000" stroke-width=".8" id="line2d_54"/><g id="text_8"><defs><path d="M37.797 64.313L12.89 25.39h24.906zm-2.594 8.593H47.61V25.391h10.407v-8.203H47.609V0h-9.812v17.188H4.89v9.515z" id="DejaVuSans-52"/></defs><g transform="matrix(.1 0 0 -.1 29.972 158.482)"><use xlink:href="#DejaVuSans-48"/><use x="63.623" xlink:href="#DejaVuSans-46"/><use x="95.41" xlink:href="#DejaVuSans-52"/></g></g></g><g id="ytick_4"><path clip-path="url(#p218f2ae318)" d="M52.875 116.319H402" fill="none" stroke="#b0b0b0" stroke-dasharray="3.7,1.6" id="line2d_55"/><use x="52.875" xlink:href="#m91372f4905" y="116.319" stroke="#000" stroke-width=".8" id="line2d_56"/><g id="text_9"><defs><path d="M33.016 40.375q-6.641 0-10.532-4.547-3.875-4.531-3.875-12.437 0-7.86 3.875-12.438 3.891-4.562 10.532-4.562 6.64 0 10.515 4.562 3.875 4.578 3.875 12.438 0 7.906-3.875 12.437-3.875 4.547-10.515 4.547zm19.578 30.922v-8.984q-3.719 1.75-7.5 2.671-3.782.938-7.5.938-9.766 0-14.922-6.594-5.14-6.594-5.875-19.922 2.875 4.25 7.219 6.516 4.359 2.266 9.578 2.266 10.984 0 17.36-6.672 6.374-6.657 6.374-18.125 0-11.235-6.64-18.032-6.641-6.78-17.672-6.78-12.657 0-19.344 9.687-6.688 9.703-6.688 28.109 0 17.281 8.204 27.563 8.203 10.28 22.015 10.28 3.719 0 7.5-.734t7.89-2.187z" id="DejaVuSans-54"/></defs><g transform="matrix(.1 0 0 -.1 29.972 120.118)"><use xlink:href="#DejaVuSans-48"/><use x="63.623" xlink:href="#DejaVuSans-46"/><use x="95.41" xlink:href="#DejaVuSans-54"/></g></g></g><g id="ytick_5"><path clip-path="url(#p218f2ae318)" d="M52.875 77.955H402" fill="none" stroke="#b0b0b0" stroke-dasharray="3.7,1.6" id="line2d_57"/><use x="52.875" xlink:href="#m91372f4905" y="77.955" stroke="#000" stroke-width=".8" id="line2d_58"/><g id="text_10"><defs><path d="M31.781 34.625q-7.031 0-11.062-3.766-4.016-3.765-4.016-10.343 0-6.594 4.016-10.36Q24.75 6.391 31.78 6.391q7.032 0 11.078 3.78 4.063 3.798 4.063 10.345 0 6.578-4.031 10.343-4.016 3.766-11.11 3.766zm-9.86 4.188q-6.343 1.562-9.89 5.906Q8.5 49.079 8.5 55.329q0 8.733 6.219 13.812 6.234 5.078 17.062 5.078 10.89 0 17.094-5.078 6.203-5.079 6.203-13.813 0-6.25-3.547-10.61-3.531-4.343-9.828-5.906 7.125-1.656 11.094-6.5 3.984-4.828 3.984-11.796 0-10.61-6.468-16.282-6.47-5.656-18.532-5.656-12.047 0-18.531 5.656-6.469 5.672-6.469 16.282 0 6.968 4 11.797 4.016 4.843 11.14 6.5zM18.314 54.39q0-5.657 3.53-8.828 3.548-3.172 9.938-3.172 6.36 0 9.938 3.172 3.593 3.171 3.593 8.828 0 5.672-3.593 8.843-3.578 3.172-9.938 3.172-6.39 0-9.937-3.172-3.532-3.172-3.532-8.843z" id="DejaVuSans-56"/></defs><g transform="matrix(.1 0 0 -.1 29.972 81.754)"><use xlink:href="#DejaVuSans-48"/><use x="63.623" xlink:href="#DejaVuSans-46"/><use x="95.41" xlink:href="#DejaVuSans-56"/></g></g></g><g id="ytick_6"><path clip-path="url(#p218f2ae318)" d="M52.875 39.59H402" fill="none" stroke="#b0b0b0" stroke-dasharray="3.7,1.6" id="line2d_59"/><use x="52.875" xlink:href="#m91372f4905" y="39.591" stroke="#000" stroke-width=".8" id="line2d_60"/><g transform="matrix(.1 0 0 -.1 29.972 43.39)" id="text_11"><use xlink:href="#DejaVuSans-49"/><use x="63.623" xlink:href="#DejaVuSans-46"/><use x="95.41" xlink:href="#DejaVuSans-48"/></g></g><g id="text_12"><defs><path d="M9.813 72.906h41.89v-8.312H19.672V43.109h28.906v-8.297H19.672V0h-9.86z" id="DejaVuSans-70"/><path d="M41.11 46.297q-1.516.875-3.297 1.281Q36.03 48 33.89 48q-7.625 0-11.703-4.953-4.079-4.953-4.079-14.234V0H9.08v54.688h9.03v-8.5q2.844 4.984 7.375 7.39Q30.031 56 36.531 56q.922 0 2.047-.125 1.125-.11 2.484-.36z" id="DejaVuSans-114"/><path d="M48.781 52.594v-8.407q-3.812 2.11-7.64 3.157-3.828 1.047-7.735 1.047-8.75 0-13.593-5.547-4.829-5.532-4.829-15.547 0-10.016 4.829-15.563 4.843-5.53 13.593-5.53 3.907 0 7.735 1.046 3.828 1.047 7.64 3.156V2.094Q45.016.344 40.984-.531q-4.015-.89-8.562-.89-12.36 0-19.64 7.765-7.266 7.765-7.266 20.953 0 13.375 7.343 21.031Q20.22 56 33.016 56q4.14 0 8.093-.86 3.953-.843 7.672-2.546z" id="DejaVuSans-99"/><path d="M18.313 70.219V54.688h18.5v-6.985h-18.5V18.016q0-6.688 1.828-8.594 1.828-1.906 7.453-1.906h9.218V0h-9.218q-10.407 0-14.36 3.875-3.953 3.89-3.953 14.14v29.688H2.687v6.984h6.594V70.22z" id="DejaVuSans-116"/><path d="M54.89 33.016V0h-8.984v32.719q0 7.765-3.031 11.61-3.031 3.858-9.078 3.858-7.281 0-11.484-4.64-4.204-4.625-4.204-12.64V0H9.08v54.688h9.03v-8.5q3.235 4.937 7.594 7.374Q30.078 56 35.797 56q9.422 0 14.25-5.828 4.844-5.828 4.844-17.156z" id="DejaVuSans-110"/><path d="M37.11 75.984V68.5h-8.594q-4.828 0-6.72-1.953-1.874-1.953-1.874-7.031v-4.828h14.797v-6.985H19.922V0H10.89v47.703H2.297v6.984h8.594V58.5q0 9.125 4.25 13.297 4.25 4.187 13.468 4.187z" id="DejaVuSans-102"/><path d="M44.39 34.188q3.172-1.079 6.172-4.594 3-3.516 6.032-9.672L66.609 0H56l-9.313 18.703q-3.624 7.328-7.015 9.719-3.39 2.39-9.25 2.39h-10.75V0h-9.86v72.906h22.266q12.5 0 18.656-5.234 6.157-5.219 6.157-15.766 0-6.89-3.203-11.437-3.204-4.532-9.297-6.282zM19.673 64.797V38.922h12.406q7.125 0 10.766 3.297 3.64 3.297 3.64 9.687 0 6.39-3.64 9.64-3.64 3.25-10.766 3.25z" id="DejaVuSans-82"/><path d="M14.797 27.297q0-9.906 4.078-15.547 4.078-5.64 11.203-5.64 7.125 0 11.219 5.64 4.11 5.64 4.11 15.547 0 9.906-4.11 15.547-4.094 5.64-11.219 5.64-7.125 0-11.203-5.64-4.078-5.64-4.078-15.547zm30.61-19.094q-2.83-4.875-7.157-7.25-4.313-2.375-10.375-2.375-9.906 0-16.14 7.906-6.22 7.922-6.22 20.813 0 12.89 6.22 20.797Q17.968 56 27.874 56q6.063 0 10.375-2.375 4.328-2.36 7.156-7.234v8.297h8.985v-75.485h-8.985z" id="DejaVuSans-113"/><path d="M8.5 21.578v33.11h8.984V21.922q0-7.766 3.016-11.656 3.031-3.875 9.094-3.875 7.265 0 11.484 4.64 4.234 4.64 4.234 12.656v31h8.985V0h-8.984v8.406Q42.047 3.422 37.718 1q-4.313-2.422-10.032-2.422-9.421 0-14.312 5.86Q8.5 10.296 8.5 21.578zM31.11 56z" id="DejaVuSans-117"/></defs><g transform="matrix(0 -.1 -.1 0 23.892 186.95)"><use xlink:href="#DejaVuSans-70"/><use x="57.41" xlink:href="#DejaVuSans-114"/><use x="98.523" xlink:href="#DejaVuSans-97"/><use x="159.803" xlink:href="#DejaVuSans-99"/><use x="214.783" xlink:href="#DejaVuSans-116"/><use x="253.992" xlink:href="#DejaVuSans-105"/><use x="281.775" xlink:href="#DejaVuSans-111"/><use x="342.957" xlink:href="#DejaVuSans-110"/><use x="406.336" xlink:href="#DejaVuSans-32"/><use x="438.123" xlink:href="#DejaVuSans-111"/><use x="499.305" xlink:href="#DejaVuSans-102"/><use x="534.51" xlink:href="#DejaVuSans-32"/><use x="566.297" xlink:href="#DejaVuSans-82"/><use x="635.717" xlink:href="#DejaVuSans-101"/><use x="697.24" xlink:href="#DejaVuSans-113"/><use x="760.717" xlink:href="#DejaVuSans-117"/><use x="824.096" xlink:href="#DejaVuSans-101"/><use x="885.619" xlink:href="#DejaVuSans-115"/><use x="937.719" xlink:href="#DejaVuSans-116"/><use x="976.928" xlink:href="#DejaVuSans-115"/></g></g></g><path clip-path="url(#p218f2ae318)" d="M69.982 231.41l6.22-.121 2.287-.297.864-.115.823-.185 2.887-.918 1.431-.847.292-.217.328-.3.718-.758.248-.298 1.87-2.478 2.017-4.074.603-1.794 1.281-4.512 1.138-5.103 1.85-8.495 2.605-13.67 1.453-9.486 7.47-48.317 4.17-23.395.152-.788.654-3.32.317-1.51.416-1.917 1.27-5.314.284-1.154.723-2.624.332-1.228.25-.888.491-1.694.612-2.077.628-1.942.265-.802 1.226-3.647.31-.813.38-.996 1.14-2.806.249-.533.146-.298.4-.85.125-.282.482-.99.103-.204 1.033-2.005.334-.618.1-.203.23-.414 3.532-6.213.117-.164.28-.396 3.001-3.544.952-1.013.16-.148 3.247-2.905.511-.393.541-.412.201-.137.191-.151.316-.201.349-.222 6.657-3.59.51-.232.68-.344.296-.128 2.438-1.054.424-.144.175-.07.573-.223.123-.045.491-.178.166-.06.498-.15 1.524-.434.256-.081.982-.258.21-.049.649-.144.208-.044 1.296-.266.191-.037 3.76-.639 9.24-.931 2.128-.167 11.951-.634 14.908-.35 74.809-.356 25.901-.015h0" fill="none" stroke="#00aff0" stroke-dasharray="7.4,3.2" stroke-width="2" id="line2d_61"/><path clip-path="url(#p218f2ae318)" d="M68.744 231.41l2.564-.058 3.992-.123 7.924-.425.58-.065 1.198-.131 4.05-.99.447-.196.407-.16.67-.294.506-.245.692-.39.537-.354.403-.285.871-.736.448-.445.305-.304 1.622-1.81 2.056-3.68.504-1.275 1.04-2.701 1.035-3.175.435-1.438.15-.496 3.743-14.67 2.86-13.946.424-2.233.183-.943.438-2.23.862-4.276.432-2.05 2.274-10.912.455-2.22.25-1.143.29-1.324.509-2.494 1.648-8.601.585-3.11.931-4.773.459-2.235 1.008-4.906 1.63-7.628.503-2.252 4.331-19.445.483-2.29 4.372-18.365.78-2.827.391-1.414 1.428-5.052.254-.83.165-.566.399-1.42.048-.146.23-.707.231-.661 3.501-8.636.097-.182.261-.498.681-1.294.132-.204.261-.426.967-1.506.161-.229.566-.82.098-.146 2.727-3.27.295-.338.502-.51.177-.18.568-.54.357-.324.163-.153.192-.157.925-.822.337-.313.232-.209 2.103-1.495.375-.219.673-.421 4.087-1.635 1.356-.302.174-.034.839-.143.681-.123 1.848-.235.485-.067 2.561-.213.92-.054 16.523-.402 91.061-.271 39.732-.003h0" fill="none" stroke="maroon" stroke-dasharray="7.4,3.2" stroke-width="2" id="line2d_62"/><path clip-path="url(#p218f2ae318)" d="M69.513 231.408l5.765-.49 1.553-.484 1.57-.775.799-.541.402-.359.406-.431.345-.547 2.299-4.526.547-1.478 2.928-9.643 2.756-11.27.672-3.365.88-4.725.555-3.073 1.365-8.325 1.714-11.733.523-4.167 2.62-17.673.324-2.092.601-3.797 2.497-15.285.377-2.266 1.078-6.436.975-5.465 2.64-13.757.817-3.983.357-1.618.707-3.092.194-.833 1.12-4.498.45-1.703 1.523-5.293.193-.623 1.29-4.08.11-.32.478-1.41.324-.942.537-1.455 3.188-7.472.414-.817.532-1.002.188-.32.236-.417.172-.312 1.021-1.694.09-.144.297-.444.148-.202.14-.192.266-.389 2.84-3.616.174-.18.624-.723.19-.19.455-.487.167-.181.335-.317.21-.2.302-.267.185-.19.212-.177.237-.214.212-.178.275-.231.263-.22.314-.25.38-.298.551-.353.274-.175.605-.383.173-.119.318-.184.243-.144.893-.527.637-.31.423-.213.204-.105.268-.156 2.41-1.057 1.297-.457.205-.063.819-.264 2.417-.577.767-.142.816-.144.87-.137.589-.08 1.712-.2 1.57-.168 2.073-.179 1.098-.107 13.946-.5 20.67-.209 52.542-.823 49.447-.164h0" fill="none" stroke="#f50" stroke-dasharray="7.4,3.2" stroke-width="2" id="line2d_63"/><path clip-path="url(#p218f2ae318)" d="M179.373 231.41l80.758-.42 4.563-.15.48-.136.234-.144.566-.733.5-2.107.132-.751.111-.664.18-1.206.036-.277.147-1.282.603-6.326.135-1.72.121-1.697.179-2.642.301-4.642.735-10.435.17-2.23.085-1.078.522-6.043.16-1.903.076-.921.29-3.496.038-.441.748-8.387.04-.382.282-2.306.046-.32.132-.849.165-.96 1.123-4.639.08-.243.146-.379 1.262-1.81.2-.156 3.357-2.772.187-.132 1.037-.666 1.392-.54 4.572-.408 6.615-.343.415-.656.962-.568 2.428-.442 1.503-.158 1.935-.147 1.765-.156.113-.019.496-.107.647-.266.14-.077.349-.167 1.574-.982.296-.298.554-.63.35-.307.255-.215.278-.176.607-.348.111-.062.22-.126.584-.276.29-.149.206-.1 1.719-.888.42-.2.28-.13.308-.175 1.514-1.473.156-.202.14-.135.303-.297.171-.145.421-.32.228-.15.16-.12.506-.34.366-.245 2.233-.953.165-.208 3.468-3.267.35-.232.144-.078 1.7-.893.114-.1 1.61-1.797.137-.197.2-.277.128-.226 3.995-6.056.193-.523.057-.188.119-.415 1.24-6.303.146-1.188.159-1.767.117-1.65.045-.753 1.675-42.273 1.388-21.42.06-.594.198-1.64.026-.146.12-.756.034-.201.115-.596.19-.873.13-.467.257-.807.682-1.437.231-.439.092-.138.12-.168.22-.248 1.652-1.795.186-.202.3-.42 1.444-1.274.493-.276.299-.122.444-.142 2.911-.208 16.092-.11 25.803-.008h0" fill="none" stroke="#58b792" stroke-dasharray="7.4,3.2" stroke-width="2" id="line2d_64"/><path clip-path="url(#p218f2ae318)" d="M69.956 231.41l7.196-.117.87-.035 3.844-.177 2.863-.39.884-.17.721-.192.245-.094.356-.15.47-.19 2.398-1.241.994-.615.226-.14.452-.297.337-.268.32-.248 3.442-3.423 1.55-2.051 3.108-6.168.304-.639.083-.19 1.054-2.51.97-2.51.285-.78 2.538-8.631.386-1.703 1.376-6.37.208-.93 2.933-14.802.567-2.98.642-3.36.65-3.387.188-.941.822-4.226 1.247-6.503 5.748-29.603.1-.51.884-4.374.24-1.207.332-1.675 3.907-17.202.134-.504.451-1.742 3.465-12.13.105-.328 1.263-4.14.044-.14.943-2.723.182-.457.323-.818.206-.5 1.47-3.342.15-.312.168-.356.07-.156.254-.515 1.082-2.032.109-.184.28-.544.674-1.334.21-.44.8-1.55 1.63-2.64.17-.234.277-.39.367-.497.282-.413 4.685-5.805.176-.181.225-.23.46-.497.139-.134.749-.69.215-.204.294-.257.217-.205.297-.266 1.538-1.388.246-.199 2.255-1.786.436-.322.202-.147.22-.154.626-.418.367-.202.232-.14.381-.221.302-.173.355-.21.23-.145.479-.236.308-.161.36-.16.165-.088.254-.11.546-.231.15-.064.447-.21.184-.094.794-.337.236-.104.88-.371.143-.056.52-.201.21-.085.93-.342.548-.22.504-.156.426-.147.71-.247.854-.265.64-.192.165-.043.724-.176 9.21-1.811.995-.14 1.844-.305.861-.136.181-.035 1.255-.176.145-.017 1.525-.178 1.867-.156 2-.17.391-.018 1.93-.143 3.923-.227.283-.014 4.308-.161.33-.012 43.961-.396 45.512-.034h0" fill="none" stroke="#c70d2c" stroke-dasharray="7.4,3.2" stroke-width="2" id="line2d_65"/><path d="M52.875 241V30" fill="none" stroke="#000" stroke-linecap="square" stroke-width=".8" id="patch_3"/><path d="M402 241V30" fill="none" stroke="#000" stroke-linecap="square" stroke-width=".8" id="patch_4"/><path d="M52.875 241H402" fill="none" stroke="#000" stroke-linecap="square" stroke-width=".8" id="patch_5"/><path d="M52.875 30H402" fill="none" stroke="#000" stroke-linecap="square" stroke-width=".8" id="patch_6"/><g id="text_13"><defs><path d="M19.672 64.797V8.109h11.922q15.093 0 22.093 6.829 7 6.843 7 21.593 0 14.64-7 21.453-7 6.813-22.093 6.813zm-9.86 8.11h20.266q21.188 0 31.094-8.813 9.922-8.813 9.922-27.563 0-18.86-9.969-27.703Q51.172 0 30.078 0H9.813z" id="DejaVuSans-68"/><path d="M11.719 12.406h10.297V0H11.719zm0 39.297h10.297v-12.39H11.719z" id="DejaVuSans-58"/><path d="M34.188 63.188L20.797 26.906h26.812zm-5.579 9.718h11.188L67.578 0h-10.25l-6.64 18.703h-32.86L11.188 0H.78z" id="DejaVuSans-65"/><path d="M64.406 67.281v-10.39q-4.984 4.64-10.625 6.922-5.64 2.296-11.984 2.296-12.5 0-19.14-7.64-6.641-7.64-6.641-22.094 0-14.406 6.64-22.047 6.64-7.64 19.14-7.64 6.345 0 11.985 2.296 5.64 2.297 10.625 6.938V5.609Q59.234 2.094 53.437.33q-5.78-1.75-12.218-1.75-16.563 0-26.094 10.124-9.516 10.14-9.516 27.672 0 17.578 9.516 27.703 9.531 10.14 26.094 10.14 6.531 0 12.312-1.734 5.797-1.734 10.875-5.203z" id="DejaVuSans-67"/></defs><g transform="matrix(.12 0 0 -.12 125.235 24)"><use xlink:href="#DejaVuSans-68"/><use x="77.002" xlink:href="#DejaVuSans-101"/><use x="138.525" xlink:href="#DejaVuSans-99"/><use x="193.506" xlink:href="#DejaVuSans-105"/><use x="221.289" xlink:href="#DejaVuSans-115"/><use x="273.389" xlink:href="#DejaVuSans-105"/><use x="301.172" xlink:href="#DejaVuSans-111"/><use x="362.354" xlink:href="#DejaVuSans-110"/><use x="425.732" xlink:href="#DejaVuSans-32"/><use x="457.52" xlink:href="#DejaVuSans-84"/><use x="518.557" xlink:href="#DejaVuSans-105"/><use x="546.34" xlink:href="#DejaVuSans-109"/><use x="643.752" xlink:href="#DejaVuSans-101"/><use x="705.275" xlink:href="#DejaVuSans-58"/><use x="738.967" xlink:href="#DejaVuSans-32"/><use x="770.754" xlink:href="#DejaVuSans-65"/><use x="839.162" xlink:href="#DejaVuSans-108"/><use x="866.945" xlink:href="#DejaVuSans-108"/><use x="894.729" xlink:href="#DejaVuSans-32"/><use x="926.516" xlink:href="#DejaVuSans-82"/><use x="995.936" xlink:href="#DejaVuSans-101"/><use x="1057.459" xlink:href="#DejaVuSans-113"/><use x="1120.936" xlink:href="#DejaVuSans-117"/><use x="1184.314" xlink:href="#DejaVuSans-101"/><use x="1245.838" xlink:href="#DejaVuSans-115"/><use x="1297.938" xlink:href="#DejaVuSans-116"/><use x="1337.146" xlink:href="#DejaVuSans-115"/><use x="1389.246" xlink:href="#DejaVuSans-32"/><use x="1421.033" xlink:href="#DejaVuSans-40"/><use x="1460.047" xlink:href="#DejaVuSans-67"/><use x="1529.871" xlink:href="#DejaVuSans-68"/><use x="1606.873" xlink:href="#DejaVuSans-70"/><use x="1664.393" xlink:href="#DejaVuSans-41"/></g></g><g id="legend_1"><path d="M296.212 236H395q2 0 2-2v-72.39q0-2-2-2h-98.788q-2 0-2 2V234q0 2 2 2z" fill="#fff" opacity=".8" stroke="#ccc" id="patch_7"/><path d="M298.212 167.708h20" fill="none" stroke="#00aff0" stroke-dasharray="7.4,3.2" stroke-width="2" id="line2d_66"/><g id="text_14"><defs><path d="M5.516 54.688h42.672v-8.204L14.406 7.172h33.782V0H4.297v8.203l33.797 39.313H5.516z" id="DejaVuSans-122"/></defs><g transform="matrix(.1 0 0 -.1 326.212 171.208)"><use xlink:href="#DejaVuSans-67"/><use x="69.824" xlink:href="#DejaVuSans-108"/><use x="97.607" xlink:href="#DejaVuSans-105"/><use x="125.391" xlink:href="#DejaVuSans-113"/><use x="188.867" xlink:href="#DejaVuSans-122"/></g></g><path d="M298.212 182.386h20" fill="none" stroke="maroon" stroke-dasharray="7.4,3.2" stroke-width="2" id="line2d_68"/><g id="text_15"><defs><path d="M19.672 34.813V8.108H35.5q7.953 0 11.781 3.297 3.844 3.297 3.844 10.078 0 6.844-3.844 10.078-3.828 3.25-11.781 3.25zm0 29.984V42.828h14.61q7.218 0 10.75 2.703 3.546 2.719 3.546 8.282 0 5.515-3.547 8.25-3.531 2.734-10.75 2.734zm-9.86 8.11h25.204q11.28 0 17.375-4.688Q58.5 63.53 58.5 54.89q0-6.703-3.125-10.657-3.125-3.953-9.188-4.922 7.282-1.562 11.313-6.53 4.031-4.954 4.031-12.376 0-9.765-6.64-15.093Q48.25 0 35.984 0H9.812z" id="DejaVuSans-66"/><path d="M9.078 75.984h9.031V31.11l26.813 23.578H56.39l-29-25.578L57.625 0H45.906L18.11 26.703V0H9.08z" id="DejaVuSans-107"/><path d="M39.406 66.219q-10.75 0-17.078-8.016-6.312-8-6.312-21.828 0-13.766 6.312-21.781 6.328-8 17.078-8 10.735 0 17.016 8 6.281 8.015 6.281 21.781 0 13.828-6.281 21.828-6.281 8.016-17.016 8.016zm0 8q15.328 0 24.5-10.281 9.188-10.282 9.188-27.563 0-17.234-9.188-27.516-9.172-10.28-24.5-10.28-15.375 0-24.593 10.25-9.204 10.265-9.204 27.546t9.204 27.563q9.218 10.28 24.593 10.28z" id="DejaVuSans-79"/></defs><g transform="matrix(.1 0 0 -.1 326.212 185.886)"><use xlink:href="#DejaVuSans-117"/><use x="63.379" xlink:href="#DejaVuSans-66"/><use x="131.982" xlink:href="#DejaVuSans-108"/><use x="159.766" xlink:href="#DejaVuSans-111"/><use x="220.947" xlink:href="#DejaVuSans-99"/><use x="275.928" xlink:href="#DejaVuSans-107"/><use x="333.838" xlink:href="#DejaVuSans-32"/><use x="365.625" xlink:href="#DejaVuSans-79"/><use x="444.336" xlink:href="#DejaVuSans-114"/><use x="485.449" xlink:href="#DejaVuSans-105"/><use x="513.232" xlink:href="#DejaVuSans-103"/><use x="576.709" xlink:href="#DejaVuSans-105"/><use x="604.492" xlink:href="#DejaVuSans-110"/></g></g><path d="M298.212 197.064h20" fill="none" stroke="#f50" stroke-dasharray="7.4,3.2" stroke-width="2" id="line2d_70"/><g id="text_16"><defs><path d="M2.984 54.688H12.5L29.594 8.797l17.093 45.89h9.516L35.687 0H23.485z" id="DejaVuSans-118"/></defs><g transform="matrix(.1 0 0 -.1 326.212 200.564)"><use xlink:href="#DejaVuSans-66"/><use x="68.604" xlink:href="#DejaVuSans-114"/><use x="109.717" xlink:href="#DejaVuSans-97"/><use x="170.996" xlink:href="#DejaVuSans-118"/><use x="230.176" xlink:href="#DejaVuSans-101"/></g></g><path d="M298.212 211.742h20" fill="none" stroke="#58b792" stroke-dasharray="7.4,3.2" stroke-width="2" id="line2d_72"/><g id="text_17"><defs><path d="M59.516 10.406v19.578h-16.11v8.11h25.875V6.78Q63.578 2.734 56.687.656 49.813-1.422 42-1.422q-17.094 0-26.75 9.985-9.64 10-9.64 27.812 0 17.875 9.64 27.86 9.656 9.984 26.75 9.984 7.125 0 13.547-1.766 6.422-1.75 11.844-5.172v-10.5q-5.47 4.64-11.625 6.985-6.157 2.343-12.938 2.343-13.39 0-20.11-7.468-6.702-7.47-6.702-22.266 0-14.75 6.703-22.219 6.718-7.469 20.11-7.469 5.218 0 9.312.907 4.109.906 7.375 2.812z" id="DejaVuSans-71"/></defs><g transform="matrix(.1 0 0 -.1 326.212 215.242)"><use xlink:href="#DejaVuSans-68"/><use x="77.002" xlink:href="#DejaVuSans-117"/><use x="140.381" xlink:href="#DejaVuSans-99"/><use x="195.361" xlink:href="#DejaVuSans-107"/><use x="253.271" xlink:href="#DejaVuSans-68"/><use x="330.273" xlink:href="#DejaVuSans-117"/><use x="393.652" xlink:href="#DejaVuSans-99"/><use x="448.633" xlink:href="#DejaVuSans-107"/><use x="506.543" xlink:href="#DejaVuSans-71"/><use x="584.033" xlink:href="#DejaVuSans-111"/></g></g><path d="M298.212 226.42h20" fill="none" stroke="#c70d2c" stroke-dasharray="7.4,3.2" stroke-width="2" id="line2d_74"/><g id="text_18"><defs><path d="M45.406 46.39v29.594h8.985V0h-8.985v8.203Q42.578 3.328 38.25.953q-4.313-2.375-10.375-2.375-9.906 0-16.14 7.906-6.22 7.922-6.22 20.813 0 12.89 6.22 20.797Q17.968 56 27.874 56q6.063 0 10.375-2.375 4.328-2.36 7.156-7.234zm-30.61-19.093q0-9.906 4.079-15.547 4.078-5.64 11.203-5.64 7.125 0 11.219 5.64 4.11 5.64 4.11 15.547 0 9.906-4.11 15.547-4.094 5.64-11.219 5.64-7.125 0-11.203-5.64-4.078-5.64-4.078-15.547z" id="DejaVuSans-100"/><path d="M19.672 64.797v-27.39h12.406q6.89 0 10.64 3.562 3.766 3.562 3.766 10.156 0 6.547-3.765 10.11-3.75 3.562-10.64 3.562zm-9.86 8.11h22.266q12.266 0 18.531-5.548 6.282-5.546 6.282-16.234 0-10.797-6.282-16.313-6.265-5.515-18.53-5.515H19.671V0h-9.86z" id="DejaVuSans-80"/></defs><g transform="matrix(.1 0 0 -.1 326.212 229.92)"><use xlink:href="#DejaVuSans-65"/><use x="68.393" xlink:href="#DejaVuSans-100"/><use x="131.869" xlink:href="#DejaVuSans-98"/><use x="195.346" xlink:href="#DejaVuSans-108"/><use x="223.129" xlink:href="#DejaVuSans-111"/><use x="284.311" xlink:href="#DejaVuSans-99"/><use x="339.291" xlink:href="#DejaVuSans-107"/><use x="397.201" xlink:href="#DejaVuSans-32"/><use x="428.988" xlink:href="#DejaVuSans-80"/><use x="489.291" xlink:href="#DejaVuSans-108"/><use x="517.074" xlink:href="#DejaVuSans-117"/><use x="580.453" xlink:href="#DejaVuSans-115"/></g></g></g></g></g><defs><clipPath id="p218f2ae318"><path d="M52.875 30H402v211H52.875z"/></clipPath></defs></svg>