<?xml version="1.0" encoding="utf-8" standalone="no"?>
<!DOCTYPE svg PUBLIC "-//W3C//DTD SVG 1.1//EN"
  "http://www.w3.org/Graphics/SVG/1.1/DTD/svg11.dtd">
<!-- Created with matplotlib (https://matplotlib.org/) -->
<svg height="288pt" version="1.1" viewBox="0 0 432 288" width="432pt" xmlns="http://www.w3.org/2000/svg" xmlns:xlink="http://www.w3.org/1999/xlink">
 <defs>
  <style type="text/css">
*{stroke-linecap:butt;stroke-linejoin:round;}
  </style>
 </defs>
 <g id="figure_1">
  <g id="patch_1">
   <path d="M 0 288 
L 432 288 
L 432 0 
L 0 0 
z
" style="fill:#ffffff;"/>
  </g>
  <g id="axes_1">
   <g id="patch_2">
    <path d="M 52.875 241 
L 402 241 
L 402 30 
L 52.875 30 
z
" style="fill:#ffffff;"/>
   </g>
   <g id="matplotlib.axis_1">
    <g id="xtick_1">
     <g id="line2d_1">
      <path clip-path="url(#pc830c9e188)" d="M 119.432202 241 
L 119.432202 30 
" style="fill:none;stroke:#b0b0b0;stroke-dasharray:3.7,1.6;stroke-dashoffset:0;"/>
     </g>
     <g id="line2d_2">
      <defs>
       <path d="M 0 0 
L 0 3.5 
" id="m21a83737a6" style="stroke:#000000;stroke-width:0.8;"/>
      </defs>
      <g>
       <use style="stroke:#000000;stroke-width:0.8;" x="119.432202" xlink:href="#m21a83737a6" y="241"/>
      </g>
     </g>
     <g id="text_1">
      <!-- $\mathdefault{10^{-2}}$ -->
      <defs>
       <path d="M 12.40625 8.296875 
L 28.515625 8.296875 
L 28.515625 63.921875 
L 10.984375 60.40625 
L 10.984375 69.390625 
L 28.421875 72.90625 
L 38.28125 72.90625 
L 38.28125 8.296875 
L 54.390625 8.296875 
L 54.390625 0 
L 12.40625 0 
z
" id="DejaVuSans-49"/>
       <path d="M 31.78125 66.40625 
Q 24.171875 66.40625 20.328125 58.90625 
Q 16.5 51.421875 16.5 36.375 
Q 16.5 21.390625 20.328125 13.890625 
Q 24.171875 6.390625 31.78125 6.390625 
Q 39.453125 6.390625 43.28125 13.890625 
Q 47.125 21.390625 47.125 36.375 
Q 47.125 51.421875 43.28125 58.90625 
Q 39.453125 66.40625 31.78125 66.40625 
z
M 31.78125 74.21875 
Q 44.046875 74.21875 50.515625 64.515625 
Q 56.984375 54.828125 56.984375 36.375 
Q 56.984375 17.96875 50.515625 8.265625 
Q 44.046875 -1.421875 31.78125 -1.421875 
Q 19.53125 -1.421875 13.0625 8.265625 
Q 6.59375 17.96875 6.59375 36.375 
Q 6.59375 54.828125 13.0625 64.515625 
Q 19.53125 74.21875 31.78125 74.21875 
z
" id="DejaVuSans-48"/>
       <path d="M 10.59375 35.5 
L 73.1875 35.5 
L 73.1875 27.203125 
L 10.59375 27.203125 
z
" id="DejaVuSans-8722"/>
       <path d="M 19.1875 8.296875 
L 53.609375 8.296875 
L 53.609375 0 
L 7.328125 0 
L 7.328125 8.296875 
Q 12.9375 14.109375 22.625 23.890625 
Q 32.328125 33.6875 34.8125 36.53125 
Q 39.546875 41.84375 41.421875 45.53125 
Q 43.3125 49.21875 43.3125 52.78125 
Q 43.3125 58.59375 39.234375 62.25 
Q 35.15625 65.921875 28.609375 65.921875 
Q 23.96875 65.921875 18.8125 64.3125 
Q 13.671875 62.703125 7.8125 59.421875 
L 7.8125 69.390625 
Q 13.765625 71.78125 18.9375 73 
Q 24.125 74.21875 28.421875 74.21875 
Q 39.75 74.21875 46.484375 68.546875 
Q 53.21875 62.890625 53.21875 53.421875 
Q 53.21875 48.921875 51.53125 44.890625 
Q 49.859375 40.875 45.40625 35.40625 
Q 44.1875 33.984375 37.640625 27.21875 
Q 31.109375 20.453125 19.1875 8.296875 
z
" id="DejaVuSans-50"/>
      </defs>
      <g transform="translate(107.682202 255.598438)scale(0.1 -0.1)">
       <use transform="translate(0 0.765625)" xlink:href="#DejaVuSans-49"/>
       <use transform="translate(63.623047 0.765625)" xlink:href="#DejaVuSans-48"/>
       <use transform="translate(128.203125 39.046875)scale(0.7)" xlink:href="#DejaVuSans-8722"/>
       <use transform="translate(186.855469 39.046875)scale(0.7)" xlink:href="#DejaVuSans-50"/>
      </g>
     </g>
    </g>
    <g id="xtick_2">
     <g id="line2d_3">
      <path clip-path="url(#pc830c9e188)" d="M 199.836436 241 
L 199.836436 30 
" style="fill:none;stroke:#b0b0b0;stroke-dasharray:3.7,1.6;stroke-dashoffset:0;"/>
     </g>
     <g id="line2d_4">
      <g>
       <use style="stroke:#000000;stroke-width:0.8;" x="199.836436" xlink:href="#m21a83737a6" y="241"/>
      </g>
     </g>
     <g id="text_2">
      <!-- $\mathdefault{10^{-1}}$ -->
      <g transform="translate(188.086436 255.598438)scale(0.1 -0.1)">
       <use transform="translate(0 0.684375)" xlink:href="#DejaVuSans-49"/>
       <use transform="translate(63.623047 0.684375)" xlink:href="#DejaVuSans-48"/>
       <use transform="translate(128.203125 38.965625)scale(0.7)" xlink:href="#DejaVuSans-8722"/>
       <use transform="translate(186.855469 38.965625)scale(0.7)" xlink:href="#DejaVuSans-49"/>
      </g>
     </g>
    </g>
    <g id="xtick_3">
     <g id="line2d_5">
      <path clip-path="url(#pc830c9e188)" d="M 280.24067 241 
L 280.24067 30 
" style="fill:none;stroke:#b0b0b0;stroke-dasharray:3.7,1.6;stroke-dashoffset:0;"/>
     </g>
     <g id="line2d_6">
      <g>
       <use style="stroke:#000000;stroke-width:0.8;" x="280.24067" xlink:href="#m21a83737a6" y="241"/>
      </g>
     </g>
     <g id="text_3">
      <!-- $\mathdefault{10^{0}}$ -->
      <g transform="translate(271.44067 255.598438)scale(0.1 -0.1)">
       <use transform="translate(0 0.765625)" xlink:href="#DejaVuSans-49"/>
       <use transform="translate(63.623047 0.765625)" xlink:href="#DejaVuSans-48"/>
       <use transform="translate(128.203125 39.046875)scale(0.7)" xlink:href="#DejaVuSans-48"/>
      </g>
     </g>
    </g>
    <g id="xtick_4">
     <g id="line2d_7">
      <path clip-path="url(#pc830c9e188)" d="M 360.644904 241 
L 360.644904 30 
" style="fill:none;stroke:#b0b0b0;stroke-dasharray:3.7,1.6;stroke-dashoffset:0;"/>
     </g>
     <g id="line2d_8">
      <g>
       <use style="stroke:#000000;stroke-width:0.8;" x="360.644904" xlink:href="#m21a83737a6" y="241"/>
      </g>
     </g>
     <g id="text_4">
      <!-- $\mathdefault{10^{1}}$ -->
      <g transform="translate(351.844904 255.598438)scale(0.1 -0.1)">
       <use transform="translate(0 0.684375)" xlink:href="#DejaVuSans-49"/>
       <use transform="translate(63.623047 0.684375)" xlink:href="#DejaVuSans-48"/>
       <use transform="translate(128.203125 38.965625)scale(0.7)" xlink:href="#DejaVuSans-49"/>
      </g>
     </g>
    </g>
    <g id="xtick_5">
     <g id="line2d_9">
      <defs>
       <path d="M 0 0 
L 0 2 
" id="m8b22c11a5e" style="stroke:#000000;stroke-width:0.6;"/>
      </defs>
      <g>
       <use style="stroke:#000000;stroke-width:0.6;" x="63.232054" xlink:href="#m8b22c11a5e" y="241"/>
      </g>
     </g>
    </g>
    <g id="xtick_6">
     <g id="line2d_10">
      <g>
       <use style="stroke:#000000;stroke-width:0.6;" x="77.390536" xlink:href="#m8b22c11a5e" y="241"/>
      </g>
     </g>
    </g>
    <g id="xtick_7">
     <g id="line2d_11">
      <g>
       <use style="stroke:#000000;stroke-width:0.6;" x="87.43614" xlink:href="#m8b22c11a5e" y="241"/>
      </g>
     </g>
    </g>
    <g id="xtick_8">
     <g id="line2d_12">
      <g>
       <use style="stroke:#000000;stroke-width:0.6;" x="95.228115" xlink:href="#m8b22c11a5e" y="241"/>
      </g>
     </g>
    </g>
    <g id="xtick_9">
     <g id="line2d_13">
      <g>
       <use style="stroke:#000000;stroke-width:0.6;" x="101.594623" xlink:href="#m8b22c11a5e" y="241"/>
      </g>
     </g>
    </g>
    <g id="xtick_10">
     <g id="line2d_14">
      <g>
       <use style="stroke:#000000;stroke-width:0.6;" x="106.977428" xlink:href="#m8b22c11a5e" y="241"/>
      </g>
     </g>
    </g>
    <g id="xtick_11">
     <g id="line2d_15">
      <g>
       <use style="stroke:#000000;stroke-width:0.6;" x="111.640226" xlink:href="#m8b22c11a5e" y="241"/>
      </g>
     </g>
    </g>
    <g id="xtick_12">
     <g id="line2d_16">
      <g>
       <use style="stroke:#000000;stroke-width:0.6;" x="115.753106" xlink:href="#m8b22c11a5e" y="241"/>
      </g>
     </g>
    </g>
    <g id="xtick_13">
     <g id="line2d_17">
      <g>
       <use style="stroke:#000000;stroke-width:0.6;" x="143.636288" xlink:href="#m8b22c11a5e" y="241"/>
      </g>
     </g>
    </g>
    <g id="xtick_14">
     <g id="line2d_18">
      <g>
       <use style="stroke:#000000;stroke-width:0.6;" x="157.794771" xlink:href="#m8b22c11a5e" y="241"/>
      </g>
     </g>
    </g>
    <g id="xtick_15">
     <g id="line2d_19">
      <g>
       <use style="stroke:#000000;stroke-width:0.6;" x="167.840374" xlink:href="#m8b22c11a5e" y="241"/>
      </g>
     </g>
    </g>
    <g id="xtick_16">
     <g id="line2d_20">
      <g>
       <use style="stroke:#000000;stroke-width:0.6;" x="175.63235" xlink:href="#m8b22c11a5e" y="241"/>
      </g>
     </g>
    </g>
    <g id="xtick_17">
     <g id="line2d_21">
      <g>
       <use style="stroke:#000000;stroke-width:0.6;" x="181.998857" xlink:href="#m8b22c11a5e" y="241"/>
      </g>
     </g>
    </g>
    <g id="xtick_18">
     <g id="line2d_22">
      <g>
       <use style="stroke:#000000;stroke-width:0.6;" x="187.381662" xlink:href="#m8b22c11a5e" y="241"/>
      </g>
     </g>
    </g>
    <g id="xtick_19">
     <g id="line2d_23">
      <g>
       <use style="stroke:#000000;stroke-width:0.6;" x="192.04446" xlink:href="#m8b22c11a5e" y="241"/>
      </g>
     </g>
    </g>
    <g id="xtick_20">
     <g id="line2d_24">
      <g>
       <use style="stroke:#000000;stroke-width:0.6;" x="196.15734" xlink:href="#m8b22c11a5e" y="241"/>
      </g>
     </g>
    </g>
    <g id="xtick_21">
     <g id="line2d_25">
      <g>
       <use style="stroke:#000000;stroke-width:0.6;" x="224.040522" xlink:href="#m8b22c11a5e" y="241"/>
      </g>
     </g>
    </g>
    <g id="xtick_22">
     <g id="line2d_26">
      <g>
       <use style="stroke:#000000;stroke-width:0.6;" x="238.199005" xlink:href="#m8b22c11a5e" y="241"/>
      </g>
     </g>
    </g>
    <g id="xtick_23">
     <g id="line2d_27">
      <g>
       <use style="stroke:#000000;stroke-width:0.6;" x="248.244608" xlink:href="#m8b22c11a5e" y="241"/>
      </g>
     </g>
    </g>
    <g id="xtick_24">
     <g id="line2d_28">
      <g>
       <use style="stroke:#000000;stroke-width:0.6;" x="256.036584" xlink:href="#m8b22c11a5e" y="241"/>
      </g>
     </g>
    </g>
    <g id="xtick_25">
     <g id="line2d_29">
      <g>
       <use style="stroke:#000000;stroke-width:0.6;" x="262.403091" xlink:href="#m8b22c11a5e" y="241"/>
      </g>
     </g>
    </g>
    <g id="xtick_26">
     <g id="line2d_30">
      <g>
       <use style="stroke:#000000;stroke-width:0.6;" x="267.785897" xlink:href="#m8b22c11a5e" y="241"/>
      </g>
     </g>
    </g>
    <g id="xtick_27">
     <g id="line2d_31">
      <g>
       <use style="stroke:#000000;stroke-width:0.6;" x="272.448695" xlink:href="#m8b22c11a5e" y="241"/>
      </g>
     </g>
    </g>
    <g id="xtick_28">
     <g id="line2d_32">
      <g>
       <use style="stroke:#000000;stroke-width:0.6;" x="276.561574" xlink:href="#m8b22c11a5e" y="241"/>
      </g>
     </g>
    </g>
    <g id="xtick_29">
     <g id="line2d_33">
      <g>
       <use style="stroke:#000000;stroke-width:0.6;" x="304.444756" xlink:href="#m8b22c11a5e" y="241"/>
      </g>
     </g>
    </g>
    <g id="xtick_30">
     <g id="line2d_34">
      <g>
       <use style="stroke:#000000;stroke-width:0.6;" x="318.603239" xlink:href="#m8b22c11a5e" y="241"/>
      </g>
     </g>
    </g>
    <g id="xtick_31">
     <g id="line2d_35">
      <g>
       <use style="stroke:#000000;stroke-width:0.6;" x="328.648843" xlink:href="#m8b22c11a5e" y="241"/>
      </g>
     </g>
    </g>
    <g id="xtick_32">
     <g id="line2d_36">
      <g>
       <use style="stroke:#000000;stroke-width:0.6;" x="336.440818" xlink:href="#m8b22c11a5e" y="241"/>
      </g>
     </g>
    </g>
    <g id="xtick_33">
     <g id="line2d_37">
      <g>
       <use style="stroke:#000000;stroke-width:0.6;" x="342.807326" xlink:href="#m8b22c11a5e" y="241"/>
      </g>
     </g>
    </g>
    <g id="xtick_34">
     <g id="line2d_38">
      <g>
       <use style="stroke:#000000;stroke-width:0.6;" x="348.190131" xlink:href="#m8b22c11a5e" y="241"/>
      </g>
     </g>
    </g>
    <g id="xtick_35">
     <g id="line2d_39">
      <g>
       <use style="stroke:#000000;stroke-width:0.6;" x="352.852929" xlink:href="#m8b22c11a5e" y="241"/>
      </g>
     </g>
    </g>
    <g id="xtick_36">
     <g id="line2d_40">
      <g>
       <use style="stroke:#000000;stroke-width:0.6;" x="356.965808" xlink:href="#m8b22c11a5e" y="241"/>
      </g>
     </g>
    </g>
    <g id="xtick_37">
     <g id="line2d_41">
      <g>
       <use style="stroke:#000000;stroke-width:0.6;" x="384.848991" xlink:href="#m8b22c11a5e" y="241"/>
      </g>
     </g>
    </g>
    <g id="xtick_38">
     <g id="line2d_42">
      <g>
       <use style="stroke:#000000;stroke-width:0.6;" x="399.007474" xlink:href="#m8b22c11a5e" y="241"/>
      </g>
     </g>
    </g>
    <g id="text_5">
     <!-- Time (ms)  -->
     <defs>
      <path d="M -0.296875 72.90625 
L 61.375 72.90625 
L 61.375 64.59375 
L 35.5 64.59375 
L 35.5 0 
L 25.59375 0 
L 25.59375 64.59375 
L -0.296875 64.59375 
z
" id="DejaVuSans-84"/>
      <path d="M 9.421875 54.6875 
L 18.40625 54.6875 
L 18.40625 0 
L 9.421875 0 
z
M 9.421875 75.984375 
L 18.40625 75.984375 
L 18.40625 64.59375 
L 9.421875 64.59375 
z
" id="DejaVuSans-105"/>
      <path d="M 52 44.1875 
Q 55.375 50.25 60.0625 53.125 
Q 64.75 56 71.09375 56 
Q 79.640625 56 84.28125 50.015625 
Q 88.921875 44.046875 88.921875 33.015625 
L 88.921875 0 
L 79.890625 0 
L 79.890625 32.71875 
Q 79.890625 40.578125 77.09375 44.375 
Q 74.3125 48.1875 68.609375 48.1875 
Q 61.625 48.1875 57.5625 43.546875 
Q 53.515625 38.921875 53.515625 30.90625 
L 53.515625 0 
L 44.484375 0 
L 44.484375 32.71875 
Q 44.484375 40.625 41.703125 44.40625 
Q 38.921875 48.1875 33.109375 48.1875 
Q 26.21875 48.1875 22.15625 43.53125 
Q 18.109375 38.875 18.109375 30.90625 
L 18.109375 0 
L 9.078125 0 
L 9.078125 54.6875 
L 18.109375 54.6875 
L 18.109375 46.1875 
Q 21.1875 51.21875 25.484375 53.609375 
Q 29.78125 56 35.6875 56 
Q 41.65625 56 45.828125 52.96875 
Q 50 49.953125 52 44.1875 
z
" id="DejaVuSans-109"/>
      <path d="M 56.203125 29.59375 
L 56.203125 25.203125 
L 14.890625 25.203125 
Q 15.484375 15.921875 20.484375 11.0625 
Q 25.484375 6.203125 34.421875 6.203125 
Q 39.59375 6.203125 44.453125 7.46875 
Q 49.3125 8.734375 54.109375 11.28125 
L 54.109375 2.78125 
Q 49.265625 0.734375 44.1875 -0.34375 
Q 39.109375 -1.421875 33.890625 -1.421875 
Q 20.796875 -1.421875 13.15625 6.1875 
Q 5.515625 13.8125 5.515625 26.8125 
Q 5.515625 40.234375 12.765625 48.109375 
Q 20.015625 56 32.328125 56 
Q 43.359375 56 49.78125 48.890625 
Q 56.203125 41.796875 56.203125 29.59375 
z
M 47.21875 32.234375 
Q 47.125 39.59375 43.09375 43.984375 
Q 39.0625 48.390625 32.421875 48.390625 
Q 24.90625 48.390625 20.390625 44.140625 
Q 15.875 39.890625 15.1875 32.171875 
z
" id="DejaVuSans-101"/>
      <path id="DejaVuSans-32"/>
      <path d="M 31 75.875 
Q 24.46875 64.65625 21.28125 53.65625 
Q 18.109375 42.671875 18.109375 31.390625 
Q 18.109375 20.125 21.3125 9.0625 
Q 24.515625 -2 31 -13.1875 
L 23.1875 -13.1875 
Q 15.875 -1.703125 12.234375 9.375 
Q 8.59375 20.453125 8.59375 31.390625 
Q 8.59375 42.28125 12.203125 53.3125 
Q 15.828125 64.359375 23.1875 75.875 
z
" id="DejaVuSans-40"/>
      <path d="M 44.28125 53.078125 
L 44.28125 44.578125 
Q 40.484375 46.53125 36.375 47.5 
Q 32.28125 48.484375 27.875 48.484375 
Q 21.1875 48.484375 17.84375 46.4375 
Q 14.5 44.390625 14.5 40.28125 
Q 14.5 37.15625 16.890625 35.375 
Q 19.28125 33.59375 26.515625 31.984375 
L 29.59375 31.296875 
Q 39.15625 29.25 43.1875 25.515625 
Q 47.21875 21.78125 47.21875 15.09375 
Q 47.21875 7.46875 41.1875 3.015625 
Q 35.15625 -1.421875 24.609375 -1.421875 
Q 20.21875 -1.421875 15.453125 -0.5625 
Q 10.6875 0.296875 5.421875 2 
L 5.421875 11.28125 
Q 10.40625 8.6875 15.234375 7.390625 
Q 20.0625 6.109375 24.8125 6.109375 
Q 31.15625 6.109375 34.5625 8.28125 
Q 37.984375 10.453125 37.984375 14.40625 
Q 37.984375 18.0625 35.515625 20.015625 
Q 33.0625 21.96875 24.703125 23.78125 
L 21.578125 24.515625 
Q 13.234375 26.265625 9.515625 29.90625 
Q 5.8125 33.546875 5.8125 39.890625 
Q 5.8125 47.609375 11.28125 51.796875 
Q 16.75 56 26.8125 56 
Q 31.78125 56 36.171875 55.265625 
Q 40.578125 54.546875 44.28125 53.078125 
z
" id="DejaVuSans-115"/>
      <path d="M 8.015625 75.875 
L 15.828125 75.875 
Q 23.140625 64.359375 26.78125 53.3125 
Q 30.421875 42.28125 30.421875 31.390625 
Q 30.421875 20.453125 26.78125 9.375 
Q 23.140625 -1.703125 15.828125 -13.1875 
L 8.015625 -13.1875 
Q 14.5 -2 17.703125 9.0625 
Q 20.90625 20.125 20.90625 31.390625 
Q 20.90625 42.671875 17.703125 53.65625 
Q 14.5 64.65625 8.015625 75.875 
z
" id="DejaVuSans-41"/>
     </defs>
     <g transform="translate(200.495312 269.276563)scale(0.1 -0.1)">
      <use xlink:href="#DejaVuSans-84"/>
      <use x="61.037109" xlink:href="#DejaVuSans-105"/>
      <use x="88.820312" xlink:href="#DejaVuSans-109"/>
      <use x="186.232422" xlink:href="#DejaVuSans-101"/>
      <use x="247.755859" xlink:href="#DejaVuSans-32"/>
      <use x="279.542969" xlink:href="#DejaVuSans-40"/>
      <use x="318.556641" xlink:href="#DejaVuSans-109"/>
      <use x="415.96875" xlink:href="#DejaVuSans-115"/>
      <use x="468.068359" xlink:href="#DejaVuSans-41"/>
      <use x="507.082031" xlink:href="#DejaVuSans-32"/>
     </g>
     <!--  log (base 10) -->
     <defs>
      <path d="M 9.421875 75.984375 
L 18.40625 75.984375 
L 18.40625 0 
L 9.421875 0 
z
" id="DejaVuSans-108"/>
      <path d="M 30.609375 48.390625 
Q 23.390625 48.390625 19.1875 42.75 
Q 14.984375 37.109375 14.984375 27.296875 
Q 14.984375 17.484375 19.15625 11.84375 
Q 23.34375 6.203125 30.609375 6.203125 
Q 37.796875 6.203125 41.984375 11.859375 
Q 46.1875 17.53125 46.1875 27.296875 
Q 46.1875 37.015625 41.984375 42.703125 
Q 37.796875 48.390625 30.609375 48.390625 
z
M 30.609375 56 
Q 42.328125 56 49.015625 48.375 
Q 55.71875 40.765625 55.71875 27.296875 
Q 55.71875 13.875 49.015625 6.21875 
Q 42.328125 -1.421875 30.609375 -1.421875 
Q 18.84375 -1.421875 12.171875 6.21875 
Q 5.515625 13.875 5.515625 27.296875 
Q 5.515625 40.765625 12.171875 48.375 
Q 18.84375 56 30.609375 56 
z
" id="DejaVuSans-111"/>
      <path d="M 45.40625 27.984375 
Q 45.40625 37.75 41.375 43.109375 
Q 37.359375 48.484375 30.078125 48.484375 
Q 22.859375 48.484375 18.828125 43.109375 
Q 14.796875 37.75 14.796875 27.984375 
Q 14.796875 18.265625 18.828125 12.890625 
Q 22.859375 7.515625 30.078125 7.515625 
Q 37.359375 7.515625 41.375 12.890625 
Q 45.40625 18.265625 45.40625 27.984375 
z
M 54.390625 6.78125 
Q 54.390625 -7.171875 48.1875 -13.984375 
Q 42 -20.796875 29.203125 -20.796875 
Q 24.46875 -20.796875 20.265625 -20.09375 
Q 16.0625 -19.390625 12.109375 -17.921875 
L 12.109375 -9.1875 
Q 16.0625 -11.328125 19.921875 -12.34375 
Q 23.78125 -13.375 27.78125 -13.375 
Q 36.625 -13.375 41.015625 -8.765625 
Q 45.40625 -4.15625 45.40625 5.171875 
L 45.40625 9.625 
Q 42.625 4.78125 38.28125 2.390625 
Q 33.9375 0 27.875 0 
Q 17.828125 0 11.671875 7.65625 
Q 5.515625 15.328125 5.515625 27.984375 
Q 5.515625 40.671875 11.671875 48.328125 
Q 17.828125 56 27.875 56 
Q 33.9375 56 38.28125 53.609375 
Q 42.625 51.21875 45.40625 46.390625 
L 45.40625 54.6875 
L 54.390625 54.6875 
z
" id="DejaVuSans-103"/>
      <path d="M 48.6875 27.296875 
Q 48.6875 37.203125 44.609375 42.84375 
Q 40.53125 48.484375 33.40625 48.484375 
Q 26.265625 48.484375 22.1875 42.84375 
Q 18.109375 37.203125 18.109375 27.296875 
Q 18.109375 17.390625 22.1875 11.75 
Q 26.265625 6.109375 33.40625 6.109375 
Q 40.53125 6.109375 44.609375 11.75 
Q 48.6875 17.390625 48.6875 27.296875 
z
M 18.109375 46.390625 
Q 20.953125 51.265625 25.265625 53.625 
Q 29.59375 56 35.59375 56 
Q 45.5625 56 51.78125 48.09375 
Q 58.015625 40.1875 58.015625 27.296875 
Q 58.015625 14.40625 51.78125 6.484375 
Q 45.5625 -1.421875 35.59375 -1.421875 
Q 29.59375 -1.421875 25.265625 0.953125 
Q 20.953125 3.328125 18.109375 8.203125 
L 18.109375 0 
L 9.078125 0 
L 9.078125 75.984375 
L 18.109375 75.984375 
z
" id="DejaVuSans-98"/>
      <path d="M 34.28125 27.484375 
Q 23.390625 27.484375 19.1875 25 
Q 14.984375 22.515625 14.984375 16.5 
Q 14.984375 11.71875 18.140625 8.90625 
Q 21.296875 6.109375 26.703125 6.109375 
Q 34.1875 6.109375 38.703125 11.40625 
Q 43.21875 16.703125 43.21875 25.484375 
L 43.21875 27.484375 
z
M 52.203125 31.203125 
L 52.203125 0 
L 43.21875 0 
L 43.21875 8.296875 
Q 40.140625 3.328125 35.546875 0.953125 
Q 30.953125 -1.421875 24.3125 -1.421875 
Q 15.921875 -1.421875 10.953125 3.296875 
Q 6 8.015625 6 15.921875 
Q 6 25.140625 12.171875 29.828125 
Q 18.359375 34.515625 30.609375 34.515625 
L 43.21875 34.515625 
L 43.21875 35.40625 
Q 43.21875 41.609375 39.140625 45 
Q 35.0625 48.390625 27.6875 48.390625 
Q 23 48.390625 18.546875 47.265625 
Q 14.109375 46.140625 10.015625 43.890625 
L 10.015625 52.203125 
Q 14.9375 54.109375 19.578125 55.046875 
Q 24.21875 56 28.609375 56 
Q 40.484375 56 46.34375 49.84375 
Q 52.203125 43.703125 52.203125 31.203125 
z
" id="DejaVuSans-97"/>
     </defs>
     <g transform="translate(192.864062 280.474375)scale(0.1 -0.1)">
      <use xlink:href="#DejaVuSans-32"/>
      <use x="31.787109" xlink:href="#DejaVuSans-108"/>
      <use x="59.570312" xlink:href="#DejaVuSans-111"/>
      <use x="120.751953" xlink:href="#DejaVuSans-103"/>
      <use x="184.228516" xlink:href="#DejaVuSans-32"/>
      <use x="216.015625" xlink:href="#DejaVuSans-40"/>
      <use x="255.029297" xlink:href="#DejaVuSans-98"/>
      <use x="318.505859" xlink:href="#DejaVuSans-97"/>
      <use x="379.785156" xlink:href="#DejaVuSans-115"/>
      <use x="431.884766" xlink:href="#DejaVuSans-101"/>
      <use x="493.408203" xlink:href="#DejaVuSans-32"/>
      <use x="525.195312" xlink:href="#DejaVuSans-49"/>
      <use x="588.818359" xlink:href="#DejaVuSans-48"/>
      <use x="652.441406" xlink:href="#DejaVuSans-41"/>
     </g>
    </g>
   </g>
   <g id="matplotlib.axis_2">
    <g id="ytick_1">
     <g id="line2d_43">
      <path clip-path="url(#pc830c9e188)" d="M 52.875 231.411419 
L 402 231.411419 
" style="fill:none;stroke:#b0b0b0;stroke-dasharray:3.7,1.6;stroke-dashoffset:0;"/>
     </g>
     <g id="line2d_44">
      <defs>
       <path d="M 0 0 
L -3.5 0 
" id="m037cf35363" style="stroke:#000000;stroke-width:0.8;"/>
      </defs>
      <g>
       <use style="stroke:#000000;stroke-width:0.8;" x="52.875" xlink:href="#m037cf35363" y="231.411419"/>
      </g>
     </g>
     <g id="text_6">
      <!-- 0.0 -->
      <defs>
       <path d="M 10.6875 12.40625 
L 21 12.40625 
L 21 0 
L 10.6875 0 
z
" id="DejaVuSans-46"/>
      </defs>
      <g transform="translate(29.971875 235.210637)scale(0.1 -0.1)">
       <use xlink:href="#DejaVuSans-48"/>
       <use x="63.623047" xlink:href="#DejaVuSans-46"/>
       <use x="95.410156" xlink:href="#DejaVuSans-48"/>
      </g>
     </g>
    </g>
    <g id="ytick_2">
     <g id="line2d_45">
      <path clip-path="url(#pc830c9e188)" d="M 52.875 193.047317 
L 402 193.047317 
" style="fill:none;stroke:#b0b0b0;stroke-dasharray:3.7,1.6;stroke-dashoffset:0;"/>
     </g>
     <g id="line2d_46">
      <g>
       <use style="stroke:#000000;stroke-width:0.8;" x="52.875" xlink:href="#m037cf35363" y="193.047317"/>
      </g>
     </g>
     <g id="text_7">
      <!-- 0.2 -->
      <g transform="translate(29.971875 196.846535)scale(0.1 -0.1)">
       <use xlink:href="#DejaVuSans-48"/>
       <use x="63.623047" xlink:href="#DejaVuSans-46"/>
       <use x="95.410156" xlink:href="#DejaVuSans-50"/>
      </g>
     </g>
    </g>
    <g id="ytick_3">
     <g id="line2d_47">
      <path clip-path="url(#pc830c9e188)" d="M 52.875 154.683215 
L 402 154.683215 
" style="fill:none;stroke:#b0b0b0;stroke-dasharray:3.7,1.6;stroke-dashoffset:0;"/>
     </g>
     <g id="line2d_48">
      <g>
       <use style="stroke:#000000;stroke-width:0.8;" x="52.875" xlink:href="#m037cf35363" y="154.683215"/>
      </g>
     </g>
     <g id="text_8">
      <!-- 0.4 -->
      <defs>
       <path d="M 37.796875 64.3125 
L 12.890625 25.390625 
L 37.796875 25.390625 
z
M 35.203125 72.90625 
L 47.609375 72.90625 
L 47.609375 25.390625 
L 58.015625 25.390625 
L 58.015625 17.1875 
L 47.609375 17.1875 
L 47.609375 0 
L 37.796875 0 
L 37.796875 17.1875 
L 4.890625 17.1875 
L 4.890625 26.703125 
z
" id="DejaVuSans-52"/>
      </defs>
      <g transform="translate(29.971875 158.482434)scale(0.1 -0.1)">
       <use xlink:href="#DejaVuSans-48"/>
       <use x="63.623047" xlink:href="#DejaVuSans-46"/>
       <use x="95.410156" xlink:href="#DejaVuSans-52"/>
      </g>
     </g>
    </g>
    <g id="ytick_4">
     <g id="line2d_49">
      <path clip-path="url(#pc830c9e188)" d="M 52.875 116.319113 
L 402 116.319113 
" style="fill:none;stroke:#b0b0b0;stroke-dasharray:3.7,1.6;stroke-dashoffset:0;"/>
     </g>
     <g id="line2d_50">
      <g>
       <use style="stroke:#000000;stroke-width:0.8;" x="52.875" xlink:href="#m037cf35363" y="116.319113"/>
      </g>
     </g>
     <g id="text_9">
      <!-- 0.6 -->
      <defs>
       <path d="M 33.015625 40.375 
Q 26.375 40.375 22.484375 35.828125 
Q 18.609375 31.296875 18.609375 23.390625 
Q 18.609375 15.53125 22.484375 10.953125 
Q 26.375 6.390625 33.015625 6.390625 
Q 39.65625 6.390625 43.53125 10.953125 
Q 47.40625 15.53125 47.40625 23.390625 
Q 47.40625 31.296875 43.53125 35.828125 
Q 39.65625 40.375 33.015625 40.375 
z
M 52.59375 71.296875 
L 52.59375 62.3125 
Q 48.875 64.0625 45.09375 64.984375 
Q 41.3125 65.921875 37.59375 65.921875 
Q 27.828125 65.921875 22.671875 59.328125 
Q 17.53125 52.734375 16.796875 39.40625 
Q 19.671875 43.65625 24.015625 45.921875 
Q 28.375 48.1875 33.59375 48.1875 
Q 44.578125 48.1875 50.953125 41.515625 
Q 57.328125 34.859375 57.328125 23.390625 
Q 57.328125 12.15625 50.6875 5.359375 
Q 44.046875 -1.421875 33.015625 -1.421875 
Q 20.359375 -1.421875 13.671875 8.265625 
Q 6.984375 17.96875 6.984375 36.375 
Q 6.984375 53.65625 15.1875 63.9375 
Q 23.390625 74.21875 37.203125 74.21875 
Q 40.921875 74.21875 44.703125 73.484375 
Q 48.484375 72.75 52.59375 71.296875 
z
" id="DejaVuSans-54"/>
      </defs>
      <g transform="translate(29.971875 120.118332)scale(0.1 -0.1)">
       <use xlink:href="#DejaVuSans-48"/>
       <use x="63.623047" xlink:href="#DejaVuSans-46"/>
       <use x="95.410156" xlink:href="#DejaVuSans-54"/>
      </g>
     </g>
    </g>
    <g id="ytick_5">
     <g id="line2d_51">
      <path clip-path="url(#pc830c9e188)" d="M 52.875 77.955011 
L 402 77.955011 
" style="fill:none;stroke:#b0b0b0;stroke-dasharray:3.7,1.6;stroke-dashoffset:0;"/>
     </g>
     <g id="line2d_52">
      <g>
       <use style="stroke:#000000;stroke-width:0.8;" x="52.875" xlink:href="#m037cf35363" y="77.955011"/>
      </g>
     </g>
     <g id="text_10">
      <!-- 0.8 -->
      <defs>
       <path d="M 31.78125 34.625 
Q 24.75 34.625 20.71875 30.859375 
Q 16.703125 27.09375 16.703125 20.515625 
Q 16.703125 13.921875 20.71875 10.15625 
Q 24.75 6.390625 31.78125 6.390625 
Q 38.8125 6.390625 42.859375 10.171875 
Q 46.921875 13.96875 46.921875 20.515625 
Q 46.921875 27.09375 42.890625 30.859375 
Q 38.875 34.625 31.78125 34.625 
z
M 21.921875 38.8125 
Q 15.578125 40.375 12.03125 44.71875 
Q 8.5 49.078125 8.5 55.328125 
Q 8.5 64.0625 14.71875 69.140625 
Q 20.953125 74.21875 31.78125 74.21875 
Q 42.671875 74.21875 48.875 69.140625 
Q 55.078125 64.0625 55.078125 55.328125 
Q 55.078125 49.078125 51.53125 44.71875 
Q 48 40.375 41.703125 38.8125 
Q 48.828125 37.15625 52.796875 32.3125 
Q 56.78125 27.484375 56.78125 20.515625 
Q 56.78125 9.90625 50.3125 4.234375 
Q 43.84375 -1.421875 31.78125 -1.421875 
Q 19.734375 -1.421875 13.25 4.234375 
Q 6.78125 9.90625 6.78125 20.515625 
Q 6.78125 27.484375 10.78125 32.3125 
Q 14.796875 37.15625 21.921875 38.8125 
z
M 18.3125 54.390625 
Q 18.3125 48.734375 21.84375 45.5625 
Q 25.390625 42.390625 31.78125 42.390625 
Q 38.140625 42.390625 41.71875 45.5625 
Q 45.3125 48.734375 45.3125 54.390625 
Q 45.3125 60.0625 41.71875 63.234375 
Q 38.140625 66.40625 31.78125 66.40625 
Q 25.390625 66.40625 21.84375 63.234375 
Q 18.3125 60.0625 18.3125 54.390625 
z
" id="DejaVuSans-56"/>
      </defs>
      <g transform="translate(29.971875 81.75423)scale(0.1 -0.1)">
       <use xlink:href="#DejaVuSans-48"/>
       <use x="63.623047" xlink:href="#DejaVuSans-46"/>
       <use x="95.410156" xlink:href="#DejaVuSans-56"/>
      </g>
     </g>
    </g>
    <g id="ytick_6">
     <g id="line2d_53">
      <path clip-path="url(#pc830c9e188)" d="M 52.875 39.590909 
L 402 39.590909 
" style="fill:none;stroke:#b0b0b0;stroke-dasharray:3.7,1.6;stroke-dashoffset:0;"/>
     </g>
     <g id="line2d_54">
      <g>
       <use style="stroke:#000000;stroke-width:0.8;" x="52.875" xlink:href="#m037cf35363" y="39.590909"/>
      </g>
     </g>
     <g id="text_11">
      <!-- 1.0 -->
      <g transform="translate(29.971875 43.390128)scale(0.1 -0.1)">
       <use xlink:href="#DejaVuSans-49"/>
       <use x="63.623047" xlink:href="#DejaVuSans-46"/>
       <use x="95.410156" xlink:href="#DejaVuSans-48"/>
      </g>
     </g>
    </g>
    <g id="text_12">
     <!-- Fraction of Requests -->
     <defs>
      <path d="M 9.8125 72.90625 
L 51.703125 72.90625 
L 51.703125 64.59375 
L 19.671875 64.59375 
L 19.671875 43.109375 
L 48.578125 43.109375 
L 48.578125 34.8125 
L 19.671875 34.8125 
L 19.671875 0 
L 9.8125 0 
z
" id="DejaVuSans-70"/>
      <path d="M 41.109375 46.296875 
Q 39.59375 47.171875 37.8125 47.578125 
Q 36.03125 48 33.890625 48 
Q 26.265625 48 22.1875 43.046875 
Q 18.109375 38.09375 18.109375 28.8125 
L 18.109375 0 
L 9.078125 0 
L 9.078125 54.6875 
L 18.109375 54.6875 
L 18.109375 46.1875 
Q 20.953125 51.171875 25.484375 53.578125 
Q 30.03125 56 36.53125 56 
Q 37.453125 56 38.578125 55.875 
Q 39.703125 55.765625 41.0625 55.515625 
z
" id="DejaVuSans-114"/>
      <path d="M 48.78125 52.59375 
L 48.78125 44.1875 
Q 44.96875 46.296875 41.140625 47.34375 
Q 37.3125 48.390625 33.40625 48.390625 
Q 24.65625 48.390625 19.8125 42.84375 
Q 14.984375 37.3125 14.984375 27.296875 
Q 14.984375 17.28125 19.8125 11.734375 
Q 24.65625 6.203125 33.40625 6.203125 
Q 37.3125 6.203125 41.140625 7.25 
Q 44.96875 8.296875 48.78125 10.40625 
L 48.78125 2.09375 
Q 45.015625 0.34375 40.984375 -0.53125 
Q 36.96875 -1.421875 32.421875 -1.421875 
Q 20.0625 -1.421875 12.78125 6.34375 
Q 5.515625 14.109375 5.515625 27.296875 
Q 5.515625 40.671875 12.859375 48.328125 
Q 20.21875 56 33.015625 56 
Q 37.15625 56 41.109375 55.140625 
Q 45.0625 54.296875 48.78125 52.59375 
z
" id="DejaVuSans-99"/>
      <path d="M 18.3125 70.21875 
L 18.3125 54.6875 
L 36.8125 54.6875 
L 36.8125 47.703125 
L 18.3125 47.703125 
L 18.3125 18.015625 
Q 18.3125 11.328125 20.140625 9.421875 
Q 21.96875 7.515625 27.59375 7.515625 
L 36.8125 7.515625 
L 36.8125 0 
L 27.59375 0 
Q 17.1875 0 13.234375 3.875 
Q 9.28125 7.765625 9.28125 18.015625 
L 9.28125 47.703125 
L 2.6875 47.703125 
L 2.6875 54.6875 
L 9.28125 54.6875 
L 9.28125 70.21875 
z
" id="DejaVuSans-116"/>
      <path d="M 54.890625 33.015625 
L 54.890625 0 
L 45.90625 0 
L 45.90625 32.71875 
Q 45.90625 40.484375 42.875 44.328125 
Q 39.84375 48.1875 33.796875 48.1875 
Q 26.515625 48.1875 22.3125 43.546875 
Q 18.109375 38.921875 18.109375 30.90625 
L 18.109375 0 
L 9.078125 0 
L 9.078125 54.6875 
L 18.109375 54.6875 
L 18.109375 46.1875 
Q 21.34375 51.125 25.703125 53.5625 
Q 30.078125 56 35.796875 56 
Q 45.21875 56 50.046875 50.171875 
Q 54.890625 44.34375 54.890625 33.015625 
z
" id="DejaVuSans-110"/>
      <path d="M 37.109375 75.984375 
L 37.109375 68.5 
L 28.515625 68.5 
Q 23.6875 68.5 21.796875 66.546875 
Q 19.921875 64.59375 19.921875 59.515625 
L 19.921875 54.6875 
L 34.71875 54.6875 
L 34.71875 47.703125 
L 19.921875 47.703125 
L 19.921875 0 
L 10.890625 0 
L 10.890625 47.703125 
L 2.296875 47.703125 
L 2.296875 54.6875 
L 10.890625 54.6875 
L 10.890625 58.5 
Q 10.890625 67.625 15.140625 71.796875 
Q 19.390625 75.984375 28.609375 75.984375 
z
" id="DejaVuSans-102"/>
      <path d="M 44.390625 34.1875 
Q 47.5625 33.109375 50.5625 29.59375 
Q 53.5625 26.078125 56.59375 19.921875 
L 66.609375 0 
L 56 0 
L 46.6875 18.703125 
Q 43.0625 26.03125 39.671875 28.421875 
Q 36.28125 30.8125 30.421875 30.8125 
L 19.671875 30.8125 
L 19.671875 0 
L 9.8125 0 
L 9.8125 72.90625 
L 32.078125 72.90625 
Q 44.578125 72.90625 50.734375 67.671875 
Q 56.890625 62.453125 56.890625 51.90625 
Q 56.890625 45.015625 53.6875 40.46875 
Q 50.484375 35.9375 44.390625 34.1875 
z
M 19.671875 64.796875 
L 19.671875 38.921875 
L 32.078125 38.921875 
Q 39.203125 38.921875 42.84375 42.21875 
Q 46.484375 45.515625 46.484375 51.90625 
Q 46.484375 58.296875 42.84375 61.546875 
Q 39.203125 64.796875 32.078125 64.796875 
z
" id="DejaVuSans-82"/>
      <path d="M 14.796875 27.296875 
Q 14.796875 17.390625 18.875 11.75 
Q 22.953125 6.109375 30.078125 6.109375 
Q 37.203125 6.109375 41.296875 11.75 
Q 45.40625 17.390625 45.40625 27.296875 
Q 45.40625 37.203125 41.296875 42.84375 
Q 37.203125 48.484375 30.078125 48.484375 
Q 22.953125 48.484375 18.875 42.84375 
Q 14.796875 37.203125 14.796875 27.296875 
z
M 45.40625 8.203125 
Q 42.578125 3.328125 38.25 0.953125 
Q 33.9375 -1.421875 27.875 -1.421875 
Q 17.96875 -1.421875 11.734375 6.484375 
Q 5.515625 14.40625 5.515625 27.296875 
Q 5.515625 40.1875 11.734375 48.09375 
Q 17.96875 56 27.875 56 
Q 33.9375 56 38.25 53.625 
Q 42.578125 51.265625 45.40625 46.390625 
L 45.40625 54.6875 
L 54.390625 54.6875 
L 54.390625 -20.796875 
L 45.40625 -20.796875 
z
" id="DejaVuSans-113"/>
      <path d="M 8.5 21.578125 
L 8.5 54.6875 
L 17.484375 54.6875 
L 17.484375 21.921875 
Q 17.484375 14.15625 20.5 10.265625 
Q 23.53125 6.390625 29.59375 6.390625 
Q 36.859375 6.390625 41.078125 11.03125 
Q 45.3125 15.671875 45.3125 23.6875 
L 45.3125 54.6875 
L 54.296875 54.6875 
L 54.296875 0 
L 45.3125 0 
L 45.3125 8.40625 
Q 42.046875 3.421875 37.71875 1 
Q 33.40625 -1.421875 27.6875 -1.421875 
Q 18.265625 -1.421875 13.375 4.4375 
Q 8.5 10.296875 8.5 21.578125 
z
M 31.109375 56 
z
" id="DejaVuSans-117"/>
     </defs>
     <g transform="translate(23.892187 186.950781)rotate(-90)scale(0.1 -0.1)">
      <use xlink:href="#DejaVuSans-70"/>
      <use x="57.410156" xlink:href="#DejaVuSans-114"/>
      <use x="98.523438" xlink:href="#DejaVuSans-97"/>
      <use x="159.802734" xlink:href="#DejaVuSans-99"/>
      <use x="214.783203" xlink:href="#DejaVuSans-116"/>
      <use x="253.992188" xlink:href="#DejaVuSans-105"/>
      <use x="281.775391" xlink:href="#DejaVuSans-111"/>
      <use x="342.957031" xlink:href="#DejaVuSans-110"/>
      <use x="406.335938" xlink:href="#DejaVuSans-32"/>
      <use x="438.123047" xlink:href="#DejaVuSans-111"/>
      <use x="499.304688" xlink:href="#DejaVuSans-102"/>
      <use x="534.509766" xlink:href="#DejaVuSans-32"/>
      <use x="566.296875" xlink:href="#DejaVuSans-82"/>
      <use x="635.716797" xlink:href="#DejaVuSans-101"/>
      <use x="697.240234" xlink:href="#DejaVuSans-113"/>
      <use x="760.716797" xlink:href="#DejaVuSans-117"/>
      <use x="824.095703" xlink:href="#DejaVuSans-101"/>
      <use x="885.619141" xlink:href="#DejaVuSans-115"/>
      <use x="937.71875" xlink:href="#DejaVuSans-116"/>
      <use x="976.927734" xlink:href="#DejaVuSans-115"/>
     </g>
    </g>
   </g>
   <g id="line2d_55">
    <path clip-path="url(#pc830c9e188)" d="M 70.118458 231.409091 
L 76.170582 231.274085 
L 78.793649 230.657246 
L 79.282191 230.475686 
L 79.807465 230.345335 
L 80.077948 230.247572 
L 80.771551 230.070668 
L 81.024208 229.951955 
L 84.104501 228.464559 
L 85.219739 227.517189 
L 86.677191 225.90177 
L 86.979215 225.513045 
L 87.085191 225.375711 
L 87.427409 224.856636 
L 87.809517 224.302645 
L 87.98183 224.020994 
L 88.230183 223.604337 
L 88.459831 223.21794 
L 88.814085 222.55222 
L 89.181395 221.860895 
L 91.385682 216.649191 
L 93.34867 210.441234 
L 94.171706 206.889175 
L 94.679083 203.879468 
L 95.374468 199.664016 
L 97.011549 191.461227 
L 97.354932 189.424496 
L 97.941383 185.877092 
L 98.108985 184.962308 
L 98.884856 181.114632 
L 100.211565 174.739082 
L 100.464953 173.521698 
L 100.788059 172.001715 
L 102.90817 161.017332 
L 103.148357 159.697531 
L 103.513832 157.672438 
L 106.520503 141.771968 
L 108.700136 132.251705 
L 108.894276 131.492877 
L 109.590858 128.613521 
L 110.091779 126.763005 
L 110.305575 126.022799 
L 110.36448 125.813306 
L 114.230505 112.312688 
L 114.541186 111.328074 
L 114.976309 109.82904 
L 115.154377 109.291343 
L 115.714285 107.445482 
L 116.062126 106.323534 
L 116.785273 104.114554 
L 118.726741 98.462916 
L 118.812153 98.2767 
L 119.021239 97.769263 
L 121.397652 91.81968 
L 121.683647 91.228447 
L 122.019238 90.441686 
L 124.7381 84.845913 
L 124.833958 84.689957 
L 125.223654 83.838022 
L 125.926512 82.525203 
L 126.415946 81.636024 
L 127.243726 80.199838 
L 127.424734 79.906549 
L 129.163872 77.204097 
L 129.269416 77.038831 
L 130.800319 74.110594 
L 131.064089 73.54962 
L 131.144081 73.391336 
L 132.043759 71.480301 
L 132.274169 71.038039 
L 133.183255 69.522711 
L 133.310208 69.336496 
L 133.843512 68.519475 
L 133.972697 68.335588 
L 134.213639 67.956174 
L 134.649963 67.355629 
L 135.058588 66.752757 
L 135.181139 66.606112 
L 135.369693 66.377998 
L 135.616597 66.124279 
L 135.822481 65.837973 
L 136.070552 65.55865 
L 136.185286 65.414333 
L 136.763998 64.634556 
L 136.918832 64.450668 
L 137.622768 63.517264 
L 137.784173 63.286822 
L 140.26429 60.323669 
L 140.457971 60.037363 
L 142.117943 58.182192 
L 142.325211 57.968044 
L 142.475346 57.777173 
L 143.251815 56.955497 
L 143.756551 56.489959 
L 145.654511 54.942043 
L 145.931903 54.748845 
L 146.289734 54.427623 
L 146.484989 54.278651 
L 146.675958 54.115712 
L 146.842004 53.955101 
L 147.135437 53.713021 
L 147.338597 53.564049 
L 155.665079 47.521359 
L 155.914098 47.377042 
L 156.371728 47.155911 
L 156.542257 47.067458 
L 156.995353 46.78348 
L 160.624156 45.12849 
L 161.171559 44.94693 
L 161.422148 44.830546 
L 162.024369 44.623381 
L 162.134532 44.588466 
L 163.154622 44.299832 
L 163.269243 44.264916 
L 164.024243 44.027492 
L 164.161278 43.97861 
L 168.758784 42.710017 
L 169.613852 42.55639 
L 176.363529 41.480996 
L 178.991593 41.236588 
L 194.526768 40.328788 
L 205.680506 40.093691 
L 233.068565 39.916786 
L 256.531633 39.784108 
L 256.939821 39.718932 
L 257.600671 39.711949 
L 322.964961 39.590909 
L 322.964961 39.590909 
" style="fill:none;stroke:#00aff0;stroke-dasharray:7.4,3.2;stroke-dashoffset:0;stroke-width:2;"/>
   </g>
   <g id="line2d_56">
    <path clip-path="url(#pc830c9e188)" d="M 68.744318 231.40909 
L 69.511154 231.392787 
L 71.578312 231.26004 
L 72.541005 231.206475 
L 83.552753 230.137506 
L 83.9987 230.04435 
L 85.645023 229.734605 
L 86.092418 229.618159 
L 87.049901 229.387598 
L 88.973171 228.744819 
L 89.585948 228.55152 
L 93.326553 226.842101 
L 93.758971 226.583592 
L 94.820686 225.775461 
L 95.039041 225.624082 
L 95.727364 225.034868 
L 96.028984 224.736768 
L 96.334787 224.394419 
L 96.590952 224.119608 
L 96.718333 223.958913 
L 96.998274 223.630537 
L 97.610271 222.959811 
L 97.759985 222.794459 
L 100.41081 218.798053 
L 100.877283 217.873476 
L 101.314146 216.99082 
L 101.472191 216.636826 
L 101.872864 215.721565 
L 101.959362 215.514292 
L 102.365902 214.568756 
L 102.428466 214.426692 
L 102.745246 213.672126 
L 103.003325 213.034005 
L 104.838015 208.150285 
L 105.458301 206.138109 
L 105.598695 205.77247 
L 106.108698 204.170181 
L 106.205731 203.858108 
L 106.666767 202.425829 
L 106.84248 201.866891 
L 107.315005 200.220353 
L 107.61508 199.1607 
L 107.688475 198.869587 
L 108.370955 196.426562 
L 108.566929 195.671996 
L 108.875383 194.42603 
L 110.100904 188.484986 
L 111.050377 184.21144 
L 111.438862 182.369273 
L 112.164423 178.792071 
L 112.786626 176.032315 
L 112.92153 175.473377 
L 114.980276 166.856417 
L 115.130687 166.220625 
L 116.641837 160.449591 
L 116.789039 159.948876 
L 117.290136 158.025198 
L 118.249593 154.652939 
L 118.71605 152.822417 
L 118.847679 152.321702 
L 120.727809 144.47794 
L 121.394351 141.024169 
L 121.908817 138.364556 
L 123.579207 130.560385 
L 124.494278 126.694398 
L 125.693794 121.666286 
L 125.984449 120.685815 
L 126.646756 118.033189 
L 126.751682 117.653577 
L 130.582786 101.430404 
L 130.777618 100.587339 
L 131.041558 99.537002 
L 131.263727 98.710239 
L 132.775782 92.620145 
L 133.307861 90.566048 
L 133.361798 90.358775 
L 133.753261 88.851972 
L 133.954272 88.13001 
L 134.464283 86.229621 
L 134.66351 85.50766 
L 135.020622 84.289641 
L 135.221153 83.639875 
L 135.294394 83.404656 
L 135.469106 82.801469 
L 135.863949 81.616054 
L 135.940208 81.373848 
L 136.323332 80.21871 
L 136.61488 79.324409 
L 138.147692 74.687553 
L 138.251736 74.403426 
L 138.529703 73.637216 
L 138.586242 73.476521 
L 138.703069 73.173763 
L 139.144672 72.037256 
L 139.25569 71.739155 
L 139.551333 71.101035 
L 139.672804 70.793619 
L 139.873674 70.267286 
L 143.301208 62.34434 
L 143.526119 61.869243 
L 143.688627 61.503605 
L 143.780902 61.356883 
L 144.009665 60.893431 
L 144.389346 60.197087 
L 144.609076 59.766239 
L 145.01759 58.969753 
L 145.666045 57.884482 
L 146.101516 57.118271 
L 146.197374 56.990181 
L 146.433457 56.647831 
L 146.637527 56.366034 
L 146.892936 55.963133 
L 147.032619 55.723255 
L 148.504503 53.755328 
L 148.657561 53.578331 
L 149.294365 52.798147 
L 149.412946 52.632794 
L 149.843843 52.160026 
L 150.03479 51.994673 
L 150.2666 51.74548 
L 150.647181 51.34025 
L 150.883488 51.091057 
L 151.019421 50.911731 
L 151.251826 50.660209 
L 151.591303 50.308544 
L 151.910985 50.003457 
L 159.310632 43.892402 
L 159.59479 43.713076 
L 159.856911 43.594302 
L 160.19975 43.391687 
L 160.408818 43.275242 
L 160.735609 43.098245 
L 161.470375 42.690686 
L 161.773926 42.564925 
L 162.470079 42.278469 
L 162.68829 42.194628 
L 163.595097 41.898857 
L 164.302608 41.7009 
L 164.43952 41.642677 
L 166.618913 41.125659 
L 166.746153 41.093055 
L 167.262065 41.020859 
L 167.903172 40.918387 
L 169.162048 40.729745 
L 169.429994 40.67618 
L 170.980724 40.508499 
L 171.089069 40.489868 
L 173.016296 40.322186 
L 173.478401 40.294239 
L 180.147652 40.021757 
L 231.082397 39.665434 
L 293.010912 39.590909 
L 293.010912 39.590909 
" style="fill:none;stroke:#800000;stroke-dasharray:7.4,3.2;stroke-dashoffset:0;stroke-width:2;"/>
   </g>
   <g id="line2d_57">
    <path clip-path="url(#pc830c9e188)" d="M 69.598561 231.406761 
L 70.474997 231.376488 
L 73.555898 231.138956 
L 75.328823 230.710468 
L 77.367249 229.830205 
L 77.634119 229.683495 
L 77.921899 229.513497 
L 78.737698 228.987202 
L 78.994334 228.821862 
L 79.370288 228.544742 
L 79.655075 228.311868 
L 79.840034 228.1605 
L 80.174811 227.897352 
L 81.076615 226.982158 
L 82.422393 223.407545 
L 82.733411 222.615774 
L 84.439023 219.208829 
L 85.946959 214.434916 
L 86.471389 212.846716 
L 86.62362 212.406585 
L 88.315414 206.284331 
L 90.946343 195.772406 
L 93.853534 181.525185 
L 94.329711 178.837821 
L 95.478632 172.096123 
L 96.103984 168.377128 
L 99.241528 149.74955 
L 99.846363 146.526576 
L 101.437132 138.075584 
L 101.594623 137.309429 
L 101.872864 135.893556 
L 102.200422 134.119058 
L 102.547595 132.293327 
L 102.885743 130.632936 
L 103.187301 129.047065 
L 103.436626 127.689411 
L 103.804575 125.635464 
L 106.444608 111.621116 
L 106.877516 109.616072 
L 107.349571 107.42473 
L 107.487494 106.840216 
L 107.776347 105.489548 
L 110.445876 95.722819 
L 110.549608 95.359536 
L 111.456418 92.492859 
L 111.59655 92.073686 
L 111.870802 91.205067 
L 112.875216 88.205652 
L 113.072677 87.583878 
L 113.455996 86.461427 
L 113.777719 85.518288 
L 114.396277 83.846253 
L 114.693497 82.989278 
L 114.960436 82.299971 
L 115.47654 80.886427 
L 116.433182 78.33413 
L 116.645619 77.721671 
L 120.744628 67.920012 
L 121.015983 67.356457 
L 121.545873 66.203731 
L 121.850217 65.581958 
L 123.523347 62.25652 
L 123.709202 61.9794 
L 124.536542 60.377228 
L 124.684064 60.128053 
L 124.851902 59.825317 
L 125.015961 59.557512 
L 127.69312 55.570712 
L 127.921144 55.235374 
L 128.191191 54.844146 
L 128.297003 54.678805 
L 128.853313 53.942924 
L 129.248332 53.45156 
L 129.411396 53.232659 
L 129.872768 52.63883 
L 129.991681 52.501435 
L 130.898524 51.460489 
L 131.069094 51.260217 
L 131.253772 51.069261 
L 131.546254 50.810771 
L 132.78293 49.492705 
L 133.027461 49.252845 
L 133.253841 49.064217 
L 133.504444 48.810384 
L 133.762528 48.558881 
L 134.816684 47.653001 
L 135.422749 47.215199 
L 135.909724 46.858902 
L 136.079225 46.719177 
L 136.260848 46.591097 
L 136.727842 46.248772 
L 137.375077 45.769052 
L 137.684935 45.582753 
L 137.948944 45.42207 
L 138.245625 45.252072 
L 138.849557 44.90509 
L 139.019353 44.790982 
L 139.283389 44.648929 
L 139.735334 44.355508 
L 139.900888 44.274002 
L 140.142932 44.127291 
L 140.465619 43.901404 
L 140.787246 43.764008 
L 141.047697 43.617298 
L 141.457075 43.419355 
L 141.657206 43.344835 
L 143.817397 42.555393 
L 144.527477 42.324848 
L 144.700647 42.273616 
L 149.495714 41.442256 
L 151.133704 41.281573 
L 154.041879 40.990481 
L 156.53019 40.818154 
L 167.3631 40.501446 
L 208.318806 40.147478 
L 208.519533 40.14282 
L 225.629475 39.935562 
L 227.027659 39.923919 
L 268.138045 39.62584 
L 309.722327 39.590909 
L 309.722327 39.590909 
" style="fill:none;stroke:#ff5500;stroke-dasharray:7.4,3.2;stroke-dashoffset:0;stroke-width:2;"/>
   </g>
   <g id="line2d_58">
    <path clip-path="url(#pc830c9e188)" d="M 191.617595 231.407346 
L 214.140808 231.146732 
L 239.446688 230.91055 
L 243.957507 230.60107 
L 244.103378 230.580709 
L 245.301289 230.499267 
L 248.222865 230.364888 
L 248.718633 230.340455 
L 256.153089 230.230509 
L 274.156228 229.973966 
L 274.282609 229.933245 
L 274.975002 229.774433 
L 277.870264 229.640054 
L 279.049464 229.59526 
L 281.652671 229.432376 
L 283.810256 229.257276 
L 295.864467 228.56909 
L 302.507594 228.357341 
L 303.104391 228.100798 
L 304.573527 227.897193 
L 307.774491 227.604002 
L 308.404417 227.54292 
L 310.4276 227.339315 
L 312.862101 227.070556 
L 314.970142 226.82623 
L 315.175867 226.781437 
L 316.356402 226.537111 
L 316.535092 226.313145 
L 316.777971 224.325958 
L 316.915306 223.658133 
L 317.030948 223.071751 
L 317.093682 222.864073 
L 317.243946 222.196248 
L 317.685972 221.15379 
L 317.761292 221.011266 
L 318.401126 220.05025 
L 318.776543 219.769275 
L 319.100446 219.162531 
L 319.486701 218.767537 
L 319.964643 218.596509 
L 320.062961 218.572076 
L 322.569939 217.749511 
L 322.751568 217.672141 
L 323.30565 217.497041 
L 326.559821 216.491231 
L 326.723997 216.381284 
L 327.49798 215.57908 
L 327.721037 215.151509 
L 328.055451 214.544766 
L 328.243189 214.1457 
L 328.339243 213.970599 
L 328.708155 213.319063 
L 328.883113 213.005511 
L 329.003784 212.777473 
L 329.083721 212.5983 
L 329.289012 212.150369 
L 329.514017 211.568058 
L 329.704843 210.993891 
L 329.821725 210.708844 
L 329.942759 210.321994 
L 330.141026 209.670458 
L 330.272929 209.11258 
L 330.417815 208.509908 
L 330.54838 207.972391 
L 330.67327 207.463378 
L 330.874006 206.412775 
L 330.928293 206.148088 
L 331.043627 205.573922 
L 331.351544 204.25456 
L 331.420629 204.018378 
L 331.783838 202.699017 
L 334.693107 196.069632 
L 334.79011 195.886387 
L 335.089351 195.11676 
L 335.233573 194.786919 
L 335.33252 194.571098 
L 335.634116 193.931778 
L 335.734773 193.715956 
L 335.855578 193.467558 
L 336.069257 193.068492 
L 336.895598 191.415218 
L 337.938008 188.821288 
L 338.060461 188.442582 
L 338.492044 186.610135 
L 338.672471 185.583965 
L 338.814375 184.814338 
L 338.929616 184.232027 
L 338.993966 183.963268 
L 339.419722 181.857991 
L 339.471172 181.670674 
L 339.966682 179.695704 
L 340.027411 179.488026 
L 340.170949 178.93422 
L 340.525434 177.879545 
L 340.740648 177.280946 
L 340.869621 176.898168 
L 341.27313 175.684682 
L 341.438289 175.281543 
L 341.679496 174.552637 
L 341.747965 174.377536 
L 341.931457 173.872596 
L 342.088376 173.567188 
L 342.869926 172.25597 
L 343.007333 172.08087 
L 343.386684 171.506703 
L 343.497874 171.319387 
L 343.654253 171.144286 
L 344.336113 170.268784 
L 344.450101 170.118116 
L 345.019293 169.226325 
L 345.165755 168.937206 
L 345.25283 168.745817 
L 345.600589 167.678926 
L 345.676253 167.475321 
L 346.085206 166.062301 
L 346.252541 165.443341 
L 346.500468 164.620776 
L 346.594669 164.303152 
L 346.724743 163.91223 
L 346.972307 163.297343 
L 347.138215 162.890132 
L 347.651238 161.436391 
L 347.790665 161.029181 
L 348.037942 160.255481 
L 348.114659 160.035588 
L 348.266366 159.559152 
L 348.338615 159.363691 
L 348.488637 158.980913 
L 348.620623 158.647 
L 348.748096 158.349737 
L 348.957593 157.857012 
L 349.082103 157.592326 
L 349.472954 156.82677 
L 349.606754 156.643525 
L 349.719576 156.423632 
L 349.883349 156.191522 
L 350.033058 155.971628 
L 350.115912 155.808744 
L 350.207714 155.613283 
L 350.335116 155.299731 
L 350.558137 154.635978 
L 350.665115 154.297994 
L 350.788177 153.878567 
L 350.917921 153.495789 
L 351.160783 151.940246 
L 351.273012 151.382368 
L 351.30732 151.211339 
L 351.650904 149.814608 
L 351.921394 148.784366 
L 352.024528 148.369011 
L 352.141602 147.884431 
L 352.199061 147.615672 
L 352.533658 145.929821 
L 352.666519 145.237563 
L 352.741468 144.830353 
L 352.86164 144.113663 
L 353.124475 142.549975 
L 353.270836 141.446435 
L 353.524468 139.809449 
L 353.802396 138.123599 
L 353.918503 137.374331 
L 354.890947 130.700154 
L 355.097789 129.388936 
L 355.345134 127.902619 
L 355.482551 127.09227 
L 355.643378 126.184191 
L 356.124247 123.077176 
L 356.255581 122.307548 
L 356.772966 119.615888 
L 356.81956 119.432643 
L 356.98345 118.634511 
L 357.524498 116.492585 
L 357.658683 115.849192 
L 357.733216 115.462342 
L 357.85081 114.924825 
L 357.977523 114.195918 
L 358.040708 113.89051 
L 358.195404 113.055729 
L 358.284348 112.546716 
L 358.450813 111.5857 
L 358.488995 111.382095 
L 358.664026 110.368141 
L 358.751634 109.834695 
L 358.888326 109.028419 
L 359.044721 108.156989 
L 359.129335 107.635759 
L 359.826801 101.026735 
L 359.904272 100.297829 
L 360.062459 98.766718 
L 360.111697 98.396156 
L 360.268244 96.860973 
L 362.48515 75.343978 
L 362.512971 75.111868 
L 362.654182 74.122347 
L 362.684798 73.894309 
L 362.8998 72.513866 
L 363.05696 71.206721 
L 363.173075 69.997306 
L 363.242766 69.296904 
L 363.403504 67.537756 
L 363.523369 66.234683 
L 363.599345 65.6483 
L 364.097522 62.675664 
L 364.831068 59.308034 
L 364.947562 58.766445 
L 365.007293 58.538407 
L 365.123279 57.988673 
L 365.819074 53.916569 
L 367.19257 49.4454 
L 367.280125 49.197001 
L 367.458801 48.622835 
L 367.526854 48.411085 
L 367.655272 48.03238 
L 367.867009 47.527439 
L 368.06403 46.993993 
L 368.516943 45.145258 
L 369.22138 43.031837 
L 369.32155 42.86488 
L 369.487127 42.604266 
L 369.603666 42.351795 
L 369.76754 42.087109 
L 370.486226 41.052794 
L 370.707115 40.800324 
L 370.817005 40.702593 
L 371.041277 40.507132 
L 371.999819 40.022552 
L 373.207584 39.859668 
L 377.626364 39.635702 
L 386.130682 39.590909 
L 386.130682 39.590909 
" style="fill:none;stroke:#58b792;stroke-dasharray:7.4,3.2;stroke-dashoffset:0;stroke-width:2;"/>
   </g>
   <g id="line2d_59">
    <path clip-path="url(#pc830c9e188)" d="M 70.089777 231.40909 
L 74.554753 231.290355 
L 74.768711 231.276386 
L 77.933361 231.113416 
L 78.882985 231.027275 
L 81.709733 230.843351 
L 85.303355 230.326503 
L 85.828326 230.186814 
L 86.498301 230.037813 
L 87.479761 229.772405 
L 88.2643 229.555887 
L 89.396639 229.053008 
L 89.717038 228.915647 
L 91.479111 228.128734 
L 95.228115 225.754027 
L 95.686032 225.318664 
L 96.069913 224.981083 
L 96.321253 224.729643 
L 96.611096 224.450266 
L 97.177058 223.851932 
L 97.45336 223.523664 
L 98.32695 222.471342 
L 98.556262 222.17334 
L 98.935135 221.707711 
L 99.029215 221.556382 
L 99.852481 220.473794 
L 100.108479 220.154838 
L 100.229726 220.001181 
L 100.458942 219.607724 
L 101.988147 216.406525 
L 102.365902 215.554424 
L 102.547595 215.163296 
L 102.941784 214.35543 
L 103.014503 214.211085 
L 105.154791 209.505904 
L 105.38006 208.954133 
L 105.821127 207.790061 
L 107.712906 203.245522 
L 109.959207 196.486918 
L 110.445876 194.587152 
L 110.563115 194.100569 
L 110.881277 192.817762 
L 111.081438 191.986614 
L 111.679488 189.432639 
L 111.970392 188.131206 
L 119.958979 154.203151 
L 119.993358 154.05415 
L 120.855435 150.750513 
L 121.056004 149.996194 
L 121.899057 146.66229 
L 122.126079 145.742673 
L 122.216476 145.421389 
L 124.160412 137.4894 
L 124.430786 136.30903 
L 125.459515 132.081119 
L 125.611975 131.443207 
L 125.856859 130.481684 
L 126.186478 129.054531 
L 126.495904 127.776379 
L 130.38686 112.350092 
L 130.481144 112.035792 
L 130.737222 111.011408 
L 131.318428 108.855546 
L 131.494381 108.289807 
L 132.642083 104.397149 
L 132.818648 103.817441 
L 133.067656 103.016559 
L 133.604649 101.351935 
L 135.022856 97.445308 
L 135.143305 97.165931 
L 135.442623 96.386002 
L 135.566036 96.094984 
L 135.844312 95.387228 
L 135.981536 95.082241 
L 136.390002 94.139343 
L 136.54436 93.808746 
L 140.281592 85.939617 
L 140.679099 85.285408 
L 140.861049 84.947827 
L 140.942241 84.798826 
L 141.162208 84.410025 
L 141.423608 83.909474 
L 141.869055 83.089967 
L 142.033958 82.780324 
L 144.992407 77.537342 
L 145.560454 76.282472 
L 145.656159 76.082251 
L 145.830394 75.73303 
L 146.731927 74.261642 
L 146.848374 74.082375 
L 146.997751 73.861201 
L 149.367044 70.578517 
L 149.612143 70.245592 
L 149.821912 69.942933 
L 149.94892 69.789276 
L 150.985487 68.34117 
L 151.330353 67.847603 
L 151.531471 67.547272 
L 151.67878 67.358693 
L 151.876529 67.067674 
L 151.986671 66.914017 
L 152.193622 66.597389 
L 152.368095 66.371559 
L 152.997358 65.510146 
L 153.179829 65.277331 
L 153.325651 65.095736 
L 153.552451 64.748842 
L 154.026323 64.131884 
L 154.186734 63.908382 
L 154.330991 63.736099 
L 154.523263 63.491644 
L 154.838849 63.056281 
L 155.172946 62.667481 
L 155.308194 62.502182 
L 155.46408 62.339212 
L 155.699703 62.062163 
L 155.869848 61.847974 
L 156.051406 61.608175 
L 156.195488 61.417267 
L 156.341405 61.256625 
L 156.774334 60.66062 
L 156.919051 60.469712 
L 157.070301 60.320711 
L 160.735609 55.692359 
L 160.868033 55.566639 
L 163.427102 52.933507 
L 163.743641 52.663442 
L 163.948205 52.463222 
L 164.441444 52.046484 
L 164.706013 51.795044 
L 165.277158 51.271212 
L 165.708518 50.973209 
L 165.877918 50.833521 
L 166.126362 50.649597 
L 166.896258 50.139733 
L 167.175866 49.95581 
L 167.301096 49.881309 
L 167.606508 49.718339 
L 167.900558 49.50415 
L 168.171405 49.324883 
L 168.9132 48.80105 
L 169.038268 48.717237 
L 169.46501 48.430875 
L 169.716589 48.270233 
L 174.847697 45.506725 
L 175.474157 45.273911 
L 177.158017 44.587108 
L 177.537013 44.447419 
L 178.130427 44.223917 
L 178.879772 43.984118 
L 179.162442 43.904961 
L 179.686205 43.725694 
L 180.085617 43.606959 
L 180.74393 43.413723 
L 181.473465 43.211174 
L 181.854226 43.136674 
L 182.533659 42.971375 
L 183.676506 42.698982 
L 184.951998 42.466168 
L 185.281474 42.389339 
L 186.51549 42.182134 
L 187.754793 41.942335 
L 187.867631 41.914398 
L 193.338385 41.027374 
L 194.497891 40.878373 
L 195.092131 40.785247 
L 197.369851 40.629262 
L 215.848624 39.860974 
L 233.560276 39.686363 
L 304.067238 39.590909 
L 304.067238 39.590909 
" style="fill:none;stroke:#c70d2c;stroke-dasharray:7.4,3.2;stroke-dashoffset:0;stroke-width:2;"/>
   </g>
   <g id="patch_3">
    <path d="M 52.875 241 
L 52.875 30 
" style="fill:none;stroke:#000000;stroke-linecap:square;stroke-linejoin:miter;stroke-width:0.8;"/>
   </g>
   <g id="patch_4">
    <path d="M 402 241 
L 402 30 
" style="fill:none;stroke:#000000;stroke-linecap:square;stroke-linejoin:miter;stroke-width:0.8;"/>
   </g>
   <g id="patch_5">
    <path d="M 52.875 241 
L 402 241 
" style="fill:none;stroke:#000000;stroke-linecap:square;stroke-linejoin:miter;stroke-width:0.8;"/>
   </g>
   <g id="patch_6">
    <path d="M 52.875 30 
L 402 30 
" style="fill:none;stroke:#000000;stroke-linecap:square;stroke-linejoin:miter;stroke-width:0.8;"/>
   </g>
   <g id="text_13">
    <!-- Decision Time: Blocked Requests (CDF) -->
    <defs>
     <path d="M 19.671875 64.796875 
L 19.671875 8.109375 
L 31.59375 8.109375 
Q 46.6875 8.109375 53.6875 14.9375 
Q 60.6875 21.78125 60.6875 36.53125 
Q 60.6875 51.171875 53.6875 57.984375 
Q 46.6875 64.796875 31.59375 64.796875 
z
M 9.8125 72.90625 
L 30.078125 72.90625 
Q 51.265625 72.90625 61.171875 64.09375 
Q 71.09375 55.28125 71.09375 36.53125 
Q 71.09375 17.671875 61.125 8.828125 
Q 51.171875 0 30.078125 0 
L 9.8125 0 
z
" id="DejaVuSans-68"/>
     <path d="M 11.71875 12.40625 
L 22.015625 12.40625 
L 22.015625 0 
L 11.71875 0 
z
M 11.71875 51.703125 
L 22.015625 51.703125 
L 22.015625 39.3125 
L 11.71875 39.3125 
z
" id="DejaVuSans-58"/>
     <path d="M 19.671875 34.8125 
L 19.671875 8.109375 
L 35.5 8.109375 
Q 43.453125 8.109375 47.28125 11.40625 
Q 51.125 14.703125 51.125 21.484375 
Q 51.125 28.328125 47.28125 31.5625 
Q 43.453125 34.8125 35.5 34.8125 
z
M 19.671875 64.796875 
L 19.671875 42.828125 
L 34.28125 42.828125 
Q 41.5 42.828125 45.03125 45.53125 
Q 48.578125 48.25 48.578125 53.8125 
Q 48.578125 59.328125 45.03125 62.0625 
Q 41.5 64.796875 34.28125 64.796875 
z
M 9.8125 72.90625 
L 35.015625 72.90625 
Q 46.296875 72.90625 52.390625 68.21875 
Q 58.5 63.53125 58.5 54.890625 
Q 58.5 48.1875 55.375 44.234375 
Q 52.25 40.28125 46.1875 39.3125 
Q 53.46875 37.75 57.5 32.78125 
Q 61.53125 27.828125 61.53125 20.40625 
Q 61.53125 10.640625 54.890625 5.3125 
Q 48.25 0 35.984375 0 
L 9.8125 0 
z
" id="DejaVuSans-66"/>
     <path d="M 9.078125 75.984375 
L 18.109375 75.984375 
L 18.109375 31.109375 
L 44.921875 54.6875 
L 56.390625 54.6875 
L 27.390625 29.109375 
L 57.625 0 
L 45.90625 0 
L 18.109375 26.703125 
L 18.109375 0 
L 9.078125 0 
z
" id="DejaVuSans-107"/>
     <path d="M 45.40625 46.390625 
L 45.40625 75.984375 
L 54.390625 75.984375 
L 54.390625 0 
L 45.40625 0 
L 45.40625 8.203125 
Q 42.578125 3.328125 38.25 0.953125 
Q 33.9375 -1.421875 27.875 -1.421875 
Q 17.96875 -1.421875 11.734375 6.484375 
Q 5.515625 14.40625 5.515625 27.296875 
Q 5.515625 40.1875 11.734375 48.09375 
Q 17.96875 56 27.875 56 
Q 33.9375 56 38.25 53.625 
Q 42.578125 51.265625 45.40625 46.390625 
z
M 14.796875 27.296875 
Q 14.796875 17.390625 18.875 11.75 
Q 22.953125 6.109375 30.078125 6.109375 
Q 37.203125 6.109375 41.296875 11.75 
Q 45.40625 17.390625 45.40625 27.296875 
Q 45.40625 37.203125 41.296875 42.84375 
Q 37.203125 48.484375 30.078125 48.484375 
Q 22.953125 48.484375 18.875 42.84375 
Q 14.796875 37.203125 14.796875 27.296875 
z
" id="DejaVuSans-100"/>
     <path d="M 64.40625 67.28125 
L 64.40625 56.890625 
Q 59.421875 61.53125 53.78125 63.8125 
Q 48.140625 66.109375 41.796875 66.109375 
Q 29.296875 66.109375 22.65625 58.46875 
Q 16.015625 50.828125 16.015625 36.375 
Q 16.015625 21.96875 22.65625 14.328125 
Q 29.296875 6.6875 41.796875 6.6875 
Q 48.140625 6.6875 53.78125 8.984375 
Q 59.421875 11.28125 64.40625 15.921875 
L 64.40625 5.609375 
Q 59.234375 2.09375 53.4375 0.328125 
Q 47.65625 -1.421875 41.21875 -1.421875 
Q 24.65625 -1.421875 15.125 8.703125 
Q 5.609375 18.84375 5.609375 36.375 
Q 5.609375 53.953125 15.125 64.078125 
Q 24.65625 74.21875 41.21875 74.21875 
Q 47.75 74.21875 53.53125 72.484375 
Q 59.328125 70.75 64.40625 67.28125 
z
" id="DejaVuSans-67"/>
    </defs>
    <g transform="translate(108.946875 24)scale(0.12 -0.12)">
     <use xlink:href="#DejaVuSans-68"/>
     <use x="77.001953" xlink:href="#DejaVuSans-101"/>
     <use x="138.525391" xlink:href="#DejaVuSans-99"/>
     <use x="193.505859" xlink:href="#DejaVuSans-105"/>
     <use x="221.289062" xlink:href="#DejaVuSans-115"/>
     <use x="273.388672" xlink:href="#DejaVuSans-105"/>
     <use x="301.171875" xlink:href="#DejaVuSans-111"/>
     <use x="362.353516" xlink:href="#DejaVuSans-110"/>
     <use x="425.732422" xlink:href="#DejaVuSans-32"/>
     <use x="457.519531" xlink:href="#DejaVuSans-84"/>
     <use x="518.556641" xlink:href="#DejaVuSans-105"/>
     <use x="546.339844" xlink:href="#DejaVuSans-109"/>
     <use x="643.751953" xlink:href="#DejaVuSans-101"/>
     <use x="705.275391" xlink:href="#DejaVuSans-58"/>
     <use x="738.966797" xlink:href="#DejaVuSans-32"/>
     <use x="770.753906" xlink:href="#DejaVuSans-66"/>
     <use x="839.357422" xlink:href="#DejaVuSans-108"/>
     <use x="867.140625" xlink:href="#DejaVuSans-111"/>
     <use x="928.322266" xlink:href="#DejaVuSans-99"/>
     <use x="983.302734" xlink:href="#DejaVuSans-107"/>
     <use x="1041.166016" xlink:href="#DejaVuSans-101"/>
     <use x="1102.689453" xlink:href="#DejaVuSans-100"/>
     <use x="1166.166016" xlink:href="#DejaVuSans-32"/>
     <use x="1197.953125" xlink:href="#DejaVuSans-82"/>
     <use x="1267.373047" xlink:href="#DejaVuSans-101"/>
     <use x="1328.896484" xlink:href="#DejaVuSans-113"/>
     <use x="1392.373047" xlink:href="#DejaVuSans-117"/>
     <use x="1455.751953" xlink:href="#DejaVuSans-101"/>
     <use x="1517.275391" xlink:href="#DejaVuSans-115"/>
     <use x="1569.375" xlink:href="#DejaVuSans-116"/>
     <use x="1608.583984" xlink:href="#DejaVuSans-115"/>
     <use x="1660.683594" xlink:href="#DejaVuSans-32"/>
     <use x="1692.470703" xlink:href="#DejaVuSans-40"/>
     <use x="1731.484375" xlink:href="#DejaVuSans-67"/>
     <use x="1801.308594" xlink:href="#DejaVuSans-68"/>
     <use x="1878.310547" xlink:href="#DejaVuSans-70"/>
     <use x="1935.830078" xlink:href="#DejaVuSans-41"/>
    </g>
   </g>
   <g id="legend_1">
    <g id="patch_7">
     <path d="M 296.2125 236 
L 395 236 
Q 397 236 397 234 
L 397 161.609375 
Q 397 159.609375 395 159.609375 
L 296.2125 159.609375 
Q 294.2125 159.609375 294.2125 161.609375 
L 294.2125 234 
Q 294.2125 236 296.2125 236 
z
" style="fill:#ffffff;opacity:0.8;stroke:#cccccc;stroke-linejoin:miter;"/>
    </g>
    <g id="line2d_60">
     <path d="M 298.2125 167.707813 
L 318.2125 167.707813 
" style="fill:none;stroke:#00aff0;stroke-dasharray:7.4,3.2;stroke-dashoffset:0;stroke-width:2;"/>
    </g>
    <g id="line2d_61"/>
    <g id="text_14">
     <!-- Cliqz -->
     <defs>
      <path d="M 5.515625 54.6875 
L 48.1875 54.6875 
L 48.1875 46.484375 
L 14.40625 7.171875 
L 48.1875 7.171875 
L 48.1875 0 
L 4.296875 0 
L 4.296875 8.203125 
L 38.09375 47.515625 
L 5.515625 47.515625 
z
" id="DejaVuSans-122"/>
     </defs>
     <g transform="translate(326.2125 171.207813)scale(0.1 -0.1)">
      <use xlink:href="#DejaVuSans-67"/>
      <use x="69.824219" xlink:href="#DejaVuSans-108"/>
      <use x="97.607422" xlink:href="#DejaVuSans-105"/>
      <use x="125.390625" xlink:href="#DejaVuSans-113"/>
      <use x="188.867188" xlink:href="#DejaVuSans-122"/>
     </g>
    </g>
    <g id="line2d_62">
     <path d="M 298.2125 182.385938 
L 318.2125 182.385938 
" style="fill:none;stroke:#800000;stroke-dasharray:7.4,3.2;stroke-dashoffset:0;stroke-width:2;"/>
    </g>
    <g id="line2d_63"/>
    <g id="text_15">
     <!-- uBlock Origin -->
     <defs>
      <path d="M 39.40625 66.21875 
Q 28.65625 66.21875 22.328125 58.203125 
Q 16.015625 50.203125 16.015625 36.375 
Q 16.015625 22.609375 22.328125 14.59375 
Q 28.65625 6.59375 39.40625 6.59375 
Q 50.140625 6.59375 56.421875 14.59375 
Q 62.703125 22.609375 62.703125 36.375 
Q 62.703125 50.203125 56.421875 58.203125 
Q 50.140625 66.21875 39.40625 66.21875 
z
M 39.40625 74.21875 
Q 54.734375 74.21875 63.90625 63.9375 
Q 73.09375 53.65625 73.09375 36.375 
Q 73.09375 19.140625 63.90625 8.859375 
Q 54.734375 -1.421875 39.40625 -1.421875 
Q 24.03125 -1.421875 14.8125 8.828125 
Q 5.609375 19.09375 5.609375 36.375 
Q 5.609375 53.65625 14.8125 63.9375 
Q 24.03125 74.21875 39.40625 74.21875 
z
" id="DejaVuSans-79"/>
     </defs>
     <g transform="translate(326.2125 185.885938)scale(0.1 -0.1)">
      <use xlink:href="#DejaVuSans-117"/>
      <use x="63.378906" xlink:href="#DejaVuSans-66"/>
      <use x="131.982422" xlink:href="#DejaVuSans-108"/>
      <use x="159.765625" xlink:href="#DejaVuSans-111"/>
      <use x="220.947266" xlink:href="#DejaVuSans-99"/>
      <use x="275.927734" xlink:href="#DejaVuSans-107"/>
      <use x="333.837891" xlink:href="#DejaVuSans-32"/>
      <use x="365.625" xlink:href="#DejaVuSans-79"/>
      <use x="444.335938" xlink:href="#DejaVuSans-114"/>
      <use x="485.449219" xlink:href="#DejaVuSans-105"/>
      <use x="513.232422" xlink:href="#DejaVuSans-103"/>
      <use x="576.708984" xlink:href="#DejaVuSans-105"/>
      <use x="604.492188" xlink:href="#DejaVuSans-110"/>
     </g>
    </g>
    <g id="line2d_64">
     <path d="M 298.2125 197.064063 
L 318.2125 197.064063 
" style="fill:none;stroke:#ff5500;stroke-dasharray:7.4,3.2;stroke-dashoffset:0;stroke-width:2;"/>
    </g>
    <g id="line2d_65"/>
    <g id="text_16">
     <!-- Brave -->
     <defs>
      <path d="M 2.984375 54.6875 
L 12.5 54.6875 
L 29.59375 8.796875 
L 46.6875 54.6875 
L 56.203125 54.6875 
L 35.6875 0 
L 23.484375 0 
z
" id="DejaVuSans-118"/>
     </defs>
     <g transform="translate(326.2125 200.564063)scale(0.1 -0.1)">
      <use xlink:href="#DejaVuSans-66"/>
      <use x="68.603516" xlink:href="#DejaVuSans-114"/>
      <use x="109.716797" xlink:href="#DejaVuSans-97"/>
      <use x="170.996094" xlink:href="#DejaVuSans-118"/>
      <use x="230.175781" xlink:href="#DejaVuSans-101"/>
     </g>
    </g>
    <g id="line2d_66">
     <path d="M 298.2125 211.742188 
L 318.2125 211.742188 
" style="fill:none;stroke:#58b792;stroke-dasharray:7.4,3.2;stroke-dashoffset:0;stroke-width:2;"/>
    </g>
    <g id="line2d_67"/>
    <g id="text_17">
     <!-- DuckDuckGo -->
     <defs>
      <path d="M 59.515625 10.40625 
L 59.515625 29.984375 
L 43.40625 29.984375 
L 43.40625 38.09375 
L 69.28125 38.09375 
L 69.28125 6.78125 
Q 63.578125 2.734375 56.6875 0.65625 
Q 49.8125 -1.421875 42 -1.421875 
Q 24.90625 -1.421875 15.25 8.5625 
Q 5.609375 18.5625 5.609375 36.375 
Q 5.609375 54.25 15.25 64.234375 
Q 24.90625 74.21875 42 74.21875 
Q 49.125 74.21875 55.546875 72.453125 
Q 61.96875 70.703125 67.390625 67.28125 
L 67.390625 56.78125 
Q 61.921875 61.421875 55.765625 63.765625 
Q 49.609375 66.109375 42.828125 66.109375 
Q 29.4375 66.109375 22.71875 58.640625 
Q 16.015625 51.171875 16.015625 36.375 
Q 16.015625 21.625 22.71875 14.15625 
Q 29.4375 6.6875 42.828125 6.6875 
Q 48.046875 6.6875 52.140625 7.59375 
Q 56.25 8.5 59.515625 10.40625 
z
" id="DejaVuSans-71"/>
     </defs>
     <g transform="translate(326.2125 215.242188)scale(0.1 -0.1)">
      <use xlink:href="#DejaVuSans-68"/>
      <use x="77.001953" xlink:href="#DejaVuSans-117"/>
      <use x="140.380859" xlink:href="#DejaVuSans-99"/>
      <use x="195.361328" xlink:href="#DejaVuSans-107"/>
      <use x="253.271484" xlink:href="#DejaVuSans-68"/>
      <use x="330.273438" xlink:href="#DejaVuSans-117"/>
      <use x="393.652344" xlink:href="#DejaVuSans-99"/>
      <use x="448.632812" xlink:href="#DejaVuSans-107"/>
      <use x="506.542969" xlink:href="#DejaVuSans-71"/>
      <use x="584.033203" xlink:href="#DejaVuSans-111"/>
     </g>
    </g>
    <g id="line2d_68">
     <path d="M 298.2125 226.420313 
L 318.2125 226.420313 
" style="fill:none;stroke:#c70d2c;stroke-dasharray:7.4,3.2;stroke-dashoffset:0;stroke-width:2;"/>
    </g>
    <g id="line2d_69"/>
    <g id="text_18">
     <!-- Adblock Plus -->
     <defs>
      <path d="M 34.1875 63.1875 
L 20.796875 26.90625 
L 47.609375 26.90625 
z
M 28.609375 72.90625 
L 39.796875 72.90625 
L 67.578125 0 
L 57.328125 0 
L 50.6875 18.703125 
L 17.828125 18.703125 
L 11.1875 0 
L 0.78125 0 
z
" id="DejaVuSans-65"/>
      <path d="M 19.671875 64.796875 
L 19.671875 37.40625 
L 32.078125 37.40625 
Q 38.96875 37.40625 42.71875 40.96875 
Q 46.484375 44.53125 46.484375 51.125 
Q 46.484375 57.671875 42.71875 61.234375 
Q 38.96875 64.796875 32.078125 64.796875 
z
M 9.8125 72.90625 
L 32.078125 72.90625 
Q 44.34375 72.90625 50.609375 67.359375 
Q 56.890625 61.8125 56.890625 51.125 
Q 56.890625 40.328125 50.609375 34.8125 
Q 44.34375 29.296875 32.078125 29.296875 
L 19.671875 29.296875 
L 19.671875 0 
L 9.8125 0 
z
" id="DejaVuSans-80"/>
     </defs>
     <g transform="translate(326.2125 229.920313)scale(0.1 -0.1)">
      <use xlink:href="#DejaVuSans-65"/>
      <use x="68.392578" xlink:href="#DejaVuSans-100"/>
      <use x="131.869141" xlink:href="#DejaVuSans-98"/>
      <use x="195.345703" xlink:href="#DejaVuSans-108"/>
      <use x="223.128906" xlink:href="#DejaVuSans-111"/>
      <use x="284.310547" xlink:href="#DejaVuSans-99"/>
      <use x="339.291016" xlink:href="#DejaVuSans-107"/>
      <use x="397.201172" xlink:href="#DejaVuSans-32"/>
      <use x="428.988281" xlink:href="#DejaVuSans-80"/>
      <use x="489.291016" xlink:href="#DejaVuSans-108"/>
      <use x="517.074219" xlink:href="#DejaVuSans-117"/>
      <use x="580.453125" xlink:href="#DejaVuSans-115"/>
     </g>
    </g>
   </g>
  </g>
 </g>
 <defs>
  <clipPath id="pc830c9e188">
   <rect height="211" width="349.125" x="52.875" y="30"/>
  </clipPath>
 </defs>
</svg>
