<?xml version="1.0" encoding="utf-8" standalone="no"?>
<!DOCTYPE svg PUBLIC "-//W3C//DTD SVG 1.1//EN"
  "http://www.w3.org/Graphics/SVG/1.1/DTD/svg11.dtd">
<!-- Created with matplotlib (https://matplotlib.org/) -->
<svg height="288pt" version="1.1" viewBox="0 0 432 288" width="432pt" xmlns="http://www.w3.org/2000/svg" xmlns:xlink="http://www.w3.org/1999/xlink">
 <defs>
  <style type="text/css">
*{stroke-linecap:butt;stroke-linejoin:round;}
  </style>
 </defs>
 <g id="figure_1">
  <g id="patch_1">
   <path d="M 0 288 
L 432 288 
L 432 0 
L 0 0 
z
" style="fill:#ffffff;"/>
  </g>
  <g id="axes_1">
   <g id="patch_2">
    <path d="M 52.875 241 
L 398.399365 241 
L 398.399365 33.5 
L 52.875 33.5 
z
" style="fill:#ffffff;"/>
   </g>
   <g id="matplotlib.axis_1">
    <g id="xtick_1">
     <g id="line2d_1">
      <path clip-path="url(#paaf7f5a114)" d="M 79.257009 241 
L 79.257009 33.5 
" style="fill:none;stroke:#b0b0b0;stroke-dasharray:3.7,1.6;stroke-dashoffset:0;"/>
     </g>
     <g id="line2d_2">
      <defs>
       <path d="M 0 0 
L 0 3.5 
" id="ma86b356414" style="stroke:#000000;stroke-width:0.8;"/>
      </defs>
      <g>
       <use style="stroke:#000000;stroke-width:0.8;" x="79.257009" xlink:href="#ma86b356414" y="241"/>
      </g>
     </g>
     <g id="text_1">
      <!-- $\mathdefault{10^{-3}}$ -->
      <defs>
       <path d="M 12.40625 8.296875 
L 28.515625 8.296875 
L 28.515625 63.921875 
L 10.984375 60.40625 
L 10.984375 69.390625 
L 28.421875 72.90625 
L 38.28125 72.90625 
L 38.28125 8.296875 
L 54.390625 8.296875 
L 54.390625 0 
L 12.40625 0 
z
" id="DejaVuSans-49"/>
       <path d="M 31.78125 66.40625 
Q 24.171875 66.40625 20.328125 58.90625 
Q 16.5 51.421875 16.5 36.375 
Q 16.5 21.390625 20.328125 13.890625 
Q 24.171875 6.390625 31.78125 6.390625 
Q 39.453125 6.390625 43.28125 13.890625 
Q 47.125 21.390625 47.125 36.375 
Q 47.125 51.421875 43.28125 58.90625 
Q 39.453125 66.40625 31.78125 66.40625 
z
M 31.78125 74.21875 
Q 44.046875 74.21875 50.515625 64.515625 
Q 56.984375 54.828125 56.984375 36.375 
Q 56.984375 17.96875 50.515625 8.265625 
Q 44.046875 -1.421875 31.78125 -1.421875 
Q 19.53125 -1.421875 13.0625 8.265625 
Q 6.59375 17.96875 6.59375 36.375 
Q 6.59375 54.828125 13.0625 64.515625 
Q 19.53125 74.21875 31.78125 74.21875 
z
" id="DejaVuSans-48"/>
       <path d="M 10.59375 35.5 
L 73.1875 35.5 
L 73.1875 27.203125 
L 10.59375 27.203125 
z
" id="DejaVuSans-8722"/>
       <path d="M 40.578125 39.3125 
Q 47.65625 37.796875 51.625 33 
Q 55.609375 28.21875 55.609375 21.1875 
Q 55.609375 10.40625 48.1875 4.484375 
Q 40.765625 -1.421875 27.09375 -1.421875 
Q 22.515625 -1.421875 17.65625 -0.515625 
Q 12.796875 0.390625 7.625 2.203125 
L 7.625 11.71875 
Q 11.71875 9.328125 16.59375 8.109375 
Q 21.484375 6.890625 26.8125 6.890625 
Q 36.078125 6.890625 40.9375 10.546875 
Q 45.796875 14.203125 45.796875 21.1875 
Q 45.796875 27.640625 41.28125 31.265625 
Q 36.765625 34.90625 28.71875 34.90625 
L 20.21875 34.90625 
L 20.21875 43.015625 
L 29.109375 43.015625 
Q 36.375 43.015625 40.234375 45.921875 
Q 44.09375 48.828125 44.09375 54.296875 
Q 44.09375 59.90625 40.109375 62.90625 
Q 36.140625 65.921875 28.71875 65.921875 
Q 24.65625 65.921875 20.015625 65.03125 
Q 15.375 64.15625 9.8125 62.3125 
L 9.8125 71.09375 
Q 15.4375 72.65625 20.34375 73.4375 
Q 25.25 74.21875 29.59375 74.21875 
Q 40.828125 74.21875 47.359375 69.109375 
Q 53.90625 64.015625 53.90625 55.328125 
Q 53.90625 49.265625 50.4375 45.09375 
Q 46.96875 40.921875 40.578125 39.3125 
z
" id="DejaVuSans-51"/>
      </defs>
      <g transform="translate(67.507009 255.598438)scale(0.1 -0.1)">
       <use transform="translate(0 0.765625)" xlink:href="#DejaVuSans-49"/>
       <use transform="translate(63.623047 0.765625)" xlink:href="#DejaVuSans-48"/>
       <use transform="translate(128.203125 39.046875)scale(0.7)" xlink:href="#DejaVuSans-8722"/>
       <use transform="translate(186.855469 39.046875)scale(0.7)" xlink:href="#DejaVuSans-51"/>
      </g>
     </g>
    </g>
    <g id="xtick_2">
     <g id="line2d_3">
      <path clip-path="url(#paaf7f5a114)" d="M 146.291436 241 
L 146.291436 33.5 
" style="fill:none;stroke:#b0b0b0;stroke-dasharray:3.7,1.6;stroke-dashoffset:0;"/>
     </g>
     <g id="line2d_4">
      <g>
       <use style="stroke:#000000;stroke-width:0.8;" x="146.291436" xlink:href="#ma86b356414" y="241"/>
      </g>
     </g>
     <g id="text_2">
      <!-- $\mathdefault{10^{-2}}$ -->
      <defs>
       <path d="M 19.1875 8.296875 
L 53.609375 8.296875 
L 53.609375 0 
L 7.328125 0 
L 7.328125 8.296875 
Q 12.9375 14.109375 22.625 23.890625 
Q 32.328125 33.6875 34.8125 36.53125 
Q 39.546875 41.84375 41.421875 45.53125 
Q 43.3125 49.21875 43.3125 52.78125 
Q 43.3125 58.59375 39.234375 62.25 
Q 35.15625 65.921875 28.609375 65.921875 
Q 23.96875 65.921875 18.8125 64.3125 
Q 13.671875 62.703125 7.8125 59.421875 
L 7.8125 69.390625 
Q 13.765625 71.78125 18.9375 73 
Q 24.125 74.21875 28.421875 74.21875 
Q 39.75 74.21875 46.484375 68.546875 
Q 53.21875 62.890625 53.21875 53.421875 
Q 53.21875 48.921875 51.53125 44.890625 
Q 49.859375 40.875 45.40625 35.40625 
Q 44.1875 33.984375 37.640625 27.21875 
Q 31.109375 20.453125 19.1875 8.296875 
z
" id="DejaVuSans-50"/>
      </defs>
      <g transform="translate(134.541436 255.598438)scale(0.1 -0.1)">
       <use transform="translate(0 0.765625)" xlink:href="#DejaVuSans-49"/>
       <use transform="translate(63.623047 0.765625)" xlink:href="#DejaVuSans-48"/>
       <use transform="translate(128.203125 39.046875)scale(0.7)" xlink:href="#DejaVuSans-8722"/>
       <use transform="translate(186.855469 39.046875)scale(0.7)" xlink:href="#DejaVuSans-50"/>
      </g>
     </g>
    </g>
    <g id="xtick_3">
     <g id="line2d_5">
      <path clip-path="url(#paaf7f5a114)" d="M 213.325863 241 
L 213.325863 33.5 
" style="fill:none;stroke:#b0b0b0;stroke-dasharray:3.7,1.6;stroke-dashoffset:0;"/>
     </g>
     <g id="line2d_6">
      <g>
       <use style="stroke:#000000;stroke-width:0.8;" x="213.325863" xlink:href="#ma86b356414" y="241"/>
      </g>
     </g>
     <g id="text_3">
      <!-- $\mathdefault{10^{-1}}$ -->
      <g transform="translate(201.575863 255.598438)scale(0.1 -0.1)">
       <use transform="translate(0 0.684375)" xlink:href="#DejaVuSans-49"/>
       <use transform="translate(63.623047 0.684375)" xlink:href="#DejaVuSans-48"/>
       <use transform="translate(128.203125 38.965625)scale(0.7)" xlink:href="#DejaVuSans-8722"/>
       <use transform="translate(186.855469 38.965625)scale(0.7)" xlink:href="#DejaVuSans-49"/>
      </g>
     </g>
    </g>
    <g id="xtick_4">
     <g id="line2d_7">
      <path clip-path="url(#paaf7f5a114)" d="M 280.36029 241 
L 280.36029 33.5 
" style="fill:none;stroke:#b0b0b0;stroke-dasharray:3.7,1.6;stroke-dashoffset:0;"/>
     </g>
     <g id="line2d_8">
      <g>
       <use style="stroke:#000000;stroke-width:0.8;" x="280.36029" xlink:href="#ma86b356414" y="241"/>
      </g>
     </g>
     <g id="text_4">
      <!-- $\mathdefault{10^{0}}$ -->
      <g transform="translate(271.56029 255.598438)scale(0.1 -0.1)">
       <use transform="translate(0 0.765625)" xlink:href="#DejaVuSans-49"/>
       <use transform="translate(63.623047 0.765625)" xlink:href="#DejaVuSans-48"/>
       <use transform="translate(128.203125 39.046875)scale(0.7)" xlink:href="#DejaVuSans-48"/>
      </g>
     </g>
    </g>
    <g id="xtick_5">
     <g id="line2d_9">
      <path clip-path="url(#paaf7f5a114)" d="M 347.394717 241 
L 347.394717 33.5 
" style="fill:none;stroke:#b0b0b0;stroke-dasharray:3.7,1.6;stroke-dashoffset:0;"/>
     </g>
     <g id="line2d_10">
      <g>
       <use style="stroke:#000000;stroke-width:0.8;" x="347.394717" xlink:href="#ma86b356414" y="241"/>
      </g>
     </g>
     <g id="text_5">
      <!-- $\mathdefault{10^{1}}$ -->
      <g transform="translate(338.594717 255.598438)scale(0.1 -0.1)">
       <use transform="translate(0 0.684375)" xlink:href="#DejaVuSans-49"/>
       <use transform="translate(63.623047 0.684375)" xlink:href="#DejaVuSans-48"/>
       <use transform="translate(128.203125 38.965625)scale(0.7)" xlink:href="#DejaVuSans-49"/>
      </g>
     </g>
    </g>
    <g id="xtick_6">
     <g id="line2d_11">
      <defs>
       <path d="M 0 0 
L 0 2 
" id="mf3ebad9445" style="stroke:#000000;stroke-width:0.6;"/>
      </defs>
      <g>
       <use style="stroke:#000000;stroke-width:0.6;" x="52.581329" xlink:href="#mf3ebad9445" y="241"/>
      </g>
     </g>
    </g>
    <g id="xtick_7">
     <g id="line2d_12">
      <g>
       <use style="stroke:#000000;stroke-width:0.6;" x="59.077636" xlink:href="#mf3ebad9445" y="241"/>
      </g>
     </g>
    </g>
    <g id="xtick_8">
     <g id="line2d_13">
      <g>
       <use style="stroke:#000000;stroke-width:0.6;" x="64.385506" xlink:href="#mf3ebad9445" y="241"/>
      </g>
     </g>
    </g>
    <g id="xtick_9">
     <g id="line2d_14">
      <g>
       <use style="stroke:#000000;stroke-width:0.6;" x="68.873245" xlink:href="#mf3ebad9445" y="241"/>
      </g>
     </g>
    </g>
    <g id="xtick_10">
     <g id="line2d_15">
      <g>
       <use style="stroke:#000000;stroke-width:0.6;" x="72.760702" xlink:href="#mf3ebad9445" y="241"/>
      </g>
     </g>
    </g>
    <g id="xtick_11">
     <g id="line2d_16">
      <g>
       <use style="stroke:#000000;stroke-width:0.6;" x="76.189682" xlink:href="#mf3ebad9445" y="241"/>
      </g>
     </g>
    </g>
    <g id="xtick_12">
     <g id="line2d_17">
      <g>
       <use style="stroke:#000000;stroke-width:0.6;" x="99.436382" xlink:href="#mf3ebad9445" y="241"/>
      </g>
     </g>
    </g>
    <g id="xtick_13">
     <g id="line2d_18">
      <g>
       <use style="stroke:#000000;stroke-width:0.6;" x="111.240559" xlink:href="#mf3ebad9445" y="241"/>
      </g>
     </g>
    </g>
    <g id="xtick_14">
     <g id="line2d_19">
      <g>
       <use style="stroke:#000000;stroke-width:0.6;" x="119.615756" xlink:href="#mf3ebad9445" y="241"/>
      </g>
     </g>
    </g>
    <g id="xtick_15">
     <g id="line2d_20">
      <g>
       <use style="stroke:#000000;stroke-width:0.6;" x="126.112063" xlink:href="#mf3ebad9445" y="241"/>
      </g>
     </g>
    </g>
    <g id="xtick_16">
     <g id="line2d_21">
      <g>
       <use style="stroke:#000000;stroke-width:0.6;" x="131.419932" xlink:href="#mf3ebad9445" y="241"/>
      </g>
     </g>
    </g>
    <g id="xtick_17">
     <g id="line2d_22">
      <g>
       <use style="stroke:#000000;stroke-width:0.6;" x="135.907672" xlink:href="#mf3ebad9445" y="241"/>
      </g>
     </g>
    </g>
    <g id="xtick_18">
     <g id="line2d_23">
      <g>
       <use style="stroke:#000000;stroke-width:0.6;" x="139.795129" xlink:href="#mf3ebad9445" y="241"/>
      </g>
     </g>
    </g>
    <g id="xtick_19">
     <g id="line2d_24">
      <g>
       <use style="stroke:#000000;stroke-width:0.6;" x="143.224109" xlink:href="#mf3ebad9445" y="241"/>
      </g>
     </g>
    </g>
    <g id="xtick_20">
     <g id="line2d_25">
      <g>
       <use style="stroke:#000000;stroke-width:0.6;" x="166.470809" xlink:href="#mf3ebad9445" y="241"/>
      </g>
     </g>
    </g>
    <g id="xtick_21">
     <g id="line2d_26">
      <g>
       <use style="stroke:#000000;stroke-width:0.6;" x="178.274986" xlink:href="#mf3ebad9445" y="241"/>
      </g>
     </g>
    </g>
    <g id="xtick_22">
     <g id="line2d_27">
      <g>
       <use style="stroke:#000000;stroke-width:0.6;" x="186.650183" xlink:href="#mf3ebad9445" y="241"/>
      </g>
     </g>
    </g>
    <g id="xtick_23">
     <g id="line2d_28">
      <g>
       <use style="stroke:#000000;stroke-width:0.6;" x="193.14649" xlink:href="#mf3ebad9445" y="241"/>
      </g>
     </g>
    </g>
    <g id="xtick_24">
     <g id="line2d_29">
      <g>
       <use style="stroke:#000000;stroke-width:0.6;" x="198.454359" xlink:href="#mf3ebad9445" y="241"/>
      </g>
     </g>
    </g>
    <g id="xtick_25">
     <g id="line2d_30">
      <g>
       <use style="stroke:#000000;stroke-width:0.6;" x="202.942099" xlink:href="#mf3ebad9445" y="241"/>
      </g>
     </g>
    </g>
    <g id="xtick_26">
     <g id="line2d_31">
      <g>
       <use style="stroke:#000000;stroke-width:0.6;" x="206.829556" xlink:href="#mf3ebad9445" y="241"/>
      </g>
     </g>
    </g>
    <g id="xtick_27">
     <g id="line2d_32">
      <g>
       <use style="stroke:#000000;stroke-width:0.6;" x="210.258536" xlink:href="#mf3ebad9445" y="241"/>
      </g>
     </g>
    </g>
    <g id="xtick_28">
     <g id="line2d_33">
      <g>
       <use style="stroke:#000000;stroke-width:0.6;" x="233.505236" xlink:href="#mf3ebad9445" y="241"/>
      </g>
     </g>
    </g>
    <g id="xtick_29">
     <g id="line2d_34">
      <g>
       <use style="stroke:#000000;stroke-width:0.6;" x="245.309413" xlink:href="#mf3ebad9445" y="241"/>
      </g>
     </g>
    </g>
    <g id="xtick_30">
     <g id="line2d_35">
      <g>
       <use style="stroke:#000000;stroke-width:0.6;" x="253.684609" xlink:href="#mf3ebad9445" y="241"/>
      </g>
     </g>
    </g>
    <g id="xtick_31">
     <g id="line2d_36">
      <g>
       <use style="stroke:#000000;stroke-width:0.6;" x="260.180917" xlink:href="#mf3ebad9445" y="241"/>
      </g>
     </g>
    </g>
    <g id="xtick_32">
     <g id="line2d_37">
      <g>
       <use style="stroke:#000000;stroke-width:0.6;" x="265.488786" xlink:href="#mf3ebad9445" y="241"/>
      </g>
     </g>
    </g>
    <g id="xtick_33">
     <g id="line2d_38">
      <g>
       <use style="stroke:#000000;stroke-width:0.6;" x="269.976526" xlink:href="#mf3ebad9445" y="241"/>
      </g>
     </g>
    </g>
    <g id="xtick_34">
     <g id="line2d_39">
      <g>
       <use style="stroke:#000000;stroke-width:0.6;" x="273.863983" xlink:href="#mf3ebad9445" y="241"/>
      </g>
     </g>
    </g>
    <g id="xtick_35">
     <g id="line2d_40">
      <g>
       <use style="stroke:#000000;stroke-width:0.6;" x="277.292963" xlink:href="#mf3ebad9445" y="241"/>
      </g>
     </g>
    </g>
    <g id="xtick_36">
     <g id="line2d_41">
      <g>
       <use style="stroke:#000000;stroke-width:0.6;" x="300.539663" xlink:href="#mf3ebad9445" y="241"/>
      </g>
     </g>
    </g>
    <g id="xtick_37">
     <g id="line2d_42">
      <g>
       <use style="stroke:#000000;stroke-width:0.6;" x="312.34384" xlink:href="#mf3ebad9445" y="241"/>
      </g>
     </g>
    </g>
    <g id="xtick_38">
     <g id="line2d_43">
      <g>
       <use style="stroke:#000000;stroke-width:0.6;" x="320.719036" xlink:href="#mf3ebad9445" y="241"/>
      </g>
     </g>
    </g>
    <g id="xtick_39">
     <g id="line2d_44">
      <g>
       <use style="stroke:#000000;stroke-width:0.6;" x="327.215343" xlink:href="#mf3ebad9445" y="241"/>
      </g>
     </g>
    </g>
    <g id="xtick_40">
     <g id="line2d_45">
      <g>
       <use style="stroke:#000000;stroke-width:0.6;" x="332.523213" xlink:href="#mf3ebad9445" y="241"/>
      </g>
     </g>
    </g>
    <g id="xtick_41">
     <g id="line2d_46">
      <g>
       <use style="stroke:#000000;stroke-width:0.6;" x="337.010952" xlink:href="#mf3ebad9445" y="241"/>
      </g>
     </g>
    </g>
    <g id="xtick_42">
     <g id="line2d_47">
      <g>
       <use style="stroke:#000000;stroke-width:0.6;" x="340.898409" xlink:href="#mf3ebad9445" y="241"/>
      </g>
     </g>
    </g>
    <g id="xtick_43">
     <g id="line2d_48">
      <g>
       <use style="stroke:#000000;stroke-width:0.6;" x="344.327389" xlink:href="#mf3ebad9445" y="241"/>
      </g>
     </g>
    </g>
    <g id="xtick_44">
     <g id="line2d_49">
      <g>
       <use style="stroke:#000000;stroke-width:0.6;" x="367.57409" xlink:href="#mf3ebad9445" y="241"/>
      </g>
     </g>
    </g>
    <g id="xtick_45">
     <g id="line2d_50">
      <g>
       <use style="stroke:#000000;stroke-width:0.6;" x="379.378266" xlink:href="#mf3ebad9445" y="241"/>
      </g>
     </g>
    </g>
    <g id="xtick_46">
     <g id="line2d_51">
      <g>
       <use style="stroke:#000000;stroke-width:0.6;" x="387.753463" xlink:href="#mf3ebad9445" y="241"/>
      </g>
     </g>
    </g>
    <g id="xtick_47">
     <g id="line2d_52">
      <g>
       <use style="stroke:#000000;stroke-width:0.6;" x="394.24977" xlink:href="#mf3ebad9445" y="241"/>
      </g>
     </g>
    </g>
    <g id="text_6">
     <!-- Time (ms)  -->
     <defs>
      <path d="M -0.296875 72.90625 
L 61.375 72.90625 
L 61.375 64.59375 
L 35.5 64.59375 
L 35.5 0 
L 25.59375 0 
L 25.59375 64.59375 
L -0.296875 64.59375 
z
" id="DejaVuSans-84"/>
      <path d="M 9.421875 54.6875 
L 18.40625 54.6875 
L 18.40625 0 
L 9.421875 0 
z
M 9.421875 75.984375 
L 18.40625 75.984375 
L 18.40625 64.59375 
L 9.421875 64.59375 
z
" id="DejaVuSans-105"/>
      <path d="M 52 44.1875 
Q 55.375 50.25 60.0625 53.125 
Q 64.75 56 71.09375 56 
Q 79.640625 56 84.28125 50.015625 
Q 88.921875 44.046875 88.921875 33.015625 
L 88.921875 0 
L 79.890625 0 
L 79.890625 32.71875 
Q 79.890625 40.578125 77.09375 44.375 
Q 74.3125 48.1875 68.609375 48.1875 
Q 61.625 48.1875 57.5625 43.546875 
Q 53.515625 38.921875 53.515625 30.90625 
L 53.515625 0 
L 44.484375 0 
L 44.484375 32.71875 
Q 44.484375 40.625 41.703125 44.40625 
Q 38.921875 48.1875 33.109375 48.1875 
Q 26.21875 48.1875 22.15625 43.53125 
Q 18.109375 38.875 18.109375 30.90625 
L 18.109375 0 
L 9.078125 0 
L 9.078125 54.6875 
L 18.109375 54.6875 
L 18.109375 46.1875 
Q 21.1875 51.21875 25.484375 53.609375 
Q 29.78125 56 35.6875 56 
Q 41.65625 56 45.828125 52.96875 
Q 50 49.953125 52 44.1875 
z
" id="DejaVuSans-109"/>
      <path d="M 56.203125 29.59375 
L 56.203125 25.203125 
L 14.890625 25.203125 
Q 15.484375 15.921875 20.484375 11.0625 
Q 25.484375 6.203125 34.421875 6.203125 
Q 39.59375 6.203125 44.453125 7.46875 
Q 49.3125 8.734375 54.109375 11.28125 
L 54.109375 2.78125 
Q 49.265625 0.734375 44.1875 -0.34375 
Q 39.109375 -1.421875 33.890625 -1.421875 
Q 20.796875 -1.421875 13.15625 6.1875 
Q 5.515625 13.8125 5.515625 26.8125 
Q 5.515625 40.234375 12.765625 48.109375 
Q 20.015625 56 32.328125 56 
Q 43.359375 56 49.78125 48.890625 
Q 56.203125 41.796875 56.203125 29.59375 
z
M 47.21875 32.234375 
Q 47.125 39.59375 43.09375 43.984375 
Q 39.0625 48.390625 32.421875 48.390625 
Q 24.90625 48.390625 20.390625 44.140625 
Q 15.875 39.890625 15.1875 32.171875 
z
" id="DejaVuSans-101"/>
      <path id="DejaVuSans-32"/>
      <path d="M 31 75.875 
Q 24.46875 64.65625 21.28125 53.65625 
Q 18.109375 42.671875 18.109375 31.390625 
Q 18.109375 20.125 21.3125 9.0625 
Q 24.515625 -2 31 -13.1875 
L 23.1875 -13.1875 
Q 15.875 -1.703125 12.234375 9.375 
Q 8.59375 20.453125 8.59375 31.390625 
Q 8.59375 42.28125 12.203125 53.3125 
Q 15.828125 64.359375 23.1875 75.875 
z
" id="DejaVuSans-40"/>
      <path d="M 44.28125 53.078125 
L 44.28125 44.578125 
Q 40.484375 46.53125 36.375 47.5 
Q 32.28125 48.484375 27.875 48.484375 
Q 21.1875 48.484375 17.84375 46.4375 
Q 14.5 44.390625 14.5 40.28125 
Q 14.5 37.15625 16.890625 35.375 
Q 19.28125 33.59375 26.515625 31.984375 
L 29.59375 31.296875 
Q 39.15625 29.25 43.1875 25.515625 
Q 47.21875 21.78125 47.21875 15.09375 
Q 47.21875 7.46875 41.1875 3.015625 
Q 35.15625 -1.421875 24.609375 -1.421875 
Q 20.21875 -1.421875 15.453125 -0.5625 
Q 10.6875 0.296875 5.421875 2 
L 5.421875 11.28125 
Q 10.40625 8.6875 15.234375 7.390625 
Q 20.0625 6.109375 24.8125 6.109375 
Q 31.15625 6.109375 34.5625 8.28125 
Q 37.984375 10.453125 37.984375 14.40625 
Q 37.984375 18.0625 35.515625 20.015625 
Q 33.0625 21.96875 24.703125 23.78125 
L 21.578125 24.515625 
Q 13.234375 26.265625 9.515625 29.90625 
Q 5.8125 33.546875 5.8125 39.890625 
Q 5.8125 47.609375 11.28125 51.796875 
Q 16.75 56 26.8125 56 
Q 31.78125 56 36.171875 55.265625 
Q 40.578125 54.546875 44.28125 53.078125 
z
" id="DejaVuSans-115"/>
      <path d="M 8.015625 75.875 
L 15.828125 75.875 
Q 23.140625 64.359375 26.78125 53.3125 
Q 30.421875 42.28125 30.421875 31.390625 
Q 30.421875 20.453125 26.78125 9.375 
Q 23.140625 -1.703125 15.828125 -13.1875 
L 8.015625 -13.1875 
Q 14.5 -2 17.703125 9.0625 
Q 20.90625 20.125 20.90625 31.390625 
Q 20.90625 42.671875 17.703125 53.65625 
Q 14.5 64.65625 8.015625 75.875 
z
" id="DejaVuSans-41"/>
     </defs>
     <g transform="translate(198.694995 269.276563)scale(0.1 -0.1)">
      <use xlink:href="#DejaVuSans-84"/>
      <use x="61.037109" xlink:href="#DejaVuSans-105"/>
      <use x="88.820312" xlink:href="#DejaVuSans-109"/>
      <use x="186.232422" xlink:href="#DejaVuSans-101"/>
      <use x="247.755859" xlink:href="#DejaVuSans-32"/>
      <use x="279.542969" xlink:href="#DejaVuSans-40"/>
      <use x="318.556641" xlink:href="#DejaVuSans-109"/>
      <use x="415.96875" xlink:href="#DejaVuSans-115"/>
      <use x="468.068359" xlink:href="#DejaVuSans-41"/>
      <use x="507.082031" xlink:href="#DejaVuSans-32"/>
     </g>
     <!--  log (base 10) -->
     <defs>
      <path d="M 9.421875 75.984375 
L 18.40625 75.984375 
L 18.40625 0 
L 9.421875 0 
z
" id="DejaVuSans-108"/>
      <path d="M 30.609375 48.390625 
Q 23.390625 48.390625 19.1875 42.75 
Q 14.984375 37.109375 14.984375 27.296875 
Q 14.984375 17.484375 19.15625 11.84375 
Q 23.34375 6.203125 30.609375 6.203125 
Q 37.796875 6.203125 41.984375 11.859375 
Q 46.1875 17.53125 46.1875 27.296875 
Q 46.1875 37.015625 41.984375 42.703125 
Q 37.796875 48.390625 30.609375 48.390625 
z
M 30.609375 56 
Q 42.328125 56 49.015625 48.375 
Q 55.71875 40.765625 55.71875 27.296875 
Q 55.71875 13.875 49.015625 6.21875 
Q 42.328125 -1.421875 30.609375 -1.421875 
Q 18.84375 -1.421875 12.171875 6.21875 
Q 5.515625 13.875 5.515625 27.296875 
Q 5.515625 40.765625 12.171875 48.375 
Q 18.84375 56 30.609375 56 
z
" id="DejaVuSans-111"/>
      <path d="M 45.40625 27.984375 
Q 45.40625 37.75 41.375 43.109375 
Q 37.359375 48.484375 30.078125 48.484375 
Q 22.859375 48.484375 18.828125 43.109375 
Q 14.796875 37.75 14.796875 27.984375 
Q 14.796875 18.265625 18.828125 12.890625 
Q 22.859375 7.515625 30.078125 7.515625 
Q 37.359375 7.515625 41.375 12.890625 
Q 45.40625 18.265625 45.40625 27.984375 
z
M 54.390625 6.78125 
Q 54.390625 -7.171875 48.1875 -13.984375 
Q 42 -20.796875 29.203125 -20.796875 
Q 24.46875 -20.796875 20.265625 -20.09375 
Q 16.0625 -19.390625 12.109375 -17.921875 
L 12.109375 -9.1875 
Q 16.0625 -11.328125 19.921875 -12.34375 
Q 23.78125 -13.375 27.78125 -13.375 
Q 36.625 -13.375 41.015625 -8.765625 
Q 45.40625 -4.15625 45.40625 5.171875 
L 45.40625 9.625 
Q 42.625 4.78125 38.28125 2.390625 
Q 33.9375 0 27.875 0 
Q 17.828125 0 11.671875 7.65625 
Q 5.515625 15.328125 5.515625 27.984375 
Q 5.515625 40.671875 11.671875 48.328125 
Q 17.828125 56 27.875 56 
Q 33.9375 56 38.28125 53.609375 
Q 42.625 51.21875 45.40625 46.390625 
L 45.40625 54.6875 
L 54.390625 54.6875 
z
" id="DejaVuSans-103"/>
      <path d="M 48.6875 27.296875 
Q 48.6875 37.203125 44.609375 42.84375 
Q 40.53125 48.484375 33.40625 48.484375 
Q 26.265625 48.484375 22.1875 42.84375 
Q 18.109375 37.203125 18.109375 27.296875 
Q 18.109375 17.390625 22.1875 11.75 
Q 26.265625 6.109375 33.40625 6.109375 
Q 40.53125 6.109375 44.609375 11.75 
Q 48.6875 17.390625 48.6875 27.296875 
z
M 18.109375 46.390625 
Q 20.953125 51.265625 25.265625 53.625 
Q 29.59375 56 35.59375 56 
Q 45.5625 56 51.78125 48.09375 
Q 58.015625 40.1875 58.015625 27.296875 
Q 58.015625 14.40625 51.78125 6.484375 
Q 45.5625 -1.421875 35.59375 -1.421875 
Q 29.59375 -1.421875 25.265625 0.953125 
Q 20.953125 3.328125 18.109375 8.203125 
L 18.109375 0 
L 9.078125 0 
L 9.078125 75.984375 
L 18.109375 75.984375 
z
" id="DejaVuSans-98"/>
      <path d="M 34.28125 27.484375 
Q 23.390625 27.484375 19.1875 25 
Q 14.984375 22.515625 14.984375 16.5 
Q 14.984375 11.71875 18.140625 8.90625 
Q 21.296875 6.109375 26.703125 6.109375 
Q 34.1875 6.109375 38.703125 11.40625 
Q 43.21875 16.703125 43.21875 25.484375 
L 43.21875 27.484375 
z
M 52.203125 31.203125 
L 52.203125 0 
L 43.21875 0 
L 43.21875 8.296875 
Q 40.140625 3.328125 35.546875 0.953125 
Q 30.953125 -1.421875 24.3125 -1.421875 
Q 15.921875 -1.421875 10.953125 3.296875 
Q 6 8.015625 6 15.921875 
Q 6 25.140625 12.171875 29.828125 
Q 18.359375 34.515625 30.609375 34.515625 
L 43.21875 34.515625 
L 43.21875 35.40625 
Q 43.21875 41.609375 39.140625 45 
Q 35.0625 48.390625 27.6875 48.390625 
Q 23 48.390625 18.546875 47.265625 
Q 14.109375 46.140625 10.015625 43.890625 
L 10.015625 52.203125 
Q 14.9375 54.109375 19.578125 55.046875 
Q 24.21875 56 28.609375 56 
Q 40.484375 56 46.34375 49.84375 
Q 52.203125 43.703125 52.203125 31.203125 
z
" id="DejaVuSans-97"/>
     </defs>
     <g transform="translate(191.063745 280.474375)scale(0.1 -0.1)">
      <use xlink:href="#DejaVuSans-32"/>
      <use x="31.787109" xlink:href="#DejaVuSans-108"/>
      <use x="59.570312" xlink:href="#DejaVuSans-111"/>
      <use x="120.751953" xlink:href="#DejaVuSans-103"/>
      <use x="184.228516" xlink:href="#DejaVuSans-32"/>
      <use x="216.015625" xlink:href="#DejaVuSans-40"/>
      <use x="255.029297" xlink:href="#DejaVuSans-98"/>
      <use x="318.505859" xlink:href="#DejaVuSans-97"/>
      <use x="379.785156" xlink:href="#DejaVuSans-115"/>
      <use x="431.884766" xlink:href="#DejaVuSans-101"/>
      <use x="493.408203" xlink:href="#DejaVuSans-32"/>
      <use x="525.195312" xlink:href="#DejaVuSans-49"/>
      <use x="588.818359" xlink:href="#DejaVuSans-48"/>
      <use x="652.441406" xlink:href="#DejaVuSans-41"/>
     </g>
    </g>
   </g>
   <g id="matplotlib.axis_2">
    <g id="ytick_1">
     <g id="line2d_53">
      <path clip-path="url(#paaf7f5a114)" d="M 52.875 231.575156 
L 398.399365 231.575156 
" style="fill:none;stroke:#b0b0b0;stroke-dasharray:3.7,1.6;stroke-dashoffset:0;"/>
     </g>
     <g id="line2d_54">
      <defs>
       <path d="M 0 0 
L -3.5 0 
" id="m318713b6ad" style="stroke:#000000;stroke-width:0.8;"/>
      </defs>
      <g>
       <use style="stroke:#000000;stroke-width:0.8;" x="52.875" xlink:href="#m318713b6ad" y="231.575156"/>
      </g>
     </g>
     <g id="text_7">
      <!-- 0.0 -->
      <defs>
       <path d="M 10.6875 12.40625 
L 21 12.40625 
L 21 0 
L 10.6875 0 
z
" id="DejaVuSans-46"/>
      </defs>
      <g transform="translate(29.971875 235.374375)scale(0.1 -0.1)">
       <use xlink:href="#DejaVuSans-48"/>
       <use x="63.623047" xlink:href="#DejaVuSans-46"/>
       <use x="95.410156" xlink:href="#DejaVuSans-48"/>
      </g>
     </g>
    </g>
    <g id="ytick_2">
     <g id="line2d_55">
      <path clip-path="url(#paaf7f5a114)" d="M 52.875 193.846489 
L 398.399365 193.846489 
" style="fill:none;stroke:#b0b0b0;stroke-dasharray:3.7,1.6;stroke-dashoffset:0;"/>
     </g>
     <g id="line2d_56">
      <g>
       <use style="stroke:#000000;stroke-width:0.8;" x="52.875" xlink:href="#m318713b6ad" y="193.846489"/>
      </g>
     </g>
     <g id="text_8">
      <!-- 0.2 -->
      <g transform="translate(29.971875 197.645707)scale(0.1 -0.1)">
       <use xlink:href="#DejaVuSans-48"/>
       <use x="63.623047" xlink:href="#DejaVuSans-46"/>
       <use x="95.410156" xlink:href="#DejaVuSans-50"/>
      </g>
     </g>
    </g>
    <g id="ytick_3">
     <g id="line2d_57">
      <path clip-path="url(#paaf7f5a114)" d="M 52.875 156.117821 
L 398.399365 156.117821 
" style="fill:none;stroke:#b0b0b0;stroke-dasharray:3.7,1.6;stroke-dashoffset:0;"/>
     </g>
     <g id="line2d_58">
      <g>
       <use style="stroke:#000000;stroke-width:0.8;" x="52.875" xlink:href="#m318713b6ad" y="156.117821"/>
      </g>
     </g>
     <g id="text_9">
      <!-- 0.4 -->
      <defs>
       <path d="M 37.796875 64.3125 
L 12.890625 25.390625 
L 37.796875 25.390625 
z
M 35.203125 72.90625 
L 47.609375 72.90625 
L 47.609375 25.390625 
L 58.015625 25.390625 
L 58.015625 17.1875 
L 47.609375 17.1875 
L 47.609375 0 
L 37.796875 0 
L 37.796875 17.1875 
L 4.890625 17.1875 
L 4.890625 26.703125 
z
" id="DejaVuSans-52"/>
      </defs>
      <g transform="translate(29.971875 159.91704)scale(0.1 -0.1)">
       <use xlink:href="#DejaVuSans-48"/>
       <use x="63.623047" xlink:href="#DejaVuSans-46"/>
       <use x="95.410156" xlink:href="#DejaVuSans-52"/>
      </g>
     </g>
    </g>
    <g id="ytick_4">
     <g id="line2d_59">
      <path clip-path="url(#paaf7f5a114)" d="M 52.875 118.389153 
L 398.399365 118.389153 
" style="fill:none;stroke:#b0b0b0;stroke-dasharray:3.7,1.6;stroke-dashoffset:0;"/>
     </g>
     <g id="line2d_60">
      <g>
       <use style="stroke:#000000;stroke-width:0.8;" x="52.875" xlink:href="#m318713b6ad" y="118.389153"/>
      </g>
     </g>
     <g id="text_10">
      <!-- 0.6 -->
      <defs>
       <path d="M 33.015625 40.375 
Q 26.375 40.375 22.484375 35.828125 
Q 18.609375 31.296875 18.609375 23.390625 
Q 18.609375 15.53125 22.484375 10.953125 
Q 26.375 6.390625 33.015625 6.390625 
Q 39.65625 6.390625 43.53125 10.953125 
Q 47.40625 15.53125 47.40625 23.390625 
Q 47.40625 31.296875 43.53125 35.828125 
Q 39.65625 40.375 33.015625 40.375 
z
M 52.59375 71.296875 
L 52.59375 62.3125 
Q 48.875 64.0625 45.09375 64.984375 
Q 41.3125 65.921875 37.59375 65.921875 
Q 27.828125 65.921875 22.671875 59.328125 
Q 17.53125 52.734375 16.796875 39.40625 
Q 19.671875 43.65625 24.015625 45.921875 
Q 28.375 48.1875 33.59375 48.1875 
Q 44.578125 48.1875 50.953125 41.515625 
Q 57.328125 34.859375 57.328125 23.390625 
Q 57.328125 12.15625 50.6875 5.359375 
Q 44.046875 -1.421875 33.015625 -1.421875 
Q 20.359375 -1.421875 13.671875 8.265625 
Q 6.984375 17.96875 6.984375 36.375 
Q 6.984375 53.65625 15.1875 63.9375 
Q 23.390625 74.21875 37.203125 74.21875 
Q 40.921875 74.21875 44.703125 73.484375 
Q 48.484375 72.75 52.59375 71.296875 
z
" id="DejaVuSans-54"/>
      </defs>
      <g transform="translate(29.971875 122.188372)scale(0.1 -0.1)">
       <use xlink:href="#DejaVuSans-48"/>
       <use x="63.623047" xlink:href="#DejaVuSans-46"/>
       <use x="95.410156" xlink:href="#DejaVuSans-54"/>
      </g>
     </g>
    </g>
    <g id="ytick_5">
     <g id="line2d_61">
      <path clip-path="url(#paaf7f5a114)" d="M 52.875 80.660486 
L 398.399365 80.660486 
" style="fill:none;stroke:#b0b0b0;stroke-dasharray:3.7,1.6;stroke-dashoffset:0;"/>
     </g>
     <g id="line2d_62">
      <g>
       <use style="stroke:#000000;stroke-width:0.8;" x="52.875" xlink:href="#m318713b6ad" y="80.660486"/>
      </g>
     </g>
     <g id="text_11">
      <!-- 0.8 -->
      <defs>
       <path d="M 31.78125 34.625 
Q 24.75 34.625 20.71875 30.859375 
Q 16.703125 27.09375 16.703125 20.515625 
Q 16.703125 13.921875 20.71875 10.15625 
Q 24.75 6.390625 31.78125 6.390625 
Q 38.8125 6.390625 42.859375 10.171875 
Q 46.921875 13.96875 46.921875 20.515625 
Q 46.921875 27.09375 42.890625 30.859375 
Q 38.875 34.625 31.78125 34.625 
z
M 21.921875 38.8125 
Q 15.578125 40.375 12.03125 44.71875 
Q 8.5 49.078125 8.5 55.328125 
Q 8.5 64.0625 14.71875 69.140625 
Q 20.953125 74.21875 31.78125 74.21875 
Q 42.671875 74.21875 48.875 69.140625 
Q 55.078125 64.0625 55.078125 55.328125 
Q 55.078125 49.078125 51.53125 44.71875 
Q 48 40.375 41.703125 38.8125 
Q 48.828125 37.15625 52.796875 32.3125 
Q 56.78125 27.484375 56.78125 20.515625 
Q 56.78125 9.90625 50.3125 4.234375 
Q 43.84375 -1.421875 31.78125 -1.421875 
Q 19.734375 -1.421875 13.25 4.234375 
Q 6.78125 9.90625 6.78125 20.515625 
Q 6.78125 27.484375 10.78125 32.3125 
Q 14.796875 37.15625 21.921875 38.8125 
z
M 18.3125 54.390625 
Q 18.3125 48.734375 21.84375 45.5625 
Q 25.390625 42.390625 31.78125 42.390625 
Q 38.140625 42.390625 41.71875 45.5625 
Q 45.3125 48.734375 45.3125 54.390625 
Q 45.3125 60.0625 41.71875 63.234375 
Q 38.140625 66.40625 31.78125 66.40625 
Q 25.390625 66.40625 21.84375 63.234375 
Q 18.3125 60.0625 18.3125 54.390625 
z
" id="DejaVuSans-56"/>
      </defs>
      <g transform="translate(29.971875 84.459705)scale(0.1 -0.1)">
       <use xlink:href="#DejaVuSans-48"/>
       <use x="63.623047" xlink:href="#DejaVuSans-46"/>
       <use x="95.410156" xlink:href="#DejaVuSans-56"/>
      </g>
     </g>
    </g>
    <g id="ytick_6">
     <g id="line2d_63">
      <path clip-path="url(#paaf7f5a114)" d="M 52.875 42.931818 
L 398.399365 42.931818 
" style="fill:none;stroke:#b0b0b0;stroke-dasharray:3.7,1.6;stroke-dashoffset:0;"/>
     </g>
     <g id="line2d_64">
      <g>
       <use style="stroke:#000000;stroke-width:0.8;" x="52.875" xlink:href="#m318713b6ad" y="42.931818"/>
      </g>
     </g>
     <g id="text_12">
      <!-- 1.0 -->
      <g transform="translate(29.971875 46.731037)scale(0.1 -0.1)">
       <use xlink:href="#DejaVuSans-49"/>
       <use x="63.623047" xlink:href="#DejaVuSans-46"/>
       <use x="95.410156" xlink:href="#DejaVuSans-48"/>
      </g>
     </g>
    </g>
    <g id="text_13">
     <!-- Fraction of Requests -->
     <defs>
      <path d="M 9.8125 72.90625 
L 51.703125 72.90625 
L 51.703125 64.59375 
L 19.671875 64.59375 
L 19.671875 43.109375 
L 48.578125 43.109375 
L 48.578125 34.8125 
L 19.671875 34.8125 
L 19.671875 0 
L 9.8125 0 
z
" id="DejaVuSans-70"/>
      <path d="M 41.109375 46.296875 
Q 39.59375 47.171875 37.8125 47.578125 
Q 36.03125 48 33.890625 48 
Q 26.265625 48 22.1875 43.046875 
Q 18.109375 38.09375 18.109375 28.8125 
L 18.109375 0 
L 9.078125 0 
L 9.078125 54.6875 
L 18.109375 54.6875 
L 18.109375 46.1875 
Q 20.953125 51.171875 25.484375 53.578125 
Q 30.03125 56 36.53125 56 
Q 37.453125 56 38.578125 55.875 
Q 39.703125 55.765625 41.0625 55.515625 
z
" id="DejaVuSans-114"/>
      <path d="M 48.78125 52.59375 
L 48.78125 44.1875 
Q 44.96875 46.296875 41.140625 47.34375 
Q 37.3125 48.390625 33.40625 48.390625 
Q 24.65625 48.390625 19.8125 42.84375 
Q 14.984375 37.3125 14.984375 27.296875 
Q 14.984375 17.28125 19.8125 11.734375 
Q 24.65625 6.203125 33.40625 6.203125 
Q 37.3125 6.203125 41.140625 7.25 
Q 44.96875 8.296875 48.78125 10.40625 
L 48.78125 2.09375 
Q 45.015625 0.34375 40.984375 -0.53125 
Q 36.96875 -1.421875 32.421875 -1.421875 
Q 20.0625 -1.421875 12.78125 6.34375 
Q 5.515625 14.109375 5.515625 27.296875 
Q 5.515625 40.671875 12.859375 48.328125 
Q 20.21875 56 33.015625 56 
Q 37.15625 56 41.109375 55.140625 
Q 45.0625 54.296875 48.78125 52.59375 
z
" id="DejaVuSans-99"/>
      <path d="M 18.3125 70.21875 
L 18.3125 54.6875 
L 36.8125 54.6875 
L 36.8125 47.703125 
L 18.3125 47.703125 
L 18.3125 18.015625 
Q 18.3125 11.328125 20.140625 9.421875 
Q 21.96875 7.515625 27.59375 7.515625 
L 36.8125 7.515625 
L 36.8125 0 
L 27.59375 0 
Q 17.1875 0 13.234375 3.875 
Q 9.28125 7.765625 9.28125 18.015625 
L 9.28125 47.703125 
L 2.6875 47.703125 
L 2.6875 54.6875 
L 9.28125 54.6875 
L 9.28125 70.21875 
z
" id="DejaVuSans-116"/>
      <path d="M 54.890625 33.015625 
L 54.890625 0 
L 45.90625 0 
L 45.90625 32.71875 
Q 45.90625 40.484375 42.875 44.328125 
Q 39.84375 48.1875 33.796875 48.1875 
Q 26.515625 48.1875 22.3125 43.546875 
Q 18.109375 38.921875 18.109375 30.90625 
L 18.109375 0 
L 9.078125 0 
L 9.078125 54.6875 
L 18.109375 54.6875 
L 18.109375 46.1875 
Q 21.34375 51.125 25.703125 53.5625 
Q 30.078125 56 35.796875 56 
Q 45.21875 56 50.046875 50.171875 
Q 54.890625 44.34375 54.890625 33.015625 
z
" id="DejaVuSans-110"/>
      <path d="M 37.109375 75.984375 
L 37.109375 68.5 
L 28.515625 68.5 
Q 23.6875 68.5 21.796875 66.546875 
Q 19.921875 64.59375 19.921875 59.515625 
L 19.921875 54.6875 
L 34.71875 54.6875 
L 34.71875 47.703125 
L 19.921875 47.703125 
L 19.921875 0 
L 10.890625 0 
L 10.890625 47.703125 
L 2.296875 47.703125 
L 2.296875 54.6875 
L 10.890625 54.6875 
L 10.890625 58.5 
Q 10.890625 67.625 15.140625 71.796875 
Q 19.390625 75.984375 28.609375 75.984375 
z
" id="DejaVuSans-102"/>
      <path d="M 44.390625 34.1875 
Q 47.5625 33.109375 50.5625 29.59375 
Q 53.5625 26.078125 56.59375 19.921875 
L 66.609375 0 
L 56 0 
L 46.6875 18.703125 
Q 43.0625 26.03125 39.671875 28.421875 
Q 36.28125 30.8125 30.421875 30.8125 
L 19.671875 30.8125 
L 19.671875 0 
L 9.8125 0 
L 9.8125 72.90625 
L 32.078125 72.90625 
Q 44.578125 72.90625 50.734375 67.671875 
Q 56.890625 62.453125 56.890625 51.90625 
Q 56.890625 45.015625 53.6875 40.46875 
Q 50.484375 35.9375 44.390625 34.1875 
z
M 19.671875 64.796875 
L 19.671875 38.921875 
L 32.078125 38.921875 
Q 39.203125 38.921875 42.84375 42.21875 
Q 46.484375 45.515625 46.484375 51.90625 
Q 46.484375 58.296875 42.84375 61.546875 
Q 39.203125 64.796875 32.078125 64.796875 
z
" id="DejaVuSans-82"/>
      <path d="M 14.796875 27.296875 
Q 14.796875 17.390625 18.875 11.75 
Q 22.953125 6.109375 30.078125 6.109375 
Q 37.203125 6.109375 41.296875 11.75 
Q 45.40625 17.390625 45.40625 27.296875 
Q 45.40625 37.203125 41.296875 42.84375 
Q 37.203125 48.484375 30.078125 48.484375 
Q 22.953125 48.484375 18.875 42.84375 
Q 14.796875 37.203125 14.796875 27.296875 
z
M 45.40625 8.203125 
Q 42.578125 3.328125 38.25 0.953125 
Q 33.9375 -1.421875 27.875 -1.421875 
Q 17.96875 -1.421875 11.734375 6.484375 
Q 5.515625 14.40625 5.515625 27.296875 
Q 5.515625 40.1875 11.734375 48.09375 
Q 17.96875 56 27.875 56 
Q 33.9375 56 38.25 53.625 
Q 42.578125 51.265625 45.40625 46.390625 
L 45.40625 54.6875 
L 54.390625 54.6875 
L 54.390625 -20.796875 
L 45.40625 -20.796875 
z
" id="DejaVuSans-113"/>
      <path d="M 8.5 21.578125 
L 8.5 54.6875 
L 17.484375 54.6875 
L 17.484375 21.921875 
Q 17.484375 14.15625 20.5 10.265625 
Q 23.53125 6.390625 29.59375 6.390625 
Q 36.859375 6.390625 41.078125 11.03125 
Q 45.3125 15.671875 45.3125 23.6875 
L 45.3125 54.6875 
L 54.296875 54.6875 
L 54.296875 0 
L 45.3125 0 
L 45.3125 8.40625 
Q 42.046875 3.421875 37.71875 1 
Q 33.40625 -1.421875 27.6875 -1.421875 
Q 18.265625 -1.421875 13.375 4.4375 
Q 8.5 10.296875 8.5 21.578125 
z
M 31.109375 56 
z
" id="DejaVuSans-117"/>
     </defs>
     <g transform="translate(23.892187 188.700781)rotate(-90)scale(0.1 -0.1)">
      <use xlink:href="#DejaVuSans-70"/>
      <use x="57.410156" xlink:href="#DejaVuSans-114"/>
      <use x="98.523438" xlink:href="#DejaVuSans-97"/>
      <use x="159.802734" xlink:href="#DejaVuSans-99"/>
      <use x="214.783203" xlink:href="#DejaVuSans-116"/>
      <use x="253.992188" xlink:href="#DejaVuSans-105"/>
      <use x="281.775391" xlink:href="#DejaVuSans-111"/>
      <use x="342.957031" xlink:href="#DejaVuSans-110"/>
      <use x="406.335938" xlink:href="#DejaVuSans-32"/>
      <use x="438.123047" xlink:href="#DejaVuSans-111"/>
      <use x="499.304688" xlink:href="#DejaVuSans-102"/>
      <use x="534.509766" xlink:href="#DejaVuSans-32"/>
      <use x="566.296875" xlink:href="#DejaVuSans-82"/>
      <use x="635.716797" xlink:href="#DejaVuSans-101"/>
      <use x="697.240234" xlink:href="#DejaVuSans-113"/>
      <use x="760.716797" xlink:href="#DejaVuSans-117"/>
      <use x="824.095703" xlink:href="#DejaVuSans-101"/>
      <use x="885.619141" xlink:href="#DejaVuSans-115"/>
      <use x="937.71875" xlink:href="#DejaVuSans-116"/>
      <use x="976.927734" xlink:href="#DejaVuSans-115"/>
     </g>
    </g>
   </g>
   <g id="line2d_65">
    <path clip-path="url(#paaf7f5a114)" d="M 106.600388 231.56756 
L 112.345031 231.202959 
L 113.409129 230.807974 
L 113.472115 230.754803 
L 113.838317 230.610481 
L 114.97843 229.774936 
L 115.309404 229.509081 
L 115.494461 229.357163 
L 115.769859 229.190054 
L 117.117007 228.248167 
L 117.338217 228.027887 
L 117.463872 227.891161 
L 118.03039 227.192341 
L 118.366603 226.531501 
L 118.540818 226.204879 
L 118.781482 225.794702 
L 118.88615 225.619997 
L 119.337863 225.004732 
L 119.724724 224.450234 
L 119.840509 224.267933 
L 121.139957 222.011961 
L 121.332711 221.563805 
L 121.829329 220.295295 
L 121.990768 219.953481 
L 122.370634 219.049573 
L 122.509345 218.722951 
L 126.222481 209.888958 
L 126.631431 208.711599 
L 126.68857 208.574873 
L 126.870668 207.876054 
L 126.978251 207.549431 
L 127.393512 206.129004 
L 127.659738 205.073179 
L 128.368774 201.677827 
L 128.754166 199.748477 
L 129.426957 196.3987 
L 129.716483 194.818759 
L 129.752472 194.590883 
L 130.342477 191.05121 
L 130.402835 190.762567 
L 130.935566 187.572303 
L 131.038986 186.911463 
L 131.264249 185.48344 
L 131.661533 183.105934 
L 132.110384 179.908074 
L 132.650262 176.451955 
L 132.696738 176.163312 
L 132.798726 175.456896 
L 133.248741 172.707193 
L 133.444022 171.415896 
L 133.579494 170.595542 
L 133.794945 169.365012 
L 133.982165 168.104098 
L 134.353032 165.430353 
L 134.840285 162.316048 
L 137.292414 145.833018 
L 137.343924 145.4988 
L 137.560845 144.23029 
L 137.955031 142.035085 
L 138.252003 140.439953 
L 138.538378 138.7005 
L 139.247792 135.107655 
L 139.351436 134.651903 
L 139.824227 132.426314 
L 141.415867 125.301392 
L 141.666057 124.3671 
L 141.842972 123.70626 
L 141.995209 122.999844 
L 142.4472 121.085686 
L 142.78411 119.543725 
L 143.644806 116.08001 
L 143.781582 115.662237 
L 145.266298 110.724924 
L 145.437683 110.170426 
L 145.619983 109.63112 
L 145.750773 109.289306 
L 145.975309 108.71202 
L 146.552278 106.919395 
L 146.719146 106.478835 
L 146.953444 105.985104 
L 149.748868 98.837394 
L 150.710055 96.459888 
L 150.973993 95.768664 
L 151.553174 94.340641 
L 151.696186 94.097573 
L 152.130587 93.087323 
L 152.268427 92.844255 
L 152.433921 92.479654 
L 152.567989 92.183415 
L 152.720123 91.909964 
L 153.052048 91.157973 
L 153.220043 90.770584 
L 153.444059 90.086956 
L 153.614342 89.684375 
L 153.826367 89.114685 
L 154.296745 87.899346 
L 154.356391 87.747429 
L 154.816178 86.554878 
L 155.049843 86.038359 
L 155.659711 84.29131 
L 156.151438 83.182313 
L 156.30664 82.848095 
L 156.413762 82.635411 
L 156.665591 82.088509 
L 156.753118 81.928995 
L 157.172826 81.070663 
L 157.300758 80.835191 
L 157.602365 80.273097 
L 157.820659 79.86292 
L 158.223428 79.1641 
L 158.354531 78.959012 
L 158.525236 78.72354 
L 159.790146 76.452376 
L 159.919865 76.262479 
L 160.101592 75.913069 
L 160.559928 75.08512 
L 160.709342 74.743306 
L 161.018182 74.112849 
L 161.210646 73.763439 
L 161.361971 73.489988 
L 161.579747 73.019044 
L 161.694888 72.844339 
L 161.898277 72.434163 
L 162.122235 72.023986 
L 162.26218 71.727747 
L 162.379685 71.477084 
L 162.513398 71.264399 
L 163.038918 70.337704 
L 163.185944 70.140211 
L 163.356541 69.86676 
L 163.563163 69.570521 
L 163.675543 69.411008 
L 163.903778 69.091982 
L 165.203418 66.820818 
L 165.345986 66.623325 
L 165.466773 66.433428 
L 165.779985 65.916909 
L 165.870769 65.7498 
L 165.99976 65.468753 
L 167.560796 63.843238 
L 167.717414 63.676129 
L 168.213826 63.182398 
L 168.649286 62.817796 
L 168.872641 62.658283 
L 169.626795 62.14936 
L 169.968285 61.830333 
L 170.192032 61.632841 
L 170.595295 61.313814 
L 170.80426 61.108726 
L 170.974349 61.002384 
L 171.293079 60.683358 
L 171.472605 60.478269 
L 171.891272 60.060497 
L 172.020279 59.923771 
L 172.389654 59.559169 
L 172.564925 59.316102 
L 172.756747 59.141397 
L 172.941486 58.890733 
L 173.119269 58.716028 
L 173.27063 58.495748 
L 173.424647 58.359023 
L 176.52623 54.424364 
L 176.791914 54.1737 
L 177.135029 53.748332 
L 177.379231 53.51286 
L 177.5936 53.29258 
L 177.837943 53.0723 
L 178.109545 52.776061 
L 178.580036 52.343096 
L 178.791494 52.130412 
L 179.013729 51.955707 
L 179.525774 51.446784 
L 179.836461 51.165737 
L 179.997887 51.066991 
L 180.319889 50.778348 
L 180.496653 50.634027 
L 180.798091 50.421342 
L 180.926836 50.307404 
L 181.164182 50.147891 
L 181.371702 50.00357 
L 181.796978 49.775694 
L 181.989803 49.676947 
L 182.820893 49.266771 
L 183.007076 49.168024 
L 184.236957 48.689485 
L 184.857339 48.446417 
L 185.320388 48.286904 
L 186.038996 47.960282 
L 186.142126 47.914706 
L 187.253079 47.420975 
L 187.432178 47.299441 
L 187.703691 47.139928 
L 190.12506 46.053719 
L 190.599801 45.901802 
L 191.468752 45.476433 
L 195.33739 44.534546 
L 201.454066 44.169944 
L 204.654937 44.025623 
L 207.531022 43.812939 
L 219.174779 43.364783 
L 228.336831 43.190078 
L 228.425875 43.174886 
L 250.284309 43.045756 
L 294.356951 42.931818 
L 294.356951 42.931818 
" style="fill:none;stroke:#00aff0;stroke-dasharray:7.4,3.2;stroke-dashoffset:0;stroke-width:2;"/>
   </g>
   <g id="line2d_66">
    <path clip-path="url(#paaf7f5a114)" d="M 96.993094 231.567552 
L 97.989028 231.339428 
L 98.937212 231.32422 
L 108.420179 231.217762 
L 109.726837 230.997242 
L 114.729858 230.959221 
L 118.638828 230.814743 
L 119.138789 230.670264 
L 119.27902 230.601827 
L 119.491763 230.472557 
L 119.963028 230.107558 
L 120.334624 229.582873 
L 120.504543 229.2635 
L 120.820492 228.807252 
L 121.876508 228.328191 
L 123.85498 228.03163 
L 124.105575 227.90236 
L 125.464434 226.944239 
L 125.66024 226.518408 
L 125.995379 225.955702 
L 126.642868 225.27133 
L 126.89335 225.111643 
L 127.034715 225.020393 
L 127.665259 224.708624 
L 128.588858 224.442479 
L 128.722244 224.396854 
L 129.613411 224.161126 
L 129.767883 224.107897 
L 130.241601 223.948211 
L 130.453038 223.81894 
L 130.876303 223.484358 
L 131.17631 223.225818 
L 132.015462 222.442592 
L 132.60837 221.286764 
L 132.706025 221.111869 
L 133.556959 219.91802 
L 134.101888 219.492188 
L 134.269558 219.294481 
L 134.36619 219.111982 
L 134.562854 218.792608 
L 134.684556 218.632921 
L 135.055203 218.169069 
L 135.204707 217.956154 
L 135.518297 217.697613 
L 137.153281 214.967729 
L 137.26861 214.747209 
L 137.454558 214.47346 
L 137.931762 213.766276 
L 138.009251 213.637006 
L 138.244328 213.264403 
L 138.309504 213.135133 
L 138.469905 212.846176 
L 139.638226 210.268375 
L 139.849664 209.850147 
L 142.018819 205.553812 
L 142.170141 205.302876 
L 142.310669 204.991106 
L 142.477085 204.618504 
L 146.650213 194.778755 
L 147.084058 193.075429 
L 148.561615 188.809511 
L 148.695948 188.406492 
L 148.872325 187.820973 
L 148.922902 187.661287 
L 149.536101 185.509317 
L 149.598535 185.296401 
L 149.875271 184.330676 
L 150.319748 182.672975 
L 150.700048 181.471522 
L 154.876938 168.438038 
L 155.017501 167.928561 
L 155.058461 167.753666 
L 155.268817 167.054085 
L 155.411761 166.575025 
L 155.600564 165.997111 
L 155.693455 165.715758 
L 157.702865 158.050792 
L 157.918458 157.206733 
L 157.971133 157.001421 
L 159.399341 151.876235 
L 159.659846 151.09301 
L 159.81577 150.537908 
L 162.282357 139.823684 
L 162.453303 139.002438 
L 163.406717 134.151001 
L 163.64027 132.987568 
L 163.717173 132.660591 
L 163.908548 131.519971 
L 165.45321 124.661043 
L 165.520964 124.463335 
L 165.645522 124.075524 
L 165.841035 123.398756 
L 165.936078 123.155424 
L 166.103133 122.562302 
L 166.216421 122.288553 
L 166.761931 120.577623 
L 166.911426 120.113771 
L 166.977305 119.938876 
L 169.507698 113.505779 
L 169.565344 113.353696 
L 170.229157 111.74162 
L 170.291777 111.597142 
L 170.430594 111.254956 
L 170.511794 111.057248 
L 171.13229 109.544026 
L 171.382981 108.966111 
L 171.520374 108.585905 
L 171.636407 108.334968 
L 172.192998 106.943412 
L 172.286128 106.768517 
L 172.466761 106.319873 
L 172.815336 105.551856 
L 173.346591 104.137487 
L 173.536773 103.597593 
L 176.12049 96.860331 
L 176.248737 96.487729 
L 176.413688 96.069501 
L 176.603415 95.666482 
L 176.79804 95.042943 
L 177.554832 92.88337 
L 177.681879 92.495559 
L 177.922538 91.932853 
L 178.061684 91.484209 
L 178.169017 91.164835 
L 178.636639 89.773279 
L 178.704609 89.552759 
L 178.948374 88.822762 
L 180.980828 83.697577 
L 181.047074 83.515077 
L 181.166818 83.195704 
L 181.376064 82.754664 
L 181.496203 82.503728 
L 181.957327 81.499982 
L 182.061465 81.279462 
L 182.201718 80.990505 
L 182.339611 80.671132 
L 182.761894 79.743427 
L 182.83998 79.54572 
L 183.070519 78.990618 
L 183.165015 78.770098 
L 183.723228 77.370938 
L 183.825258 77.196043 
L 183.962074 76.95271 
L 184.169668 76.534483 
L 184.378152 76.063027 
L 184.524931 75.804486 
L 184.674089 75.416675 
L 184.892151 74.922407 
L 185.040213 74.557408 
L 185.319626 73.97189 
L 185.627306 73.333143 
L 188.009533 69.531076 
L 188.125995 69.386598 
L 188.27918 69.128057 
L 188.582472 68.747851 
L 188.795549 68.420873 
L 189.02989 68.162332 
L 189.222411 67.926604 
L 189.5385 67.599626 
L 189.663455 67.47796 
L 189.844672 67.211816 
L 190.234018 66.755568 
L 190.405971 66.580673 
L 190.679128 66.268903 
L 190.921478 66.071196 
L 191.035014 65.972342 
L 191.247098 65.782239 
L 191.606587 65.424844 
L 191.800539 65.28797 
L 192.17197 64.991409 
L 192.290338 64.869743 
L 192.714175 64.459119 
L 193.282419 63.919226 
L 193.707009 63.584644 
L 196.670545 61.257779 
L 196.901767 61.113301 
L 197.470406 60.710282 
L 197.686917 60.535387 
L 198.047838 60.368096 
L 198.820325 59.949868 
L 199.555561 59.736953 
L 200.330519 59.4556 
L 201.099121 59.280705 
L 201.198642 59.250288 
L 202.005571 59.052581 
L 202.122587 58.999352 
L 202.748062 58.786436 
L 203.677193 58.482271 
L 204.351419 58.307376 
L 205.212278 58.064043 
L 206.32335 57.866336 
L 206.449347 57.813107 
L 207.664996 57.6154 
L 207.892539 57.539358 
L 209.197859 57.288422 
L 209.332409 57.242797 
L 209.903141 57.060298 
L 210.549177 56.809361 
L 211.217205 56.406342 
L 211.492586 56.132594 
L 211.60152 55.965303 
L 212.210116 55.182077 
L 212.35044 54.969161 
L 212.504169 54.76385 
L 212.635933 54.566142 
L 212.823138 54.269581 
L 213.683778 52.885629 
L 213.817191 52.74115 
L 214.571073 51.334385 
L 214.727138 51.098657 
L 215.356742 50.01887 
L 215.686919 49.615851 
L 215.790089 49.478977 
L 215.938173 49.326894 
L 216.066172 49.197624 
L 216.229994 49.015125 
L 216.472443 48.718564 
L 216.634261 48.574085 
L 216.98271 48.383982 
L 217.079093 48.300336 
L 217.264804 48.163462 
L 217.835886 47.82888 
L 218.181909 47.676797 
L 218.34016 47.593152 
L 218.890246 47.380236 
L 218.998021 47.334611 
L 220.192218 47.000029 
L 221.567271 46.703468 
L 224.042109 46.384095 
L 224.676442 46.178783 
L 224.783878 46.163575 
L 225.576487 45.882222 
L 226.039903 45.714931 
L 226.418174 45.585661 
L 227.058197 45.41837 
L 227.086883 45.403161 
L 229.565329 45.235871 
L 231.015844 45.06858 
L 233.16423 44.931705 
L 234.854027 44.49827 
L 235.026122 44.467853 
L 235.910687 44.27775 
L 235.991389 44.247333 
L 237.4715 44.102855 
L 238.350562 43.889939 
L 238.497224 43.844314 
L 239.903326 43.699836 
L 240.080855 43.677023 
L 243.647501 43.585774 
L 253.662475 43.418483 
L 254.373639 43.380462 
L 257.61096 43.296817 
L 265.910328 43.152338 
L 278.829716 42.954631 
L 321.049036 42.931818 
L 321.049036 42.931818 
" style="fill:none;stroke:#800000;stroke-dasharray:7.4,3.2;stroke-dashoffset:0;stroke-width:2;"/>
   </g>
   <g id="line2d_67">
    <path clip-path="url(#paaf7f5a114)" d="M 127.659738 231.565798 
L 127.665259 231.556441 
L 137.72932 231.26635 
L 139.173535 231.125983 
L 142.340694 230.807819 
L 152.337103 228.53388 
L 153.528189 228.168927 
L 154.835722 227.972414 
L 159.447553 227.364159 
L 159.611985 227.279939 
L 160.305589 227.092783 
L 160.477779 226.989848 
L 160.824437 226.821408 
L 161.325516 226.652968 
L 161.434744 226.596821 
L 162.059632 226.447097 
L 162.310918 226.334804 
L 162.72607 226.203795 
L 163.255928 226.025997 
L 164.670999 225.464531 
L 166.466442 225.043431 
L 167.469514 224.659762 
L 168.708656 224.350956 
L 170.988063 223.461967 
L 171.893689 223.246739 
L 173.629124 222.741419 
L 173.793715 222.601052 
L 174.701906 221.974082 
L 175.782052 220.907295 
L 176.455038 219.681427 
L 176.584909 219.522345 
L 176.706011 219.297759 
L 176.775571 219.054456 
L 177.663056 215.498503 
L 178.039191 214.562726 
L 178.237115 214.001259 
L 178.285659 213.842177 
L 178.401835 213.514655 
L 178.444316 213.355573 
L 178.606912 212.859611 
L 178.922761 211.81154 
L 179.065719 211.175212 
L 179.856688 207.806414 
L 179.942956 207.497607 
L 180.195695 206.496326 
L 180.233825 206.290455 
L 180.420127 205.513759 
L 182.349737 194.920761 
L 182.497007 194.031773 
L 182.539786 193.78847 
L 182.678593 193.105353 
L 182.731933 192.82462 
L 182.883086 191.916916 
L 183.019446 190.971781 
L 183.165836 190.138939 
L 183.240392 189.764628 
L 183.392191 188.819493 
L 183.6168 187.518763 
L 185.161494 179.218418 
L 185.201298 179.049979 
L 185.36378 178.366861 
L 185.499627 177.73989 
L 185.901167 175.952556 
L 186.010738 175.475309 
L 186.12805 175.13843 
L 186.216833 174.923201 
L 186.581687 173.323022 
L 186.847479 172.340456 
L 187.007522 171.704127 
L 188.250261 168.03588 
L 188.36851 167.773863 
L 188.525888 167.465056 
L 188.6505 167.15625 
L 189.091528 166.248546 
L 189.226408 166.023959 
L 189.550361 165.275337 
L 189.675922 165.050751 
L 189.832931 164.713871 
L 192.173776 160.165993 
L 192.317908 159.960122 
L 192.447615 159.838471 
L 192.71772 159.520307 
L 192.821532 159.295721 
L 193.056684 158.968199 
L 193.173261 158.75297 
L 193.377887 158.490952 
L 193.55526 158.135357 
L 193.756087 157.892055 
L 193.974786 157.57389 
L 194.699685 156.469673 
L 194.841755 156.226371 
L 195.153194 155.674263 
L 195.322265 155.440318 
L 195.450579 155.14087 
L 195.579401 154.916283 
L 195.706589 154.654265 
L 195.848086 154.392248 
L 197.094075 151.977942 
L 197.21179 151.809502 
L 197.671968 151.02345 
L 197.940377 150.583634 
L 198.099947 150.246754 
L 198.286966 149.984737 
L 198.706544 149.123822 
L 198.788204 148.992813 
L 198.931276 148.684006 
L 199.082672 148.431347 
L 199.177961 148.234833 
L 199.322902 148.085109 
L 199.48446 147.738871 
L 200.984137 145.193557 
L 201.092031 145.053191 
L 201.260836 144.781815 
L 201.449689 144.547871 
L 201.691644 144.25778 
L 201.83413 144.108056 
L 203.644732 141.057422 
L 203.730268 140.917055 
L 203.905418 140.533386 
L 204.089917 140.149718 
L 204.205235 139.990636 
L 204.438857 139.653756 
L 204.615305 139.447885 
L 204.844503 139.176509 
L 205.033616 138.867703 
L 205.142564 138.615043 
L 205.411636 138.315594 
L 205.530979 138.16587 
L 205.667262 137.941283 
L 205.778397 137.763486 
L 206.341859 136.752846 
L 206.502022 136.556333 
L 206.610754 136.350462 
L 206.772001 136.088445 
L 206.941062 135.798354 
L 207.030105 135.583125 
L 207.173952 135.452116 
L 207.380007 135.208814 
L 207.637047 134.881292 
L 207.738808 134.72221 
L 207.849702 134.600559 
L 207.91779 134.432119 
L 209.543686 132.204969 
L 209.893316 131.914878 
L 210.027958 131.746438 
L 210.336066 131.48442 
L 210.662011 131.091394 
L 211.100851 130.717083 
L 211.23285 130.548643 
L 211.634552 130.136901 
L 212.001857 129.669012 
L 212.884091 128.817455 
L 213.035329 128.592869 
L 213.22116 128.396355 
L 213.647521 128.068833 
L 213.863528 127.928467 
L 214.169718 127.647734 
L 214.407716 127.507367 
L 214.56103 127.376358 
L 214.922634 127.189203 
L 215.136531 127.086267 
L 215.690677 126.693241 
L 215.865693 126.599663 
L 216.639977 126.122417 
L 216.843469 126.000766 
L 217.025301 125.907188 
L 217.278024 125.72939 
L 218.047805 125.036915 
L 218.362942 124.746824 
L 218.476586 124.550311 
L 218.683908 124.194716 
L 218.998979 123.782974 
L 219.146427 123.549029 
L 219.59021 122.884627 
L 219.700107 122.678756 
L 219.839632 122.426096 
L 219.991694 122.248299 
L 220.297349 121.705548 
L 220.442257 121.509035 
L 221.223945 120.152158 
L 221.78188 119.328674 
L 221.910931 119.066656 
L 222.064653 118.785923 
L 223.311332 115.819509 
L 223.473881 115.201896 
L 223.620201 114.780796 
L 224.176986 112.9186 
L 224.230282 112.722086 
L 224.401927 112.010896 
L 225.134115 108.773106 
L 225.222858 108.352006 
L 225.483257 106.705039 
L 225.525027 106.499168 
L 225.647501 105.769261 
L 225.713206 105.357519 
L 225.837734 104.693117 
L 226.647886 100.135882 
L 226.784444 99.359187 
L 226.847086 99.106527 
L 226.978709 98.488914 
L 227.043298 98.198823 
L 227.63089 94.670943 
L 227.679295 94.39021 
L 227.799426 93.810028 
L 227.851794 93.576084 
L 228.067 92.340858 
L 228.204062 91.386365 
L 228.317702 90.572239 
L 228.531576 89.168573 
L 228.673863 88.391878 
L 228.79784 87.690045 
L 228.944794 86.707478 
L 229.187237 85.238308 
L 229.230764 85.004364 
L 229.445757 83.844 
L 229.773903 82.533912 
L 230.658008 79.633002 
L 230.737517 79.455205 
L 230.891586 79.034105 
L 231.313516 78.023465 
L 231.572886 77.66787 
L 231.698302 77.471357 
L 231.839523 77.265486 
L 232.203615 76.582368 
L 232.523792 75.917967 
L 232.749051 75.487509 
L 234.888194 72.41816 
L 235.313305 71.894124 
L 235.426626 71.753758 
L 236.505381 70.471743 
L 236.657956 70.331376 
L 236.835454 70.134863 
L 237.001808 70.003854 
L 237.28558 69.732479 
L 237.63528 69.470461 
L 237.747732 69.330095 
L 238.126007 69.058719 
L 238.249077 68.974499 
L 240.127271 67.729916 
L 240.257422 67.683127 
L 240.502946 67.524045 
L 240.632344 67.449182 
L 241.301263 67.03744 
L 241.490194 66.887716 
L 242.1544 66.466616 
L 242.546922 66.017443 
L 242.955062 65.839646 
L 243.70252 65.409188 
L 244.188926 65.212675 
L 244.393937 65.119097 
L 244.899939 64.922584 
L 245.379684 64.445337 
L 245.512202 64.342402 
L 246.174377 63.76222 
L 246.372747 63.621853 
L 246.482195 63.546991 
L 246.818507 63.322405 
L 247.040819 63.17268 
L 247.407548 62.938736 
L 247.608391 62.798369 
L 247.942475 62.620572 
L 248.176984 62.54571 
L 248.843526 62.283692 
L 249.717107 61.843877 
L 249.924636 61.666079 
L 250.530624 60.861311 
L 250.925773 59.944249 
L 251.227545 59.766451 
L 251.330469 59.598011 
L 251.514853 59.298562 
L 251.636453 59.204985 
L 254.037419 57.520586 
L 254.576573 57.277284 
L 256.445711 56.229213 
L 256.741294 55.94848 
L 257.173952 55.705178 
L 257.336 55.555453 
L 257.562967 55.415087 
L 257.89538 55.237289 
L 258.089093 55.10628 
L 258.285937 54.881694 
L 259.02497 54.273439 
L 259.368445 54.114356 
L 259.778135 53.88977 
L 260.62916 53.609037 
L 260.777339 53.562248 
L 261.169718 53.393808 
L 261.47011 53.225368 
L 261.843204 53.028855 
L 261.959613 52.982066 
L 262.522047 52.598397 
L 262.686255 52.486104 
L 262.919264 52.317664 
L 263.050457 52.139866 
L 263.401352 51.671978 
L 263.588151 51.512896 
L 264.700114 50.698769 
L 265.119685 50.502256 
L 265.449263 50.305743 
L 265.95582 50.081156 
L 266.252827 49.987579 
L 266.557406 49.847212 
L 266.765453 49.753634 
L 267.16175 49.566479 
L 267.814968 49.238957 
L 268.235586 48.995655 
L 268.380223 48.902077 
L 268.756142 48.696206 
L 270.371308 47.638778 
L 271.256025 47.273825 
L 271.967348 47.105385 
L 273.206826 46.936945 
L 273.892354 46.562634 
L 274.630209 46.07603 
L 275.84996 45.804654 
L 276.793858 45.664288 
L 281.110214 45.336766 
L 284.036798 45.140253 
L 284.078464 45.121537 
L 286.900791 44.765942 
L 292.455415 43.970531 
L 292.671344 43.9331 
L 297.100794 43.633651 
L 301.811109 43.502642 
L 302.042694 43.483927 
L 306.916316 43.306129 
L 307.011086 43.287414 
L 312.463006 43.118974 
L 349.287796 42.931818 
L 349.287796 42.931818 
" style="fill:none;stroke:#ff5500;stroke-dasharray:7.4,3.2;stroke-dashoffset:0;stroke-width:2;"/>
   </g>
   <g id="line2d_68">
    <path clip-path="url(#paaf7f5a114)" d="M 205.88535 231.568182 
L 212.949341 231.435668 
L 213.977908 231.372899 
L 225.765094 231.177616 
L 242.942328 231.052077 
L 248.776408 230.522023 
L 249.322257 230.410433 
L 251.519322 230.236073 
L 259.704127 230.089611 
L 259.99177 230.075662 
L 275.540153 229.901302 
L 276.125206 229.636275 
L 279.127512 229.322428 
L 279.232228 229.287556 
L 279.54683 229.210838 
L 280.568543 229.050427 
L 282.316081 228.910939 
L 283.366054 228.771451 
L 284.602509 228.652886 
L 286.601245 228.450629 
L 286.722089 228.429706 
L 288.15665 228.283243 
L 290.485824 228.143756 
L 293.244992 227.962421 
L 294.376385 227.843857 
L 298.037567 227.683446 
L 298.105191 227.655548 
L 299.935417 227.397496 
L 300.172001 227.167341 
L 300.716913 226.986007 
L 300.982861 226.909288 
L 301.456998 226.637287 
L 301.587682 226.602415 
L 303.464404 226.121182 
L 304.260245 225.97472 
L 304.347045 225.939848 
L 304.862939 225.751539 
L 305.727048 225.556256 
L 307.689678 225.40282 
L 307.831583 225.360973 
L 308.240461 225.200562 
L 308.441784 225.075023 
L 311.342746 224.070711 
L 311.548167 223.938198 
L 311.717219 223.463939 
L 312.255183 222.529371 
L 312.444396 222.243421 
L 312.632771 222.013266 
L 318.593737 219.376946 
L 318.785457 218.846892 
L 319.221836 218.498172 
L 319.479804 218.274992 
L 319.605082 218.06576 
L 319.721312 217.919298 
L 319.842985 217.737964 
L 320.150236 216.963806 
L 320.269963 216.754575 
L 320.364646 216.545343 
L 320.53186 215.973443 
L 320.666943 215.645646 
L 321.003038 214.864514 
L 321.087884 214.711078 
L 321.204138 214.480923 
L 321.272908 214.34841 
L 321.407881 213.922972 
L 322.877476 207.555352 
L 323.416162 204.158824 
L 323.469617 203.872874 
L 323.613785 203.154511 
L 323.78319 202.436149 
L 323.860971 202.13625 
L 323.970425 201.592248 
L 324.097316 201.138912 
L 324.206784 200.727423 
L 324.348788 200.211318 
L 324.46197 199.855624 
L 324.597477 199.472033 
L 324.725919 199.060544 
L 324.941494 198.572336 
L 325.927638 195.754682 
L 326.050956 195.2595 
L 327.665663 187.936389 
L 327.846315 187.141309 
L 327.989295 186.687973 
L 328.3484 185.272172 
L 328.469155 184.707246 
L 329.486416 179.009168 
L 329.666255 177.711932 
L 329.715344 177.342289 
L 329.829921 176.547208 
L 329.86489 176.3589 
L 330.138449 174.664123 
L 330.262653 173.785349 
L 330.303249 173.54822 
L 330.367844 173.094884 
L 330.481953 172.362573 
L 330.712695 171.072311 
L 330.827798 170.493437 
L 331.285651 168.631274 
L 331.459168 167.98963 
L 331.571362 167.585115 
L 331.631261 167.389832 
L 333.284866 163.079658 
L 333.643073 162.25668 
L 334.413672 159.522719 
L 334.570965 158.783433 
L 334.845412 157.472248 
L 334.956401 156.886399 
L 335.10673 155.95183 
L 335.238365 155.240443 
L 335.689149 153.09233 
L 335.806819 152.527404 
L 336.079707 151.495194 
L 336.136056 151.327809 
L 336.331659 150.574575 
L 336.398152 150.309548 
L 337.254816 147.833639 
L 337.428776 147.42215 
L 337.57868 147.07343 
L 337.866921 146.578248 
L 337.986533 146.369017 
L 338.332165 145.741322 
L 338.624361 145.00901 
L 338.67218 144.862548 
L 338.882707 144.011672 
L 338.970161 143.725722 
L 340.707123 136.507227 
L 340.847731 135.788865 
L 341.716259 131.150895 
L 341.760592 130.892842 
L 341.904181 130.06289 
L 342.042171 128.960936 
L 342.290794 126.917439 
L 342.45323 125.669023 
L 342.955006 121.840082 
L 343.899818 115.507335 
L 344.022104 114.87964 
L 344.149636 114.251944 
L 344.196506 113.945071 
L 344.335892 113.226709 
L 344.451082 112.696655 
L 344.647643 111.657471 
L 344.704507 111.38547 
L 344.868706 110.213772 
L 344.972383 109.481461 
L 345.204528 107.821556 
L 345.278345 107.277553 
L 345.416426 106.098881 
L 345.478045 105.575802 
L 345.640683 103.922871 
L 345.819626 102.346658 
L 345.937631 101.070345 
L 346.564304 93.691439 
L 348.075256 75.578944 
L 348.124251 75.146532 
L 348.267644 74.170117 
L 348.38175 73.556371 
L 350.065928 62.229959 
L 350.225268 61.434879 
L 350.310275 60.862978 
L 350.433693 60.109744 
L 351.896622 51.649807 
L 353.541256 47.276864 
L 353.841198 45.930806 
L 353.98918 45.505369 
L 354.143414 44.773058 
L 354.643717 43.559513 
L 355.395302 43.050383 
L 359.113756 42.952741 
L 382.693712 42.931818 
L 382.693712 42.931818 
" style="fill:none;stroke:#58b792;stroke-dasharray:7.4,3.2;stroke-dashoffset:0;stroke-width:2;"/>
   </g>
   <g id="line2d_69">
    <path clip-path="url(#paaf7f5a114)" d="M 68.580653 231.566933 
L 72.614774 231.402474 
L 73.050383 231.246237 
L 74.559877 230.456831 
L 74.832279 230.292372 
L 78.12916 228.581992 
L 78.46016 228.310634 
L 78.757839 228.129728 
L 79.947461 227.258093 
L 80.314729 227.036072 
L 80.898392 226.567363 
L 81.470583 225.893078 
L 81.658841 225.662835 
L 82.137416 224.906321 
L 82.789317 224.0758 
L 82.969264 223.837334 
L 83.92717 222.784793 
L 84.540608 222.496989 
L 84.87857 222.316083 
L 85.165161 222.233853 
L 85.566397 222.052948 
L 86.398244 221.748698 
L 86.64775 221.625353 
L 87.38369 221.378664 
L 88.208713 221.181312 
L 88.570366 221.049744 
L 89.404 220.523474 
L 89.993799 220.29323 
L 90.611334 219.923196 
L 92.702569 218.048357 
L 94.169242 215.630802 
L 94.256328 215.51568 
L 94.429721 215.236099 
L 94.516032 215.096308 
L 94.85874 214.668713 
L 95.315088 214.331571 
L 95.59879 214.002652 
L 95.994663 213.698402 
L 96.288074 213.427044 
L 96.594611 213.237915 
L 96.866172 213.106348 
L 97.135223 212.843212 
L 97.323655 212.604746 
L 97.526423 212.440286 
L 97.804867 212.267604 
L 98.141611 212.094921 
L 98.459455 211.757779 
L 98.818506 211.552205 
L 99.912822 210.771022 
L 100.169449 210.598339 
L 100.367495 210.458549 
L 100.731758 210.236528 
L 101.02268 210.055623 
L 101.338007 209.850048 
L 101.595944 209.66092 
L 101.811395 209.512906 
L 102.025263 209.35667 
L 102.197881 209.208656 
L 102.42208 209.077088 
L 102.891229 208.813953 
L 104.205566 208.090331 
L 104.683537 207.901203 
L 105.249317 207.629844 
L 105.663613 207.448939 
L 105.862735 207.358486 
L 106.474927 207.161135 
L 111.356778 205.294519 
L 111.587832 205.097167 
L 111.949958 204.908039 
L 113.346008 204.126856 
L 113.624514 203.954173 
L 115.14863 203.123652 
L 115.469295 202.983862 
L 115.71998 202.885186 
L 116.629185 202.64672 
L 117.549946 202.416476 
L 118.871221 202.169787 
L 119.123988 202.136895 
L 122.277792 201.955989 
L 122.588313 201.923098 
L 128.411848 201.7093 
L 132.941831 201.56951 
L 135.463451 201.265259 
L 135.547787 201.232367 
L 136.263163 201.076131 
L 138.063371 200.237387 
L 138.275017 200.122265 
L 139.121441 199.530211 
L 139.395742 199.349305 
L 139.66017 199.143731 
L 139.914972 198.929934 
L 140.285885 198.642129 
L 141.267482 197.754048 
L 141.498358 197.490912 
L 141.683115 197.293561 
L 141.822614 197.161993 
L 142.079442 196.824851 
L 143.587359 194.810222 
L 143.838647 194.431965 
L 143.971366 194.267505 
L 144.156788 193.872802 
L 144.490077 193.264302 
L 144.622949 192.968275 
L 144.72451 192.770923 
L 144.954022 192.417335 
L 148.201241 183.339167 
L 148.36708 182.845789 
L 149.468312 179.153672 
L 149.71524 178.298482 
L 149.782457 178.068238 
L 150.006253 177.344616 
L 151.030948 174.425459 
L 151.154381 174.01431 
L 151.370358 173.307134 
L 151.436304 173.068668 
L 151.676836 172.41083 
L 151.946578 171.736545 
L 152.159159 171.029369 
L 152.563295 169.828814 
L 152.85753 168.874949 
L 154.023468 165.14994 
L 154.223678 164.557886 
L 154.424723 163.891824 
L 157.270825 152.840142 
L 157.416214 152.264534 
L 158.054826 149.361822 
L 159.388204 143.25215 
L 159.567735 142.31473 
L 159.698446 141.772014 
L 159.865124 140.966162 
L 160.078032 139.864283 
L 160.332561 138.565052 
L 161.674299 132.940535 
L 161.749721 132.611616 
L 161.990104 131.748203 
L 162.871386 128.014971 
L 162.922405 127.809397 
L 163.291669 126.485498 
L 163.341957 126.312815 
L 163.439043 125.934558 
L 163.875148 124.281739 
L 163.962542 123.993935 
L 164.531302 121.601049 
L 164.608994 121.395474 
L 164.782275 120.72119 
L 165.096795 119.569973 
L 165.28692 118.936804 
L 165.542011 117.925377 
L 165.68144 117.456668 
L 166.089863 115.812072 
L 166.135546 115.622944 
L 166.444596 114.512842 
L 166.534787 114.266152 
L 166.668105 113.838557 
L 166.735979 113.591868 
L 166.872689 112.942253 
L 167.04589 112.38309 
L 167.172631 111.980164 
L 167.237922 111.77459 
L 167.380767 111.215427 
L 167.595829 110.557589 
L 167.812094 109.949089 
L 168.886042 106.437877 
L 169.034375 105.969167 
L 169.228336 105.327775 
L 169.392062 104.669937 
L 170.871914 99.703258 
L 171.01049 99.135873 
L 171.119884 98.74117 
L 171.346068 97.976433 
L 171.466475 97.507723 
L 172.103168 95.164174 
L 172.364699 94.292539 
L 172.517658 93.71693 
L 172.824699 92.730173 
L 173.049679 91.932544 
L 173.777864 89.761678 
L 174.119012 88.914711 
L 174.599692 87.566143 
L 174.837635 87.097433 
L 174.971647 86.661615 
L 175.060647 86.48071 
L 175.382885 85.691304 
L 175.535747 85.362385 
L 176.187291 83.989147 
L 176.265379 83.758904 
L 177.025834 82.06497 
L 177.505053 81.078213 
L 177.654135 80.757517 
L 177.89404 80.239469 
L 178.041148 79.926996 
L 180.163881 75.700385 
L 180.266469 75.51948 
L 180.857651 74.425824 
L 180.98348 74.261364 
L 182.94928 71.802694 
L 183.100956 71.662903 
L 183.222385 71.498444 
L 183.326183 71.325761 
L 183.532674 71.087295 
L 183.635373 70.939281 
L 183.992391 70.462348 
L 184.118901 70.232105 
L 184.901427 69.409807 
L 185.156897 69.105557 
L 185.621275 68.579287 
L 185.755929 68.431273 
L 186.529844 67.419847 
L 186.775099 67.107373 
L 186.986665 66.910022 
L 187.178128 66.613995 
L 187.404532 66.317968 
L 187.555201 66.087724 
L 188.119076 65.388771 
L 188.288813 65.133859 
L 188.386343 64.985845 
L 188.525888 64.821386 
L 188.713624 64.525358 
L 189.159714 63.793513 
L 189.302918 63.604385 
L 189.571435 63.127452 
L 190.902617 61.096377 
L 191.030632 60.783903 
L 191.14312 60.63589 
L 191.730327 59.879376 
L 191.879706 59.657355 
L 192.094802 59.31199 
L 195.329289 54.567332 
L 195.477464 54.443987 
L 196.171573 53.671027 
L 197.598607 52.232006 
L 197.932474 51.952425 
L 198.103876 51.787965 
L 200.611668 50.011802 
L 200.940066 49.847343 
L 201.514407 49.510201 
L 201.972051 49.279957 
L 204.07392 48.071179 
L 204.226732 47.923166 
L 205.426533 47.224213 
L 205.793107 47.043307 
L 206.81536 46.656827 
L 206.931997 46.615712 
L 207.37965 46.451253 
L 208.354448 46.212786 
L 208.514245 46.147003 
L 210.272442 45.694739 
L 211.129748 45.489164 
L 211.237542 45.472718 
L 217.301144 44.313278 
L 218.464387 44.140596 
L 221.315688 43.828123 
L 224.790751 43.65544 
L 224.84862 43.638994 
L 237.835425 43.244291 
L 323.764723 42.931818 
L 323.764723 42.931818 
" style="fill:none;stroke:#c70d2c;stroke-dasharray:7.4,3.2;stroke-dashoffset:0;stroke-width:2;"/>
   </g>
   <g id="patch_3">
    <path d="M 52.875 241 
L 52.875 33.5 
" style="fill:none;stroke:#000000;stroke-linecap:square;stroke-linejoin:miter;stroke-width:0.8;"/>
   </g>
   <g id="patch_4">
    <path d="M 398.399365 241 
L 398.399365 33.5 
" style="fill:none;stroke:#000000;stroke-linecap:square;stroke-linejoin:miter;stroke-width:0.8;"/>
   </g>
   <g id="patch_5">
    <path d="M 52.875 241 
L 398.399365 241 
" style="fill:none;stroke:#000000;stroke-linecap:square;stroke-linejoin:miter;stroke-width:0.8;"/>
   </g>
   <g id="patch_6">
    <path d="M 52.875 33.5 
L 398.399365 33.5 
" style="fill:none;stroke:#000000;stroke-linecap:square;stroke-linejoin:miter;stroke-width:0.8;"/>
   </g>
   <g id="legend_1">
    <g id="patch_7">
     <path d="M 292.611865 236 
L 391.399365 236 
Q 393.399365 236 393.399365 234 
L 393.399365 161.609375 
Q 393.399365 159.609375 391.399365 159.609375 
L 292.611865 159.609375 
Q 290.611865 159.609375 290.611865 161.609375 
L 290.611865 234 
Q 290.611865 236 292.611865 236 
z
" style="fill:#ffffff;opacity:0.8;stroke:#cccccc;stroke-linejoin:miter;"/>
    </g>
    <g id="line2d_70">
     <path d="M 294.611865 167.707813 
L 314.611865 167.707813 
" style="fill:none;stroke:#00aff0;stroke-dasharray:7.4,3.2;stroke-dashoffset:0;stroke-width:2;"/>
    </g>
    <g id="line2d_71"/>
    <g id="text_14">
     <!-- Cliqz -->
     <defs>
      <path d="M 64.40625 67.28125 
L 64.40625 56.890625 
Q 59.421875 61.53125 53.78125 63.8125 
Q 48.140625 66.109375 41.796875 66.109375 
Q 29.296875 66.109375 22.65625 58.46875 
Q 16.015625 50.828125 16.015625 36.375 
Q 16.015625 21.96875 22.65625 14.328125 
Q 29.296875 6.6875 41.796875 6.6875 
Q 48.140625 6.6875 53.78125 8.984375 
Q 59.421875 11.28125 64.40625 15.921875 
L 64.40625 5.609375 
Q 59.234375 2.09375 53.4375 0.328125 
Q 47.65625 -1.421875 41.21875 -1.421875 
Q 24.65625 -1.421875 15.125 8.703125 
Q 5.609375 18.84375 5.609375 36.375 
Q 5.609375 53.953125 15.125 64.078125 
Q 24.65625 74.21875 41.21875 74.21875 
Q 47.75 74.21875 53.53125 72.484375 
Q 59.328125 70.75 64.40625 67.28125 
z
" id="DejaVuSans-67"/>
      <path d="M 5.515625 54.6875 
L 48.1875 54.6875 
L 48.1875 46.484375 
L 14.40625 7.171875 
L 48.1875 7.171875 
L 48.1875 0 
L 4.296875 0 
L 4.296875 8.203125 
L 38.09375 47.515625 
L 5.515625 47.515625 
z
" id="DejaVuSans-122"/>
     </defs>
     <g transform="translate(322.611865 171.207813)scale(0.1 -0.1)">
      <use xlink:href="#DejaVuSans-67"/>
      <use x="69.824219" xlink:href="#DejaVuSans-108"/>
      <use x="97.607422" xlink:href="#DejaVuSans-105"/>
      <use x="125.390625" xlink:href="#DejaVuSans-113"/>
      <use x="188.867188" xlink:href="#DejaVuSans-122"/>
     </g>
    </g>
    <g id="line2d_72">
     <path d="M 294.611865 182.385938 
L 314.611865 182.385938 
" style="fill:none;stroke:#800000;stroke-dasharray:7.4,3.2;stroke-dashoffset:0;stroke-width:2;"/>
    </g>
    <g id="line2d_73"/>
    <g id="text_15">
     <!-- uBlock Origin -->
     <defs>
      <path d="M 19.671875 34.8125 
L 19.671875 8.109375 
L 35.5 8.109375 
Q 43.453125 8.109375 47.28125 11.40625 
Q 51.125 14.703125 51.125 21.484375 
Q 51.125 28.328125 47.28125 31.5625 
Q 43.453125 34.8125 35.5 34.8125 
z
M 19.671875 64.796875 
L 19.671875 42.828125 
L 34.28125 42.828125 
Q 41.5 42.828125 45.03125 45.53125 
Q 48.578125 48.25 48.578125 53.8125 
Q 48.578125 59.328125 45.03125 62.0625 
Q 41.5 64.796875 34.28125 64.796875 
z
M 9.8125 72.90625 
L 35.015625 72.90625 
Q 46.296875 72.90625 52.390625 68.21875 
Q 58.5 63.53125 58.5 54.890625 
Q 58.5 48.1875 55.375 44.234375 
Q 52.25 40.28125 46.1875 39.3125 
Q 53.46875 37.75 57.5 32.78125 
Q 61.53125 27.828125 61.53125 20.40625 
Q 61.53125 10.640625 54.890625 5.3125 
Q 48.25 0 35.984375 0 
L 9.8125 0 
z
" id="DejaVuSans-66"/>
      <path d="M 9.078125 75.984375 
L 18.109375 75.984375 
L 18.109375 31.109375 
L 44.921875 54.6875 
L 56.390625 54.6875 
L 27.390625 29.109375 
L 57.625 0 
L 45.90625 0 
L 18.109375 26.703125 
L 18.109375 0 
L 9.078125 0 
z
" id="DejaVuSans-107"/>
      <path d="M 39.40625 66.21875 
Q 28.65625 66.21875 22.328125 58.203125 
Q 16.015625 50.203125 16.015625 36.375 
Q 16.015625 22.609375 22.328125 14.59375 
Q 28.65625 6.59375 39.40625 6.59375 
Q 50.140625 6.59375 56.421875 14.59375 
Q 62.703125 22.609375 62.703125 36.375 
Q 62.703125 50.203125 56.421875 58.203125 
Q 50.140625 66.21875 39.40625 66.21875 
z
M 39.40625 74.21875 
Q 54.734375 74.21875 63.90625 63.9375 
Q 73.09375 53.65625 73.09375 36.375 
Q 73.09375 19.140625 63.90625 8.859375 
Q 54.734375 -1.421875 39.40625 -1.421875 
Q 24.03125 -1.421875 14.8125 8.828125 
Q 5.609375 19.09375 5.609375 36.375 
Q 5.609375 53.65625 14.8125 63.9375 
Q 24.03125 74.21875 39.40625 74.21875 
z
" id="DejaVuSans-79"/>
     </defs>
     <g transform="translate(322.611865 185.885938)scale(0.1 -0.1)">
      <use xlink:href="#DejaVuSans-117"/>
      <use x="63.378906" xlink:href="#DejaVuSans-66"/>
      <use x="131.982422" xlink:href="#DejaVuSans-108"/>
      <use x="159.765625" xlink:href="#DejaVuSans-111"/>
      <use x="220.947266" xlink:href="#DejaVuSans-99"/>
      <use x="275.927734" xlink:href="#DejaVuSans-107"/>
      <use x="333.837891" xlink:href="#DejaVuSans-32"/>
      <use x="365.625" xlink:href="#DejaVuSans-79"/>
      <use x="444.335938" xlink:href="#DejaVuSans-114"/>
      <use x="485.449219" xlink:href="#DejaVuSans-105"/>
      <use x="513.232422" xlink:href="#DejaVuSans-103"/>
      <use x="576.708984" xlink:href="#DejaVuSans-105"/>
      <use x="604.492188" xlink:href="#DejaVuSans-110"/>
     </g>
    </g>
    <g id="line2d_74">
     <path d="M 294.611865 197.064063 
L 314.611865 197.064063 
" style="fill:none;stroke:#ff5500;stroke-dasharray:7.4,3.2;stroke-dashoffset:0;stroke-width:2;"/>
    </g>
    <g id="line2d_75"/>
    <g id="text_16">
     <!-- Brave -->
     <defs>
      <path d="M 2.984375 54.6875 
L 12.5 54.6875 
L 29.59375 8.796875 
L 46.6875 54.6875 
L 56.203125 54.6875 
L 35.6875 0 
L 23.484375 0 
z
" id="DejaVuSans-118"/>
     </defs>
     <g transform="translate(322.611865 200.564063)scale(0.1 -0.1)">
      <use xlink:href="#DejaVuSans-66"/>
      <use x="68.603516" xlink:href="#DejaVuSans-114"/>
      <use x="109.716797" xlink:href="#DejaVuSans-97"/>
      <use x="170.996094" xlink:href="#DejaVuSans-118"/>
      <use x="230.175781" xlink:href="#DejaVuSans-101"/>
     </g>
    </g>
    <g id="line2d_76">
     <path d="M 294.611865 211.742188 
L 314.611865 211.742188 
" style="fill:none;stroke:#58b792;stroke-dasharray:7.4,3.2;stroke-dashoffset:0;stroke-width:2;"/>
    </g>
    <g id="line2d_77"/>
    <g id="text_17">
     <!-- DuckDuckGo -->
     <defs>
      <path d="M 19.671875 64.796875 
L 19.671875 8.109375 
L 31.59375 8.109375 
Q 46.6875 8.109375 53.6875 14.9375 
Q 60.6875 21.78125 60.6875 36.53125 
Q 60.6875 51.171875 53.6875 57.984375 
Q 46.6875 64.796875 31.59375 64.796875 
z
M 9.8125 72.90625 
L 30.078125 72.90625 
Q 51.265625 72.90625 61.171875 64.09375 
Q 71.09375 55.28125 71.09375 36.53125 
Q 71.09375 17.671875 61.125 8.828125 
Q 51.171875 0 30.078125 0 
L 9.8125 0 
z
" id="DejaVuSans-68"/>
      <path d="M 59.515625 10.40625 
L 59.515625 29.984375 
L 43.40625 29.984375 
L 43.40625 38.09375 
L 69.28125 38.09375 
L 69.28125 6.78125 
Q 63.578125 2.734375 56.6875 0.65625 
Q 49.8125 -1.421875 42 -1.421875 
Q 24.90625 -1.421875 15.25 8.5625 
Q 5.609375 18.5625 5.609375 36.375 
Q 5.609375 54.25 15.25 64.234375 
Q 24.90625 74.21875 42 74.21875 
Q 49.125 74.21875 55.546875 72.453125 
Q 61.96875 70.703125 67.390625 67.28125 
L 67.390625 56.78125 
Q 61.921875 61.421875 55.765625 63.765625 
Q 49.609375 66.109375 42.828125 66.109375 
Q 29.4375 66.109375 22.71875 58.640625 
Q 16.015625 51.171875 16.015625 36.375 
Q 16.015625 21.625 22.71875 14.15625 
Q 29.4375 6.6875 42.828125 6.6875 
Q 48.046875 6.6875 52.140625 7.59375 
Q 56.25 8.5 59.515625 10.40625 
z
" id="DejaVuSans-71"/>
     </defs>
     <g transform="translate(322.611865 215.242188)scale(0.1 -0.1)">
      <use xlink:href="#DejaVuSans-68"/>
      <use x="77.001953" xlink:href="#DejaVuSans-117"/>
      <use x="140.380859" xlink:href="#DejaVuSans-99"/>
      <use x="195.361328" xlink:href="#DejaVuSans-107"/>
      <use x="253.271484" xlink:href="#DejaVuSans-68"/>
      <use x="330.273438" xlink:href="#DejaVuSans-117"/>
      <use x="393.652344" xlink:href="#DejaVuSans-99"/>
      <use x="448.632812" xlink:href="#DejaVuSans-107"/>
      <use x="506.542969" xlink:href="#DejaVuSans-71"/>
      <use x="584.033203" xlink:href="#DejaVuSans-111"/>
     </g>
    </g>
    <g id="line2d_78">
     <path d="M 294.611865 226.420313 
L 314.611865 226.420313 
" style="fill:none;stroke:#c70d2c;stroke-dasharray:7.4,3.2;stroke-dashoffset:0;stroke-width:2;"/>
    </g>
    <g id="line2d_79"/>
    <g id="text_18">
     <!-- AdblockPlus -->
     <defs>
      <path d="M 34.1875 63.1875 
L 20.796875 26.90625 
L 47.609375 26.90625 
z
M 28.609375 72.90625 
L 39.796875 72.90625 
L 67.578125 0 
L 57.328125 0 
L 50.6875 18.703125 
L 17.828125 18.703125 
L 11.1875 0 
L 0.78125 0 
z
" id="DejaVuSans-65"/>
      <path d="M 45.40625 46.390625 
L 45.40625 75.984375 
L 54.390625 75.984375 
L 54.390625 0 
L 45.40625 0 
L 45.40625 8.203125 
Q 42.578125 3.328125 38.25 0.953125 
Q 33.9375 -1.421875 27.875 -1.421875 
Q 17.96875 -1.421875 11.734375 6.484375 
Q 5.515625 14.40625 5.515625 27.296875 
Q 5.515625 40.1875 11.734375 48.09375 
Q 17.96875 56 27.875 56 
Q 33.9375 56 38.25 53.625 
Q 42.578125 51.265625 45.40625 46.390625 
z
M 14.796875 27.296875 
Q 14.796875 17.390625 18.875 11.75 
Q 22.953125 6.109375 30.078125 6.109375 
Q 37.203125 6.109375 41.296875 11.75 
Q 45.40625 17.390625 45.40625 27.296875 
Q 45.40625 37.203125 41.296875 42.84375 
Q 37.203125 48.484375 30.078125 48.484375 
Q 22.953125 48.484375 18.875 42.84375 
Q 14.796875 37.203125 14.796875 27.296875 
z
" id="DejaVuSans-100"/>
      <path d="M 19.671875 64.796875 
L 19.671875 37.40625 
L 32.078125 37.40625 
Q 38.96875 37.40625 42.71875 40.96875 
Q 46.484375 44.53125 46.484375 51.125 
Q 46.484375 57.671875 42.71875 61.234375 
Q 38.96875 64.796875 32.078125 64.796875 
z
M 9.8125 72.90625 
L 32.078125 72.90625 
Q 44.34375 72.90625 50.609375 67.359375 
Q 56.890625 61.8125 56.890625 51.125 
Q 56.890625 40.328125 50.609375 34.8125 
Q 44.34375 29.296875 32.078125 29.296875 
L 19.671875 29.296875 
L 19.671875 0 
L 9.8125 0 
z
" id="DejaVuSans-80"/>
     </defs>
     <g transform="translate(322.611865 229.920313)scale(0.1 -0.1)">
      <use xlink:href="#DejaVuSans-65"/>
      <use x="68.392578" xlink:href="#DejaVuSans-100"/>
      <use x="131.869141" xlink:href="#DejaVuSans-98"/>
      <use x="195.345703" xlink:href="#DejaVuSans-108"/>
      <use x="223.128906" xlink:href="#DejaVuSans-111"/>
      <use x="284.310547" xlink:href="#DejaVuSans-99"/>
      <use x="339.291016" xlink:href="#DejaVuSans-107"/>
      <use x="397.201172" xlink:href="#DejaVuSans-80"/>
      <use x="457.503906" xlink:href="#DejaVuSans-108"/>
      <use x="485.287109" xlink:href="#DejaVuSans-117"/>
      <use x="548.666016" xlink:href="#DejaVuSans-115"/>
     </g>
    </g>
   </g>
  </g>
 </g>
 <defs>
  <clipPath id="paaf7f5a114">
   <rect height="207.5" width="345.524365" x="52.875" y="33.5"/>
  </clipPath>
 </defs>
</svg>
