<?xml version="1.0" encoding="utf-8" standalone="no"?>
<!DOCTYPE svg PUBLIC "-//W3C//DTD SVG 1.1//EN"
  "http://www.w3.org/Graphics/SVG/1.1/DTD/svg11.dtd">
<!-- Created with matplotlib (https://matplotlib.org/) -->
<svg height="288pt" version="1.1" viewBox="0 0 432 288" width="432pt" xmlns="http://www.w3.org/2000/svg" xmlns:xlink="http://www.w3.org/1999/xlink">
 <defs>
  <style type="text/css">
*{stroke-linecap:butt;stroke-linejoin:round;}
  </style>
 </defs>
 <g id="figure_1">
  <g id="patch_1">
   <path d="M 0 288 
L 432 288 
L 432 0 
L 0 0 
z
" style="fill:#ffffff;"/>
  </g>
  <g id="axes_1">
   <g id="patch_2">
    <path d="M 52.875 241 
L 398.5 241 
L 398.5 33.5 
L 52.875 33.5 
z
" style="fill:#ffffff;"/>
   </g>
   <g id="matplotlib.axis_1">
    <g id="xtick_1">
     <g id="line2d_1">
      <path clip-path="url(#pbfe6a450ce)" d="M 125.300145 241 
L 125.300145 33.5 
" style="fill:none;stroke:#b0b0b0;stroke-dasharray:3.7,1.6;stroke-dashoffset:0;"/>
     </g>
     <g id="line2d_2">
      <defs>
       <path d="M 0 0 
L 0 3.5 
" id="m93298df42d" style="stroke:#000000;stroke-width:0.8;"/>
      </defs>
      <g>
       <use style="stroke:#000000;stroke-width:0.8;" x="125.300145" xlink:href="#m93298df42d" y="241"/>
      </g>
     </g>
     <g id="text_1">
      <!-- $\mathdefault{10^{-2}}$ -->
      <defs>
       <path d="M 12.40625 8.296875 
L 28.515625 8.296875 
L 28.515625 63.921875 
L 10.984375 60.40625 
L 10.984375 69.390625 
L 28.421875 72.90625 
L 38.28125 72.90625 
L 38.28125 8.296875 
L 54.390625 8.296875 
L 54.390625 0 
L 12.40625 0 
z
" id="DejaVuSans-49"/>
       <path d="M 31.78125 66.40625 
Q 24.171875 66.40625 20.328125 58.90625 
Q 16.5 51.421875 16.5 36.375 
Q 16.5 21.390625 20.328125 13.890625 
Q 24.171875 6.390625 31.78125 6.390625 
Q 39.453125 6.390625 43.28125 13.890625 
Q 47.125 21.390625 47.125 36.375 
Q 47.125 51.421875 43.28125 58.90625 
Q 39.453125 66.40625 31.78125 66.40625 
z
M 31.78125 74.21875 
Q 44.046875 74.21875 50.515625 64.515625 
Q 56.984375 54.828125 56.984375 36.375 
Q 56.984375 17.96875 50.515625 8.265625 
Q 44.046875 -1.421875 31.78125 -1.421875 
Q 19.53125 -1.421875 13.0625 8.265625 
Q 6.59375 17.96875 6.59375 36.375 
Q 6.59375 54.828125 13.0625 64.515625 
Q 19.53125 74.21875 31.78125 74.21875 
z
" id="DejaVuSans-48"/>
       <path d="M 10.59375 35.5 
L 73.1875 35.5 
L 73.1875 27.203125 
L 10.59375 27.203125 
z
" id="DejaVuSans-8722"/>
       <path d="M 19.1875 8.296875 
L 53.609375 8.296875 
L 53.609375 0 
L 7.328125 0 
L 7.328125 8.296875 
Q 12.9375 14.109375 22.625 23.890625 
Q 32.328125 33.6875 34.8125 36.53125 
Q 39.546875 41.84375 41.421875 45.53125 
Q 43.3125 49.21875 43.3125 52.78125 
Q 43.3125 58.59375 39.234375 62.25 
Q 35.15625 65.921875 28.609375 65.921875 
Q 23.96875 65.921875 18.8125 64.3125 
Q 13.671875 62.703125 7.8125 59.421875 
L 7.8125 69.390625 
Q 13.765625 71.78125 18.9375 73 
Q 24.125 74.21875 28.421875 74.21875 
Q 39.75 74.21875 46.484375 68.546875 
Q 53.21875 62.890625 53.21875 53.421875 
Q 53.21875 48.921875 51.53125 44.890625 
Q 49.859375 40.875 45.40625 35.40625 
Q 44.1875 33.984375 37.640625 27.21875 
Q 31.109375 20.453125 19.1875 8.296875 
z
" id="DejaVuSans-50"/>
      </defs>
      <g transform="translate(113.550145 255.598438)scale(0.1 -0.1)">
       <use transform="translate(0 0.765625)" xlink:href="#DejaVuSans-49"/>
       <use transform="translate(63.623047 0.765625)" xlink:href="#DejaVuSans-48"/>
       <use transform="translate(128.203125 39.046875)scale(0.7)" xlink:href="#DejaVuSans-8722"/>
       <use transform="translate(186.855469 39.046875)scale(0.7)" xlink:href="#DejaVuSans-50"/>
      </g>
     </g>
    </g>
    <g id="xtick_2">
     <g id="line2d_3">
      <path clip-path="url(#pbfe6a450ce)" d="M 202.246119 241 
L 202.246119 33.5 
" style="fill:none;stroke:#b0b0b0;stroke-dasharray:3.7,1.6;stroke-dashoffset:0;"/>
     </g>
     <g id="line2d_4">
      <g>
       <use style="stroke:#000000;stroke-width:0.8;" x="202.246119" xlink:href="#m93298df42d" y="241"/>
      </g>
     </g>
     <g id="text_2">
      <!-- $\mathdefault{10^{-1}}$ -->
      <g transform="translate(190.496119 255.598438)scale(0.1 -0.1)">
       <use transform="translate(0 0.684375)" xlink:href="#DejaVuSans-49"/>
       <use transform="translate(63.623047 0.684375)" xlink:href="#DejaVuSans-48"/>
       <use transform="translate(128.203125 38.965625)scale(0.7)" xlink:href="#DejaVuSans-8722"/>
       <use transform="translate(186.855469 38.965625)scale(0.7)" xlink:href="#DejaVuSans-49"/>
      </g>
     </g>
    </g>
    <g id="xtick_3">
     <g id="line2d_5">
      <path clip-path="url(#pbfe6a450ce)" d="M 279.192093 241 
L 279.192093 33.5 
" style="fill:none;stroke:#b0b0b0;stroke-dasharray:3.7,1.6;stroke-dashoffset:0;"/>
     </g>
     <g id="line2d_6">
      <g>
       <use style="stroke:#000000;stroke-width:0.8;" x="279.192093" xlink:href="#m93298df42d" y="241"/>
      </g>
     </g>
     <g id="text_3">
      <!-- $\mathdefault{10^{0}}$ -->
      <g transform="translate(270.392093 255.598438)scale(0.1 -0.1)">
       <use transform="translate(0 0.765625)" xlink:href="#DejaVuSans-49"/>
       <use transform="translate(63.623047 0.765625)" xlink:href="#DejaVuSans-48"/>
       <use transform="translate(128.203125 39.046875)scale(0.7)" xlink:href="#DejaVuSans-48"/>
      </g>
     </g>
    </g>
    <g id="xtick_4">
     <g id="line2d_7">
      <path clip-path="url(#pbfe6a450ce)" d="M 356.138067 241 
L 356.138067 33.5 
" style="fill:none;stroke:#b0b0b0;stroke-dasharray:3.7,1.6;stroke-dashoffset:0;"/>
     </g>
     <g id="line2d_8">
      <g>
       <use style="stroke:#000000;stroke-width:0.8;" x="356.138067" xlink:href="#m93298df42d" y="241"/>
      </g>
     </g>
     <g id="text_4">
      <!-- $\mathdefault{10^{1}}$ -->
      <g transform="translate(347.338067 255.598438)scale(0.1 -0.1)">
       <use transform="translate(0 0.684375)" xlink:href="#DejaVuSans-49"/>
       <use transform="translate(63.623047 0.684375)" xlink:href="#DejaVuSans-48"/>
       <use transform="translate(128.203125 38.965625)scale(0.7)" xlink:href="#DejaVuSans-49"/>
      </g>
     </g>
    </g>
    <g id="xtick_5">
     <g id="line2d_9">
      <defs>
       <path d="M 0 0 
L 0 2 
" id="m5db8933fc3" style="stroke:#000000;stroke-width:0.6;"/>
      </defs>
      <g>
       <use style="stroke:#000000;stroke-width:0.6;" x="71.517217" xlink:href="#m5db8933fc3" y="241"/>
      </g>
     </g>
    </g>
    <g id="xtick_6">
     <g id="line2d_10">
      <g>
       <use style="stroke:#000000;stroke-width:0.6;" x="85.066731" xlink:href="#m5db8933fc3" y="241"/>
      </g>
     </g>
    </g>
    <g id="xtick_7">
     <g id="line2d_11">
      <g>
       <use style="stroke:#000000;stroke-width:0.6;" x="94.680263" xlink:href="#m5db8933fc3" y="241"/>
      </g>
     </g>
    </g>
    <g id="xtick_8">
     <g id="line2d_12">
      <g>
       <use style="stroke:#000000;stroke-width:0.6;" x="102.137099" xlink:href="#m5db8933fc3" y="241"/>
      </g>
     </g>
    </g>
    <g id="xtick_9">
     <g id="line2d_13">
      <g>
       <use style="stroke:#000000;stroke-width:0.6;" x="108.229777" xlink:href="#m5db8933fc3" y="241"/>
      </g>
     </g>
    </g>
    <g id="xtick_10">
     <g id="line2d_14">
      <g>
       <use style="stroke:#000000;stroke-width:0.6;" x="113.381063" xlink:href="#m5db8933fc3" y="241"/>
      </g>
     </g>
    </g>
    <g id="xtick_11">
     <g id="line2d_15">
      <g>
       <use style="stroke:#000000;stroke-width:0.6;" x="117.84331" xlink:href="#m5db8933fc3" y="241"/>
      </g>
     </g>
    </g>
    <g id="xtick_12">
     <g id="line2d_16">
      <g>
       <use style="stroke:#000000;stroke-width:0.6;" x="121.77929" xlink:href="#m5db8933fc3" y="241"/>
      </g>
     </g>
    </g>
    <g id="xtick_13">
     <g id="line2d_17">
      <g>
       <use style="stroke:#000000;stroke-width:0.6;" x="148.463191" xlink:href="#m5db8933fc3" y="241"/>
      </g>
     </g>
    </g>
    <g id="xtick_14">
     <g id="line2d_18">
      <g>
       <use style="stroke:#000000;stroke-width:0.6;" x="162.012705" xlink:href="#m5db8933fc3" y="241"/>
      </g>
     </g>
    </g>
    <g id="xtick_15">
     <g id="line2d_19">
      <g>
       <use style="stroke:#000000;stroke-width:0.6;" x="171.626237" xlink:href="#m5db8933fc3" y="241"/>
      </g>
     </g>
    </g>
    <g id="xtick_16">
     <g id="line2d_20">
      <g>
       <use style="stroke:#000000;stroke-width:0.6;" x="179.083073" xlink:href="#m5db8933fc3" y="241"/>
      </g>
     </g>
    </g>
    <g id="xtick_17">
     <g id="line2d_21">
      <g>
       <use style="stroke:#000000;stroke-width:0.6;" x="185.175751" xlink:href="#m5db8933fc3" y="241"/>
      </g>
     </g>
    </g>
    <g id="xtick_18">
     <g id="line2d_22">
      <g>
       <use style="stroke:#000000;stroke-width:0.6;" x="190.327037" xlink:href="#m5db8933fc3" y="241"/>
      </g>
     </g>
    </g>
    <g id="xtick_19">
     <g id="line2d_23">
      <g>
       <use style="stroke:#000000;stroke-width:0.6;" x="194.789284" xlink:href="#m5db8933fc3" y="241"/>
      </g>
     </g>
    </g>
    <g id="xtick_20">
     <g id="line2d_24">
      <g>
       <use style="stroke:#000000;stroke-width:0.6;" x="198.725264" xlink:href="#m5db8933fc3" y="241"/>
      </g>
     </g>
    </g>
    <g id="xtick_21">
     <g id="line2d_25">
      <g>
       <use style="stroke:#000000;stroke-width:0.6;" x="225.409165" xlink:href="#m5db8933fc3" y="241"/>
      </g>
     </g>
    </g>
    <g id="xtick_22">
     <g id="line2d_26">
      <g>
       <use style="stroke:#000000;stroke-width:0.6;" x="238.958679" xlink:href="#m5db8933fc3" y="241"/>
      </g>
     </g>
    </g>
    <g id="xtick_23">
     <g id="line2d_27">
      <g>
       <use style="stroke:#000000;stroke-width:0.6;" x="248.572211" xlink:href="#m5db8933fc3" y="241"/>
      </g>
     </g>
    </g>
    <g id="xtick_24">
     <g id="line2d_28">
      <g>
       <use style="stroke:#000000;stroke-width:0.6;" x="256.029047" xlink:href="#m5db8933fc3" y="241"/>
      </g>
     </g>
    </g>
    <g id="xtick_25">
     <g id="line2d_29">
      <g>
       <use style="stroke:#000000;stroke-width:0.6;" x="262.121725" xlink:href="#m5db8933fc3" y="241"/>
      </g>
     </g>
    </g>
    <g id="xtick_26">
     <g id="line2d_30">
      <g>
       <use style="stroke:#000000;stroke-width:0.6;" x="267.273011" xlink:href="#m5db8933fc3" y="241"/>
      </g>
     </g>
    </g>
    <g id="xtick_27">
     <g id="line2d_31">
      <g>
       <use style="stroke:#000000;stroke-width:0.6;" x="271.735258" xlink:href="#m5db8933fc3" y="241"/>
      </g>
     </g>
    </g>
    <g id="xtick_28">
     <g id="line2d_32">
      <g>
       <use style="stroke:#000000;stroke-width:0.6;" x="275.671238" xlink:href="#m5db8933fc3" y="241"/>
      </g>
     </g>
    </g>
    <g id="xtick_29">
     <g id="line2d_33">
      <g>
       <use style="stroke:#000000;stroke-width:0.6;" x="302.355139" xlink:href="#m5db8933fc3" y="241"/>
      </g>
     </g>
    </g>
    <g id="xtick_30">
     <g id="line2d_34">
      <g>
       <use style="stroke:#000000;stroke-width:0.6;" x="315.904653" xlink:href="#m5db8933fc3" y="241"/>
      </g>
     </g>
    </g>
    <g id="xtick_31">
     <g id="line2d_35">
      <g>
       <use style="stroke:#000000;stroke-width:0.6;" x="325.518185" xlink:href="#m5db8933fc3" y="241"/>
      </g>
     </g>
    </g>
    <g id="xtick_32">
     <g id="line2d_36">
      <g>
       <use style="stroke:#000000;stroke-width:0.6;" x="332.975021" xlink:href="#m5db8933fc3" y="241"/>
      </g>
     </g>
    </g>
    <g id="xtick_33">
     <g id="line2d_37">
      <g>
       <use style="stroke:#000000;stroke-width:0.6;" x="339.067699" xlink:href="#m5db8933fc3" y="241"/>
      </g>
     </g>
    </g>
    <g id="xtick_34">
     <g id="line2d_38">
      <g>
       <use style="stroke:#000000;stroke-width:0.6;" x="344.218985" xlink:href="#m5db8933fc3" y="241"/>
      </g>
     </g>
    </g>
    <g id="xtick_35">
     <g id="line2d_39">
      <g>
       <use style="stroke:#000000;stroke-width:0.6;" x="348.681232" xlink:href="#m5db8933fc3" y="241"/>
      </g>
     </g>
    </g>
    <g id="xtick_36">
     <g id="line2d_40">
      <g>
       <use style="stroke:#000000;stroke-width:0.6;" x="352.617212" xlink:href="#m5db8933fc3" y="241"/>
      </g>
     </g>
    </g>
    <g id="xtick_37">
     <g id="line2d_41">
      <g>
       <use style="stroke:#000000;stroke-width:0.6;" x="379.301113" xlink:href="#m5db8933fc3" y="241"/>
      </g>
     </g>
    </g>
    <g id="xtick_38">
     <g id="line2d_42">
      <g>
       <use style="stroke:#000000;stroke-width:0.6;" x="392.850627" xlink:href="#m5db8933fc3" y="241"/>
      </g>
     </g>
    </g>
    <g id="text_5">
     <!-- Time (ms)  -->
     <defs>
      <path d="M -0.296875 72.90625 
L 61.375 72.90625 
L 61.375 64.59375 
L 35.5 64.59375 
L 35.5 0 
L 25.59375 0 
L 25.59375 64.59375 
L -0.296875 64.59375 
z
" id="DejaVuSans-84"/>
      <path d="M 9.421875 54.6875 
L 18.40625 54.6875 
L 18.40625 0 
L 9.421875 0 
z
M 9.421875 75.984375 
L 18.40625 75.984375 
L 18.40625 64.59375 
L 9.421875 64.59375 
z
" id="DejaVuSans-105"/>
      <path d="M 52 44.1875 
Q 55.375 50.25 60.0625 53.125 
Q 64.75 56 71.09375 56 
Q 79.640625 56 84.28125 50.015625 
Q 88.921875 44.046875 88.921875 33.015625 
L 88.921875 0 
L 79.890625 0 
L 79.890625 32.71875 
Q 79.890625 40.578125 77.09375 44.375 
Q 74.3125 48.1875 68.609375 48.1875 
Q 61.625 48.1875 57.5625 43.546875 
Q 53.515625 38.921875 53.515625 30.90625 
L 53.515625 0 
L 44.484375 0 
L 44.484375 32.71875 
Q 44.484375 40.625 41.703125 44.40625 
Q 38.921875 48.1875 33.109375 48.1875 
Q 26.21875 48.1875 22.15625 43.53125 
Q 18.109375 38.875 18.109375 30.90625 
L 18.109375 0 
L 9.078125 0 
L 9.078125 54.6875 
L 18.109375 54.6875 
L 18.109375 46.1875 
Q 21.1875 51.21875 25.484375 53.609375 
Q 29.78125 56 35.6875 56 
Q 41.65625 56 45.828125 52.96875 
Q 50 49.953125 52 44.1875 
z
" id="DejaVuSans-109"/>
      <path d="M 56.203125 29.59375 
L 56.203125 25.203125 
L 14.890625 25.203125 
Q 15.484375 15.921875 20.484375 11.0625 
Q 25.484375 6.203125 34.421875 6.203125 
Q 39.59375 6.203125 44.453125 7.46875 
Q 49.3125 8.734375 54.109375 11.28125 
L 54.109375 2.78125 
Q 49.265625 0.734375 44.1875 -0.34375 
Q 39.109375 -1.421875 33.890625 -1.421875 
Q 20.796875 -1.421875 13.15625 6.1875 
Q 5.515625 13.8125 5.515625 26.8125 
Q 5.515625 40.234375 12.765625 48.109375 
Q 20.015625 56 32.328125 56 
Q 43.359375 56 49.78125 48.890625 
Q 56.203125 41.796875 56.203125 29.59375 
z
M 47.21875 32.234375 
Q 47.125 39.59375 43.09375 43.984375 
Q 39.0625 48.390625 32.421875 48.390625 
Q 24.90625 48.390625 20.390625 44.140625 
Q 15.875 39.890625 15.1875 32.171875 
z
" id="DejaVuSans-101"/>
      <path id="DejaVuSans-32"/>
      <path d="M 31 75.875 
Q 24.46875 64.65625 21.28125 53.65625 
Q 18.109375 42.671875 18.109375 31.390625 
Q 18.109375 20.125 21.3125 9.0625 
Q 24.515625 -2 31 -13.1875 
L 23.1875 -13.1875 
Q 15.875 -1.703125 12.234375 9.375 
Q 8.59375 20.453125 8.59375 31.390625 
Q 8.59375 42.28125 12.203125 53.3125 
Q 15.828125 64.359375 23.1875 75.875 
z
" id="DejaVuSans-40"/>
      <path d="M 44.28125 53.078125 
L 44.28125 44.578125 
Q 40.484375 46.53125 36.375 47.5 
Q 32.28125 48.484375 27.875 48.484375 
Q 21.1875 48.484375 17.84375 46.4375 
Q 14.5 44.390625 14.5 40.28125 
Q 14.5 37.15625 16.890625 35.375 
Q 19.28125 33.59375 26.515625 31.984375 
L 29.59375 31.296875 
Q 39.15625 29.25 43.1875 25.515625 
Q 47.21875 21.78125 47.21875 15.09375 
Q 47.21875 7.46875 41.1875 3.015625 
Q 35.15625 -1.421875 24.609375 -1.421875 
Q 20.21875 -1.421875 15.453125 -0.5625 
Q 10.6875 0.296875 5.421875 2 
L 5.421875 11.28125 
Q 10.40625 8.6875 15.234375 7.390625 
Q 20.0625 6.109375 24.8125 6.109375 
Q 31.15625 6.109375 34.5625 8.28125 
Q 37.984375 10.453125 37.984375 14.40625 
Q 37.984375 18.0625 35.515625 20.015625 
Q 33.0625 21.96875 24.703125 23.78125 
L 21.578125 24.515625 
Q 13.234375 26.265625 9.515625 29.90625 
Q 5.8125 33.546875 5.8125 39.890625 
Q 5.8125 47.609375 11.28125 51.796875 
Q 16.75 56 26.8125 56 
Q 31.78125 56 36.171875 55.265625 
Q 40.578125 54.546875 44.28125 53.078125 
z
" id="DejaVuSans-115"/>
      <path d="M 8.015625 75.875 
L 15.828125 75.875 
Q 23.140625 64.359375 26.78125 53.3125 
Q 30.421875 42.28125 30.421875 31.390625 
Q 30.421875 20.453125 26.78125 9.375 
Q 23.140625 -1.703125 15.828125 -13.1875 
L 8.015625 -13.1875 
Q 14.5 -2 17.703125 9.0625 
Q 20.90625 20.125 20.90625 31.390625 
Q 20.90625 42.671875 17.703125 53.65625 
Q 14.5 64.65625 8.015625 75.875 
z
" id="DejaVuSans-41"/>
     </defs>
     <g transform="translate(198.745313 269.276563)scale(0.1 -0.1)">
      <use xlink:href="#DejaVuSans-84"/>
      <use x="61.037109" xlink:href="#DejaVuSans-105"/>
      <use x="88.820312" xlink:href="#DejaVuSans-109"/>
      <use x="186.232422" xlink:href="#DejaVuSans-101"/>
      <use x="247.755859" xlink:href="#DejaVuSans-32"/>
      <use x="279.542969" xlink:href="#DejaVuSans-40"/>
      <use x="318.556641" xlink:href="#DejaVuSans-109"/>
      <use x="415.96875" xlink:href="#DejaVuSans-115"/>
      <use x="468.068359" xlink:href="#DejaVuSans-41"/>
      <use x="507.082031" xlink:href="#DejaVuSans-32"/>
     </g>
     <!--  log (base 10) -->
     <defs>
      <path d="M 9.421875 75.984375 
L 18.40625 75.984375 
L 18.40625 0 
L 9.421875 0 
z
" id="DejaVuSans-108"/>
      <path d="M 30.609375 48.390625 
Q 23.390625 48.390625 19.1875 42.75 
Q 14.984375 37.109375 14.984375 27.296875 
Q 14.984375 17.484375 19.15625 11.84375 
Q 23.34375 6.203125 30.609375 6.203125 
Q 37.796875 6.203125 41.984375 11.859375 
Q 46.1875 17.53125 46.1875 27.296875 
Q 46.1875 37.015625 41.984375 42.703125 
Q 37.796875 48.390625 30.609375 48.390625 
z
M 30.609375 56 
Q 42.328125 56 49.015625 48.375 
Q 55.71875 40.765625 55.71875 27.296875 
Q 55.71875 13.875 49.015625 6.21875 
Q 42.328125 -1.421875 30.609375 -1.421875 
Q 18.84375 -1.421875 12.171875 6.21875 
Q 5.515625 13.875 5.515625 27.296875 
Q 5.515625 40.765625 12.171875 48.375 
Q 18.84375 56 30.609375 56 
z
" id="DejaVuSans-111"/>
      <path d="M 45.40625 27.984375 
Q 45.40625 37.75 41.375 43.109375 
Q 37.359375 48.484375 30.078125 48.484375 
Q 22.859375 48.484375 18.828125 43.109375 
Q 14.796875 37.75 14.796875 27.984375 
Q 14.796875 18.265625 18.828125 12.890625 
Q 22.859375 7.515625 30.078125 7.515625 
Q 37.359375 7.515625 41.375 12.890625 
Q 45.40625 18.265625 45.40625 27.984375 
z
M 54.390625 6.78125 
Q 54.390625 -7.171875 48.1875 -13.984375 
Q 42 -20.796875 29.203125 -20.796875 
Q 24.46875 -20.796875 20.265625 -20.09375 
Q 16.0625 -19.390625 12.109375 -17.921875 
L 12.109375 -9.1875 
Q 16.0625 -11.328125 19.921875 -12.34375 
Q 23.78125 -13.375 27.78125 -13.375 
Q 36.625 -13.375 41.015625 -8.765625 
Q 45.40625 -4.15625 45.40625 5.171875 
L 45.40625 9.625 
Q 42.625 4.78125 38.28125 2.390625 
Q 33.9375 0 27.875 0 
Q 17.828125 0 11.671875 7.65625 
Q 5.515625 15.328125 5.515625 27.984375 
Q 5.515625 40.671875 11.671875 48.328125 
Q 17.828125 56 27.875 56 
Q 33.9375 56 38.28125 53.609375 
Q 42.625 51.21875 45.40625 46.390625 
L 45.40625 54.6875 
L 54.390625 54.6875 
z
" id="DejaVuSans-103"/>
      <path d="M 48.6875 27.296875 
Q 48.6875 37.203125 44.609375 42.84375 
Q 40.53125 48.484375 33.40625 48.484375 
Q 26.265625 48.484375 22.1875 42.84375 
Q 18.109375 37.203125 18.109375 27.296875 
Q 18.109375 17.390625 22.1875 11.75 
Q 26.265625 6.109375 33.40625 6.109375 
Q 40.53125 6.109375 44.609375 11.75 
Q 48.6875 17.390625 48.6875 27.296875 
z
M 18.109375 46.390625 
Q 20.953125 51.265625 25.265625 53.625 
Q 29.59375 56 35.59375 56 
Q 45.5625 56 51.78125 48.09375 
Q 58.015625 40.1875 58.015625 27.296875 
Q 58.015625 14.40625 51.78125 6.484375 
Q 45.5625 -1.421875 35.59375 -1.421875 
Q 29.59375 -1.421875 25.265625 0.953125 
Q 20.953125 3.328125 18.109375 8.203125 
L 18.109375 0 
L 9.078125 0 
L 9.078125 75.984375 
L 18.109375 75.984375 
z
" id="DejaVuSans-98"/>
      <path d="M 34.28125 27.484375 
Q 23.390625 27.484375 19.1875 25 
Q 14.984375 22.515625 14.984375 16.5 
Q 14.984375 11.71875 18.140625 8.90625 
Q 21.296875 6.109375 26.703125 6.109375 
Q 34.1875 6.109375 38.703125 11.40625 
Q 43.21875 16.703125 43.21875 25.484375 
L 43.21875 27.484375 
z
M 52.203125 31.203125 
L 52.203125 0 
L 43.21875 0 
L 43.21875 8.296875 
Q 40.140625 3.328125 35.546875 0.953125 
Q 30.953125 -1.421875 24.3125 -1.421875 
Q 15.921875 -1.421875 10.953125 3.296875 
Q 6 8.015625 6 15.921875 
Q 6 25.140625 12.171875 29.828125 
Q 18.359375 34.515625 30.609375 34.515625 
L 43.21875 34.515625 
L 43.21875 35.40625 
Q 43.21875 41.609375 39.140625 45 
Q 35.0625 48.390625 27.6875 48.390625 
Q 23 48.390625 18.546875 47.265625 
Q 14.109375 46.140625 10.015625 43.890625 
L 10.015625 52.203125 
Q 14.9375 54.109375 19.578125 55.046875 
Q 24.21875 56 28.609375 56 
Q 40.484375 56 46.34375 49.84375 
Q 52.203125 43.703125 52.203125 31.203125 
z
" id="DejaVuSans-97"/>
     </defs>
     <g transform="translate(191.114062 280.474375)scale(0.1 -0.1)">
      <use xlink:href="#DejaVuSans-32"/>
      <use x="31.787109" xlink:href="#DejaVuSans-108"/>
      <use x="59.570312" xlink:href="#DejaVuSans-111"/>
      <use x="120.751953" xlink:href="#DejaVuSans-103"/>
      <use x="184.228516" xlink:href="#DejaVuSans-32"/>
      <use x="216.015625" xlink:href="#DejaVuSans-40"/>
      <use x="255.029297" xlink:href="#DejaVuSans-98"/>
      <use x="318.505859" xlink:href="#DejaVuSans-97"/>
      <use x="379.785156" xlink:href="#DejaVuSans-115"/>
      <use x="431.884766" xlink:href="#DejaVuSans-101"/>
      <use x="493.408203" xlink:href="#DejaVuSans-32"/>
      <use x="525.195312" xlink:href="#DejaVuSans-49"/>
      <use x="588.818359" xlink:href="#DejaVuSans-48"/>
      <use x="652.441406" xlink:href="#DejaVuSans-41"/>
     </g>
    </g>
   </g>
   <g id="matplotlib.axis_2">
    <g id="ytick_1">
     <g id="line2d_43">
      <path clip-path="url(#pbfe6a450ce)" d="M 52.875 231.573341 
L 398.5 231.573341 
" style="fill:none;stroke:#b0b0b0;stroke-dasharray:3.7,1.6;stroke-dashoffset:0;"/>
     </g>
     <g id="line2d_44">
      <defs>
       <path d="M 0 0 
L -3.5 0 
" id="m00d5c97724" style="stroke:#000000;stroke-width:0.8;"/>
      </defs>
      <g>
       <use style="stroke:#000000;stroke-width:0.8;" x="52.875" xlink:href="#m00d5c97724" y="231.573341"/>
      </g>
     </g>
     <g id="text_6">
      <!-- 0.0 -->
      <defs>
       <path d="M 10.6875 12.40625 
L 21 12.40625 
L 21 0 
L 10.6875 0 
z
" id="DejaVuSans-46"/>
      </defs>
      <g transform="translate(29.971875 235.37256)scale(0.1 -0.1)">
       <use xlink:href="#DejaVuSans-48"/>
       <use x="63.623047" xlink:href="#DejaVuSans-46"/>
       <use x="95.410156" xlink:href="#DejaVuSans-48"/>
      </g>
     </g>
    </g>
    <g id="ytick_2">
     <g id="line2d_45">
      <path clip-path="url(#pbfe6a450ce)" d="M 52.875 193.845037 
L 398.5 193.845037 
" style="fill:none;stroke:#b0b0b0;stroke-dasharray:3.7,1.6;stroke-dashoffset:0;"/>
     </g>
     <g id="line2d_46">
      <g>
       <use style="stroke:#000000;stroke-width:0.8;" x="52.875" xlink:href="#m00d5c97724" y="193.845037"/>
      </g>
     </g>
     <g id="text_7">
      <!-- 0.2 -->
      <g transform="translate(29.971875 197.644256)scale(0.1 -0.1)">
       <use xlink:href="#DejaVuSans-48"/>
       <use x="63.623047" xlink:href="#DejaVuSans-46"/>
       <use x="95.410156" xlink:href="#DejaVuSans-50"/>
      </g>
     </g>
    </g>
    <g id="ytick_3">
     <g id="line2d_47">
      <path clip-path="url(#pbfe6a450ce)" d="M 52.875 156.116732 
L 398.5 156.116732 
" style="fill:none;stroke:#b0b0b0;stroke-dasharray:3.7,1.6;stroke-dashoffset:0;"/>
     </g>
     <g id="line2d_48">
      <g>
       <use style="stroke:#000000;stroke-width:0.8;" x="52.875" xlink:href="#m00d5c97724" y="156.116732"/>
      </g>
     </g>
     <g id="text_8">
      <!-- 0.4 -->
      <defs>
       <path d="M 37.796875 64.3125 
L 12.890625 25.390625 
L 37.796875 25.390625 
z
M 35.203125 72.90625 
L 47.609375 72.90625 
L 47.609375 25.390625 
L 58.015625 25.390625 
L 58.015625 17.1875 
L 47.609375 17.1875 
L 47.609375 0 
L 37.796875 0 
L 37.796875 17.1875 
L 4.890625 17.1875 
L 4.890625 26.703125 
z
" id="DejaVuSans-52"/>
      </defs>
      <g transform="translate(29.971875 159.915951)scale(0.1 -0.1)">
       <use xlink:href="#DejaVuSans-48"/>
       <use x="63.623047" xlink:href="#DejaVuSans-46"/>
       <use x="95.410156" xlink:href="#DejaVuSans-52"/>
      </g>
     </g>
    </g>
    <g id="ytick_4">
     <g id="line2d_49">
      <path clip-path="url(#pbfe6a450ce)" d="M 52.875 118.388427 
L 398.5 118.388427 
" style="fill:none;stroke:#b0b0b0;stroke-dasharray:3.7,1.6;stroke-dashoffset:0;"/>
     </g>
     <g id="line2d_50">
      <g>
       <use style="stroke:#000000;stroke-width:0.8;" x="52.875" xlink:href="#m00d5c97724" y="118.388427"/>
      </g>
     </g>
     <g id="text_9">
      <!-- 0.6 -->
      <defs>
       <path d="M 33.015625 40.375 
Q 26.375 40.375 22.484375 35.828125 
Q 18.609375 31.296875 18.609375 23.390625 
Q 18.609375 15.53125 22.484375 10.953125 
Q 26.375 6.390625 33.015625 6.390625 
Q 39.65625 6.390625 43.53125 10.953125 
Q 47.40625 15.53125 47.40625 23.390625 
Q 47.40625 31.296875 43.53125 35.828125 
Q 39.65625 40.375 33.015625 40.375 
z
M 52.59375 71.296875 
L 52.59375 62.3125 
Q 48.875 64.0625 45.09375 64.984375 
Q 41.3125 65.921875 37.59375 65.921875 
Q 27.828125 65.921875 22.671875 59.328125 
Q 17.53125 52.734375 16.796875 39.40625 
Q 19.671875 43.65625 24.015625 45.921875 
Q 28.375 48.1875 33.59375 48.1875 
Q 44.578125 48.1875 50.953125 41.515625 
Q 57.328125 34.859375 57.328125 23.390625 
Q 57.328125 12.15625 50.6875 5.359375 
Q 44.046875 -1.421875 33.015625 -1.421875 
Q 20.359375 -1.421875 13.671875 8.265625 
Q 6.984375 17.96875 6.984375 36.375 
Q 6.984375 53.65625 15.1875 63.9375 
Q 23.390625 74.21875 37.203125 74.21875 
Q 40.921875 74.21875 44.703125 73.484375 
Q 48.484375 72.75 52.59375 71.296875 
z
" id="DejaVuSans-54"/>
      </defs>
      <g transform="translate(29.971875 122.187646)scale(0.1 -0.1)">
       <use xlink:href="#DejaVuSans-48"/>
       <use x="63.623047" xlink:href="#DejaVuSans-46"/>
       <use x="95.410156" xlink:href="#DejaVuSans-54"/>
      </g>
     </g>
    </g>
    <g id="ytick_5">
     <g id="line2d_51">
      <path clip-path="url(#pbfe6a450ce)" d="M 52.875 80.660123 
L 398.5 80.660123 
" style="fill:none;stroke:#b0b0b0;stroke-dasharray:3.7,1.6;stroke-dashoffset:0;"/>
     </g>
     <g id="line2d_52">
      <g>
       <use style="stroke:#000000;stroke-width:0.8;" x="52.875" xlink:href="#m00d5c97724" y="80.660123"/>
      </g>
     </g>
     <g id="text_10">
      <!-- 0.8 -->
      <defs>
       <path d="M 31.78125 34.625 
Q 24.75 34.625 20.71875 30.859375 
Q 16.703125 27.09375 16.703125 20.515625 
Q 16.703125 13.921875 20.71875 10.15625 
Q 24.75 6.390625 31.78125 6.390625 
Q 38.8125 6.390625 42.859375 10.171875 
Q 46.921875 13.96875 46.921875 20.515625 
Q 46.921875 27.09375 42.890625 30.859375 
Q 38.875 34.625 31.78125 34.625 
z
M 21.921875 38.8125 
Q 15.578125 40.375 12.03125 44.71875 
Q 8.5 49.078125 8.5 55.328125 
Q 8.5 64.0625 14.71875 69.140625 
Q 20.953125 74.21875 31.78125 74.21875 
Q 42.671875 74.21875 48.875 69.140625 
Q 55.078125 64.0625 55.078125 55.328125 
Q 55.078125 49.078125 51.53125 44.71875 
Q 48 40.375 41.703125 38.8125 
Q 48.828125 37.15625 52.796875 32.3125 
Q 56.78125 27.484375 56.78125 20.515625 
Q 56.78125 9.90625 50.3125 4.234375 
Q 43.84375 -1.421875 31.78125 -1.421875 
Q 19.734375 -1.421875 13.25 4.234375 
Q 6.78125 9.90625 6.78125 20.515625 
Q 6.78125 27.484375 10.78125 32.3125 
Q 14.796875 37.15625 21.921875 38.8125 
z
M 18.3125 54.390625 
Q 18.3125 48.734375 21.84375 45.5625 
Q 25.390625 42.390625 31.78125 42.390625 
Q 38.140625 42.390625 41.71875 45.5625 
Q 45.3125 48.734375 45.3125 54.390625 
Q 45.3125 60.0625 41.71875 63.234375 
Q 38.140625 66.40625 31.78125 66.40625 
Q 25.390625 66.40625 21.84375 63.234375 
Q 18.3125 60.0625 18.3125 54.390625 
z
" id="DejaVuSans-56"/>
      </defs>
      <g transform="translate(29.971875 84.459342)scale(0.1 -0.1)">
       <use xlink:href="#DejaVuSans-48"/>
       <use x="63.623047" xlink:href="#DejaVuSans-46"/>
       <use x="95.410156" xlink:href="#DejaVuSans-56"/>
      </g>
     </g>
    </g>
    <g id="ytick_6">
     <g id="line2d_53">
      <path clip-path="url(#pbfe6a450ce)" d="M 52.875 42.931818 
L 398.5 42.931818 
" style="fill:none;stroke:#b0b0b0;stroke-dasharray:3.7,1.6;stroke-dashoffset:0;"/>
     </g>
     <g id="line2d_54">
      <g>
       <use style="stroke:#000000;stroke-width:0.8;" x="52.875" xlink:href="#m00d5c97724" y="42.931818"/>
      </g>
     </g>
     <g id="text_11">
      <!-- 1.0 -->
      <g transform="translate(29.971875 46.731037)scale(0.1 -0.1)">
       <use xlink:href="#DejaVuSans-49"/>
       <use x="63.623047" xlink:href="#DejaVuSans-46"/>
       <use x="95.410156" xlink:href="#DejaVuSans-48"/>
      </g>
     </g>
    </g>
    <g id="text_12">
     <!-- Fraction of Requests -->
     <defs>
      <path d="M 9.8125 72.90625 
L 51.703125 72.90625 
L 51.703125 64.59375 
L 19.671875 64.59375 
L 19.671875 43.109375 
L 48.578125 43.109375 
L 48.578125 34.8125 
L 19.671875 34.8125 
L 19.671875 0 
L 9.8125 0 
z
" id="DejaVuSans-70"/>
      <path d="M 41.109375 46.296875 
Q 39.59375 47.171875 37.8125 47.578125 
Q 36.03125 48 33.890625 48 
Q 26.265625 48 22.1875 43.046875 
Q 18.109375 38.09375 18.109375 28.8125 
L 18.109375 0 
L 9.078125 0 
L 9.078125 54.6875 
L 18.109375 54.6875 
L 18.109375 46.1875 
Q 20.953125 51.171875 25.484375 53.578125 
Q 30.03125 56 36.53125 56 
Q 37.453125 56 38.578125 55.875 
Q 39.703125 55.765625 41.0625 55.515625 
z
" id="DejaVuSans-114"/>
      <path d="M 48.78125 52.59375 
L 48.78125 44.1875 
Q 44.96875 46.296875 41.140625 47.34375 
Q 37.3125 48.390625 33.40625 48.390625 
Q 24.65625 48.390625 19.8125 42.84375 
Q 14.984375 37.3125 14.984375 27.296875 
Q 14.984375 17.28125 19.8125 11.734375 
Q 24.65625 6.203125 33.40625 6.203125 
Q 37.3125 6.203125 41.140625 7.25 
Q 44.96875 8.296875 48.78125 10.40625 
L 48.78125 2.09375 
Q 45.015625 0.34375 40.984375 -0.53125 
Q 36.96875 -1.421875 32.421875 -1.421875 
Q 20.0625 -1.421875 12.78125 6.34375 
Q 5.515625 14.109375 5.515625 27.296875 
Q 5.515625 40.671875 12.859375 48.328125 
Q 20.21875 56 33.015625 56 
Q 37.15625 56 41.109375 55.140625 
Q 45.0625 54.296875 48.78125 52.59375 
z
" id="DejaVuSans-99"/>
      <path d="M 18.3125 70.21875 
L 18.3125 54.6875 
L 36.8125 54.6875 
L 36.8125 47.703125 
L 18.3125 47.703125 
L 18.3125 18.015625 
Q 18.3125 11.328125 20.140625 9.421875 
Q 21.96875 7.515625 27.59375 7.515625 
L 36.8125 7.515625 
L 36.8125 0 
L 27.59375 0 
Q 17.1875 0 13.234375 3.875 
Q 9.28125 7.765625 9.28125 18.015625 
L 9.28125 47.703125 
L 2.6875 47.703125 
L 2.6875 54.6875 
L 9.28125 54.6875 
L 9.28125 70.21875 
z
" id="DejaVuSans-116"/>
      <path d="M 54.890625 33.015625 
L 54.890625 0 
L 45.90625 0 
L 45.90625 32.71875 
Q 45.90625 40.484375 42.875 44.328125 
Q 39.84375 48.1875 33.796875 48.1875 
Q 26.515625 48.1875 22.3125 43.546875 
Q 18.109375 38.921875 18.109375 30.90625 
L 18.109375 0 
L 9.078125 0 
L 9.078125 54.6875 
L 18.109375 54.6875 
L 18.109375 46.1875 
Q 21.34375 51.125 25.703125 53.5625 
Q 30.078125 56 35.796875 56 
Q 45.21875 56 50.046875 50.171875 
Q 54.890625 44.34375 54.890625 33.015625 
z
" id="DejaVuSans-110"/>
      <path d="M 37.109375 75.984375 
L 37.109375 68.5 
L 28.515625 68.5 
Q 23.6875 68.5 21.796875 66.546875 
Q 19.921875 64.59375 19.921875 59.515625 
L 19.921875 54.6875 
L 34.71875 54.6875 
L 34.71875 47.703125 
L 19.921875 47.703125 
L 19.921875 0 
L 10.890625 0 
L 10.890625 47.703125 
L 2.296875 47.703125 
L 2.296875 54.6875 
L 10.890625 54.6875 
L 10.890625 58.5 
Q 10.890625 67.625 15.140625 71.796875 
Q 19.390625 75.984375 28.609375 75.984375 
z
" id="DejaVuSans-102"/>
      <path d="M 44.390625 34.1875 
Q 47.5625 33.109375 50.5625 29.59375 
Q 53.5625 26.078125 56.59375 19.921875 
L 66.609375 0 
L 56 0 
L 46.6875 18.703125 
Q 43.0625 26.03125 39.671875 28.421875 
Q 36.28125 30.8125 30.421875 30.8125 
L 19.671875 30.8125 
L 19.671875 0 
L 9.8125 0 
L 9.8125 72.90625 
L 32.078125 72.90625 
Q 44.578125 72.90625 50.734375 67.671875 
Q 56.890625 62.453125 56.890625 51.90625 
Q 56.890625 45.015625 53.6875 40.46875 
Q 50.484375 35.9375 44.390625 34.1875 
z
M 19.671875 64.796875 
L 19.671875 38.921875 
L 32.078125 38.921875 
Q 39.203125 38.921875 42.84375 42.21875 
Q 46.484375 45.515625 46.484375 51.90625 
Q 46.484375 58.296875 42.84375 61.546875 
Q 39.203125 64.796875 32.078125 64.796875 
z
" id="DejaVuSans-82"/>
      <path d="M 14.796875 27.296875 
Q 14.796875 17.390625 18.875 11.75 
Q 22.953125 6.109375 30.078125 6.109375 
Q 37.203125 6.109375 41.296875 11.75 
Q 45.40625 17.390625 45.40625 27.296875 
Q 45.40625 37.203125 41.296875 42.84375 
Q 37.203125 48.484375 30.078125 48.484375 
Q 22.953125 48.484375 18.875 42.84375 
Q 14.796875 37.203125 14.796875 27.296875 
z
M 45.40625 8.203125 
Q 42.578125 3.328125 38.25 0.953125 
Q 33.9375 -1.421875 27.875 -1.421875 
Q 17.96875 -1.421875 11.734375 6.484375 
Q 5.515625 14.40625 5.515625 27.296875 
Q 5.515625 40.1875 11.734375 48.09375 
Q 17.96875 56 27.875 56 
Q 33.9375 56 38.25 53.625 
Q 42.578125 51.265625 45.40625 46.390625 
L 45.40625 54.6875 
L 54.390625 54.6875 
L 54.390625 -20.796875 
L 45.40625 -20.796875 
z
" id="DejaVuSans-113"/>
      <path d="M 8.5 21.578125 
L 8.5 54.6875 
L 17.484375 54.6875 
L 17.484375 21.921875 
Q 17.484375 14.15625 20.5 10.265625 
Q 23.53125 6.390625 29.59375 6.390625 
Q 36.859375 6.390625 41.078125 11.03125 
Q 45.3125 15.671875 45.3125 23.6875 
L 45.3125 54.6875 
L 54.296875 54.6875 
L 54.296875 0 
L 45.3125 0 
L 45.3125 8.40625 
Q 42.046875 3.421875 37.71875 1 
Q 33.40625 -1.421875 27.6875 -1.421875 
Q 18.265625 -1.421875 13.375 4.4375 
Q 8.5 10.296875 8.5 21.578125 
z
M 31.109375 56 
z
" id="DejaVuSans-117"/>
     </defs>
     <g transform="translate(23.892187 188.700781)rotate(-90)scale(0.1 -0.1)">
      <use xlink:href="#DejaVuSans-70"/>
      <use x="57.410156" xlink:href="#DejaVuSans-114"/>
      <use x="98.523438" xlink:href="#DejaVuSans-97"/>
      <use x="159.802734" xlink:href="#DejaVuSans-99"/>
      <use x="214.783203" xlink:href="#DejaVuSans-116"/>
      <use x="253.992188" xlink:href="#DejaVuSans-105"/>
      <use x="281.775391" xlink:href="#DejaVuSans-111"/>
      <use x="342.957031" xlink:href="#DejaVuSans-110"/>
      <use x="406.335938" xlink:href="#DejaVuSans-32"/>
      <use x="438.123047" xlink:href="#DejaVuSans-111"/>
      <use x="499.304688" xlink:href="#DejaVuSans-102"/>
      <use x="534.509766" xlink:href="#DejaVuSans-32"/>
      <use x="566.296875" xlink:href="#DejaVuSans-82"/>
      <use x="635.716797" xlink:href="#DejaVuSans-101"/>
      <use x="697.240234" xlink:href="#DejaVuSans-113"/>
      <use x="760.716797" xlink:href="#DejaVuSans-117"/>
      <use x="824.095703" xlink:href="#DejaVuSans-101"/>
      <use x="885.619141" xlink:href="#DejaVuSans-115"/>
      <use x="937.71875" xlink:href="#DejaVuSans-116"/>
      <use x="976.927734" xlink:href="#DejaVuSans-115"/>
     </g>
    </g>
   </g>
   <g id="line2d_55">
    <path clip-path="url(#pbfe6a450ce)" d="M 79.213794 231.567739 
L 84.527732 231.444496 
L 84.787087 231.382874 
L 86.119328 231.23162 
L 87.607598 230.744246 
L 87.772367 230.688227 
L 88.614308 230.116823 
L 88.794132 229.971171 
L 89.219835 229.607042 
L 91.177969 227.220593 
L 91.381451 226.839657 
L 91.647798 226.346682 
L 91.939255 225.80889 
L 92.550289 224.593258 
L 92.825183 224.072272 
L 93.429046 222.526122 
L 93.532961 222.274033 
L 94.780365 218.750379 
L 95.054108 217.758826 
L 95.862135 214.929819 
L 96.278854 213.445291 
L 98.978154 199.61397 
L 99.488461 196.263978 
L 100.076505 191.956045 
L 100.380782 189.653625 
L 100.953463 184.774289 
L 101.496062 179.889351 
L 104.147275 154.904461 
L 104.553854 150.921444 
L 104.690352 149.599373 
L 104.992382 146.787172 
L 105.084297 146.042107 
L 108.340982 117.247862 
L 109.812435 106.245547 
L 109.907913 105.590114 
L 110.208472 103.578998 
L 110.677603 100.475494 
L 110.940549 98.817304 
L 110.976479 98.63804 
L 111.992032 92.711131 
L 112.175657 91.702772 
L 112.837212 87.966243 
L 113.088579 86.700192 
L 113.481164 84.722688 
L 113.580967 84.212907 
L 114.787967 79.047869 
L 114.829135 78.896615 
L 115.038762 78.112336 
L 115.233536 77.384077 
L 115.708883 75.585837 
L 115.979397 74.616692 
L 116.22144 73.781995 
L 116.483503 72.818453 
L 116.825448 71.636432 
L 116.971544 71.277904 
L 117.274582 70.28075 
L 117.393338 69.961436 
L 117.566474 69.384431 
L 117.905908 68.48251 
L 118.134438 67.782261 
L 118.349075 67.222061 
L 120.357067 62.051421 
L 120.449925 61.855352 
L 120.646395 61.491222 
L 120.937048 60.875003 
L 121.308144 60.118734 
L 121.469679 59.866644 
L 122.052931 58.830275 
L 125.450185 53.861307 
L 125.635966 53.670839 
L 125.787802 53.469168 
L 126.105736 53.144252 
L 126.927393 52.298351 
L 127.092495 52.119087 
L 127.31976 51.934221 
L 127.729332 51.56449 
L 127.989341 51.3124 
L 128.155428 51.155544 
L 128.937756 50.589743 
L 132.304808 48.606637 
L 132.671323 48.44418 
L 132.831751 48.348946 
L 136.157584 47.066089 
L 136.560813 46.920437 
L 136.689396 46.881223 
L 137.81112 46.612328 
L 138.529553 46.433064 
L 138.742552 46.36584 
L 139.988494 46.119352 
L 141.674247 45.816845 
L 144.088669 45.592765 
L 147.447052 45.150208 
L 149.780264 44.898118 
L 150.026721 44.87571 
L 152.58874 44.640426 
L 165.785907 43.928973 
L 174.456967 43.732903 
L 191.168492 43.559241 
L 192.77087 43.520027 
L 205.38126 43.295948 
L 211.14854 43.167102 
L 283.783706 42.931818 
L 283.783706 42.931818 
" style="fill:none;stroke:#00aff0;stroke-dasharray:7.4,3.2;stroke-dashoffset:0;stroke-width:2;"/>
   </g>
   <g id="line2d_56">
    <path clip-path="url(#pbfe6a450ce)" d="M 68.585227 231.567633 
L 84.437047 231.424926 
L 88.180771 231.133804 
L 88.342745 231.082429 
L 89.308253 230.911181 
L 94.638466 228.730618 
L 94.863554 228.605036 
L 95.350201 228.331039 
L 95.603085 228.216873 
L 96.816069 227.531879 
L 100.345543 224.826155 
L 100.668349 224.512199 
L 100.82859 224.329534 
L 101.270477 223.815789 
L 101.604891 223.393376 
L 104.096891 219.009418 
L 104.266634 218.626963 
L 104.385567 218.375799 
L 107.125677 210.57258 
L 107.303658 209.881878 
L 107.673793 208.443392 
L 107.92204 207.478692 
L 107.983814 207.261778 
L 108.101431 206.89074 
L 108.776661 204.019475 
L 110.098054 198.042906 
L 110.396916 196.621544 
L 110.568727 195.679678 
L 112.091414 188.498662 
L 112.333659 187.271382 
L 112.461487 186.700554 
L 112.705945 185.439024 
L 112.890544 184.3887 
L 113.155933 183.104337 
L 113.466882 181.585935 
L 114.047491 178.760337 
L 114.094255 178.543422 
L 117.84331 159.677557 
L 118.237801 157.348579 
L 118.414841 156.532295 
L 118.851354 154.254691 
L 119.061449 153.284284 
L 119.580981 150.395894 
L 119.727383 149.642401 
L 120.151087 147.387631 
L 120.384177 146.126101 
L 120.914193 143.032213 
L 120.963692 142.775341 
L 121.342018 140.754609 
L 121.559501 139.510204 
L 121.808981 138.242966 
L 122.027141 137.221184 
L 122.426475 135.440201 
L 122.499232 135.126246 
L 122.968329 132.85435 
L 123.007721 132.68881 
L 123.36726 131.176116 
L 123.561434 130.359832 
L 123.974256 128.653056 
L 124.313274 127.163195 
L 124.399211 126.81499 
L 124.896713 124.8913 
L 124.987911 124.520262 
L 125.41024 122.69932 
L 126.368929 119.074563 
L 126.478791 118.663567 
L 126.658955 118.047072 
L 126.739073 117.681742 
L 127.146295 116.100549 
L 127.241024 115.712386 
L 129.634745 106.641929 
L 129.801634 106.093934 
L 129.961881 105.540231 
L 130.257047 104.461366 
L 132.076406 97.685638 
L 132.193521 97.331725 
L 135.602444 86.948364 
L 135.64906 86.805657 
L 135.795841 86.309037 
L 136.077804 85.515586 
L 139.96911 76.622086 
L 140.188141 76.154007 
L 140.444001 75.57747 
L 140.897573 74.78402 
L 141.293343 74.01911 
L 141.518293 73.665197 
L 141.860029 73.042994 
L 141.959639 72.860329 
L 142.192259 72.506416 
L 142.278824 72.358001 
L 142.563108 71.884213 
L 144.867993 68.767493 
L 145.029479 68.601953 
L 145.186502 68.37933 
L 146.244057 67.237674 
L 146.445221 67.037884 
L 146.629299 66.798136 
L 146.8229 66.621179 
L 146.999679 66.409973 
L 147.341817 65.98756 
L 147.798301 65.439566 
L 147.944562 65.251192 
L 148.080047 65.062819 
L 148.488245 64.514824 
L 149.05771 63.738498 
L 149.160959 63.590083 
L 149.381137 63.224753 
L 150.4655 61.980348 
L 150.669455 61.763433 
L 150.797467 61.620726 
L 150.926542 61.546519 
L 151.509679 61.067023 
L 151.625399 60.958566 
L 151.79672 60.815859 
L 152.087312 60.501903 
L 152.224949 60.290697 
L 153.119113 59.668495 
L 153.345102 59.48583 
L 154.17357 58.95496 
L 154.389763 58.829377 
L 154.700364 58.698087 
L 154.877351 58.618171 
L 156.304114 57.898928 
L 156.588327 57.744804 
L 157.134138 57.447974 
L 157.323085 57.350933 
L 157.812943 57.099769 
L 158.488137 56.814355 
L 158.870896 56.677356 
L 163.492153 54.399752 
L 164.095175 54.07438 
L 165.647318 53.429345 
L 166.188427 53.17818 
L 166.728653 52.995516 
L 167.615402 52.710102 
L 168.591028 52.379021 
L 168.88795 52.293397 
L 169.655268 52.144982 
L 169.768508 52.11644 
L 170.805882 51.865276 
L 171.091483 51.808193 
L 172.289624 51.568446 
L 174.636862 51.231657 
L 175.911637 51.083242 
L 181.600394 50.529539 
L 186.800347 50.198458 
L 186.940641 50.187042 
L 188.394152 50.038627 
L 188.809865 49.924461 
L 192.543801 49.49634 
L 192.96951 49.370758 
L 193.352818 49.222343 
L 197.318148 48.132061 
L 197.481178 48.074978 
L 198.550295 47.846647 
L 198.628586 47.818106 
L 199.746185 47.635441 
L 200.027342 47.595483 
L 200.855496 47.447068 
L 201.362346 47.361443 
L 201.954791 47.150237 
L 202.158451 47.00753 
L 203.551624 46.51091 
L 203.854265 46.430994 
L 204.298748 46.265454 
L 204.447065 46.168413 
L 206.038618 45.563335 
L 209.011192 44.872633 
L 217.665174 43.942184 
L 219.762689 43.793768 
L 220.879252 43.75381 
L 228.81656 43.194399 
L 258.728848 42.966068 
L 285.3266 42.931818 
L 285.3266 42.931818 
" style="fill:none;stroke:#800000;stroke-dasharray:7.4,3.2;stroke-dashoffset:0;stroke-width:2;"/>
   </g>
   <g id="line2d_57">
    <path clip-path="url(#pbfe6a450ce)" d="M 104.752213 231.566837 
L 106.644428 231.430244 
L 108.285426 231.170067 
L 108.429681 231.118031 
L 109.625999 230.916394 
L 110.318527 230.747279 
L 114.93867 230.064313 
L 115.08416 230.031791 
L 117.389104 229.58949 
L 128.305425 228.080462 
L 129.425694 227.729222 
L 130.606698 227.293426 
L 131.186112 226.9617 
L 131.498477 226.831611 
L 131.780434 226.662496 
L 132.040918 226.49338 
L 132.166321 226.428336 
L 132.483177 226.246212 
L 133.049765 225.849442 
L 133.184646 225.764884 
L 133.429211 225.602273 
L 135.631893 223.917626 
L 135.929827 223.742006 
L 136.075383 223.657448 
L 136.952162 223.020014 
L 137.102732 222.870412 
L 137.245616 222.688288 
L 138.89641 221.406915 
L 139.318649 220.977622 
L 139.555061 220.802003 
L 140.218093 220.281648 
L 140.384475 220.125542 
L 140.552151 219.956427 
L 140.681048 219.819834 
L 140.893382 219.670232 
L 141.096044 219.540143 
L 141.270558 219.358019 
L 145.680442 216.034255 
L 145.951732 215.871644 
L 149.338845 213.549562 
L 149.783476 213.373942 
L 151.278566 212.612924 
L 151.739205 212.450313 
L 152.195076 212.203144 
L 152.669866 211.981994 
L 153.274283 211.630754 
L 153.405685 211.546197 
L 153.684103 211.396595 
L 154.991617 210.414426 
L 155.298061 210.134735 
L 155.681245 209.776991 
L 155.810238 209.679425 
L 156.184974 209.354203 
L 156.308078 209.282655 
L 156.478087 209.120044 
L 156.677303 208.944424 
L 157.204958 208.489114 
L 157.507146 208.196415 
L 158.137238 207.565485 
L 158.350456 207.331325 
L 158.514121 207.058139 
L 160.238773 204.612473 
L 160.409831 204.274242 
L 160.526491 203.994552 
L 160.668267 203.701852 
L 160.742401 203.558755 
L 161.540428 200.996009 
L 161.735307 200.261008 
L 161.789177 199.987822 
L 162.208179 198.205608 
L 162.62418 196.143703 
L 162.820471 195.129012 
L 164.155824 186.478118 
L 164.33815 185.138205 
L 164.92623 180.760722 
L 165.102381 179.498863 
L 165.197705 178.835411 
L 165.471011 176.747488 
L 165.533225 176.350718 
L 166.418652 169.878808 
L 166.651179 168.246196 
L 168.978504 153.38357 
L 169.008333 153.194942 
L 169.80911 148.225556 
L 169.855829 147.958874 
L 170.401896 144.745685 
L 170.49363 144.34241 
L 172.373876 135.470366 
L 172.520604 134.943507 
L 172.774223 133.798727 
L 172.89026 133.323903 
L 173.04115 132.679964 
L 173.28689 131.580716 
L 173.372632 131.229476 
L 173.985434 129.174076 
L 174.067075 128.907394 
L 174.259887 128.21142 
L 174.681113 127.073144 
L 174.852983 126.55279 
L 174.976396 126.260091 
L 175.284821 125.421019 
L 178.397041 118.923092 
L 178.618704 118.623888 
L 179.010144 117.960436 
L 179.087751 117.817338 
L 179.595092 117.062824 
L 179.683172 116.867691 
L 180.998086 114.909858 
L 181.108979 114.695211 
L 181.259606 114.409016 
L 181.39771 114.25291 
L 181.540215 114.051273 
L 181.667889 113.914679 
L 181.822797 113.732555 
L 181.984345 113.459369 
L 182.226123 113.121139 
L 182.415391 112.841448 
L 182.776981 112.399147 
L 182.916714 112.204014 
L 183.142987 111.937332 
L 183.299469 111.774722 
L 183.618423 111.462509 
L 183.791282 111.241358 
L 184.722675 110.135605 
L 184.907338 109.940472 
L 185.423786 109.465648 
L 185.522046 109.361577 
L 185.681517 109.211975 
L 185.804721 109.029851 
L 186.062796 108.750161 
L 186.411339 108.301355 
L 186.75044 107.930602 
L 187.203229 107.527328 
L 187.444521 107.260646 
L 187.709391 107.052504 
L 188.592851 106.115866 
L 188.720323 105.966264 
L 188.916102 105.803653 
L 189.456006 105.38737 
L 189.577304 105.192237 
L 189.863636 104.964582 
L 190.003718 104.834493 
L 190.424758 104.515776 
L 190.684118 104.307634 
L 190.85701 104.132014 
L 191.344922 103.748253 
L 191.469256 103.650687 
L 191.921986 103.364492 
L 192.197571 103.149845 
L 192.599152 102.896172 
L 192.710913 102.831128 
L 194.423036 101.868472 
L 194.783017 101.731879 
L 194.931006 101.634313 
L 195.401443 101.43918 
L 195.502184 101.406658 
L 198.292882 100.743206 
L 199.494227 100.57409 
L 199.66217 100.554577 
L 201.582933 100.378957 
L 201.792591 100.359444 
L 204.396655 99.988692 
L 204.507395 99.884621 
L 204.839595 99.695992 
L 205.010772 99.565904 
L 205.256591 99.357762 
L 205.428385 99.227673 
L 205.605043 99.110593 
L 205.988462 98.876434 
L 206.199917 98.75285 
L 206.478123 98.609752 
L 206.610938 98.531699 
L 207.101165 98.232495 
L 207.22203 98.160946 
L 207.422124 97.972318 
L 208.070384 97.484485 
L 208.269105 97.302361 
L 208.679029 96.905591 
L 208.812455 96.762494 
L 209.242109 96.391741 
L 209.362509 96.242139 
L 209.569017 96.047006 
L 209.793459 95.747802 
L 210.01349 95.526652 
L 210.204967 95.194926 
L 210.481655 94.68758 
L 210.607047 94.485942 
L 210.744929 94.05665 
L 210.832142 93.861517 
L 210.995602 93.42572 
L 211.132663 92.976914 
L 211.31887 92.33948 
L 211.461716 91.949214 
L 211.633237 91.435364 
L 211.805388 90.849965 
L 212.168416 89.913327 
L 212.248529 89.737707 
L 212.394617 89.405981 
L 212.507637 89.204344 
L 212.732538 88.710007 
L 213.071427 88.014033 
L 213.202174 87.792882 
L 213.323777 87.532705 
L 213.480056 87.233501 
L 213.926184 86.257837 
L 214.086243 85.919606 
L 214.236204 85.64642 
L 214.437508 85.145579 
L 214.598145 84.690269 
L 214.724674 84.254472 
L 214.818398 83.903232 
L 215.000953 83.402391 
L 215.206787 83.012125 
L 215.356554 82.628364 
L 215.548099 82.283629 
L 215.763536 81.724248 
L 215.995094 81.034778 
L 216.11248 80.800619 
L 216.408639 80.026591 
L 216.540275 79.707874 
L 216.644908 79.402166 
L 216.801353 78.946856 
L 217.083779 78.315926 
L 217.176254 78.101279 
L 217.341087 77.730527 
L 217.478853 77.457341 
L 217.721162 76.858933 
L 217.886684 76.566234 
L 217.986774 76.332074 
L 218.202231 75.883268 
L 218.304895 75.675127 
L 218.490378 75.278356 
L 218.975164 74.426276 
L 219.093049 74.15309 
L 219.793538 72.702601 
L 219.891829 72.539991 
L 220.032642 72.20176 
L 221.829407 68.500739 
L 221.951372 68.325119 
L 222.223212 67.869809 
L 222.300869 67.726711 
L 222.541503 67.381976 
L 222.656911 67.199852 
L 223.503179 66.250205 
L 223.622545 66.133125 
L 224.601137 65.39162 
L 225.429209 64.793213 
L 225.711555 64.650115 
L 227.24045 63.726486 
L 227.712264 63.576884 
L 227.818303 63.518344 
L 228.398559 63.225645 
L 228.68321 63.04352 
L 229.606557 62.724803 
L 230.667501 62.438608 
L 231.742 62.262989 
L 232.736358 61.963785 
L 234.876051 61.573519 
L 235.372783 61.469448 
L 237.587094 61.248297 
L 238.692848 60.994625 
L 239.871639 60.188075 
L 239.997889 60.116526 
L 240.245003 59.921393 
L 240.55164 59.589667 
L 240.790279 59.453074 
L 241.091558 59.290463 
L 241.878431 58.848162 
L 242.418491 58.074135 
L 242.710681 57.892011 
L 244.978037 56.76024 
L 245.708646 56.558602 
L 245.793911 56.487053 
L 246.57438 56.24639 
L 246.690097 56.233381 
L 249.385468 55.407318 
L 250.805993 54.821919 
L 251.267111 54.678822 
L 251.875406 54.503202 
L 252.033279 54.379618 
L 252.611403 53.748688 
L 252.799063 53.449484 
L 254.083909 52.207138 
L 254.8362 51.777845 
L 254.997471 51.699792 
L 256.787238 50.886738 
L 256.894737 50.808685 
L 257.358518 50.633065 
L 257.778803 50.353375 
L 257.936738 50.275321 
L 258.516168 49.780985 
L 258.657199 49.585852 
L 258.783115 49.43625 
L 259.485444 48.876869 
L 259.868051 48.655718 
L 259.977026 48.603682 
L 260.703395 48.330496 
L 261.21587 48.17439 
L 262.028025 47.810142 
L 262.155682 47.771115 
L 262.422128 47.634522 
L 262.648276 47.536956 
L 265.702493 46.236069 
L 266.094518 46.105981 
L 266.31612 46.047441 
L 267.692003 45.761246 
L 268.87556 45.143325 
L 269.04024 45.052263 
L 269.184733 44.889652 
L 269.481465 44.603457 
L 269.740974 44.317262 
L 270.457577 43.783899 
L 270.807578 43.614783 
L 271.116739 43.465182 
L 272.56718 43.146464 
L 275.703563 42.957836 
L 278.65323 42.931818 
L 278.65323 42.931818 
" style="fill:none;stroke:#ff5500;stroke-dasharray:7.4,3.2;stroke-dashoffset:0;stroke-width:2;"/>
   </g>
   <g id="line2d_58">
    <path clip-path="url(#pbfe6a450ce)" d="M 209.174821 231.568182 
L 237.045498 231.44951 
L 237.582684 231.361796 
L 239.164561 231.201848 
L 239.803067 231.145092 
L 273.226759 230.670405 
L 274.585785 230.494977 
L 275.249913 230.433061 
L 276.330985 230.371146 
L 286.933603 230.231836 
L 297.311989 229.937736 
L 299.047141 229.726191 
L 299.21035 229.664275 
L 299.447474 229.494007 
L 299.567487 229.416613 
L 299.870544 229.272143 
L 299.999199 229.220547 
L 300.604563 228.983203 
L 301.6828 228.229896 
L 304.75302 227.641697 
L 312.343586 226.258914 
L 312.921233 225.655237 
L 314.021595 224.89161 
L 314.326195 224.520116 
L 314.514645 224.241496 
L 314.632035 224.127984 
L 314.825159 223.937077 
L 314.940388 223.833885 
L 316.237992 223.054779 
L 316.723181 222.827755 
L 316.869566 222.776159 
L 317.414256 222.590412 
L 317.637237 222.4769 
L 317.94911 222.322111 
L 318.269838 222.146683 
L 318.423038 222.028011 
L 321.838482 220.918689 
L 323.368367 220.500758 
L 323.659096 220.361448 
L 324.008818 220.18602 
L 324.593624 219.835165 
L 324.870131 219.644259 
L 325.12063 219.401756 
L 325.422249 218.973506 
L 326.625575 217.141834 
L 326.779586 216.971566 
L 326.950135 216.729063 
L 327.02361 216.594912 
L 327.165957 216.311132 
L 327.394069 215.826126 
L 329.341799 212.312413 
L 329.848008 210.939949 
L 329.927857 210.661329 
L 330.044665 210.320793 
L 330.222548 209.877064 
L 330.611887 208.592314 
L 330.702412 208.324013 
L 330.853351 207.627462 
L 330.983436 207.0857 
L 331.923277 202.921872 
L 331.972913 202.730965 
L 332.083554 202.261438 
L 333.806112 195.455876 
L 333.860439 195.24949 
L 333.992732 194.692249 
L 334.631539 192.380732 
L 334.742531 192.060834 
L 334.82635 191.782214 
L 334.947933 191.317846 
L 335.16944 190.5439 
L 335.286727 190.100172 
L 335.460032 189.55841 
L 335.536972 189.290108 
L 336.273211 186.534862 
L 336.43225 186.116931 
L 336.546709 185.776395 
L 336.654013 185.466817 
L 336.998401 184.625796 
L 337.496556 183.635145 
L 337.545988 183.500995 
L 337.780099 183.041787 
L 337.933951 182.819922 
L 338.225927 182.242043 
L 338.345326 181.984061 
L 338.627853 181.323627 
L 338.883542 180.781865 
L 339.191791 180.023399 
L 339.420873 179.559031 
L 339.530076 179.404242 
L 339.655991 179.172058 
L 340.115455 178.222685 
L 340.224821 178.042098 
L 340.337165 177.789275 
L 340.44623 177.608688 
L 340.540811 177.361025 
L 340.643902 177.1598 
L 340.749717 176.968893 
L 341.224882 176.055637 
L 341.683513 175.199137 
L 341.875321 174.899878 
L 343.164817 172.387134 
L 343.281763 172.031119 
L 343.361299 171.835053 
L 343.453215 171.504836 
L 343.71248 170.823764 
L 343.773533 170.648336 
L 343.886887 170.354237 
L 344.870491 167.552554 
L 344.98865 167.165581 
L 345.055221 166.984994 
L 345.189627 166.561903 
L 345.26883 166.231686 
L 345.404952 165.870512 
L 346.150096 163.548675 
L 346.231944 163.290693 
L 346.479752 162.532226 
L 347.392977 159.890491 
L 347.689929 159.261016 
L 348.411396 156.541886 
L 348.527099 156.072359 
L 348.745573 155.231338 
L 348.860231 154.792769 
L 348.90138 154.622501 
L 349.045785 154.07042 
L 349.090833 153.879513 
L 349.700108 151.227459 
L 349.743097 150.979797 
L 349.923174 149.916911 
L 350.039821 149.122327 
L 350.180494 148.131676 
L 350.275907 147.486722 
L 350.390669 146.79533 
L 351.04125 142.249689 
L 351.073497 142.063942 
L 351.272929 140.53153 
L 351.330332 140.154876 
L 351.449641 139.138427 
L 351.510518 138.658581 
L 354.03768 115.951015 
L 356.613692 96.421785 
L 356.664951 96.153484 
L 356.724161 95.77683 
L 356.997254 93.970957 
L 357.052898 93.50143 
L 357.384552 90.870014 
L 357.466651 90.204421 
L 357.799969 87.088 
L 357.849654 86.608153 
L 358.018625 85.246009 
L 358.105022 84.415307 
L 358.269339 82.841618 
L 358.425407 81.128618 
L 358.492866 80.416588 
L 358.626435 78.96157 
L 358.719908 78.068953 
L 358.858427 76.510742 
L 358.900849 76.11861 
L 359.262759 72.527501 
L 361.236505 53.617428 
L 361.327488 52.931197 
L 361.476252 51.832194 
L 361.602912 51.016971 
L 361.717458 50.408134 
L 361.840344 49.804456 
L 361.970048 49.144022 
L 362.021672 48.89636 
L 362.141553 48.32364 
L 362.362963 47.539375 
L 362.480884 46.987294 
L 363.431478 44.257845 
L 363.528609 44.087577 
L 363.688217 43.808957 
L 364.453986 43.179481 
L 368.820323 43.014372 
L 382.789773 42.931818 
L 382.789773 42.931818 
" style="fill:none;stroke:#58b792;stroke-dasharray:7.4,3.2;stroke-dashoffset:0;stroke-width:2;"/>
   </g>
   <g id="patch_3">
    <path d="M 52.875 241 
L 52.875 33.5 
" style="fill:none;stroke:#000000;stroke-linecap:square;stroke-linejoin:miter;stroke-width:0.8;"/>
   </g>
   <g id="patch_4">
    <path d="M 398.5 241 
L 398.5 33.5 
" style="fill:none;stroke:#000000;stroke-linecap:square;stroke-linejoin:miter;stroke-width:0.8;"/>
   </g>
   <g id="patch_5">
    <path d="M 52.875 241 
L 398.5 241 
" style="fill:none;stroke:#000000;stroke-linecap:square;stroke-linejoin:miter;stroke-width:0.8;"/>
   </g>
   <g id="patch_6">
    <path d="M 52.875 33.5 
L 398.5 33.5 
" style="fill:none;stroke:#000000;stroke-linecap:square;stroke-linejoin:miter;stroke-width:0.8;"/>
   </g>
   <g id="legend_1">
    <g id="patch_7">
     <path d="M 292.7125 236 
L 391.5 236 
Q 393.5 236 393.5 234 
L 393.5 176.2875 
Q 393.5 174.2875 391.5 174.2875 
L 292.7125 174.2875 
Q 290.7125 174.2875 290.7125 176.2875 
L 290.7125 234 
Q 290.7125 236 292.7125 236 
z
" style="fill:#ffffff;opacity:0.8;stroke:#cccccc;stroke-linejoin:miter;"/>
    </g>
    <g id="line2d_59">
     <path d="M 294.7125 182.385938 
L 314.7125 182.385938 
" style="fill:none;stroke:#00aff0;stroke-dasharray:7.4,3.2;stroke-dashoffset:0;stroke-width:2;"/>
    </g>
    <g id="line2d_60"/>
    <g id="text_13">
     <!-- Cliqz -->
     <defs>
      <path d="M 64.40625 67.28125 
L 64.40625 56.890625 
Q 59.421875 61.53125 53.78125 63.8125 
Q 48.140625 66.109375 41.796875 66.109375 
Q 29.296875 66.109375 22.65625 58.46875 
Q 16.015625 50.828125 16.015625 36.375 
Q 16.015625 21.96875 22.65625 14.328125 
Q 29.296875 6.6875 41.796875 6.6875 
Q 48.140625 6.6875 53.78125 8.984375 
Q 59.421875 11.28125 64.40625 15.921875 
L 64.40625 5.609375 
Q 59.234375 2.09375 53.4375 0.328125 
Q 47.65625 -1.421875 41.21875 -1.421875 
Q 24.65625 -1.421875 15.125 8.703125 
Q 5.609375 18.84375 5.609375 36.375 
Q 5.609375 53.953125 15.125 64.078125 
Q 24.65625 74.21875 41.21875 74.21875 
Q 47.75 74.21875 53.53125 72.484375 
Q 59.328125 70.75 64.40625 67.28125 
z
" id="DejaVuSans-67"/>
      <path d="M 5.515625 54.6875 
L 48.1875 54.6875 
L 48.1875 46.484375 
L 14.40625 7.171875 
L 48.1875 7.171875 
L 48.1875 0 
L 4.296875 0 
L 4.296875 8.203125 
L 38.09375 47.515625 
L 5.515625 47.515625 
z
" id="DejaVuSans-122"/>
     </defs>
     <g transform="translate(322.7125 185.885938)scale(0.1 -0.1)">
      <use xlink:href="#DejaVuSans-67"/>
      <use x="69.824219" xlink:href="#DejaVuSans-108"/>
      <use x="97.607422" xlink:href="#DejaVuSans-105"/>
      <use x="125.390625" xlink:href="#DejaVuSans-113"/>
      <use x="188.867188" xlink:href="#DejaVuSans-122"/>
     </g>
    </g>
    <g id="line2d_61">
     <path d="M 294.7125 197.064063 
L 314.7125 197.064063 
" style="fill:none;stroke:#800000;stroke-dasharray:7.4,3.2;stroke-dashoffset:0;stroke-width:2;"/>
    </g>
    <g id="line2d_62"/>
    <g id="text_14">
     <!-- uBlock Origin -->
     <defs>
      <path d="M 19.671875 34.8125 
L 19.671875 8.109375 
L 35.5 8.109375 
Q 43.453125 8.109375 47.28125 11.40625 
Q 51.125 14.703125 51.125 21.484375 
Q 51.125 28.328125 47.28125 31.5625 
Q 43.453125 34.8125 35.5 34.8125 
z
M 19.671875 64.796875 
L 19.671875 42.828125 
L 34.28125 42.828125 
Q 41.5 42.828125 45.03125 45.53125 
Q 48.578125 48.25 48.578125 53.8125 
Q 48.578125 59.328125 45.03125 62.0625 
Q 41.5 64.796875 34.28125 64.796875 
z
M 9.8125 72.90625 
L 35.015625 72.90625 
Q 46.296875 72.90625 52.390625 68.21875 
Q 58.5 63.53125 58.5 54.890625 
Q 58.5 48.1875 55.375 44.234375 
Q 52.25 40.28125 46.1875 39.3125 
Q 53.46875 37.75 57.5 32.78125 
Q 61.53125 27.828125 61.53125 20.40625 
Q 61.53125 10.640625 54.890625 5.3125 
Q 48.25 0 35.984375 0 
L 9.8125 0 
z
" id="DejaVuSans-66"/>
      <path d="M 9.078125 75.984375 
L 18.109375 75.984375 
L 18.109375 31.109375 
L 44.921875 54.6875 
L 56.390625 54.6875 
L 27.390625 29.109375 
L 57.625 0 
L 45.90625 0 
L 18.109375 26.703125 
L 18.109375 0 
L 9.078125 0 
z
" id="DejaVuSans-107"/>
      <path d="M 39.40625 66.21875 
Q 28.65625 66.21875 22.328125 58.203125 
Q 16.015625 50.203125 16.015625 36.375 
Q 16.015625 22.609375 22.328125 14.59375 
Q 28.65625 6.59375 39.40625 6.59375 
Q 50.140625 6.59375 56.421875 14.59375 
Q 62.703125 22.609375 62.703125 36.375 
Q 62.703125 50.203125 56.421875 58.203125 
Q 50.140625 66.21875 39.40625 66.21875 
z
M 39.40625 74.21875 
Q 54.734375 74.21875 63.90625 63.9375 
Q 73.09375 53.65625 73.09375 36.375 
Q 73.09375 19.140625 63.90625 8.859375 
Q 54.734375 -1.421875 39.40625 -1.421875 
Q 24.03125 -1.421875 14.8125 8.828125 
Q 5.609375 19.09375 5.609375 36.375 
Q 5.609375 53.65625 14.8125 63.9375 
Q 24.03125 74.21875 39.40625 74.21875 
z
" id="DejaVuSans-79"/>
     </defs>
     <g transform="translate(322.7125 200.564063)scale(0.1 -0.1)">
      <use xlink:href="#DejaVuSans-117"/>
      <use x="63.378906" xlink:href="#DejaVuSans-66"/>
      <use x="131.982422" xlink:href="#DejaVuSans-108"/>
      <use x="159.765625" xlink:href="#DejaVuSans-111"/>
      <use x="220.947266" xlink:href="#DejaVuSans-99"/>
      <use x="275.927734" xlink:href="#DejaVuSans-107"/>
      <use x="333.837891" xlink:href="#DejaVuSans-32"/>
      <use x="365.625" xlink:href="#DejaVuSans-79"/>
      <use x="444.335938" xlink:href="#DejaVuSans-114"/>
      <use x="485.449219" xlink:href="#DejaVuSans-105"/>
      <use x="513.232422" xlink:href="#DejaVuSans-103"/>
      <use x="576.708984" xlink:href="#DejaVuSans-105"/>
      <use x="604.492188" xlink:href="#DejaVuSans-110"/>
     </g>
    </g>
    <g id="line2d_63">
     <path d="M 294.7125 211.742188 
L 314.7125 211.742188 
" style="fill:none;stroke:#ff5500;stroke-dasharray:7.4,3.2;stroke-dashoffset:0;stroke-width:2;"/>
    </g>
    <g id="line2d_64"/>
    <g id="text_15">
     <!-- Brave -->
     <defs>
      <path d="M 2.984375 54.6875 
L 12.5 54.6875 
L 29.59375 8.796875 
L 46.6875 54.6875 
L 56.203125 54.6875 
L 35.6875 0 
L 23.484375 0 
z
" id="DejaVuSans-118"/>
     </defs>
     <g transform="translate(322.7125 215.242188)scale(0.1 -0.1)">
      <use xlink:href="#DejaVuSans-66"/>
      <use x="68.603516" xlink:href="#DejaVuSans-114"/>
      <use x="109.716797" xlink:href="#DejaVuSans-97"/>
      <use x="170.996094" xlink:href="#DejaVuSans-118"/>
      <use x="230.175781" xlink:href="#DejaVuSans-101"/>
     </g>
    </g>
    <g id="line2d_65">
     <path d="M 294.7125 226.420313 
L 314.7125 226.420313 
" style="fill:none;stroke:#58b792;stroke-dasharray:7.4,3.2;stroke-dashoffset:0;stroke-width:2;"/>
    </g>
    <g id="line2d_66"/>
    <g id="text_16">
     <!-- DuckDuckGo -->
     <defs>
      <path d="M 19.671875 64.796875 
L 19.671875 8.109375 
L 31.59375 8.109375 
Q 46.6875 8.109375 53.6875 14.9375 
Q 60.6875 21.78125 60.6875 36.53125 
Q 60.6875 51.171875 53.6875 57.984375 
Q 46.6875 64.796875 31.59375 64.796875 
z
M 9.8125 72.90625 
L 30.078125 72.90625 
Q 51.265625 72.90625 61.171875 64.09375 
Q 71.09375 55.28125 71.09375 36.53125 
Q 71.09375 17.671875 61.125 8.828125 
Q 51.171875 0 30.078125 0 
L 9.8125 0 
z
" id="DejaVuSans-68"/>
      <path d="M 59.515625 10.40625 
L 59.515625 29.984375 
L 43.40625 29.984375 
L 43.40625 38.09375 
L 69.28125 38.09375 
L 69.28125 6.78125 
Q 63.578125 2.734375 56.6875 0.65625 
Q 49.8125 -1.421875 42 -1.421875 
Q 24.90625 -1.421875 15.25 8.5625 
Q 5.609375 18.5625 5.609375 36.375 
Q 5.609375 54.25 15.25 64.234375 
Q 24.90625 74.21875 42 74.21875 
Q 49.125 74.21875 55.546875 72.453125 
Q 61.96875 70.703125 67.390625 67.28125 
L 67.390625 56.78125 
Q 61.921875 61.421875 55.765625 63.765625 
Q 49.609375 66.109375 42.828125 66.109375 
Q 29.4375 66.109375 22.71875 58.640625 
Q 16.015625 51.171875 16.015625 36.375 
Q 16.015625 21.625 22.71875 14.15625 
Q 29.4375 6.6875 42.828125 6.6875 
Q 48.046875 6.6875 52.140625 7.59375 
Q 56.25 8.5 59.515625 10.40625 
z
" id="DejaVuSans-71"/>
     </defs>
     <g transform="translate(322.7125 229.920313)scale(0.1 -0.1)">
      <use xlink:href="#DejaVuSans-68"/>
      <use x="77.001953" xlink:href="#DejaVuSans-117"/>
      <use x="140.380859" xlink:href="#DejaVuSans-99"/>
      <use x="195.361328" xlink:href="#DejaVuSans-107"/>
      <use x="253.271484" xlink:href="#DejaVuSans-68"/>
      <use x="330.273438" xlink:href="#DejaVuSans-117"/>
      <use x="393.652344" xlink:href="#DejaVuSans-99"/>
      <use x="448.632812" xlink:href="#DejaVuSans-107"/>
      <use x="506.542969" xlink:href="#DejaVuSans-71"/>
      <use x="584.033203" xlink:href="#DejaVuSans-111"/>
     </g>
    </g>
   </g>
  </g>
 </g>
 <defs>
  <clipPath id="pbfe6a450ce">
   <rect height="207.5" width="345.625" x="52.875" y="33.5"/>
  </clipPath>
 </defs>
</svg>
