<?xml version="1.0" encoding="utf-8" standalone="no"?>
<!DOCTYPE svg PUBLIC "-//W3C//DTD SVG 1.1//EN"
  "http://www.w3.org/Graphics/SVG/1.1/DTD/svg11.dtd">
<!-- Created with matplotlib (https://matplotlib.org/) -->
<svg height="288pt" version="1.1" viewBox="0 0 432 288" width="432pt" xmlns="http://www.w3.org/2000/svg" xmlns:xlink="http://www.w3.org/1999/xlink">
 <defs>
  <style type="text/css">
*{stroke-linecap:butt;stroke-linejoin:round;}
  </style>
 </defs>
 <g id="figure_1">
  <g id="patch_1">
   <path d="M 0 288 
L 432 288 
L 432 0 
L 0 0 
z
" style="fill:#ffffff;"/>
  </g>
  <g id="axes_1">
   <g id="patch_2">
    <path d="M 52.875 241 
L 398.5 241 
L 398.5 33.5 
L 52.875 33.5 
z
" style="fill:#ffffff;"/>
   </g>
   <g id="matplotlib.axis_1">
    <g id="xtick_1">
     <g id="line2d_1">
      <path clip-path="url(#p40744413de)" d="M 73.032566 241 
L 73.032566 33.5 
" style="fill:none;stroke:#b0b0b0;stroke-dasharray:3.7,1.6;stroke-dashoffset:0;"/>
     </g>
     <g id="line2d_2">
      <defs>
       <path d="M 0 0 
L 0 3.5 
" id="m5f74dabce0" style="stroke:#000000;stroke-width:0.8;"/>
      </defs>
      <g>
       <use style="stroke:#000000;stroke-width:0.8;" x="73.032566" xlink:href="#m5f74dabce0" y="241"/>
      </g>
     </g>
     <g id="text_1">
      <!-- $\mathdefault{10^{-3}}$ -->
      <defs>
       <path d="M 12.40625 8.296875 
L 28.515625 8.296875 
L 28.515625 63.921875 
L 10.984375 60.40625 
L 10.984375 69.390625 
L 28.421875 72.90625 
L 38.28125 72.90625 
L 38.28125 8.296875 
L 54.390625 8.296875 
L 54.390625 0 
L 12.40625 0 
z
" id="DejaVuSans-49"/>
       <path d="M 31.78125 66.40625 
Q 24.171875 66.40625 20.328125 58.90625 
Q 16.5 51.421875 16.5 36.375 
Q 16.5 21.390625 20.328125 13.890625 
Q 24.171875 6.390625 31.78125 6.390625 
Q 39.453125 6.390625 43.28125 13.890625 
Q 47.125 21.390625 47.125 36.375 
Q 47.125 51.421875 43.28125 58.90625 
Q 39.453125 66.40625 31.78125 66.40625 
z
M 31.78125 74.21875 
Q 44.046875 74.21875 50.515625 64.515625 
Q 56.984375 54.828125 56.984375 36.375 
Q 56.984375 17.96875 50.515625 8.265625 
Q 44.046875 -1.421875 31.78125 -1.421875 
Q 19.53125 -1.421875 13.0625 8.265625 
Q 6.59375 17.96875 6.59375 36.375 
Q 6.59375 54.828125 13.0625 64.515625 
Q 19.53125 74.21875 31.78125 74.21875 
z
" id="DejaVuSans-48"/>
       <path d="M 10.59375 35.5 
L 73.1875 35.5 
L 73.1875 27.203125 
L 10.59375 27.203125 
z
" id="DejaVuSans-8722"/>
       <path d="M 40.578125 39.3125 
Q 47.65625 37.796875 51.625 33 
Q 55.609375 28.21875 55.609375 21.1875 
Q 55.609375 10.40625 48.1875 4.484375 
Q 40.765625 -1.421875 27.09375 -1.421875 
Q 22.515625 -1.421875 17.65625 -0.515625 
Q 12.796875 0.390625 7.625 2.203125 
L 7.625 11.71875 
Q 11.71875 9.328125 16.59375 8.109375 
Q 21.484375 6.890625 26.8125 6.890625 
Q 36.078125 6.890625 40.9375 10.546875 
Q 45.796875 14.203125 45.796875 21.1875 
Q 45.796875 27.640625 41.28125 31.265625 
Q 36.765625 34.90625 28.71875 34.90625 
L 20.21875 34.90625 
L 20.21875 43.015625 
L 29.109375 43.015625 
Q 36.375 43.015625 40.234375 45.921875 
Q 44.09375 48.828125 44.09375 54.296875 
Q 44.09375 59.90625 40.109375 62.90625 
Q 36.140625 65.921875 28.71875 65.921875 
Q 24.65625 65.921875 20.015625 65.03125 
Q 15.375 64.15625 9.8125 62.3125 
L 9.8125 71.09375 
Q 15.4375 72.65625 20.34375 73.4375 
Q 25.25 74.21875 29.59375 74.21875 
Q 40.828125 74.21875 47.359375 69.109375 
Q 53.90625 64.015625 53.90625 55.328125 
Q 53.90625 49.265625 50.4375 45.09375 
Q 46.96875 40.921875 40.578125 39.3125 
z
" id="DejaVuSans-51"/>
      </defs>
      <g transform="translate(61.282566 255.598438)scale(0.1 -0.1)">
       <use transform="translate(0 0.765625)" xlink:href="#DejaVuSans-49"/>
       <use transform="translate(63.623047 0.765625)" xlink:href="#DejaVuSans-48"/>
       <use transform="translate(128.203125 39.046875)scale(0.7)" xlink:href="#DejaVuSans-8722"/>
       <use transform="translate(186.855469 39.046875)scale(0.7)" xlink:href="#DejaVuSans-51"/>
      </g>
     </g>
    </g>
    <g id="xtick_2">
     <g id="line2d_3">
      <path clip-path="url(#p40744413de)" d="M 144.785941 241 
L 144.785941 33.5 
" style="fill:none;stroke:#b0b0b0;stroke-dasharray:3.7,1.6;stroke-dashoffset:0;"/>
     </g>
     <g id="line2d_4">
      <g>
       <use style="stroke:#000000;stroke-width:0.8;" x="144.785941" xlink:href="#m5f74dabce0" y="241"/>
      </g>
     </g>
     <g id="text_2">
      <!-- $\mathdefault{10^{-2}}$ -->
      <defs>
       <path d="M 19.1875 8.296875 
L 53.609375 8.296875 
L 53.609375 0 
L 7.328125 0 
L 7.328125 8.296875 
Q 12.9375 14.109375 22.625 23.890625 
Q 32.328125 33.6875 34.8125 36.53125 
Q 39.546875 41.84375 41.421875 45.53125 
Q 43.3125 49.21875 43.3125 52.78125 
Q 43.3125 58.59375 39.234375 62.25 
Q 35.15625 65.921875 28.609375 65.921875 
Q 23.96875 65.921875 18.8125 64.3125 
Q 13.671875 62.703125 7.8125 59.421875 
L 7.8125 69.390625 
Q 13.765625 71.78125 18.9375 73 
Q 24.125 74.21875 28.421875 74.21875 
Q 39.75 74.21875 46.484375 68.546875 
Q 53.21875 62.890625 53.21875 53.421875 
Q 53.21875 48.921875 51.53125 44.890625 
Q 49.859375 40.875 45.40625 35.40625 
Q 44.1875 33.984375 37.640625 27.21875 
Q 31.109375 20.453125 19.1875 8.296875 
z
" id="DejaVuSans-50"/>
      </defs>
      <g transform="translate(133.035941 255.598438)scale(0.1 -0.1)">
       <use transform="translate(0 0.765625)" xlink:href="#DejaVuSans-49"/>
       <use transform="translate(63.623047 0.765625)" xlink:href="#DejaVuSans-48"/>
       <use transform="translate(128.203125 39.046875)scale(0.7)" xlink:href="#DejaVuSans-8722"/>
       <use transform="translate(186.855469 39.046875)scale(0.7)" xlink:href="#DejaVuSans-50"/>
      </g>
     </g>
    </g>
    <g id="xtick_3">
     <g id="line2d_5">
      <path clip-path="url(#p40744413de)" d="M 216.539315 241 
L 216.539315 33.5 
" style="fill:none;stroke:#b0b0b0;stroke-dasharray:3.7,1.6;stroke-dashoffset:0;"/>
     </g>
     <g id="line2d_6">
      <g>
       <use style="stroke:#000000;stroke-width:0.8;" x="216.539315" xlink:href="#m5f74dabce0" y="241"/>
      </g>
     </g>
     <g id="text_3">
      <!-- $\mathdefault{10^{-1}}$ -->
      <g transform="translate(204.789315 255.598438)scale(0.1 -0.1)">
       <use transform="translate(0 0.684375)" xlink:href="#DejaVuSans-49"/>
       <use transform="translate(63.623047 0.684375)" xlink:href="#DejaVuSans-48"/>
       <use transform="translate(128.203125 38.965625)scale(0.7)" xlink:href="#DejaVuSans-8722"/>
       <use transform="translate(186.855469 38.965625)scale(0.7)" xlink:href="#DejaVuSans-49"/>
      </g>
     </g>
    </g>
    <g id="xtick_4">
     <g id="line2d_7">
      <path clip-path="url(#p40744413de)" d="M 288.292689 241 
L 288.292689 33.5 
" style="fill:none;stroke:#b0b0b0;stroke-dasharray:3.7,1.6;stroke-dashoffset:0;"/>
     </g>
     <g id="line2d_8">
      <g>
       <use style="stroke:#000000;stroke-width:0.8;" x="288.292689" xlink:href="#m5f74dabce0" y="241"/>
      </g>
     </g>
     <g id="text_4">
      <!-- $\mathdefault{10^{0}}$ -->
      <g transform="translate(279.492689 255.598438)scale(0.1 -0.1)">
       <use transform="translate(0 0.765625)" xlink:href="#DejaVuSans-49"/>
       <use transform="translate(63.623047 0.765625)" xlink:href="#DejaVuSans-48"/>
       <use transform="translate(128.203125 39.046875)scale(0.7)" xlink:href="#DejaVuSans-48"/>
      </g>
     </g>
    </g>
    <g id="xtick_5">
     <g id="line2d_9">
      <path clip-path="url(#p40744413de)" d="M 360.046063 241 
L 360.046063 33.5 
" style="fill:none;stroke:#b0b0b0;stroke-dasharray:3.7,1.6;stroke-dashoffset:0;"/>
     </g>
     <g id="line2d_10">
      <g>
       <use style="stroke:#000000;stroke-width:0.8;" x="360.046063" xlink:href="#m5f74dabce0" y="241"/>
      </g>
     </g>
     <g id="text_5">
      <!-- $\mathdefault{10^{1}}$ -->
      <g transform="translate(351.246063 255.598438)scale(0.1 -0.1)">
       <use transform="translate(0 0.684375)" xlink:href="#DejaVuSans-49"/>
       <use transform="translate(63.623047 0.684375)" xlink:href="#DejaVuSans-48"/>
       <use transform="translate(128.203125 38.965625)scale(0.7)" xlink:href="#DejaVuSans-49"/>
      </g>
     </g>
    </g>
    <g id="xtick_6">
     <g id="line2d_11">
      <defs>
       <path d="M 0 0 
L 0 2 
" id="m9c1dbf0e4d" style="stroke:#000000;stroke-width:0.6;"/>
      </defs>
      <g>
       <use style="stroke:#000000;stroke-width:0.6;" x="57.11417" xlink:href="#m9c1dbf0e4d" y="241"/>
      </g>
     </g>
    </g>
    <g id="xtick_7">
     <g id="line2d_12">
      <g>
       <use style="stroke:#000000;stroke-width:0.6;" x="61.917828" xlink:href="#m9c1dbf0e4d" y="241"/>
      </g>
     </g>
    </g>
    <g id="xtick_8">
     <g id="line2d_13">
      <g>
       <use style="stroke:#000000;stroke-width:0.6;" x="66.078946" xlink:href="#m9c1dbf0e4d" y="241"/>
      </g>
     </g>
    </g>
    <g id="xtick_9">
     <g id="line2d_14">
      <g>
       <use style="stroke:#000000;stroke-width:0.6;" x="69.749312" xlink:href="#m9c1dbf0e4d" y="241"/>
      </g>
     </g>
    </g>
    <g id="xtick_10">
     <g id="line2d_15">
      <g>
       <use style="stroke:#000000;stroke-width:0.6;" x="94.632484" xlink:href="#m9c1dbf0e4d" y="241"/>
      </g>
     </g>
    </g>
    <g id="xtick_11">
     <g id="line2d_16">
      <g>
       <use style="stroke:#000000;stroke-width:0.6;" x="107.267626" xlink:href="#m9c1dbf0e4d" y="241"/>
      </g>
     </g>
    </g>
    <g id="xtick_12">
     <g id="line2d_17">
      <g>
       <use style="stroke:#000000;stroke-width:0.6;" x="116.232402" xlink:href="#m9c1dbf0e4d" y="241"/>
      </g>
     </g>
    </g>
    <g id="xtick_13">
     <g id="line2d_18">
      <g>
       <use style="stroke:#000000;stroke-width:0.6;" x="123.186023" xlink:href="#m9c1dbf0e4d" y="241"/>
      </g>
     </g>
    </g>
    <g id="xtick_14">
     <g id="line2d_19">
      <g>
       <use style="stroke:#000000;stroke-width:0.6;" x="128.867544" xlink:href="#m9c1dbf0e4d" y="241"/>
      </g>
     </g>
    </g>
    <g id="xtick_15">
     <g id="line2d_20">
      <g>
       <use style="stroke:#000000;stroke-width:0.6;" x="133.671202" xlink:href="#m9c1dbf0e4d" y="241"/>
      </g>
     </g>
    </g>
    <g id="xtick_16">
     <g id="line2d_21">
      <g>
       <use style="stroke:#000000;stroke-width:0.6;" x="137.83232" xlink:href="#m9c1dbf0e4d" y="241"/>
      </g>
     </g>
    </g>
    <g id="xtick_17">
     <g id="line2d_22">
      <g>
       <use style="stroke:#000000;stroke-width:0.6;" x="141.502686" xlink:href="#m9c1dbf0e4d" y="241"/>
      </g>
     </g>
    </g>
    <g id="xtick_18">
     <g id="line2d_23">
      <g>
       <use style="stroke:#000000;stroke-width:0.6;" x="166.385858" xlink:href="#m9c1dbf0e4d" y="241"/>
      </g>
     </g>
    </g>
    <g id="xtick_19">
     <g id="line2d_24">
      <g>
       <use style="stroke:#000000;stroke-width:0.6;" x="179.021" xlink:href="#m9c1dbf0e4d" y="241"/>
      </g>
     </g>
    </g>
    <g id="xtick_20">
     <g id="line2d_25">
      <g>
       <use style="stroke:#000000;stroke-width:0.6;" x="187.985776" xlink:href="#m9c1dbf0e4d" y="241"/>
      </g>
     </g>
    </g>
    <g id="xtick_21">
     <g id="line2d_26">
      <g>
       <use style="stroke:#000000;stroke-width:0.6;" x="194.939397" xlink:href="#m9c1dbf0e4d" y="241"/>
      </g>
     </g>
    </g>
    <g id="xtick_22">
     <g id="line2d_27">
      <g>
       <use style="stroke:#000000;stroke-width:0.6;" x="200.620918" xlink:href="#m9c1dbf0e4d" y="241"/>
      </g>
     </g>
    </g>
    <g id="xtick_23">
     <g id="line2d_28">
      <g>
       <use style="stroke:#000000;stroke-width:0.6;" x="205.424577" xlink:href="#m9c1dbf0e4d" y="241"/>
      </g>
     </g>
    </g>
    <g id="xtick_24">
     <g id="line2d_29">
      <g>
       <use style="stroke:#000000;stroke-width:0.6;" x="209.585694" xlink:href="#m9c1dbf0e4d" y="241"/>
      </g>
     </g>
    </g>
    <g id="xtick_25">
     <g id="line2d_30">
      <g>
       <use style="stroke:#000000;stroke-width:0.6;" x="213.25606" xlink:href="#m9c1dbf0e4d" y="241"/>
      </g>
     </g>
    </g>
    <g id="xtick_26">
     <g id="line2d_31">
      <g>
       <use style="stroke:#000000;stroke-width:0.6;" x="238.139233" xlink:href="#m9c1dbf0e4d" y="241"/>
      </g>
     </g>
    </g>
    <g id="xtick_27">
     <g id="line2d_32">
      <g>
       <use style="stroke:#000000;stroke-width:0.6;" x="250.774375" xlink:href="#m9c1dbf0e4d" y="241"/>
      </g>
     </g>
    </g>
    <g id="xtick_28">
     <g id="line2d_33">
      <g>
       <use style="stroke:#000000;stroke-width:0.6;" x="259.739151" xlink:href="#m9c1dbf0e4d" y="241"/>
      </g>
     </g>
    </g>
    <g id="xtick_29">
     <g id="line2d_34">
      <g>
       <use style="stroke:#000000;stroke-width:0.6;" x="266.692771" xlink:href="#m9c1dbf0e4d" y="241"/>
      </g>
     </g>
    </g>
    <g id="xtick_30">
     <g id="line2d_35">
      <g>
       <use style="stroke:#000000;stroke-width:0.6;" x="272.374293" xlink:href="#m9c1dbf0e4d" y="241"/>
      </g>
     </g>
    </g>
    <g id="xtick_31">
     <g id="line2d_36">
      <g>
       <use style="stroke:#000000;stroke-width:0.6;" x="277.177951" xlink:href="#m9c1dbf0e4d" y="241"/>
      </g>
     </g>
    </g>
    <g id="xtick_32">
     <g id="line2d_37">
      <g>
       <use style="stroke:#000000;stroke-width:0.6;" x="281.339069" xlink:href="#m9c1dbf0e4d" y="241"/>
      </g>
     </g>
    </g>
    <g id="xtick_33">
     <g id="line2d_38">
      <g>
       <use style="stroke:#000000;stroke-width:0.6;" x="285.009435" xlink:href="#m9c1dbf0e4d" y="241"/>
      </g>
     </g>
    </g>
    <g id="xtick_34">
     <g id="line2d_39">
      <g>
       <use style="stroke:#000000;stroke-width:0.6;" x="309.892607" xlink:href="#m9c1dbf0e4d" y="241"/>
      </g>
     </g>
    </g>
    <g id="xtick_35">
     <g id="line2d_40">
      <g>
       <use style="stroke:#000000;stroke-width:0.6;" x="322.527749" xlink:href="#m9c1dbf0e4d" y="241"/>
      </g>
     </g>
    </g>
    <g id="xtick_36">
     <g id="line2d_41">
      <g>
       <use style="stroke:#000000;stroke-width:0.6;" x="331.492525" xlink:href="#m9c1dbf0e4d" y="241"/>
      </g>
     </g>
    </g>
    <g id="xtick_37">
     <g id="line2d_42">
      <g>
       <use style="stroke:#000000;stroke-width:0.6;" x="338.446146" xlink:href="#m9c1dbf0e4d" y="241"/>
      </g>
     </g>
    </g>
    <g id="xtick_38">
     <g id="line2d_43">
      <g>
       <use style="stroke:#000000;stroke-width:0.6;" x="344.127667" xlink:href="#m9c1dbf0e4d" y="241"/>
      </g>
     </g>
    </g>
    <g id="xtick_39">
     <g id="line2d_44">
      <g>
       <use style="stroke:#000000;stroke-width:0.6;" x="348.931325" xlink:href="#m9c1dbf0e4d" y="241"/>
      </g>
     </g>
    </g>
    <g id="xtick_40">
     <g id="line2d_45">
      <g>
       <use style="stroke:#000000;stroke-width:0.6;" x="353.092443" xlink:href="#m9c1dbf0e4d" y="241"/>
      </g>
     </g>
    </g>
    <g id="xtick_41">
     <g id="line2d_46">
      <g>
       <use style="stroke:#000000;stroke-width:0.6;" x="356.762809" xlink:href="#m9c1dbf0e4d" y="241"/>
      </g>
     </g>
    </g>
    <g id="xtick_42">
     <g id="line2d_47">
      <g>
       <use style="stroke:#000000;stroke-width:0.6;" x="381.645981" xlink:href="#m9c1dbf0e4d" y="241"/>
      </g>
     </g>
    </g>
    <g id="xtick_43">
     <g id="line2d_48">
      <g>
       <use style="stroke:#000000;stroke-width:0.6;" x="394.281123" xlink:href="#m9c1dbf0e4d" y="241"/>
      </g>
     </g>
    </g>
    <g id="text_6">
     <!-- Time (ms)  -->
     <defs>
      <path d="M -0.296875 72.90625 
L 61.375 72.90625 
L 61.375 64.59375 
L 35.5 64.59375 
L 35.5 0 
L 25.59375 0 
L 25.59375 64.59375 
L -0.296875 64.59375 
z
" id="DejaVuSans-84"/>
      <path d="M 9.421875 54.6875 
L 18.40625 54.6875 
L 18.40625 0 
L 9.421875 0 
z
M 9.421875 75.984375 
L 18.40625 75.984375 
L 18.40625 64.59375 
L 9.421875 64.59375 
z
" id="DejaVuSans-105"/>
      <path d="M 52 44.1875 
Q 55.375 50.25 60.0625 53.125 
Q 64.75 56 71.09375 56 
Q 79.640625 56 84.28125 50.015625 
Q 88.921875 44.046875 88.921875 33.015625 
L 88.921875 0 
L 79.890625 0 
L 79.890625 32.71875 
Q 79.890625 40.578125 77.09375 44.375 
Q 74.3125 48.1875 68.609375 48.1875 
Q 61.625 48.1875 57.5625 43.546875 
Q 53.515625 38.921875 53.515625 30.90625 
L 53.515625 0 
L 44.484375 0 
L 44.484375 32.71875 
Q 44.484375 40.625 41.703125 44.40625 
Q 38.921875 48.1875 33.109375 48.1875 
Q 26.21875 48.1875 22.15625 43.53125 
Q 18.109375 38.875 18.109375 30.90625 
L 18.109375 0 
L 9.078125 0 
L 9.078125 54.6875 
L 18.109375 54.6875 
L 18.109375 46.1875 
Q 21.1875 51.21875 25.484375 53.609375 
Q 29.78125 56 35.6875 56 
Q 41.65625 56 45.828125 52.96875 
Q 50 49.953125 52 44.1875 
z
" id="DejaVuSans-109"/>
      <path d="M 56.203125 29.59375 
L 56.203125 25.203125 
L 14.890625 25.203125 
Q 15.484375 15.921875 20.484375 11.0625 
Q 25.484375 6.203125 34.421875 6.203125 
Q 39.59375 6.203125 44.453125 7.46875 
Q 49.3125 8.734375 54.109375 11.28125 
L 54.109375 2.78125 
Q 49.265625 0.734375 44.1875 -0.34375 
Q 39.109375 -1.421875 33.890625 -1.421875 
Q 20.796875 -1.421875 13.15625 6.1875 
Q 5.515625 13.8125 5.515625 26.8125 
Q 5.515625 40.234375 12.765625 48.109375 
Q 20.015625 56 32.328125 56 
Q 43.359375 56 49.78125 48.890625 
Q 56.203125 41.796875 56.203125 29.59375 
z
M 47.21875 32.234375 
Q 47.125 39.59375 43.09375 43.984375 
Q 39.0625 48.390625 32.421875 48.390625 
Q 24.90625 48.390625 20.390625 44.140625 
Q 15.875 39.890625 15.1875 32.171875 
z
" id="DejaVuSans-101"/>
      <path id="DejaVuSans-32"/>
      <path d="M 31 75.875 
Q 24.46875 64.65625 21.28125 53.65625 
Q 18.109375 42.671875 18.109375 31.390625 
Q 18.109375 20.125 21.3125 9.0625 
Q 24.515625 -2 31 -13.1875 
L 23.1875 -13.1875 
Q 15.875 -1.703125 12.234375 9.375 
Q 8.59375 20.453125 8.59375 31.390625 
Q 8.59375 42.28125 12.203125 53.3125 
Q 15.828125 64.359375 23.1875 75.875 
z
" id="DejaVuSans-40"/>
      <path d="M 44.28125 53.078125 
L 44.28125 44.578125 
Q 40.484375 46.53125 36.375 47.5 
Q 32.28125 48.484375 27.875 48.484375 
Q 21.1875 48.484375 17.84375 46.4375 
Q 14.5 44.390625 14.5 40.28125 
Q 14.5 37.15625 16.890625 35.375 
Q 19.28125 33.59375 26.515625 31.984375 
L 29.59375 31.296875 
Q 39.15625 29.25 43.1875 25.515625 
Q 47.21875 21.78125 47.21875 15.09375 
Q 47.21875 7.46875 41.1875 3.015625 
Q 35.15625 -1.421875 24.609375 -1.421875 
Q 20.21875 -1.421875 15.453125 -0.5625 
Q 10.6875 0.296875 5.421875 2 
L 5.421875 11.28125 
Q 10.40625 8.6875 15.234375 7.390625 
Q 20.0625 6.109375 24.8125 6.109375 
Q 31.15625 6.109375 34.5625 8.28125 
Q 37.984375 10.453125 37.984375 14.40625 
Q 37.984375 18.0625 35.515625 20.015625 
Q 33.0625 21.96875 24.703125 23.78125 
L 21.578125 24.515625 
Q 13.234375 26.265625 9.515625 29.90625 
Q 5.8125 33.546875 5.8125 39.890625 
Q 5.8125 47.609375 11.28125 51.796875 
Q 16.75 56 26.8125 56 
Q 31.78125 56 36.171875 55.265625 
Q 40.578125 54.546875 44.28125 53.078125 
z
" id="DejaVuSans-115"/>
      <path d="M 8.015625 75.875 
L 15.828125 75.875 
Q 23.140625 64.359375 26.78125 53.3125 
Q 30.421875 42.28125 30.421875 31.390625 
Q 30.421875 20.453125 26.78125 9.375 
Q 23.140625 -1.703125 15.828125 -13.1875 
L 8.015625 -13.1875 
Q 14.5 -2 17.703125 9.0625 
Q 20.90625 20.125 20.90625 31.390625 
Q 20.90625 42.671875 17.703125 53.65625 
Q 14.5 64.65625 8.015625 75.875 
z
" id="DejaVuSans-41"/>
     </defs>
     <g transform="translate(198.745313 269.276563)scale(0.1 -0.1)">
      <use xlink:href="#DejaVuSans-84"/>
      <use x="61.037109" xlink:href="#DejaVuSans-105"/>
      <use x="88.820312" xlink:href="#DejaVuSans-109"/>
      <use x="186.232422" xlink:href="#DejaVuSans-101"/>
      <use x="247.755859" xlink:href="#DejaVuSans-32"/>
      <use x="279.542969" xlink:href="#DejaVuSans-40"/>
      <use x="318.556641" xlink:href="#DejaVuSans-109"/>
      <use x="415.96875" xlink:href="#DejaVuSans-115"/>
      <use x="468.068359" xlink:href="#DejaVuSans-41"/>
      <use x="507.082031" xlink:href="#DejaVuSans-32"/>
     </g>
     <!--  log (base 10) -->
     <defs>
      <path d="M 9.421875 75.984375 
L 18.40625 75.984375 
L 18.40625 0 
L 9.421875 0 
z
" id="DejaVuSans-108"/>
      <path d="M 30.609375 48.390625 
Q 23.390625 48.390625 19.1875 42.75 
Q 14.984375 37.109375 14.984375 27.296875 
Q 14.984375 17.484375 19.15625 11.84375 
Q 23.34375 6.203125 30.609375 6.203125 
Q 37.796875 6.203125 41.984375 11.859375 
Q 46.1875 17.53125 46.1875 27.296875 
Q 46.1875 37.015625 41.984375 42.703125 
Q 37.796875 48.390625 30.609375 48.390625 
z
M 30.609375 56 
Q 42.328125 56 49.015625 48.375 
Q 55.71875 40.765625 55.71875 27.296875 
Q 55.71875 13.875 49.015625 6.21875 
Q 42.328125 -1.421875 30.609375 -1.421875 
Q 18.84375 -1.421875 12.171875 6.21875 
Q 5.515625 13.875 5.515625 27.296875 
Q 5.515625 40.765625 12.171875 48.375 
Q 18.84375 56 30.609375 56 
z
" id="DejaVuSans-111"/>
      <path d="M 45.40625 27.984375 
Q 45.40625 37.75 41.375 43.109375 
Q 37.359375 48.484375 30.078125 48.484375 
Q 22.859375 48.484375 18.828125 43.109375 
Q 14.796875 37.75 14.796875 27.984375 
Q 14.796875 18.265625 18.828125 12.890625 
Q 22.859375 7.515625 30.078125 7.515625 
Q 37.359375 7.515625 41.375 12.890625 
Q 45.40625 18.265625 45.40625 27.984375 
z
M 54.390625 6.78125 
Q 54.390625 -7.171875 48.1875 -13.984375 
Q 42 -20.796875 29.203125 -20.796875 
Q 24.46875 -20.796875 20.265625 -20.09375 
Q 16.0625 -19.390625 12.109375 -17.921875 
L 12.109375 -9.1875 
Q 16.0625 -11.328125 19.921875 -12.34375 
Q 23.78125 -13.375 27.78125 -13.375 
Q 36.625 -13.375 41.015625 -8.765625 
Q 45.40625 -4.15625 45.40625 5.171875 
L 45.40625 9.625 
Q 42.625 4.78125 38.28125 2.390625 
Q 33.9375 0 27.875 0 
Q 17.828125 0 11.671875 7.65625 
Q 5.515625 15.328125 5.515625 27.984375 
Q 5.515625 40.671875 11.671875 48.328125 
Q 17.828125 56 27.875 56 
Q 33.9375 56 38.28125 53.609375 
Q 42.625 51.21875 45.40625 46.390625 
L 45.40625 54.6875 
L 54.390625 54.6875 
z
" id="DejaVuSans-103"/>
      <path d="M 48.6875 27.296875 
Q 48.6875 37.203125 44.609375 42.84375 
Q 40.53125 48.484375 33.40625 48.484375 
Q 26.265625 48.484375 22.1875 42.84375 
Q 18.109375 37.203125 18.109375 27.296875 
Q 18.109375 17.390625 22.1875 11.75 
Q 26.265625 6.109375 33.40625 6.109375 
Q 40.53125 6.109375 44.609375 11.75 
Q 48.6875 17.390625 48.6875 27.296875 
z
M 18.109375 46.390625 
Q 20.953125 51.265625 25.265625 53.625 
Q 29.59375 56 35.59375 56 
Q 45.5625 56 51.78125 48.09375 
Q 58.015625 40.1875 58.015625 27.296875 
Q 58.015625 14.40625 51.78125 6.484375 
Q 45.5625 -1.421875 35.59375 -1.421875 
Q 29.59375 -1.421875 25.265625 0.953125 
Q 20.953125 3.328125 18.109375 8.203125 
L 18.109375 0 
L 9.078125 0 
L 9.078125 75.984375 
L 18.109375 75.984375 
z
" id="DejaVuSans-98"/>
      <path d="M 34.28125 27.484375 
Q 23.390625 27.484375 19.1875 25 
Q 14.984375 22.515625 14.984375 16.5 
Q 14.984375 11.71875 18.140625 8.90625 
Q 21.296875 6.109375 26.703125 6.109375 
Q 34.1875 6.109375 38.703125 11.40625 
Q 43.21875 16.703125 43.21875 25.484375 
L 43.21875 27.484375 
z
M 52.203125 31.203125 
L 52.203125 0 
L 43.21875 0 
L 43.21875 8.296875 
Q 40.140625 3.328125 35.546875 0.953125 
Q 30.953125 -1.421875 24.3125 -1.421875 
Q 15.921875 -1.421875 10.953125 3.296875 
Q 6 8.015625 6 15.921875 
Q 6 25.140625 12.171875 29.828125 
Q 18.359375 34.515625 30.609375 34.515625 
L 43.21875 34.515625 
L 43.21875 35.40625 
Q 43.21875 41.609375 39.140625 45 
Q 35.0625 48.390625 27.6875 48.390625 
Q 23 48.390625 18.546875 47.265625 
Q 14.109375 46.140625 10.015625 43.890625 
L 10.015625 52.203125 
Q 14.9375 54.109375 19.578125 55.046875 
Q 24.21875 56 28.609375 56 
Q 40.484375 56 46.34375 49.84375 
Q 52.203125 43.703125 52.203125 31.203125 
z
" id="DejaVuSans-97"/>
     </defs>
     <g transform="translate(191.114062 280.474375)scale(0.1 -0.1)">
      <use xlink:href="#DejaVuSans-32"/>
      <use x="31.787109" xlink:href="#DejaVuSans-108"/>
      <use x="59.570312" xlink:href="#DejaVuSans-111"/>
      <use x="120.751953" xlink:href="#DejaVuSans-103"/>
      <use x="184.228516" xlink:href="#DejaVuSans-32"/>
      <use x="216.015625" xlink:href="#DejaVuSans-40"/>
      <use x="255.029297" xlink:href="#DejaVuSans-98"/>
      <use x="318.505859" xlink:href="#DejaVuSans-97"/>
      <use x="379.785156" xlink:href="#DejaVuSans-115"/>
      <use x="431.884766" xlink:href="#DejaVuSans-101"/>
      <use x="493.408203" xlink:href="#DejaVuSans-32"/>
      <use x="525.195312" xlink:href="#DejaVuSans-49"/>
      <use x="588.818359" xlink:href="#DejaVuSans-48"/>
      <use x="652.441406" xlink:href="#DejaVuSans-41"/>
     </g>
    </g>
   </g>
   <g id="matplotlib.axis_2">
    <g id="ytick_1">
     <g id="line2d_49">
      <path clip-path="url(#p40744413de)" d="M 52.875 231.572186 
L 398.5 231.572186 
" style="fill:none;stroke:#b0b0b0;stroke-dasharray:3.7,1.6;stroke-dashoffset:0;"/>
     </g>
     <g id="line2d_50">
      <defs>
       <path d="M 0 0 
L -3.5 0 
" id="m5ac268e5a9" style="stroke:#000000;stroke-width:0.8;"/>
      </defs>
      <g>
       <use style="stroke:#000000;stroke-width:0.8;" x="52.875" xlink:href="#m5ac268e5a9" y="231.572186"/>
      </g>
     </g>
     <g id="text_7">
      <!-- 0.0 -->
      <defs>
       <path d="M 10.6875 12.40625 
L 21 12.40625 
L 21 0 
L 10.6875 0 
z
" id="DejaVuSans-46"/>
      </defs>
      <g transform="translate(29.971875 235.371405)scale(0.1 -0.1)">
       <use xlink:href="#DejaVuSans-48"/>
       <use x="63.623047" xlink:href="#DejaVuSans-46"/>
       <use x="95.410156" xlink:href="#DejaVuSans-48"/>
      </g>
     </g>
    </g>
    <g id="ytick_2">
     <g id="line2d_51">
      <path clip-path="url(#p40744413de)" d="M 52.875 193.844113 
L 398.5 193.844113 
" style="fill:none;stroke:#b0b0b0;stroke-dasharray:3.7,1.6;stroke-dashoffset:0;"/>
     </g>
     <g id="line2d_52">
      <g>
       <use style="stroke:#000000;stroke-width:0.8;" x="52.875" xlink:href="#m5ac268e5a9" y="193.844113"/>
      </g>
     </g>
     <g id="text_8">
      <!-- 0.2 -->
      <g transform="translate(29.971875 197.643332)scale(0.1 -0.1)">
       <use xlink:href="#DejaVuSans-48"/>
       <use x="63.623047" xlink:href="#DejaVuSans-46"/>
       <use x="95.410156" xlink:href="#DejaVuSans-50"/>
      </g>
     </g>
    </g>
    <g id="ytick_3">
     <g id="line2d_53">
      <path clip-path="url(#p40744413de)" d="M 52.875 156.116039 
L 398.5 156.116039 
" style="fill:none;stroke:#b0b0b0;stroke-dasharray:3.7,1.6;stroke-dashoffset:0;"/>
     </g>
     <g id="line2d_54">
      <g>
       <use style="stroke:#000000;stroke-width:0.8;" x="52.875" xlink:href="#m5ac268e5a9" y="156.116039"/>
      </g>
     </g>
     <g id="text_9">
      <!-- 0.4 -->
      <defs>
       <path d="M 37.796875 64.3125 
L 12.890625 25.390625 
L 37.796875 25.390625 
z
M 35.203125 72.90625 
L 47.609375 72.90625 
L 47.609375 25.390625 
L 58.015625 25.390625 
L 58.015625 17.1875 
L 47.609375 17.1875 
L 47.609375 0 
L 37.796875 0 
L 37.796875 17.1875 
L 4.890625 17.1875 
L 4.890625 26.703125 
z
" id="DejaVuSans-52"/>
      </defs>
      <g transform="translate(29.971875 159.915258)scale(0.1 -0.1)">
       <use xlink:href="#DejaVuSans-48"/>
       <use x="63.623047" xlink:href="#DejaVuSans-46"/>
       <use x="95.410156" xlink:href="#DejaVuSans-52"/>
      </g>
     </g>
    </g>
    <g id="ytick_4">
     <g id="line2d_55">
      <path clip-path="url(#p40744413de)" d="M 52.875 118.387965 
L 398.5 118.387965 
" style="fill:none;stroke:#b0b0b0;stroke-dasharray:3.7,1.6;stroke-dashoffset:0;"/>
     </g>
     <g id="line2d_56">
      <g>
       <use style="stroke:#000000;stroke-width:0.8;" x="52.875" xlink:href="#m5ac268e5a9" y="118.387965"/>
      </g>
     </g>
     <g id="text_10">
      <!-- 0.6 -->
      <defs>
       <path d="M 33.015625 40.375 
Q 26.375 40.375 22.484375 35.828125 
Q 18.609375 31.296875 18.609375 23.390625 
Q 18.609375 15.53125 22.484375 10.953125 
Q 26.375 6.390625 33.015625 6.390625 
Q 39.65625 6.390625 43.53125 10.953125 
Q 47.40625 15.53125 47.40625 23.390625 
Q 47.40625 31.296875 43.53125 35.828125 
Q 39.65625 40.375 33.015625 40.375 
z
M 52.59375 71.296875 
L 52.59375 62.3125 
Q 48.875 64.0625 45.09375 64.984375 
Q 41.3125 65.921875 37.59375 65.921875 
Q 27.828125 65.921875 22.671875 59.328125 
Q 17.53125 52.734375 16.796875 39.40625 
Q 19.671875 43.65625 24.015625 45.921875 
Q 28.375 48.1875 33.59375 48.1875 
Q 44.578125 48.1875 50.953125 41.515625 
Q 57.328125 34.859375 57.328125 23.390625 
Q 57.328125 12.15625 50.6875 5.359375 
Q 44.046875 -1.421875 33.015625 -1.421875 
Q 20.359375 -1.421875 13.671875 8.265625 
Q 6.984375 17.96875 6.984375 36.375 
Q 6.984375 53.65625 15.1875 63.9375 
Q 23.390625 74.21875 37.203125 74.21875 
Q 40.921875 74.21875 44.703125 73.484375 
Q 48.484375 72.75 52.59375 71.296875 
z
" id="DejaVuSans-54"/>
      </defs>
      <g transform="translate(29.971875 122.187184)scale(0.1 -0.1)">
       <use xlink:href="#DejaVuSans-48"/>
       <use x="63.623047" xlink:href="#DejaVuSans-46"/>
       <use x="95.410156" xlink:href="#DejaVuSans-54"/>
      </g>
     </g>
    </g>
    <g id="ytick_5">
     <g id="line2d_57">
      <path clip-path="url(#p40744413de)" d="M 52.875 80.659892 
L 398.5 80.659892 
" style="fill:none;stroke:#b0b0b0;stroke-dasharray:3.7,1.6;stroke-dashoffset:0;"/>
     </g>
     <g id="line2d_58">
      <g>
       <use style="stroke:#000000;stroke-width:0.8;" x="52.875" xlink:href="#m5ac268e5a9" y="80.659892"/>
      </g>
     </g>
     <g id="text_11">
      <!-- 0.8 -->
      <defs>
       <path d="M 31.78125 34.625 
Q 24.75 34.625 20.71875 30.859375 
Q 16.703125 27.09375 16.703125 20.515625 
Q 16.703125 13.921875 20.71875 10.15625 
Q 24.75 6.390625 31.78125 6.390625 
Q 38.8125 6.390625 42.859375 10.171875 
Q 46.921875 13.96875 46.921875 20.515625 
Q 46.921875 27.09375 42.890625 30.859375 
Q 38.875 34.625 31.78125 34.625 
z
M 21.921875 38.8125 
Q 15.578125 40.375 12.03125 44.71875 
Q 8.5 49.078125 8.5 55.328125 
Q 8.5 64.0625 14.71875 69.140625 
Q 20.953125 74.21875 31.78125 74.21875 
Q 42.671875 74.21875 48.875 69.140625 
Q 55.078125 64.0625 55.078125 55.328125 
Q 55.078125 49.078125 51.53125 44.71875 
Q 48 40.375 41.703125 38.8125 
Q 48.828125 37.15625 52.796875 32.3125 
Q 56.78125 27.484375 56.78125 20.515625 
Q 56.78125 9.90625 50.3125 4.234375 
Q 43.84375 -1.421875 31.78125 -1.421875 
Q 19.734375 -1.421875 13.25 4.234375 
Q 6.78125 9.90625 6.78125 20.515625 
Q 6.78125 27.484375 10.78125 32.3125 
Q 14.796875 37.15625 21.921875 38.8125 
z
M 18.3125 54.390625 
Q 18.3125 48.734375 21.84375 45.5625 
Q 25.390625 42.390625 31.78125 42.390625 
Q 38.140625 42.390625 41.71875 45.5625 
Q 45.3125 48.734375 45.3125 54.390625 
Q 45.3125 60.0625 41.71875 63.234375 
Q 38.140625 66.40625 31.78125 66.40625 
Q 25.390625 66.40625 21.84375 63.234375 
Q 18.3125 60.0625 18.3125 54.390625 
z
" id="DejaVuSans-56"/>
      </defs>
      <g transform="translate(29.971875 84.459111)scale(0.1 -0.1)">
       <use xlink:href="#DejaVuSans-48"/>
       <use x="63.623047" xlink:href="#DejaVuSans-46"/>
       <use x="95.410156" xlink:href="#DejaVuSans-56"/>
      </g>
     </g>
    </g>
    <g id="ytick_6">
     <g id="line2d_59">
      <path clip-path="url(#p40744413de)" d="M 52.875 42.931818 
L 398.5 42.931818 
" style="fill:none;stroke:#b0b0b0;stroke-dasharray:3.7,1.6;stroke-dashoffset:0;"/>
     </g>
     <g id="line2d_60">
      <g>
       <use style="stroke:#000000;stroke-width:0.8;" x="52.875" xlink:href="#m5ac268e5a9" y="42.931818"/>
      </g>
     </g>
     <g id="text_12">
      <!-- 1.0 -->
      <g transform="translate(29.971875 46.731037)scale(0.1 -0.1)">
       <use xlink:href="#DejaVuSans-49"/>
       <use x="63.623047" xlink:href="#DejaVuSans-46"/>
       <use x="95.410156" xlink:href="#DejaVuSans-48"/>
      </g>
     </g>
    </g>
    <g id="text_13">
     <!-- Fraction of Requests -->
     <defs>
      <path d="M 9.8125 72.90625 
L 51.703125 72.90625 
L 51.703125 64.59375 
L 19.671875 64.59375 
L 19.671875 43.109375 
L 48.578125 43.109375 
L 48.578125 34.8125 
L 19.671875 34.8125 
L 19.671875 0 
L 9.8125 0 
z
" id="DejaVuSans-70"/>
      <path d="M 41.109375 46.296875 
Q 39.59375 47.171875 37.8125 47.578125 
Q 36.03125 48 33.890625 48 
Q 26.265625 48 22.1875 43.046875 
Q 18.109375 38.09375 18.109375 28.8125 
L 18.109375 0 
L 9.078125 0 
L 9.078125 54.6875 
L 18.109375 54.6875 
L 18.109375 46.1875 
Q 20.953125 51.171875 25.484375 53.578125 
Q 30.03125 56 36.53125 56 
Q 37.453125 56 38.578125 55.875 
Q 39.703125 55.765625 41.0625 55.515625 
z
" id="DejaVuSans-114"/>
      <path d="M 48.78125 52.59375 
L 48.78125 44.1875 
Q 44.96875 46.296875 41.140625 47.34375 
Q 37.3125 48.390625 33.40625 48.390625 
Q 24.65625 48.390625 19.8125 42.84375 
Q 14.984375 37.3125 14.984375 27.296875 
Q 14.984375 17.28125 19.8125 11.734375 
Q 24.65625 6.203125 33.40625 6.203125 
Q 37.3125 6.203125 41.140625 7.25 
Q 44.96875 8.296875 48.78125 10.40625 
L 48.78125 2.09375 
Q 45.015625 0.34375 40.984375 -0.53125 
Q 36.96875 -1.421875 32.421875 -1.421875 
Q 20.0625 -1.421875 12.78125 6.34375 
Q 5.515625 14.109375 5.515625 27.296875 
Q 5.515625 40.671875 12.859375 48.328125 
Q 20.21875 56 33.015625 56 
Q 37.15625 56 41.109375 55.140625 
Q 45.0625 54.296875 48.78125 52.59375 
z
" id="DejaVuSans-99"/>
      <path d="M 18.3125 70.21875 
L 18.3125 54.6875 
L 36.8125 54.6875 
L 36.8125 47.703125 
L 18.3125 47.703125 
L 18.3125 18.015625 
Q 18.3125 11.328125 20.140625 9.421875 
Q 21.96875 7.515625 27.59375 7.515625 
L 36.8125 7.515625 
L 36.8125 0 
L 27.59375 0 
Q 17.1875 0 13.234375 3.875 
Q 9.28125 7.765625 9.28125 18.015625 
L 9.28125 47.703125 
L 2.6875 47.703125 
L 2.6875 54.6875 
L 9.28125 54.6875 
L 9.28125 70.21875 
z
" id="DejaVuSans-116"/>
      <path d="M 54.890625 33.015625 
L 54.890625 0 
L 45.90625 0 
L 45.90625 32.71875 
Q 45.90625 40.484375 42.875 44.328125 
Q 39.84375 48.1875 33.796875 48.1875 
Q 26.515625 48.1875 22.3125 43.546875 
Q 18.109375 38.921875 18.109375 30.90625 
L 18.109375 0 
L 9.078125 0 
L 9.078125 54.6875 
L 18.109375 54.6875 
L 18.109375 46.1875 
Q 21.34375 51.125 25.703125 53.5625 
Q 30.078125 56 35.796875 56 
Q 45.21875 56 50.046875 50.171875 
Q 54.890625 44.34375 54.890625 33.015625 
z
" id="DejaVuSans-110"/>
      <path d="M 37.109375 75.984375 
L 37.109375 68.5 
L 28.515625 68.5 
Q 23.6875 68.5 21.796875 66.546875 
Q 19.921875 64.59375 19.921875 59.515625 
L 19.921875 54.6875 
L 34.71875 54.6875 
L 34.71875 47.703125 
L 19.921875 47.703125 
L 19.921875 0 
L 10.890625 0 
L 10.890625 47.703125 
L 2.296875 47.703125 
L 2.296875 54.6875 
L 10.890625 54.6875 
L 10.890625 58.5 
Q 10.890625 67.625 15.140625 71.796875 
Q 19.390625 75.984375 28.609375 75.984375 
z
" id="DejaVuSans-102"/>
      <path d="M 44.390625 34.1875 
Q 47.5625 33.109375 50.5625 29.59375 
Q 53.5625 26.078125 56.59375 19.921875 
L 66.609375 0 
L 56 0 
L 46.6875 18.703125 
Q 43.0625 26.03125 39.671875 28.421875 
Q 36.28125 30.8125 30.421875 30.8125 
L 19.671875 30.8125 
L 19.671875 0 
L 9.8125 0 
L 9.8125 72.90625 
L 32.078125 72.90625 
Q 44.578125 72.90625 50.734375 67.671875 
Q 56.890625 62.453125 56.890625 51.90625 
Q 56.890625 45.015625 53.6875 40.46875 
Q 50.484375 35.9375 44.390625 34.1875 
z
M 19.671875 64.796875 
L 19.671875 38.921875 
L 32.078125 38.921875 
Q 39.203125 38.921875 42.84375 42.21875 
Q 46.484375 45.515625 46.484375 51.90625 
Q 46.484375 58.296875 42.84375 61.546875 
Q 39.203125 64.796875 32.078125 64.796875 
z
" id="DejaVuSans-82"/>
      <path d="M 14.796875 27.296875 
Q 14.796875 17.390625 18.875 11.75 
Q 22.953125 6.109375 30.078125 6.109375 
Q 37.203125 6.109375 41.296875 11.75 
Q 45.40625 17.390625 45.40625 27.296875 
Q 45.40625 37.203125 41.296875 42.84375 
Q 37.203125 48.484375 30.078125 48.484375 
Q 22.953125 48.484375 18.875 42.84375 
Q 14.796875 37.203125 14.796875 27.296875 
z
M 45.40625 8.203125 
Q 42.578125 3.328125 38.25 0.953125 
Q 33.9375 -1.421875 27.875 -1.421875 
Q 17.96875 -1.421875 11.734375 6.484375 
Q 5.515625 14.40625 5.515625 27.296875 
Q 5.515625 40.1875 11.734375 48.09375 
Q 17.96875 56 27.875 56 
Q 33.9375 56 38.25 53.625 
Q 42.578125 51.265625 45.40625 46.390625 
L 45.40625 54.6875 
L 54.390625 54.6875 
L 54.390625 -20.796875 
L 45.40625 -20.796875 
z
" id="DejaVuSans-113"/>
      <path d="M 8.5 21.578125 
L 8.5 54.6875 
L 17.484375 54.6875 
L 17.484375 21.921875 
Q 17.484375 14.15625 20.5 10.265625 
Q 23.53125 6.390625 29.59375 6.390625 
Q 36.859375 6.390625 41.078125 11.03125 
Q 45.3125 15.671875 45.3125 23.6875 
L 45.3125 54.6875 
L 54.296875 54.6875 
L 54.296875 0 
L 45.3125 0 
L 45.3125 8.40625 
Q 42.046875 3.421875 37.71875 1 
Q 33.40625 -1.421875 27.6875 -1.421875 
Q 18.265625 -1.421875 13.375 4.4375 
Q 8.5 10.296875 8.5 21.578125 
z
M 31.109375 56 
z
" id="DejaVuSans-117"/>
     </defs>
     <g transform="translate(23.892187 188.700781)rotate(-90)scale(0.1 -0.1)">
      <use xlink:href="#DejaVuSans-70"/>
      <use x="57.410156" xlink:href="#DejaVuSans-114"/>
      <use x="98.523438" xlink:href="#DejaVuSans-97"/>
      <use x="159.802734" xlink:href="#DejaVuSans-99"/>
      <use x="214.783203" xlink:href="#DejaVuSans-116"/>
      <use x="253.992188" xlink:href="#DejaVuSans-105"/>
      <use x="281.775391" xlink:href="#DejaVuSans-111"/>
      <use x="342.957031" xlink:href="#DejaVuSans-110"/>
      <use x="406.335938" xlink:href="#DejaVuSans-32"/>
      <use x="438.123047" xlink:href="#DejaVuSans-111"/>
      <use x="499.304688" xlink:href="#DejaVuSans-102"/>
      <use x="534.509766" xlink:href="#DejaVuSans-32"/>
      <use x="566.296875" xlink:href="#DejaVuSans-82"/>
      <use x="635.716797" xlink:href="#DejaVuSans-101"/>
      <use x="697.240234" xlink:href="#DejaVuSans-113"/>
      <use x="760.716797" xlink:href="#DejaVuSans-117"/>
      <use x="824.095703" xlink:href="#DejaVuSans-101"/>
      <use x="885.619141" xlink:href="#DejaVuSans-115"/>
      <use x="937.71875" xlink:href="#DejaVuSans-116"/>
      <use x="976.927734" xlink:href="#DejaVuSans-115"/>
     </g>
    </g>
   </g>
   <g id="line2d_61">
    <path clip-path="url(#p40744413de)" d="M 117.656202 231.567774 
L 120.356493 231.497184 
L 122.75931 231.378062 
L 124.294152 231.161878 
L 124.883989 230.84422 
L 125.136743 230.328026 
L 125.218595 230.133901 
L 125.445483 229.595647 
L 125.682239 228.973567 
L 125.79708 228.752971 
L 126.240959 228.002945 
L 127.044179 227.235271 
L 127.389181 226.88673 
L 127.676491 226.608779 
L 127.891588 226.374947 
L 128.03061 226.202882 
L 128.412386 225.360206 
L 128.768708 224.182224 
L 128.997116 223.485141 
L 129.408164 222.730703 
L 129.55584 222.457164 
L 129.87929 221.910086 
L 129.979683 221.746846 
L 131.452799 218.936454 
L 131.705125 217.890829 
L 132.408376 215.142205 
L 134.117614 209.927318 
L 136.701913 199.078412 
L 137.019384 197.273938 
L 140.306237 174.768745 
L 140.982462 169.920047 
L 141.443769 166.333158 
L 142.007555 162.305077 
L 142.062016 161.885945 
L 142.336276 159.763813 
L 142.754835 156.984305 
L 143.197373 153.904786 
L 143.233423 153.693014 
L 143.585173 151.094394 
L 143.955407 148.486951 
L 144.159561 146.94278 
L 144.548204 144.15886 
L 145.068233 140.717564 
L 146.038089 134.584998 
L 146.395252 132.511397 
L 146.695654 130.81722 
L 146.859358 129.974544 
L 147.091739 128.690676 
L 148.250652 122.871356 
L 148.550343 121.380128 
L 148.986376 119.310939 
L 149.048947 119.002104 
L 149.265615 117.974128 
L 149.643862 116.359366 
L 150.009669 114.678425 
L 150.630635 112.115101 
L 150.67194 111.938624 
L 151.664682 108.148787 
L 151.925975 107.076691 
L 152.113744 106.260486 
L 152.356652 105.307512 
L 152.407936 105.117799 
L 152.602532 104.367773 
L 153.721878 100.705881 
L 153.775636 100.502933 
L 154.477598 98.274915 
L 154.543743 98.116086 
L 154.732281 97.516065 
L 154.933189 96.898396 
L 155.097017 96.382202 
L 155.623038 94.758616 
L 155.868565 94.026238 
L 156.068811 93.492396 
L 156.142491 93.262976 
L 156.49974 92.239411 
L 156.59375 92.023227 
L 156.880431 91.308497 
L 157.086901 90.832009 
L 157.97293 88.723113 
L 158.125631 88.356924 
L 158.291732 88.017206 
L 158.529212 87.47454 
L 163.285576 76.740344 
L 163.436665 76.325624 
L 163.544383 76.091792 
L 163.801059 75.602069 
L 163.964835 75.209409 
L 164.655966 73.704945 
L 164.767764 73.497585 
L 164.960821 73.051981 
L 165.465586 72.006356 
L 165.556926 71.82988 
L 165.987565 70.965144 
L 166.080537 70.7269 
L 166.474544 69.945991 
L 166.601686 69.725395 
L 166.958619 69.028312 
L 167.079234 68.785656 
L 167.28276 68.437115 
L 167.670918 67.647382 
L 167.845362 67.387078 
L 168.129531 66.888532 
L 168.257446 66.6547 
L 170.973305 62.7678 
L 171.13828 62.529557 
L 171.324999 62.28249 
L 171.647775 61.93836 
L 171.836708 61.682469 
L 172.853317 60.680963 
L 173.785013 59.767696 
L 174.072449 59.533865 
L 174.608387 59.052966 
L 174.868191 58.841194 
L 176.260779 57.698507 
L 176.756195 57.297022 
L 177.810516 56.410227 
L 178.443335 55.845502 
L 178.636382 55.673437 
L 178.847047 55.514608 
L 179.098809 55.232245 
L 179.346497 54.998413 
L 179.536088 54.791053 
L 179.699134 54.614576 
L 180.408559 54.045439 
L 180.898457 53.511597 
L 181.082753 53.308649 
L 181.292052 53.088053 
L 181.450991 52.9204 
L 181.726484 52.642449 
L 181.959888 52.461561 
L 182.386104 51.998309 
L 182.900259 51.51741 
L 183.104116 51.305638 
L 183.419601 51.08063 
L 184.440877 50.387959 
L 184.653143 50.260014 
L 184.767376 50.202659 
L 185.094763 50.065889 
L 185.216758 49.99971 
L 185.546223 49.761467 
L 185.677376 49.659993 
L 185.951345 49.501164 
L 187.759813 48.561425 
L 188.461248 48.22612 
L 188.765129 48.102586 
L 189.315659 47.90405 
L 189.563999 47.780516 
L 190.865766 47.233438 
L 191.687289 46.796658 
L 193.180503 46.205461 
L 193.519578 46.108399 
L 194.198984 45.883391 
L 194.363848 45.808389 
L 195.702181 45.526026 
L 196.259722 45.393668 
L 197.12283 45.234839 
L 197.31053 45.195132 
L 202.12153 44.334808 
L 205.028538 44.136272 
L 206.740805 43.977443 
L 209.358946 43.805378 
L 210.254679 43.752435 
L 213.126643 43.540663 
L 215.690534 43.461248 
L 226.820159 43.223005 
L 226.876793 43.214181 
L 288.351094 42.962702 
L 342.855568 42.931818 
L 342.855568 42.931818 
" style="fill:none;stroke:#00aff0;stroke-dasharray:7.4,3.2;stroke-dashoffset:0;stroke-width:2;"/>
   </g>
   <g id="line2d_62">
    <path clip-path="url(#p40744413de)" d="M 114.650392 231.567776 
L 122.030563 231.413409 
L 123.154845 231.245811 
L 123.858057 231.109087 
L 124.503958 230.976772 
L 130.437372 229.618347 
L 130.585177 229.574242 
L 134.462384 228.304025 
L 134.769019 228.145248 
L 135.293194 227.898262 
L 135.875132 227.620402 
L 136.052977 227.488088 
L 136.196989 227.382236 
L 136.714028 226.989704 
L 136.879131 226.830927 
L 137.444283 226.359007 
L 137.683947 226.195819 
L 138.107664 225.838571 
L 138.288604 225.613637 
L 138.851606 224.802109 
L 139.504454 222.993815 
L 139.805717 222.089668 
L 139.937065 221.758883 
L 140.841313 219.857968 
L 141.231438 219.196397 
L 141.4403 218.834739 
L 141.881247 218.098189 
L 142.075617 217.762993 
L 142.167265 217.608627 
L 142.521135 216.973519 
L 142.701572 216.700069 
L 142.781432 216.51924 
L 143.435839 215.094657 
L 143.562494 214.737409 
L 144.079973 213.643611 
L 144.150022 213.462782 
L 145.071321 210.595974 
L 145.305115 209.550692 
L 145.927133 207.349865 
L 146.115823 206.882355 
L 146.306344 206.37515 
L 146.377491 206.220784 
L 149.005433 198.043766 
L 150.744093 190.140197 
L 151.13543 188.40247 
L 151.526935 186.938193 
L 151.577095 186.748543 
L 152.081705 184.680031 
L 152.135905 184.48597 
L 154.89266 170.266603 
L 154.996129 169.829966 
L 155.273346 168.528876 
L 156.003655 165.181327 
L 156.267779 163.946394 
L 156.368937 163.492115 
L 156.587349 162.614431 
L 156.990157 160.801726 
L 157.099498 160.316574 
L 157.294098 159.412427 
L 157.40238 158.927275 
L 162.062275 139.631453 
L 162.242542 138.894904 
L 166.544381 123.325932 
L 166.62798 123.096587 
L 166.957089 121.857244 
L 167.082282 121.486764 
L 167.276704 120.759036 
L 168.069066 118.125983 
L 168.204579 117.671705 
L 168.399448 117.186552 
L 168.578587 116.573497 
L 169.836625 112.401189 
L 170.137832 111.183898 
L 170.237131 110.822239 
L 170.531781 109.653463 
L 171.161012 107.254166 
L 171.32234 106.570542 
L 171.388761 106.332377 
L 171.461661 105.997181 
L 171.635928 105.370894 
L 171.786962 104.903383 
L 172.021902 104.074214 
L 172.132234 103.672861 
L 172.365881 102.839282 
L 174.869378 94.644622 
L 174.991376 94.322657 
L 175.174069 93.7934 
L 175.249193 93.616981 
L 175.731975 92.218861 
L 175.821886 92.011569 
L 176.226713 90.90013 
L 176.489198 90.150349 
L 176.666703 89.629913 
L 176.963275 88.906595 
L 177.050814 88.699303 
L 177.684997 87.323235 
L 177.794313 87.093891 
L 178.094308 86.335289 
L 178.978383 84.266777 
L 179.112276 83.856603 
L 179.164017 83.711057 
L 181.658793 78.643423 
L 181.927733 78.211197 
L 182.063692 77.968621 
L 182.222503 77.668709 
L 182.388901 77.412901 
L 182.555342 77.046832 
L 182.724588 76.760151 
L 182.833235 76.552859 
L 183.288537 75.741332 
L 183.407873 75.551681 
L 183.574359 75.291463 
L 183.983624 74.576967 
L 184.121506 74.343211 
L 184.391956 73.827186 
L 187.945239 68.062697 
L 188.096982 67.864226 
L 188.265753 67.608418 
L 188.375966 67.467283 
L 188.642559 67.039467 
L 190.807469 64.102092 
L 190.950883 63.90362 
L 191.261006 63.52432 
L 196.910015 56.591055 
L 197.200596 56.322016 
L 197.327275 56.185291 
L 197.81072 55.629572 
L 197.957584 55.506079 
L 198.119521 55.364943 
L 198.289578 55.140009 
L 198.787089 54.610752 
L 198.946975 54.456386 
L 199.112588 54.257914 
L 199.272444 54.055033 
L 199.470848 53.900666 
L 199.734863 53.675732 
L 200.121988 53.353767 
L 200.491327 52.939183 
L 200.803718 52.718659 
L 200.924306 52.595166 
L 201.16409 52.383463 
L 201.284311 52.255559 
L 201.441021 52.110014 
L 202.21987 51.351412 
L 202.363608 51.241151 
L 202.650571 51.020627 
L 202.771504 50.932417 
L 205.517923 49.141765 
L 205.883273 48.890368 
L 206.097918 48.793338 
L 207.009358 48.308186 
L 207.13308 48.246439 
L 207.76054 47.999452 
L 207.868976 47.968579 
L 208.225015 47.778929 
L 208.584273 47.598099 
L 213.239436 46.001508 
L 213.796 45.851552 
L 213.920301 45.803037 
L 215.86457 45.335526 
L 216.118604 45.251727 
L 216.929196 45.057666 
L 217.869197 44.841553 
L 219.052497 44.62544 
L 219.366273 44.559283 
L 220.263095 44.422558 
L 221.94592 44.219676 
L 224.051313 43.932996 
L 226.018591 43.743345 
L 230.893662 43.487538 
L 235.8756 43.275835 
L 244.741616 43.147931 
L 282.529941 42.958281 
L 314.32523 42.931818 
L 314.32523 42.931818 
" style="fill:none;stroke:#800000;stroke-dasharray:7.4,3.2;stroke-dashoffset:0;stroke-width:2;"/>
   </g>
   <g id="line2d_63">
    <path clip-path="url(#p40744413de)" d="M 131.40496 231.567231 
L 136.73421 231.255069 
L 137.147065 231.205519 
L 139.073241 230.828942 
L 139.607653 230.710023 
L 140.208939 230.551464 
L 142.214681 229.74876 
L 142.383435 229.694256 
L 143.33806 229.342453 
L 143.865668 229.15912 
L 144.29598 228.960921 
L 145.046609 228.683443 
L 145.222257 228.599209 
L 145.585801 228.45056 
L 147.594109 227.737046 
L 148.169686 227.568577 
L 148.417503 227.533892 
L 149.311464 227.335694 
L 149.421762 227.301009 
L 150.180492 227.127585 
L 150.329525 227.053261 
L 150.995318 226.800558 
L 151.242002 226.706413 
L 154.684686 225.680736 
L 155.572377 225.537042 
L 155.746043 225.487493 
L 157.086901 225.210015 
L 157.506143 225.120826 
L 158.74101 224.962267 
L 159.777002 224.803708 
L 160.740464 224.674879 
L 161.69677 224.243797 
L 161.907954 223.981184 
L 162.148077 223.773076 
L 162.290557 223.649202 
L 162.455375 223.574877 
L 162.78067 223.401454 
L 163.081822 223.26767 
L 163.31826 223.18839 
L 163.926079 222.930732 
L 164.336454 222.757309 
L 164.736567 222.593795 
L 166.993783 221.721721 
L 167.16901 221.642442 
L 170.000776 220.606855 
L 171.123561 220.260008 
L 171.347596 220.150998 
L 171.843248 219.9528 
L 172.080362 219.878475 
L 173.192046 219.591088 
L 175.854098 218.818114 
L 176.978806 218.610005 
L 177.416033 218.491086 
L 178.477179 218.317662 
L 178.878368 218.218563 
L 179.682868 218.074869 
L 179.881547 217.990635 
L 180.266164 217.802346 
L 180.389677 217.742887 
L 180.787746 217.599193 
L 181.142003 217.29694 
L 181.400026 216.806399 
L 181.592868 216.449642 
L 181.736958 216.256398 
L 181.914483 216.087929 
L 182.27682 215.676667 
L 182.531221 215.37937 
L 182.721821 215.176216 
L 183.063998 214.774864 
L 184.304404 212.906844 
L 184.45135 212.460897 
L 184.498436 212.292428 
L 185.477907 207.362241 
L 185.643799 206.539717 
L 185.804636 205.657734 
L 185.934708 204.924399 
L 186.140377 203.794668 
L 186.334021 202.86809 
L 186.535448 201.777998 
L 186.707996 200.90097 
L 186.905415 199.820788 
L 186.957796 199.59286 
L 187.108002 198.859526 
L 187.192026 198.433399 
L 187.36814 197.526641 
L 187.793538 195.574386 
L 187.848361 195.282043 
L 188.281191 193.250508 
L 192.863024 174.119399 
L 192.978061 173.678407 
L 193.118455 173.187866 
L 193.185119 172.974803 
L 195.67541 164.045961 
L 195.87503 163.510825 
L 196.008406 163.129293 
L 196.467516 161.915327 
L 198.76174 156.727481 
L 198.900358 156.474778 
L 199.091321 155.984237 
L 199.709738 154.631532 
L 200.016258 154.017117 
L 200.108791 153.863513 
L 200.247865 153.586035 
L 200.366954 153.353152 
L 201.494093 150.969815 
L 201.676877 150.637833 
L 201.806141 150.41486 
L 201.902489 150.221616 
L 202.066047 149.934228 
L 202.198647 149.760805 
L 202.3641 149.498192 
L 202.589684 149.116659 
L 202.721536 148.888731 
L 202.88376 148.640983 
L 203.012933 148.457649 
L 203.427663 147.085125 
L 203.77552 144.607644 
L 203.821015 144.345031 
L 203.965502 143.572057 
L 204.047035 143.334218 
L 204.178435 143.012146 
L 204.352164 142.680163 
L 204.538215 142.382866 
L 204.797743 141.85764 
L 204.929641 141.649531 
L 205.120379 141.277909 
L 205.2809 141.010341 
L 206.180149 139.117546 
L 206.755312 137.358534 
L 206.82902 137.086011 
L 206.97888 136.61529 
L 207.098926 136.248622 
L 207.422513 135.416189 
L 207.56415 135.138711 
L 207.703904 134.791864 
L 208.291677 133.374744 
L 208.394237 133.112131 
L 209.434191 131.075642 
L 209.578293 130.783299 
L 209.752742 130.525641 
L 209.893839 130.332397 
L 210.031612 130.144109 
L 210.764416 128.826089 
L 211.029211 128.464377 
L 211.174283 128.241403 
L 211.448844 127.884646 
L 211.619361 127.626988 
L 211.877019 127.245456 
L 212.016045 127.022483 
L 212.156605 126.824284 
L 215.1283 123.256711 
L 215.26332 123.108063 
L 215.820275 121.413465 
L 215.982172 121.170672 
L 216.261674 120.744546 
L 216.449439 120.506707 
L 216.637321 120.214365 
L 216.883925 119.857607 
L 217.009415 119.699048 
L 217.209825 119.406706 
L 217.338568 119.263012 
L 218.369498 118.321569 
L 218.613024 118.073821 
L 218.815581 117.925172 
L 219.000708 117.751748 
L 219.120267 117.627874 
L 220.283551 116.290034 
L 220.413437 115.868863 
L 220.468426 115.680574 
L 220.603289 115.165258 
L 220.745741 114.600392 
L 220.950631 113.748139 
L 221.778587 111.870208 
L 221.88718 111.716604 
L 222.309004 111.255793 
L 224.649385 109.437322 
L 224.873658 109.293628 
L 225.009065 109.194528 
L 225.347968 109.01615 
L 227.172829 108.074707 
L 227.440392 107.926058 
L 227.59944 107.836869 
L 227.948202 107.68822 
L 228.120592 107.584166 
L 228.767535 107.296778 
L 228.886648 107.257138 
L 229.275052 107.05894 
L 230.739939 106.157137 
L 230.841324 106.067947 
L 231.043893 105.904434 
L 231.157554 105.805334 
L 231.364281 105.567496 
L 232.196038 104.844072 
L 232.325679 104.730107 
L 232.451416 104.621098 
L 232.55112 104.482359 
L 232.840206 104.026503 
L 233.033164 103.778755 
L 233.178564 103.545872 
L 233.89306 102.758033 
L 234.068621 102.544969 
L 234.247964 102.282356 
L 237.476109 95.563427 
L 237.644207 94.973787 
L 237.697668 94.775588 
L 238.102752 93.23955 
L 238.224189 92.858018 
L 238.409634 92.248558 
L 238.498325 92.025584 
L 238.609026 91.723332 
L 239.069876 90.281438 
L 239.214716 89.731437 
L 239.452239 89.067472 
L 239.627865 88.532336 
L 239.798665 88.091344 
L 240.323683 86.703955 
L 240.397389 86.520621 
L 240.89496 85.207556 
L 241.009561 84.890439 
L 241.19205 84.385032 
L 241.382044 84.0035 
L 241.529827 83.681428 
L 241.836594 82.913409 
L 241.889963 82.769715 
L 242.108288 82.269264 
L 242.170505 82.11566 
L 242.878006 80.465657 
L 242.981286 80.222864 
L 243.219007 79.628269 
L 243.325649 79.43998 
L 243.824779 78.270609 
L 243.948387 78.022861 
L 244.098801 77.680969 
L 244.357291 77.061598 
L 244.819677 76.021056 
L 244.893904 75.793128 
L 245.434998 74.499883 
L 245.739992 73.925107 
L 246.030663 73.330512 
L 246.403619 72.592222 
L 246.520166 72.359339 
L 246.691035 72.047176 
L 246.841534 71.764744 
L 246.960567 71.56159 
L 247.075053 71.358437 
L 247.324246 70.97195 
L 247.813076 70.109786 
L 247.960538 69.847173 
L 248.897439 68.231855 
L 249.122893 67.899873 
L 249.574903 67.305278 
L 249.717824 67.082304 
L 249.866724 66.894016 
L 250.070957 66.695817 
L 250.373346 66.32915 
L 252.126346 64.684103 
L 252.395324 64.545364 
L 252.564667 64.42149 
L 252.736704 64.272841 
L 252.877226 64.134102 
L 254.082736 62.98455 
L 254.233509 62.850766 
L 254.70312 62.449415 
L 256.213537 61.740855 
L 256.420299 61.616981 
L 259.107525 60.135447 
L 260.111486 59.853014 
L 261.560664 59.124635 
L 261.790766 58.723283 
L 262.117719 58.212922 
L 262.632207 57.866074 
L 262.842573 57.722381 
L 263.653356 57.321029 
L 264.334934 57.08319 
L 264.569663 56.994001 
L 264.959255 56.845352 
L 265.064238 56.795803 
L 265.466343 56.642199 
L 266.127696 56.339946 
L 266.260751 56.320126 
L 266.809038 56.077333 
L 266.928398 55.983189 
L 267.624836 55.571927 
L 267.9536 55.299404 
L 268.168269 55.056611 
L 268.28213 54.972376 
L 269.068467 54.571025 
L 269.66142 54.080483 
L 269.80574 53.90706 
L 273.159926 51.345344 
L 273.555465 51.072821 
L 274.61921 50.007504 
L 274.780205 49.87372 
L 275.70231 49.521918 
L 276.097152 49.363359 
L 276.522216 49.21471 
L 276.823139 49.071016 
L 278.064945 48.743989 
L 278.611914 48.60525 
L 278.911771 48.521016 
L 280.244065 48.228673 
L 281.391533 48.015609 
L 281.554819 47.96606 
L 281.934156 47.792636 
L 285.687806 46.454796 
L 286.106636 46.202093 
L 286.331685 46.063354 
L 286.719399 45.835426 
L 286.837528 45.756147 
L 287.059648 45.642183 
L 288.432418 45.33002 
L 289.683337 45.186326 
L 297.244834 44.60164 
L 297.352668 44.586776 
L 298.41414 44.457947 
L 300.647172 44.254793 
L 301.890507 44.150739 
L 303.012015 44.016955 
L 303.869856 43.873261 
L 305.380523 43.704792 
L 305.502257 43.684972 
L 306.662007 43.556143 
L 322.699973 43.050737 
L 329.286183 42.931818 
L 329.286183 42.931818 
" style="fill:none;stroke:#ff5500;stroke-dasharray:7.4,3.2;stroke-dashoffset:0;stroke-width:2;"/>
   </g>
   <g id="line2d_64">
    <path clip-path="url(#p40744413de)" d="M 209.204756 231.568182 
L 230.204699 231.299874 
L 249.902743 231.151704 
L 255.075769 230.883396 
L 255.742313 230.787286 
L 268.62651 230.378818 
L 279.73488 230.246666 
L 283.265741 230.038427 
L 283.37653 230.00639 
L 283.984603 229.958335 
L 287.475019 229.770119 
L 287.975061 229.734078 
L 289.907652 229.597922 
L 291.287362 229.46577 
L 295.537124 229.16943 
L 296.32765 229.133389 
L 299.832443 228.889109 
L 302.968654 228.744944 
L 304.101783 228.704898 
L 308.331229 228.504668 
L 308.463622 228.408558 
L 309.058697 228.232356 
L 311.366693 227.972057 
L 320.538048 226.770679 
L 320.726667 226.302142 
L 321.374607 222.317571 
L 322.431403 220.315275 
L 322.711117 220.103031 
L 323.404994 219.085865 
L 325.037778 218.581286 
L 325.167613 218.529226 
L 326.36648 218.028652 
L 327.173085 217.724303 
L 327.685121 217.600161 
L 328.235375 217.447986 
L 329.016032 217.171669 
L 329.164881 217.119609 
L 329.498516 216.975444 
L 329.661034 216.855306 
L 330.145734 216.470865 
L 330.63054 215.661938 
L 330.822366 215.28951 
L 331.053442 214.780927 
L 331.169757 214.508615 
L 331.269198 214.284357 
L 331.568087 213.735728 
L 331.669017 213.527489 
L 331.795378 213.299228 
L 331.889707 213.026915 
L 332.044038 212.686525 
L 332.19265 212.29007 
L 332.359505 211.725422 
L 332.526224 211.256885 
L 332.722544 210.576104 
L 334.848701 201.669889 
L 334.949951 201.433618 
L 335.181195 200.796888 
L 335.329667 200.460502 
L 335.448574 200.168166 
L 336.019106 198.874683 
L 336.069103 198.738527 
L 336.256321 198.362095 
L 336.329075 198.185893 
L 336.43727 197.897562 
L 336.549734 197.633259 
L 337.835418 194.437593 
L 337.968921 194.177295 
L 338.072165 193.977065 
L 338.185183 193.708758 
L 338.318957 193.38839 
L 338.536198 192.955894 
L 339.420861 190.809432 
L 339.566104 190.441009 
L 339.692091 190.044555 
L 339.81212 189.608054 
L 339.858267 189.439861 
L 339.997429 188.903246 
L 340.660778 185.207006 
L 340.712775 184.990758 
L 341.89467 179.56053 
L 342.036429 179.128034 
L 342.302832 178.27906 
L 342.462141 177.730431 
L 342.59376 177.321962 
L 342.967135 176.132598 
L 343.073593 175.852276 
L 343.201761 175.403762 
L 343.346035 174.987284 
L 343.49204 174.670921 
L 343.614225 174.430646 
L 343.85447 173.966113 
L 344.244679 173.305355 
L 344.404704 173.041052 
L 344.549143 172.796772 
L 344.977951 172.192078 
L 345.129567 171.955807 
L 345.270297 171.751573 
L 345.667637 171.206948 
L 345.862395 170.886581 
L 345.947461 170.738411 
L 346.129877 170.373993 
L 346.276401 170.037607 
L 346.33984 169.861405 
L 346.484237 169.36884 
L 346.582197 169.056482 
L 346.746088 168.463802 
L 346.886499 167.979246 
L 347.052873 167.306474 
L 347.221934 166.625694 
L 347.366841 166.097087 
L 347.495698 165.624545 
L 347.630787 165.180035 
L 347.692268 165.019852 
L 347.769115 164.807608 
L 347.892944 164.451199 
L 348.010951 164.114814 
L 348.134972 163.682318 
L 348.258973 163.36195 
L 348.867301 161.367663 
L 348.934989 161.115373 
L 349.053126 160.75496 
L 349.153602 160.502671 
L 349.390592 159.81388 
L 349.471945 159.589623 
L 349.587837 159.313306 
L 349.804644 158.7847 
L 349.945187 158.516392 
L 350.824814 156.778399 
L 350.939636 156.417985 
L 351.014812 156.161691 
L 351.135131 155.749218 
L 351.301748 155.168552 
L 351.435167 154.487772 
L 351.826045 152.133071 
L 351.883129 151.94085 
L 352.033109 151.280092 
L 352.078417 151.067849 
L 352.213467 150.475169 
L 352.32562 150.034664 
L 354.402652 136.310923 
L 354.538842 135.249706 
L 354.603738 134.737118 
L 355.141498 130.924745 
L 355.202263 130.584355 
L 355.474155 128.75826 
L 355.635641 127.749103 
L 355.842864 126.291431 
L 355.926319 125.686737 
L 357.056677 119.487627 
L 357.196828 118.898952 
L 357.339139 118.158102 
L 357.393567 117.881785 
L 357.45976 117.489335 
L 357.5971 116.720453 
L 357.670656 116.283952 
L 357.808688 115.503057 
L 358.025686 114.121472 
L 358.170549 113.284512 
L 358.221332 112.96014 
L 358.347407 112.047093 
L 358.389809 111.782789 
L 358.551663 110.749604 
L 358.722089 109.620309 
L 358.833696 108.683234 
L 358.865278 108.314812 
L 359.063304 106.004161 
L 359.269861 103.801635 
L 359.953062 96.477234 
L 360.081985 94.803314 
L 360.279167 92.696898 
L 361.570195 79.061258 
L 361.649171 78.380477 
L 361.773552 77.37132 
L 362.017311 75.625317 
L 362.306793 72.778051 
L 362.664055 68.677348 
L 362.69729 68.433068 
L 362.872606 67.187639 
L 362.923925 66.867272 
L 363.058019 65.978252 
L 363.362103 64.468521 
L 363.410156 64.236254 
L 364.044749 61.008552 
L 364.10495 60.620106 
L 364.276571 59.390696 
L 364.318989 59.018269 
L 364.930582 55.990797 
L 364.983672 55.830613 
L 365.997677 52.282543 
L 366.058511 52.074305 
L 366.271512 51.349473 
L 366.407332 50.957023 
L 367.136402 48.101748 
L 367.330629 47.336871 
L 367.830951 46.083433 
L 367.909428 45.951281 
L 368.055307 45.634919 
L 368.134639 45.474735 
L 368.272701 45.198418 
L 368.50725 44.854023 
L 368.710775 44.53766 
L 368.901765 44.265348 
L 369.277322 43.868893 
L 369.451698 43.716718 
L 370.179279 43.356305 
L 371.305127 43.192117 
L 376.200884 42.947837 
L 382.789773 42.931818 
L 382.789773 42.931818 
" style="fill:none;stroke:#58b792;stroke-dasharray:7.4,3.2;stroke-dashoffset:0;stroke-width:2;"/>
   </g>
   <g id="line2d_65">
    <path clip-path="url(#p40744413de)" d="M 68.585227 231.567776 
L 69.505993 231.457514 
L 70.535671 230.95031 
L 73.094828 229.389002 
L 73.342639 229.269919 
L 73.680194 228.837693 
L 74.014131 228.471623 
L 74.224788 228.136427 
L 74.582634 227.492498 
L 77.060963 222.932069 
L 77.333599 222.707134 
L 78.004932 222.261677 
L 78.295798 222.120541 
L 78.84366 221.820629 
L 81.232348 220.484256 
L 81.542184 220.24609 
L 81.848969 220.016745 
L 82.059604 219.884431 
L 82.430586 219.549235 
L 83.871864 218.036443 
L 84.113007 217.789456 
L 84.718535 217.114654 
L 85.70923 216.157581 
L 86.203223 215.619503 
L 86.789869 215.03291 
L 86.969708 214.838849 
L 87.8149 213.943523 
L 96.389413 204.346333 
L 96.565637 204.187556 
L 96.857146 203.927338 
L 97.074002 203.755329 
L 97.786147 203.058474 
L 100.365899 200.78267 
L 100.739565 200.540094 
L 101.335805 200.081405 
L 101.673237 199.847649 
L 101.970138 199.618305 
L 102.434523 199.247825 
L 102.832266 198.961144 
L 103.011393 198.842061 
L 103.165808 198.678874 
L 103.554383 198.498045 
L 104.19143 198.154028 
L 104.871852 197.779137 
L 105.061967 197.642413 
L 105.614501 197.33368 
L 105.973879 197.174902 
L 109.828971 195.719446 
L 110.519703 195.503333 
L 110.845523 195.441586 
L 111.305149 195.309272 
L 112.177943 195.128443 
L 112.33725 195.071107 
L 118.831994 194.100802 
L 122.004681 193.89351 
L 130.829971 193.033468 
L 130.980783 193.007005 
L 133.932753 192.746787 
L 134.117614 192.707093 
L 136.094191 192.416001 
L 136.718066 192.301329 
L 138.088353 192.054343 
L 138.24635 192.014648 
L 139.155483 191.772072 
L 139.326745 191.701505 
L 139.703174 191.555959 
L 139.998898 191.361898 
L 140.439078 191.141375 
L 141.720061 190.228406 
L 141.857294 190.096092 
L 142.058615 189.915263 
L 142.302547 189.694739 
L 142.497668 189.487447 
L 143.085681 188.971421 
L 143.302131 188.689151 
L 143.471614 188.530374 
L 143.833555 188.155484 
L 143.984198 188.005528 
L 144.18181 187.736489 
L 144.504212 187.291031 
L 144.679809 187.026403 
L 147.126447 183.387762 
L 147.319526 183.017282 
L 147.396998 182.854095 
L 147.542809 182.642392 
L 148.007121 181.725013 
L 148.197629 181.328071 
L 148.652356 180.410692 
L 148.822551 180.031391 
L 149.154761 179.294842 
L 149.333016 178.836153 
L 149.408332 178.633271 
L 150.204071 176.401572 
L 150.415482 175.83262 
L 150.604792 175.17546 
L 151.702144 171.038436 
L 151.91854 170.279834 
L 152.044697 169.829966 
L 153.7476 163.342159 
L 154.165516 161.613253 
L 154.338006 161.048713 
L 154.74813 159.333039 
L 154.849823 158.891991 
L 155.18419 157.590902 
L 155.348928 157.02195 
L 159.30734 141.74407 
L 159.404959 141.400053 
L 159.665082 140.390054 
L 159.842424 139.715252 
L 160.108466 138.656738 
L 160.163686 138.427394 
L 160.447754 137.214513 
L 160.630083 136.513248 
L 160.89137 135.459145 
L 161.469554 133.245087 
L 161.522416 133.059847 
L 161.678653 132.407097 
L 161.828702 131.723474 
L 162.049742 130.889894 
L 162.464211 129.399154 
L 162.531287 129.138936 
L 162.949882 127.608502 
L 163.024601 127.343873 
L 163.223555 126.655839 
L 163.263194 126.501473 
L 163.569976 125.412086 
L 164.784172 121.133926 
L 164.836616 120.98397 
L 165.042265 120.225369 
L 165.138095 119.912225 
L 165.446322 118.756681 
L 165.622461 118.020132 
L 165.714935 117.706988 
L 166.023842 116.613191 
L 166.486971 114.990137 
L 166.859028 113.503807 
L 167.006005 112.983371 
L 167.444327 111.382369 
L 168.876321 106.222115 
L 168.930934 106.045696 
L 169.202569 105.053339 
L 169.394144 104.405 
L 169.574705 103.75666 
L 172.463467 94.335889 
L 172.684471 93.581698 
L 174.42354 87.953933 
L 174.706366 87.204153 
L 175.112898 86.123587 
L 176.421526 82.762806 
L 176.482438 82.61726 
L 176.743905 82.039488 
L 176.924413 81.624903 
L 177.085097 81.236782 
L 177.367876 80.561979 
L 178.678419 78.14945 
L 178.804191 77.96421 
L 179.558558 76.627837 
L 179.743823 76.327925 
L 179.903769 76.107401 
L 180.025706 75.917751 
L 180.186217 75.683995 
L 180.324993 75.481114 
L 180.498836 75.212075 
L 180.75141 74.788669 
L 181.016571 74.431421 
L 182.547922 72.318804 
L 182.728278 72.062997 
L 183.626372 70.814833 
L 183.781001 70.664876 
L 183.931317 70.475226 
L 184.444368 69.910685 
L 184.648808 69.690162 
L 184.856222 69.403481 
L 186.165165 67.90392 
L 186.416059 67.661344 
L 187.19762 66.779249 
L 187.311669 66.642524 
L 187.434819 66.488158 
L 187.582748 66.338202 
L 187.721338 66.183835 
L 189.465346 64.402004 
L 189.647572 64.194712 
L 189.852962 64.005061 
L 189.991332 63.833053 
L 190.279273 63.577245 
L 190.550948 63.259691 
L 190.756903 63.083272 
L 190.914737 62.898032 
L 191.044951 62.765718 
L 191.748108 62.077684 
L 191.907195 61.901265 
L 192.059323 61.742488 
L 192.256256 61.473449 
L 192.403313 61.305851 
L 192.631667 61.10738 
L 192.759594 60.930961 
L 192.954157 60.754542 
L 193.108542 60.604586 
L 193.246377 60.432578 
L 193.633521 59.98712 
L 193.750934 59.854806 
L 195.222307 58.346424 
L 195.402129 58.214109 
L 200.094532 53.556649 
L 200.334473 53.384641 
L 200.525208 53.172938 
L 201.7546 52.158529 
L 201.917439 52.026215 
L 202.343957 51.717482 
L 204.169167 50.363466 
L 204.483205 50.200279 
L 204.745919 49.988576 
L 205.679947 49.37111 
L 205.960821 49.19028 
L 206.905101 48.590456 
L 207.144456 48.414037 
L 207.313767 48.334648 
L 207.994258 47.950937 
L 208.140262 47.875959 
L 208.527908 47.69954 
L 208.835467 47.549584 
L 209.172405 47.381986 
L 209.41853 47.245261 
L 210.670885 46.663079 
L 211.56421 46.336704 
L 211.805641 46.261726 
L 212.825135 45.913298 
L 213.603478 45.706006 
L 213.800764 45.639849 
L 215.359915 45.287011 
L 215.50908 45.251727 
L 216.430682 45.057666 
L 222.250426 44.109415 
L 223.803996 43.932996 
L 224.968195 43.840376 
L 236.608326 43.275835 
L 254.529479 43.112648 
L 293.999623 42.94946 
L 298.448824 42.931818 
L 298.448824 42.931818 
" style="fill:none;stroke:#c70d2c;stroke-dasharray:7.4,3.2;stroke-dashoffset:0;stroke-width:2;"/>
   </g>
   <g id="patch_3">
    <path d="M 52.875 241 
L 52.875 33.5 
" style="fill:none;stroke:#000000;stroke-linecap:square;stroke-linejoin:miter;stroke-width:0.8;"/>
   </g>
   <g id="patch_4">
    <path d="M 398.5 241 
L 398.5 33.5 
" style="fill:none;stroke:#000000;stroke-linecap:square;stroke-linejoin:miter;stroke-width:0.8;"/>
   </g>
   <g id="patch_5">
    <path d="M 52.875 241 
L 398.5 241 
" style="fill:none;stroke:#000000;stroke-linecap:square;stroke-linejoin:miter;stroke-width:0.8;"/>
   </g>
   <g id="patch_6">
    <path d="M 52.875 33.5 
L 398.5 33.5 
" style="fill:none;stroke:#000000;stroke-linecap:square;stroke-linejoin:miter;stroke-width:0.8;"/>
   </g>
   <g id="text_14">
    <!-- Decision Time: Blocked Requests (CDF) -->
    <defs>
     <path d="M 19.671875 64.796875 
L 19.671875 8.109375 
L 31.59375 8.109375 
Q 46.6875 8.109375 53.6875 14.9375 
Q 60.6875 21.78125 60.6875 36.53125 
Q 60.6875 51.171875 53.6875 57.984375 
Q 46.6875 64.796875 31.59375 64.796875 
z
M 9.8125 72.90625 
L 30.078125 72.90625 
Q 51.265625 72.90625 61.171875 64.09375 
Q 71.09375 55.28125 71.09375 36.53125 
Q 71.09375 17.671875 61.125 8.828125 
Q 51.171875 0 30.078125 0 
L 9.8125 0 
z
" id="DejaVuSans-68"/>
     <path d="M 11.71875 12.40625 
L 22.015625 12.40625 
L 22.015625 0 
L 11.71875 0 
z
M 11.71875 51.703125 
L 22.015625 51.703125 
L 22.015625 39.3125 
L 11.71875 39.3125 
z
" id="DejaVuSans-58"/>
     <path d="M 19.671875 34.8125 
L 19.671875 8.109375 
L 35.5 8.109375 
Q 43.453125 8.109375 47.28125 11.40625 
Q 51.125 14.703125 51.125 21.484375 
Q 51.125 28.328125 47.28125 31.5625 
Q 43.453125 34.8125 35.5 34.8125 
z
M 19.671875 64.796875 
L 19.671875 42.828125 
L 34.28125 42.828125 
Q 41.5 42.828125 45.03125 45.53125 
Q 48.578125 48.25 48.578125 53.8125 
Q 48.578125 59.328125 45.03125 62.0625 
Q 41.5 64.796875 34.28125 64.796875 
z
M 9.8125 72.90625 
L 35.015625 72.90625 
Q 46.296875 72.90625 52.390625 68.21875 
Q 58.5 63.53125 58.5 54.890625 
Q 58.5 48.1875 55.375 44.234375 
Q 52.25 40.28125 46.1875 39.3125 
Q 53.46875 37.75 57.5 32.78125 
Q 61.53125 27.828125 61.53125 20.40625 
Q 61.53125 10.640625 54.890625 5.3125 
Q 48.25 0 35.984375 0 
L 9.8125 0 
z
" id="DejaVuSans-66"/>
     <path d="M 9.078125 75.984375 
L 18.109375 75.984375 
L 18.109375 31.109375 
L 44.921875 54.6875 
L 56.390625 54.6875 
L 27.390625 29.109375 
L 57.625 0 
L 45.90625 0 
L 18.109375 26.703125 
L 18.109375 0 
L 9.078125 0 
z
" id="DejaVuSans-107"/>
     <path d="M 45.40625 46.390625 
L 45.40625 75.984375 
L 54.390625 75.984375 
L 54.390625 0 
L 45.40625 0 
L 45.40625 8.203125 
Q 42.578125 3.328125 38.25 0.953125 
Q 33.9375 -1.421875 27.875 -1.421875 
Q 17.96875 -1.421875 11.734375 6.484375 
Q 5.515625 14.40625 5.515625 27.296875 
Q 5.515625 40.1875 11.734375 48.09375 
Q 17.96875 56 27.875 56 
Q 33.9375 56 38.25 53.625 
Q 42.578125 51.265625 45.40625 46.390625 
z
M 14.796875 27.296875 
Q 14.796875 17.390625 18.875 11.75 
Q 22.953125 6.109375 30.078125 6.109375 
Q 37.203125 6.109375 41.296875 11.75 
Q 45.40625 17.390625 45.40625 27.296875 
Q 45.40625 37.203125 41.296875 42.84375 
Q 37.203125 48.484375 30.078125 48.484375 
Q 22.953125 48.484375 18.875 42.84375 
Q 14.796875 37.203125 14.796875 27.296875 
z
" id="DejaVuSans-100"/>
     <path d="M 64.40625 67.28125 
L 64.40625 56.890625 
Q 59.421875 61.53125 53.78125 63.8125 
Q 48.140625 66.109375 41.796875 66.109375 
Q 29.296875 66.109375 22.65625 58.46875 
Q 16.015625 50.828125 16.015625 36.375 
Q 16.015625 21.96875 22.65625 14.328125 
Q 29.296875 6.6875 41.796875 6.6875 
Q 48.140625 6.6875 53.78125 8.984375 
Q 59.421875 11.28125 64.40625 15.921875 
L 64.40625 5.609375 
Q 59.234375 2.09375 53.4375 0.328125 
Q 47.65625 -1.421875 41.21875 -1.421875 
Q 24.65625 -1.421875 15.125 8.703125 
Q 5.609375 18.84375 5.609375 36.375 
Q 5.609375 53.953125 15.125 64.078125 
Q 24.65625 74.21875 41.21875 74.21875 
Q 47.75 74.21875 53.53125 72.484375 
Q 59.328125 70.75 64.40625 67.28125 
z
" id="DejaVuSans-67"/>
    </defs>
    <g transform="translate(107.196875 27.5)scale(0.12 -0.12)">
     <use xlink:href="#DejaVuSans-68"/>
     <use x="77.001953" xlink:href="#DejaVuSans-101"/>
     <use x="138.525391" xlink:href="#DejaVuSans-99"/>
     <use x="193.505859" xlink:href="#DejaVuSans-105"/>
     <use x="221.289062" xlink:href="#DejaVuSans-115"/>
     <use x="273.388672" xlink:href="#DejaVuSans-105"/>
     <use x="301.171875" xlink:href="#DejaVuSans-111"/>
     <use x="362.353516" xlink:href="#DejaVuSans-110"/>
     <use x="425.732422" xlink:href="#DejaVuSans-32"/>
     <use x="457.519531" xlink:href="#DejaVuSans-84"/>
     <use x="518.556641" xlink:href="#DejaVuSans-105"/>
     <use x="546.339844" xlink:href="#DejaVuSans-109"/>
     <use x="643.751953" xlink:href="#DejaVuSans-101"/>
     <use x="705.275391" xlink:href="#DejaVuSans-58"/>
     <use x="738.966797" xlink:href="#DejaVuSans-32"/>
     <use x="770.753906" xlink:href="#DejaVuSans-66"/>
     <use x="839.357422" xlink:href="#DejaVuSans-108"/>
     <use x="867.140625" xlink:href="#DejaVuSans-111"/>
     <use x="928.322266" xlink:href="#DejaVuSans-99"/>
     <use x="983.302734" xlink:href="#DejaVuSans-107"/>
     <use x="1041.166016" xlink:href="#DejaVuSans-101"/>
     <use x="1102.689453" xlink:href="#DejaVuSans-100"/>
     <use x="1166.166016" xlink:href="#DejaVuSans-32"/>
     <use x="1197.953125" xlink:href="#DejaVuSans-82"/>
     <use x="1267.373047" xlink:href="#DejaVuSans-101"/>
     <use x="1328.896484" xlink:href="#DejaVuSans-113"/>
     <use x="1392.373047" xlink:href="#DejaVuSans-117"/>
     <use x="1455.751953" xlink:href="#DejaVuSans-101"/>
     <use x="1517.275391" xlink:href="#DejaVuSans-115"/>
     <use x="1569.375" xlink:href="#DejaVuSans-116"/>
     <use x="1608.583984" xlink:href="#DejaVuSans-115"/>
     <use x="1660.683594" xlink:href="#DejaVuSans-32"/>
     <use x="1692.470703" xlink:href="#DejaVuSans-40"/>
     <use x="1731.484375" xlink:href="#DejaVuSans-67"/>
     <use x="1801.308594" xlink:href="#DejaVuSans-68"/>
     <use x="1878.310547" xlink:href="#DejaVuSans-70"/>
     <use x="1935.830078" xlink:href="#DejaVuSans-41"/>
    </g>
   </g>
   <g id="legend_1">
    <g id="patch_7">
     <path d="M 292.7125 236 
L 391.5 236 
Q 393.5 236 393.5 234 
L 393.5 161.609375 
Q 393.5 159.609375 391.5 159.609375 
L 292.7125 159.609375 
Q 290.7125 159.609375 290.7125 161.609375 
L 290.7125 234 
Q 290.7125 236 292.7125 236 
z
" style="fill:#ffffff;opacity:0.8;stroke:#cccccc;stroke-linejoin:miter;"/>
    </g>
    <g id="line2d_66">
     <path d="M 294.7125 167.707813 
L 314.7125 167.707813 
" style="fill:none;stroke:#00aff0;stroke-dasharray:7.4,3.2;stroke-dashoffset:0;stroke-width:2;"/>
    </g>
    <g id="line2d_67"/>
    <g id="text_15">
     <!-- Cliqz -->
     <defs>
      <path d="M 5.515625 54.6875 
L 48.1875 54.6875 
L 48.1875 46.484375 
L 14.40625 7.171875 
L 48.1875 7.171875 
L 48.1875 0 
L 4.296875 0 
L 4.296875 8.203125 
L 38.09375 47.515625 
L 5.515625 47.515625 
z
" id="DejaVuSans-122"/>
     </defs>
     <g transform="translate(322.7125 171.207813)scale(0.1 -0.1)">
      <use xlink:href="#DejaVuSans-67"/>
      <use x="69.824219" xlink:href="#DejaVuSans-108"/>
      <use x="97.607422" xlink:href="#DejaVuSans-105"/>
      <use x="125.390625" xlink:href="#DejaVuSans-113"/>
      <use x="188.867188" xlink:href="#DejaVuSans-122"/>
     </g>
    </g>
    <g id="line2d_68">
     <path d="M 294.7125 182.385938 
L 314.7125 182.385938 
" style="fill:none;stroke:#800000;stroke-dasharray:7.4,3.2;stroke-dashoffset:0;stroke-width:2;"/>
    </g>
    <g id="line2d_69"/>
    <g id="text_16">
     <!-- uBlock Origin -->
     <defs>
      <path d="M 39.40625 66.21875 
Q 28.65625 66.21875 22.328125 58.203125 
Q 16.015625 50.203125 16.015625 36.375 
Q 16.015625 22.609375 22.328125 14.59375 
Q 28.65625 6.59375 39.40625 6.59375 
Q 50.140625 6.59375 56.421875 14.59375 
Q 62.703125 22.609375 62.703125 36.375 
Q 62.703125 50.203125 56.421875 58.203125 
Q 50.140625 66.21875 39.40625 66.21875 
z
M 39.40625 74.21875 
Q 54.734375 74.21875 63.90625 63.9375 
Q 73.09375 53.65625 73.09375 36.375 
Q 73.09375 19.140625 63.90625 8.859375 
Q 54.734375 -1.421875 39.40625 -1.421875 
Q 24.03125 -1.421875 14.8125 8.828125 
Q 5.609375 19.09375 5.609375 36.375 
Q 5.609375 53.65625 14.8125 63.9375 
Q 24.03125 74.21875 39.40625 74.21875 
z
" id="DejaVuSans-79"/>
     </defs>
     <g transform="translate(322.7125 185.885938)scale(0.1 -0.1)">
      <use xlink:href="#DejaVuSans-117"/>
      <use x="63.378906" xlink:href="#DejaVuSans-66"/>
      <use x="131.982422" xlink:href="#DejaVuSans-108"/>
      <use x="159.765625" xlink:href="#DejaVuSans-111"/>
      <use x="220.947266" xlink:href="#DejaVuSans-99"/>
      <use x="275.927734" xlink:href="#DejaVuSans-107"/>
      <use x="333.837891" xlink:href="#DejaVuSans-32"/>
      <use x="365.625" xlink:href="#DejaVuSans-79"/>
      <use x="444.335938" xlink:href="#DejaVuSans-114"/>
      <use x="485.449219" xlink:href="#DejaVuSans-105"/>
      <use x="513.232422" xlink:href="#DejaVuSans-103"/>
      <use x="576.708984" xlink:href="#DejaVuSans-105"/>
      <use x="604.492188" xlink:href="#DejaVuSans-110"/>
     </g>
    </g>
    <g id="line2d_70">
     <path d="M 294.7125 197.064063 
L 314.7125 197.064063 
" style="fill:none;stroke:#ff5500;stroke-dasharray:7.4,3.2;stroke-dashoffset:0;stroke-width:2;"/>
    </g>
    <g id="line2d_71"/>
    <g id="text_17">
     <!-- Brave -->
     <defs>
      <path d="M 2.984375 54.6875 
L 12.5 54.6875 
L 29.59375 8.796875 
L 46.6875 54.6875 
L 56.203125 54.6875 
L 35.6875 0 
L 23.484375 0 
z
" id="DejaVuSans-118"/>
     </defs>
     <g transform="translate(322.7125 200.564063)scale(0.1 -0.1)">
      <use xlink:href="#DejaVuSans-66"/>
      <use x="68.603516" xlink:href="#DejaVuSans-114"/>
      <use x="109.716797" xlink:href="#DejaVuSans-97"/>
      <use x="170.996094" xlink:href="#DejaVuSans-118"/>
      <use x="230.175781" xlink:href="#DejaVuSans-101"/>
     </g>
    </g>
    <g id="line2d_72">
     <path d="M 294.7125 211.742188 
L 314.7125 211.742188 
" style="fill:none;stroke:#58b792;stroke-dasharray:7.4,3.2;stroke-dashoffset:0;stroke-width:2;"/>
    </g>
    <g id="line2d_73"/>
    <g id="text_18">
     <!-- DuckDuckGo -->
     <defs>
      <path d="M 59.515625 10.40625 
L 59.515625 29.984375 
L 43.40625 29.984375 
L 43.40625 38.09375 
L 69.28125 38.09375 
L 69.28125 6.78125 
Q 63.578125 2.734375 56.6875 0.65625 
Q 49.8125 -1.421875 42 -1.421875 
Q 24.90625 -1.421875 15.25 8.5625 
Q 5.609375 18.5625 5.609375 36.375 
Q 5.609375 54.25 15.25 64.234375 
Q 24.90625 74.21875 42 74.21875 
Q 49.125 74.21875 55.546875 72.453125 
Q 61.96875 70.703125 67.390625 67.28125 
L 67.390625 56.78125 
Q 61.921875 61.421875 55.765625 63.765625 
Q 49.609375 66.109375 42.828125 66.109375 
Q 29.4375 66.109375 22.71875 58.640625 
Q 16.015625 51.171875 16.015625 36.375 
Q 16.015625 21.625 22.71875 14.15625 
Q 29.4375 6.6875 42.828125 6.6875 
Q 48.046875 6.6875 52.140625 7.59375 
Q 56.25 8.5 59.515625 10.40625 
z
" id="DejaVuSans-71"/>
     </defs>
     <g transform="translate(322.7125 215.242188)scale(0.1 -0.1)">
      <use xlink:href="#DejaVuSans-68"/>
      <use x="77.001953" xlink:href="#DejaVuSans-117"/>
      <use x="140.380859" xlink:href="#DejaVuSans-99"/>
      <use x="195.361328" xlink:href="#DejaVuSans-107"/>
      <use x="253.271484" xlink:href="#DejaVuSans-68"/>
      <use x="330.273438" xlink:href="#DejaVuSans-117"/>
      <use x="393.652344" xlink:href="#DejaVuSans-99"/>
      <use x="448.632812" xlink:href="#DejaVuSans-107"/>
      <use x="506.542969" xlink:href="#DejaVuSans-71"/>
      <use x="584.033203" xlink:href="#DejaVuSans-111"/>
     </g>
    </g>
    <g id="line2d_74">
     <path d="M 294.7125 226.420313 
L 314.7125 226.420313 
" style="fill:none;stroke:#c70d2c;stroke-dasharray:7.4,3.2;stroke-dashoffset:0;stroke-width:2;"/>
    </g>
    <g id="line2d_75"/>
    <g id="text_19">
     <!-- Adblock Plus -->
     <defs>
      <path d="M 34.1875 63.1875 
L 20.796875 26.90625 
L 47.609375 26.90625 
z
M 28.609375 72.90625 
L 39.796875 72.90625 
L 67.578125 0 
L 57.328125 0 
L 50.6875 18.703125 
L 17.828125 18.703125 
L 11.1875 0 
L 0.78125 0 
z
" id="DejaVuSans-65"/>
      <path d="M 19.671875 64.796875 
L 19.671875 37.40625 
L 32.078125 37.40625 
Q 38.96875 37.40625 42.71875 40.96875 
Q 46.484375 44.53125 46.484375 51.125 
Q 46.484375 57.671875 42.71875 61.234375 
Q 38.96875 64.796875 32.078125 64.796875 
z
M 9.8125 72.90625 
L 32.078125 72.90625 
Q 44.34375 72.90625 50.609375 67.359375 
Q 56.890625 61.8125 56.890625 51.125 
Q 56.890625 40.328125 50.609375 34.8125 
Q 44.34375 29.296875 32.078125 29.296875 
L 19.671875 29.296875 
L 19.671875 0 
L 9.8125 0 
z
" id="DejaVuSans-80"/>
     </defs>
     <g transform="translate(322.7125 229.920313)scale(0.1 -0.1)">
      <use xlink:href="#DejaVuSans-65"/>
      <use x="68.392578" xlink:href="#DejaVuSans-100"/>
      <use x="131.869141" xlink:href="#DejaVuSans-98"/>
      <use x="195.345703" xlink:href="#DejaVuSans-108"/>
      <use x="223.128906" xlink:href="#DejaVuSans-111"/>
      <use x="284.310547" xlink:href="#DejaVuSans-99"/>
      <use x="339.291016" xlink:href="#DejaVuSans-107"/>
      <use x="397.201172" xlink:href="#DejaVuSans-32"/>
      <use x="428.988281" xlink:href="#DejaVuSans-80"/>
      <use x="489.291016" xlink:href="#DejaVuSans-108"/>
      <use x="517.074219" xlink:href="#DejaVuSans-117"/>
      <use x="580.453125" xlink:href="#DejaVuSans-115"/>
     </g>
    </g>
   </g>
  </g>
 </g>
 <defs>
  <clipPath id="p40744413de">
   <rect height="207.5" width="345.625" x="52.875" y="33.5"/>
  </clipPath>
 </defs>
</svg>
