<svg height="384" viewBox="0 0 432 288" width="576" xmlns="http://www.w3.org/2000/svg" xmlns:xlink="http://www.w3.org/1999/xlink"><defs><style>*{stroke-linecap:butt;stroke-linejoin:round}</style></defs><g id="figure_1"><path d="M0 288h432V0H0z" fill="#fff" id="patch_1"/><g id="axes_1"><path d="M52.875 241h347.368V30H52.875z" fill="#fff" id="patch_2"/><g id="matplotlib.axis_1"><g id="xtick_1"><path clip-path="url(#p27901b1a5f)" d="M130.283 241V30" fill="none" stroke="#b0b0b0" stroke-dasharray="3.7,1.6" id="line2d_1"/><g id="line2d_2"><defs><path d="M0 0v3.5" id="mf1ea9e4e50" stroke="#000" stroke-width=".8"/></defs><use x="130.283" xlink:href="#mf1ea9e4e50" y="241" stroke="#000" stroke-width=".8"/></g><g id="text_1"><defs><path d="M12.406 8.297h16.11v55.625l-17.532-3.516v8.985l17.438 3.515h9.86V8.296H54.39V0H12.406z" id="DejaVuSans-49"/><path d="M31.781 66.406q-7.61 0-11.453-7.5Q16.5 51.422 16.5 36.375q0-14.984 3.828-22.484 3.844-7.5 11.453-7.5 7.672 0 11.5 7.5 3.844 7.5 3.844 22.484 0 15.047-3.844 22.531-3.828 7.5-11.5 7.5zm0 7.813q12.266 0 18.735-9.703 6.468-9.688 6.468-28.141 0-18.406-6.468-28.11-6.47-9.687-18.735-9.687-12.25 0-18.718 9.688-6.47 9.703-6.47 28.109 0 18.453 6.47 28.14Q19.53 74.22 31.78 74.22z" id="DejaVuSans-48"/><path d="M10.594 35.5h62.593v-8.297H10.594z" id="DejaVuSans-8722"/><path d="M19.188 8.297h34.421V0H7.33v8.297q5.609 5.812 15.296 15.594 9.703 9.797 12.188 12.64 4.734 5.313 6.609 9 1.89 3.688 1.89 7.25 0 5.813-4.078 9.469-4.078 3.672-10.625 3.672-4.64 0-9.797-1.61-5.14-1.609-11-4.89v9.969Q13.767 71.78 18.938 73q5.188 1.219 9.485 1.219 11.328 0 18.062-5.672 6.735-5.656 6.735-15.125 0-4.5-1.688-8.531-1.672-4.016-6.125-9.485-1.218-1.422-7.765-8.187-6.532-6.766-18.453-18.922z" id="DejaVuSans-50"/></defs><g transform="matrix(.1 0 0 -.1 118.533 255.598)"><use transform="translate(0 .766)" xlink:href="#DejaVuSans-49"/><use transform="translate(63.623 .766)" xlink:href="#DejaVuSans-48"/><use transform="matrix(.7 0 0 .7 128.203 39.047)" xlink:href="#DejaVuSans-8722"/><use transform="matrix(.7 0 0 .7 186.855 39.047)" xlink:href="#DejaVuSans-50"/></g></g></g><g id="xtick_2"><path clip-path="url(#p27901b1a5f)" d="M230.691 241V30" fill="none" stroke="#b0b0b0" stroke-dasharray="3.7,1.6" id="line2d_3"/><use x="230.691" xlink:href="#mf1ea9e4e50" y="241" stroke="#000" stroke-width=".8" id="line2d_4"/><g transform="matrix(.1 0 0 -.1 218.941 255.598)" id="text_2"><use transform="translate(0 .684)" xlink:href="#DejaVuSans-49"/><use transform="translate(63.623 .684)" xlink:href="#DejaVuSans-48"/><use transform="matrix(.7 0 0 .7 128.203 38.966)" xlink:href="#DejaVuSans-8722"/><use transform="matrix(.7 0 0 .7 186.855 38.966)" xlink:href="#DejaVuSans-49"/></g></g><g id="xtick_3"><path clip-path="url(#p27901b1a5f)" d="M331.1 241V30" fill="none" stroke="#b0b0b0" stroke-dasharray="3.7,1.6" id="line2d_5"/><use x="331.1" xlink:href="#mf1ea9e4e50" y="241" stroke="#000" stroke-width=".8" id="line2d_6"/><g transform="matrix(.1 0 0 -.1 322.3 255.598)" id="text_3"><use transform="translate(0 .766)" xlink:href="#DejaVuSans-49"/><use transform="translate(63.623 .766)" xlink:href="#DejaVuSans-48"/><use transform="matrix(.7 0 0 .7 128.203 39.047)" xlink:href="#DejaVuSans-48"/></g></g><g id="xtick_4"><g id="line2d_7"><defs><path d="M0 0v2" id="m0aae80f04e" stroke="#000" stroke-width=".6"/></defs><use x="60.101" xlink:href="#m0aae80f04e" y="241" stroke="#000" stroke-width=".6"/></g></g><g id="xtick_5"><use x="77.782" xlink:href="#m0aae80f04e" y="241" stroke="#000" stroke-width=".6" id="line2d_8"/></g><g id="xtick_6"><use x="90.326" xlink:href="#m0aae80f04e" y="241" stroke="#000" stroke-width=".6" id="line2d_9"/></g><g id="xtick_7"><use x="100.057" xlink:href="#m0aae80f04e" y="241" stroke="#000" stroke-width=".6" id="line2d_10"/></g><g id="xtick_8"><use x="108.007" xlink:href="#m0aae80f04e" y="241" stroke="#000" stroke-width=".6" id="line2d_11"/></g><g id="xtick_9"><use x="114.73" xlink:href="#m0aae80f04e" y="241" stroke="#000" stroke-width=".6" id="line2d_12"/></g><g id="xtick_10"><use x="120.552" xlink:href="#m0aae80f04e" y="241" stroke="#000" stroke-width=".6" id="line2d_13"/></g><g id="xtick_11"><use x="125.689" xlink:href="#m0aae80f04e" y="241" stroke="#000" stroke-width=".6" id="line2d_14"/></g><g id="xtick_12"><use x="160.509" xlink:href="#m0aae80f04e" y="241" stroke="#000" stroke-width=".6" id="line2d_15"/></g><g id="xtick_13"><use x="178.19" xlink:href="#m0aae80f04e" y="241" stroke="#000" stroke-width=".6" id="line2d_16"/></g><g id="xtick_14"><use x="190.735" xlink:href="#m0aae80f04e" y="241" stroke="#000" stroke-width=".6" id="line2d_17"/></g><g id="xtick_15"><use x="200.465" xlink:href="#m0aae80f04e" y="241" stroke="#000" stroke-width=".6" id="line2d_18"/></g><g id="xtick_16"><use x="208.416" xlink:href="#m0aae80f04e" y="241" stroke="#000" stroke-width=".6" id="line2d_19"/></g><g id="xtick_17"><use x="215.138" xlink:href="#m0aae80f04e" y="241" stroke="#000" stroke-width=".6" id="line2d_20"/></g><g id="xtick_18"><use x="220.961" xlink:href="#m0aae80f04e" y="241" stroke="#000" stroke-width=".6" id="line2d_21"/></g><g id="xtick_19"><use x="226.097" xlink:href="#m0aae80f04e" y="241" stroke="#000" stroke-width=".6" id="line2d_22"/></g><g id="xtick_20"><use x="260.917" xlink:href="#m0aae80f04e" y="241" stroke="#000" stroke-width=".6" id="line2d_23"/></g><g id="xtick_21"><use x="278.598" xlink:href="#m0aae80f04e" y="241" stroke="#000" stroke-width=".6" id="line2d_24"/></g><g id="xtick_22"><use x="291.143" xlink:href="#m0aae80f04e" y="241" stroke="#000" stroke-width=".6" id="line2d_25"/></g><g id="xtick_23"><use x="300.874" xlink:href="#m0aae80f04e" y="241" stroke="#000" stroke-width=".6" id="line2d_26"/></g><g id="xtick_24"><use x="308.824" xlink:href="#m0aae80f04e" y="241" stroke="#000" stroke-width=".6" id="line2d_27"/></g><g id="xtick_25"><use x="315.546" xlink:href="#m0aae80f04e" y="241" stroke="#000" stroke-width=".6" id="line2d_28"/></g><g id="xtick_26"><use x="321.369" xlink:href="#m0aae80f04e" y="241" stroke="#000" stroke-width=".6" id="line2d_29"/></g><g id="xtick_27"><use x="326.505" xlink:href="#m0aae80f04e" y="241" stroke="#000" stroke-width=".6" id="line2d_30"/></g><g id="xtick_28"><use x="361.325" xlink:href="#m0aae80f04e" y="241" stroke="#000" stroke-width=".6" id="line2d_31"/></g><g id="xtick_29"><use x="379.006" xlink:href="#m0aae80f04e" y="241" stroke="#000" stroke-width=".6" id="line2d_32"/></g><g id="xtick_30"><use x="391.551" xlink:href="#m0aae80f04e" y="241" stroke="#000" stroke-width=".6" id="line2d_33"/></g><g id="text_4"><defs><path d="M-.297 72.906h61.672v-8.312H35.5V0h-9.906v64.594H-.296z" id="DejaVuSans-84"/><path d="M9.422 54.688h8.984V0H9.422zm0 21.296h8.984v-11.39H9.422z" id="DejaVuSans-105"/><path d="M52 44.188q3.375 6.062 8.063 8.937Q64.75 56 71.093 56q8.548 0 13.188-5.984 4.64-5.97 4.64-17V0h-9.03v32.719q0 7.86-2.797 11.656-2.781 3.813-8.485 3.813-6.984 0-11.046-4.641-4.047-4.625-4.047-12.64V0h-9.032v32.719q0 7.906-2.78 11.687-2.782 3.782-8.595 3.782-6.89 0-10.953-4.657-4.047-4.656-4.047-12.625V0H9.08v54.688h9.03v-8.5q3.078 5.03 7.375 7.421Q29.781 56 35.687 56q5.97 0 10.141-3.031Q50 49.953 52 44.187z" id="DejaVuSans-109"/><path d="M56.203 29.594v-4.39H14.891q.593-9.282 5.593-14.142 5-4.859 13.938-4.859 5.172 0 10.031 1.266 4.86 1.265 9.656 3.812v-8.5Q49.266.734 44.187-.344 39.11-1.422 33.892-1.422q-13.094 0-20.735 7.61-7.64 7.625-7.64 20.625 0 13.421 7.25 21.296Q20.016 56 32.328 56q11.031 0 17.453-7.11 6.422-7.093 6.422-19.296zm-8.984 2.64q-.094 7.36-4.125 11.75-4.032 4.407-10.672 4.407-7.516 0-12.031-4.25-4.516-4.25-5.203-11.97z" id="DejaVuSans-101"/><path d="M31 75.875q-6.531-11.219-9.719-22.219-3.172-10.984-3.172-22.265 0-11.266 3.203-22.328Q24.517-2 31-13.188h-7.813Q15.875-1.704 12.235 9.375q-3.64 11.078-3.64 22.016 0 10.89 3.61 21.922 3.624 11.046 10.983 22.562z" id="DejaVuSans-40"/><path d="M44.281 53.078v-8.5q-3.797 1.953-7.906 2.922-4.094.984-8.5.984-6.688 0-10.031-2.047-3.344-2.046-3.344-6.156 0-3.125 2.39-4.906 2.391-1.781 9.626-3.39l3.078-.688q9.562-2.047 13.593-5.781 4.032-3.735 4.032-10.422 0-7.625-6.032-12.078-6.03-4.438-16.578-4.438-4.39 0-9.156.86Q10.688.296 5.422 2v9.281q4.984-2.594 9.812-3.89 4.829-1.282 9.579-1.282 6.343 0 9.75 2.172 3.421 2.172 3.421 6.125 0 3.656-2.468 5.61-2.453 1.953-10.813 3.765l-3.125.735q-8.344 1.75-12.062 5.39-3.704 3.64-3.704 9.985 0 7.718 5.47 11.906Q16.75 56 26.811 56q4.97 0 9.36-.734 4.406-.72 8.11-2.188z" id="DejaVuSans-115"/><path d="M8.016 75.875h7.812q7.313-11.516 10.953-22.563 3.64-11.03 3.64-21.921 0-10.938-3.64-22.016-3.64-11.078-10.953-22.563H8.016Q14.5-2 17.703 9.063q3.203 11.063 3.203 22.329 0 11.28-3.203 22.265-3.203 11-9.687 22.219z" id="DejaVuSans-41"/></defs><g transform="matrix(.1 0 0 -.1 199.617 269.277)"><use xlink:href="#DejaVuSans-84"/><use x="61.037" xlink:href="#DejaVuSans-105"/><use x="88.82" xlink:href="#DejaVuSans-109"/><use x="186.232" xlink:href="#DejaVuSans-101"/><use x="247.756" xlink:href="#DejaVuSans-32"/><use x="279.543" xlink:href="#DejaVuSans-40"/><use x="318.557" xlink:href="#DejaVuSans-109"/><use x="415.969" xlink:href="#DejaVuSans-115"/><use x="468.068" xlink:href="#DejaVuSans-41"/><use x="507.082" xlink:href="#DejaVuSans-32"/></g><defs><path d="M9.422 75.984h8.984V0H9.422z" id="DejaVuSans-108"/><path d="M30.61 48.39q-7.22 0-11.422-5.64-4.204-5.64-4.204-15.453 0-9.813 4.172-15.453 4.188-5.64 11.453-5.64 7.188 0 11.375 5.655 4.203 5.672 4.203 15.438 0 9.719-4.203 15.406-4.187 5.688-11.375 5.688zm0 7.61q11.718 0 18.406-7.625 6.703-7.61 6.703-21.078 0-13.422-6.703-21.078-6.688-7.64-18.407-7.64-11.765 0-18.437 7.64-6.656 7.656-6.656 21.078 0 13.469 6.656 21.078Q18.844 56 30.609 56z" id="DejaVuSans-111"/><path d="M45.406 27.984q0 9.766-4.031 15.125-4.016 5.375-11.297 5.375-7.219 0-11.25-5.375-4.031-5.359-4.031-15.125 0-9.718 4.031-15.093t11.25-5.375q7.281 0 11.297 5.375 4.031 5.375 4.031 15.093zm8.985-21.203q0-13.953-6.203-20.765Q42-20.797 29.203-20.797q-4.734 0-8.937.703-4.203.703-8.157 2.172v8.735q3.954-2.141 7.813-3.157 3.86-1.031 7.86-1.031 8.843 0 13.234 4.61 4.39 4.609 4.39 13.937v4.453q-2.781-4.844-7.125-7.234Q33.938 0 27.875 0 17.828 0 11.672 7.656q-6.156 7.672-6.156 20.328 0 12.688 6.156 20.344Q17.828 56 27.875 56q6.063 0 10.406-2.39 4.344-2.391 7.125-7.22v8.297h8.985z" id="DejaVuSans-103"/><path d="M48.688 27.297q0 9.906-4.079 15.547-4.078 5.64-11.203 5.64-7.14 0-11.218-5.64-4.079-5.64-4.079-15.547 0-9.906 4.078-15.547 4.079-5.64 11.22-5.64 7.124 0 11.202 5.64t4.078 15.547zM18.108 46.39q2.844 4.875 7.157 7.234Q29.594 56 35.594 56q9.968 0 16.187-7.906 6.235-7.907 6.235-20.797T51.78 6.484q-6.218-7.906-16.187-7.906-6 0-10.328 2.375-4.313 2.375-7.157 7.25V0H9.08v75.984h9.03z" id="DejaVuSans-98"/><path d="M34.281 27.484q-10.89 0-15.093-2.484-4.204-2.484-4.204-8.5 0-4.781 3.157-7.594 3.156-2.797 8.562-2.797 7.485 0 12 5.297 4.516 5.297 4.516 14.078v2zm17.922 3.72V0H43.22v8.297Q40.14 3.328 35.547.953q-4.594-2.375-11.234-2.375-8.391 0-13.36 4.719Q6 8.016 6 15.922q0 9.219 6.172 13.906 6.187 4.688 18.437 4.688h12.61v.89q0 6.203-4.078 9.594-4.078 3.39-11.453 3.39-4.688 0-9.141-1.124-4.438-1.125-8.531-3.375v8.312q4.921 1.906 9.562 2.844 4.64.953 9.031.953 11.875 0 17.735-6.156 5.86-6.14 5.86-18.64z" id="DejaVuSans-97"/></defs><g transform="matrix(.1 0 0 -.1 191.985 280.474)"><use xlink:href="#DejaVuSans-32"/><use x="31.787" xlink:href="#DejaVuSans-108"/><use x="59.57" xlink:href="#DejaVuSans-111"/><use x="120.752" xlink:href="#DejaVuSans-103"/><use x="184.229" xlink:href="#DejaVuSans-32"/><use x="216.016" xlink:href="#DejaVuSans-40"/><use x="255.029" xlink:href="#DejaVuSans-98"/><use x="318.506" xlink:href="#DejaVuSans-97"/><use x="379.785" xlink:href="#DejaVuSans-115"/><use x="431.885" xlink:href="#DejaVuSans-101"/><use x="493.408" xlink:href="#DejaVuSans-32"/><use x="525.195" xlink:href="#DejaVuSans-49"/><use x="588.818" xlink:href="#DejaVuSans-48"/><use x="652.441" xlink:href="#DejaVuSans-41"/></g></g></g><g id="matplotlib.axis_2"><g id="ytick_1"><path clip-path="url(#p27901b1a5f)" d="M52.875 231.41h347.368" fill="none" stroke="#b0b0b0" stroke-dasharray="3.7,1.6" id="line2d_34"/><g id="line2d_35"><defs><path d="M0 0h-3.5" id="mab02b788f1" stroke="#000" stroke-width=".8"/></defs><use x="52.875" xlink:href="#mab02b788f1" y="231.41" stroke="#000" stroke-width=".8"/></g><g id="text_5"><defs><path d="M10.688 12.406H21V0H10.687z" id="DejaVuSans-46"/></defs><g transform="matrix(.1 0 0 -.1 29.972 235.21)"><use xlink:href="#DejaVuSans-48"/><use x="63.623" xlink:href="#DejaVuSans-46"/><use x="95.41" xlink:href="#DejaVuSans-48"/></g></g></g><g id="ytick_2"><path clip-path="url(#p27901b1a5f)" d="M52.875 193.046h347.368" fill="none" stroke="#b0b0b0" stroke-dasharray="3.7,1.6" id="line2d_36"/><use x="52.875" xlink:href="#mab02b788f1" y="193.046" stroke="#000" stroke-width=".8" id="line2d_37"/><g transform="matrix(.1 0 0 -.1 29.972 196.845)" id="text_6"><use xlink:href="#DejaVuSans-48"/><use x="63.623" xlink:href="#DejaVuSans-46"/><use x="95.41" xlink:href="#DejaVuSans-50"/></g></g><g id="ytick_3"><path clip-path="url(#p27901b1a5f)" d="M52.875 154.682h347.368" fill="none" stroke="#b0b0b0" stroke-dasharray="3.7,1.6" id="line2d_38"/><use x="52.875" xlink:href="#mab02b788f1" y="154.682" stroke="#000" stroke-width=".8" id="line2d_39"/><g id="text_7"><defs><path d="M37.797 64.313L12.89 25.39h24.906zm-2.594 8.593H47.61V25.391h10.407v-8.203H47.609V0h-9.812v17.188H4.89v9.515z" id="DejaVuSans-52"/></defs><g transform="matrix(.1 0 0 -.1 29.972 158.482)"><use xlink:href="#DejaVuSans-48"/><use x="63.623" xlink:href="#DejaVuSans-46"/><use x="95.41" xlink:href="#DejaVuSans-52"/></g></g></g><g id="ytick_4"><path clip-path="url(#p27901b1a5f)" d="M52.875 116.319h347.368" fill="none" stroke="#b0b0b0" stroke-dasharray="3.7,1.6" id="line2d_40"/><use x="52.875" xlink:href="#mab02b788f1" y="116.319" stroke="#000" stroke-width=".8" id="line2d_41"/><g id="text_8"><defs><path d="M33.016 40.375q-6.641 0-10.532-4.547-3.875-4.531-3.875-12.437 0-7.86 3.875-12.438 3.891-4.562 10.532-4.562 6.64 0 10.515 4.562 3.875 4.578 3.875 12.438 0 7.906-3.875 12.437-3.875 4.547-10.515 4.547zm19.578 30.922v-8.984q-3.719 1.75-7.5 2.671-3.782.938-7.5.938-9.766 0-14.922-6.594-5.14-6.594-5.875-19.922 2.875 4.25 7.219 6.516 4.359 2.266 9.578 2.266 10.984 0 17.36-6.672 6.374-6.657 6.374-18.125 0-11.235-6.64-18.032-6.641-6.78-17.672-6.78-12.657 0-19.344 9.687-6.688 9.703-6.688 28.109 0 17.281 8.204 27.563 8.203 10.28 22.015 10.28 3.719 0 7.5-.734t7.89-2.187z" id="DejaVuSans-54"/></defs><g transform="matrix(.1 0 0 -.1 29.972 120.118)"><use xlink:href="#DejaVuSans-48"/><use x="63.623" xlink:href="#DejaVuSans-46"/><use x="95.41" xlink:href="#DejaVuSans-54"/></g></g></g><g id="ytick_5"><path clip-path="url(#p27901b1a5f)" d="M52.875 77.955h347.368" fill="none" stroke="#b0b0b0" stroke-dasharray="3.7,1.6" id="line2d_42"/><use x="52.875" xlink:href="#mab02b788f1" y="77.955" stroke="#000" stroke-width=".8" id="line2d_43"/><g id="text_9"><defs><path d="M31.781 34.625q-7.031 0-11.062-3.766-4.016-3.765-4.016-10.343 0-6.594 4.016-10.36Q24.75 6.391 31.78 6.391q7.032 0 11.078 3.78 4.063 3.798 4.063 10.345 0 6.578-4.031 10.343-4.016 3.766-11.11 3.766zm-9.86 4.188q-6.343 1.562-9.89 5.906Q8.5 49.079 8.5 55.329q0 8.733 6.219 13.812 6.234 5.078 17.062 5.078 10.89 0 17.094-5.078 6.203-5.079 6.203-13.813 0-6.25-3.547-10.61-3.531-4.343-9.828-5.906 7.125-1.656 11.094-6.5 3.984-4.828 3.984-11.796 0-10.61-6.468-16.282-6.47-5.656-18.532-5.656-12.047 0-18.531 5.656-6.469 5.672-6.469 16.282 0 6.968 4 11.797 4.016 4.843 11.14 6.5zM18.314 54.39q0-5.657 3.53-8.828 3.548-3.172 9.938-3.172 6.36 0 9.938 3.172 3.593 3.171 3.593 8.828 0 5.672-3.593 8.843-3.578 3.172-9.938 3.172-6.39 0-9.937-3.172-3.532-3.172-3.532-8.843z" id="DejaVuSans-56"/></defs><g transform="matrix(.1 0 0 -.1 29.972 81.754)"><use xlink:href="#DejaVuSans-48"/><use x="63.623" xlink:href="#DejaVuSans-46"/><use x="95.41" xlink:href="#DejaVuSans-56"/></g></g></g><g id="ytick_6"><path clip-path="url(#p27901b1a5f)" d="M52.875 39.59h347.368" fill="none" stroke="#b0b0b0" stroke-dasharray="3.7,1.6" id="line2d_44"/><use x="52.875" xlink:href="#mab02b788f1" y="39.591" stroke="#000" stroke-width=".8" id="line2d_45"/><g transform="matrix(.1 0 0 -.1 29.972 43.39)" id="text_10"><use xlink:href="#DejaVuSans-49"/><use x="63.623" xlink:href="#DejaVuSans-46"/><use x="95.41" xlink:href="#DejaVuSans-48"/></g></g><g id="text_11"><defs><path d="M9.813 72.906h41.89v-8.312H19.672V43.109h28.906v-8.297H19.672V0h-9.86z" id="DejaVuSans-70"/><path d="M41.11 46.297q-1.516.875-3.297 1.281Q36.03 48 33.89 48q-7.625 0-11.703-4.953-4.079-4.953-4.079-14.234V0H9.08v54.688h9.03v-8.5q2.844 4.984 7.375 7.39Q30.031 56 36.531 56q.922 0 2.047-.125 1.125-.11 2.484-.36z" id="DejaVuSans-114"/><path d="M48.781 52.594v-8.407q-3.812 2.11-7.64 3.157-3.828 1.047-7.735 1.047-8.75 0-13.593-5.547-4.829-5.532-4.829-15.547 0-10.016 4.829-15.563 4.843-5.53 13.593-5.53 3.907 0 7.735 1.046 3.828 1.047 7.64 3.156V2.094Q45.016.344 40.984-.531q-4.015-.89-8.562-.89-12.36 0-19.64 7.765-7.266 7.765-7.266 20.953 0 13.375 7.343 21.031Q20.22 56 33.016 56q4.14 0 8.093-.86 3.953-.843 7.672-2.546z" id="DejaVuSans-99"/><path d="M18.313 70.219V54.688h18.5v-6.985h-18.5V18.016q0-6.688 1.828-8.594 1.828-1.906 7.453-1.906h9.218V0h-9.218q-10.407 0-14.36 3.875-3.953 3.89-3.953 14.14v29.688H2.687v6.984h6.594V70.22z" id="DejaVuSans-116"/><path d="M54.89 33.016V0h-8.984v32.719q0 7.765-3.031 11.61-3.031 3.858-9.078 3.858-7.281 0-11.484-4.64-4.204-4.625-4.204-12.64V0H9.08v54.688h9.03v-8.5q3.235 4.937 7.594 7.374Q30.078 56 35.797 56q9.422 0 14.25-5.828 4.844-5.828 4.844-17.156z" id="DejaVuSans-110"/><path d="M37.11 75.984V68.5h-8.594q-4.828 0-6.72-1.953-1.874-1.953-1.874-7.031v-4.828h14.797v-6.985H19.922V0H10.89v47.703H2.297v6.984h8.594V58.5q0 9.125 4.25 13.297 4.25 4.187 13.468 4.187z" id="DejaVuSans-102"/><path d="M44.39 34.188q3.172-1.079 6.172-4.594 3-3.516 6.032-9.672L66.609 0H56l-9.313 18.703q-3.624 7.328-7.015 9.719-3.39 2.39-9.25 2.39h-10.75V0h-9.86v72.906h22.266q12.5 0 18.656-5.234 6.157-5.219 6.157-15.766 0-6.89-3.203-11.437-3.204-4.532-9.297-6.282zM19.673 64.797V38.922h12.406q7.125 0 10.766 3.297 3.64 3.297 3.64 9.687 0 6.39-3.64 9.64-3.64 3.25-10.766 3.25z" id="DejaVuSans-82"/><path d="M14.797 27.297q0-9.906 4.078-15.547 4.078-5.64 11.203-5.64 7.125 0 11.219 5.64 4.11 5.64 4.11 15.547 0 9.906-4.11 15.547-4.094 5.64-11.219 5.64-7.125 0-11.203-5.64-4.078-5.64-4.078-15.547zm30.61-19.094q-2.83-4.875-7.157-7.25-4.313-2.375-10.375-2.375-9.906 0-16.14 7.906-6.22 7.922-6.22 20.813 0 12.89 6.22 20.797Q17.968 56 27.874 56q6.063 0 10.375-2.375 4.328-2.36 7.156-7.234v8.297h8.985v-75.485h-8.985z" id="DejaVuSans-113"/><path d="M8.5 21.578v33.11h8.984V21.922q0-7.766 3.016-11.656 3.031-3.875 9.094-3.875 7.265 0 11.484 4.64 4.234 4.64 4.234 12.656v31h8.985V0h-8.984v8.406Q42.047 3.422 37.718 1q-4.313-2.422-10.032-2.422-9.421 0-14.312 5.86Q8.5 10.296 8.5 21.578zM31.11 56z" id="DejaVuSans-117"/></defs><g transform="matrix(0 -.1 -.1 0 23.892 186.95)"><use xlink:href="#DejaVuSans-70"/><use x="57.41" xlink:href="#DejaVuSans-114"/><use x="98.523" xlink:href="#DejaVuSans-97"/><use x="159.803" xlink:href="#DejaVuSans-99"/><use x="214.783" xlink:href="#DejaVuSans-116"/><use x="253.992" xlink:href="#DejaVuSans-105"/><use x="281.775" xlink:href="#DejaVuSans-111"/><use x="342.957" xlink:href="#DejaVuSans-110"/><use x="406.336" xlink:href="#DejaVuSans-32"/><use x="438.123" xlink:href="#DejaVuSans-111"/><use x="499.305" xlink:href="#DejaVuSans-102"/><use x="534.51" xlink:href="#DejaVuSans-32"/><use x="566.297" xlink:href="#DejaVuSans-82"/><use x="635.717" xlink:href="#DejaVuSans-101"/><use x="697.24" xlink:href="#DejaVuSans-113"/><use x="760.717" xlink:href="#DejaVuSans-117"/><use x="824.096" xlink:href="#DejaVuSans-101"/><use x="885.619" xlink:href="#DejaVuSans-115"/><use x="937.719" xlink:href="#DejaVuSans-116"/><use x="976.928" xlink:href="#DejaVuSans-115"/></g></g></g><path clip-path="url(#p27901b1a5f)" d="M68.7 231.41l8.629-.121 3.171-.297 1.186-.113 2.83-.477.422-.085 1.622-.455 1.46-.54 1.559-.823.474-.355 1.148-.937.773-.696.532-.485 1.176-1.224.332-.374 1.729-2.423 1.074-2.047.356-.75 1.932-4.945.479-1.604.508-1.663 2.25-7.05.698-2.508 1.678-5.99.537-1.95 1.559-6.36.645-3.034.94-4.46.486-2.26 1.882-8.737.838-4.057.993-4.867 1.932-9.397.386-1.803 1.941-9.195.266-1.171.991-4.385 1.768-7.211 1.174-4.84 1.039-4.172.183-.746.48-1.969.433-1.77 1.364-5.492.529-2.021 1.144-4.18.735-2.468.599-1.869 4.448-12.123 1.625-3.736.266-.594.554-1.227 3.596-6.831.523-.792 1.387-2.119.133-.188 1.022-1.447.359-.483.128-.19 2.8-3.782.202-.285.179-.223.386-.508.21-.243 1.21-1.513.139-.15.2-.215.145-.158 1.038-1.042.37-.349.351-.332.476-.417.194-.187.2-.176.389-.31.176-.139.333-.24 1.116-.908.204-.182.368-.3.194-.143.345-.273.282-.21.524-.371.207-.147 3.905-2.529.512-.309.677-.372.75-.406.258-.134.295-.15 4.504-1.898.16-.06.576-.24 2.013-.775.872-.316.269-.103 1.136-.385.26-.106.585-.184.85-.301.652-.223.227-.075.622-.202.534-.168.544-.165 2.007-.608 1.335-.363.123-.032.905-.244.163-.028 3.48-.723 1.138-.217.231-.035.852-.137 4.642-.642 1.698-.21 1.934-.195 1.893-.167 1.206-.097 15.217-.93 3.777-.174 1.702-.07 25.709-.535 106.473-.387 35.926-.015h0" fill="none" stroke="#00aff0" stroke-dasharray="7.4,3.2" stroke-width="2" id="line2d_46"/><path clip-path="url(#p27901b1a5f)" d="M68.664 231.41l9.981-.117 1.14-.034 5.399-.178 3.971-.39 1.171-.16 1.7-.38 1.118-.343 3.02-1.14 3.331-1.634.387-.226.497-.315 1.58-1.078.425-.317.566-.422 1.009-.81.68-.576.376-.347.333-.311 1.6-1.772 3.56-5.158.402-.643.366-.587 1.282-2.179.515-1 .38-.692.49-.908.342-.65 2.773-6.375 5.079-16.76 6.452-24.025.55-2.036.494-1.842 1.59-6.008.653-2.516 1.26-4.721 1.267-4.694.391-1.46.907-3.317 2.79-10.228 3.958-13.827.115-.387 1.447-4.529 3.403-9.84.156-.426 1.198-3.194.355-.875.604-1.493 2.486-5.874.11-.264 1.23-2.926 1.018-2.131.287-.583.24-.435.845-1.523.84-1.393.333-.548.09-.15 4.403-6.29.19-.297.307-.458 1.288-1.768.287-.351.137-.175.417-.494.194-.204.379-.437.134-.177.237-.256.213-.214.53-.52.214-.219.566-.581.213-.22 6.275-5.623.51-.395.16-.117.216-.152.495-.392.163-.122.305-.199.36-.233.267-.19 1.248-.828.21-.143.352-.219 1.958-1.275.182-.102.295-.19.4-.24 2.046-1.15.346-.19 1.027-.545.75-.371.57-.26.644-.264.489-.211.482-.2 6.905-2.38.585-.153.246-.068.576-.166.239-.063 1.064-.3.223-.055.778-.212.362-.092 6.207-1.333 1.206-.203.6-.107 1.018-.149.233-.041 3.34-.497.797-.084 1.906-.238 2.463-.295 3.113-.353.105-.017 1.437-.168 9.308-.742 23.087-.764 45.678-.272 72.052-.048h0" fill="none" stroke="#c70d2c" stroke-dasharray="7.4,3.2" stroke-width="2" id="line2d_47"/><path d="M52.875 241V30" fill="none" stroke="#000" stroke-linecap="square" stroke-width=".8" id="patch_3"/><path d="M400.243 241V30" fill="none" stroke="#000" stroke-linecap="square" stroke-width=".8" id="patch_4"/><path d="M52.875 241h347.368" fill="none" stroke="#000" stroke-linecap="square" stroke-width=".8" id="patch_5"/><path d="M52.875 30h347.368" fill="none" stroke="#000" stroke-linecap="square" stroke-width=".8" id="patch_6"/><g id="text_12"><defs><path d="M19.672 64.797V8.109h11.922q15.093 0 22.093 6.829 7 6.843 7 21.593 0 14.64-7 21.453-7 6.813-22.093 6.813zm-9.86 8.11h20.266q21.188 0 31.094-8.813 9.922-8.813 9.922-27.563 0-18.86-9.969-27.703Q51.172 0 30.078 0H9.813z" id="DejaVuSans-68"/><path d="M11.719 12.406h10.297V0H11.719zm0 39.297h10.297v-12.39H11.719z" id="DejaVuSans-58"/><path d="M34.188 63.188L20.797 26.906h26.812zm-5.579 9.718h11.188L67.578 0h-10.25l-6.64 18.703h-32.86L11.188 0H.78z" id="DejaVuSans-65"/><path d="M64.406 67.281v-10.39q-4.984 4.64-10.625 6.922-5.64 2.296-11.984 2.296-12.5 0-19.14-7.64-6.641-7.64-6.641-22.094 0-14.406 6.64-22.047 6.64-7.64 19.14-7.64 6.345 0 11.985 2.296 5.64 2.297 10.625 6.938V5.609Q59.234 2.094 53.437.33q-5.78-1.75-12.218-1.75-16.563 0-26.094 10.124-9.516 10.14-9.516 27.672 0 17.578 9.516 27.703 9.531 10.14 26.094 10.14 6.531 0 12.312-1.734 5.797-1.734 10.875-5.203z" id="DejaVuSans-67"/></defs><g transform="matrix(.12 0 0 -.12 124.356 24)"><use xlink:href="#DejaVuSans-68"/><use x="77.002" xlink:href="#DejaVuSans-101"/><use x="138.525" xlink:href="#DejaVuSans-99"/><use x="193.506" xlink:href="#DejaVuSans-105"/><use x="221.289" xlink:href="#DejaVuSans-115"/><use x="273.389" xlink:href="#DejaVuSans-105"/><use x="301.172" xlink:href="#DejaVuSans-111"/><use x="362.354" xlink:href="#DejaVuSans-110"/><use x="425.732" xlink:href="#DejaVuSans-32"/><use x="457.52" xlink:href="#DejaVuSans-84"/><use x="518.557" xlink:href="#DejaVuSans-105"/><use x="546.34" xlink:href="#DejaVuSans-109"/><use x="643.752" xlink:href="#DejaVuSans-101"/><use x="705.275" xlink:href="#DejaVuSans-58"/><use x="738.967" xlink:href="#DejaVuSans-32"/><use x="770.754" xlink:href="#DejaVuSans-65"/><use x="839.162" xlink:href="#DejaVuSans-108"/><use x="866.945" xlink:href="#DejaVuSans-108"/><use x="894.729" xlink:href="#DejaVuSans-32"/><use x="926.516" xlink:href="#DejaVuSans-82"/><use x="995.936" xlink:href="#DejaVuSans-101"/><use x="1057.459" xlink:href="#DejaVuSans-113"/><use x="1120.936" xlink:href="#DejaVuSans-117"/><use x="1184.314" xlink:href="#DejaVuSans-101"/><use x="1245.838" xlink:href="#DejaVuSans-115"/><use x="1297.938" xlink:href="#DejaVuSans-116"/><use x="1337.146" xlink:href="#DejaVuSans-115"/><use x="1389.246" xlink:href="#DejaVuSans-32"/><use x="1421.033" xlink:href="#DejaVuSans-40"/><use x="1460.047" xlink:href="#DejaVuSans-67"/><use x="1529.871" xlink:href="#DejaVuSans-68"/><use x="1606.873" xlink:href="#DejaVuSans-70"/><use x="1664.393" xlink:href="#DejaVuSans-41"/></g></g><g id="legend_1"><path d="M297.988 236h95.255q2 0 2-2v-28.356q0-2-2-2h-95.255q-2 0-2 2V234q0 2 2 2z" fill="#fff" opacity=".8" stroke="#ccc" id="patch_7"/><path d="M299.988 211.742h20" fill="none" stroke="#00aff0" stroke-dasharray="7.4,3.2" stroke-width="2" id="line2d_48"/><g id="text_13"><defs><path d="M5.516 54.688h42.672v-8.204L14.406 7.172h33.782V0H4.297v8.203l33.797 39.313H5.516z" id="DejaVuSans-122"/></defs><g transform="matrix(.1 0 0 -.1 327.988 215.242)"><use xlink:href="#DejaVuSans-67"/><use x="69.824" xlink:href="#DejaVuSans-108"/><use x="97.607" xlink:href="#DejaVuSans-105"/><use x="125.391" xlink:href="#DejaVuSans-113"/><use x="188.867" xlink:href="#DejaVuSans-122"/></g></g><path d="M299.988 226.42h20" fill="none" stroke="#c70d2c" stroke-dasharray="7.4,3.2" stroke-width="2" id="line2d_50"/><g id="text_14"><defs><path d="M45.406 46.39v29.594h8.985V0h-8.985v8.203Q42.578 3.328 38.25.953q-4.313-2.375-10.375-2.375-9.906 0-16.14 7.906-6.22 7.922-6.22 20.813 0 12.89 6.22 20.797Q17.968 56 27.874 56q6.063 0 10.375-2.375 4.328-2.36 7.156-7.234zm-30.61-19.093q0-9.906 4.079-15.547 4.078-5.64 11.203-5.64 7.125 0 11.219 5.64 4.11 5.64 4.11 15.547 0 9.906-4.11 15.547-4.094 5.64-11.219 5.64-7.125 0-11.203-5.64-4.078-5.64-4.078-15.547z" id="DejaVuSans-100"/><path d="M9.078 75.984h9.031V31.11l26.813 23.578H56.39l-29-25.578L57.625 0H45.906L18.11 26.703V0H9.08z" id="DejaVuSans-107"/><path d="M19.672 64.797v-27.39h12.406q6.89 0 10.64 3.562 3.766 3.562 3.766 10.156 0 6.547-3.765 10.11-3.75 3.562-10.64 3.562zm-9.86 8.11h22.266q12.266 0 18.531-5.548 6.282-5.546 6.282-16.234 0-10.797-6.282-16.313-6.265-5.515-18.53-5.515H19.671V0h-9.86z" id="DejaVuSans-80"/></defs><g transform="matrix(.1 0 0 -.1 327.988 229.92)"><use xlink:href="#DejaVuSans-65"/><use x="68.393" xlink:href="#DejaVuSans-100"/><use x="131.869" xlink:href="#DejaVuSans-98"/><use x="195.346" xlink:href="#DejaVuSans-108"/><use x="223.129" xlink:href="#DejaVuSans-111"/><use x="284.311" xlink:href="#DejaVuSans-99"/><use x="339.291" xlink:href="#DejaVuSans-107"/><use x="397.201" xlink:href="#DejaVuSans-32"/><use x="428.988" xlink:href="#DejaVuSans-80"/><use x="489.291" xlink:href="#DejaVuSans-108"/><use x="517.074" xlink:href="#DejaVuSans-117"/><use x="580.453" xlink:href="#DejaVuSans-115"/></g></g></g></g></g><defs><clipPath id="p27901b1a5f"><path d="M52.875 30h347.368v211H52.875z"/></clipPath></defs></svg>