<svg height="384" viewBox="0 0 432 288" width="576" xmlns="http://www.w3.org/2000/svg" xmlns:xlink="http://www.w3.org/1999/xlink"><defs><style>*{stroke-linecap:butt;stroke-linejoin:round}</style></defs><g id="figure_1"><path d="M0 288h432V0H0z" fill="#fff" id="patch_1"/><g id="axes_1"><path d="M52.875 241H402V30H52.875z" fill="#fff" id="patch_2"/><g id="matplotlib.axis_1"><g id="xtick_1"><path clip-path="url(#pc830c9e188)" d="M119.432 241V30" fill="none" stroke="#b0b0b0" stroke-dasharray="3.7,1.6" id="line2d_1"/><g id="line2d_2"><defs><path d="M0 0v3.5" id="m21a83737a6" stroke="#000" stroke-width=".8"/></defs><use x="119.432" xlink:href="#m21a83737a6" y="241" stroke="#000" stroke-width=".8"/></g><g id="text_1"><defs><path d="M12.406 8.297h16.11v55.625l-17.532-3.516v8.985l17.438 3.515h9.86V8.296H54.39V0H12.406z" id="DejaVuSans-49"/><path d="M31.781 66.406q-7.61 0-11.453-7.5Q16.5 51.422 16.5 36.375q0-14.984 3.828-22.484 3.844-7.5 11.453-7.5 7.672 0 11.5 7.5 3.844 7.5 3.844 22.484 0 15.047-3.844 22.531-3.828 7.5-11.5 7.5zm0 7.813q12.266 0 18.735-9.703 6.468-9.688 6.468-28.141 0-18.406-6.468-28.11-6.47-9.687-18.735-9.687-12.25 0-18.718 9.688-6.47 9.703-6.47 28.109 0 18.453 6.47 28.14Q19.53 74.22 31.78 74.22z" id="DejaVuSans-48"/><path d="M10.594 35.5h62.593v-8.297H10.594z" id="DejaVuSans-8722"/><path d="M19.188 8.297h34.421V0H7.33v8.297q5.609 5.812 15.296 15.594 9.703 9.797 12.188 12.64 4.734 5.313 6.609 9 1.89 3.688 1.89 7.25 0 5.813-4.078 9.469-4.078 3.672-10.625 3.672-4.64 0-9.797-1.61-5.14-1.609-11-4.89v9.969Q13.767 71.78 18.938 73q5.188 1.219 9.485 1.219 11.328 0 18.062-5.672 6.735-5.656 6.735-15.125 0-4.5-1.688-8.531-1.672-4.016-6.125-9.485-1.218-1.422-7.765-8.187-6.532-6.766-18.453-18.922z" id="DejaVuSans-50"/></defs><g transform="matrix(.1 0 0 -.1 107.682 255.598)"><use transform="translate(0 .766)" xlink:href="#DejaVuSans-49"/><use transform="translate(63.623 .766)" xlink:href="#DejaVuSans-48"/><use transform="matrix(.7 0 0 .7 128.203 39.047)" xlink:href="#DejaVuSans-8722"/><use transform="matrix(.7 0 0 .7 186.855 39.047)" xlink:href="#DejaVuSans-50"/></g></g></g><g id="xtick_2"><path clip-path="url(#pc830c9e188)" d="M199.836 241V30" fill="none" stroke="#b0b0b0" stroke-dasharray="3.7,1.6" id="line2d_3"/><use x="199.836" xlink:href="#m21a83737a6" y="241" stroke="#000" stroke-width=".8" id="line2d_4"/><g transform="matrix(.1 0 0 -.1 188.086 255.598)" id="text_2"><use transform="translate(0 .684)" xlink:href="#DejaVuSans-49"/><use transform="translate(63.623 .684)" xlink:href="#DejaVuSans-48"/><use transform="matrix(.7 0 0 .7 128.203 38.966)" xlink:href="#DejaVuSans-8722"/><use transform="matrix(.7 0 0 .7 186.855 38.966)" xlink:href="#DejaVuSans-49"/></g></g><g id="xtick_3"><path clip-path="url(#pc830c9e188)" d="M280.24 241V30" fill="none" stroke="#b0b0b0" stroke-dasharray="3.7,1.6" id="line2d_5"/><use x="280.241" xlink:href="#m21a83737a6" y="241" stroke="#000" stroke-width=".8" id="line2d_6"/><g transform="matrix(.1 0 0 -.1 271.44 255.598)" id="text_3"><use transform="translate(0 .766)" xlink:href="#DejaVuSans-49"/><use transform="translate(63.623 .766)" xlink:href="#DejaVuSans-48"/><use transform="matrix(.7 0 0 .7 128.203 39.047)" xlink:href="#DejaVuSans-48"/></g></g><g id="xtick_4"><path clip-path="url(#pc830c9e188)" d="M360.645 241V30" fill="none" stroke="#b0b0b0" stroke-dasharray="3.7,1.6" id="line2d_7"/><use x="360.645" xlink:href="#m21a83737a6" y="241" stroke="#000" stroke-width=".8" id="line2d_8"/><g transform="matrix(.1 0 0 -.1 351.845 255.598)" id="text_4"><use transform="translate(0 .684)" xlink:href="#DejaVuSans-49"/><use transform="translate(63.623 .684)" xlink:href="#DejaVuSans-48"/><use transform="matrix(.7 0 0 .7 128.203 38.966)" xlink:href="#DejaVuSans-49"/></g></g><g id="xtick_5"><g id="line2d_9"><defs><path d="M0 0v2" id="m8b22c11a5e" stroke="#000" stroke-width=".6"/></defs><use x="63.232" xlink:href="#m8b22c11a5e" y="241" stroke="#000" stroke-width=".6"/></g></g><g id="xtick_6"><use x="77.391" xlink:href="#m8b22c11a5e" y="241" stroke="#000" stroke-width=".6" id="line2d_10"/></g><g id="xtick_7"><use x="87.436" xlink:href="#m8b22c11a5e" y="241" stroke="#000" stroke-width=".6" id="line2d_11"/></g><g id="xtick_8"><use x="95.228" xlink:href="#m8b22c11a5e" y="241" stroke="#000" stroke-width=".6" id="line2d_12"/></g><g id="xtick_9"><use x="101.595" xlink:href="#m8b22c11a5e" y="241" stroke="#000" stroke-width=".6" id="line2d_13"/></g><g id="xtick_10"><use x="106.977" xlink:href="#m8b22c11a5e" y="241" stroke="#000" stroke-width=".6" id="line2d_14"/></g><g id="xtick_11"><use x="111.64" xlink:href="#m8b22c11a5e" y="241" stroke="#000" stroke-width=".6" id="line2d_15"/></g><g id="xtick_12"><use x="115.753" xlink:href="#m8b22c11a5e" y="241" stroke="#000" stroke-width=".6" id="line2d_16"/></g><g id="xtick_13"><use x="143.636" xlink:href="#m8b22c11a5e" y="241" stroke="#000" stroke-width=".6" id="line2d_17"/></g><g id="xtick_14"><use x="157.795" xlink:href="#m8b22c11a5e" y="241" stroke="#000" stroke-width=".6" id="line2d_18"/></g><g id="xtick_15"><use x="167.84" xlink:href="#m8b22c11a5e" y="241" stroke="#000" stroke-width=".6" id="line2d_19"/></g><g id="xtick_16"><use x="175.632" xlink:href="#m8b22c11a5e" y="241" stroke="#000" stroke-width=".6" id="line2d_20"/></g><g id="xtick_17"><use x="181.999" xlink:href="#m8b22c11a5e" y="241" stroke="#000" stroke-width=".6" id="line2d_21"/></g><g id="xtick_18"><use x="187.382" xlink:href="#m8b22c11a5e" y="241" stroke="#000" stroke-width=".6" id="line2d_22"/></g><g id="xtick_19"><use x="192.044" xlink:href="#m8b22c11a5e" y="241" stroke="#000" stroke-width=".6" id="line2d_23"/></g><g id="xtick_20"><use x="196.157" xlink:href="#m8b22c11a5e" y="241" stroke="#000" stroke-width=".6" id="line2d_24"/></g><g id="xtick_21"><use x="224.041" xlink:href="#m8b22c11a5e" y="241" stroke="#000" stroke-width=".6" id="line2d_25"/></g><g id="xtick_22"><use x="238.199" xlink:href="#m8b22c11a5e" y="241" stroke="#000" stroke-width=".6" id="line2d_26"/></g><g id="xtick_23"><use x="248.245" xlink:href="#m8b22c11a5e" y="241" stroke="#000" stroke-width=".6" id="line2d_27"/></g><g id="xtick_24"><use x="256.037" xlink:href="#m8b22c11a5e" y="241" stroke="#000" stroke-width=".6" id="line2d_28"/></g><g id="xtick_25"><use x="262.403" xlink:href="#m8b22c11a5e" y="241" stroke="#000" stroke-width=".6" id="line2d_29"/></g><g id="xtick_26"><use x="267.786" xlink:href="#m8b22c11a5e" y="241" stroke="#000" stroke-width=".6" id="line2d_30"/></g><g id="xtick_27"><use x="272.449" xlink:href="#m8b22c11a5e" y="241" stroke="#000" stroke-width=".6" id="line2d_31"/></g><g id="xtick_28"><use x="276.562" xlink:href="#m8b22c11a5e" y="241" stroke="#000" stroke-width=".6" id="line2d_32"/></g><g id="xtick_29"><use x="304.445" xlink:href="#m8b22c11a5e" y="241" stroke="#000" stroke-width=".6" id="line2d_33"/></g><g id="xtick_30"><use x="318.603" xlink:href="#m8b22c11a5e" y="241" stroke="#000" stroke-width=".6" id="line2d_34"/></g><g id="xtick_31"><use x="328.649" xlink:href="#m8b22c11a5e" y="241" stroke="#000" stroke-width=".6" id="line2d_35"/></g><g id="xtick_32"><use x="336.441" xlink:href="#m8b22c11a5e" y="241" stroke="#000" stroke-width=".6" id="line2d_36"/></g><g id="xtick_33"><use x="342.807" xlink:href="#m8b22c11a5e" y="241" stroke="#000" stroke-width=".6" id="line2d_37"/></g><g id="xtick_34"><use x="348.19" xlink:href="#m8b22c11a5e" y="241" stroke="#000" stroke-width=".6" id="line2d_38"/></g><g id="xtick_35"><use x="352.853" xlink:href="#m8b22c11a5e" y="241" stroke="#000" stroke-width=".6" id="line2d_39"/></g><g id="xtick_36"><use x="356.966" xlink:href="#m8b22c11a5e" y="241" stroke="#000" stroke-width=".6" id="line2d_40"/></g><g id="xtick_37"><use x="384.849" xlink:href="#m8b22c11a5e" y="241" stroke="#000" stroke-width=".6" id="line2d_41"/></g><g id="xtick_38"><use x="399.007" xlink:href="#m8b22c11a5e" y="241" stroke="#000" stroke-width=".6" id="line2d_42"/></g><g id="text_5"><defs><path d="M-.297 72.906h61.672v-8.312H35.5V0h-9.906v64.594H-.296z" id="DejaVuSans-84"/><path d="M9.422 54.688h8.984V0H9.422zm0 21.296h8.984v-11.39H9.422z" id="DejaVuSans-105"/><path d="M52 44.188q3.375 6.062 8.063 8.937Q64.75 56 71.093 56q8.548 0 13.188-5.984 4.64-5.97 4.64-17V0h-9.03v32.719q0 7.86-2.797 11.656-2.781 3.813-8.485 3.813-6.984 0-11.046-4.641-4.047-4.625-4.047-12.64V0h-9.032v32.719q0 7.906-2.78 11.687-2.782 3.782-8.595 3.782-6.89 0-10.953-4.657-4.047-4.656-4.047-12.625V0H9.08v54.688h9.03v-8.5q3.078 5.03 7.375 7.421Q29.781 56 35.687 56q5.97 0 10.141-3.031Q50 49.953 52 44.187z" id="DejaVuSans-109"/><path d="M56.203 29.594v-4.39H14.891q.593-9.282 5.593-14.142 5-4.859 13.938-4.859 5.172 0 10.031 1.266 4.86 1.265 9.656 3.812v-8.5Q49.266.734 44.187-.344 39.11-1.422 33.892-1.422q-13.094 0-20.735 7.61-7.64 7.625-7.64 20.625 0 13.421 7.25 21.296Q20.016 56 32.328 56q11.031 0 17.453-7.11 6.422-7.093 6.422-19.296zm-8.984 2.64q-.094 7.36-4.125 11.75-4.032 4.407-10.672 4.407-7.516 0-12.031-4.25-4.516-4.25-5.203-11.97z" id="DejaVuSans-101"/><path d="M31 75.875q-6.531-11.219-9.719-22.219-3.172-10.984-3.172-22.265 0-11.266 3.203-22.328Q24.517-2 31-13.188h-7.813Q15.875-1.704 12.235 9.375q-3.64 11.078-3.64 22.016 0 10.89 3.61 21.922 3.624 11.046 10.983 22.562z" id="DejaVuSans-40"/><path d="M44.281 53.078v-8.5q-3.797 1.953-7.906 2.922-4.094.984-8.5.984-6.688 0-10.031-2.047-3.344-2.046-3.344-6.156 0-3.125 2.39-4.906 2.391-1.781 9.626-3.39l3.078-.688q9.562-2.047 13.593-5.781 4.032-3.735 4.032-10.422 0-7.625-6.032-12.078-6.03-4.438-16.578-4.438-4.39 0-9.156.86Q10.688.296 5.422 2v9.281q4.984-2.594 9.812-3.89 4.829-1.282 9.579-1.282 6.343 0 9.75 2.172 3.421 2.172 3.421 6.125 0 3.656-2.468 5.61-2.453 1.953-10.813 3.765l-3.125.735q-8.344 1.75-12.062 5.39-3.704 3.64-3.704 9.985 0 7.718 5.47 11.906Q16.75 56 26.811 56q4.97 0 9.36-.734 4.406-.72 8.11-2.188z" id="DejaVuSans-115"/><path d="M8.016 75.875h7.812q7.313-11.516 10.953-22.563 3.64-11.03 3.64-21.921 0-10.938-3.64-22.016-3.64-11.078-10.953-22.563H8.016Q14.5-2 17.703 9.063q3.203 11.063 3.203 22.329 0 11.28-3.203 22.265-3.203 11-9.687 22.219z" id="DejaVuSans-41"/></defs><g transform="matrix(.1 0 0 -.1 200.495 269.277)"><use xlink:href="#DejaVuSans-84"/><use x="61.037" xlink:href="#DejaVuSans-105"/><use x="88.82" xlink:href="#DejaVuSans-109"/><use x="186.232" xlink:href="#DejaVuSans-101"/><use x="247.756" xlink:href="#DejaVuSans-32"/><use x="279.543" xlink:href="#DejaVuSans-40"/><use x="318.557" xlink:href="#DejaVuSans-109"/><use x="415.969" xlink:href="#DejaVuSans-115"/><use x="468.068" xlink:href="#DejaVuSans-41"/><use x="507.082" xlink:href="#DejaVuSans-32"/></g><defs><path d="M9.422 75.984h8.984V0H9.422z" id="DejaVuSans-108"/><path d="M30.61 48.39q-7.22 0-11.422-5.64-4.204-5.64-4.204-15.453 0-9.813 4.172-15.453 4.188-5.64 11.453-5.64 7.188 0 11.375 5.655 4.203 5.672 4.203 15.438 0 9.719-4.203 15.406-4.187 5.688-11.375 5.688zm0 7.61q11.718 0 18.406-7.625 6.703-7.61 6.703-21.078 0-13.422-6.703-21.078-6.688-7.64-18.407-7.64-11.765 0-18.437 7.64-6.656 7.656-6.656 21.078 0 13.469 6.656 21.078Q18.844 56 30.609 56z" id="DejaVuSans-111"/><path d="M45.406 27.984q0 9.766-4.031 15.125-4.016 5.375-11.297 5.375-7.219 0-11.25-5.375-4.031-5.359-4.031-15.125 0-9.718 4.031-15.093t11.25-5.375q7.281 0 11.297 5.375 4.031 5.375 4.031 15.093zm8.985-21.203q0-13.953-6.203-20.765Q42-20.797 29.203-20.797q-4.734 0-8.937.703-4.203.703-8.157 2.172v8.735q3.954-2.141 7.813-3.157 3.86-1.031 7.86-1.031 8.843 0 13.234 4.61 4.39 4.609 4.39 13.937v4.453q-2.781-4.844-7.125-7.234Q33.938 0 27.875 0 17.828 0 11.672 7.656q-6.156 7.672-6.156 20.328 0 12.688 6.156 20.344Q17.828 56 27.875 56q6.063 0 10.406-2.39 4.344-2.391 7.125-7.22v8.297h8.985z" id="DejaVuSans-103"/><path d="M48.688 27.297q0 9.906-4.079 15.547-4.078 5.64-11.203 5.64-7.14 0-11.218-5.64-4.079-5.64-4.079-15.547 0-9.906 4.078-15.547 4.079-5.64 11.22-5.64 7.124 0 11.202 5.64t4.078 15.547zM18.108 46.39q2.844 4.875 7.157 7.234Q29.594 56 35.594 56q9.968 0 16.187-7.906 6.235-7.907 6.235-20.797T51.78 6.484q-6.218-7.906-16.187-7.906-6 0-10.328 2.375-4.313 2.375-7.157 7.25V0H9.08v75.984h9.03z" id="DejaVuSans-98"/><path d="M34.281 27.484q-10.89 0-15.093-2.484-4.204-2.484-4.204-8.5 0-4.781 3.157-7.594 3.156-2.797 8.562-2.797 7.485 0 12 5.297 4.516 5.297 4.516 14.078v2zm17.922 3.72V0H43.22v8.297Q40.14 3.328 35.547.953q-4.594-2.375-11.234-2.375-8.391 0-13.36 4.719Q6 8.016 6 15.922q0 9.219 6.172 13.906 6.187 4.688 18.437 4.688h12.61v.89q0 6.203-4.078 9.594-4.078 3.39-11.453 3.39-4.688 0-9.141-1.124-4.438-1.125-8.531-3.375v8.312q4.921 1.906 9.562 2.844 4.64.953 9.031.953 11.875 0 17.735-6.156 5.86-6.14 5.86-18.64z" id="DejaVuSans-97"/></defs><g transform="matrix(.1 0 0 -.1 192.864 280.474)"><use xlink:href="#DejaVuSans-32"/><use x="31.787" xlink:href="#DejaVuSans-108"/><use x="59.57" xlink:href="#DejaVuSans-111"/><use x="120.752" xlink:href="#DejaVuSans-103"/><use x="184.229" xlink:href="#DejaVuSans-32"/><use x="216.016" xlink:href="#DejaVuSans-40"/><use x="255.029" xlink:href="#DejaVuSans-98"/><use x="318.506" xlink:href="#DejaVuSans-97"/><use x="379.785" xlink:href="#DejaVuSans-115"/><use x="431.885" xlink:href="#DejaVuSans-101"/><use x="493.408" xlink:href="#DejaVuSans-32"/><use x="525.195" xlink:href="#DejaVuSans-49"/><use x="588.818" xlink:href="#DejaVuSans-48"/><use x="652.441" xlink:href="#DejaVuSans-41"/></g></g></g><g id="matplotlib.axis_2"><g id="ytick_1"><path clip-path="url(#pc830c9e188)" d="M52.875 231.411H402" fill="none" stroke="#b0b0b0" stroke-dasharray="3.7,1.6" id="line2d_43"/><g id="line2d_44"><defs><path d="M0 0h-3.5" id="m037cf35363" stroke="#000" stroke-width=".8"/></defs><use x="52.875" xlink:href="#m037cf35363" y="231.411" stroke="#000" stroke-width=".8"/></g><g id="text_6"><defs><path d="M10.688 12.406H21V0H10.687z" id="DejaVuSans-46"/></defs><g transform="matrix(.1 0 0 -.1 29.972 235.21)"><use xlink:href="#DejaVuSans-48"/><use x="63.623" xlink:href="#DejaVuSans-46"/><use x="95.41" xlink:href="#DejaVuSans-48"/></g></g></g><g id="ytick_2"><path clip-path="url(#pc830c9e188)" d="M52.875 193.047H402" fill="none" stroke="#b0b0b0" stroke-dasharray="3.7,1.6" id="line2d_45"/><use x="52.875" xlink:href="#m037cf35363" y="193.047" stroke="#000" stroke-width=".8" id="line2d_46"/><g transform="matrix(.1 0 0 -.1 29.972 196.847)" id="text_7"><use xlink:href="#DejaVuSans-48"/><use x="63.623" xlink:href="#DejaVuSans-46"/><use x="95.41" xlink:href="#DejaVuSans-50"/></g></g><g id="ytick_3"><path clip-path="url(#pc830c9e188)" d="M52.875 154.683H402" fill="none" stroke="#b0b0b0" stroke-dasharray="3.7,1.6" id="line2d_47"/><use x="52.875" xlink:href="#m037cf35363" y="154.683" stroke="#000" stroke-width=".8" id="line2d_48"/><g id="text_8"><defs><path d="M37.797 64.313L12.89 25.39h24.906zm-2.594 8.593H47.61V25.391h10.407v-8.203H47.609V0h-9.812v17.188H4.89v9.515z" id="DejaVuSans-52"/></defs><g transform="matrix(.1 0 0 -.1 29.972 158.482)"><use xlink:href="#DejaVuSans-48"/><use x="63.623" xlink:href="#DejaVuSans-46"/><use x="95.41" xlink:href="#DejaVuSans-52"/></g></g></g><g id="ytick_4"><path clip-path="url(#pc830c9e188)" d="M52.875 116.32H402" fill="none" stroke="#b0b0b0" stroke-dasharray="3.7,1.6" id="line2d_49"/><use x="52.875" xlink:href="#m037cf35363" y="116.319" stroke="#000" stroke-width=".8" id="line2d_50"/><g id="text_9"><defs><path d="M33.016 40.375q-6.641 0-10.532-4.547-3.875-4.531-3.875-12.437 0-7.86 3.875-12.438 3.891-4.562 10.532-4.562 6.64 0 10.515 4.562 3.875 4.578 3.875 12.438 0 7.906-3.875 12.437-3.875 4.547-10.515 4.547zm19.578 30.922v-8.984q-3.719 1.75-7.5 2.671-3.782.938-7.5.938-9.766 0-14.922-6.594-5.14-6.594-5.875-19.922 2.875 4.25 7.219 6.516 4.359 2.266 9.578 2.266 10.984 0 17.36-6.672 6.374-6.657 6.374-18.125 0-11.235-6.64-18.032-6.641-6.78-17.672-6.78-12.657 0-19.344 9.687-6.688 9.703-6.688 28.109 0 17.281 8.204 27.563 8.203 10.28 22.015 10.28 3.719 0 7.5-.734t7.89-2.187z" id="DejaVuSans-54"/></defs><g transform="matrix(.1 0 0 -.1 29.972 120.118)"><use xlink:href="#DejaVuSans-48"/><use x="63.623" xlink:href="#DejaVuSans-46"/><use x="95.41" xlink:href="#DejaVuSans-54"/></g></g></g><g id="ytick_5"><path clip-path="url(#pc830c9e188)" d="M52.875 77.955H402" fill="none" stroke="#b0b0b0" stroke-dasharray="3.7,1.6" id="line2d_51"/><use x="52.875" xlink:href="#m037cf35363" y="77.955" stroke="#000" stroke-width=".8" id="line2d_52"/><g id="text_10"><defs><path d="M31.781 34.625q-7.031 0-11.062-3.766-4.016-3.765-4.016-10.343 0-6.594 4.016-10.36Q24.75 6.391 31.78 6.391q7.032 0 11.078 3.78 4.063 3.798 4.063 10.345 0 6.578-4.031 10.343-4.016 3.766-11.11 3.766zm-9.86 4.188q-6.343 1.562-9.89 5.906Q8.5 49.079 8.5 55.329q0 8.733 6.219 13.812 6.234 5.078 17.062 5.078 10.89 0 17.094-5.078 6.203-5.079 6.203-13.813 0-6.25-3.547-10.61-3.531-4.343-9.828-5.906 7.125-1.656 11.094-6.5 3.984-4.828 3.984-11.796 0-10.61-6.468-16.282-6.47-5.656-18.532-5.656-12.047 0-18.531 5.656-6.469 5.672-6.469 16.282 0 6.968 4 11.797 4.016 4.843 11.14 6.5zM18.314 54.39q0-5.657 3.53-8.828 3.548-3.172 9.938-3.172 6.36 0 9.938 3.172 3.593 3.171 3.593 8.828 0 5.672-3.593 8.843-3.578 3.172-9.938 3.172-6.39 0-9.937-3.172-3.532-3.172-3.532-8.843z" id="DejaVuSans-56"/></defs><g transform="matrix(.1 0 0 -.1 29.972 81.754)"><use xlink:href="#DejaVuSans-48"/><use x="63.623" xlink:href="#DejaVuSans-46"/><use x="95.41" xlink:href="#DejaVuSans-56"/></g></g></g><g id="ytick_6"><path clip-path="url(#pc830c9e188)" d="M52.875 39.59H402" fill="none" stroke="#b0b0b0" stroke-dasharray="3.7,1.6" id="line2d_53"/><use x="52.875" xlink:href="#m037cf35363" y="39.591" stroke="#000" stroke-width=".8" id="line2d_54"/><g transform="matrix(.1 0 0 -.1 29.972 43.39)" id="text_11"><use xlink:href="#DejaVuSans-49"/><use x="63.623" xlink:href="#DejaVuSans-46"/><use x="95.41" xlink:href="#DejaVuSans-48"/></g></g><g id="text_12"><defs><path d="M9.813 72.906h41.89v-8.312H19.672V43.109h28.906v-8.297H19.672V0h-9.86z" id="DejaVuSans-70"/><path d="M41.11 46.297q-1.516.875-3.297 1.281Q36.03 48 33.89 48q-7.625 0-11.703-4.953-4.079-4.953-4.079-14.234V0H9.08v54.688h9.03v-8.5q2.844 4.984 7.375 7.39Q30.031 56 36.531 56q.922 0 2.047-.125 1.125-.11 2.484-.36z" id="DejaVuSans-114"/><path d="M48.781 52.594v-8.407q-3.812 2.11-7.64 3.157-3.828 1.047-7.735 1.047-8.75 0-13.593-5.547-4.829-5.532-4.829-15.547 0-10.016 4.829-15.563 4.843-5.53 13.593-5.53 3.907 0 7.735 1.046 3.828 1.047 7.64 3.156V2.094Q45.016.344 40.984-.531q-4.015-.89-8.562-.89-12.36 0-19.64 7.765-7.266 7.765-7.266 20.953 0 13.375 7.343 21.031Q20.22 56 33.016 56q4.14 0 8.093-.86 3.953-.843 7.672-2.546z" id="DejaVuSans-99"/><path d="M18.313 70.219V54.688h18.5v-6.985h-18.5V18.016q0-6.688 1.828-8.594 1.828-1.906 7.453-1.906h9.218V0h-9.218q-10.407 0-14.36 3.875-3.953 3.89-3.953 14.14v29.688H2.687v6.984h6.594V70.22z" id="DejaVuSans-116"/><path d="M54.89 33.016V0h-8.984v32.719q0 7.765-3.031 11.61-3.031 3.858-9.078 3.858-7.281 0-11.484-4.64-4.204-4.625-4.204-12.64V0H9.08v54.688h9.03v-8.5q3.235 4.937 7.594 7.374Q30.078 56 35.797 56q9.422 0 14.25-5.828 4.844-5.828 4.844-17.156z" id="DejaVuSans-110"/><path d="M37.11 75.984V68.5h-8.594q-4.828 0-6.72-1.953-1.874-1.953-1.874-7.031v-4.828h14.797v-6.985H19.922V0H10.89v47.703H2.297v6.984h8.594V58.5q0 9.125 4.25 13.297 4.25 4.187 13.468 4.187z" id="DejaVuSans-102"/><path d="M44.39 34.188q3.172-1.079 6.172-4.594 3-3.516 6.032-9.672L66.609 0H56l-9.313 18.703q-3.624 7.328-7.015 9.719-3.39 2.39-9.25 2.39h-10.75V0h-9.86v72.906h22.266q12.5 0 18.656-5.234 6.157-5.219 6.157-15.766 0-6.89-3.203-11.437-3.204-4.532-9.297-6.282zM19.673 64.797V38.922h12.406q7.125 0 10.766 3.297 3.64 3.297 3.64 9.687 0 6.39-3.64 9.64-3.64 3.25-10.766 3.25z" id="DejaVuSans-82"/><path d="M14.797 27.297q0-9.906 4.078-15.547 4.078-5.64 11.203-5.64 7.125 0 11.219 5.64 4.11 5.64 4.11 15.547 0 9.906-4.11 15.547-4.094 5.64-11.219 5.64-7.125 0-11.203-5.64-4.078-5.64-4.078-15.547zm30.61-19.094q-2.83-4.875-7.157-7.25-4.313-2.375-10.375-2.375-9.906 0-16.14 7.906-6.22 7.922-6.22 20.813 0 12.89 6.22 20.797Q17.968 56 27.874 56q6.063 0 10.375-2.375 4.328-2.36 7.156-7.234v8.297h8.985v-75.485h-8.985z" id="DejaVuSans-113"/><path d="M8.5 21.578v33.11h8.984V21.922q0-7.766 3.016-11.656 3.031-3.875 9.094-3.875 7.265 0 11.484 4.64 4.234 4.64 4.234 12.656v31h8.985V0h-8.984v8.406Q42.047 3.422 37.718 1q-4.313-2.422-10.032-2.422-9.421 0-14.312 5.86Q8.5 10.296 8.5 21.578zM31.11 56z" id="DejaVuSans-117"/></defs><g transform="matrix(0 -.1 -.1 0 23.892 186.95)"><use xlink:href="#DejaVuSans-70"/><use x="57.41" xlink:href="#DejaVuSans-114"/><use x="98.523" xlink:href="#DejaVuSans-97"/><use x="159.803" xlink:href="#DejaVuSans-99"/><use x="214.783" xlink:href="#DejaVuSans-116"/><use x="253.992" xlink:href="#DejaVuSans-105"/><use x="281.775" xlink:href="#DejaVuSans-111"/><use x="342.957" xlink:href="#DejaVuSans-110"/><use x="406.336" xlink:href="#DejaVuSans-32"/><use x="438.123" xlink:href="#DejaVuSans-111"/><use x="499.305" xlink:href="#DejaVuSans-102"/><use x="534.51" xlink:href="#DejaVuSans-32"/><use x="566.297" xlink:href="#DejaVuSans-82"/><use x="635.717" xlink:href="#DejaVuSans-101"/><use x="697.24" xlink:href="#DejaVuSans-113"/><use x="760.717" xlink:href="#DejaVuSans-117"/><use x="824.096" xlink:href="#DejaVuSans-101"/><use x="885.619" xlink:href="#DejaVuSans-115"/><use x="937.719" xlink:href="#DejaVuSans-116"/><use x="976.928" xlink:href="#DejaVuSans-115"/></g></g></g><path clip-path="url(#pc830c9e188)" d="M70.118 231.41l6.053-.136 2.623-.617.488-.181.525-.13.27-.098.695-.177.252-.119 3.08-1.487 1.116-.948 1.457-1.615.302-.389.106-.137.342-.52.383-.553.172-.282.248-.417.23-.386.354-.666.367-.691 2.205-5.212 1.963-6.208.823-3.552.507-3.01.695-4.215 1.638-8.203.343-2.037.586-3.547.168-.915.776-3.847 1.327-6.376.253-1.217.323-1.52 2.12-10.985.24-1.32.366-2.025 3.007-15.9 2.18-9.52.193-.76.697-2.878.5-1.851.215-.74.058-.21 3.867-13.5.31-.985.435-1.499.178-.538.56-1.846.348-1.121.723-2.21 1.942-5.651.085-.186.21-.508 2.376-5.95.286-.59.335-.787 2.72-5.596.095-.156.39-.852.703-1.313.489-.889.828-1.436.18-.293 1.74-2.703.105-.165 1.531-2.928.264-.561.08-.159.9-1.91.23-.443.91-1.515.126-.187.534-.817.129-.183.24-.38.437-.6.409-.603.122-.147.189-.228.247-.254.205-.286.249-.28.114-.144.579-.78.155-.183.704-.934.161-.23 2.48-2.963.194-.287 1.66-1.855.207-.214.15-.19.777-.823.505-.465 1.898-1.548.277-.193.358-.321.195-.15.191-.162.166-.16.293-.243.204-.149 8.326-6.043.25-.144.457-.221.17-.089.453-.284 3.63-1.655.547-.181.25-.116.602-.208.11-.035 1.02-.288.115-.035.755-.238.137-.048 4.598-1.269.855-.154 6.75-1.075 2.628-.244 15.535-.908 11.154-.235 27.388-.177 23.463-.133.408-.065.66-.007 65.365-.121h0" fill="none" stroke="#00aff0" stroke-dasharray="7.4,3.2" stroke-width="2" id="line2d_55"/><path clip-path="url(#pc830c9e188)" d="M68.744 231.41l.767-.017 2.067-.133.963-.054 11.012-1.068.446-.094 1.646-.31.447-.116.958-.23 1.923-.643.613-.193 3.74-1.71.433-.258 1.062-.809.218-.15.688-.59.302-.298.306-.343.256-.274.127-.161.28-.328.612-.671.15-.166 2.65-3.996.467-.925.437-.882.158-.354.4-.915.087-.208.407-.945.062-.142.317-.755.258-.638 1.835-4.884.62-2.012.14-.366.51-1.602.098-.312.46-1.432.176-.56.473-1.646.3-1.06.073-.29.683-2.443.196-.755.308-1.246 1.226-5.941.95-4.274.388-1.842.725-3.577.623-2.76.135-.559 2.058-8.617.15-.635 1.512-5.771.147-.501.501-1.924.96-3.372.466-1.83.132-.501 1.88-7.844.666-3.454.515-2.66 1.67-7.804.915-3.866 1.2-5.028.29-.98.663-2.653.105-.38 3.83-16.223.196-.843.264-1.05.222-.827 1.512-6.09.532-2.054.054-.207.391-1.507.201-.722.51-1.9.2-.722.357-1.218.2-.65.073-.235.175-.604.395-1.185.076-.242.383-1.155.292-.895 1.533-4.636.104-.285.278-.766.056-.16.117-.303.442-1.137.11-.298.296-.638.122-.307.2-.527 3.428-7.923.225-.475.163-.365.092-.147.229-.464.38-.696.22-.43.408-.797.648-1.086.436-.766.095-.128.236-.342.205-.282.255-.403.14-.24 1.472-1.968.153-.177.636-.78.119-.165.43-.473.192-.165.232-.25.38-.405.236-.249.136-.18.233-.25.34-.352.319-.306 7.4-6.11.284-.18.262-.119.343-.202.209-.117.327-.177.734-.407.304-.126.696-.287.218-.083.907-.296.708-.198.137-.058 2.179-.517.127-.033.516-.072.641-.103 1.259-.188.268-.054 1.55-.168.11-.018 1.926-.168.462-.028 6.67-.272 50.934-.357 61.929-.074h0" fill="none" stroke="maroon" stroke-dasharray="7.4,3.2" stroke-width="2" id="line2d_56"/><path clip-path="url(#pc830c9e188)" d="M69.599 231.407l.876-.03 3.08-.238 1.774-.429 2.038-.88.267-.147.288-.17.816-.526.256-.165.376-.277.285-.233.185-.151.335-.264.902-.915 1.345-3.574.311-.792 1.706-3.407 1.508-4.774.524-1.588.153-.44 1.691-6.123 2.631-10.512 2.908-14.247.476-2.687 1.149-6.742.625-3.719 3.138-18.627.604-3.223 1.591-8.451.158-.767.278-1.415.327-1.775.348-1.826.338-1.66.301-1.586.25-1.358.368-2.054 2.64-14.014.433-2.005.472-2.191.137-.585.29-1.35 2.669-9.767.104-.363.906-2.867.14-.42.275-.868 1.004-3 .198-.621.383-1.123.322-.943.618-1.672.297-.857.267-.689.517-1.414.956-2.552.213-.612 4.099-9.802.271-.564.53-1.152.304-.622 1.673-3.325.186-.278.828-1.602.147-.249.168-.303.164-.267 2.677-3.987.228-.336.27-.39.106-.166.556-.736.395-.491.163-.22.462-.593.119-.138.907-1.04.17-.2.185-.192.292-.258 1.237-1.318.244-.24.227-.189.25-.254.259-.251 1.054-.906.606-.438.487-.356.17-.14.18-.128.468-.342.647-.48.31-.186.264-.16.297-.17.604-.348.17-.114.263-.142.452-.293.166-.082.242-.147.323-.226.321-.137.26-.147.41-.198.2-.074 2.16-.79.71-.23.174-.051 4.795-.832 1.638-.16 2.908-.292 2.488-.172 10.833-.317 40.956-.354.2-.004 17.11-.207 1.399-.012 41.11-.298 41.584-.035h0" fill="none" stroke="#f50" stroke-dasharray="7.4,3.2" stroke-width="2" id="line2d_57"/><path clip-path="url(#pc830c9e188)" d="M191.618 231.407l22.523-.26 25.306-.236 4.51-.31.146-.02 1.198-.082 2.922-.134.496-.025 7.434-.11 18.003-.256.127-.04.692-.16 2.895-.134 1.18-.045 2.603-.163 2.157-.175 12.054-.688 6.644-.212.596-.256 1.47-.204 3.2-.293.63-.061 2.024-.204 2.434-.268 2.108-.245.206-.045 1.18-.244.18-.224.242-1.987.137-.668.116-.586.063-.208.15-.668.442-1.042.075-.143.64-.96.376-.282.323-.606.387-.395.478-.171.098-.025 2.507-.822.182-.078.554-.175 3.254-1.006.164-.11.774-.802.223-.427.334-.607.188-.4.096-.174.37-.652.174-.313.12-.229.08-.179.206-.448.225-.582.19-.574.118-.285.12-.387.199-.652.132-.557.145-.603.13-.538.125-.509.201-1.05.054-.265.116-.574.308-1.32.069-.236.363-1.319 2.91-6.63.096-.183.3-.77.144-.33.099-.215.301-.64.1-.215.122-.248.213-.4.827-1.653 1.042-2.594.122-.378.432-1.833.18-1.026.142-.77.116-.582.064-.269.426-2.105.051-.187.496-1.975.06-.208.144-.554.354-1.054.216-.6.129-.382.403-1.213.165-.403.241-.73.069-.174.183-.505.157-.306.782-1.311.137-.175.38-.574.11-.188.157-.175.682-.875.114-.15.57-.893.146-.289.087-.191.348-1.067.075-.204.41-1.413.167-.619.247-.822.095-.318.13-.39.247-.616.166-.407.513-1.454.14-.407.247-.774.077-.22.151-.476.073-.195.15-.383.132-.334.127-.297.21-.493.124-.265.391-.765.134-.183.113-.22.163-.232.15-.22.083-.163.092-.196.127-.313.223-.664.107-.338.123-.42.13-.382.243-1.556.112-.558.034-.17.344-1.397.27-1.03.104-.416.117-.485.057-.268.335-1.686.133-.692.074-.408.12-.716.263-1.564.147-1.104.253-1.637.278-1.685.117-.75.972-6.674.207-1.311.247-1.486.138-.81.16-.909.481-3.107.132-.77.517-2.691.047-.183.163-.798.541-2.142.135-.644.074-.387.118-.537.127-.73.063-.304.154-.835.09-.51.166-.96.038-.204.175-1.014.088-.533.136-.807.157-.871.084-.521.698-6.61.077-.728.158-1.531.05-.37.156-1.536 2.217-21.517.028-.232.141-.99.03-.228.216-1.38.157-1.307.116-1.21.07-.7.16-1.76.12-1.302.076-.587.499-2.972.733-3.368.117-.542.06-.228.115-.55.696-4.071 1.374-4.472.087-.248.179-.574.068-.212.128-.379.212-.505.197-.533.453-1.849.704-2.113.1-.167.166-.26.117-.253.164-.265.718-1.034.221-.253.11-.097.224-.196.959-.484 1.208-.163 4.418-.224 8.505-.045h0" fill="none" stroke="#58b792" stroke-dasharray="7.4,3.2" stroke-width="2" id="line2d_58"/><path clip-path="url(#pc830c9e188)" d="M70.09 231.41l4.465-.12.214-.014 3.164-.163.95-.086 2.827-.184 3.593-.516.525-.14.67-.15.982-.265.784-.216 1.133-.503.32-.137 1.762-.787 3.75-2.375.457-.435.384-.338.251-.251.29-.28.566-.598.276-.328.874-1.053.23-.298.378-.465.094-.152.823-1.082.256-.32.122-.153.229-.393 1.53-3.201.377-.853.182-.39.394-.809.073-.144 2.14-4.705.225-.552.441-1.164 1.892-4.544 2.246-6.76.487-1.899.117-.486.318-1.283.2-.831.598-2.554.291-1.302 7.989-33.928.034-.149.862-3.303.201-.755.843-3.334.227-.92.09-.32 1.944-7.933.27-1.18 1.03-4.228.152-.638.245-.961.33-1.427.309-1.279 3.89-15.426.095-.314.256-1.025.581-2.155.176-.566 1.148-3.893.177-.58.249-.8.537-1.665 1.418-3.907.12-.28.3-.779.123-.291.278-.708.138-.305.408-.943.154-.33 3.738-7.87.397-.654.182-.337.081-.15.22-.388.262-.5.445-.82.165-.31 2.958-5.243.568-1.255.096-.2.174-.349.902-1.471.116-.18.15-.22 2.369-3.283.245-.333.21-.303.127-.154 1.036-1.448.345-.493.201-.3.148-.19.198-.29.11-.154.207-.317.174-.225.63-.862.182-.233.146-.181.226-.347.474-.617.16-.224.145-.172.192-.244.316-.436.334-.389.135-.165.156-.163.236-.277.17-.214.181-.24.144-.19.146-.161.433-.596.145-.191.151-.15 3.666-4.628.132-.125 2.56-2.633.316-.27.204-.2.493-.418.265-.251.571-.524.432-.298.169-.14.248-.183.77-.51.28-.184.125-.075.306-.163.294-.214.27-.18.742-.523.125-.084.427-.286.252-.16 5.13-2.764.627-.233 1.684-.687.379-.14.593-.223.75-.24.282-.079.524-.18.4-.118.658-.193.73-.203.38-.074.68-.166 1.143-.272 1.275-.233.33-.077 1.233-.207 1.24-.24.113-.028 5.47-.887 1.16-.149.594-.093 2.278-.156 18.479-.768 17.711-.175 70.507-.095h0" fill="none" stroke="#c70d2c" stroke-dasharray="7.4,3.2" stroke-width="2" id="line2d_59"/><path d="M52.875 241V30" fill="none" stroke="#000" stroke-linecap="square" stroke-width=".8" id="patch_3"/><path d="M402 241V30" fill="none" stroke="#000" stroke-linecap="square" stroke-width=".8" id="patch_4"/><path d="M52.875 241H402" fill="none" stroke="#000" stroke-linecap="square" stroke-width=".8" id="patch_5"/><path d="M52.875 30H402" fill="none" stroke="#000" stroke-linecap="square" stroke-width=".8" id="patch_6"/><g id="text_13"><defs><path d="M19.672 64.797V8.109h11.922q15.093 0 22.093 6.829 7 6.843 7 21.593 0 14.64-7 21.453-7 6.813-22.093 6.813zm-9.86 8.11h20.266q21.188 0 31.094-8.813 9.922-8.813 9.922-27.563 0-18.86-9.969-27.703Q51.172 0 30.078 0H9.813z" id="DejaVuSans-68"/><path d="M11.719 12.406h10.297V0H11.719zm0 39.297h10.297v-12.39H11.719z" id="DejaVuSans-58"/><path d="M19.672 34.813V8.108H35.5q7.953 0 11.781 3.297 3.844 3.297 3.844 10.078 0 6.844-3.844 10.078-3.828 3.25-11.781 3.25zm0 29.984V42.828h14.61q7.218 0 10.75 2.703 3.546 2.719 3.546 8.282 0 5.515-3.547 8.25-3.531 2.734-10.75 2.734zm-9.86 8.11h25.204q11.28 0 17.375-4.688Q58.5 63.53 58.5 54.89q0-6.703-3.125-10.657-3.125-3.953-9.188-4.922 7.282-1.562 11.313-6.53 4.031-4.954 4.031-12.376 0-9.765-6.64-15.093Q48.25 0 35.984 0H9.812z" id="DejaVuSans-66"/><path d="M9.078 75.984h9.031V31.11l26.813 23.578H56.39l-29-25.578L57.625 0H45.906L18.11 26.703V0H9.08z" id="DejaVuSans-107"/><path d="M45.406 46.39v29.594h8.985V0h-8.985v8.203Q42.578 3.328 38.25.953q-4.313-2.375-10.375-2.375-9.906 0-16.14 7.906-6.22 7.922-6.22 20.813 0 12.89 6.22 20.797Q17.968 56 27.874 56q6.063 0 10.375-2.375 4.328-2.36 7.156-7.234zm-30.61-19.093q0-9.906 4.079-15.547 4.078-5.64 11.203-5.64 7.125 0 11.219 5.64 4.11 5.64 4.11 15.547 0 9.906-4.11 15.547-4.094 5.64-11.219 5.64-7.125 0-11.203-5.64-4.078-5.64-4.078-15.547z" id="DejaVuSans-100"/><path d="M64.406 67.281v-10.39q-4.984 4.64-10.625 6.922-5.64 2.296-11.984 2.296-12.5 0-19.14-7.64-6.641-7.64-6.641-22.094 0-14.406 6.64-22.047 6.64-7.64 19.14-7.64 6.345 0 11.985 2.296 5.64 2.297 10.625 6.938V5.609Q59.234 2.094 53.437.33q-5.78-1.75-12.218-1.75-16.563 0-26.094 10.124-9.516 10.14-9.516 27.672 0 17.578 9.516 27.703 9.531 10.14 26.094 10.14 6.531 0 12.312-1.734 5.797-1.734 10.875-5.203z" id="DejaVuSans-67"/></defs><g transform="matrix(.12 0 0 -.12 108.947 24)"><use xlink:href="#DejaVuSans-68"/><use x="77.002" xlink:href="#DejaVuSans-101"/><use x="138.525" xlink:href="#DejaVuSans-99"/><use x="193.506" xlink:href="#DejaVuSans-105"/><use x="221.289" xlink:href="#DejaVuSans-115"/><use x="273.389" xlink:href="#DejaVuSans-105"/><use x="301.172" xlink:href="#DejaVuSans-111"/><use x="362.354" xlink:href="#DejaVuSans-110"/><use x="425.732" xlink:href="#DejaVuSans-32"/><use x="457.52" xlink:href="#DejaVuSans-84"/><use x="518.557" xlink:href="#DejaVuSans-105"/><use x="546.34" xlink:href="#DejaVuSans-109"/><use x="643.752" xlink:href="#DejaVuSans-101"/><use x="705.275" xlink:href="#DejaVuSans-58"/><use x="738.967" xlink:href="#DejaVuSans-32"/><use x="770.754" xlink:href="#DejaVuSans-66"/><use x="839.357" xlink:href="#DejaVuSans-108"/><use x="867.141" xlink:href="#DejaVuSans-111"/><use x="928.322" xlink:href="#DejaVuSans-99"/><use x="983.303" xlink:href="#DejaVuSans-107"/><use x="1041.166" xlink:href="#DejaVuSans-101"/><use x="1102.689" xlink:href="#DejaVuSans-100"/><use x="1166.166" xlink:href="#DejaVuSans-32"/><use x="1197.953" xlink:href="#DejaVuSans-82"/><use x="1267.373" xlink:href="#DejaVuSans-101"/><use x="1328.896" xlink:href="#DejaVuSans-113"/><use x="1392.373" xlink:href="#DejaVuSans-117"/><use x="1455.752" xlink:href="#DejaVuSans-101"/><use x="1517.275" xlink:href="#DejaVuSans-115"/><use x="1569.375" xlink:href="#DejaVuSans-116"/><use x="1608.584" xlink:href="#DejaVuSans-115"/><use x="1660.684" xlink:href="#DejaVuSans-32"/><use x="1692.471" xlink:href="#DejaVuSans-40"/><use x="1731.484" xlink:href="#DejaVuSans-67"/><use x="1801.309" xlink:href="#DejaVuSans-68"/><use x="1878.311" xlink:href="#DejaVuSans-70"/><use x="1935.83" xlink:href="#DejaVuSans-41"/></g></g><g id="legend_1"><path d="M296.212 236H395q2 0 2-2v-72.39q0-2-2-2h-98.788q-2 0-2 2V234q0 2 2 2z" fill="#fff" opacity=".8" stroke="#ccc" id="patch_7"/><path d="M298.212 167.708h20" fill="none" stroke="#00aff0" stroke-dasharray="7.4,3.2" stroke-width="2" id="line2d_60"/><g id="text_14"><defs><path d="M5.516 54.688h42.672v-8.204L14.406 7.172h33.782V0H4.297v8.203l33.797 39.313H5.516z" id="DejaVuSans-122"/></defs><g transform="matrix(.1 0 0 -.1 326.212 171.208)"><use xlink:href="#DejaVuSans-67"/><use x="69.824" xlink:href="#DejaVuSans-108"/><use x="97.607" xlink:href="#DejaVuSans-105"/><use x="125.391" xlink:href="#DejaVuSans-113"/><use x="188.867" xlink:href="#DejaVuSans-122"/></g></g><path d="M298.212 182.386h20" fill="none" stroke="maroon" stroke-dasharray="7.4,3.2" stroke-width="2" id="line2d_62"/><g id="text_15"><defs><path d="M39.406 66.219q-10.75 0-17.078-8.016-6.312-8-6.312-21.828 0-13.766 6.312-21.781 6.328-8 17.078-8 10.735 0 17.016 8 6.281 8.015 6.281 21.781 0 13.828-6.281 21.828-6.281 8.016-17.016 8.016zm0 8q15.328 0 24.5-10.281 9.188-10.282 9.188-27.563 0-17.234-9.188-27.516-9.172-10.28-24.5-10.28-15.375 0-24.593 10.25-9.204 10.265-9.204 27.546t9.204 27.563q9.218 10.28 24.593 10.28z" id="DejaVuSans-79"/></defs><g transform="matrix(.1 0 0 -.1 326.212 185.886)"><use xlink:href="#DejaVuSans-117"/><use x="63.379" xlink:href="#DejaVuSans-66"/><use x="131.982" xlink:href="#DejaVuSans-108"/><use x="159.766" xlink:href="#DejaVuSans-111"/><use x="220.947" xlink:href="#DejaVuSans-99"/><use x="275.928" xlink:href="#DejaVuSans-107"/><use x="333.838" xlink:href="#DejaVuSans-32"/><use x="365.625" xlink:href="#DejaVuSans-79"/><use x="444.336" xlink:href="#DejaVuSans-114"/><use x="485.449" xlink:href="#DejaVuSans-105"/><use x="513.232" xlink:href="#DejaVuSans-103"/><use x="576.709" xlink:href="#DejaVuSans-105"/><use x="604.492" xlink:href="#DejaVuSans-110"/></g></g><path d="M298.212 197.064h20" fill="none" stroke="#f50" stroke-dasharray="7.4,3.2" stroke-width="2" id="line2d_64"/><g id="text_16"><defs><path d="M2.984 54.688H12.5L29.594 8.797l17.093 45.89h9.516L35.687 0H23.485z" id="DejaVuSans-118"/></defs><g transform="matrix(.1 0 0 -.1 326.212 200.564)"><use xlink:href="#DejaVuSans-66"/><use x="68.604" xlink:href="#DejaVuSans-114"/><use x="109.717" xlink:href="#DejaVuSans-97"/><use x="170.996" xlink:href="#DejaVuSans-118"/><use x="230.176" xlink:href="#DejaVuSans-101"/></g></g><path d="M298.212 211.742h20" fill="none" stroke="#58b792" stroke-dasharray="7.4,3.2" stroke-width="2" id="line2d_66"/><g id="text_17"><defs><path d="M59.516 10.406v19.578h-16.11v8.11h25.875V6.78Q63.578 2.734 56.687.656 49.813-1.422 42-1.422q-17.094 0-26.75 9.985-9.64 10-9.64 27.812 0 17.875 9.64 27.86 9.656 9.984 26.75 9.984 7.125 0 13.547-1.766 6.422-1.75 11.844-5.172v-10.5q-5.47 4.64-11.625 6.985-6.157 2.343-12.938 2.343-13.39 0-20.11-7.468-6.702-7.47-6.702-22.266 0-14.75 6.703-22.219 6.718-7.469 20.11-7.469 5.218 0 9.312.907 4.109.906 7.375 2.812z" id="DejaVuSans-71"/></defs><g transform="matrix(.1 0 0 -.1 326.212 215.242)"><use xlink:href="#DejaVuSans-68"/><use x="77.002" xlink:href="#DejaVuSans-117"/><use x="140.381" xlink:href="#DejaVuSans-99"/><use x="195.361" xlink:href="#DejaVuSans-107"/><use x="253.271" xlink:href="#DejaVuSans-68"/><use x="330.273" xlink:href="#DejaVuSans-117"/><use x="393.652" xlink:href="#DejaVuSans-99"/><use x="448.633" xlink:href="#DejaVuSans-107"/><use x="506.543" xlink:href="#DejaVuSans-71"/><use x="584.033" xlink:href="#DejaVuSans-111"/></g></g><path d="M298.212 226.42h20" fill="none" stroke="#c70d2c" stroke-dasharray="7.4,3.2" stroke-width="2" id="line2d_68"/><g id="text_18"><defs><path d="M34.188 63.188L20.797 26.906h26.812zm-5.579 9.718h11.188L67.578 0h-10.25l-6.64 18.703h-32.86L11.188 0H.78z" id="DejaVuSans-65"/><path d="M19.672 64.797v-27.39h12.406q6.89 0 10.64 3.562 3.766 3.562 3.766 10.156 0 6.547-3.765 10.11-3.75 3.562-10.64 3.562zm-9.86 8.11h22.266q12.266 0 18.531-5.548 6.282-5.546 6.282-16.234 0-10.797-6.282-16.313-6.265-5.515-18.53-5.515H19.671V0h-9.86z" id="DejaVuSans-80"/></defs><g transform="matrix(.1 0 0 -.1 326.212 229.92)"><use xlink:href="#DejaVuSans-65"/><use x="68.393" xlink:href="#DejaVuSans-100"/><use x="131.869" xlink:href="#DejaVuSans-98"/><use x="195.346" xlink:href="#DejaVuSans-108"/><use x="223.129" xlink:href="#DejaVuSans-111"/><use x="284.311" xlink:href="#DejaVuSans-99"/><use x="339.291" xlink:href="#DejaVuSans-107"/><use x="397.201" xlink:href="#DejaVuSans-32"/><use x="428.988" xlink:href="#DejaVuSans-80"/><use x="489.291" xlink:href="#DejaVuSans-108"/><use x="517.074" xlink:href="#DejaVuSans-117"/><use x="580.453" xlink:href="#DejaVuSans-115"/></g></g></g></g></g><defs><clipPath id="pc830c9e188"><path d="M52.875 30H402v211H52.875z"/></clipPath></defs></svg>