<svg height="384" viewBox="0 0 432 288" width="576" xmlns="http://www.w3.org/2000/svg" xmlns:xlink="http://www.w3.org/1999/xlink"><defs><style>*{stroke-linecap:butt;stroke-linejoin:round}</style></defs><g id="figure_1"><path d="M0 288h432V0H0z" fill="#fff" id="patch_1"/><g id="axes_1"><path d="M56 241h346V30H56z" fill="#fff" id="patch_2"/><path clip-path="url(#pd1e6028be3)" d="M71.727 241h44.935v-.266H71.727z" fill="#00aff0" id="patch_3"/><path clip-path="url(#pd1e6028be3)" d="M161.597 241h44.935V40.048h-44.935z" fill="#f50" id="patch_4"/><path clip-path="url(#pd1e6028be3)" d="M251.468 241h44.935v-12.585h-44.935z" fill="maroon" id="patch_5"/><path clip-path="url(#pd1e6028be3)" d="M341.338 241h44.935V134.076h-44.935z" fill="#c70d2c" id="patch_6"/><g id="matplotlib.axis_1"><g id="xtick_1"><path clip-path="url(#pd1e6028be3)" d="M94.195 241V30" fill="none" stroke="#b0b0b0" stroke-dasharray="3.7,1.6" id="line2d_1"/><g id="line2d_2"><defs><path d="M0 0v3.5" id="m53196b9c5d" stroke="#000" stroke-width=".8"/></defs><use x="94.195" xlink:href="#m53196b9c5d" y="241" stroke="#000" stroke-width=".8"/></g><g id="text_1"><defs><path d="M64.406 67.281v-10.39q-4.984 4.64-10.625 6.922-5.64 2.296-11.984 2.296-12.5 0-19.14-7.64-6.641-7.64-6.641-22.094 0-14.406 6.64-22.047 6.64-7.64 19.14-7.64 6.345 0 11.985 2.296 5.64 2.297 10.625 6.938V5.609Q59.234 2.094 53.437.33q-5.78-1.75-12.218-1.75-16.563 0-26.094 10.124-9.516 10.14-9.516 27.672 0 17.578 9.516 27.703 9.531 10.14 26.094 10.14 6.531 0 12.312-1.734 5.797-1.734 10.875-5.203z" id="DejaVuSans-67"/><path d="M9.422 75.984h8.984V0H9.422z" id="DejaVuSans-108"/><path d="M9.422 54.688h8.984V0H9.422zm0 21.296h8.984v-11.39H9.422z" id="DejaVuSans-105"/><path d="M14.797 27.297q0-9.906 4.078-15.547 4.078-5.64 11.203-5.64 7.125 0 11.219 5.64 4.11 5.64 4.11 15.547 0 9.906-4.11 15.547-4.094 5.64-11.219 5.64-7.125 0-11.203-5.64-4.078-5.64-4.078-15.547zm30.61-19.094q-2.83-4.875-7.157-7.25-4.313-2.375-10.375-2.375-9.906 0-16.14 7.906-6.22 7.922-6.22 20.813 0 12.89 6.22 20.797Q17.968 56 27.874 56q6.063 0 10.375-2.375 4.328-2.36 7.156-7.234v8.297h8.985v-75.485h-8.985z" id="DejaVuSans-113"/><path d="M5.516 54.688h42.672v-8.204L14.406 7.172h33.782V0H4.297v8.203l33.797 39.313H5.516z" id="DejaVuSans-122"/></defs><g transform="matrix(.1 0 0 -.1 82.127 255.598)"><use xlink:href="#DejaVuSans-67"/><use x="69.824" xlink:href="#DejaVuSans-108"/><use x="97.607" xlink:href="#DejaVuSans-105"/><use x="125.391" xlink:href="#DejaVuSans-113"/><use x="188.867" xlink:href="#DejaVuSans-122"/></g></g></g><g id="xtick_2"><path clip-path="url(#pd1e6028be3)" d="M184.065 241V30" fill="none" stroke="#b0b0b0" stroke-dasharray="3.7,1.6" id="line2d_3"/><use x="184.065" xlink:href="#m53196b9c5d" y="241" stroke="#000" stroke-width=".8" id="line2d_4"/><g id="text_2"><defs><path d="M19.672 34.813V8.108H35.5q7.953 0 11.781 3.297 3.844 3.297 3.844 10.078 0 6.844-3.844 10.078-3.828 3.25-11.781 3.25zm0 29.984V42.828h14.61q7.218 0 10.75 2.703 3.546 2.719 3.546 8.282 0 5.515-3.547 8.25-3.531 2.734-10.75 2.734zm-9.86 8.11h25.204q11.28 0 17.375-4.688Q58.5 63.53 58.5 54.89q0-6.703-3.125-10.657-3.125-3.953-9.188-4.922 7.282-1.562 11.313-6.53 4.031-4.954 4.031-12.376 0-9.765-6.64-15.093Q48.25 0 35.984 0H9.812z" id="DejaVuSans-66"/><path d="M41.11 46.297q-1.516.875-3.297 1.281Q36.03 48 33.89 48q-7.625 0-11.703-4.953-4.079-4.953-4.079-14.234V0H9.08v54.688h9.03v-8.5q2.844 4.984 7.375 7.39Q30.031 56 36.531 56q.922 0 2.047-.125 1.125-.11 2.484-.36z" id="DejaVuSans-114"/><path d="M34.281 27.484q-10.89 0-15.093-2.484-4.204-2.484-4.204-8.5 0-4.781 3.157-7.594 3.156-2.797 8.562-2.797 7.485 0 12 5.297 4.516 5.297 4.516 14.078v2zm17.922 3.72V0H43.22v8.297Q40.14 3.328 35.547.953q-4.594-2.375-11.234-2.375-8.391 0-13.36 4.719Q6 8.016 6 15.922q0 9.219 6.172 13.906 6.187 4.688 18.437 4.688h12.61v.89q0 6.203-4.078 9.594-4.078 3.39-11.453 3.39-4.688 0-9.141-1.124-4.438-1.125-8.531-3.375v8.312q4.921 1.906 9.562 2.844 4.64.953 9.031.953 11.875 0 17.735-6.156 5.86-6.14 5.86-18.64z" id="DejaVuSans-97"/><path d="M2.984 54.688H12.5L29.594 8.797l17.093 45.89h9.516L35.687 0H23.485z" id="DejaVuSans-118"/><path d="M56.203 29.594v-4.39H14.891q.593-9.282 5.593-14.142 5-4.859 13.938-4.859 5.172 0 10.031 1.266 4.86 1.265 9.656 3.812v-8.5Q49.266.734 44.187-.344 39.11-1.422 33.892-1.422q-13.094 0-20.735 7.61-7.64 7.625-7.64 20.625 0 13.421 7.25 21.296Q20.016 56 32.328 56q11.031 0 17.453-7.11 6.422-7.093 6.422-19.296zm-8.984 2.64q-.094 7.36-4.125 11.75-4.032 4.407-10.672 4.407-7.516 0-12.031-4.25-4.516-4.25-5.203-11.97z" id="DejaVuSans-101"/></defs><g transform="matrix(.1 0 0 -.1 169.479 255.598)"><use xlink:href="#DejaVuSans-66"/><use x="68.604" xlink:href="#DejaVuSans-114"/><use x="109.717" xlink:href="#DejaVuSans-97"/><use x="170.996" xlink:href="#DejaVuSans-118"/><use x="230.176" xlink:href="#DejaVuSans-101"/></g></g></g><g id="xtick_3"><path clip-path="url(#pd1e6028be3)" d="M273.935 241V30" fill="none" stroke="#b0b0b0" stroke-dasharray="3.7,1.6" id="line2d_5"/><use x="273.935" xlink:href="#m53196b9c5d" y="241" stroke="#000" stroke-width=".8" id="line2d_6"/><g id="text_3"><defs><path d="M8.5 21.578v33.11h8.984V21.922q0-7.766 3.016-11.656 3.031-3.875 9.094-3.875 7.265 0 11.484 4.64 4.234 4.64 4.234 12.656v31h8.985V0h-8.984v8.406Q42.047 3.422 37.718 1q-4.313-2.422-10.032-2.422-9.421 0-14.312 5.86Q8.5 10.296 8.5 21.578zM31.11 56z" id="DejaVuSans-117"/><path d="M30.61 48.39q-7.22 0-11.422-5.64-4.204-5.64-4.204-15.453 0-9.813 4.172-15.453 4.188-5.64 11.453-5.64 7.188 0 11.375 5.655 4.203 5.672 4.203 15.438 0 9.719-4.203 15.406-4.187 5.688-11.375 5.688zm0 7.61q11.718 0 18.406-7.625 6.703-7.61 6.703-21.078 0-13.422-6.703-21.078-6.688-7.64-18.407-7.64-11.765 0-18.437 7.64-6.656 7.656-6.656 21.078 0 13.469 6.656 21.078Q18.844 56 30.609 56z" id="DejaVuSans-111"/><path d="M48.781 52.594v-8.407q-3.812 2.11-7.64 3.157-3.828 1.047-7.735 1.047-8.75 0-13.593-5.547-4.829-5.532-4.829-15.547 0-10.016 4.829-15.563 4.843-5.53 13.593-5.53 3.907 0 7.735 1.046 3.828 1.047 7.64 3.156V2.094Q45.016.344 40.984-.531q-4.015-.89-8.562-.89-12.36 0-19.64 7.765-7.266 7.765-7.266 20.953 0 13.375 7.343 21.031Q20.22 56 33.016 56q4.14 0 8.093-.86 3.953-.843 7.672-2.546z" id="DejaVuSans-99"/><path d="M9.078 75.984h9.031V31.11l26.813 23.578H56.39l-29-25.578L57.625 0H45.906L18.11 26.703V0H9.08z" id="DejaVuSans-107"/><path d="M39.406 66.219q-10.75 0-17.078-8.016-6.312-8-6.312-21.828 0-13.766 6.312-21.781 6.328-8 17.078-8 10.735 0 17.016 8 6.281 8.015 6.281 21.781 0 13.828-6.281 21.828-6.281 8.016-17.016 8.016zm0 8q15.328 0 24.5-10.281 9.188-10.282 9.188-27.563 0-17.234-9.188-27.516-9.172-10.28-24.5-10.28-15.375 0-24.593 10.25-9.204 10.265-9.204 27.546t9.204 27.563q9.218 10.28 24.593 10.28z" id="DejaVuSans-79"/><path d="M45.406 27.984q0 9.766-4.031 15.125-4.016 5.375-11.297 5.375-7.219 0-11.25-5.375-4.031-5.359-4.031-15.125 0-9.718 4.031-15.093t11.25-5.375q7.281 0 11.297 5.375 4.031 5.375 4.031 15.093zm8.985-21.203q0-13.953-6.203-20.765Q42-20.797 29.203-20.797q-4.734 0-8.937.703-4.203.703-8.157 2.172v8.735q3.954-2.141 7.813-3.157 3.86-1.031 7.86-1.031 8.843 0 13.234 4.61 4.39 4.609 4.39 13.937v4.453q-2.781-4.844-7.125-7.234Q33.938 0 27.875 0 17.828 0 11.672 7.656q-6.156 7.672-6.156 20.328 0 12.688 6.156 20.344Q17.828 56 27.875 56q6.063 0 10.406-2.39 4.344-2.391 7.125-7.22v8.297h8.985z" id="DejaVuSans-103"/><path d="M54.89 33.016V0h-8.984v32.719q0 7.765-3.031 11.61-3.031 3.858-9.078 3.858-7.281 0-11.484-4.64-4.204-4.625-4.204-12.64V0H9.08v54.688h9.03v-8.5q3.235 4.937 7.594 7.374Q30.078 56 35.797 56q9.422 0 14.25-5.828 4.844-5.828 4.844-17.156z" id="DejaVuSans-110"/></defs><g transform="matrix(.1 0 0 -.1 240.541 255.598)"><use xlink:href="#DejaVuSans-117"/><use x="63.379" xlink:href="#DejaVuSans-66"/><use x="131.982" xlink:href="#DejaVuSans-108"/><use x="159.766" xlink:href="#DejaVuSans-111"/><use x="220.947" xlink:href="#DejaVuSans-99"/><use x="275.928" xlink:href="#DejaVuSans-107"/><use x="333.838" xlink:href="#DejaVuSans-32"/><use x="365.625" xlink:href="#DejaVuSans-79"/><use x="444.336" xlink:href="#DejaVuSans-114"/><use x="485.449" xlink:href="#DejaVuSans-105"/><use x="513.232" xlink:href="#DejaVuSans-103"/><use x="576.709" xlink:href="#DejaVuSans-105"/><use x="604.492" xlink:href="#DejaVuSans-110"/></g></g></g><g id="xtick_4"><path clip-path="url(#pd1e6028be3)" d="M363.805 241V30" fill="none" stroke="#b0b0b0" stroke-dasharray="3.7,1.6" id="line2d_7"/><use x="363.805" xlink:href="#m53196b9c5d" y="241" stroke="#000" stroke-width=".8" id="line2d_8"/><g id="text_4"><defs><path d="M34.188 63.188L20.797 26.906h26.812zm-5.579 9.718h11.188L67.578 0h-10.25l-6.64 18.703h-32.86L11.188 0H.78z" id="DejaVuSans-65"/><path d="M45.406 46.39v29.594h8.985V0h-8.985v8.203Q42.578 3.328 38.25.953q-4.313-2.375-10.375-2.375-9.906 0-16.14 7.906-6.22 7.922-6.22 20.813 0 12.89 6.22 20.797Q17.968 56 27.874 56q6.063 0 10.375-2.375 4.328-2.36 7.156-7.234zm-30.61-19.093q0-9.906 4.079-15.547 4.078-5.64 11.203-5.64 7.125 0 11.219 5.64 4.11 5.64 4.11 15.547 0 9.906-4.11 15.547-4.094 5.64-11.219 5.64-7.125 0-11.203-5.64-4.078-5.64-4.078-15.547z" id="DejaVuSans-100"/><path d="M48.688 27.297q0 9.906-4.079 15.547-4.078 5.64-11.203 5.64-7.14 0-11.218-5.64-4.079-5.64-4.079-15.547 0-9.906 4.078-15.547 4.079-5.64 11.22-5.64 7.124 0 11.202 5.64t4.078 15.547zM18.108 46.39q2.844 4.875 7.157 7.234Q29.594 56 35.594 56q9.968 0 16.187-7.906 6.235-7.907 6.235-20.797T51.78 6.484q-6.218-7.906-16.187-7.906-6 0-10.328 2.375-4.313 2.375-7.157 7.25V0H9.08v75.984h9.03z" id="DejaVuSans-98"/><path d="M19.672 64.797v-27.39h12.406q6.89 0 10.64 3.562 3.766 3.562 3.766 10.156 0 6.547-3.765 10.11-3.75 3.562-10.64 3.562zm-9.86 8.11h22.266q12.266 0 18.531-5.548 6.282-5.546 6.282-16.234 0-10.797-6.282-16.313-6.265-5.515-18.53-5.515H19.671V0h-9.86z" id="DejaVuSans-80"/><path d="M44.281 53.078v-8.5q-3.797 1.953-7.906 2.922-4.094.984-8.5.984-6.688 0-10.031-2.047-3.344-2.046-3.344-6.156 0-3.125 2.39-4.906 2.391-1.781 9.626-3.39l3.078-.688q9.562-2.047 13.593-5.781 4.032-3.735 4.032-10.422 0-7.625-6.032-12.078-6.03-4.438-16.578-4.438-4.39 0-9.156.86Q10.688.296 5.422 2v9.281q4.984-2.594 9.812-3.89 4.829-1.282 9.579-1.282 6.343 0 9.75 2.172 3.421 2.172 3.421 6.125 0 3.656-2.468 5.61-2.453 1.953-10.813 3.765l-3.125.735q-8.344 1.75-12.062 5.39-3.704 3.64-3.704 9.985 0 7.718 5.47 11.906Q16.75 56 26.811 56q4.97 0 9.36-.734 4.406-.72 8.11-2.188z" id="DejaVuSans-115"/></defs><g transform="matrix(.1 0 0 -.1 332.178 255.598)"><use xlink:href="#DejaVuSans-65"/><use x="68.393" xlink:href="#DejaVuSans-100"/><use x="131.869" xlink:href="#DejaVuSans-98"/><use x="195.346" xlink:href="#DejaVuSans-108"/><use x="223.129" xlink:href="#DejaVuSans-111"/><use x="284.311" xlink:href="#DejaVuSans-99"/><use x="339.291" xlink:href="#DejaVuSans-107"/><use x="397.201" xlink:href="#DejaVuSans-32"/><use x="428.988" xlink:href="#DejaVuSans-80"/><use x="489.291" xlink:href="#DejaVuSans-108"/><use x="517.074" xlink:href="#DejaVuSans-117"/><use x="580.453" xlink:href="#DejaVuSans-115"/></g></g></g></g><g id="matplotlib.axis_2"><g id="ytick_1"><path clip-path="url(#pd1e6028be3)" d="M56 241h346" fill="none" stroke="#b0b0b0" stroke-dasharray="3.7,1.6" id="line2d_9"/><g id="line2d_10"><defs><path d="M0 0h-3.5" id="mc93a655449" stroke="#000" stroke-width=".8"/></defs><use x="56" xlink:href="#mc93a655449" y="241" stroke="#000" stroke-width=".8"/></g><g id="text_5"><defs><path d="M31.781 66.406q-7.61 0-11.453-7.5Q16.5 51.422 16.5 36.375q0-14.984 3.828-22.484 3.844-7.5 11.453-7.5 7.672 0 11.5 7.5 3.844 7.5 3.844 22.484 0 15.047-3.844 22.531-3.828 7.5-11.5 7.5zm0 7.813q12.266 0 18.735-9.703 6.468-9.688 6.468-28.141 0-18.406-6.468-28.11-6.47-9.687-18.735-9.687-12.25 0-18.718 9.688-6.47 9.703-6.47 28.109 0 18.453 6.47 28.14Q19.53 74.22 31.78 74.22z" id="DejaVuSans-48"/></defs><use xlink:href="#DejaVuSans-48" transform="matrix(.1 0 0 -.1 42.638 244.8)"/></g></g><g id="ytick_2"><path clip-path="url(#pd1e6028be3)" d="M56 203.986h346" fill="none" stroke="#b0b0b0" stroke-dasharray="3.7,1.6" id="line2d_11"/><use x="56" xlink:href="#mc93a655449" y="203.986" stroke="#000" stroke-width=".8" id="line2d_12"/><g id="text_6"><defs><path d="M10.797 72.906h38.719v-8.312H19.828v-17.86q2.14.735 4.281 1.094 2.157.36 4.313.36 12.203 0 19.328-6.688 7.14-6.688 7.14-18.11 0-11.765-7.328-18.296-7.328-6.516-20.656-6.516-4.593 0-9.36.781-4.75.782-9.827 2.344v9.922q4.39-2.39 9.078-3.563 4.687-1.171 9.906-1.171 8.453 0 13.375 4.437 4.938 4.438 4.938 12.063 0 7.609-4.938 12.047-4.922 4.453-13.375 4.453-3.953 0-7.89-.875-3.922-.875-8.016-2.735z" id="DejaVuSans-53"/></defs><g transform="matrix(.1 0 0 -.1 36.275 207.785)"><use xlink:href="#DejaVuSans-53"/><use x="63.623" xlink:href="#DejaVuSans-48"/></g></g></g><g id="ytick_3"><path clip-path="url(#pd1e6028be3)" d="M56 166.972h346" fill="none" stroke="#b0b0b0" stroke-dasharray="3.7,1.6" id="line2d_13"/><use x="56" xlink:href="#mc93a655449" y="166.972" stroke="#000" stroke-width=".8" id="line2d_14"/><g id="text_7"><defs><path d="M12.406 8.297h16.11v55.625l-17.532-3.516v8.985l17.438 3.515h9.86V8.296H54.39V0H12.406z" id="DejaVuSans-49"/></defs><g transform="matrix(.1 0 0 -.1 29.913 170.772)"><use xlink:href="#DejaVuSans-49"/><use x="63.623" xlink:href="#DejaVuSans-48"/><use x="127.246" xlink:href="#DejaVuSans-48"/></g></g></g><g id="ytick_4"><path clip-path="url(#pd1e6028be3)" d="M56 129.959h346" fill="none" stroke="#b0b0b0" stroke-dasharray="3.7,1.6" id="line2d_15"/><use x="56" xlink:href="#mc93a655449" y="129.959" stroke="#000" stroke-width=".8" id="line2d_16"/><g transform="matrix(.1 0 0 -.1 29.913 133.758)" id="text_8"><use xlink:href="#DejaVuSans-49"/><use x="63.623" xlink:href="#DejaVuSans-53"/><use x="127.246" xlink:href="#DejaVuSans-48"/></g></g><g id="ytick_5"><path clip-path="url(#pd1e6028be3)" d="M56 92.945h346" fill="none" stroke="#b0b0b0" stroke-dasharray="3.7,1.6" id="line2d_17"/><use x="56" xlink:href="#mc93a655449" y="92.945" stroke="#000" stroke-width=".8" id="line2d_18"/><g id="text_9"><defs><path d="M19.188 8.297h34.421V0H7.33v8.297q5.609 5.812 15.296 15.594 9.703 9.797 12.188 12.64 4.734 5.313 6.609 9 1.89 3.688 1.89 7.25 0 5.813-4.078 9.469-4.078 3.672-10.625 3.672-4.64 0-9.797-1.61-5.14-1.609-11-4.89v9.969Q13.767 71.78 18.938 73q5.188 1.219 9.485 1.219 11.328 0 18.062-5.672 6.735-5.656 6.735-15.125 0-4.5-1.688-8.531-1.672-4.016-6.125-9.485-1.218-1.422-7.765-8.187-6.532-6.766-18.453-18.922z" id="DejaVuSans-50"/></defs><g transform="matrix(.1 0 0 -.1 29.913 96.744)"><use xlink:href="#DejaVuSans-50"/><use x="63.623" xlink:href="#DejaVuSans-48"/><use x="127.246" xlink:href="#DejaVuSans-48"/></g></g></g><g id="ytick_6"><path clip-path="url(#pd1e6028be3)" d="M56 55.931h346" fill="none" stroke="#b0b0b0" stroke-dasharray="3.7,1.6" id="line2d_19"/><use x="56" xlink:href="#mc93a655449" y="55.931" stroke="#000" stroke-width=".8" id="line2d_20"/><g transform="matrix(.1 0 0 -.1 29.913 59.73)" id="text_10"><use xlink:href="#DejaVuSans-50"/><use x="63.623" xlink:href="#DejaVuSans-53"/><use x="127.246" xlink:href="#DejaVuSans-48"/></g></g><g id="text_11"><defs><path d="M-.297 72.906h61.672v-8.312H35.5V0h-9.906v64.594H-.296z" id="DejaVuSans-84"/><path d="M52 44.188q3.375 6.062 8.063 8.937Q64.75 56 71.093 56q8.548 0 13.188-5.984 4.64-5.97 4.64-17V0h-9.03v32.719q0 7.86-2.797 11.656-2.781 3.813-8.485 3.813-6.984 0-11.046-4.641-4.047-4.625-4.047-12.64V0h-9.032v32.719q0 7.906-2.78 11.687-2.782 3.782-8.595 3.782-6.89 0-10.953-4.657-4.047-4.656-4.047-12.625V0H9.08v54.688h9.03v-8.5q3.078 5.03 7.375 7.421Q29.781 56 35.687 56q5.97 0 10.141-3.031Q50 49.953 52 44.187z" id="DejaVuSans-109"/><path d="M31 75.875q-6.531-11.219-9.719-22.219-3.172-10.984-3.172-22.265 0-11.266 3.203-22.328Q24.517-2 31-13.188h-7.813Q15.875-1.704 12.235 9.375q-3.64 11.078-3.64 22.016 0 10.89 3.61 21.922 3.624 11.046 10.983 22.562z" id="DejaVuSans-40"/><path d="M8.016 75.875h7.812q7.313-11.516 10.953-22.563 3.64-11.03 3.64-21.921 0-10.938-3.64-22.016-3.64-11.078-10.953-22.563H8.016Q14.5-2 17.703 9.063q3.203 11.063 3.203 22.329 0 11.28-3.203 22.265-3.203 11-9.687 22.219z" id="DejaVuSans-41"/></defs><g transform="matrix(0 -.1 -.1 0 23.833 160.853)"><use xlink:href="#DejaVuSans-84"/><use x="61.037" xlink:href="#DejaVuSans-105"/><use x="88.82" xlink:href="#DejaVuSans-109"/><use x="186.232" xlink:href="#DejaVuSans-101"/><use x="247.756" xlink:href="#DejaVuSans-32"/><use x="279.543" xlink:href="#DejaVuSans-40"/><use x="318.557" xlink:href="#DejaVuSans-109"/><use x="415.969" xlink:href="#DejaVuSans-115"/><use x="468.068" xlink:href="#DejaVuSans-41"/></g></g></g><path d="M56 241V30" fill="none" stroke="#000" stroke-linecap="square" stroke-width=".8" id="patch_7"/><path d="M402 241V30" fill="none" stroke="#000" stroke-linecap="square" stroke-width=".8" id="patch_8"/><path d="M56 241h346" fill="none" stroke="#000" stroke-linecap="square" stroke-width=".8" id="patch_9"/><path d="M56 30h346" fill="none" stroke="#000" stroke-linecap="square" stroke-width=".8" id="patch_10"/><g id="text_12"><defs><path d="M19.672 64.797V8.109h11.922q15.093 0 22.093 6.829 7 6.843 7 21.593 0 14.64-7 21.453-7 6.813-22.093 6.813zm-9.86 8.11h20.266q21.188 0 31.094-8.813 9.922-8.813 9.922-27.563 0-18.86-9.969-27.703Q51.172 0 30.078 0H9.813z" id="DejaVuSans-68"/><path d="M18.313 70.219V54.688h18.5v-6.985h-18.5V18.016q0-6.688 1.828-8.594 1.828-1.906 7.453-1.906h9.218V0h-9.218q-10.407 0-14.36 3.875-3.953 3.89-3.953 14.14v29.688H2.687v6.984h6.594V70.22z" id="DejaVuSans-116"/><path d="M9.813 72.906h14.703l18.593-49.61 18.703 49.61h14.704V0H66.89v64.016l-18.797-50h-9.907l-18.796 50V0H9.813z" id="DejaVuSans-77"/></defs><g transform="matrix(.12 0 0 -.12 130.51 24)"><use xlink:href="#DejaVuSans-68"/><use x="77.002" xlink:href="#DejaVuSans-101"/><use x="138.525" xlink:href="#DejaVuSans-115"/><use x="190.625" xlink:href="#DejaVuSans-101"/><use x="252.148" xlink:href="#DejaVuSans-114"/><use x="293.262" xlink:href="#DejaVuSans-105"/><use x="321.045" xlink:href="#DejaVuSans-97"/><use x="382.324" xlink:href="#DejaVuSans-108"/><use x="410.107" xlink:href="#DejaVuSans-105"/><use x="437.891" xlink:href="#DejaVuSans-122"/><use x="490.381" xlink:href="#DejaVuSans-97"/><use x="551.66" xlink:href="#DejaVuSans-116"/><use x="590.869" xlink:href="#DejaVuSans-105"/><use x="618.652" xlink:href="#DejaVuSans-111"/><use x="679.834" xlink:href="#DejaVuSans-110"/><use x="743.213" xlink:href="#DejaVuSans-32"/><use x="775" xlink:href="#DejaVuSans-84"/><use x="836.037" xlink:href="#DejaVuSans-105"/><use x="863.82" xlink:href="#DejaVuSans-109"/><use x="961.232" xlink:href="#DejaVuSans-105"/><use x="989.016" xlink:href="#DejaVuSans-110"/><use x="1052.395" xlink:href="#DejaVuSans-103"/><use x="1115.871" xlink:href="#DejaVuSans-115"/><use x="1167.971" xlink:href="#DejaVuSans-32"/><use x="1199.758" xlink:href="#DejaVuSans-40"/><use x="1238.771" xlink:href="#DejaVuSans-77"/><use x="1325.051" xlink:href="#DejaVuSans-101"/><use x="1386.574" xlink:href="#DejaVuSans-100"/><use x="1450.051" xlink:href="#DejaVuSans-105"/><use x="1477.834" xlink:href="#DejaVuSans-97"/><use x="1539.113" xlink:href="#DejaVuSans-110"/><use x="1602.492" xlink:href="#DejaVuSans-41"/></g></g></g></g><defs><clipPath id="pd1e6028be3"><path d="M56 30h346v211H56z"/></clipPath></defs></svg>