<?xml version="1.0" encoding="utf-8" standalone="no"?>
<!DOCTYPE svg PUBLIC "-//W3C//DTD SVG 1.1//EN"
  "http://www.w3.org/Graphics/SVG/1.1/DTD/svg11.dtd">
<!-- Created with matplotlib (https://matplotlib.org/) -->
<svg height="288pt" version="1.1" viewBox="0 0 432 288" width="432pt" xmlns="http://www.w3.org/2000/svg" xmlns:xlink="http://www.w3.org/1999/xlink">
 <defs>
  <style type="text/css">
*{stroke-linecap:butt;stroke-linejoin:round;}
  </style>
 </defs>
 <g id="figure_1">
  <g id="patch_1">
   <path d="M 0 288 
L 432 288 
L 432 0 
L 0 0 
z
" style="fill:#ffffff;"/>
  </g>
  <g id="axes_1">
   <g id="patch_2">
    <path d="M 52.875 241 
L 398.5 241 
L 398.5 33.5 
L 52.875 33.5 
z
" style="fill:#ffffff;"/>
   </g>
   <g id="matplotlib.axis_1">
    <g id="xtick_1">
     <g id="line2d_1">
      <path clip-path="url(#p33acd77525)" d="M 100.291776 241 
L 100.291776 33.5 
" style="fill:none;stroke:#b0b0b0;stroke-dasharray:3.7,1.6;stroke-dashoffset:0;"/>
     </g>
     <g id="line2d_2">
      <defs>
       <path d="M 0 0 
L 0 3.5 
" id="m81477ec4e3" style="stroke:#000000;stroke-width:0.8;"/>
      </defs>
      <g>
       <use style="stroke:#000000;stroke-width:0.8;" x="100.291776" xlink:href="#m81477ec4e3" y="241"/>
      </g>
     </g>
     <g id="text_1">
      <!-- $\mathdefault{10^{-2}}$ -->
      <defs>
       <path d="M 12.40625 8.296875 
L 28.515625 8.296875 
L 28.515625 63.921875 
L 10.984375 60.40625 
L 10.984375 69.390625 
L 28.421875 72.90625 
L 38.28125 72.90625 
L 38.28125 8.296875 
L 54.390625 8.296875 
L 54.390625 0 
L 12.40625 0 
z
" id="DejaVuSans-49"/>
       <path d="M 31.78125 66.40625 
Q 24.171875 66.40625 20.328125 58.90625 
Q 16.5 51.421875 16.5 36.375 
Q 16.5 21.390625 20.328125 13.890625 
Q 24.171875 6.390625 31.78125 6.390625 
Q 39.453125 6.390625 43.28125 13.890625 
Q 47.125 21.390625 47.125 36.375 
Q 47.125 51.421875 43.28125 58.90625 
Q 39.453125 66.40625 31.78125 66.40625 
z
M 31.78125 74.21875 
Q 44.046875 74.21875 50.515625 64.515625 
Q 56.984375 54.828125 56.984375 36.375 
Q 56.984375 17.96875 50.515625 8.265625 
Q 44.046875 -1.421875 31.78125 -1.421875 
Q 19.53125 -1.421875 13.0625 8.265625 
Q 6.59375 17.96875 6.59375 36.375 
Q 6.59375 54.828125 13.0625 64.515625 
Q 19.53125 74.21875 31.78125 74.21875 
z
" id="DejaVuSans-48"/>
       <path d="M 10.59375 35.5 
L 73.1875 35.5 
L 73.1875 27.203125 
L 10.59375 27.203125 
z
" id="DejaVuSans-8722"/>
       <path d="M 19.1875 8.296875 
L 53.609375 8.296875 
L 53.609375 0 
L 7.328125 0 
L 7.328125 8.296875 
Q 12.9375 14.109375 22.625 23.890625 
Q 32.328125 33.6875 34.8125 36.53125 
Q 39.546875 41.84375 41.421875 45.53125 
Q 43.3125 49.21875 43.3125 52.78125 
Q 43.3125 58.59375 39.234375 62.25 
Q 35.15625 65.921875 28.609375 65.921875 
Q 23.96875 65.921875 18.8125 64.3125 
Q 13.671875 62.703125 7.8125 59.421875 
L 7.8125 69.390625 
Q 13.765625 71.78125 18.9375 73 
Q 24.125 74.21875 28.421875 74.21875 
Q 39.75 74.21875 46.484375 68.546875 
Q 53.21875 62.890625 53.21875 53.421875 
Q 53.21875 48.921875 51.53125 44.890625 
Q 49.859375 40.875 45.40625 35.40625 
Q 44.1875 33.984375 37.640625 27.21875 
Q 31.109375 20.453125 19.1875 8.296875 
z
" id="DejaVuSans-50"/>
      </defs>
      <g transform="translate(88.541776 255.598438)scale(0.1 -0.1)">
       <use transform="translate(0 0.765625)" xlink:href="#DejaVuSans-49"/>
       <use transform="translate(63.623047 0.765625)" xlink:href="#DejaVuSans-48"/>
       <use transform="translate(128.203125 39.046875)scale(0.7)" xlink:href="#DejaVuSans-8722"/>
       <use transform="translate(186.855469 39.046875)scale(0.7)" xlink:href="#DejaVuSans-50"/>
      </g>
     </g>
    </g>
    <g id="xtick_2">
     <g id="line2d_3">
      <path clip-path="url(#p33acd77525)" d="M 177.594267 241 
L 177.594267 33.5 
" style="fill:none;stroke:#b0b0b0;stroke-dasharray:3.7,1.6;stroke-dashoffset:0;"/>
     </g>
     <g id="line2d_4">
      <g>
       <use style="stroke:#000000;stroke-width:0.8;" x="177.594267" xlink:href="#m81477ec4e3" y="241"/>
      </g>
     </g>
     <g id="text_2">
      <!-- $\mathdefault{10^{-1}}$ -->
      <g transform="translate(165.844267 255.598438)scale(0.1 -0.1)">
       <use transform="translate(0 0.684375)" xlink:href="#DejaVuSans-49"/>
       <use transform="translate(63.623047 0.684375)" xlink:href="#DejaVuSans-48"/>
       <use transform="translate(128.203125 38.965625)scale(0.7)" xlink:href="#DejaVuSans-8722"/>
       <use transform="translate(186.855469 38.965625)scale(0.7)" xlink:href="#DejaVuSans-49"/>
      </g>
     </g>
    </g>
    <g id="xtick_3">
     <g id="line2d_5">
      <path clip-path="url(#p33acd77525)" d="M 254.896758 241 
L 254.896758 33.5 
" style="fill:none;stroke:#b0b0b0;stroke-dasharray:3.7,1.6;stroke-dashoffset:0;"/>
     </g>
     <g id="line2d_6">
      <g>
       <use style="stroke:#000000;stroke-width:0.8;" x="254.896758" xlink:href="#m81477ec4e3" y="241"/>
      </g>
     </g>
     <g id="text_3">
      <!-- $\mathdefault{10^{0}}$ -->
      <g transform="translate(246.096758 255.598438)scale(0.1 -0.1)">
       <use transform="translate(0 0.765625)" xlink:href="#DejaVuSans-49"/>
       <use transform="translate(63.623047 0.765625)" xlink:href="#DejaVuSans-48"/>
       <use transform="translate(128.203125 39.046875)scale(0.7)" xlink:href="#DejaVuSans-48"/>
      </g>
     </g>
    </g>
    <g id="xtick_4">
     <g id="line2d_7">
      <path clip-path="url(#p33acd77525)" d="M 332.199249 241 
L 332.199249 33.5 
" style="fill:none;stroke:#b0b0b0;stroke-dasharray:3.7,1.6;stroke-dashoffset:0;"/>
     </g>
     <g id="line2d_8">
      <g>
       <use style="stroke:#000000;stroke-width:0.8;" x="332.199249" xlink:href="#m81477ec4e3" y="241"/>
      </g>
     </g>
     <g id="text_4">
      <!-- $\mathdefault{10^{1}}$ -->
      <g transform="translate(323.399249 255.598438)scale(0.1 -0.1)">
       <use transform="translate(0 0.684375)" xlink:href="#DejaVuSans-49"/>
       <use transform="translate(63.623047 0.684375)" xlink:href="#DejaVuSans-48"/>
       <use transform="translate(128.203125 38.965625)scale(0.7)" xlink:href="#DejaVuSans-49"/>
      </g>
     </g>
    </g>
    <g id="xtick_5">
     <g id="line2d_9">
      <defs>
       <path d="M 0 0 
L 0 2 
" id="m82fed5446d" style="stroke:#000000;stroke-width:0.6;"/>
      </defs>
      <g>
       <use style="stroke:#000000;stroke-width:0.6;" x="59.871946" xlink:href="#m82fed5446d" y="241"/>
      </g>
     </g>
    </g>
    <g id="xtick_6">
     <g id="line2d_10">
      <g>
       <use style="stroke:#000000;stroke-width:0.6;" x="69.530022" xlink:href="#m82fed5446d" y="241"/>
      </g>
     </g>
    </g>
    <g id="xtick_7">
     <g id="line2d_11">
      <g>
       <use style="stroke:#000000;stroke-width:0.6;" x="77.021407" xlink:href="#m82fed5446d" y="241"/>
      </g>
     </g>
    </g>
    <g id="xtick_8">
     <g id="line2d_12">
      <g>
       <use style="stroke:#000000;stroke-width:0.6;" x="83.142315" xlink:href="#m82fed5446d" y="241"/>
      </g>
     </g>
    </g>
    <g id="xtick_9">
     <g id="line2d_13">
      <g>
       <use style="stroke:#000000;stroke-width:0.6;" x="88.317469" xlink:href="#m82fed5446d" y="241"/>
      </g>
     </g>
    </g>
    <g id="xtick_10">
     <g id="line2d_14">
      <g>
       <use style="stroke:#000000;stroke-width:0.6;" x="92.800391" xlink:href="#m82fed5446d" y="241"/>
      </g>
     </g>
    </g>
    <g id="xtick_11">
     <g id="line2d_15">
      <g>
       <use style="stroke:#000000;stroke-width:0.6;" x="96.754608" xlink:href="#m82fed5446d" y="241"/>
      </g>
     </g>
    </g>
    <g id="xtick_12">
     <g id="line2d_16">
      <g>
       <use style="stroke:#000000;stroke-width:0.6;" x="123.562144" xlink:href="#m82fed5446d" y="241"/>
      </g>
     </g>
    </g>
    <g id="xtick_13">
     <g id="line2d_17">
      <g>
       <use style="stroke:#000000;stroke-width:0.6;" x="137.174437" xlink:href="#m82fed5446d" y="241"/>
      </g>
     </g>
    </g>
    <g id="xtick_14">
     <g id="line2d_18">
      <g>
       <use style="stroke:#000000;stroke-width:0.6;" x="146.832513" xlink:href="#m82fed5446d" y="241"/>
      </g>
     </g>
    </g>
    <g id="xtick_15">
     <g id="line2d_19">
      <g>
       <use style="stroke:#000000;stroke-width:0.6;" x="154.323898" xlink:href="#m82fed5446d" y="241"/>
      </g>
     </g>
    </g>
    <g id="xtick_16">
     <g id="line2d_20">
      <g>
       <use style="stroke:#000000;stroke-width:0.6;" x="160.444806" xlink:href="#m82fed5446d" y="241"/>
      </g>
     </g>
    </g>
    <g id="xtick_17">
     <g id="line2d_21">
      <g>
       <use style="stroke:#000000;stroke-width:0.6;" x="165.61996" xlink:href="#m82fed5446d" y="241"/>
      </g>
     </g>
    </g>
    <g id="xtick_18">
     <g id="line2d_22">
      <g>
       <use style="stroke:#000000;stroke-width:0.6;" x="170.102881" xlink:href="#m82fed5446d" y="241"/>
      </g>
     </g>
    </g>
    <g id="xtick_19">
     <g id="line2d_23">
      <g>
       <use style="stroke:#000000;stroke-width:0.6;" x="174.057099" xlink:href="#m82fed5446d" y="241"/>
      </g>
     </g>
    </g>
    <g id="xtick_20">
     <g id="line2d_24">
      <g>
       <use style="stroke:#000000;stroke-width:0.6;" x="200.864635" xlink:href="#m82fed5446d" y="241"/>
      </g>
     </g>
    </g>
    <g id="xtick_21">
     <g id="line2d_25">
      <g>
       <use style="stroke:#000000;stroke-width:0.6;" x="214.476928" xlink:href="#m82fed5446d" y="241"/>
      </g>
     </g>
    </g>
    <g id="xtick_22">
     <g id="line2d_26">
      <g>
       <use style="stroke:#000000;stroke-width:0.6;" x="224.135004" xlink:href="#m82fed5446d" y="241"/>
      </g>
     </g>
    </g>
    <g id="xtick_23">
     <g id="line2d_27">
      <g>
       <use style="stroke:#000000;stroke-width:0.6;" x="231.626389" xlink:href="#m82fed5446d" y="241"/>
      </g>
     </g>
    </g>
    <g id="xtick_24">
     <g id="line2d_28">
      <g>
       <use style="stroke:#000000;stroke-width:0.6;" x="237.747297" xlink:href="#m82fed5446d" y="241"/>
      </g>
     </g>
    </g>
    <g id="xtick_25">
     <g id="line2d_29">
      <g>
       <use style="stroke:#000000;stroke-width:0.6;" x="242.92245" xlink:href="#m82fed5446d" y="241"/>
      </g>
     </g>
    </g>
    <g id="xtick_26">
     <g id="line2d_30">
      <g>
       <use style="stroke:#000000;stroke-width:0.6;" x="247.405372" xlink:href="#m82fed5446d" y="241"/>
      </g>
     </g>
    </g>
    <g id="xtick_27">
     <g id="line2d_31">
      <g>
       <use style="stroke:#000000;stroke-width:0.6;" x="251.35959" xlink:href="#m82fed5446d" y="241"/>
      </g>
     </g>
    </g>
    <g id="xtick_28">
     <g id="line2d_32">
      <g>
       <use style="stroke:#000000;stroke-width:0.6;" x="278.167126" xlink:href="#m82fed5446d" y="241"/>
      </g>
     </g>
    </g>
    <g id="xtick_29">
     <g id="line2d_33">
      <g>
       <use style="stroke:#000000;stroke-width:0.6;" x="291.779419" xlink:href="#m82fed5446d" y="241"/>
      </g>
     </g>
    </g>
    <g id="xtick_30">
     <g id="line2d_34">
      <g>
       <use style="stroke:#000000;stroke-width:0.6;" x="301.437495" xlink:href="#m82fed5446d" y="241"/>
      </g>
     </g>
    </g>
    <g id="xtick_31">
     <g id="line2d_35">
      <g>
       <use style="stroke:#000000;stroke-width:0.6;" x="308.92888" xlink:href="#m82fed5446d" y="241"/>
      </g>
     </g>
    </g>
    <g id="xtick_32">
     <g id="line2d_36">
      <g>
       <use style="stroke:#000000;stroke-width:0.6;" x="315.049788" xlink:href="#m82fed5446d" y="241"/>
      </g>
     </g>
    </g>
    <g id="xtick_33">
     <g id="line2d_37">
      <g>
       <use style="stroke:#000000;stroke-width:0.6;" x="320.224941" xlink:href="#m82fed5446d" y="241"/>
      </g>
     </g>
    </g>
    <g id="xtick_34">
     <g id="line2d_38">
      <g>
       <use style="stroke:#000000;stroke-width:0.6;" x="324.707863" xlink:href="#m82fed5446d" y="241"/>
      </g>
     </g>
    </g>
    <g id="xtick_35">
     <g id="line2d_39">
      <g>
       <use style="stroke:#000000;stroke-width:0.6;" x="328.662081" xlink:href="#m82fed5446d" y="241"/>
      </g>
     </g>
    </g>
    <g id="xtick_36">
     <g id="line2d_40">
      <g>
       <use style="stroke:#000000;stroke-width:0.6;" x="355.469617" xlink:href="#m82fed5446d" y="241"/>
      </g>
     </g>
    </g>
    <g id="xtick_37">
     <g id="line2d_41">
      <g>
       <use style="stroke:#000000;stroke-width:0.6;" x="369.08191" xlink:href="#m82fed5446d" y="241"/>
      </g>
     </g>
    </g>
    <g id="xtick_38">
     <g id="line2d_42">
      <g>
       <use style="stroke:#000000;stroke-width:0.6;" x="378.739986" xlink:href="#m82fed5446d" y="241"/>
      </g>
     </g>
    </g>
    <g id="xtick_39">
     <g id="line2d_43">
      <g>
       <use style="stroke:#000000;stroke-width:0.6;" x="386.231371" xlink:href="#m82fed5446d" y="241"/>
      </g>
     </g>
    </g>
    <g id="xtick_40">
     <g id="line2d_44">
      <g>
       <use style="stroke:#000000;stroke-width:0.6;" x="392.352279" xlink:href="#m82fed5446d" y="241"/>
      </g>
     </g>
    </g>
    <g id="xtick_41">
     <g id="line2d_45">
      <g>
       <use style="stroke:#000000;stroke-width:0.6;" x="397.527432" xlink:href="#m82fed5446d" y="241"/>
      </g>
     </g>
    </g>
    <g id="text_5">
     <!-- Time (ms)  -->
     <defs>
      <path d="M -0.296875 72.90625 
L 61.375 72.90625 
L 61.375 64.59375 
L 35.5 64.59375 
L 35.5 0 
L 25.59375 0 
L 25.59375 64.59375 
L -0.296875 64.59375 
z
" id="DejaVuSans-84"/>
      <path d="M 9.421875 54.6875 
L 18.40625 54.6875 
L 18.40625 0 
L 9.421875 0 
z
M 9.421875 75.984375 
L 18.40625 75.984375 
L 18.40625 64.59375 
L 9.421875 64.59375 
z
" id="DejaVuSans-105"/>
      <path d="M 52 44.1875 
Q 55.375 50.25 60.0625 53.125 
Q 64.75 56 71.09375 56 
Q 79.640625 56 84.28125 50.015625 
Q 88.921875 44.046875 88.921875 33.015625 
L 88.921875 0 
L 79.890625 0 
L 79.890625 32.71875 
Q 79.890625 40.578125 77.09375 44.375 
Q 74.3125 48.1875 68.609375 48.1875 
Q 61.625 48.1875 57.5625 43.546875 
Q 53.515625 38.921875 53.515625 30.90625 
L 53.515625 0 
L 44.484375 0 
L 44.484375 32.71875 
Q 44.484375 40.625 41.703125 44.40625 
Q 38.921875 48.1875 33.109375 48.1875 
Q 26.21875 48.1875 22.15625 43.53125 
Q 18.109375 38.875 18.109375 30.90625 
L 18.109375 0 
L 9.078125 0 
L 9.078125 54.6875 
L 18.109375 54.6875 
L 18.109375 46.1875 
Q 21.1875 51.21875 25.484375 53.609375 
Q 29.78125 56 35.6875 56 
Q 41.65625 56 45.828125 52.96875 
Q 50 49.953125 52 44.1875 
z
" id="DejaVuSans-109"/>
      <path d="M 56.203125 29.59375 
L 56.203125 25.203125 
L 14.890625 25.203125 
Q 15.484375 15.921875 20.484375 11.0625 
Q 25.484375 6.203125 34.421875 6.203125 
Q 39.59375 6.203125 44.453125 7.46875 
Q 49.3125 8.734375 54.109375 11.28125 
L 54.109375 2.78125 
Q 49.265625 0.734375 44.1875 -0.34375 
Q 39.109375 -1.421875 33.890625 -1.421875 
Q 20.796875 -1.421875 13.15625 6.1875 
Q 5.515625 13.8125 5.515625 26.8125 
Q 5.515625 40.234375 12.765625 48.109375 
Q 20.015625 56 32.328125 56 
Q 43.359375 56 49.78125 48.890625 
Q 56.203125 41.796875 56.203125 29.59375 
z
M 47.21875 32.234375 
Q 47.125 39.59375 43.09375 43.984375 
Q 39.0625 48.390625 32.421875 48.390625 
Q 24.90625 48.390625 20.390625 44.140625 
Q 15.875 39.890625 15.1875 32.171875 
z
" id="DejaVuSans-101"/>
      <path id="DejaVuSans-32"/>
      <path d="M 31 75.875 
Q 24.46875 64.65625 21.28125 53.65625 
Q 18.109375 42.671875 18.109375 31.390625 
Q 18.109375 20.125 21.3125 9.0625 
Q 24.515625 -2 31 -13.1875 
L 23.1875 -13.1875 
Q 15.875 -1.703125 12.234375 9.375 
Q 8.59375 20.453125 8.59375 31.390625 
Q 8.59375 42.28125 12.203125 53.3125 
Q 15.828125 64.359375 23.1875 75.875 
z
" id="DejaVuSans-40"/>
      <path d="M 44.28125 53.078125 
L 44.28125 44.578125 
Q 40.484375 46.53125 36.375 47.5 
Q 32.28125 48.484375 27.875 48.484375 
Q 21.1875 48.484375 17.84375 46.4375 
Q 14.5 44.390625 14.5 40.28125 
Q 14.5 37.15625 16.890625 35.375 
Q 19.28125 33.59375 26.515625 31.984375 
L 29.59375 31.296875 
Q 39.15625 29.25 43.1875 25.515625 
Q 47.21875 21.78125 47.21875 15.09375 
Q 47.21875 7.46875 41.1875 3.015625 
Q 35.15625 -1.421875 24.609375 -1.421875 
Q 20.21875 -1.421875 15.453125 -0.5625 
Q 10.6875 0.296875 5.421875 2 
L 5.421875 11.28125 
Q 10.40625 8.6875 15.234375 7.390625 
Q 20.0625 6.109375 24.8125 6.109375 
Q 31.15625 6.109375 34.5625 8.28125 
Q 37.984375 10.453125 37.984375 14.40625 
Q 37.984375 18.0625 35.515625 20.015625 
Q 33.0625 21.96875 24.703125 23.78125 
L 21.578125 24.515625 
Q 13.234375 26.265625 9.515625 29.90625 
Q 5.8125 33.546875 5.8125 39.890625 
Q 5.8125 47.609375 11.28125 51.796875 
Q 16.75 56 26.8125 56 
Q 31.78125 56 36.171875 55.265625 
Q 40.578125 54.546875 44.28125 53.078125 
z
" id="DejaVuSans-115"/>
      <path d="M 8.015625 75.875 
L 15.828125 75.875 
Q 23.140625 64.359375 26.78125 53.3125 
Q 30.421875 42.28125 30.421875 31.390625 
Q 30.421875 20.453125 26.78125 9.375 
Q 23.140625 -1.703125 15.828125 -13.1875 
L 8.015625 -13.1875 
Q 14.5 -2 17.703125 9.0625 
Q 20.90625 20.125 20.90625 31.390625 
Q 20.90625 42.671875 17.703125 53.65625 
Q 14.5 64.65625 8.015625 75.875 
z
" id="DejaVuSans-41"/>
     </defs>
     <g transform="translate(198.745313 269.276563)scale(0.1 -0.1)">
      <use xlink:href="#DejaVuSans-84"/>
      <use x="61.037109" xlink:href="#DejaVuSans-105"/>
      <use x="88.820312" xlink:href="#DejaVuSans-109"/>
      <use x="186.232422" xlink:href="#DejaVuSans-101"/>
      <use x="247.755859" xlink:href="#DejaVuSans-32"/>
      <use x="279.542969" xlink:href="#DejaVuSans-40"/>
      <use x="318.556641" xlink:href="#DejaVuSans-109"/>
      <use x="415.96875" xlink:href="#DejaVuSans-115"/>
      <use x="468.068359" xlink:href="#DejaVuSans-41"/>
      <use x="507.082031" xlink:href="#DejaVuSans-32"/>
     </g>
     <!--  log (base 10) -->
     <defs>
      <path d="M 9.421875 75.984375 
L 18.40625 75.984375 
L 18.40625 0 
L 9.421875 0 
z
" id="DejaVuSans-108"/>
      <path d="M 30.609375 48.390625 
Q 23.390625 48.390625 19.1875 42.75 
Q 14.984375 37.109375 14.984375 27.296875 
Q 14.984375 17.484375 19.15625 11.84375 
Q 23.34375 6.203125 30.609375 6.203125 
Q 37.796875 6.203125 41.984375 11.859375 
Q 46.1875 17.53125 46.1875 27.296875 
Q 46.1875 37.015625 41.984375 42.703125 
Q 37.796875 48.390625 30.609375 48.390625 
z
M 30.609375 56 
Q 42.328125 56 49.015625 48.375 
Q 55.71875 40.765625 55.71875 27.296875 
Q 55.71875 13.875 49.015625 6.21875 
Q 42.328125 -1.421875 30.609375 -1.421875 
Q 18.84375 -1.421875 12.171875 6.21875 
Q 5.515625 13.875 5.515625 27.296875 
Q 5.515625 40.765625 12.171875 48.375 
Q 18.84375 56 30.609375 56 
z
" id="DejaVuSans-111"/>
      <path d="M 45.40625 27.984375 
Q 45.40625 37.75 41.375 43.109375 
Q 37.359375 48.484375 30.078125 48.484375 
Q 22.859375 48.484375 18.828125 43.109375 
Q 14.796875 37.75 14.796875 27.984375 
Q 14.796875 18.265625 18.828125 12.890625 
Q 22.859375 7.515625 30.078125 7.515625 
Q 37.359375 7.515625 41.375 12.890625 
Q 45.40625 18.265625 45.40625 27.984375 
z
M 54.390625 6.78125 
Q 54.390625 -7.171875 48.1875 -13.984375 
Q 42 -20.796875 29.203125 -20.796875 
Q 24.46875 -20.796875 20.265625 -20.09375 
Q 16.0625 -19.390625 12.109375 -17.921875 
L 12.109375 -9.1875 
Q 16.0625 -11.328125 19.921875 -12.34375 
Q 23.78125 -13.375 27.78125 -13.375 
Q 36.625 -13.375 41.015625 -8.765625 
Q 45.40625 -4.15625 45.40625 5.171875 
L 45.40625 9.625 
Q 42.625 4.78125 38.28125 2.390625 
Q 33.9375 0 27.875 0 
Q 17.828125 0 11.671875 7.65625 
Q 5.515625 15.328125 5.515625 27.984375 
Q 5.515625 40.671875 11.671875 48.328125 
Q 17.828125 56 27.875 56 
Q 33.9375 56 38.28125 53.609375 
Q 42.625 51.21875 45.40625 46.390625 
L 45.40625 54.6875 
L 54.390625 54.6875 
z
" id="DejaVuSans-103"/>
      <path d="M 48.6875 27.296875 
Q 48.6875 37.203125 44.609375 42.84375 
Q 40.53125 48.484375 33.40625 48.484375 
Q 26.265625 48.484375 22.1875 42.84375 
Q 18.109375 37.203125 18.109375 27.296875 
Q 18.109375 17.390625 22.1875 11.75 
Q 26.265625 6.109375 33.40625 6.109375 
Q 40.53125 6.109375 44.609375 11.75 
Q 48.6875 17.390625 48.6875 27.296875 
z
M 18.109375 46.390625 
Q 20.953125 51.265625 25.265625 53.625 
Q 29.59375 56 35.59375 56 
Q 45.5625 56 51.78125 48.09375 
Q 58.015625 40.1875 58.015625 27.296875 
Q 58.015625 14.40625 51.78125 6.484375 
Q 45.5625 -1.421875 35.59375 -1.421875 
Q 29.59375 -1.421875 25.265625 0.953125 
Q 20.953125 3.328125 18.109375 8.203125 
L 18.109375 0 
L 9.078125 0 
L 9.078125 75.984375 
L 18.109375 75.984375 
z
" id="DejaVuSans-98"/>
      <path d="M 34.28125 27.484375 
Q 23.390625 27.484375 19.1875 25 
Q 14.984375 22.515625 14.984375 16.5 
Q 14.984375 11.71875 18.140625 8.90625 
Q 21.296875 6.109375 26.703125 6.109375 
Q 34.1875 6.109375 38.703125 11.40625 
Q 43.21875 16.703125 43.21875 25.484375 
L 43.21875 27.484375 
z
M 52.203125 31.203125 
L 52.203125 0 
L 43.21875 0 
L 43.21875 8.296875 
Q 40.140625 3.328125 35.546875 0.953125 
Q 30.953125 -1.421875 24.3125 -1.421875 
Q 15.921875 -1.421875 10.953125 3.296875 
Q 6 8.015625 6 15.921875 
Q 6 25.140625 12.171875 29.828125 
Q 18.359375 34.515625 30.609375 34.515625 
L 43.21875 34.515625 
L 43.21875 35.40625 
Q 43.21875 41.609375 39.140625 45 
Q 35.0625 48.390625 27.6875 48.390625 
Q 23 48.390625 18.546875 47.265625 
Q 14.109375 46.140625 10.015625 43.890625 
L 10.015625 52.203125 
Q 14.9375 54.109375 19.578125 55.046875 
Q 24.21875 56 28.609375 56 
Q 40.484375 56 46.34375 49.84375 
Q 52.203125 43.703125 52.203125 31.203125 
z
" id="DejaVuSans-97"/>
     </defs>
     <g transform="translate(191.114062 280.474375)scale(0.1 -0.1)">
      <use xlink:href="#DejaVuSans-32"/>
      <use x="31.787109" xlink:href="#DejaVuSans-108"/>
      <use x="59.570312" xlink:href="#DejaVuSans-111"/>
      <use x="120.751953" xlink:href="#DejaVuSans-103"/>
      <use x="184.228516" xlink:href="#DejaVuSans-32"/>
      <use x="216.015625" xlink:href="#DejaVuSans-40"/>
      <use x="255.029297" xlink:href="#DejaVuSans-98"/>
      <use x="318.505859" xlink:href="#DejaVuSans-97"/>
      <use x="379.785156" xlink:href="#DejaVuSans-115"/>
      <use x="431.884766" xlink:href="#DejaVuSans-101"/>
      <use x="493.408203" xlink:href="#DejaVuSans-32"/>
      <use x="525.195312" xlink:href="#DejaVuSans-49"/>
      <use x="588.818359" xlink:href="#DejaVuSans-48"/>
      <use x="652.441406" xlink:href="#DejaVuSans-41"/>
     </g>
    </g>
   </g>
   <g id="matplotlib.axis_2">
    <g id="ytick_1">
     <g id="line2d_46">
      <path clip-path="url(#p33acd77525)" d="M 52.875 231.569208 
L 398.5 231.569208 
" style="fill:none;stroke:#b0b0b0;stroke-dasharray:3.7,1.6;stroke-dashoffset:0;"/>
     </g>
     <g id="line2d_47">
      <defs>
       <path d="M 0 0 
L -3.5 0 
" id="md4d4a09083" style="stroke:#000000;stroke-width:0.8;"/>
      </defs>
      <g>
       <use style="stroke:#000000;stroke-width:0.8;" x="52.875" xlink:href="#md4d4a09083" y="231.569208"/>
      </g>
     </g>
     <g id="text_6">
      <!-- 0.0 -->
      <defs>
       <path d="M 10.6875 12.40625 
L 21 12.40625 
L 21 0 
L 10.6875 0 
z
" id="DejaVuSans-46"/>
      </defs>
      <g transform="translate(29.971875 235.368427)scale(0.1 -0.1)">
       <use xlink:href="#DejaVuSans-48"/>
       <use x="63.623047" xlink:href="#DejaVuSans-46"/>
       <use x="95.410156" xlink:href="#DejaVuSans-48"/>
      </g>
     </g>
    </g>
    <g id="ytick_2">
     <g id="line2d_48">
      <path clip-path="url(#p33acd77525)" d="M 52.875 193.84173 
L 398.5 193.84173 
" style="fill:none;stroke:#b0b0b0;stroke-dasharray:3.7,1.6;stroke-dashoffset:0;"/>
     </g>
     <g id="line2d_49">
      <g>
       <use style="stroke:#000000;stroke-width:0.8;" x="52.875" xlink:href="#md4d4a09083" y="193.84173"/>
      </g>
     </g>
     <g id="text_7">
      <!-- 0.2 -->
      <g transform="translate(29.971875 197.640949)scale(0.1 -0.1)">
       <use xlink:href="#DejaVuSans-48"/>
       <use x="63.623047" xlink:href="#DejaVuSans-46"/>
       <use x="95.410156" xlink:href="#DejaVuSans-50"/>
      </g>
     </g>
    </g>
    <g id="ytick_3">
     <g id="line2d_50">
      <path clip-path="url(#p33acd77525)" d="M 52.875 156.114252 
L 398.5 156.114252 
" style="fill:none;stroke:#b0b0b0;stroke-dasharray:3.7,1.6;stroke-dashoffset:0;"/>
     </g>
     <g id="line2d_51">
      <g>
       <use style="stroke:#000000;stroke-width:0.8;" x="52.875" xlink:href="#md4d4a09083" y="156.114252"/>
      </g>
     </g>
     <g id="text_8">
      <!-- 0.4 -->
      <defs>
       <path d="M 37.796875 64.3125 
L 12.890625 25.390625 
L 37.796875 25.390625 
z
M 35.203125 72.90625 
L 47.609375 72.90625 
L 47.609375 25.390625 
L 58.015625 25.390625 
L 58.015625 17.1875 
L 47.609375 17.1875 
L 47.609375 0 
L 37.796875 0 
L 37.796875 17.1875 
L 4.890625 17.1875 
L 4.890625 26.703125 
z
" id="DejaVuSans-52"/>
      </defs>
      <g transform="translate(29.971875 159.913471)scale(0.1 -0.1)">
       <use xlink:href="#DejaVuSans-48"/>
       <use x="63.623047" xlink:href="#DejaVuSans-46"/>
       <use x="95.410156" xlink:href="#DejaVuSans-52"/>
      </g>
     </g>
    </g>
    <g id="ytick_4">
     <g id="line2d_52">
      <path clip-path="url(#p33acd77525)" d="M 52.875 118.386774 
L 398.5 118.386774 
" style="fill:none;stroke:#b0b0b0;stroke-dasharray:3.7,1.6;stroke-dashoffset:0;"/>
     </g>
     <g id="line2d_53">
      <g>
       <use style="stroke:#000000;stroke-width:0.8;" x="52.875" xlink:href="#md4d4a09083" y="118.386774"/>
      </g>
     </g>
     <g id="text_9">
      <!-- 0.6 -->
      <defs>
       <path d="M 33.015625 40.375 
Q 26.375 40.375 22.484375 35.828125 
Q 18.609375 31.296875 18.609375 23.390625 
Q 18.609375 15.53125 22.484375 10.953125 
Q 26.375 6.390625 33.015625 6.390625 
Q 39.65625 6.390625 43.53125 10.953125 
Q 47.40625 15.53125 47.40625 23.390625 
Q 47.40625 31.296875 43.53125 35.828125 
Q 39.65625 40.375 33.015625 40.375 
z
M 52.59375 71.296875 
L 52.59375 62.3125 
Q 48.875 64.0625 45.09375 64.984375 
Q 41.3125 65.921875 37.59375 65.921875 
Q 27.828125 65.921875 22.671875 59.328125 
Q 17.53125 52.734375 16.796875 39.40625 
Q 19.671875 43.65625 24.015625 45.921875 
Q 28.375 48.1875 33.59375 48.1875 
Q 44.578125 48.1875 50.953125 41.515625 
Q 57.328125 34.859375 57.328125 23.390625 
Q 57.328125 12.15625 50.6875 5.359375 
Q 44.046875 -1.421875 33.015625 -1.421875 
Q 20.359375 -1.421875 13.671875 8.265625 
Q 6.984375 17.96875 6.984375 36.375 
Q 6.984375 53.65625 15.1875 63.9375 
Q 23.390625 74.21875 37.203125 74.21875 
Q 40.921875 74.21875 44.703125 73.484375 
Q 48.484375 72.75 52.59375 71.296875 
z
" id="DejaVuSans-54"/>
      </defs>
      <g transform="translate(29.971875 122.185993)scale(0.1 -0.1)">
       <use xlink:href="#DejaVuSans-48"/>
       <use x="63.623047" xlink:href="#DejaVuSans-46"/>
       <use x="95.410156" xlink:href="#DejaVuSans-54"/>
      </g>
     </g>
    </g>
    <g id="ytick_5">
     <g id="line2d_54">
      <path clip-path="url(#p33acd77525)" d="M 52.875 80.659296 
L 398.5 80.659296 
" style="fill:none;stroke:#b0b0b0;stroke-dasharray:3.7,1.6;stroke-dashoffset:0;"/>
     </g>
     <g id="line2d_55">
      <g>
       <use style="stroke:#000000;stroke-width:0.8;" x="52.875" xlink:href="#md4d4a09083" y="80.659296"/>
      </g>
     </g>
     <g id="text_10">
      <!-- 0.8 -->
      <defs>
       <path d="M 31.78125 34.625 
Q 24.75 34.625 20.71875 30.859375 
Q 16.703125 27.09375 16.703125 20.515625 
Q 16.703125 13.921875 20.71875 10.15625 
Q 24.75 6.390625 31.78125 6.390625 
Q 38.8125 6.390625 42.859375 10.171875 
Q 46.921875 13.96875 46.921875 20.515625 
Q 46.921875 27.09375 42.890625 30.859375 
Q 38.875 34.625 31.78125 34.625 
z
M 21.921875 38.8125 
Q 15.578125 40.375 12.03125 44.71875 
Q 8.5 49.078125 8.5 55.328125 
Q 8.5 64.0625 14.71875 69.140625 
Q 20.953125 74.21875 31.78125 74.21875 
Q 42.671875 74.21875 48.875 69.140625 
Q 55.078125 64.0625 55.078125 55.328125 
Q 55.078125 49.078125 51.53125 44.71875 
Q 48 40.375 41.703125 38.8125 
Q 48.828125 37.15625 52.796875 32.3125 
Q 56.78125 27.484375 56.78125 20.515625 
Q 56.78125 9.90625 50.3125 4.234375 
Q 43.84375 -1.421875 31.78125 -1.421875 
Q 19.734375 -1.421875 13.25 4.234375 
Q 6.78125 9.90625 6.78125 20.515625 
Q 6.78125 27.484375 10.78125 32.3125 
Q 14.796875 37.15625 21.921875 38.8125 
z
M 18.3125 54.390625 
Q 18.3125 48.734375 21.84375 45.5625 
Q 25.390625 42.390625 31.78125 42.390625 
Q 38.140625 42.390625 41.71875 45.5625 
Q 45.3125 48.734375 45.3125 54.390625 
Q 45.3125 60.0625 41.71875 63.234375 
Q 38.140625 66.40625 31.78125 66.40625 
Q 25.390625 66.40625 21.84375 63.234375 
Q 18.3125 60.0625 18.3125 54.390625 
z
" id="DejaVuSans-56"/>
      </defs>
      <g transform="translate(29.971875 84.458515)scale(0.1 -0.1)">
       <use xlink:href="#DejaVuSans-48"/>
       <use x="63.623047" xlink:href="#DejaVuSans-46"/>
       <use x="95.410156" xlink:href="#DejaVuSans-56"/>
      </g>
     </g>
    </g>
    <g id="ytick_6">
     <g id="line2d_56">
      <path clip-path="url(#p33acd77525)" d="M 52.875 42.931818 
L 398.5 42.931818 
" style="fill:none;stroke:#b0b0b0;stroke-dasharray:3.7,1.6;stroke-dashoffset:0;"/>
     </g>
     <g id="line2d_57">
      <g>
       <use style="stroke:#000000;stroke-width:0.8;" x="52.875" xlink:href="#md4d4a09083" y="42.931818"/>
      </g>
     </g>
     <g id="text_11">
      <!-- 1.0 -->
      <g transform="translate(29.971875 46.731037)scale(0.1 -0.1)">
       <use xlink:href="#DejaVuSans-49"/>
       <use x="63.623047" xlink:href="#DejaVuSans-46"/>
       <use x="95.410156" xlink:href="#DejaVuSans-48"/>
      </g>
     </g>
    </g>
    <g id="text_12">
     <!-- Fraction of Requests -->
     <defs>
      <path d="M 9.8125 72.90625 
L 51.703125 72.90625 
L 51.703125 64.59375 
L 19.671875 64.59375 
L 19.671875 43.109375 
L 48.578125 43.109375 
L 48.578125 34.8125 
L 19.671875 34.8125 
L 19.671875 0 
L 9.8125 0 
z
" id="DejaVuSans-70"/>
      <path d="M 41.109375 46.296875 
Q 39.59375 47.171875 37.8125 47.578125 
Q 36.03125 48 33.890625 48 
Q 26.265625 48 22.1875 43.046875 
Q 18.109375 38.09375 18.109375 28.8125 
L 18.109375 0 
L 9.078125 0 
L 9.078125 54.6875 
L 18.109375 54.6875 
L 18.109375 46.1875 
Q 20.953125 51.171875 25.484375 53.578125 
Q 30.03125 56 36.53125 56 
Q 37.453125 56 38.578125 55.875 
Q 39.703125 55.765625 41.0625 55.515625 
z
" id="DejaVuSans-114"/>
      <path d="M 48.78125 52.59375 
L 48.78125 44.1875 
Q 44.96875 46.296875 41.140625 47.34375 
Q 37.3125 48.390625 33.40625 48.390625 
Q 24.65625 48.390625 19.8125 42.84375 
Q 14.984375 37.3125 14.984375 27.296875 
Q 14.984375 17.28125 19.8125 11.734375 
Q 24.65625 6.203125 33.40625 6.203125 
Q 37.3125 6.203125 41.140625 7.25 
Q 44.96875 8.296875 48.78125 10.40625 
L 48.78125 2.09375 
Q 45.015625 0.34375 40.984375 -0.53125 
Q 36.96875 -1.421875 32.421875 -1.421875 
Q 20.0625 -1.421875 12.78125 6.34375 
Q 5.515625 14.109375 5.515625 27.296875 
Q 5.515625 40.671875 12.859375 48.328125 
Q 20.21875 56 33.015625 56 
Q 37.15625 56 41.109375 55.140625 
Q 45.0625 54.296875 48.78125 52.59375 
z
" id="DejaVuSans-99"/>
      <path d="M 18.3125 70.21875 
L 18.3125 54.6875 
L 36.8125 54.6875 
L 36.8125 47.703125 
L 18.3125 47.703125 
L 18.3125 18.015625 
Q 18.3125 11.328125 20.140625 9.421875 
Q 21.96875 7.515625 27.59375 7.515625 
L 36.8125 7.515625 
L 36.8125 0 
L 27.59375 0 
Q 17.1875 0 13.234375 3.875 
Q 9.28125 7.765625 9.28125 18.015625 
L 9.28125 47.703125 
L 2.6875 47.703125 
L 2.6875 54.6875 
L 9.28125 54.6875 
L 9.28125 70.21875 
z
" id="DejaVuSans-116"/>
      <path d="M 54.890625 33.015625 
L 54.890625 0 
L 45.90625 0 
L 45.90625 32.71875 
Q 45.90625 40.484375 42.875 44.328125 
Q 39.84375 48.1875 33.796875 48.1875 
Q 26.515625 48.1875 22.3125 43.546875 
Q 18.109375 38.921875 18.109375 30.90625 
L 18.109375 0 
L 9.078125 0 
L 9.078125 54.6875 
L 18.109375 54.6875 
L 18.109375 46.1875 
Q 21.34375 51.125 25.703125 53.5625 
Q 30.078125 56 35.796875 56 
Q 45.21875 56 50.046875 50.171875 
Q 54.890625 44.34375 54.890625 33.015625 
z
" id="DejaVuSans-110"/>
      <path d="M 37.109375 75.984375 
L 37.109375 68.5 
L 28.515625 68.5 
Q 23.6875 68.5 21.796875 66.546875 
Q 19.921875 64.59375 19.921875 59.515625 
L 19.921875 54.6875 
L 34.71875 54.6875 
L 34.71875 47.703125 
L 19.921875 47.703125 
L 19.921875 0 
L 10.890625 0 
L 10.890625 47.703125 
L 2.296875 47.703125 
L 2.296875 54.6875 
L 10.890625 54.6875 
L 10.890625 58.5 
Q 10.890625 67.625 15.140625 71.796875 
Q 19.390625 75.984375 28.609375 75.984375 
z
" id="DejaVuSans-102"/>
      <path d="M 44.390625 34.1875 
Q 47.5625 33.109375 50.5625 29.59375 
Q 53.5625 26.078125 56.59375 19.921875 
L 66.609375 0 
L 56 0 
L 46.6875 18.703125 
Q 43.0625 26.03125 39.671875 28.421875 
Q 36.28125 30.8125 30.421875 30.8125 
L 19.671875 30.8125 
L 19.671875 0 
L 9.8125 0 
L 9.8125 72.90625 
L 32.078125 72.90625 
Q 44.578125 72.90625 50.734375 67.671875 
Q 56.890625 62.453125 56.890625 51.90625 
Q 56.890625 45.015625 53.6875 40.46875 
Q 50.484375 35.9375 44.390625 34.1875 
z
M 19.671875 64.796875 
L 19.671875 38.921875 
L 32.078125 38.921875 
Q 39.203125 38.921875 42.84375 42.21875 
Q 46.484375 45.515625 46.484375 51.90625 
Q 46.484375 58.296875 42.84375 61.546875 
Q 39.203125 64.796875 32.078125 64.796875 
z
" id="DejaVuSans-82"/>
      <path d="M 14.796875 27.296875 
Q 14.796875 17.390625 18.875 11.75 
Q 22.953125 6.109375 30.078125 6.109375 
Q 37.203125 6.109375 41.296875 11.75 
Q 45.40625 17.390625 45.40625 27.296875 
Q 45.40625 37.203125 41.296875 42.84375 
Q 37.203125 48.484375 30.078125 48.484375 
Q 22.953125 48.484375 18.875 42.84375 
Q 14.796875 37.203125 14.796875 27.296875 
z
M 45.40625 8.203125 
Q 42.578125 3.328125 38.25 0.953125 
Q 33.9375 -1.421875 27.875 -1.421875 
Q 17.96875 -1.421875 11.734375 6.484375 
Q 5.515625 14.40625 5.515625 27.296875 
Q 5.515625 40.1875 11.734375 48.09375 
Q 17.96875 56 27.875 56 
Q 33.9375 56 38.25 53.625 
Q 42.578125 51.265625 45.40625 46.390625 
L 45.40625 54.6875 
L 54.390625 54.6875 
L 54.390625 -20.796875 
L 45.40625 -20.796875 
z
" id="DejaVuSans-113"/>
      <path d="M 8.5 21.578125 
L 8.5 54.6875 
L 17.484375 54.6875 
L 17.484375 21.921875 
Q 17.484375 14.15625 20.5 10.265625 
Q 23.53125 6.390625 29.59375 6.390625 
Q 36.859375 6.390625 41.078125 11.03125 
Q 45.3125 15.671875 45.3125 23.6875 
L 45.3125 54.6875 
L 54.296875 54.6875 
L 54.296875 0 
L 45.3125 0 
L 45.3125 8.40625 
Q 42.046875 3.421875 37.71875 1 
Q 33.40625 -1.421875 27.6875 -1.421875 
Q 18.265625 -1.421875 13.375 4.4375 
Q 8.5 10.296875 8.5 21.578125 
z
M 31.109375 56 
z
" id="DejaVuSans-117"/>
     </defs>
     <g transform="translate(23.892187 188.700781)rotate(-90)scale(0.1 -0.1)">
      <use xlink:href="#DejaVuSans-70"/>
      <use x="57.410156" xlink:href="#DejaVuSans-114"/>
      <use x="98.523438" xlink:href="#DejaVuSans-97"/>
      <use x="159.802734" xlink:href="#DejaVuSans-99"/>
      <use x="214.783203" xlink:href="#DejaVuSans-116"/>
      <use x="253.992188" xlink:href="#DejaVuSans-105"/>
      <use x="281.775391" xlink:href="#DejaVuSans-111"/>
      <use x="342.957031" xlink:href="#DejaVuSans-110"/>
      <use x="406.335938" xlink:href="#DejaVuSans-32"/>
      <use x="438.123047" xlink:href="#DejaVuSans-111"/>
      <use x="499.304688" xlink:href="#DejaVuSans-102"/>
      <use x="534.509766" xlink:href="#DejaVuSans-32"/>
      <use x="566.296875" xlink:href="#DejaVuSans-82"/>
      <use x="635.716797" xlink:href="#DejaVuSans-101"/>
      <use x="697.240234" xlink:href="#DejaVuSans-113"/>
      <use x="760.716797" xlink:href="#DejaVuSans-117"/>
      <use x="824.095703" xlink:href="#DejaVuSans-101"/>
      <use x="885.619141" xlink:href="#DejaVuSans-115"/>
      <use x="937.71875" xlink:href="#DejaVuSans-116"/>
      <use x="976.927734" xlink:href="#DejaVuSans-115"/>
     </g>
    </g>
   </g>
   <g id="line2d_58">
    <path clip-path="url(#p33acd77525)" d="M 73.958345 231.568152 
L 80.446257 231.455198 
L 81.023338 231.370747 
L 82.0331 231.17123 
L 82.355412 231.073055 
L 83.7742 230.432279 
L 84.248551 229.978351 
L 85.130178 228.963877 
L 86.112388 227.61054 
L 87.071655 225.8265 
L 87.324544 225.237451 
L 88.351024 222.319648 
L 88.826759 220.755183 
L 89.546454 218.043231 
L 89.786025 216.989698 
L 90.173987 215.203547 
L 90.436164 213.89138 
L 90.821179 211.766368 
L 91.118103 210.204013 
L 91.408049 208.568819 
L 93.567904 193.215522 
L 94.052486 189.080561 
L 98.121505 151.961979 
L 99.565535 139.394528 
L 101.218874 126.357315 
L 101.891372 121.457011 
L 102.390204 118.029333 
L 103.768123 109.54406 
L 103.846732 109.059519 
L 104.350278 106.257838 
L 104.755388 104.070542 
L 106.476968 95.979024 
L 106.671864 95.152455 
L 108.38736 88.453333 
L 108.563633 87.852671 
L 108.892645 86.722075 
L 109.744435 84.02807 
L 110.438941 81.992787 
L 110.732947 81.147215 
L 111.231043 79.82977 
L 111.293999 79.68198 
L 112.007255 77.85677 
L 112.179692 77.440846 
L 112.719586 76.245856 
L 112.994362 75.662085 
L 113.255499 75.114205 
L 113.733538 74.113454 
L 116.423504 69.297602 
L 116.533369 69.119198 
L 116.844424 68.629379 
L 117.322855 67.896762 
L 117.646739 67.400609 
L 117.92983 66.962516 
L 118.078393 66.757721 
L 118.859809 65.70841 
L 118.96007 65.57751 
L 119.102235 65.373771 
L 119.403777 64.975793 
L 119.566776 64.759385 
L 120.164569 63.969763 
L 120.301735 63.815639 
L 122.676 61.270479 
L 122.808448 61.133246 
L 122.996757 60.964342 
L 123.774653 60.178943 
L 124.147873 59.811578 
L 124.712205 59.268977 
L 125.142529 58.858331 
L 125.286347 58.71793 
L 125.504096 58.532137 
L 125.882181 58.211221 
L 126.139666 57.974756 
L 126.555257 57.59578 
L 126.821364 57.387818 
L 127.035465 57.198858 
L 128.35917 56.141101 
L 128.666242 55.887747 
L 128.924777 55.710398 
L 129.209722 55.487657 
L 134.783785 51.477263 
L 135.112626 51.307304 
L 138.463169 49.453592 
L 138.866734 49.298412 
L 139.112692 49.208682 
L 141.873343 48.221654 
L 142.375479 48.061196 
L 142.957935 47.866958 
L 145.533649 47.157564 
L 146.201337 46.996051 
L 146.856844 46.841926 
L 147.470163 46.697303 
L 148.036869 46.575904 
L 148.9199 46.382721 
L 149.233128 46.306715 
L 151.989197 45.781003 
L 152.232326 45.729277 
L 153.053986 45.589932 
L 154.198778 45.416806 
L 154.419108 45.383025 
L 156.970992 45.048386 
L 158.311522 44.910097 
L 158.588819 44.873149 
L 161.034933 44.619794 
L 163.309722 44.423444 
L 168.964592 44.049746 
L 176.123272 43.72144 
L 176.700193 43.700328 
L 186.277925 43.423749 
L 190.019295 43.291793 
L 247.908604 42.999379 
L 307.118055 42.931818 
L 307.118055 42.931818 
" style="fill:none;stroke:#00aff0;stroke-dasharray:7.4,3.2;stroke-dashoffset:0;stroke-width:2;"/>
   </g>
   <g id="line2d_59">
    <path clip-path="url(#p33acd77525)" d="M 68.585227 231.568138 
L 77.208886 231.419401 
L 78.318753 231.351987 
L 80.172297 231.19041 
L 80.862034 231.060933 
L 81.408512 230.926107 
L 81.917234 230.770949 
L 82.486899 230.611511 
L 82.787945 230.480965 
L 83.492984 230.236993 
L 83.834547 230.110727 
L 84.302647 229.906347 
L 85.172341 229.443014 
L 86.357329 228.591252 
L 86.650935 228.355841 
L 90.896767 223.687202 
L 93.26714 220.066145 
L 93.666199 219.34065 
L 93.999888 218.72216 
L 94.474327 217.762323 
L 94.97757 216.726512 
L 95.122777 216.470769 
L 95.550799 215.623288 
L 95.942874 214.891372 
L 97.594505 211.897366 
L 97.779536 211.508937 
L 98.346378 210.312618 
L 98.537935 209.914559 
L 98.805695 209.408424 
L 99.961147 207.062869 
L 100.535962 205.763825 
L 101.868957 202.033623 
L 102.352337 200.55053 
L 102.669724 199.51151 
L 106.264079 186.819619 
L 106.649647 185.365417 
L 109.061122 176.518225 
L 109.592088 174.641353 
L 109.865816 173.689006 
L 110.207366 172.519439 
L 110.572675 171.223605 
L 115.203568 155.58372 
L 116.938613 150.758854 
L 117.439894 149.45446 
L 117.832413 148.42079 
L 118.434238 146.868144 
L 118.617565 146.38662 
L 118.712733 146.164049 
L 118.979317 145.510247 
L 119.434162 144.379202 
L 120.086469 142.636087 
L 120.419914 141.752223 
L 121.120383 139.84539 
L 121.557997 138.501404 
L 121.629195 138.244592 
L 122.650137 134.422365 
L 122.791276 133.928001 
L 123.289104 132.251229 
L 123.498297 131.619898 
L 123.851294 130.551985 
L 124.604977 128.307016 
L 126.898962 120.383278 
L 127.227146 119.169838 
L 127.562585 117.881495 
L 128.099158 115.752091 
L 129.121648 111.601358 
L 129.409165 110.40718 
L 129.471161 110.169628 
L 129.649463 109.486935 
L 130.004638 108.000632 
L 130.148421 107.390702 
L 130.369802 106.451196 
L 131.661685 100.960758 
L 132.094084 99.141669 
L 132.274562 98.403332 
L 133.076813 94.985585 
L 133.175287 94.605717 
L 133.432729 93.616988 
L 137.271655 80.878015 
L 137.37193 80.630833 
L 137.735964 79.670996 
L 138.74628 77.064348 
L 138.860349 76.797905 
L 139.027023 76.410546 
L 139.608635 75.000217 
L 139.744704 74.702743 
L 139.99977 74.120634 
L 144.530366 64.951356 
L 144.860423 64.386368 
L 145.082209 63.999009 
L 145.568527 63.237132 
L 146.199627 62.307256 
L 146.686999 61.519698 
L 146.879481 61.223293 
L 147.933876 59.699539 
L 148.085417 59.494089 
L 150.372367 56.649889 
L 150.520082 56.479751 
L 150.963821 56.03889 
L 151.100834 55.907273 
L 151.526797 55.484602 
L 151.742844 55.288783 
L 151.878165 55.149676 
L 152.063254 54.979538 
L 152.243043 54.791208 
L 152.531833 54.523695 
L 153.625092 53.578839 
L 153.802185 53.440802 
L 153.939658 53.314536 
L 154.134691 53.148678 
L 154.427141 52.885445 
L 154.644653 52.706746 
L 154.878601 52.537678 
L 155.098465 52.36326 
L 155.365755 52.139619 
L 156.674312 51.204393 
L 156.879027 51.052446 
L 157.249692 50.808474 
L 157.390324 50.718589 
L 157.649164 50.575202 
L 157.843806 50.457496 
L 158.6166 50.034826 
L 158.813366 49.903209 
L 159.34253 49.627136 
L 159.529924 49.50943 
L 159.906721 49.30826 
L 160.279336 49.10602 
L 160.64063 48.936952 
L 160.935274 48.807476 
L 161.506618 48.567784 
L 162.040133 48.367684 
L 162.19823 48.299201 
L 163.32205 47.856199 
L 163.918126 47.66145 
L 164.232492 47.571565 
L 164.780809 47.381096 
L 164.916255 47.347924 
L 165.979645 47.041889 
L 166.922842 46.801128 
L 167.753061 46.64062 
L 168.606711 46.467271 
L 169.932913 46.24042 
L 173.530384 45.593038 
L 179.961892 44.655673 
L 180.40787 44.582909 
L 181.871012 44.353918 
L 182.308832 44.276874 
L 183.326859 44.146328 
L 184.89631 43.960138 
L 187.718843 43.757899 
L 187.87393 43.745058 
L 190.931262 43.566359 
L 205.364088 43.16509 
L 247.207766 42.948939 
L 310.772711 42.931818 
L 310.772711 42.931818 
" style="fill:none;stroke:#800000;stroke-dasharray:7.4,3.2;stroke-dashoffset:0;stroke-width:2;"/>
   </g>
   <g id="line2d_60">
    <path clip-path="url(#p33acd77525)" d="M 118.535777 231.568182 
L 124.533301 231.446051 
L 124.731664 231.308526 
L 125.145731 231.061186 
L 127.159353 229.898379 
L 127.626595 229.73417 
L 128.134333 229.517619 
L 128.44346 229.332884 
L 128.614295 229.225122 
L 129.249422 228.803309 
L 129.421855 228.689389 
L 129.772458 228.471812 
L 131.022629 227.414715 
L 131.271709 227.121191 
L 131.497757 226.81022 
L 131.669597 226.588537 
L 132.375414 225.2841 
L 133.192932 223.050855 
L 133.497718 221.952706 
L 133.599946 221.570919 
L 133.999626 219.913433 
L 134.598217 216.941246 
L 136.099904 205.979254 
L 136.451627 202.771017 
L 136.678401 200.641429 
L 137.558313 191.680737 
L 138.061233 186.958696 
L 138.248174 185.268367 
L 139.630485 172.031051 
L 141.383331 159.075971 
L 141.487813 158.386292 
L 141.687002 157.080829 
L 142.106998 154.494533 
L 142.394643 152.787784 
L 142.876827 150.008543 
L 143.05294 149.05613 
L 143.743695 145.543079 
L 143.977526 144.452114 
L 144.03231 144.227352 
L 144.35553 142.800785 
L 144.482692 142.239394 
L 144.719495 141.241823 
L 144.890672 140.571645 
L 145.233951 139.239497 
L 145.304296 138.991131 
L 145.483011 138.363031 
L 146.830834 134.018671 
L 146.932242 133.723094 
L 147.135805 133.164783 
L 147.255364 132.843548 
L 147.514603 132.117949 
L 147.625447 131.802872 
L 148.053059 130.62775 
L 148.15004 130.328068 
L 148.324704 129.843651 
L 148.473696 129.47418 
L 148.633168 129.105736 
L 148.855164 128.638766 
L 149.051357 128.206691 
L 149.238598 127.781799 
L 149.399151 127.457486 
L 149.67096 126.916622 
L 149.894649 126.478389 
L 149.997154 126.276206 
L 150.376143 125.581396 
L 150.738202 124.909164 
L 150.832208 124.773692 
L 150.986819 124.532509 
L 151.302003 123.986514 
L 152.216601 122.518894 
L 152.370673 122.278738 
L 152.465191 122.110423 
L 153.873714 120.266149 
L 154.003439 120.099887 
L 154.200799 119.855626 
L 154.722374 119.263446 
L 155.372914 118.620978 
L 155.497633 118.514242 
L 156.678068 117.438671 
L 156.867203 117.266252 
L 157.178846 117.018911 
L 157.613265 116.65252 
L 158.325233 116.124997 
L 159.270755 115.455845 
L 159.537398 115.283425 
L 159.893073 115.060716 
L 160.149758 114.912928 
L 160.272026 114.853402 
L 160.657314 114.663535 
L 160.791598 114.591694 
L 161.20767 114.401827 
L 161.781426 114.10625 
L 162.10623 113.946146 
L 162.442688 113.788095 
L 163.010408 113.552044 
L 163.385674 113.407335 
L 163.634898 113.308809 
L 163.954434 113.168205 
L 164.099773 113.108679 
L 164.457661 112.962944 
L 164.616165 112.88905 
L 164.928497 112.741261 
L 165.428534 112.511368 
L 166.233955 112.075188 
L 166.544258 111.910978 
L 169.838724 110.58191 
L 171.453076 110.168308 
L 171.638797 110.109809 
L 175.548041 109.22 
L 176.44686 109.072212 
L 177.013854 108.978818 
L 178.306115 108.796135 
L 178.727453 108.749951 
L 180.160283 108.593952 
L 181.49891 108.434875 
L 182.13304 108.35277 
L 188.724698 107.783169 
L 191.516893 107.597408 
L 199.695509 107.087333 
L 227.636693 106.753783 
L 239.354307 106.615231 
L 240.282197 105.761343 
L 240.865416 104.36146 
L 241.060803 103.515782 
L 241.139288 103.106286 
L 241.683057 99.774891 
L 241.820918 98.667505 
L 241.875043 98.160509 
L 242.086201 96.086342 
L 242.175767 95.236559 
L 244.521177 71.858298 
L 244.584316 71.402617 
L 244.691545 70.571308 
L 244.856027 69.369502 
L 245.131753 67.50778 
L 245.164339 67.277887 
L 245.322284 66.206422 
L 245.652062 64.168175 
L 245.79519 63.422049 
L 245.86446 63.015632 
L 246.182758 61.40946 
L 246.353016 60.56173 
L 247.230933 56.642261 
L 247.35153 56.136292 
L 247.503553 55.575928 
L 247.633973 55.101774 
L 248.149867 53.448392 
L 248.216417 53.286236 
L 248.33945 52.974238 
L 248.581619 52.417979 
L 248.946539 51.513802 
L 249.218435 50.869281 
L 249.465381 50.382811 
L 249.727445 49.935341 
L 249.942958 49.608975 
L 250.210214 49.28261 
L 250.323511 49.130716 
L 250.451569 48.979849 
L 251.659056 47.744175 
L 252.058983 47.446545 
L 252.567023 47.106838 
L 252.896957 46.909786 
L 253.728327 46.517737 
L 254.221081 46.321712 
L 255.550709 45.815743 
L 255.931388 45.698743 
L 256.451894 45.522219 
L 256.750508 45.43293 
L 259.932529 44.764804 
L 260.780003 44.63241 
L 261.40132 44.539016 
L 263.129573 44.335807 
L 265.262327 44.097704 
L 266.681082 43.951968 
L 267.126821 43.917073 
L 269.888143 43.714891 
L 270.278424 43.679996 
L 284.038945 43.281789 
L 345.193106 42.983134 
L 382.789773 42.931818 
L 382.789773 42.931818 
" style="fill:none;stroke:#ff5500;stroke-dasharray:7.4,3.2;stroke-dashoffset:0;stroke-width:2;"/>
   </g>
   <g id="line2d_61">
    <path clip-path="url(#p33acd77525)" d="M 245.218981 231.568126 
L 261.376002 231.369042 
L 261.495118 231.318189 
L 261.731787 231.160221 
L 261.854452 231.07258 
L 262.125228 230.806414 
L 262.786115 228.584032 
L 263.087408 226.650538 
L 263.113149 226.459028 
L 264.348226 212.599976 
L 264.531753 209.507684 
L 265.323585 194.893412 
L 265.387164 193.787631 
L 265.887052 185.22486 
L 265.965512 184.005472 
L 266.117846 181.638104 
L 266.422956 177.272325 
L 266.657818 174.12377 
L 266.814112 172.053947 
L 266.950276 170.152912 
L 267.238441 166.058709 
L 267.256242 165.844477 
L 267.379773 164.103575 
L 268.776314 149.085725 
L 269.075463 147.256101 
L 269.342246 145.986942 
L 270.480097 142.36448 
L 270.593389 142.163233 
L 270.732074 141.928443 
L 271.293353 141.296569 
L 271.674486 140.990369 
L 271.819414 140.892991 
L 272.131143 140.666858 
L 272.371928 140.506725 
L 272.581551 140.354166 
L 272.763148 140.210263 
L 273.285698 139.835899 
L 273.502366 139.645471 
L 273.760508 139.440977 
L 275.587903 138.14585 
L 276.020484 137.926208 
L 276.466143 137.715223 
L 279.25645 137.257546 
L 311.666988 136.897247 
L 316.731708 136.78364 
L 316.833262 136.617015 
L 316.968796 136.319471 
L 317.706628 135.760089 
L 318.782782 135.60753 
L 319.525126 135.330544 
L 323.142211 135.247232 
L 329.121744 135.121722 
L 329.686144 134.661882 
L 329.899479 134.243156 
L 330.063781 133.841743 
L 330.203809 133.403542 
L 330.287538 133.091932 
L 330.712136 131.365096 
L 330.749784 131.211455 
L 330.893991 130.572006 
L 331.022071 129.962853 
L 331.138075 129.443504 
L 331.814445 124.963034 
L 331.993136 122.568618 
L 332.061196 121.389262 
L 332.180366 118.79468 
L 332.239166 117.180369 
L 332.375565 113.098068 
L 332.422304 111.543266 
L 333.178382 85.385374 
L 333.207654 84.586875 
L 334.011967 66.879229 
L 334.220923 62.68873 
L 334.335163 60.444708 
L 334.389191 59.474174 
L 334.538532 56.834149 
L 334.582529 56.088666 
L 334.896407 51.627672 
L 335.022684 50.283856 
L 335.071897 49.761261 
L 335.238908 48.251902 
L 335.637495 45.951618 
L 335.748286 45.523155 
L 335.860235 45.075216 
L 335.962774 44.741967 
L 336.093287 44.429275 
L 336.327562 44.041927 
L 336.443715 43.896942 
L 336.846978 43.614546 
L 341.323529 43.120082 
L 343.337173 43.062737 
L 353.486612 42.963196 
L 380.257616 42.931818 
L 380.257616 42.931818 
" style="fill:none;stroke:#58b792;stroke-dasharray:7.4,3.2;stroke-dashoffset:0;stroke-width:2;"/>
   </g>
   <g id="line2d_62">
    <path clip-path="url(#p33acd77525)" d="M 76.588911 231.568152 
L 84.362052 231.453078 
L 88.408469 231.183868 
L 89.509445 230.991725 
L 90.033014 230.874539 
L 90.660547 230.615886 
L 94.546113 228.659623 
L 94.934279 228.407304 
L 95.21663 228.217273 
L 95.500498 227.938561 
L 96.379497 226.925063 
L 96.608813 226.671688 
L 97.294851 225.895729 
L 98.250188 225.21584 
L 98.640359 224.922348 
L 98.931788 224.682698 
L 99.317618 224.386038 
L 99.995034 223.843394 
L 100.254826 223.642806 
L 100.475916 223.456998 
L 100.808151 223.117054 
L 101.456432 222.290419 
L 101.631084 222.118336 
L 102.779013 221.144955 
L 102.968642 220.965481 
L 103.301774 220.695215 
L 103.658976 220.385887 
L 106.54949 218.241704 
L 106.945584 217.957713 
L 108.01868 217.213426 
L 108.318706 217.028673 
L 109.061122 216.575766 
L 109.98676 216.078518 
L 110.791932 215.701624 
L 111.172826 215.535875 
L 111.886257 215.200153 
L 112.24795 215.034404 
L 112.897639 214.599444 
L 113.301104 214.36085 
L 113.546306 214.208825 
L 113.782991 214.039909 
L 114.373025 213.635565 
L 114.800672 213.383246 
L 115.255204 213.097144 
L 116.323692 212.448927 
L 116.487808 212.332797 
L 116.948834 212.019246 
L 117.176995 211.867221 
L 117.594646 211.590621 
L 117.842367 211.434373 
L 118.658384 210.876949 
L 118.857878 210.705921 
L 119.058113 210.537005 
L 119.768479 209.92046 
L 120.04735 209.637525 
L 120.416227 209.226847 
L 120.556041 209.087491 
L 120.964772 208.601856 
L 121.158271 208.363262 
L 121.357833 208.119389 
L 121.550868 207.877627 
L 123.195897 205.757726 
L 123.407357 205.461067 
L 123.962611 204.590092 
L 124.136324 204.281819 
L 124.559383 203.561813 
L 124.935308 202.895649 
L 125.027028 202.706674 
L 125.316631 202.136581 
L 125.86181 201.004841 
L 125.949474 200.813755 
L 126.850294 198.73925 
L 127.126159 198.06464 
L 127.332331 197.587451 
L 127.590884 196.976185 
L 127.723124 196.674247 
L 129.908902 190.115012 
L 130.646869 187.268771 
L 130.804173 186.620554 
L 131.222308 184.954616 
L 131.475221 183.835545 
L 131.649814 183.134542 
L 131.873339 182.149548 
L 132.700467 178.357375 
L 132.950141 177.218245 
L 138.345578 149.726045 
L 138.593224 148.391605 
L 138.626463 148.203686 
L 138.760159 147.465732 
L 139.065125 145.743841 
L 140.045005 140.289953 
L 140.60737 137.049925 
L 140.938122 135.190789 
L 142.313122 127.343566 
L 142.5447 125.887718 
L 143.025689 123.026697 
L 143.394051 120.863511 
L 143.700419 119.095167 
L 143.859439 118.151347 
L 144.147064 116.530805 
L 145.701603 108.158886 
L 145.815126 107.590905 
L 146.353224 104.992759 
L 146.405968 104.752053 
L 146.854328 102.65749 
L 147.040851 101.806574 
L 147.841156 98.337453 
L 148.011758 97.567828 
L 149.151766 92.663974 
L 149.431792 91.533289 
L 151.428132 83.854983 
L 151.466901 83.715627 
L 151.985598 81.953618 
L 152.066845 81.702355 
L 152.324383 80.845104 
L 152.447445 80.465042 
L 152.671776 79.799934 
L 152.80903 79.394535 
L 153.021894 78.791714 
L 153.998694 76.190402 
L 154.19406 75.681541 
L 154.383603 75.196962 
L 154.635341 74.595197 
L 155.179727 73.233309 
L 155.263404 73.062281 
L 155.565643 72.362334 
L 155.771423 71.909427 
L 156.20845 70.979331 
L 156.485972 70.439854 
L 156.641115 70.102021 
L 156.833573 69.695566 
L 156.916962 69.521371 
L 157.45828 68.383297 
L 157.710528 67.910331 
L 161.866275 60.904523 
L 162.081193 60.594139 
L 162.476412 60.054663 
L 162.633521 59.851963 
L 163.344127 58.979932 
L 163.484972 58.797291 
L 163.713164 58.506966 
L 163.875718 58.302155 
L 164.181469 57.954821 
L 164.340781 57.763734 
L 164.494878 57.577926 
L 164.745385 57.303437 
L 164.953457 57.065898 
L 165.212717 56.770294 
L 165.971577 55.963718 
L 166.119801 55.809582 
L 166.596008 55.316558 
L 166.738723 55.176146 
L 166.923764 55.020954 
L 167.076119 54.843592 
L 167.275754 54.653561 
L 167.475117 54.498369 
L 167.66473 54.337898 
L 168.833666 53.394078 
L 169.050006 53.212493 
L 169.862402 52.587502 
L 170.146497 52.40275 
L 170.326647 52.265505 
L 170.494639 52.133539 
L 170.791139 51.972013 
L 171.336375 51.651072 
L 176.446165 49.107824 
L 176.818245 48.952632 
L 176.950945 48.901957 
L 178.828893 48.195676 
L 180.581852 47.599189 
L 181.115384 47.419716 
L 181.347946 47.359539 
L 181.917679 47.20857 
L 182.96205 46.911911 
L 184.120064 46.621586 
L 184.234029 46.592025 
L 184.687962 46.495954 
L 186.168102 46.19296 
L 186.275851 46.171846 
L 187.590218 45.95331 
L 188.320307 45.831902 
L 189.896178 45.595419 
L 190.621592 45.490902 
L 195.684669 44.77723 
L 196.6827 44.671657 
L 198.302791 44.494295 
L 210.325653 43.76901 
L 239.248585 43.337218 
L 258.048993 43.170413 
L 258.620914 43.154577 
L 262.862705 43.045837 
L 282.042185 42.94132 
L 330.393678 42.931818 
L 330.393678 42.931818 
" style="fill:none;stroke:#c70d2c;stroke-dasharray:7.4,3.2;stroke-dashoffset:0;stroke-width:2;"/>
   </g>
   <g id="patch_3">
    <path d="M 52.875 241 
L 52.875 33.5 
" style="fill:none;stroke:#000000;stroke-linecap:square;stroke-linejoin:miter;stroke-width:0.8;"/>
   </g>
   <g id="patch_4">
    <path d="M 398.5 241 
L 398.5 33.5 
" style="fill:none;stroke:#000000;stroke-linecap:square;stroke-linejoin:miter;stroke-width:0.8;"/>
   </g>
   <g id="patch_5">
    <path d="M 52.875 241 
L 398.5 241 
" style="fill:none;stroke:#000000;stroke-linecap:square;stroke-linejoin:miter;stroke-width:0.8;"/>
   </g>
   <g id="patch_6">
    <path d="M 52.875 33.5 
L 398.5 33.5 
" style="fill:none;stroke:#000000;stroke-linecap:square;stroke-linejoin:miter;stroke-width:0.8;"/>
   </g>
   <g id="text_13">
    <!-- Decision Time: Not Blocked Requests (CDF) -->
    <defs>
     <path d="M 19.671875 64.796875 
L 19.671875 8.109375 
L 31.59375 8.109375 
Q 46.6875 8.109375 53.6875 14.9375 
Q 60.6875 21.78125 60.6875 36.53125 
Q 60.6875 51.171875 53.6875 57.984375 
Q 46.6875 64.796875 31.59375 64.796875 
z
M 9.8125 72.90625 
L 30.078125 72.90625 
Q 51.265625 72.90625 61.171875 64.09375 
Q 71.09375 55.28125 71.09375 36.53125 
Q 71.09375 17.671875 61.125 8.828125 
Q 51.171875 0 30.078125 0 
L 9.8125 0 
z
" id="DejaVuSans-68"/>
     <path d="M 11.71875 12.40625 
L 22.015625 12.40625 
L 22.015625 0 
L 11.71875 0 
z
M 11.71875 51.703125 
L 22.015625 51.703125 
L 22.015625 39.3125 
L 11.71875 39.3125 
z
" id="DejaVuSans-58"/>
     <path d="M 9.8125 72.90625 
L 23.09375 72.90625 
L 55.421875 11.921875 
L 55.421875 72.90625 
L 64.984375 72.90625 
L 64.984375 0 
L 51.703125 0 
L 19.390625 60.984375 
L 19.390625 0 
L 9.8125 0 
z
" id="DejaVuSans-78"/>
     <path d="M 19.671875 34.8125 
L 19.671875 8.109375 
L 35.5 8.109375 
Q 43.453125 8.109375 47.28125 11.40625 
Q 51.125 14.703125 51.125 21.484375 
Q 51.125 28.328125 47.28125 31.5625 
Q 43.453125 34.8125 35.5 34.8125 
z
M 19.671875 64.796875 
L 19.671875 42.828125 
L 34.28125 42.828125 
Q 41.5 42.828125 45.03125 45.53125 
Q 48.578125 48.25 48.578125 53.8125 
Q 48.578125 59.328125 45.03125 62.0625 
Q 41.5 64.796875 34.28125 64.796875 
z
M 9.8125 72.90625 
L 35.015625 72.90625 
Q 46.296875 72.90625 52.390625 68.21875 
Q 58.5 63.53125 58.5 54.890625 
Q 58.5 48.1875 55.375 44.234375 
Q 52.25 40.28125 46.1875 39.3125 
Q 53.46875 37.75 57.5 32.78125 
Q 61.53125 27.828125 61.53125 20.40625 
Q 61.53125 10.640625 54.890625 5.3125 
Q 48.25 0 35.984375 0 
L 9.8125 0 
z
" id="DejaVuSans-66"/>
     <path d="M 9.078125 75.984375 
L 18.109375 75.984375 
L 18.109375 31.109375 
L 44.921875 54.6875 
L 56.390625 54.6875 
L 27.390625 29.109375 
L 57.625 0 
L 45.90625 0 
L 18.109375 26.703125 
L 18.109375 0 
L 9.078125 0 
z
" id="DejaVuSans-107"/>
     <path d="M 45.40625 46.390625 
L 45.40625 75.984375 
L 54.390625 75.984375 
L 54.390625 0 
L 45.40625 0 
L 45.40625 8.203125 
Q 42.578125 3.328125 38.25 0.953125 
Q 33.9375 -1.421875 27.875 -1.421875 
Q 17.96875 -1.421875 11.734375 6.484375 
Q 5.515625 14.40625 5.515625 27.296875 
Q 5.515625 40.1875 11.734375 48.09375 
Q 17.96875 56 27.875 56 
Q 33.9375 56 38.25 53.625 
Q 42.578125 51.265625 45.40625 46.390625 
z
M 14.796875 27.296875 
Q 14.796875 17.390625 18.875 11.75 
Q 22.953125 6.109375 30.078125 6.109375 
Q 37.203125 6.109375 41.296875 11.75 
Q 45.40625 17.390625 45.40625 27.296875 
Q 45.40625 37.203125 41.296875 42.84375 
Q 37.203125 48.484375 30.078125 48.484375 
Q 22.953125 48.484375 18.875 42.84375 
Q 14.796875 37.203125 14.796875 27.296875 
z
" id="DejaVuSans-100"/>
     <path d="M 64.40625 67.28125 
L 64.40625 56.890625 
Q 59.421875 61.53125 53.78125 63.8125 
Q 48.140625 66.109375 41.796875 66.109375 
Q 29.296875 66.109375 22.65625 58.46875 
Q 16.015625 50.828125 16.015625 36.375 
Q 16.015625 21.96875 22.65625 14.328125 
Q 29.296875 6.6875 41.796875 6.6875 
Q 48.140625 6.6875 53.78125 8.984375 
Q 59.421875 11.28125 64.40625 15.921875 
L 64.40625 5.609375 
Q 59.234375 2.09375 53.4375 0.328125 
Q 47.65625 -1.421875 41.21875 -1.421875 
Q 24.65625 -1.421875 15.125 8.703125 
Q 5.609375 18.84375 5.609375 36.375 
Q 5.609375 53.953125 15.125 64.078125 
Q 24.65625 74.21875 41.21875 74.21875 
Q 47.75 74.21875 53.53125 72.484375 
Q 59.328125 70.75 64.40625 67.28125 
z
" id="DejaVuSans-67"/>
    </defs>
    <g transform="translate(94.777813 27.5)scale(0.12 -0.12)">
     <use xlink:href="#DejaVuSans-68"/>
     <use x="77.001953" xlink:href="#DejaVuSans-101"/>
     <use x="138.525391" xlink:href="#DejaVuSans-99"/>
     <use x="193.505859" xlink:href="#DejaVuSans-105"/>
     <use x="221.289062" xlink:href="#DejaVuSans-115"/>
     <use x="273.388672" xlink:href="#DejaVuSans-105"/>
     <use x="301.171875" xlink:href="#DejaVuSans-111"/>
     <use x="362.353516" xlink:href="#DejaVuSans-110"/>
     <use x="425.732422" xlink:href="#DejaVuSans-32"/>
     <use x="457.519531" xlink:href="#DejaVuSans-84"/>
     <use x="518.556641" xlink:href="#DejaVuSans-105"/>
     <use x="546.339844" xlink:href="#DejaVuSans-109"/>
     <use x="643.751953" xlink:href="#DejaVuSans-101"/>
     <use x="705.275391" xlink:href="#DejaVuSans-58"/>
     <use x="738.966797" xlink:href="#DejaVuSans-32"/>
     <use x="770.753906" xlink:href="#DejaVuSans-78"/>
     <use x="845.558594" xlink:href="#DejaVuSans-111"/>
     <use x="906.740234" xlink:href="#DejaVuSans-116"/>
     <use x="945.949219" xlink:href="#DejaVuSans-32"/>
     <use x="977.736328" xlink:href="#DejaVuSans-66"/>
     <use x="1046.339844" xlink:href="#DejaVuSans-108"/>
     <use x="1074.123047" xlink:href="#DejaVuSans-111"/>
     <use x="1135.304688" xlink:href="#DejaVuSans-99"/>
     <use x="1190.285156" xlink:href="#DejaVuSans-107"/>
     <use x="1248.148438" xlink:href="#DejaVuSans-101"/>
     <use x="1309.671875" xlink:href="#DejaVuSans-100"/>
     <use x="1373.148438" xlink:href="#DejaVuSans-32"/>
     <use x="1404.935547" xlink:href="#DejaVuSans-82"/>
     <use x="1474.355469" xlink:href="#DejaVuSans-101"/>
     <use x="1535.878906" xlink:href="#DejaVuSans-113"/>
     <use x="1599.355469" xlink:href="#DejaVuSans-117"/>
     <use x="1662.734375" xlink:href="#DejaVuSans-101"/>
     <use x="1724.257812" xlink:href="#DejaVuSans-115"/>
     <use x="1776.357422" xlink:href="#DejaVuSans-116"/>
     <use x="1815.566406" xlink:href="#DejaVuSans-115"/>
     <use x="1867.666016" xlink:href="#DejaVuSans-32"/>
     <use x="1899.453125" xlink:href="#DejaVuSans-40"/>
     <use x="1938.466797" xlink:href="#DejaVuSans-67"/>
     <use x="2008.291016" xlink:href="#DejaVuSans-68"/>
     <use x="2085.292969" xlink:href="#DejaVuSans-70"/>
     <use x="2142.8125" xlink:href="#DejaVuSans-41"/>
    </g>
   </g>
   <g id="legend_1">
    <g id="patch_7">
     <path d="M 292.7125 236 
L 391.5 236 
Q 393.5 236 393.5 234 
L 393.5 161.609375 
Q 393.5 159.609375 391.5 159.609375 
L 292.7125 159.609375 
Q 290.7125 159.609375 290.7125 161.609375 
L 290.7125 234 
Q 290.7125 236 292.7125 236 
z
" style="fill:#ffffff;opacity:0.8;stroke:#cccccc;stroke-linejoin:miter;"/>
    </g>
    <g id="line2d_63">
     <path d="M 294.7125 167.707813 
L 314.7125 167.707813 
" style="fill:none;stroke:#00aff0;stroke-dasharray:7.4,3.2;stroke-dashoffset:0;stroke-width:2;"/>
    </g>
    <g id="line2d_64"/>
    <g id="text_14">
     <!-- Ghostery -->
     <defs>
      <path d="M 59.515625 10.40625 
L 59.515625 29.984375 
L 43.40625 29.984375 
L 43.40625 38.09375 
L 69.28125 38.09375 
L 69.28125 6.78125 
Q 63.578125 2.734375 56.6875 0.65625 
Q 49.8125 -1.421875 42 -1.421875 
Q 24.90625 -1.421875 15.25 8.5625 
Q 5.609375 18.5625 5.609375 36.375 
Q 5.609375 54.25 15.25 64.234375 
Q 24.90625 74.21875 42 74.21875 
Q 49.125 74.21875 55.546875 72.453125 
Q 61.96875 70.703125 67.390625 67.28125 
L 67.390625 56.78125 
Q 61.921875 61.421875 55.765625 63.765625 
Q 49.609375 66.109375 42.828125 66.109375 
Q 29.4375 66.109375 22.71875 58.640625 
Q 16.015625 51.171875 16.015625 36.375 
Q 16.015625 21.625 22.71875 14.15625 
Q 29.4375 6.6875 42.828125 6.6875 
Q 48.046875 6.6875 52.140625 7.59375 
Q 56.25 8.5 59.515625 10.40625 
z
" id="DejaVuSans-71"/>
      <path d="M 54.890625 33.015625 
L 54.890625 0 
L 45.90625 0 
L 45.90625 32.71875 
Q 45.90625 40.484375 42.875 44.328125 
Q 39.84375 48.1875 33.796875 48.1875 
Q 26.515625 48.1875 22.3125 43.546875 
Q 18.109375 38.921875 18.109375 30.90625 
L 18.109375 0 
L 9.078125 0 
L 9.078125 75.984375 
L 18.109375 75.984375 
L 18.109375 46.1875 
Q 21.34375 51.125 25.703125 53.5625 
Q 30.078125 56 35.796875 56 
Q 45.21875 56 50.046875 50.171875 
Q 54.890625 44.34375 54.890625 33.015625 
z
" id="DejaVuSans-104"/>
      <path d="M 32.171875 -5.078125 
Q 28.375 -14.84375 24.75 -17.8125 
Q 21.140625 -20.796875 15.09375 -20.796875 
L 7.90625 -20.796875 
L 7.90625 -13.28125 
L 13.1875 -13.28125 
Q 16.890625 -13.28125 18.9375 -11.515625 
Q 21 -9.765625 23.484375 -3.21875 
L 25.09375 0.875 
L 2.984375 54.6875 
L 12.5 54.6875 
L 29.59375 11.921875 
L 46.6875 54.6875 
L 56.203125 54.6875 
z
" id="DejaVuSans-121"/>
     </defs>
     <g transform="translate(322.7125 171.207813)scale(0.1 -0.1)">
      <use xlink:href="#DejaVuSans-71"/>
      <use x="77.490234" xlink:href="#DejaVuSans-104"/>
      <use x="140.869141" xlink:href="#DejaVuSans-111"/>
      <use x="202.050781" xlink:href="#DejaVuSans-115"/>
      <use x="254.150391" xlink:href="#DejaVuSans-116"/>
      <use x="293.359375" xlink:href="#DejaVuSans-101"/>
      <use x="354.882812" xlink:href="#DejaVuSans-114"/>
      <use x="395.996094" xlink:href="#DejaVuSans-121"/>
     </g>
    </g>
    <g id="line2d_65">
     <path d="M 294.7125 182.385938 
L 314.7125 182.385938 
" style="fill:none;stroke:#800000;stroke-dasharray:7.4,3.2;stroke-dashoffset:0;stroke-width:2;"/>
    </g>
    <g id="line2d_66"/>
    <g id="text_15">
     <!-- uBlock Origin -->
     <defs>
      <path d="M 39.40625 66.21875 
Q 28.65625 66.21875 22.328125 58.203125 
Q 16.015625 50.203125 16.015625 36.375 
Q 16.015625 22.609375 22.328125 14.59375 
Q 28.65625 6.59375 39.40625 6.59375 
Q 50.140625 6.59375 56.421875 14.59375 
Q 62.703125 22.609375 62.703125 36.375 
Q 62.703125 50.203125 56.421875 58.203125 
Q 50.140625 66.21875 39.40625 66.21875 
z
M 39.40625 74.21875 
Q 54.734375 74.21875 63.90625 63.9375 
Q 73.09375 53.65625 73.09375 36.375 
Q 73.09375 19.140625 63.90625 8.859375 
Q 54.734375 -1.421875 39.40625 -1.421875 
Q 24.03125 -1.421875 14.8125 8.828125 
Q 5.609375 19.09375 5.609375 36.375 
Q 5.609375 53.65625 14.8125 63.9375 
Q 24.03125 74.21875 39.40625 74.21875 
z
" id="DejaVuSans-79"/>
     </defs>
     <g transform="translate(322.7125 185.885938)scale(0.1 -0.1)">
      <use xlink:href="#DejaVuSans-117"/>
      <use x="63.378906" xlink:href="#DejaVuSans-66"/>
      <use x="131.982422" xlink:href="#DejaVuSans-108"/>
      <use x="159.765625" xlink:href="#DejaVuSans-111"/>
      <use x="220.947266" xlink:href="#DejaVuSans-99"/>
      <use x="275.927734" xlink:href="#DejaVuSans-107"/>
      <use x="333.837891" xlink:href="#DejaVuSans-32"/>
      <use x="365.625" xlink:href="#DejaVuSans-79"/>
      <use x="444.335938" xlink:href="#DejaVuSans-114"/>
      <use x="485.449219" xlink:href="#DejaVuSans-105"/>
      <use x="513.232422" xlink:href="#DejaVuSans-103"/>
      <use x="576.708984" xlink:href="#DejaVuSans-105"/>
      <use x="604.492188" xlink:href="#DejaVuSans-110"/>
     </g>
    </g>
    <g id="line2d_67">
     <path d="M 294.7125 197.064063 
L 314.7125 197.064063 
" style="fill:none;stroke:#ff5500;stroke-dasharray:7.4,3.2;stroke-dashoffset:0;stroke-width:2;"/>
    </g>
    <g id="line2d_68"/>
    <g id="text_16">
     <!-- Brave -->
     <defs>
      <path d="M 2.984375 54.6875 
L 12.5 54.6875 
L 29.59375 8.796875 
L 46.6875 54.6875 
L 56.203125 54.6875 
L 35.6875 0 
L 23.484375 0 
z
" id="DejaVuSans-118"/>
     </defs>
     <g transform="translate(322.7125 200.564063)scale(0.1 -0.1)">
      <use xlink:href="#DejaVuSans-66"/>
      <use x="68.603516" xlink:href="#DejaVuSans-114"/>
      <use x="109.716797" xlink:href="#DejaVuSans-97"/>
      <use x="170.996094" xlink:href="#DejaVuSans-118"/>
      <use x="230.175781" xlink:href="#DejaVuSans-101"/>
     </g>
    </g>
    <g id="line2d_69">
     <path d="M 294.7125 211.742188 
L 314.7125 211.742188 
" style="fill:none;stroke:#58b792;stroke-dasharray:7.4,3.2;stroke-dashoffset:0;stroke-width:2;"/>
    </g>
    <g id="line2d_70"/>
    <g id="text_17">
     <!-- DuckDuckGo -->
     <g transform="translate(322.7125 215.242188)scale(0.1 -0.1)">
      <use xlink:href="#DejaVuSans-68"/>
      <use x="77.001953" xlink:href="#DejaVuSans-117"/>
      <use x="140.380859" xlink:href="#DejaVuSans-99"/>
      <use x="195.361328" xlink:href="#DejaVuSans-107"/>
      <use x="253.271484" xlink:href="#DejaVuSans-68"/>
      <use x="330.273438" xlink:href="#DejaVuSans-117"/>
      <use x="393.652344" xlink:href="#DejaVuSans-99"/>
      <use x="448.632812" xlink:href="#DejaVuSans-107"/>
      <use x="506.542969" xlink:href="#DejaVuSans-71"/>
      <use x="584.033203" xlink:href="#DejaVuSans-111"/>
     </g>
    </g>
    <g id="line2d_71">
     <path d="M 294.7125 226.420313 
L 314.7125 226.420313 
" style="fill:none;stroke:#c70d2c;stroke-dasharray:7.4,3.2;stroke-dashoffset:0;stroke-width:2;"/>
    </g>
    <g id="line2d_72"/>
    <g id="text_18">
     <!-- Adblock Plus -->
     <defs>
      <path d="M 34.1875 63.1875 
L 20.796875 26.90625 
L 47.609375 26.90625 
z
M 28.609375 72.90625 
L 39.796875 72.90625 
L 67.578125 0 
L 57.328125 0 
L 50.6875 18.703125 
L 17.828125 18.703125 
L 11.1875 0 
L 0.78125 0 
z
" id="DejaVuSans-65"/>
      <path d="M 19.671875 64.796875 
L 19.671875 37.40625 
L 32.078125 37.40625 
Q 38.96875 37.40625 42.71875 40.96875 
Q 46.484375 44.53125 46.484375 51.125 
Q 46.484375 57.671875 42.71875 61.234375 
Q 38.96875 64.796875 32.078125 64.796875 
z
M 9.8125 72.90625 
L 32.078125 72.90625 
Q 44.34375 72.90625 50.609375 67.359375 
Q 56.890625 61.8125 56.890625 51.125 
Q 56.890625 40.328125 50.609375 34.8125 
Q 44.34375 29.296875 32.078125 29.296875 
L 19.671875 29.296875 
L 19.671875 0 
L 9.8125 0 
z
" id="DejaVuSans-80"/>
     </defs>
     <g transform="translate(322.7125 229.920313)scale(0.1 -0.1)">
      <use xlink:href="#DejaVuSans-65"/>
      <use x="68.392578" xlink:href="#DejaVuSans-100"/>
      <use x="131.869141" xlink:href="#DejaVuSans-98"/>
      <use x="195.345703" xlink:href="#DejaVuSans-108"/>
      <use x="223.128906" xlink:href="#DejaVuSans-111"/>
      <use x="284.310547" xlink:href="#DejaVuSans-99"/>
      <use x="339.291016" xlink:href="#DejaVuSans-107"/>
      <use x="397.201172" xlink:href="#DejaVuSans-32"/>
      <use x="428.988281" xlink:href="#DejaVuSans-80"/>
      <use x="489.291016" xlink:href="#DejaVuSans-108"/>
      <use x="517.074219" xlink:href="#DejaVuSans-117"/>
      <use x="580.453125" xlink:href="#DejaVuSans-115"/>
     </g>
    </g>
   </g>
  </g>
 </g>
 <defs>
  <clipPath id="p33acd77525">
   <rect height="207.5" width="345.625" x="52.875" y="33.5"/>
  </clipPath>
 </defs>
</svg>
