<?xml version="1.0" encoding="utf-8" standalone="no"?>
<!DOCTYPE svg PUBLIC "-//W3C//DTD SVG 1.1//EN"
  "http://www.w3.org/Graphics/SVG/1.1/DTD/svg11.dtd">
<!-- Created with matplotlib (https://matplotlib.org/) -->
<svg height="288pt" version="1.1" viewBox="0 0 432 288" width="432pt" xmlns="http://www.w3.org/2000/svg" xmlns:xlink="http://www.w3.org/1999/xlink">
 <defs>
  <style type="text/css">
*{stroke-linecap:butt;stroke-linejoin:round;}
  </style>
 </defs>
 <g id="figure_1">
  <g id="patch_1">
   <path d="M 0 288 
L 432 288 
L 432 0 
L 0 0 
z
" style="fill:#ffffff;"/>
  </g>
  <g id="axes_1">
   <g id="patch_2">
    <path d="M 52.875 241 
L 398.5 241 
L 398.5 33.5 
L 52.875 33.5 
z
" style="fill:#ffffff;"/>
   </g>
   <g id="matplotlib.axis_1">
    <g id="xtick_1">
     <g id="line2d_1">
      <path clip-path="url(#p2599a0df0a)" d="M 60.365648 241 
L 60.365648 33.5 
" style="fill:none;stroke:#b0b0b0;stroke-dasharray:3.7,1.6;stroke-dashoffset:0;"/>
     </g>
     <g id="line2d_2">
      <defs>
       <path d="M 0 0 
L 0 3.5 
" id="mf8f186d846" style="stroke:#000000;stroke-width:0.8;"/>
      </defs>
      <g>
       <use style="stroke:#000000;stroke-width:0.8;" x="60.365648" xlink:href="#mf8f186d846" y="241"/>
      </g>
     </g>
     <g id="text_1">
      <!-- $\mathdefault{10^{-4}}$ -->
      <defs>
       <path d="M 12.40625 8.296875 
L 28.515625 8.296875 
L 28.515625 63.921875 
L 10.984375 60.40625 
L 10.984375 69.390625 
L 28.421875 72.90625 
L 38.28125 72.90625 
L 38.28125 8.296875 
L 54.390625 8.296875 
L 54.390625 0 
L 12.40625 0 
z
" id="DejaVuSans-49"/>
       <path d="M 31.78125 66.40625 
Q 24.171875 66.40625 20.328125 58.90625 
Q 16.5 51.421875 16.5 36.375 
Q 16.5 21.390625 20.328125 13.890625 
Q 24.171875 6.390625 31.78125 6.390625 
Q 39.453125 6.390625 43.28125 13.890625 
Q 47.125 21.390625 47.125 36.375 
Q 47.125 51.421875 43.28125 58.90625 
Q 39.453125 66.40625 31.78125 66.40625 
z
M 31.78125 74.21875 
Q 44.046875 74.21875 50.515625 64.515625 
Q 56.984375 54.828125 56.984375 36.375 
Q 56.984375 17.96875 50.515625 8.265625 
Q 44.046875 -1.421875 31.78125 -1.421875 
Q 19.53125 -1.421875 13.0625 8.265625 
Q 6.59375 17.96875 6.59375 36.375 
Q 6.59375 54.828125 13.0625 64.515625 
Q 19.53125 74.21875 31.78125 74.21875 
z
" id="DejaVuSans-48"/>
       <path d="M 10.59375 35.5 
L 73.1875 35.5 
L 73.1875 27.203125 
L 10.59375 27.203125 
z
" id="DejaVuSans-8722"/>
       <path d="M 37.796875 64.3125 
L 12.890625 25.390625 
L 37.796875 25.390625 
z
M 35.203125 72.90625 
L 47.609375 72.90625 
L 47.609375 25.390625 
L 58.015625 25.390625 
L 58.015625 17.1875 
L 47.609375 17.1875 
L 47.609375 0 
L 37.796875 0 
L 37.796875 17.1875 
L 4.890625 17.1875 
L 4.890625 26.703125 
z
" id="DejaVuSans-52"/>
      </defs>
      <g transform="translate(48.615648 255.598438)scale(0.1 -0.1)">
       <use transform="translate(0 0.684375)" xlink:href="#DejaVuSans-49"/>
       <use transform="translate(63.623047 0.684375)" xlink:href="#DejaVuSans-48"/>
       <use transform="translate(128.203125 38.965625)scale(0.7)" xlink:href="#DejaVuSans-8722"/>
       <use transform="translate(186.855469 38.965625)scale(0.7)" xlink:href="#DejaVuSans-52"/>
      </g>
     </g>
    </g>
    <g id="xtick_2">
     <g id="line2d_3">
      <path clip-path="url(#p2599a0df0a)" d="M 115.449605 241 
L 115.449605 33.5 
" style="fill:none;stroke:#b0b0b0;stroke-dasharray:3.7,1.6;stroke-dashoffset:0;"/>
     </g>
     <g id="line2d_4">
      <g>
       <use style="stroke:#000000;stroke-width:0.8;" x="115.449605" xlink:href="#mf8f186d846" y="241"/>
      </g>
     </g>
     <g id="text_2">
      <!-- $\mathdefault{10^{-3}}$ -->
      <defs>
       <path d="M 40.578125 39.3125 
Q 47.65625 37.796875 51.625 33 
Q 55.609375 28.21875 55.609375 21.1875 
Q 55.609375 10.40625 48.1875 4.484375 
Q 40.765625 -1.421875 27.09375 -1.421875 
Q 22.515625 -1.421875 17.65625 -0.515625 
Q 12.796875 0.390625 7.625 2.203125 
L 7.625 11.71875 
Q 11.71875 9.328125 16.59375 8.109375 
Q 21.484375 6.890625 26.8125 6.890625 
Q 36.078125 6.890625 40.9375 10.546875 
Q 45.796875 14.203125 45.796875 21.1875 
Q 45.796875 27.640625 41.28125 31.265625 
Q 36.765625 34.90625 28.71875 34.90625 
L 20.21875 34.90625 
L 20.21875 43.015625 
L 29.109375 43.015625 
Q 36.375 43.015625 40.234375 45.921875 
Q 44.09375 48.828125 44.09375 54.296875 
Q 44.09375 59.90625 40.109375 62.90625 
Q 36.140625 65.921875 28.71875 65.921875 
Q 24.65625 65.921875 20.015625 65.03125 
Q 15.375 64.15625 9.8125 62.3125 
L 9.8125 71.09375 
Q 15.4375 72.65625 20.34375 73.4375 
Q 25.25 74.21875 29.59375 74.21875 
Q 40.828125 74.21875 47.359375 69.109375 
Q 53.90625 64.015625 53.90625 55.328125 
Q 53.90625 49.265625 50.4375 45.09375 
Q 46.96875 40.921875 40.578125 39.3125 
z
" id="DejaVuSans-51"/>
      </defs>
      <g transform="translate(103.699605 255.598438)scale(0.1 -0.1)">
       <use transform="translate(0 0.765625)" xlink:href="#DejaVuSans-49"/>
       <use transform="translate(63.623047 0.765625)" xlink:href="#DejaVuSans-48"/>
       <use transform="translate(128.203125 39.046875)scale(0.7)" xlink:href="#DejaVuSans-8722"/>
       <use transform="translate(186.855469 39.046875)scale(0.7)" xlink:href="#DejaVuSans-51"/>
      </g>
     </g>
    </g>
    <g id="xtick_3">
     <g id="line2d_5">
      <path clip-path="url(#p2599a0df0a)" d="M 170.533562 241 
L 170.533562 33.5 
" style="fill:none;stroke:#b0b0b0;stroke-dasharray:3.7,1.6;stroke-dashoffset:0;"/>
     </g>
     <g id="line2d_6">
      <g>
       <use style="stroke:#000000;stroke-width:0.8;" x="170.533562" xlink:href="#mf8f186d846" y="241"/>
      </g>
     </g>
     <g id="text_3">
      <!-- $\mathdefault{10^{-2}}$ -->
      <defs>
       <path d="M 19.1875 8.296875 
L 53.609375 8.296875 
L 53.609375 0 
L 7.328125 0 
L 7.328125 8.296875 
Q 12.9375 14.109375 22.625 23.890625 
Q 32.328125 33.6875 34.8125 36.53125 
Q 39.546875 41.84375 41.421875 45.53125 
Q 43.3125 49.21875 43.3125 52.78125 
Q 43.3125 58.59375 39.234375 62.25 
Q 35.15625 65.921875 28.609375 65.921875 
Q 23.96875 65.921875 18.8125 64.3125 
Q 13.671875 62.703125 7.8125 59.421875 
L 7.8125 69.390625 
Q 13.765625 71.78125 18.9375 73 
Q 24.125 74.21875 28.421875 74.21875 
Q 39.75 74.21875 46.484375 68.546875 
Q 53.21875 62.890625 53.21875 53.421875 
Q 53.21875 48.921875 51.53125 44.890625 
Q 49.859375 40.875 45.40625 35.40625 
Q 44.1875 33.984375 37.640625 27.21875 
Q 31.109375 20.453125 19.1875 8.296875 
z
" id="DejaVuSans-50"/>
      </defs>
      <g transform="translate(158.783562 255.598438)scale(0.1 -0.1)">
       <use transform="translate(0 0.765625)" xlink:href="#DejaVuSans-49"/>
       <use transform="translate(63.623047 0.765625)" xlink:href="#DejaVuSans-48"/>
       <use transform="translate(128.203125 39.046875)scale(0.7)" xlink:href="#DejaVuSans-8722"/>
       <use transform="translate(186.855469 39.046875)scale(0.7)" xlink:href="#DejaVuSans-50"/>
      </g>
     </g>
    </g>
    <g id="xtick_4">
     <g id="line2d_7">
      <path clip-path="url(#p2599a0df0a)" d="M 225.617519 241 
L 225.617519 33.5 
" style="fill:none;stroke:#b0b0b0;stroke-dasharray:3.7,1.6;stroke-dashoffset:0;"/>
     </g>
     <g id="line2d_8">
      <g>
       <use style="stroke:#000000;stroke-width:0.8;" x="225.617519" xlink:href="#mf8f186d846" y="241"/>
      </g>
     </g>
     <g id="text_4">
      <!-- $\mathdefault{10^{-1}}$ -->
      <g transform="translate(213.867519 255.598438)scale(0.1 -0.1)">
       <use transform="translate(0 0.684375)" xlink:href="#DejaVuSans-49"/>
       <use transform="translate(63.623047 0.684375)" xlink:href="#DejaVuSans-48"/>
       <use transform="translate(128.203125 38.965625)scale(0.7)" xlink:href="#DejaVuSans-8722"/>
       <use transform="translate(186.855469 38.965625)scale(0.7)" xlink:href="#DejaVuSans-49"/>
      </g>
     </g>
    </g>
    <g id="xtick_5">
     <g id="line2d_9">
      <path clip-path="url(#p2599a0df0a)" d="M 280.701476 241 
L 280.701476 33.5 
" style="fill:none;stroke:#b0b0b0;stroke-dasharray:3.7,1.6;stroke-dashoffset:0;"/>
     </g>
     <g id="line2d_10">
      <g>
       <use style="stroke:#000000;stroke-width:0.8;" x="280.701476" xlink:href="#mf8f186d846" y="241"/>
      </g>
     </g>
     <g id="text_5">
      <!-- $\mathdefault{10^{0}}$ -->
      <g transform="translate(271.901476 255.598438)scale(0.1 -0.1)">
       <use transform="translate(0 0.765625)" xlink:href="#DejaVuSans-49"/>
       <use transform="translate(63.623047 0.765625)" xlink:href="#DejaVuSans-48"/>
       <use transform="translate(128.203125 39.046875)scale(0.7)" xlink:href="#DejaVuSans-48"/>
      </g>
     </g>
    </g>
    <g id="xtick_6">
     <g id="line2d_11">
      <path clip-path="url(#p2599a0df0a)" d="M 335.785433 241 
L 335.785433 33.5 
" style="fill:none;stroke:#b0b0b0;stroke-dasharray:3.7,1.6;stroke-dashoffset:0;"/>
     </g>
     <g id="line2d_12">
      <g>
       <use style="stroke:#000000;stroke-width:0.8;" x="335.785433" xlink:href="#mf8f186d846" y="241"/>
      </g>
     </g>
     <g id="text_6">
      <!-- $\mathdefault{10^{1}}$ -->
      <g transform="translate(326.985433 255.598438)scale(0.1 -0.1)">
       <use transform="translate(0 0.684375)" xlink:href="#DejaVuSans-49"/>
       <use transform="translate(63.623047 0.684375)" xlink:href="#DejaVuSans-48"/>
       <use transform="translate(128.203125 38.965625)scale(0.7)" xlink:href="#DejaVuSans-49"/>
      </g>
     </g>
    </g>
    <g id="xtick_7">
     <g id="line2d_13">
      <path clip-path="url(#p2599a0df0a)" d="M 390.86939 241 
L 390.86939 33.5 
" style="fill:none;stroke:#b0b0b0;stroke-dasharray:3.7,1.6;stroke-dashoffset:0;"/>
     </g>
     <g id="line2d_14">
      <g>
       <use style="stroke:#000000;stroke-width:0.8;" x="390.86939" xlink:href="#mf8f186d846" y="241"/>
      </g>
     </g>
     <g id="text_7">
      <!-- $\mathdefault{10^{2}}$ -->
      <g transform="translate(382.06939 255.598438)scale(0.1 -0.1)">
       <use transform="translate(0 0.765625)" xlink:href="#DejaVuSans-49"/>
       <use transform="translate(63.623047 0.765625)" xlink:href="#DejaVuSans-48"/>
       <use transform="translate(128.203125 39.046875)scale(0.7)" xlink:href="#DejaVuSans-50"/>
      </g>
     </g>
    </g>
    <g id="xtick_8">
     <g id="line2d_15">
      <defs>
       <path d="M 0 0 
L 0 2 
" id="m52b530e759" style="stroke:#000000;stroke-width:0.6;"/>
      </defs>
      <g>
       <use style="stroke:#000000;stroke-width:0.6;" x="55.027461" xlink:href="#m52b530e759" y="241"/>
      </g>
     </g>
    </g>
    <g id="xtick_9">
     <g id="line2d_16">
      <g>
       <use style="stroke:#000000;stroke-width:0.6;" x="57.845144" xlink:href="#m52b530e759" y="241"/>
      </g>
     </g>
    </g>
    <g id="xtick_10">
     <g id="line2d_17">
      <g>
       <use style="stroke:#000000;stroke-width:0.6;" x="76.947571" xlink:href="#m52b530e759" y="241"/>
      </g>
     </g>
    </g>
    <g id="xtick_11">
     <g id="line2d_18">
      <g>
       <use style="stroke:#000000;stroke-width:0.6;" x="86.647375" xlink:href="#m52b530e759" y="241"/>
      </g>
     </g>
    </g>
    <g id="xtick_12">
     <g id="line2d_19">
      <g>
       <use style="stroke:#000000;stroke-width:0.6;" x="93.529495" xlink:href="#m52b530e759" y="241"/>
      </g>
     </g>
    </g>
    <g id="xtick_13">
     <g id="line2d_20">
      <g>
       <use style="stroke:#000000;stroke-width:0.6;" x="98.867682" xlink:href="#m52b530e759" y="241"/>
      </g>
     </g>
    </g>
    <g id="xtick_14">
     <g id="line2d_21">
      <g>
       <use style="stroke:#000000;stroke-width:0.6;" x="103.229298" xlink:href="#m52b530e759" y="241"/>
      </g>
     </g>
    </g>
    <g id="xtick_15">
     <g id="line2d_22">
      <g>
       <use style="stroke:#000000;stroke-width:0.6;" x="106.916992" xlink:href="#m52b530e759" y="241"/>
      </g>
     </g>
    </g>
    <g id="xtick_16">
     <g id="line2d_23">
      <g>
       <use style="stroke:#000000;stroke-width:0.6;" x="110.111418" xlink:href="#m52b530e759" y="241"/>
      </g>
     </g>
    </g>
    <g id="xtick_17">
     <g id="line2d_24">
      <g>
       <use style="stroke:#000000;stroke-width:0.6;" x="112.929101" xlink:href="#m52b530e759" y="241"/>
      </g>
     </g>
    </g>
    <g id="xtick_18">
     <g id="line2d_25">
      <g>
       <use style="stroke:#000000;stroke-width:0.6;" x="132.031528" xlink:href="#m52b530e759" y="241"/>
      </g>
     </g>
    </g>
    <g id="xtick_19">
     <g id="line2d_26">
      <g>
       <use style="stroke:#000000;stroke-width:0.6;" x="141.731332" xlink:href="#m52b530e759" y="241"/>
      </g>
     </g>
    </g>
    <g id="xtick_20">
     <g id="line2d_27">
      <g>
       <use style="stroke:#000000;stroke-width:0.6;" x="148.613452" xlink:href="#m52b530e759" y="241"/>
      </g>
     </g>
    </g>
    <g id="xtick_21">
     <g id="line2d_28">
      <g>
       <use style="stroke:#000000;stroke-width:0.6;" x="153.951639" xlink:href="#m52b530e759" y="241"/>
      </g>
     </g>
    </g>
    <g id="xtick_22">
     <g id="line2d_29">
      <g>
       <use style="stroke:#000000;stroke-width:0.6;" x="158.313255" xlink:href="#m52b530e759" y="241"/>
      </g>
     </g>
    </g>
    <g id="xtick_23">
     <g id="line2d_30">
      <g>
       <use style="stroke:#000000;stroke-width:0.6;" x="162.000949" xlink:href="#m52b530e759" y="241"/>
      </g>
     </g>
    </g>
    <g id="xtick_24">
     <g id="line2d_31">
      <g>
       <use style="stroke:#000000;stroke-width:0.6;" x="165.195375" xlink:href="#m52b530e759" y="241"/>
      </g>
     </g>
    </g>
    <g id="xtick_25">
     <g id="line2d_32">
      <g>
       <use style="stroke:#000000;stroke-width:0.6;" x="168.013059" xlink:href="#m52b530e759" y="241"/>
      </g>
     </g>
    </g>
    <g id="xtick_26">
     <g id="line2d_33">
      <g>
       <use style="stroke:#000000;stroke-width:0.6;" x="187.115486" xlink:href="#m52b530e759" y="241"/>
      </g>
     </g>
    </g>
    <g id="xtick_27">
     <g id="line2d_34">
      <g>
       <use style="stroke:#000000;stroke-width:0.6;" x="196.815289" xlink:href="#m52b530e759" y="241"/>
      </g>
     </g>
    </g>
    <g id="xtick_28">
     <g id="line2d_35">
      <g>
       <use style="stroke:#000000;stroke-width:0.6;" x="203.697409" xlink:href="#m52b530e759" y="241"/>
      </g>
     </g>
    </g>
    <g id="xtick_29">
     <g id="line2d_36">
      <g>
       <use style="stroke:#000000;stroke-width:0.6;" x="209.035596" xlink:href="#m52b530e759" y="241"/>
      </g>
     </g>
    </g>
    <g id="xtick_30">
     <g id="line2d_37">
      <g>
       <use style="stroke:#000000;stroke-width:0.6;" x="213.397212" xlink:href="#m52b530e759" y="241"/>
      </g>
     </g>
    </g>
    <g id="xtick_31">
     <g id="line2d_38">
      <g>
       <use style="stroke:#000000;stroke-width:0.6;" x="217.084906" xlink:href="#m52b530e759" y="241"/>
      </g>
     </g>
    </g>
    <g id="xtick_32">
     <g id="line2d_39">
      <g>
       <use style="stroke:#000000;stroke-width:0.6;" x="220.279332" xlink:href="#m52b530e759" y="241"/>
      </g>
     </g>
    </g>
    <g id="xtick_33">
     <g id="line2d_40">
      <g>
       <use style="stroke:#000000;stroke-width:0.6;" x="223.097016" xlink:href="#m52b530e759" y="241"/>
      </g>
     </g>
    </g>
    <g id="xtick_34">
     <g id="line2d_41">
      <g>
       <use style="stroke:#000000;stroke-width:0.6;" x="242.199443" xlink:href="#m52b530e759" y="241"/>
      </g>
     </g>
    </g>
    <g id="xtick_35">
     <g id="line2d_42">
      <g>
       <use style="stroke:#000000;stroke-width:0.6;" x="251.899246" xlink:href="#m52b530e759" y="241"/>
      </g>
     </g>
    </g>
    <g id="xtick_36">
     <g id="line2d_43">
      <g>
       <use style="stroke:#000000;stroke-width:0.6;" x="258.781366" xlink:href="#m52b530e759" y="241"/>
      </g>
     </g>
    </g>
    <g id="xtick_37">
     <g id="line2d_44">
      <g>
       <use style="stroke:#000000;stroke-width:0.6;" x="264.119553" xlink:href="#m52b530e759" y="241"/>
      </g>
     </g>
    </g>
    <g id="xtick_38">
     <g id="line2d_45">
      <g>
       <use style="stroke:#000000;stroke-width:0.6;" x="268.481169" xlink:href="#m52b530e759" y="241"/>
      </g>
     </g>
    </g>
    <g id="xtick_39">
     <g id="line2d_46">
      <g>
       <use style="stroke:#000000;stroke-width:0.6;" x="272.168863" xlink:href="#m52b530e759" y="241"/>
      </g>
     </g>
    </g>
    <g id="xtick_40">
     <g id="line2d_47">
      <g>
       <use style="stroke:#000000;stroke-width:0.6;" x="275.363289" xlink:href="#m52b530e759" y="241"/>
      </g>
     </g>
    </g>
    <g id="xtick_41">
     <g id="line2d_48">
      <g>
       <use style="stroke:#000000;stroke-width:0.6;" x="278.180973" xlink:href="#m52b530e759" y="241"/>
      </g>
     </g>
    </g>
    <g id="xtick_42">
     <g id="line2d_49">
      <g>
       <use style="stroke:#000000;stroke-width:0.6;" x="297.2834" xlink:href="#m52b530e759" y="241"/>
      </g>
     </g>
    </g>
    <g id="xtick_43">
     <g id="line2d_50">
      <g>
       <use style="stroke:#000000;stroke-width:0.6;" x="306.983203" xlink:href="#m52b530e759" y="241"/>
      </g>
     </g>
    </g>
    <g id="xtick_44">
     <g id="line2d_51">
      <g>
       <use style="stroke:#000000;stroke-width:0.6;" x="313.865323" xlink:href="#m52b530e759" y="241"/>
      </g>
     </g>
    </g>
    <g id="xtick_45">
     <g id="line2d_52">
      <g>
       <use style="stroke:#000000;stroke-width:0.6;" x="319.20351" xlink:href="#m52b530e759" y="241"/>
      </g>
     </g>
    </g>
    <g id="xtick_46">
     <g id="line2d_53">
      <g>
       <use style="stroke:#000000;stroke-width:0.6;" x="323.565126" xlink:href="#m52b530e759" y="241"/>
      </g>
     </g>
    </g>
    <g id="xtick_47">
     <g id="line2d_54">
      <g>
       <use style="stroke:#000000;stroke-width:0.6;" x="327.25282" xlink:href="#m52b530e759" y="241"/>
      </g>
     </g>
    </g>
    <g id="xtick_48">
     <g id="line2d_55">
      <g>
       <use style="stroke:#000000;stroke-width:0.6;" x="330.447246" xlink:href="#m52b530e759" y="241"/>
      </g>
     </g>
    </g>
    <g id="xtick_49">
     <g id="line2d_56">
      <g>
       <use style="stroke:#000000;stroke-width:0.6;" x="333.26493" xlink:href="#m52b530e759" y="241"/>
      </g>
     </g>
    </g>
    <g id="xtick_50">
     <g id="line2d_57">
      <g>
       <use style="stroke:#000000;stroke-width:0.6;" x="352.367357" xlink:href="#m52b530e759" y="241"/>
      </g>
     </g>
    </g>
    <g id="xtick_51">
     <g id="line2d_58">
      <g>
       <use style="stroke:#000000;stroke-width:0.6;" x="362.06716" xlink:href="#m52b530e759" y="241"/>
      </g>
     </g>
    </g>
    <g id="xtick_52">
     <g id="line2d_59">
      <g>
       <use style="stroke:#000000;stroke-width:0.6;" x="368.94928" xlink:href="#m52b530e759" y="241"/>
      </g>
     </g>
    </g>
    <g id="xtick_53">
     <g id="line2d_60">
      <g>
       <use style="stroke:#000000;stroke-width:0.6;" x="374.287467" xlink:href="#m52b530e759" y="241"/>
      </g>
     </g>
    </g>
    <g id="xtick_54">
     <g id="line2d_61">
      <g>
       <use style="stroke:#000000;stroke-width:0.6;" x="378.649083" xlink:href="#m52b530e759" y="241"/>
      </g>
     </g>
    </g>
    <g id="xtick_55">
     <g id="line2d_62">
      <g>
       <use style="stroke:#000000;stroke-width:0.6;" x="382.336777" xlink:href="#m52b530e759" y="241"/>
      </g>
     </g>
    </g>
    <g id="xtick_56">
     <g id="line2d_63">
      <g>
       <use style="stroke:#000000;stroke-width:0.6;" x="385.531203" xlink:href="#m52b530e759" y="241"/>
      </g>
     </g>
    </g>
    <g id="xtick_57">
     <g id="line2d_64">
      <g>
       <use style="stroke:#000000;stroke-width:0.6;" x="388.348887" xlink:href="#m52b530e759" y="241"/>
      </g>
     </g>
    </g>
    <g id="text_8">
     <!-- Time (ms)  -->
     <defs>
      <path d="M -0.296875 72.90625 
L 61.375 72.90625 
L 61.375 64.59375 
L 35.5 64.59375 
L 35.5 0 
L 25.59375 0 
L 25.59375 64.59375 
L -0.296875 64.59375 
z
" id="DejaVuSans-84"/>
      <path d="M 9.421875 54.6875 
L 18.40625 54.6875 
L 18.40625 0 
L 9.421875 0 
z
M 9.421875 75.984375 
L 18.40625 75.984375 
L 18.40625 64.59375 
L 9.421875 64.59375 
z
" id="DejaVuSans-105"/>
      <path d="M 52 44.1875 
Q 55.375 50.25 60.0625 53.125 
Q 64.75 56 71.09375 56 
Q 79.640625 56 84.28125 50.015625 
Q 88.921875 44.046875 88.921875 33.015625 
L 88.921875 0 
L 79.890625 0 
L 79.890625 32.71875 
Q 79.890625 40.578125 77.09375 44.375 
Q 74.3125 48.1875 68.609375 48.1875 
Q 61.625 48.1875 57.5625 43.546875 
Q 53.515625 38.921875 53.515625 30.90625 
L 53.515625 0 
L 44.484375 0 
L 44.484375 32.71875 
Q 44.484375 40.625 41.703125 44.40625 
Q 38.921875 48.1875 33.109375 48.1875 
Q 26.21875 48.1875 22.15625 43.53125 
Q 18.109375 38.875 18.109375 30.90625 
L 18.109375 0 
L 9.078125 0 
L 9.078125 54.6875 
L 18.109375 54.6875 
L 18.109375 46.1875 
Q 21.1875 51.21875 25.484375 53.609375 
Q 29.78125 56 35.6875 56 
Q 41.65625 56 45.828125 52.96875 
Q 50 49.953125 52 44.1875 
z
" id="DejaVuSans-109"/>
      <path d="M 56.203125 29.59375 
L 56.203125 25.203125 
L 14.890625 25.203125 
Q 15.484375 15.921875 20.484375 11.0625 
Q 25.484375 6.203125 34.421875 6.203125 
Q 39.59375 6.203125 44.453125 7.46875 
Q 49.3125 8.734375 54.109375 11.28125 
L 54.109375 2.78125 
Q 49.265625 0.734375 44.1875 -0.34375 
Q 39.109375 -1.421875 33.890625 -1.421875 
Q 20.796875 -1.421875 13.15625 6.1875 
Q 5.515625 13.8125 5.515625 26.8125 
Q 5.515625 40.234375 12.765625 48.109375 
Q 20.015625 56 32.328125 56 
Q 43.359375 56 49.78125 48.890625 
Q 56.203125 41.796875 56.203125 29.59375 
z
M 47.21875 32.234375 
Q 47.125 39.59375 43.09375 43.984375 
Q 39.0625 48.390625 32.421875 48.390625 
Q 24.90625 48.390625 20.390625 44.140625 
Q 15.875 39.890625 15.1875 32.171875 
z
" id="DejaVuSans-101"/>
      <path id="DejaVuSans-32"/>
      <path d="M 31 75.875 
Q 24.46875 64.65625 21.28125 53.65625 
Q 18.109375 42.671875 18.109375 31.390625 
Q 18.109375 20.125 21.3125 9.0625 
Q 24.515625 -2 31 -13.1875 
L 23.1875 -13.1875 
Q 15.875 -1.703125 12.234375 9.375 
Q 8.59375 20.453125 8.59375 31.390625 
Q 8.59375 42.28125 12.203125 53.3125 
Q 15.828125 64.359375 23.1875 75.875 
z
" id="DejaVuSans-40"/>
      <path d="M 44.28125 53.078125 
L 44.28125 44.578125 
Q 40.484375 46.53125 36.375 47.5 
Q 32.28125 48.484375 27.875 48.484375 
Q 21.1875 48.484375 17.84375 46.4375 
Q 14.5 44.390625 14.5 40.28125 
Q 14.5 37.15625 16.890625 35.375 
Q 19.28125 33.59375 26.515625 31.984375 
L 29.59375 31.296875 
Q 39.15625 29.25 43.1875 25.515625 
Q 47.21875 21.78125 47.21875 15.09375 
Q 47.21875 7.46875 41.1875 3.015625 
Q 35.15625 -1.421875 24.609375 -1.421875 
Q 20.21875 -1.421875 15.453125 -0.5625 
Q 10.6875 0.296875 5.421875 2 
L 5.421875 11.28125 
Q 10.40625 8.6875 15.234375 7.390625 
Q 20.0625 6.109375 24.8125 6.109375 
Q 31.15625 6.109375 34.5625 8.28125 
Q 37.984375 10.453125 37.984375 14.40625 
Q 37.984375 18.0625 35.515625 20.015625 
Q 33.0625 21.96875 24.703125 23.78125 
L 21.578125 24.515625 
Q 13.234375 26.265625 9.515625 29.90625 
Q 5.8125 33.546875 5.8125 39.890625 
Q 5.8125 47.609375 11.28125 51.796875 
Q 16.75 56 26.8125 56 
Q 31.78125 56 36.171875 55.265625 
Q 40.578125 54.546875 44.28125 53.078125 
z
" id="DejaVuSans-115"/>
      <path d="M 8.015625 75.875 
L 15.828125 75.875 
Q 23.140625 64.359375 26.78125 53.3125 
Q 30.421875 42.28125 30.421875 31.390625 
Q 30.421875 20.453125 26.78125 9.375 
Q 23.140625 -1.703125 15.828125 -13.1875 
L 8.015625 -13.1875 
Q 14.5 -2 17.703125 9.0625 
Q 20.90625 20.125 20.90625 31.390625 
Q 20.90625 42.671875 17.703125 53.65625 
Q 14.5 64.65625 8.015625 75.875 
z
" id="DejaVuSans-41"/>
     </defs>
     <g transform="translate(198.745313 269.276563)scale(0.1 -0.1)">
      <use xlink:href="#DejaVuSans-84"/>
      <use x="61.037109" xlink:href="#DejaVuSans-105"/>
      <use x="88.820312" xlink:href="#DejaVuSans-109"/>
      <use x="186.232422" xlink:href="#DejaVuSans-101"/>
      <use x="247.755859" xlink:href="#DejaVuSans-32"/>
      <use x="279.542969" xlink:href="#DejaVuSans-40"/>
      <use x="318.556641" xlink:href="#DejaVuSans-109"/>
      <use x="415.96875" xlink:href="#DejaVuSans-115"/>
      <use x="468.068359" xlink:href="#DejaVuSans-41"/>
      <use x="507.082031" xlink:href="#DejaVuSans-32"/>
     </g>
     <!--  log (base 10) -->
     <defs>
      <path d="M 9.421875 75.984375 
L 18.40625 75.984375 
L 18.40625 0 
L 9.421875 0 
z
" id="DejaVuSans-108"/>
      <path d="M 30.609375 48.390625 
Q 23.390625 48.390625 19.1875 42.75 
Q 14.984375 37.109375 14.984375 27.296875 
Q 14.984375 17.484375 19.15625 11.84375 
Q 23.34375 6.203125 30.609375 6.203125 
Q 37.796875 6.203125 41.984375 11.859375 
Q 46.1875 17.53125 46.1875 27.296875 
Q 46.1875 37.015625 41.984375 42.703125 
Q 37.796875 48.390625 30.609375 48.390625 
z
M 30.609375 56 
Q 42.328125 56 49.015625 48.375 
Q 55.71875 40.765625 55.71875 27.296875 
Q 55.71875 13.875 49.015625 6.21875 
Q 42.328125 -1.421875 30.609375 -1.421875 
Q 18.84375 -1.421875 12.171875 6.21875 
Q 5.515625 13.875 5.515625 27.296875 
Q 5.515625 40.765625 12.171875 48.375 
Q 18.84375 56 30.609375 56 
z
" id="DejaVuSans-111"/>
      <path d="M 45.40625 27.984375 
Q 45.40625 37.75 41.375 43.109375 
Q 37.359375 48.484375 30.078125 48.484375 
Q 22.859375 48.484375 18.828125 43.109375 
Q 14.796875 37.75 14.796875 27.984375 
Q 14.796875 18.265625 18.828125 12.890625 
Q 22.859375 7.515625 30.078125 7.515625 
Q 37.359375 7.515625 41.375 12.890625 
Q 45.40625 18.265625 45.40625 27.984375 
z
M 54.390625 6.78125 
Q 54.390625 -7.171875 48.1875 -13.984375 
Q 42 -20.796875 29.203125 -20.796875 
Q 24.46875 -20.796875 20.265625 -20.09375 
Q 16.0625 -19.390625 12.109375 -17.921875 
L 12.109375 -9.1875 
Q 16.0625 -11.328125 19.921875 -12.34375 
Q 23.78125 -13.375 27.78125 -13.375 
Q 36.625 -13.375 41.015625 -8.765625 
Q 45.40625 -4.15625 45.40625 5.171875 
L 45.40625 9.625 
Q 42.625 4.78125 38.28125 2.390625 
Q 33.9375 0 27.875 0 
Q 17.828125 0 11.671875 7.65625 
Q 5.515625 15.328125 5.515625 27.984375 
Q 5.515625 40.671875 11.671875 48.328125 
Q 17.828125 56 27.875 56 
Q 33.9375 56 38.28125 53.609375 
Q 42.625 51.21875 45.40625 46.390625 
L 45.40625 54.6875 
L 54.390625 54.6875 
z
" id="DejaVuSans-103"/>
      <path d="M 48.6875 27.296875 
Q 48.6875 37.203125 44.609375 42.84375 
Q 40.53125 48.484375 33.40625 48.484375 
Q 26.265625 48.484375 22.1875 42.84375 
Q 18.109375 37.203125 18.109375 27.296875 
Q 18.109375 17.390625 22.1875 11.75 
Q 26.265625 6.109375 33.40625 6.109375 
Q 40.53125 6.109375 44.609375 11.75 
Q 48.6875 17.390625 48.6875 27.296875 
z
M 18.109375 46.390625 
Q 20.953125 51.265625 25.265625 53.625 
Q 29.59375 56 35.59375 56 
Q 45.5625 56 51.78125 48.09375 
Q 58.015625 40.1875 58.015625 27.296875 
Q 58.015625 14.40625 51.78125 6.484375 
Q 45.5625 -1.421875 35.59375 -1.421875 
Q 29.59375 -1.421875 25.265625 0.953125 
Q 20.953125 3.328125 18.109375 8.203125 
L 18.109375 0 
L 9.078125 0 
L 9.078125 75.984375 
L 18.109375 75.984375 
z
" id="DejaVuSans-98"/>
      <path d="M 34.28125 27.484375 
Q 23.390625 27.484375 19.1875 25 
Q 14.984375 22.515625 14.984375 16.5 
Q 14.984375 11.71875 18.140625 8.90625 
Q 21.296875 6.109375 26.703125 6.109375 
Q 34.1875 6.109375 38.703125 11.40625 
Q 43.21875 16.703125 43.21875 25.484375 
L 43.21875 27.484375 
z
M 52.203125 31.203125 
L 52.203125 0 
L 43.21875 0 
L 43.21875 8.296875 
Q 40.140625 3.328125 35.546875 0.953125 
Q 30.953125 -1.421875 24.3125 -1.421875 
Q 15.921875 -1.421875 10.953125 3.296875 
Q 6 8.015625 6 15.921875 
Q 6 25.140625 12.171875 29.828125 
Q 18.359375 34.515625 30.609375 34.515625 
L 43.21875 34.515625 
L 43.21875 35.40625 
Q 43.21875 41.609375 39.140625 45 
Q 35.0625 48.390625 27.6875 48.390625 
Q 23 48.390625 18.546875 47.265625 
Q 14.109375 46.140625 10.015625 43.890625 
L 10.015625 52.203125 
Q 14.9375 54.109375 19.578125 55.046875 
Q 24.21875 56 28.609375 56 
Q 40.484375 56 46.34375 49.84375 
Q 52.203125 43.703125 52.203125 31.203125 
z
" id="DejaVuSans-97"/>
     </defs>
     <g transform="translate(191.114062 280.474375)scale(0.1 -0.1)">
      <use xlink:href="#DejaVuSans-32"/>
      <use x="31.787109" xlink:href="#DejaVuSans-108"/>
      <use x="59.570312" xlink:href="#DejaVuSans-111"/>
      <use x="120.751953" xlink:href="#DejaVuSans-103"/>
      <use x="184.228516" xlink:href="#DejaVuSans-32"/>
      <use x="216.015625" xlink:href="#DejaVuSans-40"/>
      <use x="255.029297" xlink:href="#DejaVuSans-98"/>
      <use x="318.505859" xlink:href="#DejaVuSans-97"/>
      <use x="379.785156" xlink:href="#DejaVuSans-115"/>
      <use x="431.884766" xlink:href="#DejaVuSans-101"/>
      <use x="493.408203" xlink:href="#DejaVuSans-32"/>
      <use x="525.195312" xlink:href="#DejaVuSans-49"/>
      <use x="588.818359" xlink:href="#DejaVuSans-48"/>
      <use x="652.441406" xlink:href="#DejaVuSans-41"/>
     </g>
    </g>
   </g>
   <g id="matplotlib.axis_2">
    <g id="ytick_1">
     <g id="line2d_65">
      <path clip-path="url(#p2599a0df0a)" d="M 52.875 231.569393 
L 398.5 231.569393 
" style="fill:none;stroke:#b0b0b0;stroke-dasharray:3.7,1.6;stroke-dashoffset:0;"/>
     </g>
     <g id="line2d_66">
      <defs>
       <path d="M 0 0 
L -3.5 0 
" id="m5f81c87eb0" style="stroke:#000000;stroke-width:0.8;"/>
      </defs>
      <g>
       <use style="stroke:#000000;stroke-width:0.8;" x="52.875" xlink:href="#m5f81c87eb0" y="231.569393"/>
      </g>
     </g>
     <g id="text_9">
      <!-- 0.0 -->
      <defs>
       <path d="M 10.6875 12.40625 
L 21 12.40625 
L 21 0 
L 10.6875 0 
z
" id="DejaVuSans-46"/>
      </defs>
      <g transform="translate(29.971875 235.368612)scale(0.1 -0.1)">
       <use xlink:href="#DejaVuSans-48"/>
       <use x="63.623047" xlink:href="#DejaVuSans-46"/>
       <use x="95.410156" xlink:href="#DejaVuSans-48"/>
      </g>
     </g>
    </g>
    <g id="ytick_2">
     <g id="line2d_67">
      <path clip-path="url(#p2599a0df0a)" d="M 52.875 193.841878 
L 398.5 193.841878 
" style="fill:none;stroke:#b0b0b0;stroke-dasharray:3.7,1.6;stroke-dashoffset:0;"/>
     </g>
     <g id="line2d_68">
      <g>
       <use style="stroke:#000000;stroke-width:0.8;" x="52.875" xlink:href="#m5f81c87eb0" y="193.841878"/>
      </g>
     </g>
     <g id="text_10">
      <!-- 0.2 -->
      <g transform="translate(29.971875 197.641097)scale(0.1 -0.1)">
       <use xlink:href="#DejaVuSans-48"/>
       <use x="63.623047" xlink:href="#DejaVuSans-46"/>
       <use x="95.410156" xlink:href="#DejaVuSans-50"/>
      </g>
     </g>
    </g>
    <g id="ytick_3">
     <g id="line2d_69">
      <path clip-path="url(#p2599a0df0a)" d="M 52.875 156.114363 
L 398.5 156.114363 
" style="fill:none;stroke:#b0b0b0;stroke-dasharray:3.7,1.6;stroke-dashoffset:0;"/>
     </g>
     <g id="line2d_70">
      <g>
       <use style="stroke:#000000;stroke-width:0.8;" x="52.875" xlink:href="#m5f81c87eb0" y="156.114363"/>
      </g>
     </g>
     <g id="text_11">
      <!-- 0.4 -->
      <g transform="translate(29.971875 159.913582)scale(0.1 -0.1)">
       <use xlink:href="#DejaVuSans-48"/>
       <use x="63.623047" xlink:href="#DejaVuSans-46"/>
       <use x="95.410156" xlink:href="#DejaVuSans-52"/>
      </g>
     </g>
    </g>
    <g id="ytick_4">
     <g id="line2d_71">
      <path clip-path="url(#p2599a0df0a)" d="M 52.875 118.386848 
L 398.5 118.386848 
" style="fill:none;stroke:#b0b0b0;stroke-dasharray:3.7,1.6;stroke-dashoffset:0;"/>
     </g>
     <g id="line2d_72">
      <g>
       <use style="stroke:#000000;stroke-width:0.8;" x="52.875" xlink:href="#m5f81c87eb0" y="118.386848"/>
      </g>
     </g>
     <g id="text_12">
      <!-- 0.6 -->
      <defs>
       <path d="M 33.015625 40.375 
Q 26.375 40.375 22.484375 35.828125 
Q 18.609375 31.296875 18.609375 23.390625 
Q 18.609375 15.53125 22.484375 10.953125 
Q 26.375 6.390625 33.015625 6.390625 
Q 39.65625 6.390625 43.53125 10.953125 
Q 47.40625 15.53125 47.40625 23.390625 
Q 47.40625 31.296875 43.53125 35.828125 
Q 39.65625 40.375 33.015625 40.375 
z
M 52.59375 71.296875 
L 52.59375 62.3125 
Q 48.875 64.0625 45.09375 64.984375 
Q 41.3125 65.921875 37.59375 65.921875 
Q 27.828125 65.921875 22.671875 59.328125 
Q 17.53125 52.734375 16.796875 39.40625 
Q 19.671875 43.65625 24.015625 45.921875 
Q 28.375 48.1875 33.59375 48.1875 
Q 44.578125 48.1875 50.953125 41.515625 
Q 57.328125 34.859375 57.328125 23.390625 
Q 57.328125 12.15625 50.6875 5.359375 
Q 44.046875 -1.421875 33.015625 -1.421875 
Q 20.359375 -1.421875 13.671875 8.265625 
Q 6.984375 17.96875 6.984375 36.375 
Q 6.984375 53.65625 15.1875 63.9375 
Q 23.390625 74.21875 37.203125 74.21875 
Q 40.921875 74.21875 44.703125 73.484375 
Q 48.484375 72.75 52.59375 71.296875 
z
" id="DejaVuSans-54"/>
      </defs>
      <g transform="translate(29.971875 122.186067)scale(0.1 -0.1)">
       <use xlink:href="#DejaVuSans-48"/>
       <use x="63.623047" xlink:href="#DejaVuSans-46"/>
       <use x="95.410156" xlink:href="#DejaVuSans-54"/>
      </g>
     </g>
    </g>
    <g id="ytick_5">
     <g id="line2d_73">
      <path clip-path="url(#p2599a0df0a)" d="M 52.875 80.659333 
L 398.5 80.659333 
" style="fill:none;stroke:#b0b0b0;stroke-dasharray:3.7,1.6;stroke-dashoffset:0;"/>
     </g>
     <g id="line2d_74">
      <g>
       <use style="stroke:#000000;stroke-width:0.8;" x="52.875" xlink:href="#m5f81c87eb0" y="80.659333"/>
      </g>
     </g>
     <g id="text_13">
      <!-- 0.8 -->
      <defs>
       <path d="M 31.78125 34.625 
Q 24.75 34.625 20.71875 30.859375 
Q 16.703125 27.09375 16.703125 20.515625 
Q 16.703125 13.921875 20.71875 10.15625 
Q 24.75 6.390625 31.78125 6.390625 
Q 38.8125 6.390625 42.859375 10.171875 
Q 46.921875 13.96875 46.921875 20.515625 
Q 46.921875 27.09375 42.890625 30.859375 
Q 38.875 34.625 31.78125 34.625 
z
M 21.921875 38.8125 
Q 15.578125 40.375 12.03125 44.71875 
Q 8.5 49.078125 8.5 55.328125 
Q 8.5 64.0625 14.71875 69.140625 
Q 20.953125 74.21875 31.78125 74.21875 
Q 42.671875 74.21875 48.875 69.140625 
Q 55.078125 64.0625 55.078125 55.328125 
Q 55.078125 49.078125 51.53125 44.71875 
Q 48 40.375 41.703125 38.8125 
Q 48.828125 37.15625 52.796875 32.3125 
Q 56.78125 27.484375 56.78125 20.515625 
Q 56.78125 9.90625 50.3125 4.234375 
Q 43.84375 -1.421875 31.78125 -1.421875 
Q 19.734375 -1.421875 13.25 4.234375 
Q 6.78125 9.90625 6.78125 20.515625 
Q 6.78125 27.484375 10.78125 32.3125 
Q 14.796875 37.15625 21.921875 38.8125 
z
M 18.3125 54.390625 
Q 18.3125 48.734375 21.84375 45.5625 
Q 25.390625 42.390625 31.78125 42.390625 
Q 38.140625 42.390625 41.71875 45.5625 
Q 45.3125 48.734375 45.3125 54.390625 
Q 45.3125 60.0625 41.71875 63.234375 
Q 38.140625 66.40625 31.78125 66.40625 
Q 25.390625 66.40625 21.84375 63.234375 
Q 18.3125 60.0625 18.3125 54.390625 
z
" id="DejaVuSans-56"/>
      </defs>
      <g transform="translate(29.971875 84.458552)scale(0.1 -0.1)">
       <use xlink:href="#DejaVuSans-48"/>
       <use x="63.623047" xlink:href="#DejaVuSans-46"/>
       <use x="95.410156" xlink:href="#DejaVuSans-56"/>
      </g>
     </g>
    </g>
    <g id="ytick_6">
     <g id="line2d_75">
      <path clip-path="url(#p2599a0df0a)" d="M 52.875 42.931818 
L 398.5 42.931818 
" style="fill:none;stroke:#b0b0b0;stroke-dasharray:3.7,1.6;stroke-dashoffset:0;"/>
     </g>
     <g id="line2d_76">
      <g>
       <use style="stroke:#000000;stroke-width:0.8;" x="52.875" xlink:href="#m5f81c87eb0" y="42.931818"/>
      </g>
     </g>
     <g id="text_14">
      <!-- 1.0 -->
      <g transform="translate(29.971875 46.731037)scale(0.1 -0.1)">
       <use xlink:href="#DejaVuSans-49"/>
       <use x="63.623047" xlink:href="#DejaVuSans-46"/>
       <use x="95.410156" xlink:href="#DejaVuSans-48"/>
      </g>
     </g>
    </g>
    <g id="text_15">
     <!-- Fraction of Requests -->
     <defs>
      <path d="M 9.8125 72.90625 
L 51.703125 72.90625 
L 51.703125 64.59375 
L 19.671875 64.59375 
L 19.671875 43.109375 
L 48.578125 43.109375 
L 48.578125 34.8125 
L 19.671875 34.8125 
L 19.671875 0 
L 9.8125 0 
z
" id="DejaVuSans-70"/>
      <path d="M 41.109375 46.296875 
Q 39.59375 47.171875 37.8125 47.578125 
Q 36.03125 48 33.890625 48 
Q 26.265625 48 22.1875 43.046875 
Q 18.109375 38.09375 18.109375 28.8125 
L 18.109375 0 
L 9.078125 0 
L 9.078125 54.6875 
L 18.109375 54.6875 
L 18.109375 46.1875 
Q 20.953125 51.171875 25.484375 53.578125 
Q 30.03125 56 36.53125 56 
Q 37.453125 56 38.578125 55.875 
Q 39.703125 55.765625 41.0625 55.515625 
z
" id="DejaVuSans-114"/>
      <path d="M 48.78125 52.59375 
L 48.78125 44.1875 
Q 44.96875 46.296875 41.140625 47.34375 
Q 37.3125 48.390625 33.40625 48.390625 
Q 24.65625 48.390625 19.8125 42.84375 
Q 14.984375 37.3125 14.984375 27.296875 
Q 14.984375 17.28125 19.8125 11.734375 
Q 24.65625 6.203125 33.40625 6.203125 
Q 37.3125 6.203125 41.140625 7.25 
Q 44.96875 8.296875 48.78125 10.40625 
L 48.78125 2.09375 
Q 45.015625 0.34375 40.984375 -0.53125 
Q 36.96875 -1.421875 32.421875 -1.421875 
Q 20.0625 -1.421875 12.78125 6.34375 
Q 5.515625 14.109375 5.515625 27.296875 
Q 5.515625 40.671875 12.859375 48.328125 
Q 20.21875 56 33.015625 56 
Q 37.15625 56 41.109375 55.140625 
Q 45.0625 54.296875 48.78125 52.59375 
z
" id="DejaVuSans-99"/>
      <path d="M 18.3125 70.21875 
L 18.3125 54.6875 
L 36.8125 54.6875 
L 36.8125 47.703125 
L 18.3125 47.703125 
L 18.3125 18.015625 
Q 18.3125 11.328125 20.140625 9.421875 
Q 21.96875 7.515625 27.59375 7.515625 
L 36.8125 7.515625 
L 36.8125 0 
L 27.59375 0 
Q 17.1875 0 13.234375 3.875 
Q 9.28125 7.765625 9.28125 18.015625 
L 9.28125 47.703125 
L 2.6875 47.703125 
L 2.6875 54.6875 
L 9.28125 54.6875 
L 9.28125 70.21875 
z
" id="DejaVuSans-116"/>
      <path d="M 54.890625 33.015625 
L 54.890625 0 
L 45.90625 0 
L 45.90625 32.71875 
Q 45.90625 40.484375 42.875 44.328125 
Q 39.84375 48.1875 33.796875 48.1875 
Q 26.515625 48.1875 22.3125 43.546875 
Q 18.109375 38.921875 18.109375 30.90625 
L 18.109375 0 
L 9.078125 0 
L 9.078125 54.6875 
L 18.109375 54.6875 
L 18.109375 46.1875 
Q 21.34375 51.125 25.703125 53.5625 
Q 30.078125 56 35.796875 56 
Q 45.21875 56 50.046875 50.171875 
Q 54.890625 44.34375 54.890625 33.015625 
z
" id="DejaVuSans-110"/>
      <path d="M 37.109375 75.984375 
L 37.109375 68.5 
L 28.515625 68.5 
Q 23.6875 68.5 21.796875 66.546875 
Q 19.921875 64.59375 19.921875 59.515625 
L 19.921875 54.6875 
L 34.71875 54.6875 
L 34.71875 47.703125 
L 19.921875 47.703125 
L 19.921875 0 
L 10.890625 0 
L 10.890625 47.703125 
L 2.296875 47.703125 
L 2.296875 54.6875 
L 10.890625 54.6875 
L 10.890625 58.5 
Q 10.890625 67.625 15.140625 71.796875 
Q 19.390625 75.984375 28.609375 75.984375 
z
" id="DejaVuSans-102"/>
      <path d="M 44.390625 34.1875 
Q 47.5625 33.109375 50.5625 29.59375 
Q 53.5625 26.078125 56.59375 19.921875 
L 66.609375 0 
L 56 0 
L 46.6875 18.703125 
Q 43.0625 26.03125 39.671875 28.421875 
Q 36.28125 30.8125 30.421875 30.8125 
L 19.671875 30.8125 
L 19.671875 0 
L 9.8125 0 
L 9.8125 72.90625 
L 32.078125 72.90625 
Q 44.578125 72.90625 50.734375 67.671875 
Q 56.890625 62.453125 56.890625 51.90625 
Q 56.890625 45.015625 53.6875 40.46875 
Q 50.484375 35.9375 44.390625 34.1875 
z
M 19.671875 64.796875 
L 19.671875 38.921875 
L 32.078125 38.921875 
Q 39.203125 38.921875 42.84375 42.21875 
Q 46.484375 45.515625 46.484375 51.90625 
Q 46.484375 58.296875 42.84375 61.546875 
Q 39.203125 64.796875 32.078125 64.796875 
z
" id="DejaVuSans-82"/>
      <path d="M 14.796875 27.296875 
Q 14.796875 17.390625 18.875 11.75 
Q 22.953125 6.109375 30.078125 6.109375 
Q 37.203125 6.109375 41.296875 11.75 
Q 45.40625 17.390625 45.40625 27.296875 
Q 45.40625 37.203125 41.296875 42.84375 
Q 37.203125 48.484375 30.078125 48.484375 
Q 22.953125 48.484375 18.875 42.84375 
Q 14.796875 37.203125 14.796875 27.296875 
z
M 45.40625 8.203125 
Q 42.578125 3.328125 38.25 0.953125 
Q 33.9375 -1.421875 27.875 -1.421875 
Q 17.96875 -1.421875 11.734375 6.484375 
Q 5.515625 14.40625 5.515625 27.296875 
Q 5.515625 40.1875 11.734375 48.09375 
Q 17.96875 56 27.875 56 
Q 33.9375 56 38.25 53.625 
Q 42.578125 51.265625 45.40625 46.390625 
L 45.40625 54.6875 
L 54.390625 54.6875 
L 54.390625 -20.796875 
L 45.40625 -20.796875 
z
" id="DejaVuSans-113"/>
      <path d="M 8.5 21.578125 
L 8.5 54.6875 
L 17.484375 54.6875 
L 17.484375 21.921875 
Q 17.484375 14.15625 20.5 10.265625 
Q 23.53125 6.390625 29.59375 6.390625 
Q 36.859375 6.390625 41.078125 11.03125 
Q 45.3125 15.671875 45.3125 23.6875 
L 45.3125 54.6875 
L 54.296875 54.6875 
L 54.296875 0 
L 45.3125 0 
L 45.3125 8.40625 
Q 42.046875 3.421875 37.71875 1 
Q 33.40625 -1.421875 27.6875 -1.421875 
Q 18.265625 -1.421875 13.375 4.4375 
Q 8.5 10.296875 8.5 21.578125 
z
M 31.109375 56 
z
" id="DejaVuSans-117"/>
     </defs>
     <g transform="translate(23.892187 188.700781)rotate(-90)scale(0.1 -0.1)">
      <use xlink:href="#DejaVuSans-70"/>
      <use x="57.410156" xlink:href="#DejaVuSans-114"/>
      <use x="98.523438" xlink:href="#DejaVuSans-97"/>
      <use x="159.802734" xlink:href="#DejaVuSans-99"/>
      <use x="214.783203" xlink:href="#DejaVuSans-116"/>
      <use x="253.992188" xlink:href="#DejaVuSans-105"/>
      <use x="281.775391" xlink:href="#DejaVuSans-111"/>
      <use x="342.957031" xlink:href="#DejaVuSans-110"/>
      <use x="406.335938" xlink:href="#DejaVuSans-32"/>
      <use x="438.123047" xlink:href="#DejaVuSans-111"/>
      <use x="499.304688" xlink:href="#DejaVuSans-102"/>
      <use x="534.509766" xlink:href="#DejaVuSans-32"/>
      <use x="566.296875" xlink:href="#DejaVuSans-82"/>
      <use x="635.716797" xlink:href="#DejaVuSans-101"/>
      <use x="697.240234" xlink:href="#DejaVuSans-113"/>
      <use x="760.716797" xlink:href="#DejaVuSans-117"/>
      <use x="824.095703" xlink:href="#DejaVuSans-101"/>
      <use x="885.619141" xlink:href="#DejaVuSans-115"/>
      <use x="937.71875" xlink:href="#DejaVuSans-116"/>
      <use x="976.927734" xlink:href="#DejaVuSans-115"/>
     </g>
    </g>
   </g>
   <g id="line2d_77">
    <path clip-path="url(#p2599a0df0a)" d="M 68.585227 231.568145 
L 142.692587 231.378478 
L 143.491087 231.232484 
L 144.970571 231.039074 
L 146.15268 230.719635 
L 146.350717 230.639775 
L 146.748405 230.451356 
L 148.810004 228.997658 
L 148.99907 228.845425 
L 149.343792 228.530977 
L 149.774946 228.121696 
L 151.758486 225.784549 
L 152.246403 225.033368 
L 152.52226 224.488075 
L 152.920183 223.655786 
L 153.029828 223.43742 
L 155.341072 216.740427 
L 155.929693 214.241065 
L 156.426646 211.999999 
L 156.858467 209.771412 
L 157.132305 208.284023 
L 157.728024 204.904955 
L 158.293311 201.386133 
L 159.008765 196.666918 
L 160.16175 188.11069 
L 160.763083 183.304128 
L 162.814015 166.05566 
L 163.600353 159.172744 
L 168.943654 112.196466 
L 171.584274 94.91805 
L 171.873283 93.378254 
L 172.341426 90.82274 
L 172.480762 90.102754 
L 175.28472 77.924135 
L 175.35718 77.65336 
L 175.702738 76.465446 
L 175.896616 75.84778 
L 177.636542 70.545839 
L 177.704 70.364906 
L 178.344168 68.755232 
L 178.524704 68.256108 
L 178.593123 68.07268 
L 178.832751 67.518653 
L 179.083393 66.953395 
L 179.273402 66.491706 
L 179.565457 65.825376 
L 180.554948 63.842607 
L 181.006979 62.91798 
L 181.310773 62.391405 
L 181.391441 62.239172 
L 183.687532 58.679172 
L 183.829294 58.494496 
L 184.25635 57.946708 
L 184.637473 57.442593 
L 184.793511 57.241696 
L 185.15066 56.802467 
L 185.354952 56.5841 
L 185.55496 56.342025 
L 189.277831 52.858141 
L 190.067819 52.280406 
L 190.246882 52.141899 
L 190.565856 51.934762 
L 191.31608 51.4007 
L 191.572602 51.224759 
L 192.132881 50.849168 
L 194.538087 49.432905 
L 195.1759 49.088509 
L 195.312998 49.029862 
L 195.498233 48.953746 
L 196.20962 48.571916 
L 196.40673 48.470844 
L 198.056033 47.718415 
L 198.490436 47.564934 
L 199.347034 47.271699 
L 200.658996 46.831222 
L 202.950857 46.103749 
L 203.693222 45.939039 
L 209.057117 44.927065 
L 209.994093 44.791054 
L 211.83924 44.588909 
L 213.855694 44.374286 
L 215.089825 44.275709 
L 218.361208 44.048608 
L 218.559641 44.033634 
L 239.611462 43.15268 
L 305.68817 42.931818 
L 305.68817 42.931818 
" style="fill:none;stroke:#00aff0;stroke-dasharray:7.4,3.2;stroke-dashoffset:0;stroke-width:2;"/>
   </g>
   <g id="line2d_78">
    <path clip-path="url(#p2599a0df0a)" d="M 136.562 231.568145 
L 145.528137 231.450858 
L 150.029957 230.928057 
L 150.293431 230.879395 
L 151.066878 230.710951 
L 152.081418 230.364081 
L 152.749735 230.015963 
L 153.029828 229.832546 
L 154.33608 229.052711 
L 154.85307 228.783201 
L 155.114272 228.637216 
L 155.480616 228.311557 
L 155.797181 228.059514 
L 156.03079 227.87984 
L 156.288189 227.660239 
L 156.858467 227.204816 
L 157.378181 226.68451 
L 158.724362 225.617697 
L 159.03199 225.404334 
L 159.347171 225.178494 
L 159.552485 225.038748 
L 159.741031 224.875294 
L 161.056396 223.640037 
L 164.028035 219.28045 
L 164.343078 218.727704 
L 164.742567 218.072643 
L 165.111499 217.460005 
L 165.246157 217.204219 
L 165.519121 216.687657 
L 165.806501 216.104965 
L 166.328366 214.993233 
L 166.947721 213.675625 
L 167.278912 212.948195 
L 167.619096 212.128433 
L 169.276253 208.02588 
L 169.626664 206.965306 
L 169.728321 206.70952 
L 172.893967 196.778797 
L 173.764442 193.29013 
L 173.824977 193.049317 
L 174.22194 191.688038 
L 174.565981 190.560085 
L 174.845288 189.529456 
L 174.929045 189.248716 
L 175.198264 188.361576 
L 175.528642 187.223642 
L 176.043375 185.419417 
L 176.226982 184.814265 
L 176.85781 182.587058 
L 177.187934 181.405453 
L 177.294567 181.073556 
L 178.217844 177.713405 
L 178.418267 177.017169 
L 178.783661 175.619706 
L 179.049902 174.595315 
L 179.131872 174.274647 
L 180.368545 169.237541 
L 180.430313 168.992985 
L 187.376015 136.654188 
L 187.451619 136.327282 
L 187.961562 134.226096 
L 188.015765 134.007742 
L 188.223365 133.068198 
L 188.575917 131.535979 
L 188.82221 130.491625 
L 189.73137 126.92435 
L 189.800964 126.674803 
L 190.112183 125.513162 
L 190.181732 125.259872 
L 190.676396 123.450656 
L 191.007018 122.360136 
L 191.961581 119.267 
L 192.06587 118.956314 
L 192.285625 118.265069 
L 192.393311 117.946897 
L 192.653784 117.175796 
L 192.704024 117.012343 
L 193.12919 115.783324 
L 193.269249 115.412747 
L 193.492018 114.818825 
L 195.044883 110.910919 
L 195.828748 108.93825 
L 196.023239 108.445394 
L 196.224337 107.940062 
L 197.15496 105.454573 
L 197.330419 104.967957 
L 198.424173 101.839885 
L 198.492666 101.640247 
L 198.658617 101.08251 
L 198.778655 100.73564 
L 199.085211 99.748681 
L 199.221889 99.293258 
L 199.391467 98.688106 
L 199.777841 97.25945 
L 199.832029 97.064803 
L 200.240449 95.491409 
L 200.330805 95.09962 
L 200.77551 93.07829 
L 200.92909 92.368328 
L 200.99614 92.010228 
L 201.254528 90.619004 
L 203.073944 79.700074 
L 203.344349 78.085505 
L 204.382459 72.372127 
L 204.428329 72.160012 
L 206.148136 65.251303 
L 206.21229 65.01049 
L 206.387163 64.425302 
L 206.70413 63.475776 
L 209.306771 57.603935 
L 209.465194 57.27578 
L 210.076232 55.968154 
L 210.172693 55.771012 
L 210.385268 55.36425 
L 210.615237 54.945011 
L 211.011007 54.167672 
L 211.105534 53.986751 
L 211.456182 53.321708 
L 211.542508 53.166989 
L 211.824342 52.689106 
L 212.082263 52.282345 
L 212.335765 51.878078 
L 213.148725 50.859927 
L 213.284911 50.723924 
L 213.483179 50.468138 
L 213.639198 50.277234 
L 214.026016 49.87172 
L 214.246752 49.703276 
L 214.873393 49.189209 
L 215.603591 48.657674 
L 215.781087 48.526662 
L 216.394613 48.14236 
L 216.547141 48.057514 
L 216.990396 47.781764 
L 217.123493 47.704405 
L 217.491534 47.53097 
L 217.669284 47.42616 
L 218.059946 47.24399 
L 218.355376 47.114226 
L 218.874701 46.902111 
L 219.030531 46.839724 
L 221.126274 46.202132 
L 222.779403 45.792875 
L 223.14667 45.699295 
L 224.239384 45.544575 
L 226.060742 45.253853 
L 227.619127 44.96937 
L 228.667135 44.810907 
L 228.799233 44.794687 
L 229.882653 44.607526 
L 230.457167 44.486496 
L 231.519517 44.294345 
L 231.79587 44.220728 
L 232.730808 44.019843 
L 232.924949 43.98865 
L 234.158312 43.785269 
L 234.413903 43.749085 
L 240.845243 43.317368 
L 241.58187 43.269954 
L 256.85352 43.005435 
L 328.092427 42.931818 
L 328.092427 42.931818 
" style="fill:none;stroke:#800000;stroke-dasharray:7.4,3.2;stroke-dashoffset:0;stroke-width:2;"/>
   </g>
   <g id="line2d_79">
    <path clip-path="url(#p2599a0df0a)" d="M 113.350657 231.568182 
L 155.792752 231.371986 
L 156.28385 231.345342 
L 157.564029 231.179423 
L 157.821814 231.092225 
L 158.712601 230.892396 
L 159.024251 230.825786 
L 159.646944 230.675611 
L 161.293414 230.030102 
L 161.528106 229.836329 
L 161.736342 229.692209 
L 161.911928 229.550512 
L 162.323431 229.275596 
L 162.863514 229.067289 
L 163.501055 228.317626 
L 163.99976 228.079042 
L 164.321377 227.87558 
L 164.897485 227.664851 
L 165.281938 227.448067 
L 165.68962 227.259137 
L 166.527178 227.026609 
L 167.058628 226.900656 
L 167.317254 226.820724 
L 167.807506 226.723837 
L 178.283685 224.939907 
L 179.535919 224.777622 
L 191.094283 223.600446 
L 191.851929 223.178988 
L 193.246117 221.283638 
L 193.436979 220.874291 
L 193.627242 220.439511 
L 193.797917 220.04833 
L 194.001493 219.590539 
L 194.369979 218.561116 
L 194.9692 216.594312 
L 195.393527 214.84187 
L 195.577302 213.980788 
L 196.020766 211.591315 
L 196.06524 211.332143 
L 196.500639 208.473979 
L 196.577274 207.893869 
L 196.855923 205.630349 
L 197.096712 203.489148 
L 197.313243 201.542933 
L 199.679709 174.648342 
L 199.935839 171.663014 
L 200.030837 170.589992 
L 200.325986 167.390302 
L 202.547646 148.832828 
L 202.577747 148.649954 
L 203.91175 141.561467 
L 203.943144 141.411292 
L 204.122425 140.574432 
L 204.230872 140.097264 
L 204.539444 138.878911 
L 205.348938 135.961404 
L 205.556789 135.248075 
L 205.73046 134.705508 
L 206.043179 133.828681 
L 206.16972 133.521066 
L 207.601645 130.033137 
L 207.751041 129.673445 
L 208.692974 127.700585 
L 208.822214 127.448679 
L 209.303933 126.539154 
L 209.732964 125.811291 
L 209.871048 125.583607 
L 209.956832 125.439487 
L 210.274674 124.915087 
L 210.608966 124.469407 
L 210.874493 124.07096 
L 212.150406 122.513503 
L 212.306154 122.329418 
L 212.488658 122.140489 
L 212.904957 121.726297 
L 213.078926 121.580967 
L 213.90844 120.906392 
L 214.135672 120.733206 
L 215.209881 120.047732 
L 215.34625 119.977489 
L 216.537702 119.323502 
L 216.780874 119.180594 
L 217.744537 118.641661 
L 221.87386 116.616724 
L 222.758653 116.330908 
L 222.873762 116.293364 
L 223.218447 116.200111 
L 224.069503 116.001493 
L 224.173152 115.968793 
L 224.893293 115.802875 
L 225.78582 115.604256 
L 226.75895 115.433493 
L 227.219544 115.359617 
L 228.162961 115.191276 
L 228.268119 114.982969 
L 228.429248 114.801306 
L 228.665871 114.67172 
L 228.989063 114.407703 
L 229.212625 114.267217 
L 229.617577 114.098876 
L 229.814501 113.591431 
L 230.172524 113.457001 
L 230.312123 113.42309 
L 230.848869 113.148174 
L 231.370638 112.921701 
L 231.492024 112.859935 
L 231.775166 112.714605 
L 232.014567 112.576541 
L 232.370047 112.289514 
L 232.873603 111.924977 
L 233.020291 111.845045 
L 233.627667 111.507152 
L 233.787675 111.413898 
L 234.377438 111.143826 
L 234.550647 111.056628 
L 235.709453 110.627903 
L 240.204863 109.969072 
L 244.441644 109.702633 
L 246.225089 109.541559 
L 247.10115 109.468894 
L 249.393446 109.401073 
L 269.98556 109.154011 
L 270.599728 108.417671 
L 270.759357 107.958669 
L 270.814718 107.735829 
L 270.96714 107.04551 
L 271.022417 106.72215 
L 271.158557 105.868335 
L 271.256925 105.204659 
L 271.674748 101.022779 
L 271.773904 99.797159 
L 272.273008 92.702616 
L 273.129593 79.437589 
L 273.29015 77.204346 
L 273.460777 74.995325 
L 273.785234 71.007218 
L 273.970611 69.12519 
L 274.12082 67.631921 
L 274.332083 65.70145 
L 274.359011 65.462866 
L 274.498966 64.313545 
L 274.529175 64.087072 
L 274.720296 62.524771 
L 275.112043 59.763494 
L 275.393084 58.004997 
L 275.580623 56.967096 
L 275.620328 56.776956 
L 277.249712 50.573772 
L 278.983161 47.759208 
L 279.148815 47.578756 
L 279.302071 47.439481 
L 279.741123 47.076155 
L 280.062218 46.843627 
L 280.217637 46.73584 
L 280.472473 46.571132 
L 281.259562 46.158152 
L 281.847286 45.860225 
L 283.345565 45.337035 
L 283.452274 45.300703 
L 284.041791 45.148106 
L 284.721704 44.971287 
L 285.575199 44.776302 
L 285.906186 44.723015 
L 286.726192 44.577684 
L 291.015585 44.036329 
L 292.519057 43.898265 
L 293.072727 43.842555 
L 295.851481 43.675425 
L 296.005154 43.664525 
L 308.576858 43.312099 
L 318.295032 43.205524 
L 382.789773 42.931818 
L 382.789773 42.931818 
" style="fill:none;stroke:#ff5500;stroke-dasharray:7.4,3.2;stroke-dashoffset:0;stroke-width:2;"/>
   </g>
   <g id="line2d_80">
    <path clip-path="url(#p2599a0df0a)" d="M 275.125245 231.568125 
L 285.394665 231.440033 
L 286.027718 231.0101 
L 286.263695 230.734893 
L 286.467758 230.44954 
L 286.984974 229.139451 
L 287.821552 223.686032 
L 287.951447 222.325213 
L 288.253863 218.757663 
L 288.439086 216.058854 
L 288.492105 215.219281 
L 288.701986 211.593392 
L 288.737762 210.97576 
L 289.445682 195.784817 
L 289.607433 191.914158 
L 289.920955 184.652232 
L 290.075493 181.250821 
L 290.108613 180.486074 
L 290.281014 176.770139 
L 290.464193 172.966697 
L 290.555989 171.163264 
L 290.731593 167.72 
L 290.797159 166.525321 
L 291.105463 161.203798 
L 291.139956 160.744696 
L 291.482025 156.009099 
L 291.610795 154.465655 
L 292.184391 148.943751 
L 292.906985 144.918367 
L 292.999888 144.597503 
L 293.158111 144.077525 
L 293.226603 143.907582 
L 293.380073 143.567694 
L 293.505601 143.379995 
L 294.799085 141.712263 
L 294.934588 141.551197 
L 295.064893 141.382522 
L 295.860001 140.558168 
L 296.004712 140.416125 
L 296.133461 140.274083 
L 296.318987 140.080042 
L 296.534515 139.898684 
L 297.094299 139.519482 
L 297.208344 139.457338 
L 297.613363 139.278517 
L 298.839156 139.07433 
L 299.904998 139.015991 
L 330.359946 138.654544 
L 333.519408 138.518843 
L 334.662984 137.915162 
L 335.259354 136.66468 
L 335.406508 136.151044 
L 335.456012 135.954467 
L 336.478431 129.359635 
L 336.612109 127.712195 
L 336.659464 126.999446 
L 337.225396 113.208636 
L 337.395122 107.708292 
L 337.578866 101.94035 
L 337.914708 91.23643 
L 337.942172 90.27257 
L 338.162832 81.190724 
L 338.218575 78.682152 
L 338.340427 72.983963 
L 338.601573 62.567932 
L 338.654303 60.849471 
L 338.80937 56.467712 
L 338.854937 55.412539 
L 338.988029 52.760655 
L 339.419519 46.693409 
L 339.530063 45.803107 
L 339.696261 44.906463 
L 340.100497 43.952749 
L 341.007005 43.493647 
L 345.480319 43.070056 
L 358.584013 42.933086 
L 368.178264 42.931818 
L 368.178264 42.931818 
" style="fill:none;stroke:#58b792;stroke-dasharray:7.4,3.2;stroke-dashoffset:0;stroke-width:2;"/>
   </g>
   <g id="line2d_81">
    <path clip-path="url(#p2599a0df0a)" d="M 101.234588 231.568158 
L 105.76176 231.447124 
L 107.289997 231.02474 
L 109.536399 229.322855 
L 110.141303 228.529959 
L 111.020911 227.507346 
L 111.924827 226.803373 
L 113.350657 225.916614 
L 113.994817 225.49176 
L 114.770214 224.992804 
L 115.112321 224.792727 
L 117.794833 223.814575 
L 118.605125 223.610794 
L 120.460211 223.176059 
L 121.054237 222.996979 
L 122.397422 222.444916 
L 122.910766 222.126275 
L 123.31021 221.837276 
L 123.989394 221.269157 
L 124.795944 220.594825 
L 125.355845 219.988421 
L 125.670001 219.637669 
L 126.041623 219.20911 
L 130.60215 213.156178 
L 131.1296 212.669572 
L 131.462635 212.387983 
L 131.81525 212.087868 
L 132.761868 211.36537 
L 133.23287 211.045494 
L 135.008167 209.835155 
L 136.944927 208.577884 
L 137.340991 208.330876 
L 137.617226 208.146855 
L 140.936809 205.408771 
L 141.691427 204.575119 
L 142.008814 204.252773 
L 142.508033 203.737761 
L 143.245343 203.006617 
L 144.155953 202.260653 
L 144.478028 202.037111 
L 144.935723 201.719706 
L 145.528137 201.39242 
L 146.683661 200.888523 
L 147.28544 200.663746 
L 147.611949 200.548887 
L 148.613452 200.271003 
L 151.372586 199.590496 
L 151.721751 199.516394 
L 153.73536 199.169347 
L 154.089989 199.111301 
L 155.408695 198.886523 
L 155.708431 198.844532 
L 156.739533 198.677801 
L 157.605133 198.540712 
L 159.763557 198.213426 
L 160.371197 198.128209 
L 162.494775 197.87379 
L 164.040591 197.69718 
L 165.421568 197.541564 
L 165.838544 197.485988 
L 169.083858 197.09942 
L 171.063516 196.827711 
L 172.147665 196.601699 
L 172.290354 196.565883 
L 173.835399 196.1682 
L 174.024282 196.107683 
L 174.489053 195.940952 
L 175.770101 195.435821 
L 175.940547 195.345663 
L 176.412932 195.132001 
L 176.627135 195.027023 
L 176.911011 194.878818 
L 177.066264 194.775074 
L 177.459898 194.572528 
L 178.827677 193.494338 
L 179.001257 193.328842 
L 179.161913 193.152231 
L 179.328124 193.004027 
L 179.754945 192.548297 
L 180.401824 191.767751 
L 180.667976 191.41947 
L 182.92882 187.648892 
L 183.120413 187.236389 
L 183.497663 186.360745 
L 183.648849 186.007524 
L 185.361389 181.100709 
L 185.991437 178.952974 
L 186.202375 178.07239 
L 186.562511 176.649624 
L 186.894378 175.31084 
L 186.925746 175.172516 
L 188.098562 169.898894 
L 190.844837 154.520173 
L 191.338147 151.294248 
L 191.403226 150.842223 
L 191.675631 149.051415 
L 192.440272 143.574012 
L 193.055586 139.026593 
L 197.198161 107.013116 
L 197.296837 106.340019 
L 197.505376 104.798688 
L 198.501586 97.729318 
L 198.851269 95.351866 
L 198.901018 95.052986 
L 200.089324 87.778599 
L 200.283945 86.678178 
L 200.819394 83.644919 
L 201.05098 82.380238 
L 201.2373 81.408262 
L 202.017849 77.67597 
L 203.056136 73.237235 
L 203.276882 72.359122 
L 203.338886 72.139285 
L 203.647718 70.941296 
L 203.796482 70.383057 
L 203.967993 69.759362 
L 204.145328 69.134432 
L 204.344652 68.397113 
L 204.564835 67.672144 
L 204.879404 66.592719 
L 205.142645 65.756597 
L 205.510817 64.63765 
L 205.595492 64.378292 
L 205.877778 63.624917 
L 208.992496 56.853192 
L 209.158719 56.565427 
L 209.493843 56.001014 
L 209.582391 55.849104 
L 210.208254 54.840076 
L 210.483646 54.413987 
L 210.682771 54.117578 
L 210.932463 53.752006 
L 211.103779 53.529698 
L 211.323062 53.243169 
L 211.568345 52.933174 
L 211.995752 52.352705 
L 212.205369 52.101992 
L 212.388224 51.90562 
L 212.55483 51.73395 
L 212.851581 51.42766 
L 212.982163 51.305391 
L 213.171276 51.102844 
L 213.330135 50.958345 
L 213.500653 50.81014 
L 213.660896 50.66317 
L 213.809495 50.52361 
L 213.973918 50.36923 
L 216.084116 48.834075 
L 216.322747 48.672285 
L 218.116968 47.74971 
L 218.447237 47.613856 
L 219.205065 47.323621 
L 219.621774 47.156891 
L 219.811892 47.082788 
L 220.727838 46.762913 
L 220.959151 46.670285 
L 221.678357 46.482559 
L 221.892596 46.409691 
L 222.734917 46.194794 
L 223.464711 45.981133 
L 224.442014 45.734124 
L 224.600545 45.681018 
L 228.745557 44.860951 
L 231.196776 44.569482 
L 231.727961 44.487969 
L 233.093211 44.342234 
L 236.068845 44.05447 
L 238.117137 43.89515 
L 238.242505 43.884034 
L 241.523005 43.724714 
L 251.548695 43.425834 
L 283.09054 43.071378 
L 299.036468 42.940463 
L 337.684658 42.931818 
L 337.684658 42.931818 
" style="fill:none;stroke:#c70d2c;stroke-dasharray:7.4,3.2;stroke-dashoffset:0;stroke-width:2;"/>
   </g>
   <g id="patch_3">
    <path d="M 52.875 241 
L 52.875 33.5 
" style="fill:none;stroke:#000000;stroke-linecap:square;stroke-linejoin:miter;stroke-width:0.8;"/>
   </g>
   <g id="patch_4">
    <path d="M 398.5 241 
L 398.5 33.5 
" style="fill:none;stroke:#000000;stroke-linecap:square;stroke-linejoin:miter;stroke-width:0.8;"/>
   </g>
   <g id="patch_5">
    <path d="M 52.875 241 
L 398.5 241 
" style="fill:none;stroke:#000000;stroke-linecap:square;stroke-linejoin:miter;stroke-width:0.8;"/>
   </g>
   <g id="patch_6">
    <path d="M 52.875 33.5 
L 398.5 33.5 
" style="fill:none;stroke:#000000;stroke-linecap:square;stroke-linejoin:miter;stroke-width:0.8;"/>
   </g>
   <g id="legend_1">
    <g id="patch_7">
     <path d="M 292.7125 236 
L 391.5 236 
Q 393.5 236 393.5 234 
L 393.5 161.609375 
Q 393.5 159.609375 391.5 159.609375 
L 292.7125 159.609375 
Q 290.7125 159.609375 290.7125 161.609375 
L 290.7125 234 
Q 290.7125 236 292.7125 236 
z
" style="fill:#ffffff;opacity:0.8;stroke:#cccccc;stroke-linejoin:miter;"/>
    </g>
    <g id="line2d_82">
     <path d="M 294.7125 167.707813 
L 314.7125 167.707813 
" style="fill:none;stroke:#00aff0;stroke-dasharray:7.4,3.2;stroke-dashoffset:0;stroke-width:2;"/>
    </g>
    <g id="line2d_83"/>
    <g id="text_16">
     <!-- Ghostery -->
     <defs>
      <path d="M 59.515625 10.40625 
L 59.515625 29.984375 
L 43.40625 29.984375 
L 43.40625 38.09375 
L 69.28125 38.09375 
L 69.28125 6.78125 
Q 63.578125 2.734375 56.6875 0.65625 
Q 49.8125 -1.421875 42 -1.421875 
Q 24.90625 -1.421875 15.25 8.5625 
Q 5.609375 18.5625 5.609375 36.375 
Q 5.609375 54.25 15.25 64.234375 
Q 24.90625 74.21875 42 74.21875 
Q 49.125 74.21875 55.546875 72.453125 
Q 61.96875 70.703125 67.390625 67.28125 
L 67.390625 56.78125 
Q 61.921875 61.421875 55.765625 63.765625 
Q 49.609375 66.109375 42.828125 66.109375 
Q 29.4375 66.109375 22.71875 58.640625 
Q 16.015625 51.171875 16.015625 36.375 
Q 16.015625 21.625 22.71875 14.15625 
Q 29.4375 6.6875 42.828125 6.6875 
Q 48.046875 6.6875 52.140625 7.59375 
Q 56.25 8.5 59.515625 10.40625 
z
" id="DejaVuSans-71"/>
      <path d="M 54.890625 33.015625 
L 54.890625 0 
L 45.90625 0 
L 45.90625 32.71875 
Q 45.90625 40.484375 42.875 44.328125 
Q 39.84375 48.1875 33.796875 48.1875 
Q 26.515625 48.1875 22.3125 43.546875 
Q 18.109375 38.921875 18.109375 30.90625 
L 18.109375 0 
L 9.078125 0 
L 9.078125 75.984375 
L 18.109375 75.984375 
L 18.109375 46.1875 
Q 21.34375 51.125 25.703125 53.5625 
Q 30.078125 56 35.796875 56 
Q 45.21875 56 50.046875 50.171875 
Q 54.890625 44.34375 54.890625 33.015625 
z
" id="DejaVuSans-104"/>
      <path d="M 32.171875 -5.078125 
Q 28.375 -14.84375 24.75 -17.8125 
Q 21.140625 -20.796875 15.09375 -20.796875 
L 7.90625 -20.796875 
L 7.90625 -13.28125 
L 13.1875 -13.28125 
Q 16.890625 -13.28125 18.9375 -11.515625 
Q 21 -9.765625 23.484375 -3.21875 
L 25.09375 0.875 
L 2.984375 54.6875 
L 12.5 54.6875 
L 29.59375 11.921875 
L 46.6875 54.6875 
L 56.203125 54.6875 
z
" id="DejaVuSans-121"/>
     </defs>
     <g transform="translate(322.7125 171.207813)scale(0.1 -0.1)">
      <use xlink:href="#DejaVuSans-71"/>
      <use x="77.490234" xlink:href="#DejaVuSans-104"/>
      <use x="140.869141" xlink:href="#DejaVuSans-111"/>
      <use x="202.050781" xlink:href="#DejaVuSans-115"/>
      <use x="254.150391" xlink:href="#DejaVuSans-116"/>
      <use x="293.359375" xlink:href="#DejaVuSans-101"/>
      <use x="354.882812" xlink:href="#DejaVuSans-114"/>
      <use x="395.996094" xlink:href="#DejaVuSans-121"/>
     </g>
    </g>
    <g id="line2d_84">
     <path d="M 294.7125 182.385938 
L 314.7125 182.385938 
" style="fill:none;stroke:#800000;stroke-dasharray:7.4,3.2;stroke-dashoffset:0;stroke-width:2;"/>
    </g>
    <g id="line2d_85"/>
    <g id="text_17">
     <!-- uBlock Origin -->
     <defs>
      <path d="M 19.671875 34.8125 
L 19.671875 8.109375 
L 35.5 8.109375 
Q 43.453125 8.109375 47.28125 11.40625 
Q 51.125 14.703125 51.125 21.484375 
Q 51.125 28.328125 47.28125 31.5625 
Q 43.453125 34.8125 35.5 34.8125 
z
M 19.671875 64.796875 
L 19.671875 42.828125 
L 34.28125 42.828125 
Q 41.5 42.828125 45.03125 45.53125 
Q 48.578125 48.25 48.578125 53.8125 
Q 48.578125 59.328125 45.03125 62.0625 
Q 41.5 64.796875 34.28125 64.796875 
z
M 9.8125 72.90625 
L 35.015625 72.90625 
Q 46.296875 72.90625 52.390625 68.21875 
Q 58.5 63.53125 58.5 54.890625 
Q 58.5 48.1875 55.375 44.234375 
Q 52.25 40.28125 46.1875 39.3125 
Q 53.46875 37.75 57.5 32.78125 
Q 61.53125 27.828125 61.53125 20.40625 
Q 61.53125 10.640625 54.890625 5.3125 
Q 48.25 0 35.984375 0 
L 9.8125 0 
z
" id="DejaVuSans-66"/>
      <path d="M 9.078125 75.984375 
L 18.109375 75.984375 
L 18.109375 31.109375 
L 44.921875 54.6875 
L 56.390625 54.6875 
L 27.390625 29.109375 
L 57.625 0 
L 45.90625 0 
L 18.109375 26.703125 
L 18.109375 0 
L 9.078125 0 
z
" id="DejaVuSans-107"/>
      <path d="M 39.40625 66.21875 
Q 28.65625 66.21875 22.328125 58.203125 
Q 16.015625 50.203125 16.015625 36.375 
Q 16.015625 22.609375 22.328125 14.59375 
Q 28.65625 6.59375 39.40625 6.59375 
Q 50.140625 6.59375 56.421875 14.59375 
Q 62.703125 22.609375 62.703125 36.375 
Q 62.703125 50.203125 56.421875 58.203125 
Q 50.140625 66.21875 39.40625 66.21875 
z
M 39.40625 74.21875 
Q 54.734375 74.21875 63.90625 63.9375 
Q 73.09375 53.65625 73.09375 36.375 
Q 73.09375 19.140625 63.90625 8.859375 
Q 54.734375 -1.421875 39.40625 -1.421875 
Q 24.03125 -1.421875 14.8125 8.828125 
Q 5.609375 19.09375 5.609375 36.375 
Q 5.609375 53.65625 14.8125 63.9375 
Q 24.03125 74.21875 39.40625 74.21875 
z
" id="DejaVuSans-79"/>
     </defs>
     <g transform="translate(322.7125 185.885938)scale(0.1 -0.1)">
      <use xlink:href="#DejaVuSans-117"/>
      <use x="63.378906" xlink:href="#DejaVuSans-66"/>
      <use x="131.982422" xlink:href="#DejaVuSans-108"/>
      <use x="159.765625" xlink:href="#DejaVuSans-111"/>
      <use x="220.947266" xlink:href="#DejaVuSans-99"/>
      <use x="275.927734" xlink:href="#DejaVuSans-107"/>
      <use x="333.837891" xlink:href="#DejaVuSans-32"/>
      <use x="365.625" xlink:href="#DejaVuSans-79"/>
      <use x="444.335938" xlink:href="#DejaVuSans-114"/>
      <use x="485.449219" xlink:href="#DejaVuSans-105"/>
      <use x="513.232422" xlink:href="#DejaVuSans-103"/>
      <use x="576.708984" xlink:href="#DejaVuSans-105"/>
      <use x="604.492188" xlink:href="#DejaVuSans-110"/>
     </g>
    </g>
    <g id="line2d_86">
     <path d="M 294.7125 197.064063 
L 314.7125 197.064063 
" style="fill:none;stroke:#ff5500;stroke-dasharray:7.4,3.2;stroke-dashoffset:0;stroke-width:2;"/>
    </g>
    <g id="line2d_87"/>
    <g id="text_18">
     <!-- Brave -->
     <defs>
      <path d="M 2.984375 54.6875 
L 12.5 54.6875 
L 29.59375 8.796875 
L 46.6875 54.6875 
L 56.203125 54.6875 
L 35.6875 0 
L 23.484375 0 
z
" id="DejaVuSans-118"/>
     </defs>
     <g transform="translate(322.7125 200.564063)scale(0.1 -0.1)">
      <use xlink:href="#DejaVuSans-66"/>
      <use x="68.603516" xlink:href="#DejaVuSans-114"/>
      <use x="109.716797" xlink:href="#DejaVuSans-97"/>
      <use x="170.996094" xlink:href="#DejaVuSans-118"/>
      <use x="230.175781" xlink:href="#DejaVuSans-101"/>
     </g>
    </g>
    <g id="line2d_88">
     <path d="M 294.7125 211.742188 
L 314.7125 211.742188 
" style="fill:none;stroke:#58b792;stroke-dasharray:7.4,3.2;stroke-dashoffset:0;stroke-width:2;"/>
    </g>
    <g id="line2d_89"/>
    <g id="text_19">
     <!-- DuckDuckGo -->
     <defs>
      <path d="M 19.671875 64.796875 
L 19.671875 8.109375 
L 31.59375 8.109375 
Q 46.6875 8.109375 53.6875 14.9375 
Q 60.6875 21.78125 60.6875 36.53125 
Q 60.6875 51.171875 53.6875 57.984375 
Q 46.6875 64.796875 31.59375 64.796875 
z
M 9.8125 72.90625 
L 30.078125 72.90625 
Q 51.265625 72.90625 61.171875 64.09375 
Q 71.09375 55.28125 71.09375 36.53125 
Q 71.09375 17.671875 61.125 8.828125 
Q 51.171875 0 30.078125 0 
L 9.8125 0 
z
" id="DejaVuSans-68"/>
     </defs>
     <g transform="translate(322.7125 215.242188)scale(0.1 -0.1)">
      <use xlink:href="#DejaVuSans-68"/>
      <use x="77.001953" xlink:href="#DejaVuSans-117"/>
      <use x="140.380859" xlink:href="#DejaVuSans-99"/>
      <use x="195.361328" xlink:href="#DejaVuSans-107"/>
      <use x="253.271484" xlink:href="#DejaVuSans-68"/>
      <use x="330.273438" xlink:href="#DejaVuSans-117"/>
      <use x="393.652344" xlink:href="#DejaVuSans-99"/>
      <use x="448.632812" xlink:href="#DejaVuSans-107"/>
      <use x="506.542969" xlink:href="#DejaVuSans-71"/>
      <use x="584.033203" xlink:href="#DejaVuSans-111"/>
     </g>
    </g>
    <g id="line2d_90">
     <path d="M 294.7125 226.420313 
L 314.7125 226.420313 
" style="fill:none;stroke:#c70d2c;stroke-dasharray:7.4,3.2;stroke-dashoffset:0;stroke-width:2;"/>
    </g>
    <g id="line2d_91"/>
    <g id="text_20">
     <!-- AdblockPlus -->
     <defs>
      <path d="M 34.1875 63.1875 
L 20.796875 26.90625 
L 47.609375 26.90625 
z
M 28.609375 72.90625 
L 39.796875 72.90625 
L 67.578125 0 
L 57.328125 0 
L 50.6875 18.703125 
L 17.828125 18.703125 
L 11.1875 0 
L 0.78125 0 
z
" id="DejaVuSans-65"/>
      <path d="M 45.40625 46.390625 
L 45.40625 75.984375 
L 54.390625 75.984375 
L 54.390625 0 
L 45.40625 0 
L 45.40625 8.203125 
Q 42.578125 3.328125 38.25 0.953125 
Q 33.9375 -1.421875 27.875 -1.421875 
Q 17.96875 -1.421875 11.734375 6.484375 
Q 5.515625 14.40625 5.515625 27.296875 
Q 5.515625 40.1875 11.734375 48.09375 
Q 17.96875 56 27.875 56 
Q 33.9375 56 38.25 53.625 
Q 42.578125 51.265625 45.40625 46.390625 
z
M 14.796875 27.296875 
Q 14.796875 17.390625 18.875 11.75 
Q 22.953125 6.109375 30.078125 6.109375 
Q 37.203125 6.109375 41.296875 11.75 
Q 45.40625 17.390625 45.40625 27.296875 
Q 45.40625 37.203125 41.296875 42.84375 
Q 37.203125 48.484375 30.078125 48.484375 
Q 22.953125 48.484375 18.875 42.84375 
Q 14.796875 37.203125 14.796875 27.296875 
z
" id="DejaVuSans-100"/>
      <path d="M 19.671875 64.796875 
L 19.671875 37.40625 
L 32.078125 37.40625 
Q 38.96875 37.40625 42.71875 40.96875 
Q 46.484375 44.53125 46.484375 51.125 
Q 46.484375 57.671875 42.71875 61.234375 
Q 38.96875 64.796875 32.078125 64.796875 
z
M 9.8125 72.90625 
L 32.078125 72.90625 
Q 44.34375 72.90625 50.609375 67.359375 
Q 56.890625 61.8125 56.890625 51.125 
Q 56.890625 40.328125 50.609375 34.8125 
Q 44.34375 29.296875 32.078125 29.296875 
L 19.671875 29.296875 
L 19.671875 0 
L 9.8125 0 
z
" id="DejaVuSans-80"/>
     </defs>
     <g transform="translate(322.7125 229.920313)scale(0.1 -0.1)">
      <use xlink:href="#DejaVuSans-65"/>
      <use x="68.392578" xlink:href="#DejaVuSans-100"/>
      <use x="131.869141" xlink:href="#DejaVuSans-98"/>
      <use x="195.345703" xlink:href="#DejaVuSans-108"/>
      <use x="223.128906" xlink:href="#DejaVuSans-111"/>
      <use x="284.310547" xlink:href="#DejaVuSans-99"/>
      <use x="339.291016" xlink:href="#DejaVuSans-107"/>
      <use x="397.201172" xlink:href="#DejaVuSans-80"/>
      <use x="457.503906" xlink:href="#DejaVuSans-108"/>
      <use x="485.287109" xlink:href="#DejaVuSans-117"/>
      <use x="548.666016" xlink:href="#DejaVuSans-115"/>
     </g>
    </g>
   </g>
  </g>
 </g>
 <defs>
  <clipPath id="p2599a0df0a">
   <rect height="207.5" width="345.625" x="52.875" y="33.5"/>
  </clipPath>
 </defs>
</svg>
