<?xml version="1.0" encoding="utf-8" standalone="no"?>
<!DOCTYPE svg PUBLIC "-//W3C//DTD SVG 1.1//EN"
  "http://www.w3.org/Graphics/SVG/1.1/DTD/svg11.dtd">
<!-- Created with matplotlib (https://matplotlib.org/) -->
<svg height="288pt" version="1.1" viewBox="0 0 432 288" width="432pt" xmlns="http://www.w3.org/2000/svg" xmlns:xlink="http://www.w3.org/1999/xlink">
 <defs>
  <style type="text/css">
*{stroke-linecap:butt;stroke-linejoin:round;}
  </style>
 </defs>
 <g id="figure_1">
  <g id="patch_1">
   <path d="M 0 288 
L 432 288 
L 432 0 
L 0 0 
z
" style="fill:#ffffff;"/>
  </g>
  <g id="axes_1">
   <g id="patch_2">
    <path d="M 52.875 241 
L 396.712495 241 
L 396.712495 33.5 
L 52.875 33.5 
z
" style="fill:#ffffff;"/>
   </g>
   <g id="matplotlib.axis_1">
    <g id="xtick_1">
     <g id="line2d_1">
      <path clip-path="url(#p28da8269da)" d="M 84.258237 241 
L 84.258237 33.5 
" style="fill:none;stroke:#b0b0b0;stroke-dasharray:3.7,1.6;stroke-dashoffset:0;"/>
     </g>
     <g id="line2d_2">
      <defs>
       <path d="M 0 0 
L 0 3.5 
" id="m711faea631" style="stroke:#000000;stroke-width:0.8;"/>
      </defs>
      <g>
       <use style="stroke:#000000;stroke-width:0.8;" x="84.258237" xlink:href="#m711faea631" y="241"/>
      </g>
     </g>
     <g id="text_1">
      <!-- $\mathdefault{10^{-3}}$ -->
      <defs>
       <path d="M 12.40625 8.296875 
L 28.515625 8.296875 
L 28.515625 63.921875 
L 10.984375 60.40625 
L 10.984375 69.390625 
L 28.421875 72.90625 
L 38.28125 72.90625 
L 38.28125 8.296875 
L 54.390625 8.296875 
L 54.390625 0 
L 12.40625 0 
z
" id="DejaVuSans-49"/>
       <path d="M 31.78125 66.40625 
Q 24.171875 66.40625 20.328125 58.90625 
Q 16.5 51.421875 16.5 36.375 
Q 16.5 21.390625 20.328125 13.890625 
Q 24.171875 6.390625 31.78125 6.390625 
Q 39.453125 6.390625 43.28125 13.890625 
Q 47.125 21.390625 47.125 36.375 
Q 47.125 51.421875 43.28125 58.90625 
Q 39.453125 66.40625 31.78125 66.40625 
z
M 31.78125 74.21875 
Q 44.046875 74.21875 50.515625 64.515625 
Q 56.984375 54.828125 56.984375 36.375 
Q 56.984375 17.96875 50.515625 8.265625 
Q 44.046875 -1.421875 31.78125 -1.421875 
Q 19.53125 -1.421875 13.0625 8.265625 
Q 6.59375 17.96875 6.59375 36.375 
Q 6.59375 54.828125 13.0625 64.515625 
Q 19.53125 74.21875 31.78125 74.21875 
z
" id="DejaVuSans-48"/>
       <path d="M 10.59375 35.5 
L 73.1875 35.5 
L 73.1875 27.203125 
L 10.59375 27.203125 
z
" id="DejaVuSans-8722"/>
       <path d="M 40.578125 39.3125 
Q 47.65625 37.796875 51.625 33 
Q 55.609375 28.21875 55.609375 21.1875 
Q 55.609375 10.40625 48.1875 4.484375 
Q 40.765625 -1.421875 27.09375 -1.421875 
Q 22.515625 -1.421875 17.65625 -0.515625 
Q 12.796875 0.390625 7.625 2.203125 
L 7.625 11.71875 
Q 11.71875 9.328125 16.59375 8.109375 
Q 21.484375 6.890625 26.8125 6.890625 
Q 36.078125 6.890625 40.9375 10.546875 
Q 45.796875 14.203125 45.796875 21.1875 
Q 45.796875 27.640625 41.28125 31.265625 
Q 36.765625 34.90625 28.71875 34.90625 
L 20.21875 34.90625 
L 20.21875 43.015625 
L 29.109375 43.015625 
Q 36.375 43.015625 40.234375 45.921875 
Q 44.09375 48.828125 44.09375 54.296875 
Q 44.09375 59.90625 40.109375 62.90625 
Q 36.140625 65.921875 28.71875 65.921875 
Q 24.65625 65.921875 20.015625 65.03125 
Q 15.375 64.15625 9.8125 62.3125 
L 9.8125 71.09375 
Q 15.4375 72.65625 20.34375 73.4375 
Q 25.25 74.21875 29.59375 74.21875 
Q 40.828125 74.21875 47.359375 69.109375 
Q 53.90625 64.015625 53.90625 55.328125 
Q 53.90625 49.265625 50.4375 45.09375 
Q 46.96875 40.921875 40.578125 39.3125 
z
" id="DejaVuSans-51"/>
      </defs>
      <g transform="translate(72.508237 255.598438)scale(0.1 -0.1)">
       <use transform="translate(0 0.765625)" xlink:href="#DejaVuSans-49"/>
       <use transform="translate(63.623047 0.765625)" xlink:href="#DejaVuSans-48"/>
       <use transform="translate(128.203125 39.046875)scale(0.7)" xlink:href="#DejaVuSans-8722"/>
       <use transform="translate(186.855469 39.046875)scale(0.7)" xlink:href="#DejaVuSans-51"/>
      </g>
     </g>
    </g>
    <g id="xtick_2">
     <g id="line2d_3">
      <path clip-path="url(#p28da8269da)" d="M 150.852167 241 
L 150.852167 33.5 
" style="fill:none;stroke:#b0b0b0;stroke-dasharray:3.7,1.6;stroke-dashoffset:0;"/>
     </g>
     <g id="line2d_4">
      <g>
       <use style="stroke:#000000;stroke-width:0.8;" x="150.852167" xlink:href="#m711faea631" y="241"/>
      </g>
     </g>
     <g id="text_2">
      <!-- $\mathdefault{10^{-2}}$ -->
      <defs>
       <path d="M 19.1875 8.296875 
L 53.609375 8.296875 
L 53.609375 0 
L 7.328125 0 
L 7.328125 8.296875 
Q 12.9375 14.109375 22.625 23.890625 
Q 32.328125 33.6875 34.8125 36.53125 
Q 39.546875 41.84375 41.421875 45.53125 
Q 43.3125 49.21875 43.3125 52.78125 
Q 43.3125 58.59375 39.234375 62.25 
Q 35.15625 65.921875 28.609375 65.921875 
Q 23.96875 65.921875 18.8125 64.3125 
Q 13.671875 62.703125 7.8125 59.421875 
L 7.8125 69.390625 
Q 13.765625 71.78125 18.9375 73 
Q 24.125 74.21875 28.421875 74.21875 
Q 39.75 74.21875 46.484375 68.546875 
Q 53.21875 62.890625 53.21875 53.421875 
Q 53.21875 48.921875 51.53125 44.890625 
Q 49.859375 40.875 45.40625 35.40625 
Q 44.1875 33.984375 37.640625 27.21875 
Q 31.109375 20.453125 19.1875 8.296875 
z
" id="DejaVuSans-50"/>
      </defs>
      <g transform="translate(139.102167 255.598438)scale(0.1 -0.1)">
       <use transform="translate(0 0.765625)" xlink:href="#DejaVuSans-49"/>
       <use transform="translate(63.623047 0.765625)" xlink:href="#DejaVuSans-48"/>
       <use transform="translate(128.203125 39.046875)scale(0.7)" xlink:href="#DejaVuSans-8722"/>
       <use transform="translate(186.855469 39.046875)scale(0.7)" xlink:href="#DejaVuSans-50"/>
      </g>
     </g>
    </g>
    <g id="xtick_3">
     <g id="line2d_5">
      <path clip-path="url(#p28da8269da)" d="M 217.446097 241 
L 217.446097 33.5 
" style="fill:none;stroke:#b0b0b0;stroke-dasharray:3.7,1.6;stroke-dashoffset:0;"/>
     </g>
     <g id="line2d_6">
      <g>
       <use style="stroke:#000000;stroke-width:0.8;" x="217.446097" xlink:href="#m711faea631" y="241"/>
      </g>
     </g>
     <g id="text_3">
      <!-- $\mathdefault{10^{-1}}$ -->
      <g transform="translate(205.696097 255.598438)scale(0.1 -0.1)">
       <use transform="translate(0 0.684375)" xlink:href="#DejaVuSans-49"/>
       <use transform="translate(63.623047 0.684375)" xlink:href="#DejaVuSans-48"/>
       <use transform="translate(128.203125 38.965625)scale(0.7)" xlink:href="#DejaVuSans-8722"/>
       <use transform="translate(186.855469 38.965625)scale(0.7)" xlink:href="#DejaVuSans-49"/>
      </g>
     </g>
    </g>
    <g id="xtick_4">
     <g id="line2d_7">
      <path clip-path="url(#p28da8269da)" d="M 284.040027 241 
L 284.040027 33.5 
" style="fill:none;stroke:#b0b0b0;stroke-dasharray:3.7,1.6;stroke-dashoffset:0;"/>
     </g>
     <g id="line2d_8">
      <g>
       <use style="stroke:#000000;stroke-width:0.8;" x="284.040027" xlink:href="#m711faea631" y="241"/>
      </g>
     </g>
     <g id="text_4">
      <!-- $\mathdefault{10^{0}}$ -->
      <g transform="translate(275.240027 255.598438)scale(0.1 -0.1)">
       <use transform="translate(0 0.765625)" xlink:href="#DejaVuSans-49"/>
       <use transform="translate(63.623047 0.765625)" xlink:href="#DejaVuSans-48"/>
       <use transform="translate(128.203125 39.046875)scale(0.7)" xlink:href="#DejaVuSans-48"/>
      </g>
     </g>
    </g>
    <g id="xtick_5">
     <g id="line2d_9">
      <path clip-path="url(#p28da8269da)" d="M 350.633956 241 
L 350.633956 33.5 
" style="fill:none;stroke:#b0b0b0;stroke-dasharray:3.7,1.6;stroke-dashoffset:0;"/>
     </g>
     <g id="line2d_10">
      <g>
       <use style="stroke:#000000;stroke-width:0.8;" x="350.633956" xlink:href="#m711faea631" y="241"/>
      </g>
     </g>
     <g id="text_5">
      <!-- $\mathdefault{10^{1}}$ -->
      <g transform="translate(341.833956 255.598438)scale(0.1 -0.1)">
       <use transform="translate(0 0.684375)" xlink:href="#DejaVuSans-49"/>
       <use transform="translate(63.623047 0.684375)" xlink:href="#DejaVuSans-48"/>
       <use transform="translate(128.203125 38.965625)scale(0.7)" xlink:href="#DejaVuSans-49"/>
      </g>
     </g>
    </g>
    <g id="xtick_6">
     <g id="line2d_11">
      <defs>
       <path d="M 0 0 
L 0 2 
" id="m80bb0b5fcc" style="stroke:#000000;stroke-width:0.6;"/>
      </defs>
      <g>
       <use style="stroke:#000000;stroke-width:0.6;" x="57.757848" xlink:href="#m80bb0b5fcc" y="241"/>
      </g>
     </g>
    </g>
    <g id="xtick_7">
     <g id="line2d_12">
      <g>
       <use style="stroke:#000000;stroke-width:0.6;" x="64.211466" xlink:href="#m80bb0b5fcc" y="241"/>
      </g>
     </g>
    </g>
    <g id="xtick_8">
     <g id="line2d_13">
      <g>
       <use style="stroke:#000000;stroke-width:0.6;" x="69.484457" xlink:href="#m80bb0b5fcc" y="241"/>
      </g>
     </g>
    </g>
    <g id="xtick_9">
     <g id="line2d_14">
      <g>
       <use style="stroke:#000000;stroke-width:0.6;" x="73.942706" xlink:href="#m80bb0b5fcc" y="241"/>
      </g>
     </g>
    </g>
    <g id="xtick_10">
     <g id="line2d_15">
      <g>
       <use style="stroke:#000000;stroke-width:0.6;" x="77.804618" xlink:href="#m80bb0b5fcc" y="241"/>
      </g>
     </g>
    </g>
    <g id="xtick_11">
     <g id="line2d_16">
      <g>
       <use style="stroke:#000000;stroke-width:0.6;" x="81.211066" xlink:href="#m80bb0b5fcc" y="241"/>
      </g>
     </g>
    </g>
    <g id="xtick_12">
     <g id="line2d_17">
      <g>
       <use style="stroke:#000000;stroke-width:0.6;" x="104.305007" xlink:href="#m80bb0b5fcc" y="241"/>
      </g>
     </g>
    </g>
    <g id="xtick_13">
     <g id="line2d_18">
      <g>
       <use style="stroke:#000000;stroke-width:0.6;" x="116.031616" xlink:href="#m80bb0b5fcc" y="241"/>
      </g>
     </g>
    </g>
    <g id="xtick_14">
     <g id="line2d_19">
      <g>
       <use style="stroke:#000000;stroke-width:0.6;" x="124.351778" xlink:href="#m80bb0b5fcc" y="241"/>
      </g>
     </g>
    </g>
    <g id="xtick_15">
     <g id="line2d_20">
      <g>
       <use style="stroke:#000000;stroke-width:0.6;" x="130.805396" xlink:href="#m80bb0b5fcc" y="241"/>
      </g>
     </g>
    </g>
    <g id="xtick_16">
     <g id="line2d_21">
      <g>
       <use style="stroke:#000000;stroke-width:0.6;" x="136.078387" xlink:href="#m80bb0b5fcc" y="241"/>
      </g>
     </g>
    </g>
    <g id="xtick_17">
     <g id="line2d_22">
      <g>
       <use style="stroke:#000000;stroke-width:0.6;" x="140.536636" xlink:href="#m80bb0b5fcc" y="241"/>
      </g>
     </g>
    </g>
    <g id="xtick_18">
     <g id="line2d_23">
      <g>
       <use style="stroke:#000000;stroke-width:0.6;" x="144.398548" xlink:href="#m80bb0b5fcc" y="241"/>
      </g>
     </g>
    </g>
    <g id="xtick_19">
     <g id="line2d_24">
      <g>
       <use style="stroke:#000000;stroke-width:0.6;" x="147.804996" xlink:href="#m80bb0b5fcc" y="241"/>
      </g>
     </g>
    </g>
    <g id="xtick_20">
     <g id="line2d_25">
      <g>
       <use style="stroke:#000000;stroke-width:0.6;" x="170.898937" xlink:href="#m80bb0b5fcc" y="241"/>
      </g>
     </g>
    </g>
    <g id="xtick_21">
     <g id="line2d_26">
      <g>
       <use style="stroke:#000000;stroke-width:0.6;" x="182.625546" xlink:href="#m80bb0b5fcc" y="241"/>
      </g>
     </g>
    </g>
    <g id="xtick_22">
     <g id="line2d_27">
      <g>
       <use style="stroke:#000000;stroke-width:0.6;" x="190.945708" xlink:href="#m80bb0b5fcc" y="241"/>
      </g>
     </g>
    </g>
    <g id="xtick_23">
     <g id="line2d_28">
      <g>
       <use style="stroke:#000000;stroke-width:0.6;" x="197.399326" xlink:href="#m80bb0b5fcc" y="241"/>
      </g>
     </g>
    </g>
    <g id="xtick_24">
     <g id="line2d_29">
      <g>
       <use style="stroke:#000000;stroke-width:0.6;" x="202.672316" xlink:href="#m80bb0b5fcc" y="241"/>
      </g>
     </g>
    </g>
    <g id="xtick_25">
     <g id="line2d_30">
      <g>
       <use style="stroke:#000000;stroke-width:0.6;" x="207.130566" xlink:href="#m80bb0b5fcc" y="241"/>
      </g>
     </g>
    </g>
    <g id="xtick_26">
     <g id="line2d_31">
      <g>
       <use style="stroke:#000000;stroke-width:0.6;" x="210.992478" xlink:href="#m80bb0b5fcc" y="241"/>
      </g>
     </g>
    </g>
    <g id="xtick_27">
     <g id="line2d_32">
      <g>
       <use style="stroke:#000000;stroke-width:0.6;" x="214.398925" xlink:href="#m80bb0b5fcc" y="241"/>
      </g>
     </g>
    </g>
    <g id="xtick_28">
     <g id="line2d_33">
      <g>
       <use style="stroke:#000000;stroke-width:0.6;" x="237.492867" xlink:href="#m80bb0b5fcc" y="241"/>
      </g>
     </g>
    </g>
    <g id="xtick_29">
     <g id="line2d_34">
      <g>
       <use style="stroke:#000000;stroke-width:0.6;" x="249.219476" xlink:href="#m80bb0b5fcc" y="241"/>
      </g>
     </g>
    </g>
    <g id="xtick_30">
     <g id="line2d_35">
      <g>
       <use style="stroke:#000000;stroke-width:0.6;" x="257.539637" xlink:href="#m80bb0b5fcc" y="241"/>
      </g>
     </g>
    </g>
    <g id="xtick_31">
     <g id="line2d_36">
      <g>
       <use style="stroke:#000000;stroke-width:0.6;" x="263.993256" xlink:href="#m80bb0b5fcc" y="241"/>
      </g>
     </g>
    </g>
    <g id="xtick_32">
     <g id="line2d_37">
      <g>
       <use style="stroke:#000000;stroke-width:0.6;" x="269.266246" xlink:href="#m80bb0b5fcc" y="241"/>
      </g>
     </g>
    </g>
    <g id="xtick_33">
     <g id="line2d_38">
      <g>
       <use style="stroke:#000000;stroke-width:0.6;" x="273.724496" xlink:href="#m80bb0b5fcc" y="241"/>
      </g>
     </g>
    </g>
    <g id="xtick_34">
     <g id="line2d_39">
      <g>
       <use style="stroke:#000000;stroke-width:0.6;" x="277.586408" xlink:href="#m80bb0b5fcc" y="241"/>
      </g>
     </g>
    </g>
    <g id="xtick_35">
     <g id="line2d_40">
      <g>
       <use style="stroke:#000000;stroke-width:0.6;" x="280.992855" xlink:href="#m80bb0b5fcc" y="241"/>
      </g>
     </g>
    </g>
    <g id="xtick_36">
     <g id="line2d_41">
      <g>
       <use style="stroke:#000000;stroke-width:0.6;" x="304.086797" xlink:href="#m80bb0b5fcc" y="241"/>
      </g>
     </g>
    </g>
    <g id="xtick_37">
     <g id="line2d_42">
      <g>
       <use style="stroke:#000000;stroke-width:0.6;" x="315.813406" xlink:href="#m80bb0b5fcc" y="241"/>
      </g>
     </g>
    </g>
    <g id="xtick_38">
     <g id="line2d_43">
      <g>
       <use style="stroke:#000000;stroke-width:0.6;" x="324.133567" xlink:href="#m80bb0b5fcc" y="241"/>
      </g>
     </g>
    </g>
    <g id="xtick_39">
     <g id="line2d_44">
      <g>
       <use style="stroke:#000000;stroke-width:0.6;" x="330.587186" xlink:href="#m80bb0b5fcc" y="241"/>
      </g>
     </g>
    </g>
    <g id="xtick_40">
     <g id="line2d_45">
      <g>
       <use style="stroke:#000000;stroke-width:0.6;" x="335.860176" xlink:href="#m80bb0b5fcc" y="241"/>
      </g>
     </g>
    </g>
    <g id="xtick_41">
     <g id="line2d_46">
      <g>
       <use style="stroke:#000000;stroke-width:0.6;" x="340.318426" xlink:href="#m80bb0b5fcc" y="241"/>
      </g>
     </g>
    </g>
    <g id="xtick_42">
     <g id="line2d_47">
      <g>
       <use style="stroke:#000000;stroke-width:0.6;" x="344.180338" xlink:href="#m80bb0b5fcc" y="241"/>
      </g>
     </g>
    </g>
    <g id="xtick_43">
     <g id="line2d_48">
      <g>
       <use style="stroke:#000000;stroke-width:0.6;" x="347.586785" xlink:href="#m80bb0b5fcc" y="241"/>
      </g>
     </g>
    </g>
    <g id="xtick_44">
     <g id="line2d_49">
      <g>
       <use style="stroke:#000000;stroke-width:0.6;" x="370.680727" xlink:href="#m80bb0b5fcc" y="241"/>
      </g>
     </g>
    </g>
    <g id="xtick_45">
     <g id="line2d_50">
      <g>
       <use style="stroke:#000000;stroke-width:0.6;" x="382.407336" xlink:href="#m80bb0b5fcc" y="241"/>
      </g>
     </g>
    </g>
    <g id="xtick_46">
     <g id="line2d_51">
      <g>
       <use style="stroke:#000000;stroke-width:0.6;" x="390.727497" xlink:href="#m80bb0b5fcc" y="241"/>
      </g>
     </g>
    </g>
    <g id="xtick_47">
     <g id="line2d_52">
      <g>
       <use style="stroke:#000000;stroke-width:0.6;" x="397.181116" xlink:href="#m80bb0b5fcc" y="241"/>
      </g>
     </g>
    </g>
    <g id="text_6">
     <!-- Time (ms)  -->
     <defs>
      <path d="M -0.296875 72.90625 
L 61.375 72.90625 
L 61.375 64.59375 
L 35.5 64.59375 
L 35.5 0 
L 25.59375 0 
L 25.59375 64.59375 
L -0.296875 64.59375 
z
" id="DejaVuSans-84"/>
      <path d="M 9.421875 54.6875 
L 18.40625 54.6875 
L 18.40625 0 
L 9.421875 0 
z
M 9.421875 75.984375 
L 18.40625 75.984375 
L 18.40625 64.59375 
L 9.421875 64.59375 
z
" id="DejaVuSans-105"/>
      <path d="M 52 44.1875 
Q 55.375 50.25 60.0625 53.125 
Q 64.75 56 71.09375 56 
Q 79.640625 56 84.28125 50.015625 
Q 88.921875 44.046875 88.921875 33.015625 
L 88.921875 0 
L 79.890625 0 
L 79.890625 32.71875 
Q 79.890625 40.578125 77.09375 44.375 
Q 74.3125 48.1875 68.609375 48.1875 
Q 61.625 48.1875 57.5625 43.546875 
Q 53.515625 38.921875 53.515625 30.90625 
L 53.515625 0 
L 44.484375 0 
L 44.484375 32.71875 
Q 44.484375 40.625 41.703125 44.40625 
Q 38.921875 48.1875 33.109375 48.1875 
Q 26.21875 48.1875 22.15625 43.53125 
Q 18.109375 38.875 18.109375 30.90625 
L 18.109375 0 
L 9.078125 0 
L 9.078125 54.6875 
L 18.109375 54.6875 
L 18.109375 46.1875 
Q 21.1875 51.21875 25.484375 53.609375 
Q 29.78125 56 35.6875 56 
Q 41.65625 56 45.828125 52.96875 
Q 50 49.953125 52 44.1875 
z
" id="DejaVuSans-109"/>
      <path d="M 56.203125 29.59375 
L 56.203125 25.203125 
L 14.890625 25.203125 
Q 15.484375 15.921875 20.484375 11.0625 
Q 25.484375 6.203125 34.421875 6.203125 
Q 39.59375 6.203125 44.453125 7.46875 
Q 49.3125 8.734375 54.109375 11.28125 
L 54.109375 2.78125 
Q 49.265625 0.734375 44.1875 -0.34375 
Q 39.109375 -1.421875 33.890625 -1.421875 
Q 20.796875 -1.421875 13.15625 6.1875 
Q 5.515625 13.8125 5.515625 26.8125 
Q 5.515625 40.234375 12.765625 48.109375 
Q 20.015625 56 32.328125 56 
Q 43.359375 56 49.78125 48.890625 
Q 56.203125 41.796875 56.203125 29.59375 
z
M 47.21875 32.234375 
Q 47.125 39.59375 43.09375 43.984375 
Q 39.0625 48.390625 32.421875 48.390625 
Q 24.90625 48.390625 20.390625 44.140625 
Q 15.875 39.890625 15.1875 32.171875 
z
" id="DejaVuSans-101"/>
      <path id="DejaVuSans-32"/>
      <path d="M 31 75.875 
Q 24.46875 64.65625 21.28125 53.65625 
Q 18.109375 42.671875 18.109375 31.390625 
Q 18.109375 20.125 21.3125 9.0625 
Q 24.515625 -2 31 -13.1875 
L 23.1875 -13.1875 
Q 15.875 -1.703125 12.234375 9.375 
Q 8.59375 20.453125 8.59375 31.390625 
Q 8.59375 42.28125 12.203125 53.3125 
Q 15.828125 64.359375 23.1875 75.875 
z
" id="DejaVuSans-40"/>
      <path d="M 44.28125 53.078125 
L 44.28125 44.578125 
Q 40.484375 46.53125 36.375 47.5 
Q 32.28125 48.484375 27.875 48.484375 
Q 21.1875 48.484375 17.84375 46.4375 
Q 14.5 44.390625 14.5 40.28125 
Q 14.5 37.15625 16.890625 35.375 
Q 19.28125 33.59375 26.515625 31.984375 
L 29.59375 31.296875 
Q 39.15625 29.25 43.1875 25.515625 
Q 47.21875 21.78125 47.21875 15.09375 
Q 47.21875 7.46875 41.1875 3.015625 
Q 35.15625 -1.421875 24.609375 -1.421875 
Q 20.21875 -1.421875 15.453125 -0.5625 
Q 10.6875 0.296875 5.421875 2 
L 5.421875 11.28125 
Q 10.40625 8.6875 15.234375 7.390625 
Q 20.0625 6.109375 24.8125 6.109375 
Q 31.15625 6.109375 34.5625 8.28125 
Q 37.984375 10.453125 37.984375 14.40625 
Q 37.984375 18.0625 35.515625 20.015625 
Q 33.0625 21.96875 24.703125 23.78125 
L 21.578125 24.515625 
Q 13.234375 26.265625 9.515625 29.90625 
Q 5.8125 33.546875 5.8125 39.890625 
Q 5.8125 47.609375 11.28125 51.796875 
Q 16.75 56 26.8125 56 
Q 31.78125 56 36.171875 55.265625 
Q 40.578125 54.546875 44.28125 53.078125 
z
" id="DejaVuSans-115"/>
      <path d="M 8.015625 75.875 
L 15.828125 75.875 
Q 23.140625 64.359375 26.78125 53.3125 
Q 30.421875 42.28125 30.421875 31.390625 
Q 30.421875 20.453125 26.78125 9.375 
Q 23.140625 -1.703125 15.828125 -13.1875 
L 8.015625 -13.1875 
Q 14.5 -2 17.703125 9.0625 
Q 20.90625 20.125 20.90625 31.390625 
Q 20.90625 42.671875 17.703125 53.65625 
Q 14.5 64.65625 8.015625 75.875 
z
" id="DejaVuSans-41"/>
     </defs>
     <g transform="translate(197.85156 269.276563)scale(0.1 -0.1)">
      <use xlink:href="#DejaVuSans-84"/>
      <use x="61.037109" xlink:href="#DejaVuSans-105"/>
      <use x="88.820312" xlink:href="#DejaVuSans-109"/>
      <use x="186.232422" xlink:href="#DejaVuSans-101"/>
      <use x="247.755859" xlink:href="#DejaVuSans-32"/>
      <use x="279.542969" xlink:href="#DejaVuSans-40"/>
      <use x="318.556641" xlink:href="#DejaVuSans-109"/>
      <use x="415.96875" xlink:href="#DejaVuSans-115"/>
      <use x="468.068359" xlink:href="#DejaVuSans-41"/>
      <use x="507.082031" xlink:href="#DejaVuSans-32"/>
     </g>
     <!--  log (base 10) -->
     <defs>
      <path d="M 9.421875 75.984375 
L 18.40625 75.984375 
L 18.40625 0 
L 9.421875 0 
z
" id="DejaVuSans-108"/>
      <path d="M 30.609375 48.390625 
Q 23.390625 48.390625 19.1875 42.75 
Q 14.984375 37.109375 14.984375 27.296875 
Q 14.984375 17.484375 19.15625 11.84375 
Q 23.34375 6.203125 30.609375 6.203125 
Q 37.796875 6.203125 41.984375 11.859375 
Q 46.1875 17.53125 46.1875 27.296875 
Q 46.1875 37.015625 41.984375 42.703125 
Q 37.796875 48.390625 30.609375 48.390625 
z
M 30.609375 56 
Q 42.328125 56 49.015625 48.375 
Q 55.71875 40.765625 55.71875 27.296875 
Q 55.71875 13.875 49.015625 6.21875 
Q 42.328125 -1.421875 30.609375 -1.421875 
Q 18.84375 -1.421875 12.171875 6.21875 
Q 5.515625 13.875 5.515625 27.296875 
Q 5.515625 40.765625 12.171875 48.375 
Q 18.84375 56 30.609375 56 
z
" id="DejaVuSans-111"/>
      <path d="M 45.40625 27.984375 
Q 45.40625 37.75 41.375 43.109375 
Q 37.359375 48.484375 30.078125 48.484375 
Q 22.859375 48.484375 18.828125 43.109375 
Q 14.796875 37.75 14.796875 27.984375 
Q 14.796875 18.265625 18.828125 12.890625 
Q 22.859375 7.515625 30.078125 7.515625 
Q 37.359375 7.515625 41.375 12.890625 
Q 45.40625 18.265625 45.40625 27.984375 
z
M 54.390625 6.78125 
Q 54.390625 -7.171875 48.1875 -13.984375 
Q 42 -20.796875 29.203125 -20.796875 
Q 24.46875 -20.796875 20.265625 -20.09375 
Q 16.0625 -19.390625 12.109375 -17.921875 
L 12.109375 -9.1875 
Q 16.0625 -11.328125 19.921875 -12.34375 
Q 23.78125 -13.375 27.78125 -13.375 
Q 36.625 -13.375 41.015625 -8.765625 
Q 45.40625 -4.15625 45.40625 5.171875 
L 45.40625 9.625 
Q 42.625 4.78125 38.28125 2.390625 
Q 33.9375 0 27.875 0 
Q 17.828125 0 11.671875 7.65625 
Q 5.515625 15.328125 5.515625 27.984375 
Q 5.515625 40.671875 11.671875 48.328125 
Q 17.828125 56 27.875 56 
Q 33.9375 56 38.28125 53.609375 
Q 42.625 51.21875 45.40625 46.390625 
L 45.40625 54.6875 
L 54.390625 54.6875 
z
" id="DejaVuSans-103"/>
      <path d="M 48.6875 27.296875 
Q 48.6875 37.203125 44.609375 42.84375 
Q 40.53125 48.484375 33.40625 48.484375 
Q 26.265625 48.484375 22.1875 42.84375 
Q 18.109375 37.203125 18.109375 27.296875 
Q 18.109375 17.390625 22.1875 11.75 
Q 26.265625 6.109375 33.40625 6.109375 
Q 40.53125 6.109375 44.609375 11.75 
Q 48.6875 17.390625 48.6875 27.296875 
z
M 18.109375 46.390625 
Q 20.953125 51.265625 25.265625 53.625 
Q 29.59375 56 35.59375 56 
Q 45.5625 56 51.78125 48.09375 
Q 58.015625 40.1875 58.015625 27.296875 
Q 58.015625 14.40625 51.78125 6.484375 
Q 45.5625 -1.421875 35.59375 -1.421875 
Q 29.59375 -1.421875 25.265625 0.953125 
Q 20.953125 3.328125 18.109375 8.203125 
L 18.109375 0 
L 9.078125 0 
L 9.078125 75.984375 
L 18.109375 75.984375 
z
" id="DejaVuSans-98"/>
      <path d="M 34.28125 27.484375 
Q 23.390625 27.484375 19.1875 25 
Q 14.984375 22.515625 14.984375 16.5 
Q 14.984375 11.71875 18.140625 8.90625 
Q 21.296875 6.109375 26.703125 6.109375 
Q 34.1875 6.109375 38.703125 11.40625 
Q 43.21875 16.703125 43.21875 25.484375 
L 43.21875 27.484375 
z
M 52.203125 31.203125 
L 52.203125 0 
L 43.21875 0 
L 43.21875 8.296875 
Q 40.140625 3.328125 35.546875 0.953125 
Q 30.953125 -1.421875 24.3125 -1.421875 
Q 15.921875 -1.421875 10.953125 3.296875 
Q 6 8.015625 6 15.921875 
Q 6 25.140625 12.171875 29.828125 
Q 18.359375 34.515625 30.609375 34.515625 
L 43.21875 34.515625 
L 43.21875 35.40625 
Q 43.21875 41.609375 39.140625 45 
Q 35.0625 48.390625 27.6875 48.390625 
Q 23 48.390625 18.546875 47.265625 
Q 14.109375 46.140625 10.015625 43.890625 
L 10.015625 52.203125 
Q 14.9375 54.109375 19.578125 55.046875 
Q 24.21875 56 28.609375 56 
Q 40.484375 56 46.34375 49.84375 
Q 52.203125 43.703125 52.203125 31.203125 
z
" id="DejaVuSans-97"/>
     </defs>
     <g transform="translate(190.22031 280.474375)scale(0.1 -0.1)">
      <use xlink:href="#DejaVuSans-32"/>
      <use x="31.787109" xlink:href="#DejaVuSans-108"/>
      <use x="59.570312" xlink:href="#DejaVuSans-111"/>
      <use x="120.751953" xlink:href="#DejaVuSans-103"/>
      <use x="184.228516" xlink:href="#DejaVuSans-32"/>
      <use x="216.015625" xlink:href="#DejaVuSans-40"/>
      <use x="255.029297" xlink:href="#DejaVuSans-98"/>
      <use x="318.505859" xlink:href="#DejaVuSans-97"/>
      <use x="379.785156" xlink:href="#DejaVuSans-115"/>
      <use x="431.884766" xlink:href="#DejaVuSans-101"/>
      <use x="493.408203" xlink:href="#DejaVuSans-32"/>
      <use x="525.195312" xlink:href="#DejaVuSans-49"/>
      <use x="588.818359" xlink:href="#DejaVuSans-48"/>
      <use x="652.441406" xlink:href="#DejaVuSans-41"/>
     </g>
    </g>
   </g>
   <g id="matplotlib.axis_2">
    <g id="ytick_1">
     <g id="line2d_53">
      <path clip-path="url(#p28da8269da)" d="M 52.875 231.572189 
L 396.712495 231.572189 
" style="fill:none;stroke:#b0b0b0;stroke-dasharray:3.7,1.6;stroke-dashoffset:0;"/>
     </g>
     <g id="line2d_54">
      <defs>
       <path d="M 0 0 
L -3.5 0 
" id="m5cf9f87968" style="stroke:#000000;stroke-width:0.8;"/>
      </defs>
      <g>
       <use style="stroke:#000000;stroke-width:0.8;" x="52.875" xlink:href="#m5cf9f87968" y="231.572189"/>
      </g>
     </g>
     <g id="text_7">
      <!-- 0.0 -->
      <defs>
       <path d="M 10.6875 12.40625 
L 21 12.40625 
L 21 0 
L 10.6875 0 
z
" id="DejaVuSans-46"/>
      </defs>
      <g transform="translate(29.971875 235.371408)scale(0.1 -0.1)">
       <use xlink:href="#DejaVuSans-48"/>
       <use x="63.623047" xlink:href="#DejaVuSans-46"/>
       <use x="95.410156" xlink:href="#DejaVuSans-48"/>
      </g>
     </g>
    </g>
    <g id="ytick_2">
     <g id="line2d_55">
      <path clip-path="url(#p28da8269da)" d="M 52.875 193.844115 
L 396.712495 193.844115 
" style="fill:none;stroke:#b0b0b0;stroke-dasharray:3.7,1.6;stroke-dashoffset:0;"/>
     </g>
     <g id="line2d_56">
      <g>
       <use style="stroke:#000000;stroke-width:0.8;" x="52.875" xlink:href="#m5cf9f87968" y="193.844115"/>
      </g>
     </g>
     <g id="text_8">
      <!-- 0.2 -->
      <g transform="translate(29.971875 197.643333)scale(0.1 -0.1)">
       <use xlink:href="#DejaVuSans-48"/>
       <use x="63.623047" xlink:href="#DejaVuSans-46"/>
       <use x="95.410156" xlink:href="#DejaVuSans-50"/>
      </g>
     </g>
    </g>
    <g id="ytick_3">
     <g id="line2d_57">
      <path clip-path="url(#p28da8269da)" d="M 52.875 156.116041 
L 396.712495 156.116041 
" style="fill:none;stroke:#b0b0b0;stroke-dasharray:3.7,1.6;stroke-dashoffset:0;"/>
     </g>
     <g id="line2d_58">
      <g>
       <use style="stroke:#000000;stroke-width:0.8;" x="52.875" xlink:href="#m5cf9f87968" y="156.116041"/>
      </g>
     </g>
     <g id="text_9">
      <!-- 0.4 -->
      <defs>
       <path d="M 37.796875 64.3125 
L 12.890625 25.390625 
L 37.796875 25.390625 
z
M 35.203125 72.90625 
L 47.609375 72.90625 
L 47.609375 25.390625 
L 58.015625 25.390625 
L 58.015625 17.1875 
L 47.609375 17.1875 
L 47.609375 0 
L 37.796875 0 
L 37.796875 17.1875 
L 4.890625 17.1875 
L 4.890625 26.703125 
z
" id="DejaVuSans-52"/>
      </defs>
      <g transform="translate(29.971875 159.915259)scale(0.1 -0.1)">
       <use xlink:href="#DejaVuSans-48"/>
       <use x="63.623047" xlink:href="#DejaVuSans-46"/>
       <use x="95.410156" xlink:href="#DejaVuSans-52"/>
      </g>
     </g>
    </g>
    <g id="ytick_4">
     <g id="line2d_59">
      <path clip-path="url(#p28da8269da)" d="M 52.875 118.387966 
L 396.712495 118.387966 
" style="fill:none;stroke:#b0b0b0;stroke-dasharray:3.7,1.6;stroke-dashoffset:0;"/>
     </g>
     <g id="line2d_60">
      <g>
       <use style="stroke:#000000;stroke-width:0.8;" x="52.875" xlink:href="#m5cf9f87968" y="118.387966"/>
      </g>
     </g>
     <g id="text_10">
      <!-- 0.6 -->
      <defs>
       <path d="M 33.015625 40.375 
Q 26.375 40.375 22.484375 35.828125 
Q 18.609375 31.296875 18.609375 23.390625 
Q 18.609375 15.53125 22.484375 10.953125 
Q 26.375 6.390625 33.015625 6.390625 
Q 39.65625 6.390625 43.53125 10.953125 
Q 47.40625 15.53125 47.40625 23.390625 
Q 47.40625 31.296875 43.53125 35.828125 
Q 39.65625 40.375 33.015625 40.375 
z
M 52.59375 71.296875 
L 52.59375 62.3125 
Q 48.875 64.0625 45.09375 64.984375 
Q 41.3125 65.921875 37.59375 65.921875 
Q 27.828125 65.921875 22.671875 59.328125 
Q 17.53125 52.734375 16.796875 39.40625 
Q 19.671875 43.65625 24.015625 45.921875 
Q 28.375 48.1875 33.59375 48.1875 
Q 44.578125 48.1875 50.953125 41.515625 
Q 57.328125 34.859375 57.328125 23.390625 
Q 57.328125 12.15625 50.6875 5.359375 
Q 44.046875 -1.421875 33.015625 -1.421875 
Q 20.359375 -1.421875 13.671875 8.265625 
Q 6.984375 17.96875 6.984375 36.375 
Q 6.984375 53.65625 15.1875 63.9375 
Q 23.390625 74.21875 37.203125 74.21875 
Q 40.921875 74.21875 44.703125 73.484375 
Q 48.484375 72.75 52.59375 71.296875 
z
" id="DejaVuSans-54"/>
      </defs>
      <g transform="translate(29.971875 122.187185)scale(0.1 -0.1)">
       <use xlink:href="#DejaVuSans-48"/>
       <use x="63.623047" xlink:href="#DejaVuSans-46"/>
       <use x="95.410156" xlink:href="#DejaVuSans-54"/>
      </g>
     </g>
    </g>
    <g id="ytick_5">
     <g id="line2d_61">
      <path clip-path="url(#p28da8269da)" d="M 52.875 80.659892 
L 396.712495 80.659892 
" style="fill:none;stroke:#b0b0b0;stroke-dasharray:3.7,1.6;stroke-dashoffset:0;"/>
     </g>
     <g id="line2d_62">
      <g>
       <use style="stroke:#000000;stroke-width:0.8;" x="52.875" xlink:href="#m5cf9f87968" y="80.659892"/>
      </g>
     </g>
     <g id="text_11">
      <!-- 0.8 -->
      <defs>
       <path d="M 31.78125 34.625 
Q 24.75 34.625 20.71875 30.859375 
Q 16.703125 27.09375 16.703125 20.515625 
Q 16.703125 13.921875 20.71875 10.15625 
Q 24.75 6.390625 31.78125 6.390625 
Q 38.8125 6.390625 42.859375 10.171875 
Q 46.921875 13.96875 46.921875 20.515625 
Q 46.921875 27.09375 42.890625 30.859375 
Q 38.875 34.625 31.78125 34.625 
z
M 21.921875 38.8125 
Q 15.578125 40.375 12.03125 44.71875 
Q 8.5 49.078125 8.5 55.328125 
Q 8.5 64.0625 14.71875 69.140625 
Q 20.953125 74.21875 31.78125 74.21875 
Q 42.671875 74.21875 48.875 69.140625 
Q 55.078125 64.0625 55.078125 55.328125 
Q 55.078125 49.078125 51.53125 44.71875 
Q 48 40.375 41.703125 38.8125 
Q 48.828125 37.15625 52.796875 32.3125 
Q 56.78125 27.484375 56.78125 20.515625 
Q 56.78125 9.90625 50.3125 4.234375 
Q 43.84375 -1.421875 31.78125 -1.421875 
Q 19.734375 -1.421875 13.25 4.234375 
Q 6.78125 9.90625 6.78125 20.515625 
Q 6.78125 27.484375 10.78125 32.3125 
Q 14.796875 37.15625 21.921875 38.8125 
z
M 18.3125 54.390625 
Q 18.3125 48.734375 21.84375 45.5625 
Q 25.390625 42.390625 31.78125 42.390625 
Q 38.140625 42.390625 41.71875 45.5625 
Q 45.3125 48.734375 45.3125 54.390625 
Q 45.3125 60.0625 41.71875 63.234375 
Q 38.140625 66.40625 31.78125 66.40625 
Q 25.390625 66.40625 21.84375 63.234375 
Q 18.3125 60.0625 18.3125 54.390625 
z
" id="DejaVuSans-56"/>
      </defs>
      <g transform="translate(29.971875 84.459111)scale(0.1 -0.1)">
       <use xlink:href="#DejaVuSans-48"/>
       <use x="63.623047" xlink:href="#DejaVuSans-46"/>
       <use x="95.410156" xlink:href="#DejaVuSans-56"/>
      </g>
     </g>
    </g>
    <g id="ytick_6">
     <g id="line2d_63">
      <path clip-path="url(#p28da8269da)" d="M 52.875 42.931818 
L 396.712495 42.931818 
" style="fill:none;stroke:#b0b0b0;stroke-dasharray:3.7,1.6;stroke-dashoffset:0;"/>
     </g>
     <g id="line2d_64">
      <g>
       <use style="stroke:#000000;stroke-width:0.8;" x="52.875" xlink:href="#m5cf9f87968" y="42.931818"/>
      </g>
     </g>
     <g id="text_12">
      <!-- 1.0 -->
      <g transform="translate(29.971875 46.731037)scale(0.1 -0.1)">
       <use xlink:href="#DejaVuSans-49"/>
       <use x="63.623047" xlink:href="#DejaVuSans-46"/>
       <use x="95.410156" xlink:href="#DejaVuSans-48"/>
      </g>
     </g>
    </g>
    <g id="text_13">
     <!-- Fraction of Requests -->
     <defs>
      <path d="M 9.8125 72.90625 
L 51.703125 72.90625 
L 51.703125 64.59375 
L 19.671875 64.59375 
L 19.671875 43.109375 
L 48.578125 43.109375 
L 48.578125 34.8125 
L 19.671875 34.8125 
L 19.671875 0 
L 9.8125 0 
z
" id="DejaVuSans-70"/>
      <path d="M 41.109375 46.296875 
Q 39.59375 47.171875 37.8125 47.578125 
Q 36.03125 48 33.890625 48 
Q 26.265625 48 22.1875 43.046875 
Q 18.109375 38.09375 18.109375 28.8125 
L 18.109375 0 
L 9.078125 0 
L 9.078125 54.6875 
L 18.109375 54.6875 
L 18.109375 46.1875 
Q 20.953125 51.171875 25.484375 53.578125 
Q 30.03125 56 36.53125 56 
Q 37.453125 56 38.578125 55.875 
Q 39.703125 55.765625 41.0625 55.515625 
z
" id="DejaVuSans-114"/>
      <path d="M 48.78125 52.59375 
L 48.78125 44.1875 
Q 44.96875 46.296875 41.140625 47.34375 
Q 37.3125 48.390625 33.40625 48.390625 
Q 24.65625 48.390625 19.8125 42.84375 
Q 14.984375 37.3125 14.984375 27.296875 
Q 14.984375 17.28125 19.8125 11.734375 
Q 24.65625 6.203125 33.40625 6.203125 
Q 37.3125 6.203125 41.140625 7.25 
Q 44.96875 8.296875 48.78125 10.40625 
L 48.78125 2.09375 
Q 45.015625 0.34375 40.984375 -0.53125 
Q 36.96875 -1.421875 32.421875 -1.421875 
Q 20.0625 -1.421875 12.78125 6.34375 
Q 5.515625 14.109375 5.515625 27.296875 
Q 5.515625 40.671875 12.859375 48.328125 
Q 20.21875 56 33.015625 56 
Q 37.15625 56 41.109375 55.140625 
Q 45.0625 54.296875 48.78125 52.59375 
z
" id="DejaVuSans-99"/>
      <path d="M 18.3125 70.21875 
L 18.3125 54.6875 
L 36.8125 54.6875 
L 36.8125 47.703125 
L 18.3125 47.703125 
L 18.3125 18.015625 
Q 18.3125 11.328125 20.140625 9.421875 
Q 21.96875 7.515625 27.59375 7.515625 
L 36.8125 7.515625 
L 36.8125 0 
L 27.59375 0 
Q 17.1875 0 13.234375 3.875 
Q 9.28125 7.765625 9.28125 18.015625 
L 9.28125 47.703125 
L 2.6875 47.703125 
L 2.6875 54.6875 
L 9.28125 54.6875 
L 9.28125 70.21875 
z
" id="DejaVuSans-116"/>
      <path d="M 54.890625 33.015625 
L 54.890625 0 
L 45.90625 0 
L 45.90625 32.71875 
Q 45.90625 40.484375 42.875 44.328125 
Q 39.84375 48.1875 33.796875 48.1875 
Q 26.515625 48.1875 22.3125 43.546875 
Q 18.109375 38.921875 18.109375 30.90625 
L 18.109375 0 
L 9.078125 0 
L 9.078125 54.6875 
L 18.109375 54.6875 
L 18.109375 46.1875 
Q 21.34375 51.125 25.703125 53.5625 
Q 30.078125 56 35.796875 56 
Q 45.21875 56 50.046875 50.171875 
Q 54.890625 44.34375 54.890625 33.015625 
z
" id="DejaVuSans-110"/>
      <path d="M 37.109375 75.984375 
L 37.109375 68.5 
L 28.515625 68.5 
Q 23.6875 68.5 21.796875 66.546875 
Q 19.921875 64.59375 19.921875 59.515625 
L 19.921875 54.6875 
L 34.71875 54.6875 
L 34.71875 47.703125 
L 19.921875 47.703125 
L 19.921875 0 
L 10.890625 0 
L 10.890625 47.703125 
L 2.296875 47.703125 
L 2.296875 54.6875 
L 10.890625 54.6875 
L 10.890625 58.5 
Q 10.890625 67.625 15.140625 71.796875 
Q 19.390625 75.984375 28.609375 75.984375 
z
" id="DejaVuSans-102"/>
      <path d="M 44.390625 34.1875 
Q 47.5625 33.109375 50.5625 29.59375 
Q 53.5625 26.078125 56.59375 19.921875 
L 66.609375 0 
L 56 0 
L 46.6875 18.703125 
Q 43.0625 26.03125 39.671875 28.421875 
Q 36.28125 30.8125 30.421875 30.8125 
L 19.671875 30.8125 
L 19.671875 0 
L 9.8125 0 
L 9.8125 72.90625 
L 32.078125 72.90625 
Q 44.578125 72.90625 50.734375 67.671875 
Q 56.890625 62.453125 56.890625 51.90625 
Q 56.890625 45.015625 53.6875 40.46875 
Q 50.484375 35.9375 44.390625 34.1875 
z
M 19.671875 64.796875 
L 19.671875 38.921875 
L 32.078125 38.921875 
Q 39.203125 38.921875 42.84375 42.21875 
Q 46.484375 45.515625 46.484375 51.90625 
Q 46.484375 58.296875 42.84375 61.546875 
Q 39.203125 64.796875 32.078125 64.796875 
z
" id="DejaVuSans-82"/>
      <path d="M 14.796875 27.296875 
Q 14.796875 17.390625 18.875 11.75 
Q 22.953125 6.109375 30.078125 6.109375 
Q 37.203125 6.109375 41.296875 11.75 
Q 45.40625 17.390625 45.40625 27.296875 
Q 45.40625 37.203125 41.296875 42.84375 
Q 37.203125 48.484375 30.078125 48.484375 
Q 22.953125 48.484375 18.875 42.84375 
Q 14.796875 37.203125 14.796875 27.296875 
z
M 45.40625 8.203125 
Q 42.578125 3.328125 38.25 0.953125 
Q 33.9375 -1.421875 27.875 -1.421875 
Q 17.96875 -1.421875 11.734375 6.484375 
Q 5.515625 14.40625 5.515625 27.296875 
Q 5.515625 40.1875 11.734375 48.09375 
Q 17.96875 56 27.875 56 
Q 33.9375 56 38.25 53.625 
Q 42.578125 51.265625 45.40625 46.390625 
L 45.40625 54.6875 
L 54.390625 54.6875 
L 54.390625 -20.796875 
L 45.40625 -20.796875 
z
" id="DejaVuSans-113"/>
      <path d="M 8.5 21.578125 
L 8.5 54.6875 
L 17.484375 54.6875 
L 17.484375 21.921875 
Q 17.484375 14.15625 20.5 10.265625 
Q 23.53125 6.390625 29.59375 6.390625 
Q 36.859375 6.390625 41.078125 11.03125 
Q 45.3125 15.671875 45.3125 23.6875 
L 45.3125 54.6875 
L 54.296875 54.6875 
L 54.296875 0 
L 45.3125 0 
L 45.3125 8.40625 
Q 42.046875 3.421875 37.71875 1 
Q 33.40625 -1.421875 27.6875 -1.421875 
Q 18.265625 -1.421875 13.375 4.4375 
Q 8.5 10.296875 8.5 21.578125 
z
M 31.109375 56 
z
" id="DejaVuSans-117"/>
     </defs>
     <g transform="translate(23.892187 188.700781)rotate(-90)scale(0.1 -0.1)">
      <use xlink:href="#DejaVuSans-70"/>
      <use x="57.410156" xlink:href="#DejaVuSans-114"/>
      <use x="98.523438" xlink:href="#DejaVuSans-97"/>
      <use x="159.802734" xlink:href="#DejaVuSans-99"/>
      <use x="214.783203" xlink:href="#DejaVuSans-116"/>
      <use x="253.992188" xlink:href="#DejaVuSans-105"/>
      <use x="281.775391" xlink:href="#DejaVuSans-111"/>
      <use x="342.957031" xlink:href="#DejaVuSans-110"/>
      <use x="406.335938" xlink:href="#DejaVuSans-32"/>
      <use x="438.123047" xlink:href="#DejaVuSans-111"/>
      <use x="499.304688" xlink:href="#DejaVuSans-102"/>
      <use x="534.509766" xlink:href="#DejaVuSans-32"/>
      <use x="566.296875" xlink:href="#DejaVuSans-82"/>
      <use x="635.716797" xlink:href="#DejaVuSans-101"/>
      <use x="697.240234" xlink:href="#DejaVuSans-113"/>
      <use x="760.716797" xlink:href="#DejaVuSans-117"/>
      <use x="824.095703" xlink:href="#DejaVuSans-101"/>
      <use x="885.619141" xlink:href="#DejaVuSans-115"/>
      <use x="937.71875" xlink:href="#DejaVuSans-116"/>
      <use x="976.927734" xlink:href="#DejaVuSans-115"/>
     </g>
    </g>
   </g>
   <g id="line2d_65">
    <path clip-path="url(#p28da8269da)" d="M 111.2973 231.567774 
L 116.137467 231.430925 
L 116.204626 231.422096 
L 118.770584 231.29849 
L 120.539403 230.821724 
L 120.843021 230.671631 
L 122.951904 229.409084 
L 123.261388 229.09124 
L 123.493209 228.936733 
L 123.826451 228.420237 
L 124.119476 227.916984 
L 124.395127 227.215078 
L 124.553522 226.857504 
L 124.832198 226.248303 
L 125.206659 225.321258 
L 126.429936 221.82939 
L 126.477001 221.688126 
L 126.697852 221.193702 
L 127.415574 219.600068 
L 127.532402 219.397001 
L 128.103216 218.160941 
L 128.750057 216.558478 
L 129.230448 214.995745 
L 129.279271 214.82358 
L 129.370592 214.501321 
L 130.473799 210.086822 
L 130.741699 209.142119 
L 131.928587 204.233197 
L 132.111617 203.513633 
L 132.599545 201.112146 
L 135.655957 183.10099 
L 136.975356 174.37794 
L 137.00338 174.236676 
L 137.429725 171.256889 
L 137.849875 168.193227 
L 138.165515 165.804983 
L 138.610537 162.180679 
L 139.230929 157.068689 
L 139.574672 154.216923 
L 140.262655 148.840063 
L 140.573797 146.601912 
L 141.060707 142.982023 
L 142.960705 131.305673 
L 143.04796 130.833322 
L 143.990788 125.995031 
L 145.087993 121.24503 
L 145.158507 120.98016 
L 145.351539 120.159063 
L 145.633497 118.865615 
L 146.073532 117.19252 
L 146.114444 116.97621 
L 146.375594 115.815196 
L 146.557342 115.042659 
L 146.757954 114.336339 
L 147.910847 110.204368 
L 147.984393 110.023374 
L 148.396611 108.55776 
L 148.78751 107.392332 
L 148.886737 107.078903 
L 149.068798 106.460873 
L 149.188517 106.098884 
L 149.496275 105.260129 
L 149.644412 104.853995 
L 149.902587 103.993168 
L 150.03379 103.613521 
L 150.188085 103.158828 
L 150.409186 102.505482 
L 150.538117 102.112592 
L 151.986484 98.060082 
L 152.067018 97.892331 
L 152.293528 97.327275 
L 152.559203 96.590053 
L 152.768375 96.055899 
L 152.927633 95.658594 
L 153.30206 94.81101 
L 155.293885 90.144885 
L 155.385514 89.968305 
L 155.68805 89.288472 
L 155.897714 88.86468 
L 156.477291 87.606548 
L 157.96005 84.631176 
L 158.13145 84.278016 
L 158.286188 84.061705 
L 158.420073 83.84098 
L 158.5223 83.646742 
L 158.685998 83.373043 
L 158.802674 83.165562 
L 159.676917 81.646974 
L 159.76843 81.474809 
L 160.049664 81.02453 
L 160.419745 80.503619 
L 160.618504 80.132801 
L 160.754363 79.903247 
L 160.899805 79.669279 
L 161.06078 79.34702 
L 162.151454 76.715979 
L 162.402785 76.093535 
L 164.524743 71.533357 
L 164.645268 71.365606 
L 165.014493 70.751991 
L 165.815051 69.582149 
L 165.980081 69.277548 
L 166.263242 68.990606 
L 166.486443 68.716907 
L 170.778664 63.27383 
L 170.927844 63.119322 
L 171.179555 62.841209 
L 171.353746 62.6558 
L 171.925991 61.958309 
L 172.116561 61.808216 
L 172.321031 61.63605 
L 172.491238 61.450641 
L 172.689008 61.251989 
L 173.134127 60.731078 
L 173.417836 60.523597 
L 173.560632 60.399991 
L 173.790527 60.196924 
L 174.53456 59.561236 
L 175.026425 59.150687 
L 175.266148 58.982936 
L 175.42363 58.828429 
L 175.673585 58.598875 
L 175.82887 58.448782 
L 176.042698 58.263373 
L 176.19361 58.086793 
L 176.346135 57.941115 
L 176.543103 57.795436 
L 176.817803 57.596784 
L 177.033828 57.424618 
L 177.198283 57.274525 
L 177.486441 57.084702 
L 177.714688 56.903707 
L 179.852362 54.992229 
L 179.975184 54.842136 
L 180.435336 54.387443 
L 180.841152 54.047527 
L 181.406732 53.416253 
L 181.605147 53.244088 
L 181.785343 53.045435 
L 181.900241 52.965974 
L 182.088436 52.811467 
L 182.302724 52.55984 
L 182.508661 52.414162 
L 182.691027 52.250826 
L 182.823461 52.109562 
L 183.012421 51.972712 
L 183.132029 51.866764 
L 184.691141 50.564487 
L 184.931591 50.387907 
L 185.05506 50.334933 
L 185.808329 49.915556 
L 186.102177 49.774292 
L 189.53217 48.127683 
L 190.097564 47.871643 
L 190.397547 47.725964 
L 191.446033 47.372804 
L 191.83777 47.205053 
L 192.560582 46.882795 
L 193.297115 46.564951 
L 193.952216 46.375127 
L 194.068626 46.326568 
L 194.313567 46.216205 
L 194.791618 46.070527 
L 196.334753 45.531958 
L 196.444964 45.492228 
L 196.657607 45.421596 
L 197.183929 45.271503 
L 197.301406 45.218529 
L 198.168158 44.997804 
L 198.336642 44.940415 
L 198.799385 44.803566 
L 199.861971 44.551939 
L 201.029082 44.36653 
L 201.788413 44.282655 
L 203.285648 44.084002 
L 205.921088 43.79706 
L 216.318142 43.337952 
L 224.628979 43.174616 
L 226.831735 43.134885 
L 266.176465 42.96272 
L 358.624288 42.931818 
L 358.624288 42.931818 
" style="fill:none;stroke:#00aff0;stroke-dasharray:7.4,3.2;stroke-dashoffset:0;stroke-width:2;"/>
   </g>
   <g id="line2d_66">
    <path clip-path="url(#p28da8269da)" d="M 108.031031 231.567776 
L 122.2296 231.448623 
L 122.469806 231.422145 
L 123.493209 231.214731 
L 125.437388 230.852861 
L 125.610965 230.808731 
L 128.873997 230.177664 
L 129.21823 230.062925 
L 129.624768 229.904055 
L 130.467947 229.586315 
L 130.834303 229.445097 
L 131.508252 229.184727 
L 131.777969 229.114118 
L 135.875225 227.379788 
L 136.375707 227.066462 
L 137.022048 226.757548 
L 137.184881 226.61633 
L 137.62229 226.285351 
L 138.433349 225.649871 
L 138.654665 225.46011 
L 140.011309 223.946433 
L 140.358429 223.469823 
L 140.507701 223.271236 
L 140.689104 223.04617 
L 140.918347 222.750496 
L 141.182175 222.441582 
L 141.639154 221.784037 
L 141.900458 221.298601 
L 142.116422 220.8926 
L 142.388973 220.354208 
L 142.504999 220.05412 
L 143.025223 218.191812 
L 143.251792 217.393049 
L 143.472867 216.48396 
L 143.895301 215.018826 
L 144.268108 213.849367 
L 144.427455 213.425714 
L 144.528402 213.143279 
L 144.714946 212.65343 
L 144.875413 212.185646 
L 145.045602 211.823776 
L 145.994955 209.158292 
L 146.226654 208.544877 
L 147.575933 204.727586 
L 147.808209 204.074455 
L 148.169032 203.081518 
L 148.494048 202.194494 
L 148.603664 201.850276 
L 148.892927 201.100057 
L 149.013375 200.738186 
L 149.359559 199.736423 
L 149.746757 198.544899 
L 150.412123 196.254524 
L 150.62278 195.499892 
L 150.976262 194.42752 
L 151.162843 193.836171 
L 151.222866 193.659649 
L 151.450393 192.940321 
L 153.002907 187.741745 
L 153.182236 187.066548 
L 154.532389 182.234254 
L 154.727813 181.192774 
L 154.808641 180.830903 
L 156.312538 173.522887 
L 156.405775 173.1213 
L 156.723856 171.982732 
L 156.83695 171.537014 
L 157.038477 170.848577 
L 157.993959 167.81681 
L 158.171896 167.159265 
L 159.37479 161.987166 
L 159.76843 159.670314 
L 160.766682 155.05426 
L 161.253178 151.828318 
L 161.311656 151.435556 
L 162.69423 143.081647 
L 162.809226 142.543254 
L 163.386821 140.39851 
L 163.605364 139.612987 
L 163.789004 138.906898 
L 163.87578 138.633289 
L 164.294898 137.154916 
L 164.3693 136.82835 
L 164.852757 135.023412 
L 165.095907 134.127562 
L 165.312482 133.337625 
L 165.407053 132.966929 
L 165.809879 131.501795 
L 165.950926 131.144338 
L 166.137356 130.561815 
L 166.212273 130.288206 
L 166.440928 129.370291 
L 166.701248 128.381767 
L 167.053547 127.11522 
L 167.619464 125.288216 
L 167.761648 124.780715 
L 168.08381 123.615669 
L 168.128405 123.439147 
L 168.274449 122.905168 
L 168.430785 122.428558 
L 168.611334 121.850448 
L 169.206171 119.798378 
L 169.255192 119.657161 
L 169.511203 118.823093 
L 169.612674 118.492114 
L 169.82506 117.759548 
L 171.680721 112.635993 
L 171.746798 112.450645 
L 171.891079 112.018165 
L 171.973403 111.779861 
L 172.119334 111.444469 
L 172.202394 111.237055 
L 173.069807 108.836354 
L 173.122078 108.708376 
L 174.052344 106.016413 
L 174.10287 105.875195 
L 174.283525 105.407412 
L 177.4945 94.78078 
L 177.585301 94.573366 
L 177.88328 93.867278 
L 177.972871 93.677517 
L 178.45905 92.490405 
L 178.624478 92.062339 
L 182.620725 84.339496 
L 182.742921 84.1718 
L 182.931453 83.827582 
L 183.007665 83.681951 
L 183.191649 83.346559 
L 183.263407 83.222994 
L 183.435466 82.944971 
L 184.514675 81.051771 
L 184.643529 80.870836 
L 184.733297 80.654597 
L 184.88794 80.447183 
L 185.296032 79.727855 
L 185.410079 79.54692 
L 185.526294 79.304202 
L 185.835088 78.82318 
L 186.202022 78.174461 
L 186.523105 77.649307 
L 187.900143 75.464846 
L 188.033189 75.266259 
L 188.381327 74.71904 
L 188.549125 74.405713 
L 193.325764 67.883221 
L 193.539398 67.614025 
L 193.928747 67.10211 
L 194.140578 66.810849 
L 194.276862 66.621088 
L 194.399676 66.444565 
L 194.615741 66.2195 
L 194.761217 66.025325 
L 195.132062 65.500172 
L 195.266876 65.297172 
L 195.477819 65.036801 
L 195.609189 64.886758 
L 196.108829 64.361604 
L 196.449148 64.004147 
L 197.754032 62.569905 
L 198.036055 62.27423 
L 198.634137 61.674055 
L 198.894018 61.400446 
L 199.33664 60.990032 
L 199.613896 60.716422 
L 199.737933 60.575205 
L 201.76604 58.748201 
L 202.04471 58.554026 
L 202.722403 58.130373 
L 203.308291 57.82146 
L 203.790407 57.627285 
L 207.846726 55.892955 
L 208.28077 55.751738 
L 209.095455 55.504607 
L 209.288977 55.433998 
L 210.174845 55.29278 
L 213.932768 54.414583 
L 215.441017 54.07919 
L 215.553629 54.03506 
L 216.168903 53.840886 
L 216.333775 53.761451 
L 216.713574 53.598168 
L 217.045082 53.403993 
L 217.166818 53.328971 
L 218.212393 52.640535 
L 218.522513 52.3581 
L 218.843124 51.978577 
L 219.129676 51.647598 
L 219.391523 51.387228 
L 219.551965 51.179815 
L 219.716335 50.981227 
L 219.836406 50.82677 
L 220.068725 50.478139 
L 220.342135 50.107443 
L 220.628534 49.736746 
L 220.895958 49.454311 
L 221.032453 49.304267 
L 221.524145 48.796766 
L 221.698439 48.620244 
L 222.120529 48.214243 
L 222.239374 48.073025 
L 222.367248 47.958286 
L 222.651766 47.768524 
L 222.764602 47.706742 
L 223.263674 47.402241 
L 223.525023 47.247784 
L 224.648601 46.682913 
L 225.16145 46.506391 
L 225.615693 46.338695 
L 226.229251 46.144521 
L 226.776071 45.985651 
L 227.463682 45.800303 
L 228.826087 45.434019 
L 231.484803 44.869149 
L 232.654294 44.714692 
L 232.693242 44.705866 
L 234.008099 44.573474 
L 234.292813 44.529343 
L 240.295343 44.008603 
L 240.853132 43.968886 
L 244.049955 43.659972 
L 245.546888 43.479037 
L 255.358187 43.205427 
L 271.523603 43.06421 
L 282.031072 42.975949 
L 322.075914 42.931818 
L 322.075914 42.931818 
" style="fill:none;stroke:#800000;stroke-dasharray:7.4,3.2;stroke-dashoffset:0;stroke-width:2;"/>
   </g>
   <g id="line2d_67">
    <path clip-path="url(#p28da8269da)" d="M 136.034972 231.567152 
L 140.137255 231.446281 
L 142.40447 231.184392 
L 145.681954 230.217419 
L 146.687898 229.738969 
L 146.824516 229.673496 
L 147.260027 229.467007 
L 147.817847 229.270591 
L 148.858864 228.84754 
L 149.487181 228.565506 
L 150.188085 228.127346 
L 152.213623 227.437371 
L 152.367724 227.376935 
L 153.166222 227.120083 
L 153.888635 226.923666 
L 154.634072 226.752431 
L 155.714952 226.425071 
L 155.827183 226.369671 
L 156.255011 226.218582 
L 156.714411 226.057419 
L 157.148023 225.896257 
L 159.844824 225.040083 
L 160.369842 224.904102 
L 163.718654 224.254417 
L 163.923673 224.224199 
L 164.756352 224.047928 
L 167.048592 223.216935 
L 167.264197 223.146427 
L 167.617845 222.980228 
L 167.756812 222.90972 
L 168.455973 222.698194 
L 168.642619 222.607541 
L 169.363664 222.350688 
L 169.624766 222.219744 
L 172.981132 220.859938 
L 173.34883 220.648413 
L 174.242332 220.411706 
L 174.532009 220.326088 
L 176.04996 219.837565 
L 176.197223 219.751948 
L 176.539534 219.600858 
L 177.708975 219.031754 
L 177.994377 218.875628 
L 179.141268 218.442505 
L 179.249811 218.397178 
L 179.913838 218.089962 
L 180.478978 217.676984 
L 180.77134 217.535967 
L 181.331218 217.138098 
L 181.454958 216.997081 
L 181.75158 216.659648 
L 181.906171 216.443086 
L 182.031417 216.196306 
L 182.165919 215.929381 
L 182.336824 215.596984 
L 182.488327 215.390495 
L 183.833001 213.461585 
L 184.858505 210.963571 
L 185.852338 205.982651 
L 186.124394 205.076114 
L 186.268394 204.491901 
L 186.603873 203.167349 
L 187.389567 199.571417 
L 188.114637 194.414226 
L 188.26178 193.270982 
L 190.082669 182.412677 
L 190.140716 182.100426 
L 190.730165 178.857036 
L 190.781111 178.600184 
L 191.217731 176.348949 
L 191.366332 175.427303 
L 191.614671 173.48832 
L 192.54964 167.610935 
L 192.769741 166.618781 
L 192.922754 165.974132 
L 192.964589 165.812969 
L 193.240401 164.589144 
L 193.746871 162.60987 
L 193.873912 162.126384 
L 195.653461 155.705077 
L 195.766906 155.307208 
L 195.904283 154.869048 
L 196.262649 153.836602 
L 196.341953 153.660331 
L 196.419246 153.438733 
L 196.796142 152.315634 
L 196.852197 152.174617 
L 197.104566 151.373842 
L 198.125319 148.105271 
L 198.276662 147.742656 
L 198.902805 146.186434 
L 198.960954 146.045417 
L 201.726721 141.180332 
L 201.858402 141.004061 
L 202.14208 140.520575 
L 202.331941 140.203287 
L 202.478376 139.931325 
L 203.471454 138.11825 
L 203.602445 137.891616 
L 203.750498 137.48871 
L 204.484128 135.811616 
L 204.623241 135.5598 
L 204.883403 135.161931 
L 205.376625 134.366193 
L 205.539035 134.079122 
L 205.764714 133.761834 
L 205.953381 133.550309 
L 206.159631 133.263239 
L 206.302413 133.112149 
L 206.562292 132.673989 
L 206.699331 132.487646 
L 207.004691 132.054522 
L 207.133045 131.817815 
L 207.403613 131.435055 
L 207.548137 131.233602 
L 207.843501 130.795442 
L 208.09315 130.377428 
L 208.250181 130.06014 
L 208.395291 129.818396 
L 208.560133 129.596798 
L 210.652469 125.99583 
L 210.922258 125.638251 
L 211.081275 125.42169 
L 211.22759 125.184983 
L 211.372099 124.953312 
L 211.757367 124.414426 
L 211.854729 124.253264 
L 212.449656 121.704886 
L 212.623075 120.793312 
L 212.876865 119.740722 
L 212.980326 119.418397 
L 213.11199 119.070891 
L 215.263165 116.044063 
L 215.633798 115.741884 
L 215.89435 115.414524 
L 217.688595 113.863337 
L 218.428176 113.203579 
L 218.594037 113.047454 
L 219.288589 112.453168 
L 219.503791 112.297042 
L 221.971284 110.58973 
L 222.297391 110.39835 
L 222.649592 110.201933 
L 223.539551 109.718447 
L 223.677907 109.678156 
L 224.785355 109.098979 
L 224.906274 108.983144 
L 225.219423 108.75651 
L 225.36407 108.615493 
L 225.826641 108.232732 
L 226.028109 107.996025 
L 226.323024 107.7845 
L 226.815424 107.436994 
L 227.167213 107.185178 
L 227.269531 107.119706 
L 227.642515 106.898108 
L 228.48257 106.359222 
L 228.877167 105.961353 
L 229.120407 105.810263 
L 229.222215 105.699464 
L 229.437948 105.528229 
L 229.652462 105.32174 
L 230.311842 104.65191 
L 230.440937 104.526002 
L 230.590394 104.329585 
L 230.835359 104.047551 
L 231.018092 103.876316 
L 231.244942 103.39283 
L 231.458091 102.904307 
L 231.545613 102.70789 
L 231.721103 102.345275 
L 231.913778 101.776171 
L 232.333891 99.978205 
L 232.414842 99.801934 
L 234.149995 94.392927 
L 234.276332 93.909441 
L 234.486318 93.118739 
L 234.779888 92.166874 
L 237.404087 84.26489 
L 237.633084 83.454042 
L 237.689872 83.29288 
L 237.957639 82.517287 
L 238.152221 81.948183 
L 241.496597 73.738983 
L 243.876759 69.206295 
L 243.976202 69.060242 
L 244.268833 68.576755 
L 244.381757 68.405521 
L 244.713515 67.962324 
L 244.984758 67.675254 
L 246.553684 66.108959 
L 246.815509 65.872252 
L 247.202925 65.549928 
L 247.495824 65.262857 
L 247.935732 64.970751 
L 250.588289 63.5354 
L 250.754147 63.374238 
L 251.260376 63.021695 
L 251.476253 62.880678 
L 251.761782 62.724552 
L 252.395263 62.42741 
L 252.533227 62.316611 
L 252.853568 62.130267 
L 252.972608 62.059758 
L 253.112738 61.918741 
L 253.84211 61.394964 
L 254.289305 61.173366 
L 254.429011 61.117967 
L 256.201396 60.3877 
L 256.749214 60.211429 
L 257.022335 60.120775 
L 257.744182 59.889105 
L 258.151318 59.551671 
L 258.281843 59.068185 
L 258.522486 58.796224 
L 258.960699 58.463826 
L 259.156905 58.353027 
L 259.386607 58.222083 
L 259.575911 58.11632 
L 259.939731 57.909831 
L 260.259043 57.758742 
L 260.424161 57.622761 
L 260.777142 57.391091 
L 261.006564 57.25511 
L 261.481415 57.003294 
L 262.929043 56.303246 
L 263.039133 56.172301 
L 263.819554 55.724069 
L 263.941556 55.608234 
L 264.254562 55.376563 
L 265.18719 54.862858 
L 265.31838 54.79235 
L 265.86851 54.44988 
L 266.037318 54.283682 
L 266.269376 54.087265 
L 266.609703 53.865667 
L 267.171134 53.58867 
L 267.518948 53.427507 
L 267.700103 53.351963 
L 268.431998 53.014529 
L 268.54618 52.964166 
L 268.755151 52.888621 
L 269.162571 52.687168 
L 270.809647 50.984893 
L 271.595382 50.571914 
L 271.697045 50.481261 
L 272.227799 50.148864 
L 272.384145 50.0985 
L 272.7861 49.927266 
L 272.968912 49.791285 
L 273.453143 49.594868 
L 273.593683 49.544505 
L 274.286277 49.363198 
L 276.61803 48.184699 
L 277.085699 47.932883 
L 277.353232 47.776757 
L 277.677331 47.529978 
L 278.035415 47.298307 
L 278.225542 47.172399 
L 278.672262 46.981019 
L 278.831782 46.945765 
L 279.190853 46.850074 
L 279.664633 46.688912 
L 280.006691 46.557968 
L 281.41329 46.270898 
L 282.937291 45.998937 
L 289.284346 45.17298 
L 295.761506 44.760002 
L 299.652583 44.382278 
L 302.737845 43.989445 
L 309.396374 43.646976 
L 313.203102 43.480777 
L 315.064069 43.369978 
L 323.587064 43.208816 
L 323.926372 43.173562 
L 334.61495 42.99729 
L 338.899392 42.931818 
L 338.899392 42.931818 
" style="fill:none;stroke:#ff5500;stroke-dasharray:7.4,3.2;stroke-dashoffset:0;stroke-width:2;"/>
   </g>
   <g id="line2d_68">
    <path clip-path="url(#p28da8269da)" d="M 209.545515 231.568182 
L 225.571833 231.311735 
L 248.989118 231.147449 
L 253.2235 230.838912 
L 253.508579 230.810864 
L 260.860995 230.414173 
L 278.92492 230.261908 
L 279.450025 230.129678 
L 281.95222 229.853197 
L 285.016039 229.648841 
L 289.51926 229.316262 
L 292.790267 229.047795 
L 293.250336 229.007725 
L 302.782189 228.595006 
L 304.216752 228.170267 
L 307.892204 227.617304 
L 309.240918 227.420963 
L 312.682961 226.731763 
L 312.890202 226.611554 
L 314.530327 225.770089 
L 314.651691 225.629845 
L 314.803392 224.740296 
L 314.984188 223.341862 
L 315.422477 221.506668 
L 315.50379 221.282277 
L 315.73675 220.97374 
L 315.929053 220.809454 
L 316.043082 220.741335 
L 316.407515 220.180359 
L 316.557754 219.751612 
L 316.735589 219.206664 
L 316.973824 218.890113 
L 317.252355 218.713806 
L 317.606033 218.541506 
L 318.88041 217.948474 
L 319.616231 217.575825 
L 320.495679 217.319379 
L 320.779557 217.21119 
L 321.403247 216.994814 
L 322.430649 216.566067 
L 322.566589 216.473907 
L 322.998597 215.961014 
L 323.125215 215.756658 
L 323.399539 215.287842 
L 323.521538 215.075473 
L 324.567144 212.91972 
L 324.782113 212.322681 
L 324.897646 211.950032 
L 325.496059 209.822328 
L 325.539998 209.666056 
L 326.003176 207.911001 
L 326.174995 207.11762 
L 326.342357 206.280162 
L 326.5977 204.965875 
L 326.682671 204.605247 
L 326.818894 203.944096 
L 326.914747 203.563433 
L 327.218414 202.557683 
L 327.26875 202.365348 
L 327.375887 202.000713 
L 327.44205 201.800364 
L 327.786739 200.822662 
L 327.861892 200.6143 
L 328.027584 200.029281 
L 328.083672 199.889037 
L 328.206316 199.376144 
L 328.319828 199.023531 
L 328.446291 198.582763 
L 328.770656 197.661159 
L 328.891095 197.340601 
L 329.074503 196.787639 
L 329.125016 196.623353 
L 329.307266 195.910111 
L 331.764153 188.461144 
L 332.085003 186.990585 
L 332.14899 186.670027 
L 332.295885 185.916715 
L 333.307213 180.671585 
L 333.39581 180.34702 
L 334.393275 176.22785 
L 334.496686 175.811124 
L 334.724723 175.02175 
L 334.801934 174.789346 
L 335.492256 173.038298 
L 335.611952 172.781851 
L 335.760206 172.469307 
L 335.967166 171.996484 
L 338.085014 167.684979 
L 338.690412 165.320864 
L 338.775963 164.972257 
L 338.915512 164.415287 
L 339.03551 163.966506 
L 339.240853 163.337411 
L 339.372223 163.036888 
L 339.456793 162.80849 
L 339.584505 162.459883 
L 339.677853 162.235493 
L 340.045888 161.021379 
L 340.127445 160.72887 
L 340.387833 159.871378 
L 340.533256 159.490715 
L 340.999769 158.144371 
L 341.101513 157.90796 
L 341.330595 157.4712 
L 341.478856 157.210746 
L 342.237052 155.61597 
L 342.428566 154.481996 
L 342.607161 153.420148 
L 342.678483 153.075548 
L 342.86599 152.161958 
L 342.941428 151.797323 
L 343.176758 150.787565 
L 343.260372 150.499063 
L 343.375581 149.974149 
L 343.477508 149.521361 
L 343.653269 148.691917 
L 343.739924 148.303241 
L 343.851903 147.622055 
L 343.923073 147.157246 
L 344.051303 146.027279 
L 344.284765 143.847484 
L 344.534597 142.296785 
L 344.568585 142.068387 
L 344.702095 141.246958 
L 344.839154 140.425528 
L 344.997084 139.3757 
L 345.05277 138.930926 
L 348.455952 115.417997 
L 348.515053 115.157543 
L 348.688643 113.991513 
L 348.921181 112.500919 
L 349.21822 110.637675 
L 349.554061 108.213455 
L 349.718362 107.063454 
L 349.761829 106.686798 
L 350.010265 103.958048 
L 350.040212 103.537316 
L 350.155311 102.154909 
L 350.216635 101.393584 
L 350.36215 99.710654 
L 350.413335 99.089573 
L 350.528374 97.739223 
L 350.989011 91.933116 
L 351.142646 89.929628 
L 351.334802 87.601576 
L 351.462128 86.163072 
L 351.637579 84.243731 
L 351.735184 83.037631 
L 351.936083 80.929962 
L 351.964226 80.709579 
L 352.181829 78.613931 
L 352.284581 77.548075 
L 352.467104 75.640755 
L 352.641228 73.320717 
L 353.724857 63.35537 
L 353.779444 62.966693 
L 353.907973 62.205368 
L 353.979252 61.784636 
L 354.124711 60.814948 
L 354.370383 58.77139 
L 354.488621 57.76564 
L 354.624626 56.575568 
L 354.764037 55.734103 
L 354.906647 55.020862 
L 354.947991 54.776436 
L 355.161298 53.690546 
L 355.288565 53.125563 
L 355.634749 51.843331 
L 355.766124 51.510752 
L 355.892205 51.198208 
L 356.046212 50.79751 
L 356.27743 50.048206 
L 356.390733 49.787752 
L 356.599726 49.354999 
L 356.715721 49.066497 
L 356.830332 48.669806 
L 357.456502 46.518061 
L 357.560212 46.225552 
L 357.677601 45.917015 
L 357.773919 45.72468 
L 358.144758 45.023459 
L 358.525989 44.46649 
L 358.639265 44.278162 
L 358.744741 44.093841 
L 359.368665 43.228334 
L 359.988256 43.003944 
L 372.077713 42.935825 
L 381.083518 42.931818 
L 381.083518 42.931818 
" style="fill:none;stroke:#58b792;stroke-dasharray:7.4,3.2;stroke-dashoffset:0;stroke-width:2;"/>
   </g>
   <g id="line2d_69">
    <path clip-path="url(#p28da8269da)" d="M 68.503977 231.567777 
L 72.719008 231.3913 
L 73.146847 231.104526 
L 73.942706 230.138315 
L 74.515426 228.872095 
L 75.938075 226.026408 
L 76.510794 225.06461 
L 76.923696 224.30576 
L 78.377337 222.589524 
L 78.904153 222.218923 
L 83.466624 219.209995 
L 84.055075 218.680565 
L 84.802588 217.996718 
L 85.056905 217.758474 
L 85.503576 217.348166 
L 86.34985 216.567256 
L 87.041018 215.861349 
L 87.432383 215.508396 
L 87.844082 215.093676 
L 88.450846 214.4363 
L 88.848397 214.100994 
L 89.264892 213.633331 
L 91.935025 211.070007 
L 92.353384 210.672934 
L 92.592855 210.518517 
L 93.657044 209.5126 
L 94.904465 208.347853 
L 95.420223 207.875778 
L 95.88828 207.421351 
L 96.042631 207.297817 
L 96.462896 206.830154 
L 96.614218 206.688972 
L 99.976612 203.39327 
L 100.52561 202.855016 
L 100.739053 202.700599 
L 101.032013 202.431472 
L 106.1399 198.394567 
L 106.450377 198.235738 
L 107.865292 197.410709 
L 108.14522 197.278352 
L 109.335976 196.748921 
L 109.638188 196.576857 
L 113.441415 195.2974 
L 120.398827 193.951765 
L 125.865963 193.259094 
L 126.32207 193.206151 
L 128.179325 193.025263 
L 129.40704 192.919377 
L 131.001396 192.76496 
L 135.162658 192.12082 
L 137.51241 191.313439 
L 138.896172 190.528117 
L 139.061861 190.439879 
L 139.317248 190.289874 
L 139.446246 190.1884 
L 139.630146 190.05163 
L 140.283503 189.597203 
L 140.445597 189.442785 
L 140.853034 188.997182 
L 142.624406 187.422127 
L 142.838866 187.201531 
L 143.127399 186.910345 
L 143.375653 186.610334 
L 143.799498 186.085316 
L 143.972449 185.855896 
L 144.329778 185.282347 
L 144.786375 184.55438 
L 144.939351 184.294077 
L 145.165549 183.967595 
L 146.463245 181.748401 
L 146.584171 181.536629 
L 146.86438 180.879253 
L 147.079361 180.41159 
L 147.785708 178.827711 
L 147.8724 178.677706 
L 148.494048 177.265892 
L 148.566128 177.111475 
L 148.743991 176.73205 
L 148.997961 176.18056 
L 149.860715 174.071664 
L 150.060554 173.551057 
L 150.866624 171.503928 
L 151.01655 171.080383 
L 151.197157 170.537718 
L 151.362439 170.078878 
L 151.535257 169.593567 
L 151.698623 169.134728 
L 153.086018 164.409564 
L 153.537592 162.733035 
L 153.655955 162.318315 
L 154.386869 159.472628 
L 154.580733 158.612304 
L 155.014738 156.940187 
L 156.031009 152.956225 
L 156.420092 151.429701 
L 156.524871 151.010569 
L 156.869852 149.717877 
L 157.312726 148.138411 
L 157.984921 146.011866 
L 158.14269 145.460377 
L 158.402257 144.591229 
L 158.477898 144.361809 
L 159.208457 141.891135 
L 159.305781 141.639656 
L 159.456526 141.149933 
L 159.92313 139.698412 
L 160.020189 139.385166 
L 160.202871 138.785145 
L 160.284389 138.538078 
L 160.496512 137.832171 
L 161.058748 135.912986 
L 161.148024 135.652683 
L 161.359962 134.774712 
L 161.518403 134.165867 
L 161.715737 133.59673 
L 161.95511 132.798172 
L 162.131879 132.19374 
L 162.178836 132.052558 
L 162.530533 130.97605 
L 162.642333 130.609861 
L 162.900895 129.771597 
L 163.306084 128.558319 
L 163.515905 127.852413 
L 163.63884 127.459752 
L 163.848114 126.767081 
L 164.149171 125.765575 
L 164.320325 125.187614 
L 165.324758 121.944855 
L 165.873607 120.263914 
L 166.161214 119.346235 
L 166.263242 119.032989 
L 166.587332 117.934421 
L 166.773053 117.391755 
L 166.982436 116.615258 
L 167.07006 116.315247 
L 167.323166 115.565221 
L 167.413027 115.265211 
L 167.570833 114.753429 
L 168.201519 112.719534 
L 168.377189 112.185692 
L 169.109415 109.812081 
L 169.374336 108.929697 
L 169.517271 108.417915 
L 169.772486 107.566414 
L 169.840064 107.420821 
L 171.235353 102.973608 
L 171.416313 102.545652 
L 171.482996 102.355939 
L 176.078989 88.401043 
L 176.182771 88.193683 
L 176.347333 87.778963 
L 176.410745 87.628958 
L 176.576395 87.249533 
L 176.904876 86.446564 
L 177.077073 85.987724 
L 177.202935 85.740657 
L 179.38492 81.831698 
L 179.517254 81.641985 
L 180.092225 80.711071 
L 180.262197 80.459591 
L 180.461322 80.08899 
L 180.734313 79.643386 
L 180.873946 79.400731 
L 181.003732 79.171311 
L 182.087454 77.41978 
L 182.209963 77.238891 
L 182.300774 77.110946 
L 182.476701 76.806523 
L 182.624582 76.599163 
L 182.806221 76.277093 
L 182.888496 76.105028 
L 183.016226 75.871197 
L 183.183139 75.646189 
L 183.464511 75.271176 
L 183.753374 74.759393 
L 184.245206 73.872598 
L 184.633637 73.228458 
L 184.879024 72.800502 
L 185.086951 72.487256 
L 185.26525 72.15195 
L 185.536757 71.723994 
L 186.165367 70.881318 
L 186.422674 70.515128 
L 186.616472 70.316592 
L 186.928028 69.89746 
L 187.684046 68.776833 
L 187.861558 68.569473 
L 188.206987 68.070926 
L 188.342588 67.907685 
L 188.787716 67.312076 
L 188.917525 67.144423 
L 189.231468 66.58411 
L 189.504064 66.253216 
L 192.757519 61.726588 
L 192.949751 61.470697 
L 194.086144 59.789756 
L 194.227848 59.657399 
L 194.360509 59.502982 
L 194.685712 59.079437 
L 194.830205 58.850018 
L 195.522293 57.874984 
L 195.719742 57.561738 
L 195.843307 57.420556 
L 196.876355 56.114629 
L 197.040802 55.942564 
L 198.156327 54.716051 
L 198.308629 54.566045 
L 199.941014 52.995403 
L 200.088968 52.871869 
L 200.974439 52.170374 
L 201.096351 52.073312 
L 201.424327 51.843892 
L 201.544863 51.742418 
L 201.988993 51.451232 
L 202.253799 51.279167 
L 203.14278 50.542376 
L 203.467703 50.304133 
L 203.701231 50.101185 
L 204.210736 49.81441 
L 204.580855 49.540871 
L 204.99527 49.280568 
L 206.586721 48.283475 
L 206.845322 48.133469 
L 207.048644 48.036407 
L 207.779741 47.687866 
L 207.849144 47.634923 
L 208.116719 47.506977 
L 208.25177 47.44521 
L 211.468632 46.231933 
L 212.104191 46.051044 
L 215.355958 45.168661 
L 216.086871 45.031891 
L 216.586634 44.895122 
L 217.53965 44.696585 
L 217.631466 44.643642 
L 218.558993 44.458342 
L 220.728108 44.149508 
L 220.86154 44.136272 
L 221.319972 44.070093 
L 223.277389 43.911264 
L 223.357891 43.898028 
L 225.716253 43.703904 
L 226.304506 43.642137 
L 237.490264 43.183297 
L 293.358834 42.931818 
L 293.358834 42.931818 
" style="fill:none;stroke:#c70d2c;stroke-dasharray:7.4,3.2;stroke-dashoffset:0;stroke-width:2;"/>
   </g>
   <g id="patch_3">
    <path d="M 52.875 241 
L 52.875 33.5 
" style="fill:none;stroke:#000000;stroke-linecap:square;stroke-linejoin:miter;stroke-width:0.8;"/>
   </g>
   <g id="patch_4">
    <path d="M 396.712495 241 
L 396.712495 33.5 
" style="fill:none;stroke:#000000;stroke-linecap:square;stroke-linejoin:miter;stroke-width:0.8;"/>
   </g>
   <g id="patch_5">
    <path d="M 52.875 241 
L 396.712495 241 
" style="fill:none;stroke:#000000;stroke-linecap:square;stroke-linejoin:miter;stroke-width:0.8;"/>
   </g>
   <g id="patch_6">
    <path d="M 52.875 33.5 
L 396.712495 33.5 
" style="fill:none;stroke:#000000;stroke-linecap:square;stroke-linejoin:miter;stroke-width:0.8;"/>
   </g>
   <g id="text_14">
    <!-- Decision Time: Blocked Requests (CDF) -->
    <defs>
     <path d="M 19.671875 64.796875 
L 19.671875 8.109375 
L 31.59375 8.109375 
Q 46.6875 8.109375 53.6875 14.9375 
Q 60.6875 21.78125 60.6875 36.53125 
Q 60.6875 51.171875 53.6875 57.984375 
Q 46.6875 64.796875 31.59375 64.796875 
z
M 9.8125 72.90625 
L 30.078125 72.90625 
Q 51.265625 72.90625 61.171875 64.09375 
Q 71.09375 55.28125 71.09375 36.53125 
Q 71.09375 17.671875 61.125 8.828125 
Q 51.171875 0 30.078125 0 
L 9.8125 0 
z
" id="DejaVuSans-68"/>
     <path d="M 11.71875 12.40625 
L 22.015625 12.40625 
L 22.015625 0 
L 11.71875 0 
z
M 11.71875 51.703125 
L 22.015625 51.703125 
L 22.015625 39.3125 
L 11.71875 39.3125 
z
" id="DejaVuSans-58"/>
     <path d="M 19.671875 34.8125 
L 19.671875 8.109375 
L 35.5 8.109375 
Q 43.453125 8.109375 47.28125 11.40625 
Q 51.125 14.703125 51.125 21.484375 
Q 51.125 28.328125 47.28125 31.5625 
Q 43.453125 34.8125 35.5 34.8125 
z
M 19.671875 64.796875 
L 19.671875 42.828125 
L 34.28125 42.828125 
Q 41.5 42.828125 45.03125 45.53125 
Q 48.578125 48.25 48.578125 53.8125 
Q 48.578125 59.328125 45.03125 62.0625 
Q 41.5 64.796875 34.28125 64.796875 
z
M 9.8125 72.90625 
L 35.015625 72.90625 
Q 46.296875 72.90625 52.390625 68.21875 
Q 58.5 63.53125 58.5 54.890625 
Q 58.5 48.1875 55.375 44.234375 
Q 52.25 40.28125 46.1875 39.3125 
Q 53.46875 37.75 57.5 32.78125 
Q 61.53125 27.828125 61.53125 20.40625 
Q 61.53125 10.640625 54.890625 5.3125 
Q 48.25 0 35.984375 0 
L 9.8125 0 
z
" id="DejaVuSans-66"/>
     <path d="M 9.078125 75.984375 
L 18.109375 75.984375 
L 18.109375 31.109375 
L 44.921875 54.6875 
L 56.390625 54.6875 
L 27.390625 29.109375 
L 57.625 0 
L 45.90625 0 
L 18.109375 26.703125 
L 18.109375 0 
L 9.078125 0 
z
" id="DejaVuSans-107"/>
     <path d="M 45.40625 46.390625 
L 45.40625 75.984375 
L 54.390625 75.984375 
L 54.390625 0 
L 45.40625 0 
L 45.40625 8.203125 
Q 42.578125 3.328125 38.25 0.953125 
Q 33.9375 -1.421875 27.875 -1.421875 
Q 17.96875 -1.421875 11.734375 6.484375 
Q 5.515625 14.40625 5.515625 27.296875 
Q 5.515625 40.1875 11.734375 48.09375 
Q 17.96875 56 27.875 56 
Q 33.9375 56 38.25 53.625 
Q 42.578125 51.265625 45.40625 46.390625 
z
M 14.796875 27.296875 
Q 14.796875 17.390625 18.875 11.75 
Q 22.953125 6.109375 30.078125 6.109375 
Q 37.203125 6.109375 41.296875 11.75 
Q 45.40625 17.390625 45.40625 27.296875 
Q 45.40625 37.203125 41.296875 42.84375 
Q 37.203125 48.484375 30.078125 48.484375 
Q 22.953125 48.484375 18.875 42.84375 
Q 14.796875 37.203125 14.796875 27.296875 
z
" id="DejaVuSans-100"/>
     <path d="M 64.40625 67.28125 
L 64.40625 56.890625 
Q 59.421875 61.53125 53.78125 63.8125 
Q 48.140625 66.109375 41.796875 66.109375 
Q 29.296875 66.109375 22.65625 58.46875 
Q 16.015625 50.828125 16.015625 36.375 
Q 16.015625 21.96875 22.65625 14.328125 
Q 29.296875 6.6875 41.796875 6.6875 
Q 48.140625 6.6875 53.78125 8.984375 
Q 59.421875 11.28125 64.40625 15.921875 
L 64.40625 5.609375 
Q 59.234375 2.09375 53.4375 0.328125 
Q 47.65625 -1.421875 41.21875 -1.421875 
Q 24.65625 -1.421875 15.125 8.703125 
Q 5.609375 18.84375 5.609375 36.375 
Q 5.609375 53.953125 15.125 64.078125 
Q 24.65625 74.21875 41.21875 74.21875 
Q 47.75 74.21875 53.53125 72.484375 
Q 59.328125 70.75 64.40625 67.28125 
z
" id="DejaVuSans-67"/>
    </defs>
    <g transform="translate(106.303123 27.5)scale(0.12 -0.12)">
     <use xlink:href="#DejaVuSans-68"/>
     <use x="77.001953" xlink:href="#DejaVuSans-101"/>
     <use x="138.525391" xlink:href="#DejaVuSans-99"/>
     <use x="193.505859" xlink:href="#DejaVuSans-105"/>
     <use x="221.289062" xlink:href="#DejaVuSans-115"/>
     <use x="273.388672" xlink:href="#DejaVuSans-105"/>
     <use x="301.171875" xlink:href="#DejaVuSans-111"/>
     <use x="362.353516" xlink:href="#DejaVuSans-110"/>
     <use x="425.732422" xlink:href="#DejaVuSans-32"/>
     <use x="457.519531" xlink:href="#DejaVuSans-84"/>
     <use x="518.556641" xlink:href="#DejaVuSans-105"/>
     <use x="546.339844" xlink:href="#DejaVuSans-109"/>
     <use x="643.751953" xlink:href="#DejaVuSans-101"/>
     <use x="705.275391" xlink:href="#DejaVuSans-58"/>
     <use x="738.966797" xlink:href="#DejaVuSans-32"/>
     <use x="770.753906" xlink:href="#DejaVuSans-66"/>
     <use x="839.357422" xlink:href="#DejaVuSans-108"/>
     <use x="867.140625" xlink:href="#DejaVuSans-111"/>
     <use x="928.322266" xlink:href="#DejaVuSans-99"/>
     <use x="983.302734" xlink:href="#DejaVuSans-107"/>
     <use x="1041.166016" xlink:href="#DejaVuSans-101"/>
     <use x="1102.689453" xlink:href="#DejaVuSans-100"/>
     <use x="1166.166016" xlink:href="#DejaVuSans-32"/>
     <use x="1197.953125" xlink:href="#DejaVuSans-82"/>
     <use x="1267.373047" xlink:href="#DejaVuSans-101"/>
     <use x="1328.896484" xlink:href="#DejaVuSans-113"/>
     <use x="1392.373047" xlink:href="#DejaVuSans-117"/>
     <use x="1455.751953" xlink:href="#DejaVuSans-101"/>
     <use x="1517.275391" xlink:href="#DejaVuSans-115"/>
     <use x="1569.375" xlink:href="#DejaVuSans-116"/>
     <use x="1608.583984" xlink:href="#DejaVuSans-115"/>
     <use x="1660.683594" xlink:href="#DejaVuSans-32"/>
     <use x="1692.470703" xlink:href="#DejaVuSans-40"/>
     <use x="1731.484375" xlink:href="#DejaVuSans-67"/>
     <use x="1801.308594" xlink:href="#DejaVuSans-68"/>
     <use x="1878.310547" xlink:href="#DejaVuSans-70"/>
     <use x="1935.830078" xlink:href="#DejaVuSans-41"/>
    </g>
   </g>
   <g id="legend_1">
    <g id="patch_7">
     <path d="M 290.924995 236 
L 389.712495 236 
Q 391.712495 236 391.712495 234 
L 391.712495 161.609375 
Q 391.712495 159.609375 389.712495 159.609375 
L 290.924995 159.609375 
Q 288.924995 159.609375 288.924995 161.609375 
L 288.924995 234 
Q 288.924995 236 290.924995 236 
z
" style="fill:#ffffff;opacity:0.8;stroke:#cccccc;stroke-linejoin:miter;"/>
    </g>
    <g id="line2d_70">
     <path d="M 292.924995 167.707813 
L 312.924995 167.707813 
" style="fill:none;stroke:#00aff0;stroke-dasharray:7.4,3.2;stroke-dashoffset:0;stroke-width:2;"/>
    </g>
    <g id="line2d_71"/>
    <g id="text_15">
     <!-- Ghostery -->
     <defs>
      <path d="M 59.515625 10.40625 
L 59.515625 29.984375 
L 43.40625 29.984375 
L 43.40625 38.09375 
L 69.28125 38.09375 
L 69.28125 6.78125 
Q 63.578125 2.734375 56.6875 0.65625 
Q 49.8125 -1.421875 42 -1.421875 
Q 24.90625 -1.421875 15.25 8.5625 
Q 5.609375 18.5625 5.609375 36.375 
Q 5.609375 54.25 15.25 64.234375 
Q 24.90625 74.21875 42 74.21875 
Q 49.125 74.21875 55.546875 72.453125 
Q 61.96875 70.703125 67.390625 67.28125 
L 67.390625 56.78125 
Q 61.921875 61.421875 55.765625 63.765625 
Q 49.609375 66.109375 42.828125 66.109375 
Q 29.4375 66.109375 22.71875 58.640625 
Q 16.015625 51.171875 16.015625 36.375 
Q 16.015625 21.625 22.71875 14.15625 
Q 29.4375 6.6875 42.828125 6.6875 
Q 48.046875 6.6875 52.140625 7.59375 
Q 56.25 8.5 59.515625 10.40625 
z
" id="DejaVuSans-71"/>
      <path d="M 54.890625 33.015625 
L 54.890625 0 
L 45.90625 0 
L 45.90625 32.71875 
Q 45.90625 40.484375 42.875 44.328125 
Q 39.84375 48.1875 33.796875 48.1875 
Q 26.515625 48.1875 22.3125 43.546875 
Q 18.109375 38.921875 18.109375 30.90625 
L 18.109375 0 
L 9.078125 0 
L 9.078125 75.984375 
L 18.109375 75.984375 
L 18.109375 46.1875 
Q 21.34375 51.125 25.703125 53.5625 
Q 30.078125 56 35.796875 56 
Q 45.21875 56 50.046875 50.171875 
Q 54.890625 44.34375 54.890625 33.015625 
z
" id="DejaVuSans-104"/>
      <path d="M 32.171875 -5.078125 
Q 28.375 -14.84375 24.75 -17.8125 
Q 21.140625 -20.796875 15.09375 -20.796875 
L 7.90625 -20.796875 
L 7.90625 -13.28125 
L 13.1875 -13.28125 
Q 16.890625 -13.28125 18.9375 -11.515625 
Q 21 -9.765625 23.484375 -3.21875 
L 25.09375 0.875 
L 2.984375 54.6875 
L 12.5 54.6875 
L 29.59375 11.921875 
L 46.6875 54.6875 
L 56.203125 54.6875 
z
" id="DejaVuSans-121"/>
     </defs>
     <g transform="translate(320.924995 171.207813)scale(0.1 -0.1)">
      <use xlink:href="#DejaVuSans-71"/>
      <use x="77.490234" xlink:href="#DejaVuSans-104"/>
      <use x="140.869141" xlink:href="#DejaVuSans-111"/>
      <use x="202.050781" xlink:href="#DejaVuSans-115"/>
      <use x="254.150391" xlink:href="#DejaVuSans-116"/>
      <use x="293.359375" xlink:href="#DejaVuSans-101"/>
      <use x="354.882812" xlink:href="#DejaVuSans-114"/>
      <use x="395.996094" xlink:href="#DejaVuSans-121"/>
     </g>
    </g>
    <g id="line2d_72">
     <path d="M 292.924995 182.385938 
L 312.924995 182.385938 
" style="fill:none;stroke:#800000;stroke-dasharray:7.4,3.2;stroke-dashoffset:0;stroke-width:2;"/>
    </g>
    <g id="line2d_73"/>
    <g id="text_16">
     <!-- uBlock Origin -->
     <defs>
      <path d="M 39.40625 66.21875 
Q 28.65625 66.21875 22.328125 58.203125 
Q 16.015625 50.203125 16.015625 36.375 
Q 16.015625 22.609375 22.328125 14.59375 
Q 28.65625 6.59375 39.40625 6.59375 
Q 50.140625 6.59375 56.421875 14.59375 
Q 62.703125 22.609375 62.703125 36.375 
Q 62.703125 50.203125 56.421875 58.203125 
Q 50.140625 66.21875 39.40625 66.21875 
z
M 39.40625 74.21875 
Q 54.734375 74.21875 63.90625 63.9375 
Q 73.09375 53.65625 73.09375 36.375 
Q 73.09375 19.140625 63.90625 8.859375 
Q 54.734375 -1.421875 39.40625 -1.421875 
Q 24.03125 -1.421875 14.8125 8.828125 
Q 5.609375 19.09375 5.609375 36.375 
Q 5.609375 53.65625 14.8125 63.9375 
Q 24.03125 74.21875 39.40625 74.21875 
z
" id="DejaVuSans-79"/>
     </defs>
     <g transform="translate(320.924995 185.885938)scale(0.1 -0.1)">
      <use xlink:href="#DejaVuSans-117"/>
      <use x="63.378906" xlink:href="#DejaVuSans-66"/>
      <use x="131.982422" xlink:href="#DejaVuSans-108"/>
      <use x="159.765625" xlink:href="#DejaVuSans-111"/>
      <use x="220.947266" xlink:href="#DejaVuSans-99"/>
      <use x="275.927734" xlink:href="#DejaVuSans-107"/>
      <use x="333.837891" xlink:href="#DejaVuSans-32"/>
      <use x="365.625" xlink:href="#DejaVuSans-79"/>
      <use x="444.335938" xlink:href="#DejaVuSans-114"/>
      <use x="485.449219" xlink:href="#DejaVuSans-105"/>
      <use x="513.232422" xlink:href="#DejaVuSans-103"/>
      <use x="576.708984" xlink:href="#DejaVuSans-105"/>
      <use x="604.492188" xlink:href="#DejaVuSans-110"/>
     </g>
    </g>
    <g id="line2d_74">
     <path d="M 292.924995 197.064063 
L 312.924995 197.064063 
" style="fill:none;stroke:#ff5500;stroke-dasharray:7.4,3.2;stroke-dashoffset:0;stroke-width:2;"/>
    </g>
    <g id="line2d_75"/>
    <g id="text_17">
     <!-- Brave -->
     <defs>
      <path d="M 2.984375 54.6875 
L 12.5 54.6875 
L 29.59375 8.796875 
L 46.6875 54.6875 
L 56.203125 54.6875 
L 35.6875 0 
L 23.484375 0 
z
" id="DejaVuSans-118"/>
     </defs>
     <g transform="translate(320.924995 200.564063)scale(0.1 -0.1)">
      <use xlink:href="#DejaVuSans-66"/>
      <use x="68.603516" xlink:href="#DejaVuSans-114"/>
      <use x="109.716797" xlink:href="#DejaVuSans-97"/>
      <use x="170.996094" xlink:href="#DejaVuSans-118"/>
      <use x="230.175781" xlink:href="#DejaVuSans-101"/>
     </g>
    </g>
    <g id="line2d_76">
     <path d="M 292.924995 211.742188 
L 312.924995 211.742188 
" style="fill:none;stroke:#58b792;stroke-dasharray:7.4,3.2;stroke-dashoffset:0;stroke-width:2;"/>
    </g>
    <g id="line2d_77"/>
    <g id="text_18">
     <!-- DuckDuckGo -->
     <g transform="translate(320.924995 215.242188)scale(0.1 -0.1)">
      <use xlink:href="#DejaVuSans-68"/>
      <use x="77.001953" xlink:href="#DejaVuSans-117"/>
      <use x="140.380859" xlink:href="#DejaVuSans-99"/>
      <use x="195.361328" xlink:href="#DejaVuSans-107"/>
      <use x="253.271484" xlink:href="#DejaVuSans-68"/>
      <use x="330.273438" xlink:href="#DejaVuSans-117"/>
      <use x="393.652344" xlink:href="#DejaVuSans-99"/>
      <use x="448.632812" xlink:href="#DejaVuSans-107"/>
      <use x="506.542969" xlink:href="#DejaVuSans-71"/>
      <use x="584.033203" xlink:href="#DejaVuSans-111"/>
     </g>
    </g>
    <g id="line2d_78">
     <path d="M 292.924995 226.420313 
L 312.924995 226.420313 
" style="fill:none;stroke:#c70d2c;stroke-dasharray:7.4,3.2;stroke-dashoffset:0;stroke-width:2;"/>
    </g>
    <g id="line2d_79"/>
    <g id="text_19">
     <!-- Adblock Plus -->
     <defs>
      <path d="M 34.1875 63.1875 
L 20.796875 26.90625 
L 47.609375 26.90625 
z
M 28.609375 72.90625 
L 39.796875 72.90625 
L 67.578125 0 
L 57.328125 0 
L 50.6875 18.703125 
L 17.828125 18.703125 
L 11.1875 0 
L 0.78125 0 
z
" id="DejaVuSans-65"/>
      <path d="M 19.671875 64.796875 
L 19.671875 37.40625 
L 32.078125 37.40625 
Q 38.96875 37.40625 42.71875 40.96875 
Q 46.484375 44.53125 46.484375 51.125 
Q 46.484375 57.671875 42.71875 61.234375 
Q 38.96875 64.796875 32.078125 64.796875 
z
M 9.8125 72.90625 
L 32.078125 72.90625 
Q 44.34375 72.90625 50.609375 67.359375 
Q 56.890625 61.8125 56.890625 51.125 
Q 56.890625 40.328125 50.609375 34.8125 
Q 44.34375 29.296875 32.078125 29.296875 
L 19.671875 29.296875 
L 19.671875 0 
L 9.8125 0 
z
" id="DejaVuSans-80"/>
     </defs>
     <g transform="translate(320.924995 229.920313)scale(0.1 -0.1)">
      <use xlink:href="#DejaVuSans-65"/>
      <use x="68.392578" xlink:href="#DejaVuSans-100"/>
      <use x="131.869141" xlink:href="#DejaVuSans-98"/>
      <use x="195.345703" xlink:href="#DejaVuSans-108"/>
      <use x="223.128906" xlink:href="#DejaVuSans-111"/>
      <use x="284.310547" xlink:href="#DejaVuSans-99"/>
      <use x="339.291016" xlink:href="#DejaVuSans-107"/>
      <use x="397.201172" xlink:href="#DejaVuSans-32"/>
      <use x="428.988281" xlink:href="#DejaVuSans-80"/>
      <use x="489.291016" xlink:href="#DejaVuSans-108"/>
      <use x="517.074219" xlink:href="#DejaVuSans-117"/>
      <use x="580.453125" xlink:href="#DejaVuSans-115"/>
     </g>
    </g>
   </g>
  </g>
 </g>
 <defs>
  <clipPath id="p28da8269da">
   <rect height="207.5" width="343.837495" x="52.875" y="33.5"/>
  </clipPath>
 </defs>
</svg>
