<?xml version="1.0" encoding="utf-8" standalone="no"?>
<!DOCTYPE svg PUBLIC "-//W3C//DTD SVG 1.1//EN"
  "http://www.w3.org/Graphics/SVG/1.1/DTD/svg11.dtd">
<!-- Created with matplotlib (https://matplotlib.org/) -->
<svg height="288pt" version="1.1" viewBox="0 0 432 288" width="432pt" xmlns="http://www.w3.org/2000/svg" xmlns:xlink="http://www.w3.org/1999/xlink">
 <defs>
  <style type="text/css">
*{stroke-linecap:butt;stroke-linejoin:round;}
  </style>
 </defs>
 <g id="figure_1">
  <g id="patch_1">
   <path d="M 0 288 
L 432 288 
L 432 0 
L 0 0 
z
" style="fill:#ffffff;"/>
  </g>
  <g id="axes_1">
   <g id="patch_2">
    <path d="M 52.875 241 
L 398.5 241 
L 398.5 33.5 
L 52.875 33.5 
z
" style="fill:#ffffff;"/>
   </g>
   <g id="matplotlib.axis_1">
    <g id="xtick_1">
     <g id="line2d_1">
      <path clip-path="url(#p5bfd6e1887)" d="M 79.66714 241 
L 79.66714 33.5 
" style="fill:none;stroke:#b0b0b0;stroke-dasharray:3.7,1.6;stroke-dashoffset:0;"/>
     </g>
     <g id="line2d_2">
      <defs>
       <path d="M 0 0 
L 0 3.5 
" id="m19a73701a1" style="stroke:#000000;stroke-width:0.8;"/>
      </defs>
      <g>
       <use style="stroke:#000000;stroke-width:0.8;" x="79.66714" xlink:href="#m19a73701a1" y="241"/>
      </g>
     </g>
     <g id="text_1">
      <!-- $\mathdefault{10^{-3}}$ -->
      <defs>
       <path d="M 12.40625 8.296875 
L 28.515625 8.296875 
L 28.515625 63.921875 
L 10.984375 60.40625 
L 10.984375 69.390625 
L 28.421875 72.90625 
L 38.28125 72.90625 
L 38.28125 8.296875 
L 54.390625 8.296875 
L 54.390625 0 
L 12.40625 0 
z
" id="DejaVuSans-49"/>
       <path d="M 31.78125 66.40625 
Q 24.171875 66.40625 20.328125 58.90625 
Q 16.5 51.421875 16.5 36.375 
Q 16.5 21.390625 20.328125 13.890625 
Q 24.171875 6.390625 31.78125 6.390625 
Q 39.453125 6.390625 43.28125 13.890625 
Q 47.125 21.390625 47.125 36.375 
Q 47.125 51.421875 43.28125 58.90625 
Q 39.453125 66.40625 31.78125 66.40625 
z
M 31.78125 74.21875 
Q 44.046875 74.21875 50.515625 64.515625 
Q 56.984375 54.828125 56.984375 36.375 
Q 56.984375 17.96875 50.515625 8.265625 
Q 44.046875 -1.421875 31.78125 -1.421875 
Q 19.53125 -1.421875 13.0625 8.265625 
Q 6.59375 17.96875 6.59375 36.375 
Q 6.59375 54.828125 13.0625 64.515625 
Q 19.53125 74.21875 31.78125 74.21875 
z
" id="DejaVuSans-48"/>
       <path d="M 10.59375 35.5 
L 73.1875 35.5 
L 73.1875 27.203125 
L 10.59375 27.203125 
z
" id="DejaVuSans-8722"/>
       <path d="M 40.578125 39.3125 
Q 47.65625 37.796875 51.625 33 
Q 55.609375 28.21875 55.609375 21.1875 
Q 55.609375 10.40625 48.1875 4.484375 
Q 40.765625 -1.421875 27.09375 -1.421875 
Q 22.515625 -1.421875 17.65625 -0.515625 
Q 12.796875 0.390625 7.625 2.203125 
L 7.625 11.71875 
Q 11.71875 9.328125 16.59375 8.109375 
Q 21.484375 6.890625 26.8125 6.890625 
Q 36.078125 6.890625 40.9375 10.546875 
Q 45.796875 14.203125 45.796875 21.1875 
Q 45.796875 27.640625 41.28125 31.265625 
Q 36.765625 34.90625 28.71875 34.90625 
L 20.21875 34.90625 
L 20.21875 43.015625 
L 29.109375 43.015625 
Q 36.375 43.015625 40.234375 45.921875 
Q 44.09375 48.828125 44.09375 54.296875 
Q 44.09375 59.90625 40.109375 62.90625 
Q 36.140625 65.921875 28.71875 65.921875 
Q 24.65625 65.921875 20.015625 65.03125 
Q 15.375 64.15625 9.8125 62.3125 
L 9.8125 71.09375 
Q 15.4375 72.65625 20.34375 73.4375 
Q 25.25 74.21875 29.59375 74.21875 
Q 40.828125 74.21875 47.359375 69.109375 
Q 53.90625 64.015625 53.90625 55.328125 
Q 53.90625 49.265625 50.4375 45.09375 
Q 46.96875 40.921875 40.578125 39.3125 
z
" id="DejaVuSans-51"/>
      </defs>
      <g transform="translate(67.91714 255.598438)scale(0.1 -0.1)">
       <use transform="translate(0 0.765625)" xlink:href="#DejaVuSans-49"/>
       <use transform="translate(63.623047 0.765625)" xlink:href="#DejaVuSans-48"/>
       <use transform="translate(128.203125 39.046875)scale(0.7)" xlink:href="#DejaVuSans-8722"/>
       <use transform="translate(186.855469 39.046875)scale(0.7)" xlink:href="#DejaVuSans-51"/>
      </g>
     </g>
    </g>
    <g id="xtick_2">
     <g id="line2d_3">
      <path clip-path="url(#p5bfd6e1887)" d="M 148.703882 241 
L 148.703882 33.5 
" style="fill:none;stroke:#b0b0b0;stroke-dasharray:3.7,1.6;stroke-dashoffset:0;"/>
     </g>
     <g id="line2d_4">
      <g>
       <use style="stroke:#000000;stroke-width:0.8;" x="148.703882" xlink:href="#m19a73701a1" y="241"/>
      </g>
     </g>
     <g id="text_2">
      <!-- $\mathdefault{10^{-2}}$ -->
      <defs>
       <path d="M 19.1875 8.296875 
L 53.609375 8.296875 
L 53.609375 0 
L 7.328125 0 
L 7.328125 8.296875 
Q 12.9375 14.109375 22.625 23.890625 
Q 32.328125 33.6875 34.8125 36.53125 
Q 39.546875 41.84375 41.421875 45.53125 
Q 43.3125 49.21875 43.3125 52.78125 
Q 43.3125 58.59375 39.234375 62.25 
Q 35.15625 65.921875 28.609375 65.921875 
Q 23.96875 65.921875 18.8125 64.3125 
Q 13.671875 62.703125 7.8125 59.421875 
L 7.8125 69.390625 
Q 13.765625 71.78125 18.9375 73 
Q 24.125 74.21875 28.421875 74.21875 
Q 39.75 74.21875 46.484375 68.546875 
Q 53.21875 62.890625 53.21875 53.421875 
Q 53.21875 48.921875 51.53125 44.890625 
Q 49.859375 40.875 45.40625 35.40625 
Q 44.1875 33.984375 37.640625 27.21875 
Q 31.109375 20.453125 19.1875 8.296875 
z
" id="DejaVuSans-50"/>
      </defs>
      <g transform="translate(136.953882 255.598438)scale(0.1 -0.1)">
       <use transform="translate(0 0.765625)" xlink:href="#DejaVuSans-49"/>
       <use transform="translate(63.623047 0.765625)" xlink:href="#DejaVuSans-48"/>
       <use transform="translate(128.203125 39.046875)scale(0.7)" xlink:href="#DejaVuSans-8722"/>
       <use transform="translate(186.855469 39.046875)scale(0.7)" xlink:href="#DejaVuSans-50"/>
      </g>
     </g>
    </g>
    <g id="xtick_3">
     <g id="line2d_5">
      <path clip-path="url(#p5bfd6e1887)" d="M 217.740624 241 
L 217.740624 33.5 
" style="fill:none;stroke:#b0b0b0;stroke-dasharray:3.7,1.6;stroke-dashoffset:0;"/>
     </g>
     <g id="line2d_6">
      <g>
       <use style="stroke:#000000;stroke-width:0.8;" x="217.740624" xlink:href="#m19a73701a1" y="241"/>
      </g>
     </g>
     <g id="text_3">
      <!-- $\mathdefault{10^{-1}}$ -->
      <g transform="translate(205.990624 255.598438)scale(0.1 -0.1)">
       <use transform="translate(0 0.684375)" xlink:href="#DejaVuSans-49"/>
       <use transform="translate(63.623047 0.684375)" xlink:href="#DejaVuSans-48"/>
       <use transform="translate(128.203125 38.965625)scale(0.7)" xlink:href="#DejaVuSans-8722"/>
       <use transform="translate(186.855469 38.965625)scale(0.7)" xlink:href="#DejaVuSans-49"/>
      </g>
     </g>
    </g>
    <g id="xtick_4">
     <g id="line2d_7">
      <path clip-path="url(#p5bfd6e1887)" d="M 286.777366 241 
L 286.777366 33.5 
" style="fill:none;stroke:#b0b0b0;stroke-dasharray:3.7,1.6;stroke-dashoffset:0;"/>
     </g>
     <g id="line2d_8">
      <g>
       <use style="stroke:#000000;stroke-width:0.8;" x="286.777366" xlink:href="#m19a73701a1" y="241"/>
      </g>
     </g>
     <g id="text_4">
      <!-- $\mathdefault{10^{0}}$ -->
      <g transform="translate(277.977366 255.598438)scale(0.1 -0.1)">
       <use transform="translate(0 0.765625)" xlink:href="#DejaVuSans-49"/>
       <use transform="translate(63.623047 0.765625)" xlink:href="#DejaVuSans-48"/>
       <use transform="translate(128.203125 39.046875)scale(0.7)" xlink:href="#DejaVuSans-48"/>
      </g>
     </g>
    </g>
    <g id="xtick_5">
     <g id="line2d_9">
      <path clip-path="url(#p5bfd6e1887)" d="M 355.814108 241 
L 355.814108 33.5 
" style="fill:none;stroke:#b0b0b0;stroke-dasharray:3.7,1.6;stroke-dashoffset:0;"/>
     </g>
     <g id="line2d_10">
      <g>
       <use style="stroke:#000000;stroke-width:0.8;" x="355.814108" xlink:href="#m19a73701a1" y="241"/>
      </g>
     </g>
     <g id="text_5">
      <!-- $\mathdefault{10^{1}}$ -->
      <g transform="translate(347.014108 255.598438)scale(0.1 -0.1)">
       <use transform="translate(0 0.684375)" xlink:href="#DejaVuSans-49"/>
       <use transform="translate(63.623047 0.684375)" xlink:href="#DejaVuSans-48"/>
       <use transform="translate(128.203125 38.965625)scale(0.7)" xlink:href="#DejaVuSans-49"/>
      </g>
     </g>
    </g>
    <g id="xtick_6">
     <g id="line2d_11">
      <defs>
       <path d="M 0 0 
L 0 2 
" id="m51b786afb6" style="stroke:#000000;stroke-width:0.6;"/>
      </defs>
      <g>
       <use style="stroke:#000000;stroke-width:0.6;" x="58.88501" xlink:href="#m51b786afb6" y="241"/>
      </g>
     </g>
    </g>
    <g id="xtick_7">
     <g id="line2d_12">
      <g>
       <use style="stroke:#000000;stroke-width:0.6;" x="64.351425" xlink:href="#m51b786afb6" y="241"/>
      </g>
     </g>
    </g>
    <g id="xtick_8">
     <g id="line2d_13">
      <g>
       <use style="stroke:#000000;stroke-width:0.6;" x="68.973213" xlink:href="#m51b786afb6" y="241"/>
      </g>
     </g>
    </g>
    <g id="xtick_9">
     <g id="line2d_14">
      <g>
       <use style="stroke:#000000;stroke-width:0.6;" x="72.976788" xlink:href="#m51b786afb6" y="241"/>
      </g>
     </g>
    </g>
    <g id="xtick_10">
     <g id="line2d_15">
      <g>
       <use style="stroke:#000000;stroke-width:0.6;" x="76.508192" xlink:href="#m51b786afb6" y="241"/>
      </g>
     </g>
    </g>
    <g id="xtick_11">
     <g id="line2d_16">
      <g>
       <use style="stroke:#000000;stroke-width:0.6;" x="100.44927" xlink:href="#m51b786afb6" y="241"/>
      </g>
     </g>
    </g>
    <g id="xtick_12">
     <g id="line2d_17">
      <g>
       <use style="stroke:#000000;stroke-width:0.6;" x="112.606037" xlink:href="#m51b786afb6" y="241"/>
      </g>
     </g>
    </g>
    <g id="xtick_13">
     <g id="line2d_18">
      <g>
       <use style="stroke:#000000;stroke-width:0.6;" x="121.2314" xlink:href="#m51b786afb6" y="241"/>
      </g>
     </g>
    </g>
    <g id="xtick_14">
     <g id="line2d_19">
      <g>
       <use style="stroke:#000000;stroke-width:0.6;" x="127.921752" xlink:href="#m51b786afb6" y="241"/>
      </g>
     </g>
    </g>
    <g id="xtick_15">
     <g id="line2d_20">
      <g>
       <use style="stroke:#000000;stroke-width:0.6;" x="133.388167" xlink:href="#m51b786afb6" y="241"/>
      </g>
     </g>
    </g>
    <g id="xtick_16">
     <g id="line2d_21">
      <g>
       <use style="stroke:#000000;stroke-width:0.6;" x="138.009955" xlink:href="#m51b786afb6" y="241"/>
      </g>
     </g>
    </g>
    <g id="xtick_17">
     <g id="line2d_22">
      <g>
       <use style="stroke:#000000;stroke-width:0.6;" x="142.01353" xlink:href="#m51b786afb6" y="241"/>
      </g>
     </g>
    </g>
    <g id="xtick_18">
     <g id="line2d_23">
      <g>
       <use style="stroke:#000000;stroke-width:0.6;" x="145.544934" xlink:href="#m51b786afb6" y="241"/>
      </g>
     </g>
    </g>
    <g id="xtick_19">
     <g id="line2d_24">
      <g>
       <use style="stroke:#000000;stroke-width:0.6;" x="169.486012" xlink:href="#m51b786afb6" y="241"/>
      </g>
     </g>
    </g>
    <g id="xtick_20">
     <g id="line2d_25">
      <g>
       <use style="stroke:#000000;stroke-width:0.6;" x="181.642779" xlink:href="#m51b786afb6" y="241"/>
      </g>
     </g>
    </g>
    <g id="xtick_21">
     <g id="line2d_26">
      <g>
       <use style="stroke:#000000;stroke-width:0.6;" x="190.268142" xlink:href="#m51b786afb6" y="241"/>
      </g>
     </g>
    </g>
    <g id="xtick_22">
     <g id="line2d_27">
      <g>
       <use style="stroke:#000000;stroke-width:0.6;" x="196.958494" xlink:href="#m51b786afb6" y="241"/>
      </g>
     </g>
    </g>
    <g id="xtick_23">
     <g id="line2d_28">
      <g>
       <use style="stroke:#000000;stroke-width:0.6;" x="202.424909" xlink:href="#m51b786afb6" y="241"/>
      </g>
     </g>
    </g>
    <g id="xtick_24">
     <g id="line2d_29">
      <g>
       <use style="stroke:#000000;stroke-width:0.6;" x="207.046698" xlink:href="#m51b786afb6" y="241"/>
      </g>
     </g>
    </g>
    <g id="xtick_25">
     <g id="line2d_30">
      <g>
       <use style="stroke:#000000;stroke-width:0.6;" x="211.050273" xlink:href="#m51b786afb6" y="241"/>
      </g>
     </g>
    </g>
    <g id="xtick_26">
     <g id="line2d_31">
      <g>
       <use style="stroke:#000000;stroke-width:0.6;" x="214.581676" xlink:href="#m51b786afb6" y="241"/>
      </g>
     </g>
    </g>
    <g id="xtick_27">
     <g id="line2d_32">
      <g>
       <use style="stroke:#000000;stroke-width:0.6;" x="238.522754" xlink:href="#m51b786afb6" y="241"/>
      </g>
     </g>
    </g>
    <g id="xtick_28">
     <g id="line2d_33">
      <g>
       <use style="stroke:#000000;stroke-width:0.6;" x="250.679521" xlink:href="#m51b786afb6" y="241"/>
      </g>
     </g>
    </g>
    <g id="xtick_29">
     <g id="line2d_34">
      <g>
       <use style="stroke:#000000;stroke-width:0.6;" x="259.304885" xlink:href="#m51b786afb6" y="241"/>
      </g>
     </g>
    </g>
    <g id="xtick_30">
     <g id="line2d_35">
      <g>
       <use style="stroke:#000000;stroke-width:0.6;" x="265.995236" xlink:href="#m51b786afb6" y="241"/>
      </g>
     </g>
    </g>
    <g id="xtick_31">
     <g id="line2d_36">
      <g>
       <use style="stroke:#000000;stroke-width:0.6;" x="271.461651" xlink:href="#m51b786afb6" y="241"/>
      </g>
     </g>
    </g>
    <g id="xtick_32">
     <g id="line2d_37">
      <g>
       <use style="stroke:#000000;stroke-width:0.6;" x="276.08344" xlink:href="#m51b786afb6" y="241"/>
      </g>
     </g>
    </g>
    <g id="xtick_33">
     <g id="line2d_38">
      <g>
       <use style="stroke:#000000;stroke-width:0.6;" x="280.087015" xlink:href="#m51b786afb6" y="241"/>
      </g>
     </g>
    </g>
    <g id="xtick_34">
     <g id="line2d_39">
      <g>
       <use style="stroke:#000000;stroke-width:0.6;" x="283.618418" xlink:href="#m51b786afb6" y="241"/>
      </g>
     </g>
    </g>
    <g id="xtick_35">
     <g id="line2d_40">
      <g>
       <use style="stroke:#000000;stroke-width:0.6;" x="307.559497" xlink:href="#m51b786afb6" y="241"/>
      </g>
     </g>
    </g>
    <g id="xtick_36">
     <g id="line2d_41">
      <g>
       <use style="stroke:#000000;stroke-width:0.6;" x="319.716263" xlink:href="#m51b786afb6" y="241"/>
      </g>
     </g>
    </g>
    <g id="xtick_37">
     <g id="line2d_42">
      <g>
       <use style="stroke:#000000;stroke-width:0.6;" x="328.341627" xlink:href="#m51b786afb6" y="241"/>
      </g>
     </g>
    </g>
    <g id="xtick_38">
     <g id="line2d_43">
      <g>
       <use style="stroke:#000000;stroke-width:0.6;" x="335.031978" xlink:href="#m51b786afb6" y="241"/>
      </g>
     </g>
    </g>
    <g id="xtick_39">
     <g id="line2d_44">
      <g>
       <use style="stroke:#000000;stroke-width:0.6;" x="340.498394" xlink:href="#m51b786afb6" y="241"/>
      </g>
     </g>
    </g>
    <g id="xtick_40">
     <g id="line2d_45">
      <g>
       <use style="stroke:#000000;stroke-width:0.6;" x="345.120182" xlink:href="#m51b786afb6" y="241"/>
      </g>
     </g>
    </g>
    <g id="xtick_41">
     <g id="line2d_46">
      <g>
       <use style="stroke:#000000;stroke-width:0.6;" x="349.123757" xlink:href="#m51b786afb6" y="241"/>
      </g>
     </g>
    </g>
    <g id="xtick_42">
     <g id="line2d_47">
      <g>
       <use style="stroke:#000000;stroke-width:0.6;" x="352.65516" xlink:href="#m51b786afb6" y="241"/>
      </g>
     </g>
    </g>
    <g id="xtick_43">
     <g id="line2d_48">
      <g>
       <use style="stroke:#000000;stroke-width:0.6;" x="376.596239" xlink:href="#m51b786afb6" y="241"/>
      </g>
     </g>
    </g>
    <g id="xtick_44">
     <g id="line2d_49">
      <g>
       <use style="stroke:#000000;stroke-width:0.6;" x="388.753006" xlink:href="#m51b786afb6" y="241"/>
      </g>
     </g>
    </g>
    <g id="xtick_45">
     <g id="line2d_50">
      <g>
       <use style="stroke:#000000;stroke-width:0.6;" x="397.378369" xlink:href="#m51b786afb6" y="241"/>
      </g>
     </g>
    </g>
    <g id="text_6">
     <!-- Time (ms)  -->
     <defs>
      <path d="M -0.296875 72.90625 
L 61.375 72.90625 
L 61.375 64.59375 
L 35.5 64.59375 
L 35.5 0 
L 25.59375 0 
L 25.59375 64.59375 
L -0.296875 64.59375 
z
" id="DejaVuSans-84"/>
      <path d="M 9.421875 54.6875 
L 18.40625 54.6875 
L 18.40625 0 
L 9.421875 0 
z
M 9.421875 75.984375 
L 18.40625 75.984375 
L 18.40625 64.59375 
L 9.421875 64.59375 
z
" id="DejaVuSans-105"/>
      <path d="M 52 44.1875 
Q 55.375 50.25 60.0625 53.125 
Q 64.75 56 71.09375 56 
Q 79.640625 56 84.28125 50.015625 
Q 88.921875 44.046875 88.921875 33.015625 
L 88.921875 0 
L 79.890625 0 
L 79.890625 32.71875 
Q 79.890625 40.578125 77.09375 44.375 
Q 74.3125 48.1875 68.609375 48.1875 
Q 61.625 48.1875 57.5625 43.546875 
Q 53.515625 38.921875 53.515625 30.90625 
L 53.515625 0 
L 44.484375 0 
L 44.484375 32.71875 
Q 44.484375 40.625 41.703125 44.40625 
Q 38.921875 48.1875 33.109375 48.1875 
Q 26.21875 48.1875 22.15625 43.53125 
Q 18.109375 38.875 18.109375 30.90625 
L 18.109375 0 
L 9.078125 0 
L 9.078125 54.6875 
L 18.109375 54.6875 
L 18.109375 46.1875 
Q 21.1875 51.21875 25.484375 53.609375 
Q 29.78125 56 35.6875 56 
Q 41.65625 56 45.828125 52.96875 
Q 50 49.953125 52 44.1875 
z
" id="DejaVuSans-109"/>
      <path d="M 56.203125 29.59375 
L 56.203125 25.203125 
L 14.890625 25.203125 
Q 15.484375 15.921875 20.484375 11.0625 
Q 25.484375 6.203125 34.421875 6.203125 
Q 39.59375 6.203125 44.453125 7.46875 
Q 49.3125 8.734375 54.109375 11.28125 
L 54.109375 2.78125 
Q 49.265625 0.734375 44.1875 -0.34375 
Q 39.109375 -1.421875 33.890625 -1.421875 
Q 20.796875 -1.421875 13.15625 6.1875 
Q 5.515625 13.8125 5.515625 26.8125 
Q 5.515625 40.234375 12.765625 48.109375 
Q 20.015625 56 32.328125 56 
Q 43.359375 56 49.78125 48.890625 
Q 56.203125 41.796875 56.203125 29.59375 
z
M 47.21875 32.234375 
Q 47.125 39.59375 43.09375 43.984375 
Q 39.0625 48.390625 32.421875 48.390625 
Q 24.90625 48.390625 20.390625 44.140625 
Q 15.875 39.890625 15.1875 32.171875 
z
" id="DejaVuSans-101"/>
      <path id="DejaVuSans-32"/>
      <path d="M 31 75.875 
Q 24.46875 64.65625 21.28125 53.65625 
Q 18.109375 42.671875 18.109375 31.390625 
Q 18.109375 20.125 21.3125 9.0625 
Q 24.515625 -2 31 -13.1875 
L 23.1875 -13.1875 
Q 15.875 -1.703125 12.234375 9.375 
Q 8.59375 20.453125 8.59375 31.390625 
Q 8.59375 42.28125 12.203125 53.3125 
Q 15.828125 64.359375 23.1875 75.875 
z
" id="DejaVuSans-40"/>
      <path d="M 44.28125 53.078125 
L 44.28125 44.578125 
Q 40.484375 46.53125 36.375 47.5 
Q 32.28125 48.484375 27.875 48.484375 
Q 21.1875 48.484375 17.84375 46.4375 
Q 14.5 44.390625 14.5 40.28125 
Q 14.5 37.15625 16.890625 35.375 
Q 19.28125 33.59375 26.515625 31.984375 
L 29.59375 31.296875 
Q 39.15625 29.25 43.1875 25.515625 
Q 47.21875 21.78125 47.21875 15.09375 
Q 47.21875 7.46875 41.1875 3.015625 
Q 35.15625 -1.421875 24.609375 -1.421875 
Q 20.21875 -1.421875 15.453125 -0.5625 
Q 10.6875 0.296875 5.421875 2 
L 5.421875 11.28125 
Q 10.40625 8.6875 15.234375 7.390625 
Q 20.0625 6.109375 24.8125 6.109375 
Q 31.15625 6.109375 34.5625 8.28125 
Q 37.984375 10.453125 37.984375 14.40625 
Q 37.984375 18.0625 35.515625 20.015625 
Q 33.0625 21.96875 24.703125 23.78125 
L 21.578125 24.515625 
Q 13.234375 26.265625 9.515625 29.90625 
Q 5.8125 33.546875 5.8125 39.890625 
Q 5.8125 47.609375 11.28125 51.796875 
Q 16.75 56 26.8125 56 
Q 31.78125 56 36.171875 55.265625 
Q 40.578125 54.546875 44.28125 53.078125 
z
" id="DejaVuSans-115"/>
      <path d="M 8.015625 75.875 
L 15.828125 75.875 
Q 23.140625 64.359375 26.78125 53.3125 
Q 30.421875 42.28125 30.421875 31.390625 
Q 30.421875 20.453125 26.78125 9.375 
Q 23.140625 -1.703125 15.828125 -13.1875 
L 8.015625 -13.1875 
Q 14.5 -2 17.703125 9.0625 
Q 20.90625 20.125 20.90625 31.390625 
Q 20.90625 42.671875 17.703125 53.65625 
Q 14.5 64.65625 8.015625 75.875 
z
" id="DejaVuSans-41"/>
     </defs>
     <g transform="translate(198.745313 269.276563)scale(0.1 -0.1)">
      <use xlink:href="#DejaVuSans-84"/>
      <use x="61.037109" xlink:href="#DejaVuSans-105"/>
      <use x="88.820312" xlink:href="#DejaVuSans-109"/>
      <use x="186.232422" xlink:href="#DejaVuSans-101"/>
      <use x="247.755859" xlink:href="#DejaVuSans-32"/>
      <use x="279.542969" xlink:href="#DejaVuSans-40"/>
      <use x="318.556641" xlink:href="#DejaVuSans-109"/>
      <use x="415.96875" xlink:href="#DejaVuSans-115"/>
      <use x="468.068359" xlink:href="#DejaVuSans-41"/>
      <use x="507.082031" xlink:href="#DejaVuSans-32"/>
     </g>
     <!--  log (base 10) -->
     <defs>
      <path d="M 9.421875 75.984375 
L 18.40625 75.984375 
L 18.40625 0 
L 9.421875 0 
z
" id="DejaVuSans-108"/>
      <path d="M 30.609375 48.390625 
Q 23.390625 48.390625 19.1875 42.75 
Q 14.984375 37.109375 14.984375 27.296875 
Q 14.984375 17.484375 19.15625 11.84375 
Q 23.34375 6.203125 30.609375 6.203125 
Q 37.796875 6.203125 41.984375 11.859375 
Q 46.1875 17.53125 46.1875 27.296875 
Q 46.1875 37.015625 41.984375 42.703125 
Q 37.796875 48.390625 30.609375 48.390625 
z
M 30.609375 56 
Q 42.328125 56 49.015625 48.375 
Q 55.71875 40.765625 55.71875 27.296875 
Q 55.71875 13.875 49.015625 6.21875 
Q 42.328125 -1.421875 30.609375 -1.421875 
Q 18.84375 -1.421875 12.171875 6.21875 
Q 5.515625 13.875 5.515625 27.296875 
Q 5.515625 40.765625 12.171875 48.375 
Q 18.84375 56 30.609375 56 
z
" id="DejaVuSans-111"/>
      <path d="M 45.40625 27.984375 
Q 45.40625 37.75 41.375 43.109375 
Q 37.359375 48.484375 30.078125 48.484375 
Q 22.859375 48.484375 18.828125 43.109375 
Q 14.796875 37.75 14.796875 27.984375 
Q 14.796875 18.265625 18.828125 12.890625 
Q 22.859375 7.515625 30.078125 7.515625 
Q 37.359375 7.515625 41.375 12.890625 
Q 45.40625 18.265625 45.40625 27.984375 
z
M 54.390625 6.78125 
Q 54.390625 -7.171875 48.1875 -13.984375 
Q 42 -20.796875 29.203125 -20.796875 
Q 24.46875 -20.796875 20.265625 -20.09375 
Q 16.0625 -19.390625 12.109375 -17.921875 
L 12.109375 -9.1875 
Q 16.0625 -11.328125 19.921875 -12.34375 
Q 23.78125 -13.375 27.78125 -13.375 
Q 36.625 -13.375 41.015625 -8.765625 
Q 45.40625 -4.15625 45.40625 5.171875 
L 45.40625 9.625 
Q 42.625 4.78125 38.28125 2.390625 
Q 33.9375 0 27.875 0 
Q 17.828125 0 11.671875 7.65625 
Q 5.515625 15.328125 5.515625 27.984375 
Q 5.515625 40.671875 11.671875 48.328125 
Q 17.828125 56 27.875 56 
Q 33.9375 56 38.28125 53.609375 
Q 42.625 51.21875 45.40625 46.390625 
L 45.40625 54.6875 
L 54.390625 54.6875 
z
" id="DejaVuSans-103"/>
      <path d="M 48.6875 27.296875 
Q 48.6875 37.203125 44.609375 42.84375 
Q 40.53125 48.484375 33.40625 48.484375 
Q 26.265625 48.484375 22.1875 42.84375 
Q 18.109375 37.203125 18.109375 27.296875 
Q 18.109375 17.390625 22.1875 11.75 
Q 26.265625 6.109375 33.40625 6.109375 
Q 40.53125 6.109375 44.609375 11.75 
Q 48.6875 17.390625 48.6875 27.296875 
z
M 18.109375 46.390625 
Q 20.953125 51.265625 25.265625 53.625 
Q 29.59375 56 35.59375 56 
Q 45.5625 56 51.78125 48.09375 
Q 58.015625 40.1875 58.015625 27.296875 
Q 58.015625 14.40625 51.78125 6.484375 
Q 45.5625 -1.421875 35.59375 -1.421875 
Q 29.59375 -1.421875 25.265625 0.953125 
Q 20.953125 3.328125 18.109375 8.203125 
L 18.109375 0 
L 9.078125 0 
L 9.078125 75.984375 
L 18.109375 75.984375 
z
" id="DejaVuSans-98"/>
      <path d="M 34.28125 27.484375 
Q 23.390625 27.484375 19.1875 25 
Q 14.984375 22.515625 14.984375 16.5 
Q 14.984375 11.71875 18.140625 8.90625 
Q 21.296875 6.109375 26.703125 6.109375 
Q 34.1875 6.109375 38.703125 11.40625 
Q 43.21875 16.703125 43.21875 25.484375 
L 43.21875 27.484375 
z
M 52.203125 31.203125 
L 52.203125 0 
L 43.21875 0 
L 43.21875 8.296875 
Q 40.140625 3.328125 35.546875 0.953125 
Q 30.953125 -1.421875 24.3125 -1.421875 
Q 15.921875 -1.421875 10.953125 3.296875 
Q 6 8.015625 6 15.921875 
Q 6 25.140625 12.171875 29.828125 
Q 18.359375 34.515625 30.609375 34.515625 
L 43.21875 34.515625 
L 43.21875 35.40625 
Q 43.21875 41.609375 39.140625 45 
Q 35.0625 48.390625 27.6875 48.390625 
Q 23 48.390625 18.546875 47.265625 
Q 14.109375 46.140625 10.015625 43.890625 
L 10.015625 52.203125 
Q 14.9375 54.109375 19.578125 55.046875 
Q 24.21875 56 28.609375 56 
Q 40.484375 56 46.34375 49.84375 
Q 52.203125 43.703125 52.203125 31.203125 
z
" id="DejaVuSans-97"/>
     </defs>
     <g transform="translate(191.114062 280.474375)scale(0.1 -0.1)">
      <use xlink:href="#DejaVuSans-32"/>
      <use x="31.787109" xlink:href="#DejaVuSans-108"/>
      <use x="59.570312" xlink:href="#DejaVuSans-111"/>
      <use x="120.751953" xlink:href="#DejaVuSans-103"/>
      <use x="184.228516" xlink:href="#DejaVuSans-32"/>
      <use x="216.015625" xlink:href="#DejaVuSans-40"/>
      <use x="255.029297" xlink:href="#DejaVuSans-98"/>
      <use x="318.505859" xlink:href="#DejaVuSans-97"/>
      <use x="379.785156" xlink:href="#DejaVuSans-115"/>
      <use x="431.884766" xlink:href="#DejaVuSans-101"/>
      <use x="493.408203" xlink:href="#DejaVuSans-32"/>
      <use x="525.195312" xlink:href="#DejaVuSans-49"/>
      <use x="588.818359" xlink:href="#DejaVuSans-48"/>
      <use x="652.441406" xlink:href="#DejaVuSans-41"/>
     </g>
    </g>
   </g>
   <g id="matplotlib.axis_2">
    <g id="ytick_1">
     <g id="line2d_51">
      <path clip-path="url(#p5bfd6e1887)" d="M 52.875 231.575051 
L 398.5 231.575051 
" style="fill:none;stroke:#b0b0b0;stroke-dasharray:3.7,1.6;stroke-dashoffset:0;"/>
     </g>
     <g id="line2d_52">
      <defs>
       <path d="M 0 0 
L -3.5 0 
" id="mf53c7e40bf" style="stroke:#000000;stroke-width:0.8;"/>
      </defs>
      <g>
       <use style="stroke:#000000;stroke-width:0.8;" x="52.875" xlink:href="#mf53c7e40bf" y="231.575051"/>
      </g>
     </g>
     <g id="text_7">
      <!-- 0.0 -->
      <defs>
       <path d="M 10.6875 12.40625 
L 21 12.40625 
L 21 0 
L 10.6875 0 
z
" id="DejaVuSans-46"/>
      </defs>
      <g transform="translate(29.971875 235.37427)scale(0.1 -0.1)">
       <use xlink:href="#DejaVuSans-48"/>
       <use x="63.623047" xlink:href="#DejaVuSans-46"/>
       <use x="95.410156" xlink:href="#DejaVuSans-48"/>
      </g>
     </g>
    </g>
    <g id="ytick_2">
     <g id="line2d_53">
      <path clip-path="url(#p5bfd6e1887)" d="M 52.875 193.846404 
L 398.5 193.846404 
" style="fill:none;stroke:#b0b0b0;stroke-dasharray:3.7,1.6;stroke-dashoffset:0;"/>
     </g>
     <g id="line2d_54">
      <g>
       <use style="stroke:#000000;stroke-width:0.8;" x="52.875" xlink:href="#mf53c7e40bf" y="193.846404"/>
      </g>
     </g>
     <g id="text_8">
      <!-- 0.2 -->
      <g transform="translate(29.971875 197.645623)scale(0.1 -0.1)">
       <use xlink:href="#DejaVuSans-48"/>
       <use x="63.623047" xlink:href="#DejaVuSans-46"/>
       <use x="95.410156" xlink:href="#DejaVuSans-50"/>
      </g>
     </g>
    </g>
    <g id="ytick_3">
     <g id="line2d_55">
      <path clip-path="url(#p5bfd6e1887)" d="M 52.875 156.117758 
L 398.5 156.117758 
" style="fill:none;stroke:#b0b0b0;stroke-dasharray:3.7,1.6;stroke-dashoffset:0;"/>
     </g>
     <g id="line2d_56">
      <g>
       <use style="stroke:#000000;stroke-width:0.8;" x="52.875" xlink:href="#mf53c7e40bf" y="156.117758"/>
      </g>
     </g>
     <g id="text_9">
      <!-- 0.4 -->
      <defs>
       <path d="M 37.796875 64.3125 
L 12.890625 25.390625 
L 37.796875 25.390625 
z
M 35.203125 72.90625 
L 47.609375 72.90625 
L 47.609375 25.390625 
L 58.015625 25.390625 
L 58.015625 17.1875 
L 47.609375 17.1875 
L 47.609375 0 
L 37.796875 0 
L 37.796875 17.1875 
L 4.890625 17.1875 
L 4.890625 26.703125 
z
" id="DejaVuSans-52"/>
      </defs>
      <g transform="translate(29.971875 159.916977)scale(0.1 -0.1)">
       <use xlink:href="#DejaVuSans-48"/>
       <use x="63.623047" xlink:href="#DejaVuSans-46"/>
       <use x="95.410156" xlink:href="#DejaVuSans-52"/>
      </g>
     </g>
    </g>
    <g id="ytick_4">
     <g id="line2d_57">
      <path clip-path="url(#p5bfd6e1887)" d="M 52.875 118.389111 
L 398.5 118.389111 
" style="fill:none;stroke:#b0b0b0;stroke-dasharray:3.7,1.6;stroke-dashoffset:0;"/>
     </g>
     <g id="line2d_58">
      <g>
       <use style="stroke:#000000;stroke-width:0.8;" x="52.875" xlink:href="#mf53c7e40bf" y="118.389111"/>
      </g>
     </g>
     <g id="text_10">
      <!-- 0.6 -->
      <defs>
       <path d="M 33.015625 40.375 
Q 26.375 40.375 22.484375 35.828125 
Q 18.609375 31.296875 18.609375 23.390625 
Q 18.609375 15.53125 22.484375 10.953125 
Q 26.375 6.390625 33.015625 6.390625 
Q 39.65625 6.390625 43.53125 10.953125 
Q 47.40625 15.53125 47.40625 23.390625 
Q 47.40625 31.296875 43.53125 35.828125 
Q 39.65625 40.375 33.015625 40.375 
z
M 52.59375 71.296875 
L 52.59375 62.3125 
Q 48.875 64.0625 45.09375 64.984375 
Q 41.3125 65.921875 37.59375 65.921875 
Q 27.828125 65.921875 22.671875 59.328125 
Q 17.53125 52.734375 16.796875 39.40625 
Q 19.671875 43.65625 24.015625 45.921875 
Q 28.375 48.1875 33.59375 48.1875 
Q 44.578125 48.1875 50.953125 41.515625 
Q 57.328125 34.859375 57.328125 23.390625 
Q 57.328125 12.15625 50.6875 5.359375 
Q 44.046875 -1.421875 33.015625 -1.421875 
Q 20.359375 -1.421875 13.671875 8.265625 
Q 6.984375 17.96875 6.984375 36.375 
Q 6.984375 53.65625 15.1875 63.9375 
Q 23.390625 74.21875 37.203125 74.21875 
Q 40.921875 74.21875 44.703125 73.484375 
Q 48.484375 72.75 52.59375 71.296875 
z
" id="DejaVuSans-54"/>
      </defs>
      <g transform="translate(29.971875 122.18833)scale(0.1 -0.1)">
       <use xlink:href="#DejaVuSans-48"/>
       <use x="63.623047" xlink:href="#DejaVuSans-46"/>
       <use x="95.410156" xlink:href="#DejaVuSans-54"/>
      </g>
     </g>
    </g>
    <g id="ytick_5">
     <g id="line2d_59">
      <path clip-path="url(#p5bfd6e1887)" d="M 52.875 80.660465 
L 398.5 80.660465 
" style="fill:none;stroke:#b0b0b0;stroke-dasharray:3.7,1.6;stroke-dashoffset:0;"/>
     </g>
     <g id="line2d_60">
      <g>
       <use style="stroke:#000000;stroke-width:0.8;" x="52.875" xlink:href="#mf53c7e40bf" y="80.660465"/>
      </g>
     </g>
     <g id="text_11">
      <!-- 0.8 -->
      <defs>
       <path d="M 31.78125 34.625 
Q 24.75 34.625 20.71875 30.859375 
Q 16.703125 27.09375 16.703125 20.515625 
Q 16.703125 13.921875 20.71875 10.15625 
Q 24.75 6.390625 31.78125 6.390625 
Q 38.8125 6.390625 42.859375 10.171875 
Q 46.921875 13.96875 46.921875 20.515625 
Q 46.921875 27.09375 42.890625 30.859375 
Q 38.875 34.625 31.78125 34.625 
z
M 21.921875 38.8125 
Q 15.578125 40.375 12.03125 44.71875 
Q 8.5 49.078125 8.5 55.328125 
Q 8.5 64.0625 14.71875 69.140625 
Q 20.953125 74.21875 31.78125 74.21875 
Q 42.671875 74.21875 48.875 69.140625 
Q 55.078125 64.0625 55.078125 55.328125 
Q 55.078125 49.078125 51.53125 44.71875 
Q 48 40.375 41.703125 38.8125 
Q 48.828125 37.15625 52.796875 32.3125 
Q 56.78125 27.484375 56.78125 20.515625 
Q 56.78125 9.90625 50.3125 4.234375 
Q 43.84375 -1.421875 31.78125 -1.421875 
Q 19.734375 -1.421875 13.25 4.234375 
Q 6.78125 9.90625 6.78125 20.515625 
Q 6.78125 27.484375 10.78125 32.3125 
Q 14.796875 37.15625 21.921875 38.8125 
z
M 18.3125 54.390625 
Q 18.3125 48.734375 21.84375 45.5625 
Q 25.390625 42.390625 31.78125 42.390625 
Q 38.140625 42.390625 41.71875 45.5625 
Q 45.3125 48.734375 45.3125 54.390625 
Q 45.3125 60.0625 41.71875 63.234375 
Q 38.140625 66.40625 31.78125 66.40625 
Q 25.390625 66.40625 21.84375 63.234375 
Q 18.3125 60.0625 18.3125 54.390625 
z
" id="DejaVuSans-56"/>
      </defs>
      <g transform="translate(29.971875 84.459684)scale(0.1 -0.1)">
       <use xlink:href="#DejaVuSans-48"/>
       <use x="63.623047" xlink:href="#DejaVuSans-46"/>
       <use x="95.410156" xlink:href="#DejaVuSans-56"/>
      </g>
     </g>
    </g>
    <g id="ytick_6">
     <g id="line2d_61">
      <path clip-path="url(#p5bfd6e1887)" d="M 52.875 42.931818 
L 398.5 42.931818 
" style="fill:none;stroke:#b0b0b0;stroke-dasharray:3.7,1.6;stroke-dashoffset:0;"/>
     </g>
     <g id="line2d_62">
      <g>
       <use style="stroke:#000000;stroke-width:0.8;" x="52.875" xlink:href="#mf53c7e40bf" y="42.931818"/>
      </g>
     </g>
     <g id="text_12">
      <!-- 1.0 -->
      <g transform="translate(29.971875 46.731037)scale(0.1 -0.1)">
       <use xlink:href="#DejaVuSans-49"/>
       <use x="63.623047" xlink:href="#DejaVuSans-46"/>
       <use x="95.410156" xlink:href="#DejaVuSans-48"/>
      </g>
     </g>
    </g>
    <g id="text_13">
     <!-- Fraction of Requests -->
     <defs>
      <path d="M 9.8125 72.90625 
L 51.703125 72.90625 
L 51.703125 64.59375 
L 19.671875 64.59375 
L 19.671875 43.109375 
L 48.578125 43.109375 
L 48.578125 34.8125 
L 19.671875 34.8125 
L 19.671875 0 
L 9.8125 0 
z
" id="DejaVuSans-70"/>
      <path d="M 41.109375 46.296875 
Q 39.59375 47.171875 37.8125 47.578125 
Q 36.03125 48 33.890625 48 
Q 26.265625 48 22.1875 43.046875 
Q 18.109375 38.09375 18.109375 28.8125 
L 18.109375 0 
L 9.078125 0 
L 9.078125 54.6875 
L 18.109375 54.6875 
L 18.109375 46.1875 
Q 20.953125 51.171875 25.484375 53.578125 
Q 30.03125 56 36.53125 56 
Q 37.453125 56 38.578125 55.875 
Q 39.703125 55.765625 41.0625 55.515625 
z
" id="DejaVuSans-114"/>
      <path d="M 48.78125 52.59375 
L 48.78125 44.1875 
Q 44.96875 46.296875 41.140625 47.34375 
Q 37.3125 48.390625 33.40625 48.390625 
Q 24.65625 48.390625 19.8125 42.84375 
Q 14.984375 37.3125 14.984375 27.296875 
Q 14.984375 17.28125 19.8125 11.734375 
Q 24.65625 6.203125 33.40625 6.203125 
Q 37.3125 6.203125 41.140625 7.25 
Q 44.96875 8.296875 48.78125 10.40625 
L 48.78125 2.09375 
Q 45.015625 0.34375 40.984375 -0.53125 
Q 36.96875 -1.421875 32.421875 -1.421875 
Q 20.0625 -1.421875 12.78125 6.34375 
Q 5.515625 14.109375 5.515625 27.296875 
Q 5.515625 40.671875 12.859375 48.328125 
Q 20.21875 56 33.015625 56 
Q 37.15625 56 41.109375 55.140625 
Q 45.0625 54.296875 48.78125 52.59375 
z
" id="DejaVuSans-99"/>
      <path d="M 18.3125 70.21875 
L 18.3125 54.6875 
L 36.8125 54.6875 
L 36.8125 47.703125 
L 18.3125 47.703125 
L 18.3125 18.015625 
Q 18.3125 11.328125 20.140625 9.421875 
Q 21.96875 7.515625 27.59375 7.515625 
L 36.8125 7.515625 
L 36.8125 0 
L 27.59375 0 
Q 17.1875 0 13.234375 3.875 
Q 9.28125 7.765625 9.28125 18.015625 
L 9.28125 47.703125 
L 2.6875 47.703125 
L 2.6875 54.6875 
L 9.28125 54.6875 
L 9.28125 70.21875 
z
" id="DejaVuSans-116"/>
      <path d="M 54.890625 33.015625 
L 54.890625 0 
L 45.90625 0 
L 45.90625 32.71875 
Q 45.90625 40.484375 42.875 44.328125 
Q 39.84375 48.1875 33.796875 48.1875 
Q 26.515625 48.1875 22.3125 43.546875 
Q 18.109375 38.921875 18.109375 30.90625 
L 18.109375 0 
L 9.078125 0 
L 9.078125 54.6875 
L 18.109375 54.6875 
L 18.109375 46.1875 
Q 21.34375 51.125 25.703125 53.5625 
Q 30.078125 56 35.796875 56 
Q 45.21875 56 50.046875 50.171875 
Q 54.890625 44.34375 54.890625 33.015625 
z
" id="DejaVuSans-110"/>
      <path d="M 37.109375 75.984375 
L 37.109375 68.5 
L 28.515625 68.5 
Q 23.6875 68.5 21.796875 66.546875 
Q 19.921875 64.59375 19.921875 59.515625 
L 19.921875 54.6875 
L 34.71875 54.6875 
L 34.71875 47.703125 
L 19.921875 47.703125 
L 19.921875 0 
L 10.890625 0 
L 10.890625 47.703125 
L 2.296875 47.703125 
L 2.296875 54.6875 
L 10.890625 54.6875 
L 10.890625 58.5 
Q 10.890625 67.625 15.140625 71.796875 
Q 19.390625 75.984375 28.609375 75.984375 
z
" id="DejaVuSans-102"/>
      <path d="M 44.390625 34.1875 
Q 47.5625 33.109375 50.5625 29.59375 
Q 53.5625 26.078125 56.59375 19.921875 
L 66.609375 0 
L 56 0 
L 46.6875 18.703125 
Q 43.0625 26.03125 39.671875 28.421875 
Q 36.28125 30.8125 30.421875 30.8125 
L 19.671875 30.8125 
L 19.671875 0 
L 9.8125 0 
L 9.8125 72.90625 
L 32.078125 72.90625 
Q 44.578125 72.90625 50.734375 67.671875 
Q 56.890625 62.453125 56.890625 51.90625 
Q 56.890625 45.015625 53.6875 40.46875 
Q 50.484375 35.9375 44.390625 34.1875 
z
M 19.671875 64.796875 
L 19.671875 38.921875 
L 32.078125 38.921875 
Q 39.203125 38.921875 42.84375 42.21875 
Q 46.484375 45.515625 46.484375 51.90625 
Q 46.484375 58.296875 42.84375 61.546875 
Q 39.203125 64.796875 32.078125 64.796875 
z
" id="DejaVuSans-82"/>
      <path d="M 14.796875 27.296875 
Q 14.796875 17.390625 18.875 11.75 
Q 22.953125 6.109375 30.078125 6.109375 
Q 37.203125 6.109375 41.296875 11.75 
Q 45.40625 17.390625 45.40625 27.296875 
Q 45.40625 37.203125 41.296875 42.84375 
Q 37.203125 48.484375 30.078125 48.484375 
Q 22.953125 48.484375 18.875 42.84375 
Q 14.796875 37.203125 14.796875 27.296875 
z
M 45.40625 8.203125 
Q 42.578125 3.328125 38.25 0.953125 
Q 33.9375 -1.421875 27.875 -1.421875 
Q 17.96875 -1.421875 11.734375 6.484375 
Q 5.515625 14.40625 5.515625 27.296875 
Q 5.515625 40.1875 11.734375 48.09375 
Q 17.96875 56 27.875 56 
Q 33.9375 56 38.25 53.625 
Q 42.578125 51.265625 45.40625 46.390625 
L 45.40625 54.6875 
L 54.390625 54.6875 
L 54.390625 -20.796875 
L 45.40625 -20.796875 
z
" id="DejaVuSans-113"/>
      <path d="M 8.5 21.578125 
L 8.5 54.6875 
L 17.484375 54.6875 
L 17.484375 21.921875 
Q 17.484375 14.15625 20.5 10.265625 
Q 23.53125 6.390625 29.59375 6.390625 
Q 36.859375 6.390625 41.078125 11.03125 
Q 45.3125 15.671875 45.3125 23.6875 
L 45.3125 54.6875 
L 54.296875 54.6875 
L 54.296875 0 
L 45.3125 0 
L 45.3125 8.40625 
Q 42.046875 3.421875 37.71875 1 
Q 33.40625 -1.421875 27.6875 -1.421875 
Q 18.265625 -1.421875 13.375 4.4375 
Q 8.5 10.296875 8.5 21.578125 
z
M 31.109375 56 
z
" id="DejaVuSans-117"/>
     </defs>
     <g transform="translate(23.892187 188.700781)rotate(-90)scale(0.1 -0.1)">
      <use xlink:href="#DejaVuSans-70"/>
      <use x="57.410156" xlink:href="#DejaVuSans-114"/>
      <use x="98.523438" xlink:href="#DejaVuSans-97"/>
      <use x="159.802734" xlink:href="#DejaVuSans-99"/>
      <use x="214.783203" xlink:href="#DejaVuSans-116"/>
      <use x="253.992188" xlink:href="#DejaVuSans-105"/>
      <use x="281.775391" xlink:href="#DejaVuSans-111"/>
      <use x="342.957031" xlink:href="#DejaVuSans-110"/>
      <use x="406.335938" xlink:href="#DejaVuSans-32"/>
      <use x="438.123047" xlink:href="#DejaVuSans-111"/>
      <use x="499.304688" xlink:href="#DejaVuSans-102"/>
      <use x="534.509766" xlink:href="#DejaVuSans-32"/>
      <use x="566.296875" xlink:href="#DejaVuSans-82"/>
      <use x="635.716797" xlink:href="#DejaVuSans-101"/>
      <use x="697.240234" xlink:href="#DejaVuSans-113"/>
      <use x="760.716797" xlink:href="#DejaVuSans-117"/>
      <use x="824.095703" xlink:href="#DejaVuSans-101"/>
      <use x="885.619141" xlink:href="#DejaVuSans-115"/>
      <use x="937.71875" xlink:href="#DejaVuSans-116"/>
      <use x="976.927734" xlink:href="#DejaVuSans-115"/>
     </g>
    </g>
   </g>
   <g id="line2d_63">
    <path clip-path="url(#p5bfd6e1887)" d="M 110.644362 231.567513 
L 115.536249 231.446912 
L 115.698951 231.371536 
L 116.761636 231.04742 
L 117.67 230.617777 
L 118.030781 230.195672 
L 118.230276 229.886631 
L 118.387273 229.622816 
L 118.51064 229.456989 
L 118.780274 229.027346 
L 119.079735 228.605241 
L 119.574925 227.896708 
L 119.780176 227.70073 
L 119.937111 227.519828 
L 120.062069 227.369077 
L 120.256281 227.052498 
L 120.487686 226.683156 
L 120.823883 226.027386 
L 121.066043 225.635431 
L 121.581638 224.851522 
L 121.810427 224.467105 
L 123.210884 221.813874 
L 123.343905 221.663122 
L 123.649708 221.26363 
L 123.856435 220.894288 
L 124.027626 220.622935 
L 124.394096 220.072691 
L 124.622559 219.560135 
L 124.709455 219.41692 
L 124.882494 218.994815 
L 125.519391 217.283783 
L 125.733019 216.680776 
L 126.484685 214.660702 
L 126.641546 214.374274 
L 127.088773 213.537601 
L 127.230242 213.379312 
L 127.729249 212.444651 
L 128.059354 211.856719 
L 128.837087 210.190912 
L 129.23 209.512529 
L 129.544073 208.721082 
L 129.64615 208.562793 
L 130.345591 207.010049 
L 130.400847 206.866835 
L 130.626341 206.407042 
L 130.888197 205.871874 
L 131.244554 205.193491 
L 131.357058 205.020126 
L 131.860796 203.927176 
L 132.028588 203.497533 
L 135.313808 193.69113 
L 135.792642 191.919797 
L 135.926091 191.490154 
L 136.354612 189.711283 
L 136.53512 189.00275 
L 136.763703 187.857036 
L 137.008276 186.733936 
L 137.338602 185.249031 
L 137.678323 183.696288 
L 138.018521 182.105856 
L 138.121112 181.713902 
L 138.460569 180.100858 
L 138.528002 179.754129 
L 138.958507 177.470239 
L 141.795367 161.407638 
L 142.006034 160.216699 
L 143.358351 152.731873 
L 143.845301 150.206781 
L 144.54227 146.445524 
L 144.621393 146.008344 
L 145.061338 143.596316 
L 145.273872 142.45814 
L 145.800358 139.669232 
L 150.326203 119.528795 
L 150.391459 119.264979 
L 150.566662 118.737348 
L 150.608897 118.556446 
L 151.301436 116.219793 
L 151.381063 116.001203 
L 151.542412 115.390659 
L 152.16057 113.370585 
L 152.331076 112.873104 
L 152.671832 111.584176 
L 152.878616 110.702278 
L 152.943758 110.528914 
L 157.703922 97.074318 
L 157.808115 96.840653 
L 158.214758 95.845691 
L 158.317194 95.619563 
L 158.490754 95.189921 
L 158.841302 94.368324 
L 159.011862 94.074358 
L 159.410998 93.056783 
L 159.524068 92.81558 
L 159.676246 92.506539 
L 160.076952 91.556803 
L 160.242686 91.12716 
L 160.340467 90.833194 
L 160.480472 90.516616 
L 160.716387 90.056823 
L 160.822647 89.808082 
L 161.123339 89.107087 
L 161.454377 88.511617 
L 161.680836 88.074437 
L 161.812797 87.727708 
L 161.988488 87.335753 
L 162.153585 87.019175 
L 162.273954 86.679983 
L 162.428007 86.310641 
L 162.763788 85.685021 
L 163.004805 85.164928 
L 163.236516 84.584533 
L 163.504906 83.936301 
L 163.601744 83.68756 
L 163.865091 83.054403 
L 163.931921 82.911189 
L 164.192396 82.278031 
L 164.399158 81.984065 
L 164.662667 81.34337 
L 166.410233 77.853467 
L 166.547785 77.680102 
L 166.720899 77.408749 
L 167.310178 76.315799 
L 167.401918 76.134896 
L 170.759798 70.052062 
L 170.89455 69.878698 
L 171.180673 69.43398 
L 171.458478 68.981725 
L 171.658534 68.665146 
L 171.955445 68.18274 
L 172.22209 67.768173 
L 172.474176 67.391294 
L 172.620365 67.195316 
L 173.295953 66.283268 
L 173.438199 66.079753 
L 173.61245 65.83855 
L 175.024797 63.991841 
L 175.170255 63.795864 
L 175.409897 63.547123 
L 175.554727 63.351146 
L 175.888354 62.906428 
L 176.274545 62.537086 
L 176.539934 62.220508 
L 176.746567 62.009455 
L 176.965806 61.798403 
L 177.278397 61.572275 
L 177.389169 61.391373 
L 177.600345 61.218008 
L 177.95054 60.93158 
L 178.312331 60.622539 
L 179.563506 59.695415 
L 179.80887 59.529589 
L 179.964645 59.4316 
L 180.192079 59.280848 
L 180.340662 59.137634 
L 180.969673 58.662766 
L 181.545679 58.240661 
L 181.811205 58.097447 
L 182.068489 57.863781 
L 183.159824 56.891432 
L 183.316182 56.71053 
L 183.530907 56.514553 
L 183.73199 56.265813 
L 183.935437 56.047223 
L 184.077677 55.919084 
L 184.254993 55.753257 
L 184.8284 55.225625 
L 184.973632 55.059798 
L 185.279712 54.77337 
L 185.411324 54.645231 
L 185.938132 54.260814 
L 186.111697 54.125137 
L 186.306513 53.936698 
L 186.551873 53.725645 
L 186.922893 53.424142 
L 187.050004 53.258315 
L 187.405879 52.934198 
L 187.642439 52.790984 
L 188.98559 51.80356 
L 189.411263 51.55482 
L 189.662419 51.351305 
L 189.951664 51.193015 
L 190.434084 50.801061 
L 190.753651 50.620159 
L 190.915467 50.559858 
L 191.13764 50.378956 
L 191.304645 50.27343 
L 191.712416 49.987001 
L 192.07734 49.813637 
L 193.02679 49.399069 
L 193.552678 49.097566 
L 193.780218 48.931739 
L 194.237406 48.780987 
L 194.56068 48.622698 
L 198.151136 47.160405 
L 199.834094 46.293583 
L 200.445624 46.127756 
L 202.217315 45.351384 
L 202.590354 45.200632 
L 203.484814 45.004655 
L 204.366947 44.748377 
L 204.446464 44.710689 
L 204.968802 44.575013 
L 205.347417 44.492099 
L 209.699189 44.107682 
L 213.270512 43.941855 
L 217.055251 43.760953 
L 223.742166 43.512213 
L 224.729784 43.444374 
L 263.641626 43.044882 
L 299.966358 42.931818 
L 299.966358 42.931818 
" style="fill:none;stroke:#00aff0;stroke-dasharray:7.4,3.2;stroke-dashoffset:0;stroke-width:2;"/>
   </g>
   <g id="line2d_64">
    <path clip-path="url(#p5bfd6e1887)" d="M 99.194086 231.567511 
L 99.797621 231.446866 
L 101.408195 231.220657 
L 109.335837 231.024609 
L 109.480384 230.971827 
L 111.444499 230.858723 
L 116.779032 230.722997 
L 117.492213 230.30074 
L 117.720603 230.112233 
L 118.055791 229.840782 
L 118.444908 229.637194 
L 118.788407 229.418525 
L 119.439959 229.207397 
L 120.793475 229.03397 
L 121.935155 228.762519 
L 122.327941 228.672035 
L 123.091363 228.445826 
L 123.434581 228.212077 
L 123.856435 228.076352 
L 124.575665 227.442967 
L 124.829357 227.29216 
L 124.948782 227.231838 
L 125.421781 227.013169 
L 125.707206 226.839742 
L 125.913093 226.666316 
L 126.143039 226.553211 
L 126.465807 226.409945 
L 126.934241 226.183736 
L 127.094938 226.02539 
L 127.65674 225.708697 
L 128.107068 225.535271 
L 128.50372 225.339223 
L 129.916668 224.615354 
L 130.384281 224.170476 
L 130.871898 223.951807 
L 131.431827 223.748219 
L 131.845017 223.325963 
L 132.782444 222.172297 
L 133.809936 221.553992 
L 133.952486 221.448428 
L 134.366444 221.161896 
L 134.669614 220.980929 
L 134.898561 220.815043 
L 135.191719 220.49835 
L 136.611508 218.424767 
L 136.723491 218.23626 
L 136.932893 217.919567 
L 141.423101 213.97599 
L 141.533743 213.908127 
L 141.927207 213.46325 
L 142.077175 213.274742 
L 142.363769 213.056074 
L 142.52263 212.822324 
L 142.841496 212.339745 
L 143.055825 212.143697 
L 143.322496 211.827005 
L 143.636561 211.412288 
L 143.749956 211.238861 
L 143.961422 210.95987 
L 144.084093 210.816604 
L 145.601514 208.45649 
L 145.737533 208.230281 
L 146.007735 207.755242 
L 146.282024 207.400848 
L 146.956967 206.458311 
L 147.329658 205.855087 
L 147.607722 205.349887 
L 147.803007 204.950251 
L 148.036908 204.588316 
L 148.168443 204.399809 
L 148.302442 204.196221 
L 148.481188 203.864447 
L 148.703882 203.43465 
L 148.859386 202.959611 
L 148.9636 202.733402 
L 149.156184 202.115098 
L 149.282909 201.783325 
L 149.683127 200.275265 
L 149.804759 199.800226 
L 150.049419 198.759664 
L 150.18385 198.40527 
L 150.805208 197.063097 
L 151.058506 196.535276 
L 151.61052 195.351448 
L 151.654028 195.215723 
L 151.886806 194.544636 
L 152.392115 193.443752 
L 152.476833 193.247705 
L 152.606096 192.87823 
L 152.865571 192.033716 
L 153.359916 190.269286 
L 153.780503 188.459614 
L 153.926956 187.924253 
L 154.157802 187.215464 
L 155.141319 184.59898 
L 155.27888 184.357691 
L 155.456532 183.897732 
L 155.559281 183.701684 
L 155.678315 183.437774 
L 155.886674 182.819469 
L 156.121701 182.238866 
L 157.018827 179.682704 
L 157.086911 179.546979 
L 157.278983 179.026698 
L 157.5235 178.355612 
L 157.663922 178.031379 
L 157.858972 177.465856 
L 158.330246 176.229247 
L 158.445291 175.927635 
L 158.849853 174.917235 
L 159.678326 172.692846 
L 159.846271 172.28567 
L 160.074901 171.644744 
L 160.236564 171.086762 
L 160.780589 169.495759 
L 160.878633 169.201687 
L 161.610738 167.060242 
L 162.298732 164.835853 
L 162.407132 164.383435 
L 162.577497 163.908396 
L 162.763788 163.290092 
L 163.275268 161.691548 
L 163.345264 161.465339 
L 164.061543 158.98458 
L 164.156602 158.667887 
L 164.329802 158.102365 
L 164.424016 157.853535 
L 164.569201 157.272932 
L 165.571395 153.472621 
L 165.65498 153.163468 
L 165.868849 152.258632 
L 167.237552 146.641108 
L 167.290828 146.445061 
L 167.954434 143.873818 
L 168.114927 143.210272 
L 168.313564 142.365758 
L 168.540303 141.528785 
L 169.08913 139.38734 
L 169.152864 139.13851 
L 173.57585 123.062589 
L 173.780499 122.436745 
L 174.098376 121.245377 
L 174.382376 120.461186 
L 174.515769 120.023848 
L 174.700269 119.413084 
L 177.411044 111.631494 
L 177.514447 111.420366 
L 177.66318 111.096133 
L 178.207166 109.678556 
L 178.345817 109.361864 
L 178.532651 108.818962 
L 178.610156 108.607834 
L 178.776667 108.223278 
L 178.917094 107.899046 
L 179.099325 107.393845 
L 179.239335 107.069613 
L 179.368993 106.783081 
L 179.6715 106.172317 
L 179.847094 105.682197 
L 179.937151 105.455988 
L 180.281108 104.634096 
L 180.377172 104.377725 
L 180.622198 103.714179 
L 180.75426 103.359785 
L 180.956383 102.869665 
L 181.090039 102.515271 
L 181.31822 101.97991 
L 181.760478 100.743301 
L 181.856886 100.502011 
L 182.025104 100.057133 
L 182.622024 98.684799 
L 182.836958 98.149437 
L 183.119893 97.350165 
L 183.48395 96.339765 
L 183.570294 96.098476 
L 183.779491 95.555574 
L 183.907649 95.253962 
L 184.79693 92.908929 
L 184.966476 92.388648 
L 185.082541 92.034254 
L 185.396337 91.1822 
L 185.681563 90.480952 
L 185.838374 90.088856 
L 186.07465 89.530874 
L 186.166751 89.327286 
L 186.273132 89.033214 
L 186.393641 88.641119 
L 186.478816 88.42245 
L 186.784298 87.555315 
L 186.896903 87.231082 
L 187.215609 86.431811 
L 187.396806 86.009554 
L 187.506316 85.745643 
L 187.628527 85.466652 
L 187.733118 85.180121 
L 187.880395 84.840807 
L 188.333131 83.770085 
L 188.495792 83.257344 
L 188.636214 82.955732 
L 188.825571 82.541016 
L 188.91353 82.375129 
L 189.045768 82.126299 
L 189.218595 81.862389 
L 189.366495 81.462753 
L 189.505213 81.191302 
L 189.654005 80.791666 
L 189.718965 80.625779 
L 190.54049 78.861349 
L 190.635415 78.695463 
L 190.763237 78.416471 
L 190.860401 78.250585 
L 191.00117 77.933892 
L 191.154383 77.556877 
L 191.285088 77.285426 
L 191.392853 77.051677 
L 191.518931 76.833008 
L 191.662373 76.599259 
L 191.814389 76.169462 
L 192.462268 74.766966 
L 193.155045 73.289067 
L 193.383585 72.85173 
L 193.47465 72.648142 
L 193.66934 72.173103 
L 193.879392 71.690524 
L 194.010014 71.441694 
L 194.1618 71.10238 
L 194.405029 70.574559 
L 194.505416 70.416213 
L 196.959094 66.563119 
L 197.145002 66.344451 
L 197.288871 66.171024 
L 197.525755 65.922194 
L 197.676596 65.763847 
L 197.816194 65.590421 
L 197.935417 65.432074 
L 198.116541 65.273728 
L 198.297151 65.047519 
L 198.5632 64.776068 
L 199.623607 63.765668 
L 199.78775 63.614862 
L 199.986253 63.343411 
L 200.286663 63.102121 
L 200.487232 62.906074 
L 200.648318 62.717566 
L 200.799575 62.544139 
L 200.925393 62.431035 
L 201.049116 62.280229 
L 201.237388 62.136963 
L 201.462177 61.955996 
L 202.094287 61.443255 
L 202.569475 61.156724 
L 202.738082 61.036079 
L 202.963717 60.907894 
L 203.322306 60.666604 
L 203.480473 60.530879 
L 203.939579 60.146324 
L 204.081767 59.987977 
L 204.324765 59.814551 
L 204.60626 59.663745 
L 205.068709 59.422455 
L 206.015774 59.030359 
L 206.176703 58.924795 
L 206.917926 58.623183 
L 207.214556 58.494998 
L 207.371736 58.374353 
L 207.942501 58.140604 
L 208.10295 58.065201 
L 214.216678 56.481738 
L 214.966961 56.323392 
L 215.531565 56.165045 
L 215.949183 56.03686 
L 216.035631 55.984078 
L 216.784083 55.78049 
L 219.163175 55.101863 
L 219.280463 55.034 
L 220.026152 54.687146 
L 220.873626 54.0236 
L 222.006258 52.76437 
L 222.486624 52.198847 
L 222.627055 52.002799 
L 223.008752 51.565462 
L 223.608106 50.76619 
L 223.735784 50.570142 
L 223.957373 50.321312 
L 224.097403 50.178047 
L 224.32116 49.906596 
L 224.478191 49.703008 
L 224.720996 49.476799 
L 224.904298 49.26567 
L 225.279234 48.933897 
L 225.448269 48.768011 
L 225.6371 48.579503 
L 225.813985 48.451318 
L 226.208769 48.179867 
L 226.306489 48.096924 
L 226.550633 47.908416 
L 226.682201 47.817933 
L 226.998931 47.644506 
L 227.38373 47.471079 
L 230.043548 46.475759 
L 233.521042 45.99318 
L 233.575548 45.9781 
L 234.721007 45.827293 
L 235.639042 45.608625 
L 236.958026 45.359795 
L 237.346876 45.24669 
L 239.886919 44.945078 
L 242.392573 44.764111 
L 242.397711 44.756571 
L 243.391222 44.605765 
L 243.918253 44.507741 
L 245.422727 44.326774 
L 248.198664 43.814033 
L 248.486058 43.776332 
L 250.167474 43.587824 
L 250.53536 43.572744 
L 296.286845 42.96952 
L 346.793977 42.931818 
L 346.793977 42.931818 
" style="fill:none;stroke:#800000;stroke-dasharray:7.4,3.2;stroke-dashoffset:0;stroke-width:2;"/>
   </g>
   <g id="line2d_65">
    <path clip-path="url(#p5bfd6e1887)" d="M 130.439467 231.565823 
L 143.817082 231.381268 
L 143.838248 231.37204 
L 152.703334 231.058296 
L 154.805638 230.956791 
L 159.115853 230.643047 
L 160.754524 230.347758 
L 161.729419 230.200114 
L 162.015426 230.144747 
L 163.164414 229.960192 
L 164.574499 229.664903 
L 165.535502 229.508031 
L 165.632827 229.461893 
L 166.511387 229.360387 
L 167.226239 229.212743 
L 168.074099 228.991276 
L 168.531019 228.843632 
L 169.82143 228.548344 
L 169.997323 228.492977 
L 170.465257 228.363788 
L 170.815779 228.2346 
L 171.920911 228.077728 
L 174.468832 227.422556 
L 174.587935 227.385645 
L 175.164053 227.293367 
L 175.641535 227.164179 
L 175.887143 227.062673 
L 176.588473 226.86889 
L 177.545398 226.573602 
L 178.106128 226.41673 
L 178.225092 226.324452 
L 178.926943 226.010708 
L 179.119987 225.309398 
L 179.352816 224.958742 
L 179.565648 224.709593 
L 179.820555 224.10056 
L 179.894805 223.749905 
L 180.109097 222.854812 
L 180.224579 222.679484 
L 180.526917 222.135046 
L 180.772785 221.876668 
L 181.026856 221.452191 
L 182.704131 219.92961 
L 183.030331 219.523588 
L 183.186415 219.357488 
L 183.313346 219.136022 
L 183.442566 218.859189 
L 183.59746 218.407028 
L 183.876124 217.86259 
L 184.190803 217.299696 
L 184.446743 216.792169 
L 184.663491 216.524564 
L 184.861632 216.312325 
L 185.107481 216.146225 
L 185.241622 216.026264 
L 186.101363 214.946616 
L 186.249144 214.715921 
L 186.397906 214.494455 
L 186.649288 214.06075 
L 186.777562 213.857739 
L 186.966439 213.590134 
L 187.216439 213.184112 
L 187.352229 213.045696 
L 187.470955 212.851913 
L 187.656345 212.648902 
L 187.83328 212.381297 
L 187.976831 212.15983 
L 188.205736 211.726125 
L 188.301933 211.560025 
L 188.435296 211.301648 
L 188.576 211.117092 
L 188.882146 210.59111 
L 189.133863 210.221999 
L 189.262034 210.065127 
L 189.463665 209.714472 
L 189.767022 209.068528 
L 189.887206 208.847062 
L 190.007668 208.616368 
L 190.123881 208.330307 
L 190.198352 208.19189 
L 190.396043 207.628997 
L 190.47952 207.435214 
L 190.557569 207.139925 
L 190.692374 206.807725 
L 190.910332 206.263287 
L 191.433977 204.528467 
L 191.496636 204.325456 
L 191.638036 203.836385 
L 191.69098 203.679513 
L 191.841428 203.144302 
L 191.912467 202.895152 
L 192.039916 202.378397 
L 192.149935 201.944692 
L 192.289697 201.547899 
L 192.922006 199.084085 
L 194.809728 191.120522 
L 194.900423 190.686817 
L 195.05289 190.087012 
L 196.29152 184.670313 
L 196.551584 183.544526 
L 196.68017 183.009315 
L 197.073405 181.459051 
L 197.189663 180.933068 
L 197.375335 180.333263 
L 197.966743 178.127827 
L 198.106732 177.638755 
L 201.087806 168.457127 
L 201.212422 168.244889 
L 201.459597 167.829639 
L 201.554915 167.672767 
L 201.717543 167.202151 
L 202.386908 165.771847 
L 202.513227 165.476559 
L 202.692057 165.153587 
L 202.829427 164.793704 
L 202.940149 164.590693 
L 204.117209 162.385257 
L 204.460474 161.79468 
L 204.578834 161.62858 
L 204.754115 161.305608 
L 205.027045 160.816537 
L 205.17102 160.668892 
L 205.368714 160.42897 
L 205.71146 159.755344 
L 205.895843 159.441599 
L 206.199182 158.934072 
L 206.319225 158.786428 
L 206.830044 157.74369 
L 206.956186 157.512996 
L 207.847151 156.00887 
L 208.062401 155.704354 
L 208.19007 155.501343 
L 208.779182 154.301733 
L 208.861137 154.135634 
L 210.30118 151.967108 
L 210.383682 151.83792 
L 210.53886 151.597998 
L 210.99175 150.933599 
L 211.147557 150.629082 
L 211.288433 150.379933 
L 211.49999 150.066189 
L 211.704932 149.798583 
L 211.823503 149.558661 
L 212.08243 149.272601 
L 214.057766 146.328943 
L 214.166728 146.162843 
L 214.358647 145.922921 
L 214.857902 145.157017 
L 215.006729 145.037056 
L 215.103792 144.880184 
L 215.252058 144.621806 
L 215.657816 144.086596 
L 215.847159 143.78208 
L 216.027061 143.560613 
L 216.18474 143.376058 
L 216.70008 142.757797 
L 216.839749 142.600925 
L 216.990455 142.41637 
L 217.272869 142.130309 
L 217.372894 142.019576 
L 217.581898 141.853476 
L 217.728029 141.678149 
L 217.917298 141.410543 
L 221.734304 137.174999 
L 221.880906 137.018127 
L 222.17172 136.695155 
L 222.734106 135.864656 
L 222.91353 135.707784 
L 223.114953 135.39404 
L 223.284145 135.126434 
L 223.44396 134.831146 
L 225.107833 132.201232 
L 225.263141 132.053588 
L 225.747029 131.223089 
L 225.980041 131.001623 
L 226.254396 130.669423 
L 226.441373 130.540234 
L 226.933028 129.986568 
L 227.123508 129.792785 
L 227.322589 129.617458 
L 227.675957 129.294486 
L 227.991787 129.07302 
L 228.25496 128.870009 
L 228.614056 128.620859 
L 228.77489 128.463987 
L 228.949103 128.32557 
L 229.02431 128.094876 
L 229.439379 125.751024 
L 229.615637 125.584924 
L 229.816931 125.409596 
L 229.915375 125.243496 
L 229.998361 124.929752 
L 230.115467 124.532958 
L 230.395729 124.108481 
L 230.54007 123.997748 
L 230.908926 123.665548 
L 231.127467 123.45331 
L 231.754159 122.890416 
L 232.349239 122.364433 
L 232.529384 122.189106 
L 233.348379 121.247873 
L 233.534501 121.100229 
L 233.718243 120.943357 
L 233.920099 120.703435 
L 234.068647 120.426602 
L 234.166405 120.205136 
L 234.29545 119.992897 
L 234.526545 119.771431 
L 234.697854 119.531509 
L 234.892904 119.328498 
L 235.001337 119.15317 
L 235.143294 118.95016 
L 235.238786 118.793288 
L 235.721946 117.944333 
L 235.845627 117.685956 
L 236.0073 117.390667 
L 236.175078 117.095378 
L 236.288026 116.846229 
L 236.434803 116.587851 
L 236.527718 116.430979 
L 236.725743 116.01573 
L 236.823791 115.840402 
L 237.089462 115.295964 
L 237.179746 115.111409 
L 237.364956 114.769981 
L 237.617399 114.234771 
L 237.737981 114.004077 
L 237.879377 113.61651 
L 238.38768 112.46304 
L 238.508659 112.158523 
L 238.750948 111.632541 
L 239.059992 110.885092 
L 239.210983 110.414475 
L 239.304603 110.239148 
L 239.575037 109.510154 
L 239.6427 109.27946 
L 239.964742 108.153673 
L 240.374685 106.751052 
L 240.459687 106.529586 
L 240.88403 104.757854 
L 241.492594 101.989525 
L 241.618869 101.537364 
L 242.122839 99.101234 
L 242.210325 98.741351 
L 242.326621 98.104635 
L 242.38638 97.790891 
L 242.512628 97.135719 
L 242.601341 96.646648 
L 242.800088 95.751554 
L 242.906483 95.216344 
L 243.035079 94.542717 
L 243.086235 94.367389 
L 243.221626 93.78604 
L 243.413388 92.807897 
L 243.464284 92.512608 
L 243.662337 91.442187 
L 243.818033 90.648599 
L 244.020884 89.495129 
L 244.077363 89.273662 
L 244.200299 88.803046 
L 245.917739 80.839483 
L 246.01049 80.498056 
L 246.126114 80.128945 
L 246.24871 79.805974 
L 246.773786 78.384898 
L 247.188043 77.59131 
L 247.760358 76.400928 
L 247.920435 76.179461 
L 248.048363 75.994906 
L 248.503472 75.404329 
L 248.62145 75.201318 
L 249.854967 73.346537 
L 249.975634 73.180437 
L 250.347788 72.765188 
L 250.704596 72.1377 
L 250.847649 71.953144 
L 251.026203 71.796272 
L 251.158391 71.611717 
L 251.743864 70.808901 
L 251.965947 70.495157 
L 252.091014 70.329057 
L 252.442109 69.858441 
L 252.570464 69.673886 
L 252.825446 69.360142 
L 253.072003 69.03717 
L 253.200911 68.78802 
L 253.358713 68.612693 
L 253.533957 68.446593 
L 253.939728 68.031343 
L 255.47496 66.591812 
L 255.693979 66.296523 
L 255.825081 66.158107 
L 255.936916 66.065829 
L 256.136607 65.844363 
L 256.359878 65.678263 
L 256.846844 65.31838 
L 256.963044 65.226102 
L 257.236134 65.078458 
L 257.551136 64.90313 
L 258.785237 64.275642 
L 259.341291 64.044948 
L 259.924615 63.50051 
L 260.086076 63.25136 
L 260.370987 63.057577 
L 260.481532 62.928388 
L 260.643756 62.697694 
L 260.768296 62.402406 
L 260.909732 62.199395 
L 261.076729 62.051751 
L 261.229307 61.922562 
L 261.516422 61.738007 
L 261.932804 61.359668 
L 262.13796 61.212024 
L 262.230769 61.073607 
L 262.567243 60.870596 
L 262.6716 60.796774 
L 262.91321 60.612219 
L 263.106836 60.455347 
L 264.22753 59.790948 
L 264.525187 59.643304 
L 266.373673 58.720527 
L 266.507431 58.609794 
L 267.103511 58.286822 
L 267.639987 57.908483 
L 267.967478 57.696245 
L 268.221864 57.502462 
L 268.518739 57.34559 
L 269.417225 56.616596 
L 269.533994 56.524318 
L 269.766813 56.376674 
L 272.787116 54.595715 
L 273.124088 54.281971 
L 273.301976 54.115871 
L 273.670125 53.755988 
L 273.843888 53.589889 
L 274.068323 53.276145 
L 274.79769 52.602518 
L 274.912194 52.482557 
L 275.147763 52.26109 
L 275.253059 52.168813 
L 275.810951 51.781246 
L 275.996494 51.64283 
L 276.226925 51.495186 
L 277.559086 50.85847 
L 278.077835 50.646231 
L 278.458489 50.461676 
L 279.016306 50.295576 
L 279.132292 50.267893 
L 280.160269 49.871099 
L 280.346547 49.760365 
L 281.027494 49.40971 
L 281.167364 49.298977 
L 282.158836 48.662261 
L 282.453694 48.450023 
L 282.712393 48.210101 
L 282.833491 48.117823 
L 283.369199 47.850218 
L 283.631541 47.702574 
L 284.11964 47.527246 
L 285.83537 47.148908 
L 286.894249 46.955124 
L 286.903625 46.945897 
L 287.353982 46.816708 
L 288.188335 46.632153 
L 290.341293 45.875476 
L 290.914514 45.718604 
L 292.383299 45.423315 
L 298.211455 45.035749 
L 298.311599 45.017293 
L 303.882434 44.574361 
L 304.128932 44.53745 
L 309.946893 43.993011 
L 345.745278 42.959501 
L 359.617851 42.931818 
L 359.617851 42.931818 
" style="fill:none;stroke:#ff5500;stroke-dasharray:7.4,3.2;stroke-dashoffset:0;stroke-width:2;"/>
   </g>
   <g id="line2d_66">
    <path clip-path="url(#p5bfd6e1887)" d="M 208.988669 231.568182 
L 219.680789 231.362104 
L 220.051145 231.30715 
L 224.530352 231.176635 
L 251.633025 231.004904 
L 252.070222 230.984296 
L 254.475816 230.85378 
L 254.870685 230.819434 
L 258.152929 230.503449 
L 258.174652 230.496579 
L 270.138025 230.256156 
L 283.394516 230.139379 
L 283.471345 230.098163 
L 285.241938 229.644793 
L 285.362436 229.624185 
L 285.905458 229.466193 
L 288.481631 229.198292 
L 288.541084 229.170815 
L 289.670096 229.047169 
L 290.101886 229.019692 
L 291.446541 228.85483 
L 292.242882 228.793006 
L 307.502461 227.927481 
L 307.928517 227.810704 
L 308.793054 227.632104 
L 309.608365 227.412288 
L 311.850254 226.903964 
L 312.706896 226.75284 
L 313.020764 226.691017 
L 314.360446 226.354424 
L 314.491465 226.292601 
L 318.101447 225.585069 
L 318.21411 225.530115 
L 319.439896 225.035529 
L 319.945281 224.705805 
L 320.679901 224.039488 
L 320.858056 223.888365 
L 322.484517 222.226007 
L 323.559464 221.83446 
L 324.009208 221.662729 
L 324.595298 221.490998 
L 325.279847 221.312398 
L 325.490312 221.209359 
L 325.978894 221.01702 
L 326.147628 220.92772 
L 326.55223 220.74225 
L 326.72421 220.65295 
L 327.050999 220.508696 
L 327.488218 220.240795 
L 327.619397 220.158364 
L 327.921554 220.020979 
L 328.18489 219.876725 
L 328.316529 219.753079 
L 328.540014 219.533263 
L 328.655838 219.37527 
L 328.783272 219.19667 
L 328.910616 219.031808 
L 328.992817 218.880685 
L 329.238199 218.317406 
L 329.38075 218.186891 
L 329.551466 217.960206 
L 329.692668 217.719782 
L 331.091119 214.333244 
L 331.229591 213.90735 
L 331.300066 213.708142 
L 332.182866 210.307866 
L 332.415333 209.195048 
L 332.659727 208.219615 
L 332.842955 207.202966 
L 333.066114 206.172579 
L 333.184212 205.760425 
L 333.357253 205.094108 
L 333.451167 204.778123 
L 333.62804 204.221714 
L 333.681531 204.022505 
L 333.830077 203.466097 
L 333.996567 202.854734 
L 334.119496 202.421971 
L 334.228443 202.105986 
L 334.339475 201.721308 
L 334.426365 201.528969 
L 334.61494 200.917606 
L 334.742988 200.464236 
L 334.824408 200.175728 
L 334.981367 199.543757 
L 336.566923 193.77359 
L 336.758182 192.949281 
L 336.831995 192.633296 
L 337.042011 191.767771 
L 337.241532 191.012154 
L 337.37248 190.545045 
L 337.781305 189.143719 
L 339.071553 183.167475 
L 339.274967 182.082134 
L 339.361861 181.580679 
L 340.061989 177.843809 
L 340.17396 177.259923 
L 340.242848 176.895853 
L 340.713622 174.271801 
L 340.820486 173.729131 
L 341.0687 172.746829 
L 341.549393 171.022648 
L 341.734009 170.376939 
L 341.954256 169.793053 
L 342.138333 169.277859 
L 342.261471 168.961874 
L 342.4552 168.494765 
L 342.531927 168.350511 
L 342.661088 168.020787 
L 342.788806 167.691064 
L 342.90707 167.478117 
L 342.995899 167.285778 
L 343.315183 166.557638 
L 343.530177 165.966883 
L 343.926289 164.963973 
L 344.139434 164.462518 
L 344.255205 164.043494 
L 344.604049 162.635298 
L 344.658703 162.394875 
L 344.777486 161.756035 
L 344.919793 161.007287 
L 345.250283 159.241891 
L 345.314717 158.919036 
L 345.498191 157.998557 
L 345.546947 157.819957 
L 345.660701 157.318502 
L 345.880691 156.185077 
L 346.037457 155.278336 
L 346.213254 154.33038 
L 346.341537 153.636586 
L 346.560953 152.379514 
L 346.599379 152.221522 
L 346.773255 151.548335 
L 347.460948 149.556254 
L 348.01057 147.921374 
L 348.062792 147.742773 
L 348.211286 147.303141 
L 348.394562 146.664302 
L 348.847823 145.359145 
L 349.094525 144.562312 
L 349.252207 144.115811 
L 349.368918 143.779218 
L 349.431002 143.634964 
L 350.377356 140.248426 
L 351.028413 137.301519 
L 351.14632 136.944319 
L 351.319704 136.099401 
L 351.435027 135.591077 
L 352.862942 128.289069 
L 352.927359 128.00056 
L 353.117827 126.894612 
L 353.166648 126.585496 
L 353.485767 124.648368 
L 353.765721 122.800541 
L 353.876218 122.024316 
L 354.098511 120.657336 
L 354.47628 118.582824 
L 354.545337 118.287446 
L 354.716316 117.470006 
L 354.780777 117.140282 
L 354.920422 116.309104 
L 355.309881 114.042252 
L 355.426783 113.437759 
L 356.009346 110.23669 
L 356.138231 109.501681 
L 356.399869 107.736285 
L 356.499542 107.13866 
L 357.498995 99.266504 
L 357.77636 96.456983 
L 357.834118 96.003613 
L 358.219621 92.328566 
L 358.261256 91.937019 
L 358.479915 89.683906 
L 358.659626 87.636871 
L 359.334908 79.428122 
L 359.361781 79.153352 
L 359.54046 77.35361 
L 360.395453 69.158599 
L 360.562302 67.619888 
L 361.217572 62.509169 
L 361.455615 60.352226 
L 362.370688 55.262115 
L 362.416226 55.062907 
L 362.71814 53.531065 
L 362.94045 52.2053 
L 363.015188 51.820622 
L 363.148704 51.305429 
L 363.209358 51.126829 
L 363.339061 50.755889 
L 363.403075 50.536073 
L 363.621429 49.807933 
L 364.047887 48.502777 
L 365.953021 43.82482 
L 366.292673 43.508835 
L 366.729336 43.199719 
L 367.73107 43.034857 
L 382.789773 42.931818 
L 382.789773 42.931818 
" style="fill:none;stroke:#58b792;stroke-dasharray:7.4,3.2;stroke-dashoffset:0;stroke-width:2;"/>
   </g>
   <g id="line2d_67">
    <path clip-path="url(#p5bfd6e1887)" d="M 68.585227 231.567011 
L 70.313426 231.462495 
L 70.558181 231.374059 
L 70.841225 231.205225 
L 71.359894 230.650487 
L 72.371065 228.648605 
L 72.637576 227.957192 
L 72.788811 227.659723 
L 74.403914 222.490204 
L 74.935215 221.742513 
L 76.240491 220.407925 
L 76.574745 220.255171 
L 76.806525 220.062218 
L 78.692021 218.808027 
L 79.244422 218.566836 
L 79.54697 218.333685 
L 80.113534 217.907582 
L 80.378215 217.594034 
L 80.814223 217.232248 
L 82.223424 216.187089 
L 82.33335 216.074533 
L 82.497487 215.986097 
L 82.903941 215.769025 
L 83.27839 215.479596 
L 85.57995 214.683667 
L 85.776234 214.571112 
L 86.620181 214.321881 
L 88.104526 213.927936 
L 88.397258 213.783222 
L 89.367357 213.32496 
L 89.968741 213.011412 
L 92.142024 211.676824 
L 92.398032 211.403475 
L 92.884294 211.089927 
L 93.095776 210.905014 
L 93.305777 210.728141 
L 93.495419 210.50303 
L 93.852467 210.22164 
L 95.381949 209.047846 
L 96.153015 208.581544 
L 96.684599 208.235838 
L 96.921614 208.075044 
L 97.106535 207.954449 
L 97.390097 207.801694 
L 99.705556 206.780654 
L 100.07213 206.652019 
L 100.223556 206.587702 
L 100.688174 206.434948 
L 100.895665 206.346511 
L 101.538584 206.1214 
L 101.826324 206.065122 
L 102.111329 205.928447 
L 102.29514 205.880209 
L 103.456424 205.309391 
L 103.766705 205.172717 
L 103.88725 205.100359 
L 104.27241 204.931526 
L 105.715134 204.384827 
L 105.978083 204.199914 
L 106.312807 204.015002 
L 106.472648 203.910486 
L 106.789794 203.693414 
L 107.885812 203.074358 
L 108.269386 202.921604 
L 109.369256 202.431183 
L 109.52472 202.326667 
L 112.616029 201.321706 
L 113.472865 201.080516 
L 113.579477 201.024238 
L 114.173395 200.847365 
L 114.437807 200.726769 
L 114.968976 200.598134 
L 115.272247 200.477539 
L 117.947265 199.17511 
L 118.213702 199.030395 
L 118.584418 198.813324 
L 119.039442 198.588212 
L 119.439959 198.330942 
L 119.740814 198.178188 
L 120.372207 197.856601 
L 120.549094 197.744045 
L 120.778259 197.62345 
L 121.208905 197.446577 
L 121.388395 197.374219 
L 126.785137 196.513973 
L 131.228448 196.07179 
L 133.873921 195.862758 
L 134.487117 195.830599 
L 140.388724 195.541171 
L 142.968825 195.139186 
L 143.178644 195.090948 
L 144.418005 194.825638 
L 145.287315 194.600527 
L 145.521605 194.479932 
L 145.912454 194.295019 
L 146.256009 194.206582 
L 146.711249 194.02167 
L 147.238493 193.724201 
L 147.564153 193.515169 
L 147.91403 193.378495 
L 148.40255 193.056907 
L 148.568657 192.896113 
L 149.117766 192.510208 
L 149.447148 192.236859 
L 149.726623 192.059986 
L 149.859621 191.923311 
L 150.035083 191.722319 
L 150.18385 191.513287 
L 150.368777 191.288176 
L 150.49049 191.135422 
L 150.651072 190.982668 
L 150.855481 190.813834 
L 151.375578 190.226937 
L 151.564224 190.066143 
L 152.445092 188.948627 
L 152.619255 188.755674 
L 153.065844 188.144658 
L 153.305961 187.758753 
L 154.379442 185.77295 
L 154.550155 185.427243 
L 154.837421 184.840346 
L 154.964217 184.663473 
L 155.305354 183.899703 
L 155.490024 183.602234 
L 155.756619 183.087694 
L 156.145103 182.211368 
L 156.503202 181.351122 
L 156.588605 181.166209 
L 156.996097 180.145169 
L 157.066502 180.008494 
L 157.220362 179.558271 
L 157.483258 178.8347 
L 157.577071 178.601549 
L 157.850134 178.014651 
L 157.951619 177.80562 
L 158.443125 176.680063 
L 158.802792 175.73942 
L 158.903242 175.546467 
L 159.347997 174.292276 
L 159.54496 173.793815 
L 159.717805 173.295355 
L 159.80282 173.062204 
L 159.976248 172.579823 
L 160.126154 172.250195 
L 160.656073 170.618139 
L 162.29111 165.971199 
L 162.492436 165.344104 
L 162.552949 165.127032 
L 162.743146 164.443659 
L 162.952656 163.744206 
L 163.134784 163.12515 
L 163.306603 162.490014 
L 163.710996 161.211704 
L 163.859665 160.737362 
L 164.047168 160.158505 
L 164.081297 160.02183 
L 164.539159 158.470171 
L 164.657384 158.092305 
L 165.097922 156.588884 
L 165.22261 156.194939 
L 165.417262 155.39097 
L 165.482437 155.181938 
L 165.851931 153.959906 
L 165.939801 153.662437 
L 166.111418 153.08358 
L 166.398603 152.110778 
L 167.060904 149.441601 
L 167.180944 149.047657 
L 167.352059 148.45272 
L 167.81052 146.716147 
L 167.878609 146.515155 
L 168.149431 145.526273 
L 168.529471 144.143447 
L 168.59286 143.829899 
L 168.799105 143.074169 
L 168.857335 142.865137 
L 169.01917 142.326478 
L 169.057212 142.133525 
L 169.237632 141.401913 
L 169.790282 139.046285 
L 169.86735 138.813134 
L 170.017948 138.121721 
L 170.273118 137.11676 
L 170.5464 135.782172 
L 170.62588 135.484703 
L 170.880243 134.447584 
L 171.051473 133.77225 
L 171.412122 132.429622 
L 171.598517 131.553296 
L 171.803194 130.636772 
L 171.936111 130.073993 
L 172.002349 129.784565 
L 172.373596 128.257024 
L 172.51892 127.847 
L 172.662195 127.244023 
L 172.787337 126.858118 
L 172.871815 126.448094 
L 173.050711 125.611967 
L 173.125158 125.298419 
L 173.468405 123.883434 
L 173.54837 123.561846 
L 173.87259 122.259417 
L 174.913675 118.665677 
L 175.155369 117.829549 
L 176.374788 113.512237 
L 176.519785 113.037895 
L 181.188623 97.593655 
L 181.255516 97.352464 
L 181.383816 96.982639 
L 181.521606 96.588694 
L 181.651772 96.210829 
L 181.761474 95.881202 
L 183.559046 91.346818 
L 183.64798 91.137786 
L 183.801819 90.751881 
L 184.00387 90.229301 
L 184.172437 89.722801 
L 184.261404 89.48161 
L 185.299181 86.941069 
L 185.444797 86.603402 
L 186.024608 85.317052 
L 186.251715 84.786433 
L 187.070025 82.905146 
L 187.195685 82.696114 
L 187.629346 81.667034 
L 188.071345 80.73443 
L 188.20413 80.4852 
L 188.306735 80.284207 
L 188.482271 79.97066 
L 189.634872 77.88838 
L 189.774643 77.606991 
L 189.92059 77.237166 
L 190.089969 76.87538 
L 190.157002 76.730665 
L 190.65392 75.717665 
L 193.935822 70.001447 
L 194.066859 69.67182 
L 194.27153 69.39043 
L 194.692901 68.803533 
L 194.876007 68.62666 
L 195.024122 68.489985 
L 195.145402 68.36135 
L 195.380812 67.983485 
L 196.357666 66.793611 
L 196.651104 66.447905 
L 196.774439 66.287111 
L 197.131293 65.764531 
L 197.285905 65.53942 
L 197.558688 65.266071 
L 197.722811 65.065079 
L 197.870339 64.864086 
L 197.990506 64.679173 
L 200.076638 62.098434 
L 200.210901 61.9296 
L 200.693352 61.294465 
L 200.880181 61.005036 
L 201.062715 60.787965 
L 201.401226 60.40206 
L 201.501883 60.257345 
L 201.666849 60.024194 
L 201.828363 59.742805 
L 202.112471 59.437297 
L 202.386407 59.163948 
L 202.554054 58.987075 
L 202.668274 58.818241 
L 203.048017 58.416257 
L 203.16525 58.207225 
L 203.467927 57.869558 
L 203.612845 57.684645 
L 204.40299 56.80028 
L 204.579764 56.599287 
L 204.747179 56.454573 
L 205.144563 56.028469 
L 208.197903 53.471849 
L 208.481786 53.278896 
L 210.024391 52.137261 
L 210.137809 52.040784 
L 211.051022 51.244855 
L 211.514754 50.899149 
L 211.714831 50.762474 
L 212.174623 50.521283 
L 212.366771 50.384609 
L 212.657323 50.215775 
L 212.994652 49.982624 
L 213.20815 49.789672 
L 214.824546 48.712354 
L 215.242283 48.487242 
L 215.325267 48.422925 
L 215.699247 48.278211 
L 215.948228 48.141536 
L 216.544159 47.852107 
L 216.636067 47.811909 
L 217.039295 47.643075 
L 217.160283 47.594837 
L 217.601183 47.409924 
L 217.702523 47.345607 
L 218.206213 47.152654 
L 218.805931 46.871265 
L 222.040826 45.96278 
L 222.649209 45.810026 
L 223.00347 45.753749 
L 223.812523 45.584915 
L 224.436252 45.488439 
L 227.511051 44.869383 
L 228.057957 44.756827 
L 228.734814 44.579954 
L 234.111575 43.615192 
L 249.447151 43.173009 
L 288.110632 43.012215 
L 289.148229 42.988096 
L 303.683665 42.931818 
L 303.683665 42.931818 
" style="fill:none;stroke:#c70d2c;stroke-dasharray:7.4,3.2;stroke-dashoffset:0;stroke-width:2;"/>
   </g>
   <g id="patch_3">
    <path d="M 52.875 241 
L 52.875 33.5 
" style="fill:none;stroke:#000000;stroke-linecap:square;stroke-linejoin:miter;stroke-width:0.8;"/>
   </g>
   <g id="patch_4">
    <path d="M 398.5 241 
L 398.5 33.5 
" style="fill:none;stroke:#000000;stroke-linecap:square;stroke-linejoin:miter;stroke-width:0.8;"/>
   </g>
   <g id="patch_5">
    <path d="M 52.875 241 
L 398.5 241 
" style="fill:none;stroke:#000000;stroke-linecap:square;stroke-linejoin:miter;stroke-width:0.8;"/>
   </g>
   <g id="patch_6">
    <path d="M 52.875 33.5 
L 398.5 33.5 
" style="fill:none;stroke:#000000;stroke-linecap:square;stroke-linejoin:miter;stroke-width:0.8;"/>
   </g>
   <g id="legend_1">
    <g id="patch_7">
     <path d="M 292.7125 236 
L 391.5 236 
Q 393.5 236 393.5 234 
L 393.5 161.609375 
Q 393.5 159.609375 391.5 159.609375 
L 292.7125 159.609375 
Q 290.7125 159.609375 290.7125 161.609375 
L 290.7125 234 
Q 290.7125 236 292.7125 236 
z
" style="fill:#ffffff;opacity:0.8;stroke:#cccccc;stroke-linejoin:miter;"/>
    </g>
    <g id="line2d_68">
     <path d="M 294.7125 167.707813 
L 314.7125 167.707813 
" style="fill:none;stroke:#00aff0;stroke-dasharray:7.4,3.2;stroke-dashoffset:0;stroke-width:2;"/>
    </g>
    <g id="line2d_69"/>
    <g id="text_14">
     <!-- Ghostery -->
     <defs>
      <path d="M 59.515625 10.40625 
L 59.515625 29.984375 
L 43.40625 29.984375 
L 43.40625 38.09375 
L 69.28125 38.09375 
L 69.28125 6.78125 
Q 63.578125 2.734375 56.6875 0.65625 
Q 49.8125 -1.421875 42 -1.421875 
Q 24.90625 -1.421875 15.25 8.5625 
Q 5.609375 18.5625 5.609375 36.375 
Q 5.609375 54.25 15.25 64.234375 
Q 24.90625 74.21875 42 74.21875 
Q 49.125 74.21875 55.546875 72.453125 
Q 61.96875 70.703125 67.390625 67.28125 
L 67.390625 56.78125 
Q 61.921875 61.421875 55.765625 63.765625 
Q 49.609375 66.109375 42.828125 66.109375 
Q 29.4375 66.109375 22.71875 58.640625 
Q 16.015625 51.171875 16.015625 36.375 
Q 16.015625 21.625 22.71875 14.15625 
Q 29.4375 6.6875 42.828125 6.6875 
Q 48.046875 6.6875 52.140625 7.59375 
Q 56.25 8.5 59.515625 10.40625 
z
" id="DejaVuSans-71"/>
      <path d="M 54.890625 33.015625 
L 54.890625 0 
L 45.90625 0 
L 45.90625 32.71875 
Q 45.90625 40.484375 42.875 44.328125 
Q 39.84375 48.1875 33.796875 48.1875 
Q 26.515625 48.1875 22.3125 43.546875 
Q 18.109375 38.921875 18.109375 30.90625 
L 18.109375 0 
L 9.078125 0 
L 9.078125 75.984375 
L 18.109375 75.984375 
L 18.109375 46.1875 
Q 21.34375 51.125 25.703125 53.5625 
Q 30.078125 56 35.796875 56 
Q 45.21875 56 50.046875 50.171875 
Q 54.890625 44.34375 54.890625 33.015625 
z
" id="DejaVuSans-104"/>
      <path d="M 32.171875 -5.078125 
Q 28.375 -14.84375 24.75 -17.8125 
Q 21.140625 -20.796875 15.09375 -20.796875 
L 7.90625 -20.796875 
L 7.90625 -13.28125 
L 13.1875 -13.28125 
Q 16.890625 -13.28125 18.9375 -11.515625 
Q 21 -9.765625 23.484375 -3.21875 
L 25.09375 0.875 
L 2.984375 54.6875 
L 12.5 54.6875 
L 29.59375 11.921875 
L 46.6875 54.6875 
L 56.203125 54.6875 
z
" id="DejaVuSans-121"/>
     </defs>
     <g transform="translate(322.7125 171.207813)scale(0.1 -0.1)">
      <use xlink:href="#DejaVuSans-71"/>
      <use x="77.490234" xlink:href="#DejaVuSans-104"/>
      <use x="140.869141" xlink:href="#DejaVuSans-111"/>
      <use x="202.050781" xlink:href="#DejaVuSans-115"/>
      <use x="254.150391" xlink:href="#DejaVuSans-116"/>
      <use x="293.359375" xlink:href="#DejaVuSans-101"/>
      <use x="354.882812" xlink:href="#DejaVuSans-114"/>
      <use x="395.996094" xlink:href="#DejaVuSans-121"/>
     </g>
    </g>
    <g id="line2d_70">
     <path d="M 294.7125 182.385938 
L 314.7125 182.385938 
" style="fill:none;stroke:#800000;stroke-dasharray:7.4,3.2;stroke-dashoffset:0;stroke-width:2;"/>
    </g>
    <g id="line2d_71"/>
    <g id="text_15">
     <!-- uBlock Origin -->
     <defs>
      <path d="M 19.671875 34.8125 
L 19.671875 8.109375 
L 35.5 8.109375 
Q 43.453125 8.109375 47.28125 11.40625 
Q 51.125 14.703125 51.125 21.484375 
Q 51.125 28.328125 47.28125 31.5625 
Q 43.453125 34.8125 35.5 34.8125 
z
M 19.671875 64.796875 
L 19.671875 42.828125 
L 34.28125 42.828125 
Q 41.5 42.828125 45.03125 45.53125 
Q 48.578125 48.25 48.578125 53.8125 
Q 48.578125 59.328125 45.03125 62.0625 
Q 41.5 64.796875 34.28125 64.796875 
z
M 9.8125 72.90625 
L 35.015625 72.90625 
Q 46.296875 72.90625 52.390625 68.21875 
Q 58.5 63.53125 58.5 54.890625 
Q 58.5 48.1875 55.375 44.234375 
Q 52.25 40.28125 46.1875 39.3125 
Q 53.46875 37.75 57.5 32.78125 
Q 61.53125 27.828125 61.53125 20.40625 
Q 61.53125 10.640625 54.890625 5.3125 
Q 48.25 0 35.984375 0 
L 9.8125 0 
z
" id="DejaVuSans-66"/>
      <path d="M 9.078125 75.984375 
L 18.109375 75.984375 
L 18.109375 31.109375 
L 44.921875 54.6875 
L 56.390625 54.6875 
L 27.390625 29.109375 
L 57.625 0 
L 45.90625 0 
L 18.109375 26.703125 
L 18.109375 0 
L 9.078125 0 
z
" id="DejaVuSans-107"/>
      <path d="M 39.40625 66.21875 
Q 28.65625 66.21875 22.328125 58.203125 
Q 16.015625 50.203125 16.015625 36.375 
Q 16.015625 22.609375 22.328125 14.59375 
Q 28.65625 6.59375 39.40625 6.59375 
Q 50.140625 6.59375 56.421875 14.59375 
Q 62.703125 22.609375 62.703125 36.375 
Q 62.703125 50.203125 56.421875 58.203125 
Q 50.140625 66.21875 39.40625 66.21875 
z
M 39.40625 74.21875 
Q 54.734375 74.21875 63.90625 63.9375 
Q 73.09375 53.65625 73.09375 36.375 
Q 73.09375 19.140625 63.90625 8.859375 
Q 54.734375 -1.421875 39.40625 -1.421875 
Q 24.03125 -1.421875 14.8125 8.828125 
Q 5.609375 19.09375 5.609375 36.375 
Q 5.609375 53.65625 14.8125 63.9375 
Q 24.03125 74.21875 39.40625 74.21875 
z
" id="DejaVuSans-79"/>
     </defs>
     <g transform="translate(322.7125 185.885938)scale(0.1 -0.1)">
      <use xlink:href="#DejaVuSans-117"/>
      <use x="63.378906" xlink:href="#DejaVuSans-66"/>
      <use x="131.982422" xlink:href="#DejaVuSans-108"/>
      <use x="159.765625" xlink:href="#DejaVuSans-111"/>
      <use x="220.947266" xlink:href="#DejaVuSans-99"/>
      <use x="275.927734" xlink:href="#DejaVuSans-107"/>
      <use x="333.837891" xlink:href="#DejaVuSans-32"/>
      <use x="365.625" xlink:href="#DejaVuSans-79"/>
      <use x="444.335938" xlink:href="#DejaVuSans-114"/>
      <use x="485.449219" xlink:href="#DejaVuSans-105"/>
      <use x="513.232422" xlink:href="#DejaVuSans-103"/>
      <use x="576.708984" xlink:href="#DejaVuSans-105"/>
      <use x="604.492188" xlink:href="#DejaVuSans-110"/>
     </g>
    </g>
    <g id="line2d_72">
     <path d="M 294.7125 197.064063 
L 314.7125 197.064063 
" style="fill:none;stroke:#ff5500;stroke-dasharray:7.4,3.2;stroke-dashoffset:0;stroke-width:2;"/>
    </g>
    <g id="line2d_73"/>
    <g id="text_16">
     <!-- Brave -->
     <defs>
      <path d="M 2.984375 54.6875 
L 12.5 54.6875 
L 29.59375 8.796875 
L 46.6875 54.6875 
L 56.203125 54.6875 
L 35.6875 0 
L 23.484375 0 
z
" id="DejaVuSans-118"/>
     </defs>
     <g transform="translate(322.7125 200.564063)scale(0.1 -0.1)">
      <use xlink:href="#DejaVuSans-66"/>
      <use x="68.603516" xlink:href="#DejaVuSans-114"/>
      <use x="109.716797" xlink:href="#DejaVuSans-97"/>
      <use x="170.996094" xlink:href="#DejaVuSans-118"/>
      <use x="230.175781" xlink:href="#DejaVuSans-101"/>
     </g>
    </g>
    <g id="line2d_74">
     <path d="M 294.7125 211.742188 
L 314.7125 211.742188 
" style="fill:none;stroke:#58b792;stroke-dasharray:7.4,3.2;stroke-dashoffset:0;stroke-width:2;"/>
    </g>
    <g id="line2d_75"/>
    <g id="text_17">
     <!-- DuckDuckGo -->
     <defs>
      <path d="M 19.671875 64.796875 
L 19.671875 8.109375 
L 31.59375 8.109375 
Q 46.6875 8.109375 53.6875 14.9375 
Q 60.6875 21.78125 60.6875 36.53125 
Q 60.6875 51.171875 53.6875 57.984375 
Q 46.6875 64.796875 31.59375 64.796875 
z
M 9.8125 72.90625 
L 30.078125 72.90625 
Q 51.265625 72.90625 61.171875 64.09375 
Q 71.09375 55.28125 71.09375 36.53125 
Q 71.09375 17.671875 61.125 8.828125 
Q 51.171875 0 30.078125 0 
L 9.8125 0 
z
" id="DejaVuSans-68"/>
     </defs>
     <g transform="translate(322.7125 215.242188)scale(0.1 -0.1)">
      <use xlink:href="#DejaVuSans-68"/>
      <use x="77.001953" xlink:href="#DejaVuSans-117"/>
      <use x="140.380859" xlink:href="#DejaVuSans-99"/>
      <use x="195.361328" xlink:href="#DejaVuSans-107"/>
      <use x="253.271484" xlink:href="#DejaVuSans-68"/>
      <use x="330.273438" xlink:href="#DejaVuSans-117"/>
      <use x="393.652344" xlink:href="#DejaVuSans-99"/>
      <use x="448.632812" xlink:href="#DejaVuSans-107"/>
      <use x="506.542969" xlink:href="#DejaVuSans-71"/>
      <use x="584.033203" xlink:href="#DejaVuSans-111"/>
     </g>
    </g>
    <g id="line2d_76">
     <path d="M 294.7125 226.420313 
L 314.7125 226.420313 
" style="fill:none;stroke:#c70d2c;stroke-dasharray:7.4,3.2;stroke-dashoffset:0;stroke-width:2;"/>
    </g>
    <g id="line2d_77"/>
    <g id="text_18">
     <!-- AdblockPlus -->
     <defs>
      <path d="M 34.1875 63.1875 
L 20.796875 26.90625 
L 47.609375 26.90625 
z
M 28.609375 72.90625 
L 39.796875 72.90625 
L 67.578125 0 
L 57.328125 0 
L 50.6875 18.703125 
L 17.828125 18.703125 
L 11.1875 0 
L 0.78125 0 
z
" id="DejaVuSans-65"/>
      <path d="M 45.40625 46.390625 
L 45.40625 75.984375 
L 54.390625 75.984375 
L 54.390625 0 
L 45.40625 0 
L 45.40625 8.203125 
Q 42.578125 3.328125 38.25 0.953125 
Q 33.9375 -1.421875 27.875 -1.421875 
Q 17.96875 -1.421875 11.734375 6.484375 
Q 5.515625 14.40625 5.515625 27.296875 
Q 5.515625 40.1875 11.734375 48.09375 
Q 17.96875 56 27.875 56 
Q 33.9375 56 38.25 53.625 
Q 42.578125 51.265625 45.40625 46.390625 
z
M 14.796875 27.296875 
Q 14.796875 17.390625 18.875 11.75 
Q 22.953125 6.109375 30.078125 6.109375 
Q 37.203125 6.109375 41.296875 11.75 
Q 45.40625 17.390625 45.40625 27.296875 
Q 45.40625 37.203125 41.296875 42.84375 
Q 37.203125 48.484375 30.078125 48.484375 
Q 22.953125 48.484375 18.875 42.84375 
Q 14.796875 37.203125 14.796875 27.296875 
z
" id="DejaVuSans-100"/>
      <path d="M 19.671875 64.796875 
L 19.671875 37.40625 
L 32.078125 37.40625 
Q 38.96875 37.40625 42.71875 40.96875 
Q 46.484375 44.53125 46.484375 51.125 
Q 46.484375 57.671875 42.71875 61.234375 
Q 38.96875 64.796875 32.078125 64.796875 
z
M 9.8125 72.90625 
L 32.078125 72.90625 
Q 44.34375 72.90625 50.609375 67.359375 
Q 56.890625 61.8125 56.890625 51.125 
Q 56.890625 40.328125 50.609375 34.8125 
Q 44.34375 29.296875 32.078125 29.296875 
L 19.671875 29.296875 
L 19.671875 0 
L 9.8125 0 
z
" id="DejaVuSans-80"/>
     </defs>
     <g transform="translate(322.7125 229.920313)scale(0.1 -0.1)">
      <use xlink:href="#DejaVuSans-65"/>
      <use x="68.392578" xlink:href="#DejaVuSans-100"/>
      <use x="131.869141" xlink:href="#DejaVuSans-98"/>
      <use x="195.345703" xlink:href="#DejaVuSans-108"/>
      <use x="223.128906" xlink:href="#DejaVuSans-111"/>
      <use x="284.310547" xlink:href="#DejaVuSans-99"/>
      <use x="339.291016" xlink:href="#DejaVuSans-107"/>
      <use x="397.201172" xlink:href="#DejaVuSans-80"/>
      <use x="457.503906" xlink:href="#DejaVuSans-108"/>
      <use x="485.287109" xlink:href="#DejaVuSans-117"/>
      <use x="548.666016" xlink:href="#DejaVuSans-115"/>
     </g>
    </g>
   </g>
  </g>
 </g>
 <defs>
  <clipPath id="p5bfd6e1887">
   <rect height="207.5" width="345.625" x="52.875" y="33.5"/>
  </clipPath>
 </defs>
</svg>
