<?xml version="1.0" encoding="utf-8" standalone="no"?>
<!DOCTYPE svg PUBLIC "-//W3C//DTD SVG 1.1//EN"
  "http://www.w3.org/Graphics/SVG/1.1/DTD/svg11.dtd">
<!-- Created with matplotlib (https://matplotlib.org/) -->
<svg height="288pt" version="1.1" viewBox="0 0 432 288" width="432pt" xmlns="http://www.w3.org/2000/svg" xmlns:xlink="http://www.w3.org/1999/xlink">
 <defs>
  <style type="text/css">
*{stroke-linecap:butt;stroke-linejoin:round;}
  </style>
 </defs>
 <g id="figure_1">
  <g id="patch_1">
   <path d="M 0 288 
L 432 288 
L 432 0 
L 0 0 
z
" style="fill:#ffffff;"/>
  </g>
  <g id="axes_1">
   <g id="patch_2">
    <path d="M 52.875 241 
L 398.5 241 
L 398.5 33.5 
L 52.875 33.5 
z
" style="fill:#ffffff;"/>
   </g>
   <g id="matplotlib.axis_1">
    <g id="xtick_1">
     <g id="line2d_1">
      <path clip-path="url(#p72887df936)" d="M 87.295849 241 
L 87.295849 33.5 
" style="fill:none;stroke:#b0b0b0;stroke-dasharray:3.7,1.6;stroke-dashoffset:0;"/>
     </g>
     <g id="line2d_2">
      <defs>
       <path d="M 0 0 
L 0 3.5 
" id="m19cb60fbaa" style="stroke:#000000;stroke-width:0.8;"/>
      </defs>
      <g>
       <use style="stroke:#000000;stroke-width:0.8;" x="87.295849" xlink:href="#m19cb60fbaa" y="241"/>
      </g>
     </g>
     <g id="text_1">
      <!-- $\mathdefault{10^{-3}}$ -->
      <defs>
       <path d="M 12.40625 8.296875 
L 28.515625 8.296875 
L 28.515625 63.921875 
L 10.984375 60.40625 
L 10.984375 69.390625 
L 28.421875 72.90625 
L 38.28125 72.90625 
L 38.28125 8.296875 
L 54.390625 8.296875 
L 54.390625 0 
L 12.40625 0 
z
" id="DejaVuSans-49"/>
       <path d="M 31.78125 66.40625 
Q 24.171875 66.40625 20.328125 58.90625 
Q 16.5 51.421875 16.5 36.375 
Q 16.5 21.390625 20.328125 13.890625 
Q 24.171875 6.390625 31.78125 6.390625 
Q 39.453125 6.390625 43.28125 13.890625 
Q 47.125 21.390625 47.125 36.375 
Q 47.125 51.421875 43.28125 58.90625 
Q 39.453125 66.40625 31.78125 66.40625 
z
M 31.78125 74.21875 
Q 44.046875 74.21875 50.515625 64.515625 
Q 56.984375 54.828125 56.984375 36.375 
Q 56.984375 17.96875 50.515625 8.265625 
Q 44.046875 -1.421875 31.78125 -1.421875 
Q 19.53125 -1.421875 13.0625 8.265625 
Q 6.59375 17.96875 6.59375 36.375 
Q 6.59375 54.828125 13.0625 64.515625 
Q 19.53125 74.21875 31.78125 74.21875 
z
" id="DejaVuSans-48"/>
       <path d="M 10.59375 35.5 
L 73.1875 35.5 
L 73.1875 27.203125 
L 10.59375 27.203125 
z
" id="DejaVuSans-8722"/>
       <path d="M 40.578125 39.3125 
Q 47.65625 37.796875 51.625 33 
Q 55.609375 28.21875 55.609375 21.1875 
Q 55.609375 10.40625 48.1875 4.484375 
Q 40.765625 -1.421875 27.09375 -1.421875 
Q 22.515625 -1.421875 17.65625 -0.515625 
Q 12.796875 0.390625 7.625 2.203125 
L 7.625 11.71875 
Q 11.71875 9.328125 16.59375 8.109375 
Q 21.484375 6.890625 26.8125 6.890625 
Q 36.078125 6.890625 40.9375 10.546875 
Q 45.796875 14.203125 45.796875 21.1875 
Q 45.796875 27.640625 41.28125 31.265625 
Q 36.765625 34.90625 28.71875 34.90625 
L 20.21875 34.90625 
L 20.21875 43.015625 
L 29.109375 43.015625 
Q 36.375 43.015625 40.234375 45.921875 
Q 44.09375 48.828125 44.09375 54.296875 
Q 44.09375 59.90625 40.109375 62.90625 
Q 36.140625 65.921875 28.71875 65.921875 
Q 24.65625 65.921875 20.015625 65.03125 
Q 15.375 64.15625 9.8125 62.3125 
L 9.8125 71.09375 
Q 15.4375 72.65625 20.34375 73.4375 
Q 25.25 74.21875 29.59375 74.21875 
Q 40.828125 74.21875 47.359375 69.109375 
Q 53.90625 64.015625 53.90625 55.328125 
Q 53.90625 49.265625 50.4375 45.09375 
Q 46.96875 40.921875 40.578125 39.3125 
z
" id="DejaVuSans-51"/>
      </defs>
      <g transform="translate(75.545849 255.598438)scale(0.1 -0.1)">
       <use transform="translate(0 0.765625)" xlink:href="#DejaVuSans-49"/>
       <use transform="translate(63.623047 0.765625)" xlink:href="#DejaVuSans-48"/>
       <use transform="translate(128.203125 39.046875)scale(0.7)" xlink:href="#DejaVuSans-8722"/>
       <use transform="translate(186.855469 39.046875)scale(0.7)" xlink:href="#DejaVuSans-51"/>
      </g>
     </g>
    </g>
    <g id="xtick_2">
     <g id="line2d_3">
      <path clip-path="url(#p72887df936)" d="M 148.037738 241 
L 148.037738 33.5 
" style="fill:none;stroke:#b0b0b0;stroke-dasharray:3.7,1.6;stroke-dashoffset:0;"/>
     </g>
     <g id="line2d_4">
      <g>
       <use style="stroke:#000000;stroke-width:0.8;" x="148.037738" xlink:href="#m19cb60fbaa" y="241"/>
      </g>
     </g>
     <g id="text_2">
      <!-- $\mathdefault{10^{-2}}$ -->
      <defs>
       <path d="M 19.1875 8.296875 
L 53.609375 8.296875 
L 53.609375 0 
L 7.328125 0 
L 7.328125 8.296875 
Q 12.9375 14.109375 22.625 23.890625 
Q 32.328125 33.6875 34.8125 36.53125 
Q 39.546875 41.84375 41.421875 45.53125 
Q 43.3125 49.21875 43.3125 52.78125 
Q 43.3125 58.59375 39.234375 62.25 
Q 35.15625 65.921875 28.609375 65.921875 
Q 23.96875 65.921875 18.8125 64.3125 
Q 13.671875 62.703125 7.8125 59.421875 
L 7.8125 69.390625 
Q 13.765625 71.78125 18.9375 73 
Q 24.125 74.21875 28.421875 74.21875 
Q 39.75 74.21875 46.484375 68.546875 
Q 53.21875 62.890625 53.21875 53.421875 
Q 53.21875 48.921875 51.53125 44.890625 
Q 49.859375 40.875 45.40625 35.40625 
Q 44.1875 33.984375 37.640625 27.21875 
Q 31.109375 20.453125 19.1875 8.296875 
z
" id="DejaVuSans-50"/>
      </defs>
      <g transform="translate(136.287738 255.598438)scale(0.1 -0.1)">
       <use transform="translate(0 0.765625)" xlink:href="#DejaVuSans-49"/>
       <use transform="translate(63.623047 0.765625)" xlink:href="#DejaVuSans-48"/>
       <use transform="translate(128.203125 39.046875)scale(0.7)" xlink:href="#DejaVuSans-8722"/>
       <use transform="translate(186.855469 39.046875)scale(0.7)" xlink:href="#DejaVuSans-50"/>
      </g>
     </g>
    </g>
    <g id="xtick_3">
     <g id="line2d_5">
      <path clip-path="url(#p72887df936)" d="M 208.779628 241 
L 208.779628 33.5 
" style="fill:none;stroke:#b0b0b0;stroke-dasharray:3.7,1.6;stroke-dashoffset:0;"/>
     </g>
     <g id="line2d_6">
      <g>
       <use style="stroke:#000000;stroke-width:0.8;" x="208.779628" xlink:href="#m19cb60fbaa" y="241"/>
      </g>
     </g>
     <g id="text_3">
      <!-- $\mathdefault{10^{-1}}$ -->
      <g transform="translate(197.029628 255.598438)scale(0.1 -0.1)">
       <use transform="translate(0 0.684375)" xlink:href="#DejaVuSans-49"/>
       <use transform="translate(63.623047 0.684375)" xlink:href="#DejaVuSans-48"/>
       <use transform="translate(128.203125 38.965625)scale(0.7)" xlink:href="#DejaVuSans-8722"/>
       <use transform="translate(186.855469 38.965625)scale(0.7)" xlink:href="#DejaVuSans-49"/>
      </g>
     </g>
    </g>
    <g id="xtick_4">
     <g id="line2d_7">
      <path clip-path="url(#p72887df936)" d="M 269.521517 241 
L 269.521517 33.5 
" style="fill:none;stroke:#b0b0b0;stroke-dasharray:3.7,1.6;stroke-dashoffset:0;"/>
     </g>
     <g id="line2d_8">
      <g>
       <use style="stroke:#000000;stroke-width:0.8;" x="269.521517" xlink:href="#m19cb60fbaa" y="241"/>
      </g>
     </g>
     <g id="text_4">
      <!-- $\mathdefault{10^{0}}$ -->
      <g transform="translate(260.721517 255.598438)scale(0.1 -0.1)">
       <use transform="translate(0 0.765625)" xlink:href="#DejaVuSans-49"/>
       <use transform="translate(63.623047 0.765625)" xlink:href="#DejaVuSans-48"/>
       <use transform="translate(128.203125 39.046875)scale(0.7)" xlink:href="#DejaVuSans-48"/>
      </g>
     </g>
    </g>
    <g id="xtick_5">
     <g id="line2d_9">
      <path clip-path="url(#p72887df936)" d="M 330.263407 241 
L 330.263407 33.5 
" style="fill:none;stroke:#b0b0b0;stroke-dasharray:3.7,1.6;stroke-dashoffset:0;"/>
     </g>
     <g id="line2d_10">
      <g>
       <use style="stroke:#000000;stroke-width:0.8;" x="330.263407" xlink:href="#m19cb60fbaa" y="241"/>
      </g>
     </g>
     <g id="text_5">
      <!-- $\mathdefault{10^{1}}$ -->
      <g transform="translate(321.463407 255.598438)scale(0.1 -0.1)">
       <use transform="translate(0 0.684375)" xlink:href="#DejaVuSans-49"/>
       <use transform="translate(63.623047 0.684375)" xlink:href="#DejaVuSans-48"/>
       <use transform="translate(128.203125 38.965625)scale(0.7)" xlink:href="#DejaVuSans-49"/>
      </g>
     </g>
    </g>
    <g id="xtick_6">
     <g id="line2d_11">
      <path clip-path="url(#p72887df936)" d="M 391.005297 241 
L 391.005297 33.5 
" style="fill:none;stroke:#b0b0b0;stroke-dasharray:3.7,1.6;stroke-dashoffset:0;"/>
     </g>
     <g id="line2d_12">
      <g>
       <use style="stroke:#000000;stroke-width:0.8;" x="391.005297" xlink:href="#m19cb60fbaa" y="241"/>
      </g>
     </g>
     <g id="text_6">
      <!-- $\mathdefault{10^{2}}$ -->
      <g transform="translate(382.205297 255.598438)scale(0.1 -0.1)">
       <use transform="translate(0 0.765625)" xlink:href="#DejaVuSans-49"/>
       <use transform="translate(63.623047 0.765625)" xlink:href="#DejaVuSans-48"/>
       <use transform="translate(128.203125 39.046875)scale(0.7)" xlink:href="#DejaVuSans-50"/>
      </g>
     </g>
    </g>
    <g id="xtick_7">
     <g id="line2d_13">
      <defs>
       <path d="M 0 0 
L 0 2 
" id="maadcd8e09c" style="stroke:#000000;stroke-width:0.6;"/>
      </defs>
      <g>
       <use style="stroke:#000000;stroke-width:0.6;" x="55.535206" xlink:href="#maadcd8e09c" y="241"/>
      </g>
     </g>
    </g>
    <g id="xtick_8">
     <g id="line2d_14">
      <g>
       <use style="stroke:#000000;stroke-width:0.6;" x="63.124221" xlink:href="#maadcd8e09c" y="241"/>
      </g>
     </g>
    </g>
    <g id="xtick_9">
     <g id="line2d_15">
      <g>
       <use style="stroke:#000000;stroke-width:0.6;" x="69.010718" xlink:href="#maadcd8e09c" y="241"/>
      </g>
     </g>
    </g>
    <g id="xtick_10">
     <g id="line2d_16">
      <g>
       <use style="stroke:#000000;stroke-width:0.6;" x="73.820337" xlink:href="#maadcd8e09c" y="241"/>
      </g>
     </g>
    </g>
    <g id="xtick_11">
     <g id="line2d_17">
      <g>
       <use style="stroke:#000000;stroke-width:0.6;" x="77.886811" xlink:href="#maadcd8e09c" y="241"/>
      </g>
     </g>
    </g>
    <g id="xtick_12">
     <g id="line2d_18">
      <g>
       <use style="stroke:#000000;stroke-width:0.6;" x="81.409352" xlink:href="#maadcd8e09c" y="241"/>
      </g>
     </g>
    </g>
    <g id="xtick_13">
     <g id="line2d_19">
      <g>
       <use style="stroke:#000000;stroke-width:0.6;" x="84.516453" xlink:href="#maadcd8e09c" y="241"/>
      </g>
     </g>
    </g>
    <g id="xtick_14">
     <g id="line2d_20">
      <g>
       <use style="stroke:#000000;stroke-width:0.6;" x="105.58098" xlink:href="#maadcd8e09c" y="241"/>
      </g>
     </g>
    </g>
    <g id="xtick_15">
     <g id="line2d_21">
      <g>
       <use style="stroke:#000000;stroke-width:0.6;" x="116.277096" xlink:href="#maadcd8e09c" y="241"/>
      </g>
     </g>
    </g>
    <g id="xtick_16">
     <g id="line2d_22">
      <g>
       <use style="stroke:#000000;stroke-width:0.6;" x="123.86611" xlink:href="#maadcd8e09c" y="241"/>
      </g>
     </g>
    </g>
    <g id="xtick_17">
     <g id="line2d_23">
      <g>
       <use style="stroke:#000000;stroke-width:0.6;" x="129.752608" xlink:href="#maadcd8e09c" y="241"/>
      </g>
     </g>
    </g>
    <g id="xtick_18">
     <g id="line2d_24">
      <g>
       <use style="stroke:#000000;stroke-width:0.6;" x="134.562226" xlink:href="#maadcd8e09c" y="241"/>
      </g>
     </g>
    </g>
    <g id="xtick_19">
     <g id="line2d_25">
      <g>
       <use style="stroke:#000000;stroke-width:0.6;" x="138.628701" xlink:href="#maadcd8e09c" y="241"/>
      </g>
     </g>
    </g>
    <g id="xtick_20">
     <g id="line2d_26">
      <g>
       <use style="stroke:#000000;stroke-width:0.6;" x="142.151241" xlink:href="#maadcd8e09c" y="241"/>
      </g>
     </g>
    </g>
    <g id="xtick_21">
     <g id="line2d_27">
      <g>
       <use style="stroke:#000000;stroke-width:0.6;" x="145.258342" xlink:href="#maadcd8e09c" y="241"/>
      </g>
     </g>
    </g>
    <g id="xtick_22">
     <g id="line2d_28">
      <g>
       <use style="stroke:#000000;stroke-width:0.6;" x="166.322869" xlink:href="#maadcd8e09c" y="241"/>
      </g>
     </g>
    </g>
    <g id="xtick_23">
     <g id="line2d_29">
      <g>
       <use style="stroke:#000000;stroke-width:0.6;" x="177.018985" xlink:href="#maadcd8e09c" y="241"/>
      </g>
     </g>
    </g>
    <g id="xtick_24">
     <g id="line2d_30">
      <g>
       <use style="stroke:#000000;stroke-width:0.6;" x="184.608" xlink:href="#maadcd8e09c" y="241"/>
      </g>
     </g>
    </g>
    <g id="xtick_25">
     <g id="line2d_31">
      <g>
       <use style="stroke:#000000;stroke-width:0.6;" x="190.494497" xlink:href="#maadcd8e09c" y="241"/>
      </g>
     </g>
    </g>
    <g id="xtick_26">
     <g id="line2d_32">
      <g>
       <use style="stroke:#000000;stroke-width:0.6;" x="195.304116" xlink:href="#maadcd8e09c" y="241"/>
      </g>
     </g>
    </g>
    <g id="xtick_27">
     <g id="line2d_33">
      <g>
       <use style="stroke:#000000;stroke-width:0.6;" x="199.37059" xlink:href="#maadcd8e09c" y="241"/>
      </g>
     </g>
    </g>
    <g id="xtick_28">
     <g id="line2d_34">
      <g>
       <use style="stroke:#000000;stroke-width:0.6;" x="202.893131" xlink:href="#maadcd8e09c" y="241"/>
      </g>
     </g>
    </g>
    <g id="xtick_29">
     <g id="line2d_35">
      <g>
       <use style="stroke:#000000;stroke-width:0.6;" x="206.000232" xlink:href="#maadcd8e09c" y="241"/>
      </g>
     </g>
    </g>
    <g id="xtick_30">
     <g id="line2d_36">
      <g>
       <use style="stroke:#000000;stroke-width:0.6;" x="227.064759" xlink:href="#maadcd8e09c" y="241"/>
      </g>
     </g>
    </g>
    <g id="xtick_31">
     <g id="line2d_37">
      <g>
       <use style="stroke:#000000;stroke-width:0.6;" x="237.760875" xlink:href="#maadcd8e09c" y="241"/>
      </g>
     </g>
    </g>
    <g id="xtick_32">
     <g id="line2d_38">
      <g>
       <use style="stroke:#000000;stroke-width:0.6;" x="245.349889" xlink:href="#maadcd8e09c" y="241"/>
      </g>
     </g>
    </g>
    <g id="xtick_33">
     <g id="line2d_39">
      <g>
       <use style="stroke:#000000;stroke-width:0.6;" x="251.236387" xlink:href="#maadcd8e09c" y="241"/>
      </g>
     </g>
    </g>
    <g id="xtick_34">
     <g id="line2d_40">
      <g>
       <use style="stroke:#000000;stroke-width:0.6;" x="256.046005" xlink:href="#maadcd8e09c" y="241"/>
      </g>
     </g>
    </g>
    <g id="xtick_35">
     <g id="line2d_41">
      <g>
       <use style="stroke:#000000;stroke-width:0.6;" x="260.11248" xlink:href="#maadcd8e09c" y="241"/>
      </g>
     </g>
    </g>
    <g id="xtick_36">
     <g id="line2d_42">
      <g>
       <use style="stroke:#000000;stroke-width:0.6;" x="263.63502" xlink:href="#maadcd8e09c" y="241"/>
      </g>
     </g>
    </g>
    <g id="xtick_37">
     <g id="line2d_43">
      <g>
       <use style="stroke:#000000;stroke-width:0.6;" x="266.742121" xlink:href="#maadcd8e09c" y="241"/>
      </g>
     </g>
    </g>
    <g id="xtick_38">
     <g id="line2d_44">
      <g>
       <use style="stroke:#000000;stroke-width:0.6;" x="287.806648" xlink:href="#maadcd8e09c" y="241"/>
      </g>
     </g>
    </g>
    <g id="xtick_39">
     <g id="line2d_45">
      <g>
       <use style="stroke:#000000;stroke-width:0.6;" x="298.502764" xlink:href="#maadcd8e09c" y="241"/>
      </g>
     </g>
    </g>
    <g id="xtick_40">
     <g id="line2d_46">
      <g>
       <use style="stroke:#000000;stroke-width:0.6;" x="306.091779" xlink:href="#maadcd8e09c" y="241"/>
      </g>
     </g>
    </g>
    <g id="xtick_41">
     <g id="line2d_47">
      <g>
       <use style="stroke:#000000;stroke-width:0.6;" x="311.978276" xlink:href="#maadcd8e09c" y="241"/>
      </g>
     </g>
    </g>
    <g id="xtick_42">
     <g id="line2d_48">
      <g>
       <use style="stroke:#000000;stroke-width:0.6;" x="316.787895" xlink:href="#maadcd8e09c" y="241"/>
      </g>
     </g>
    </g>
    <g id="xtick_43">
     <g id="line2d_49">
      <g>
       <use style="stroke:#000000;stroke-width:0.6;" x="320.854369" xlink:href="#maadcd8e09c" y="241"/>
      </g>
     </g>
    </g>
    <g id="xtick_44">
     <g id="line2d_50">
      <g>
       <use style="stroke:#000000;stroke-width:0.6;" x="324.37691" xlink:href="#maadcd8e09c" y="241"/>
      </g>
     </g>
    </g>
    <g id="xtick_45">
     <g id="line2d_51">
      <g>
       <use style="stroke:#000000;stroke-width:0.6;" x="327.484011" xlink:href="#maadcd8e09c" y="241"/>
      </g>
     </g>
    </g>
    <g id="xtick_46">
     <g id="line2d_52">
      <g>
       <use style="stroke:#000000;stroke-width:0.6;" x="348.548538" xlink:href="#maadcd8e09c" y="241"/>
      </g>
     </g>
    </g>
    <g id="xtick_47">
     <g id="line2d_53">
      <g>
       <use style="stroke:#000000;stroke-width:0.6;" x="359.244654" xlink:href="#maadcd8e09c" y="241"/>
      </g>
     </g>
    </g>
    <g id="xtick_48">
     <g id="line2d_54">
      <g>
       <use style="stroke:#000000;stroke-width:0.6;" x="366.833668" xlink:href="#maadcd8e09c" y="241"/>
      </g>
     </g>
    </g>
    <g id="xtick_49">
     <g id="line2d_55">
      <g>
       <use style="stroke:#000000;stroke-width:0.6;" x="372.720166" xlink:href="#maadcd8e09c" y="241"/>
      </g>
     </g>
    </g>
    <g id="xtick_50">
     <g id="line2d_56">
      <g>
       <use style="stroke:#000000;stroke-width:0.6;" x="377.529784" xlink:href="#maadcd8e09c" y="241"/>
      </g>
     </g>
    </g>
    <g id="xtick_51">
     <g id="line2d_57">
      <g>
       <use style="stroke:#000000;stroke-width:0.6;" x="381.596259" xlink:href="#maadcd8e09c" y="241"/>
      </g>
     </g>
    </g>
    <g id="xtick_52">
     <g id="line2d_58">
      <g>
       <use style="stroke:#000000;stroke-width:0.6;" x="385.118799" xlink:href="#maadcd8e09c" y="241"/>
      </g>
     </g>
    </g>
    <g id="xtick_53">
     <g id="line2d_59">
      <g>
       <use style="stroke:#000000;stroke-width:0.6;" x="388.2259" xlink:href="#maadcd8e09c" y="241"/>
      </g>
     </g>
    </g>
    <g id="text_7">
     <!-- Time (ms)  -->
     <defs>
      <path d="M -0.296875 72.90625 
L 61.375 72.90625 
L 61.375 64.59375 
L 35.5 64.59375 
L 35.5 0 
L 25.59375 0 
L 25.59375 64.59375 
L -0.296875 64.59375 
z
" id="DejaVuSans-84"/>
      <path d="M 9.421875 54.6875 
L 18.40625 54.6875 
L 18.40625 0 
L 9.421875 0 
z
M 9.421875 75.984375 
L 18.40625 75.984375 
L 18.40625 64.59375 
L 9.421875 64.59375 
z
" id="DejaVuSans-105"/>
      <path d="M 52 44.1875 
Q 55.375 50.25 60.0625 53.125 
Q 64.75 56 71.09375 56 
Q 79.640625 56 84.28125 50.015625 
Q 88.921875 44.046875 88.921875 33.015625 
L 88.921875 0 
L 79.890625 0 
L 79.890625 32.71875 
Q 79.890625 40.578125 77.09375 44.375 
Q 74.3125 48.1875 68.609375 48.1875 
Q 61.625 48.1875 57.5625 43.546875 
Q 53.515625 38.921875 53.515625 30.90625 
L 53.515625 0 
L 44.484375 0 
L 44.484375 32.71875 
Q 44.484375 40.625 41.703125 44.40625 
Q 38.921875 48.1875 33.109375 48.1875 
Q 26.21875 48.1875 22.15625 43.53125 
Q 18.109375 38.875 18.109375 30.90625 
L 18.109375 0 
L 9.078125 0 
L 9.078125 54.6875 
L 18.109375 54.6875 
L 18.109375 46.1875 
Q 21.1875 51.21875 25.484375 53.609375 
Q 29.78125 56 35.6875 56 
Q 41.65625 56 45.828125 52.96875 
Q 50 49.953125 52 44.1875 
z
" id="DejaVuSans-109"/>
      <path d="M 56.203125 29.59375 
L 56.203125 25.203125 
L 14.890625 25.203125 
Q 15.484375 15.921875 20.484375 11.0625 
Q 25.484375 6.203125 34.421875 6.203125 
Q 39.59375 6.203125 44.453125 7.46875 
Q 49.3125 8.734375 54.109375 11.28125 
L 54.109375 2.78125 
Q 49.265625 0.734375 44.1875 -0.34375 
Q 39.109375 -1.421875 33.890625 -1.421875 
Q 20.796875 -1.421875 13.15625 6.1875 
Q 5.515625 13.8125 5.515625 26.8125 
Q 5.515625 40.234375 12.765625 48.109375 
Q 20.015625 56 32.328125 56 
Q 43.359375 56 49.78125 48.890625 
Q 56.203125 41.796875 56.203125 29.59375 
z
M 47.21875 32.234375 
Q 47.125 39.59375 43.09375 43.984375 
Q 39.0625 48.390625 32.421875 48.390625 
Q 24.90625 48.390625 20.390625 44.140625 
Q 15.875 39.890625 15.1875 32.171875 
z
" id="DejaVuSans-101"/>
      <path id="DejaVuSans-32"/>
      <path d="M 31 75.875 
Q 24.46875 64.65625 21.28125 53.65625 
Q 18.109375 42.671875 18.109375 31.390625 
Q 18.109375 20.125 21.3125 9.0625 
Q 24.515625 -2 31 -13.1875 
L 23.1875 -13.1875 
Q 15.875 -1.703125 12.234375 9.375 
Q 8.59375 20.453125 8.59375 31.390625 
Q 8.59375 42.28125 12.203125 53.3125 
Q 15.828125 64.359375 23.1875 75.875 
z
" id="DejaVuSans-40"/>
      <path d="M 44.28125 53.078125 
L 44.28125 44.578125 
Q 40.484375 46.53125 36.375 47.5 
Q 32.28125 48.484375 27.875 48.484375 
Q 21.1875 48.484375 17.84375 46.4375 
Q 14.5 44.390625 14.5 40.28125 
Q 14.5 37.15625 16.890625 35.375 
Q 19.28125 33.59375 26.515625 31.984375 
L 29.59375 31.296875 
Q 39.15625 29.25 43.1875 25.515625 
Q 47.21875 21.78125 47.21875 15.09375 
Q 47.21875 7.46875 41.1875 3.015625 
Q 35.15625 -1.421875 24.609375 -1.421875 
Q 20.21875 -1.421875 15.453125 -0.5625 
Q 10.6875 0.296875 5.421875 2 
L 5.421875 11.28125 
Q 10.40625 8.6875 15.234375 7.390625 
Q 20.0625 6.109375 24.8125 6.109375 
Q 31.15625 6.109375 34.5625 8.28125 
Q 37.984375 10.453125 37.984375 14.40625 
Q 37.984375 18.0625 35.515625 20.015625 
Q 33.0625 21.96875 24.703125 23.78125 
L 21.578125 24.515625 
Q 13.234375 26.265625 9.515625 29.90625 
Q 5.8125 33.546875 5.8125 39.890625 
Q 5.8125 47.609375 11.28125 51.796875 
Q 16.75 56 26.8125 56 
Q 31.78125 56 36.171875 55.265625 
Q 40.578125 54.546875 44.28125 53.078125 
z
" id="DejaVuSans-115"/>
      <path d="M 8.015625 75.875 
L 15.828125 75.875 
Q 23.140625 64.359375 26.78125 53.3125 
Q 30.421875 42.28125 30.421875 31.390625 
Q 30.421875 20.453125 26.78125 9.375 
Q 23.140625 -1.703125 15.828125 -13.1875 
L 8.015625 -13.1875 
Q 14.5 -2 17.703125 9.0625 
Q 20.90625 20.125 20.90625 31.390625 
Q 20.90625 42.671875 17.703125 53.65625 
Q 14.5 64.65625 8.015625 75.875 
z
" id="DejaVuSans-41"/>
     </defs>
     <g transform="translate(198.745313 269.276563)scale(0.1 -0.1)">
      <use xlink:href="#DejaVuSans-84"/>
      <use x="61.037109" xlink:href="#DejaVuSans-105"/>
      <use x="88.820312" xlink:href="#DejaVuSans-109"/>
      <use x="186.232422" xlink:href="#DejaVuSans-101"/>
      <use x="247.755859" xlink:href="#DejaVuSans-32"/>
      <use x="279.542969" xlink:href="#DejaVuSans-40"/>
      <use x="318.556641" xlink:href="#DejaVuSans-109"/>
      <use x="415.96875" xlink:href="#DejaVuSans-115"/>
      <use x="468.068359" xlink:href="#DejaVuSans-41"/>
      <use x="507.082031" xlink:href="#DejaVuSans-32"/>
     </g>
     <!--  log (base 10) -->
     <defs>
      <path d="M 9.421875 75.984375 
L 18.40625 75.984375 
L 18.40625 0 
L 9.421875 0 
z
" id="DejaVuSans-108"/>
      <path d="M 30.609375 48.390625 
Q 23.390625 48.390625 19.1875 42.75 
Q 14.984375 37.109375 14.984375 27.296875 
Q 14.984375 17.484375 19.15625 11.84375 
Q 23.34375 6.203125 30.609375 6.203125 
Q 37.796875 6.203125 41.984375 11.859375 
Q 46.1875 17.53125 46.1875 27.296875 
Q 46.1875 37.015625 41.984375 42.703125 
Q 37.796875 48.390625 30.609375 48.390625 
z
M 30.609375 56 
Q 42.328125 56 49.015625 48.375 
Q 55.71875 40.765625 55.71875 27.296875 
Q 55.71875 13.875 49.015625 6.21875 
Q 42.328125 -1.421875 30.609375 -1.421875 
Q 18.84375 -1.421875 12.171875 6.21875 
Q 5.515625 13.875 5.515625 27.296875 
Q 5.515625 40.765625 12.171875 48.375 
Q 18.84375 56 30.609375 56 
z
" id="DejaVuSans-111"/>
      <path d="M 45.40625 27.984375 
Q 45.40625 37.75 41.375 43.109375 
Q 37.359375 48.484375 30.078125 48.484375 
Q 22.859375 48.484375 18.828125 43.109375 
Q 14.796875 37.75 14.796875 27.984375 
Q 14.796875 18.265625 18.828125 12.890625 
Q 22.859375 7.515625 30.078125 7.515625 
Q 37.359375 7.515625 41.375 12.890625 
Q 45.40625 18.265625 45.40625 27.984375 
z
M 54.390625 6.78125 
Q 54.390625 -7.171875 48.1875 -13.984375 
Q 42 -20.796875 29.203125 -20.796875 
Q 24.46875 -20.796875 20.265625 -20.09375 
Q 16.0625 -19.390625 12.109375 -17.921875 
L 12.109375 -9.1875 
Q 16.0625 -11.328125 19.921875 -12.34375 
Q 23.78125 -13.375 27.78125 -13.375 
Q 36.625 -13.375 41.015625 -8.765625 
Q 45.40625 -4.15625 45.40625 5.171875 
L 45.40625 9.625 
Q 42.625 4.78125 38.28125 2.390625 
Q 33.9375 0 27.875 0 
Q 17.828125 0 11.671875 7.65625 
Q 5.515625 15.328125 5.515625 27.984375 
Q 5.515625 40.671875 11.671875 48.328125 
Q 17.828125 56 27.875 56 
Q 33.9375 56 38.28125 53.609375 
Q 42.625 51.21875 45.40625 46.390625 
L 45.40625 54.6875 
L 54.390625 54.6875 
z
" id="DejaVuSans-103"/>
      <path d="M 48.6875 27.296875 
Q 48.6875 37.203125 44.609375 42.84375 
Q 40.53125 48.484375 33.40625 48.484375 
Q 26.265625 48.484375 22.1875 42.84375 
Q 18.109375 37.203125 18.109375 27.296875 
Q 18.109375 17.390625 22.1875 11.75 
Q 26.265625 6.109375 33.40625 6.109375 
Q 40.53125 6.109375 44.609375 11.75 
Q 48.6875 17.390625 48.6875 27.296875 
z
M 18.109375 46.390625 
Q 20.953125 51.265625 25.265625 53.625 
Q 29.59375 56 35.59375 56 
Q 45.5625 56 51.78125 48.09375 
Q 58.015625 40.1875 58.015625 27.296875 
Q 58.015625 14.40625 51.78125 6.484375 
Q 45.5625 -1.421875 35.59375 -1.421875 
Q 29.59375 -1.421875 25.265625 0.953125 
Q 20.953125 3.328125 18.109375 8.203125 
L 18.109375 0 
L 9.078125 0 
L 9.078125 75.984375 
L 18.109375 75.984375 
z
" id="DejaVuSans-98"/>
      <path d="M 34.28125 27.484375 
Q 23.390625 27.484375 19.1875 25 
Q 14.984375 22.515625 14.984375 16.5 
Q 14.984375 11.71875 18.140625 8.90625 
Q 21.296875 6.109375 26.703125 6.109375 
Q 34.1875 6.109375 38.703125 11.40625 
Q 43.21875 16.703125 43.21875 25.484375 
L 43.21875 27.484375 
z
M 52.203125 31.203125 
L 52.203125 0 
L 43.21875 0 
L 43.21875 8.296875 
Q 40.140625 3.328125 35.546875 0.953125 
Q 30.953125 -1.421875 24.3125 -1.421875 
Q 15.921875 -1.421875 10.953125 3.296875 
Q 6 8.015625 6 15.921875 
Q 6 25.140625 12.171875 29.828125 
Q 18.359375 34.515625 30.609375 34.515625 
L 43.21875 34.515625 
L 43.21875 35.40625 
Q 43.21875 41.609375 39.140625 45 
Q 35.0625 48.390625 27.6875 48.390625 
Q 23 48.390625 18.546875 47.265625 
Q 14.109375 46.140625 10.015625 43.890625 
L 10.015625 52.203125 
Q 14.9375 54.109375 19.578125 55.046875 
Q 24.21875 56 28.609375 56 
Q 40.484375 56 46.34375 49.84375 
Q 52.203125 43.703125 52.203125 31.203125 
z
" id="DejaVuSans-97"/>
     </defs>
     <g transform="translate(191.114062 280.474375)scale(0.1 -0.1)">
      <use xlink:href="#DejaVuSans-32"/>
      <use x="31.787109" xlink:href="#DejaVuSans-108"/>
      <use x="59.570312" xlink:href="#DejaVuSans-111"/>
      <use x="120.751953" xlink:href="#DejaVuSans-103"/>
      <use x="184.228516" xlink:href="#DejaVuSans-32"/>
      <use x="216.015625" xlink:href="#DejaVuSans-40"/>
      <use x="255.029297" xlink:href="#DejaVuSans-98"/>
      <use x="318.505859" xlink:href="#DejaVuSans-97"/>
      <use x="379.785156" xlink:href="#DejaVuSans-115"/>
      <use x="431.884766" xlink:href="#DejaVuSans-101"/>
      <use x="493.408203" xlink:href="#DejaVuSans-32"/>
      <use x="525.195312" xlink:href="#DejaVuSans-49"/>
      <use x="588.818359" xlink:href="#DejaVuSans-48"/>
      <use x="652.441406" xlink:href="#DejaVuSans-41"/>
     </g>
    </g>
   </g>
   <g id="matplotlib.axis_2">
    <g id="ytick_1">
     <g id="line2d_60">
      <path clip-path="url(#p72887df936)" d="M 52.875 231.569034 
L 398.5 231.569034 
" style="fill:none;stroke:#b0b0b0;stroke-dasharray:3.7,1.6;stroke-dashoffset:0;"/>
     </g>
     <g id="line2d_61">
      <defs>
       <path d="M 0 0 
L -3.5 0 
" id="m76776721a8" style="stroke:#000000;stroke-width:0.8;"/>
      </defs>
      <g>
       <use style="stroke:#000000;stroke-width:0.8;" x="52.875" xlink:href="#m76776721a8" y="231.569034"/>
      </g>
     </g>
     <g id="text_8">
      <!-- 0.0 -->
      <defs>
       <path d="M 10.6875 12.40625 
L 21 12.40625 
L 21 0 
L 10.6875 0 
z
" id="DejaVuSans-46"/>
      </defs>
      <g transform="translate(29.971875 235.368252)scale(0.1 -0.1)">
       <use xlink:href="#DejaVuSans-48"/>
       <use x="63.623047" xlink:href="#DejaVuSans-46"/>
       <use x="95.410156" xlink:href="#DejaVuSans-48"/>
      </g>
     </g>
    </g>
    <g id="ytick_2">
     <g id="line2d_62">
      <path clip-path="url(#p72887df936)" d="M 52.875 193.841591 
L 398.5 193.841591 
" style="fill:none;stroke:#b0b0b0;stroke-dasharray:3.7,1.6;stroke-dashoffset:0;"/>
     </g>
     <g id="line2d_63">
      <g>
       <use style="stroke:#000000;stroke-width:0.8;" x="52.875" xlink:href="#m76776721a8" y="193.841591"/>
      </g>
     </g>
     <g id="text_9">
      <!-- 0.2 -->
      <g transform="translate(29.971875 197.640809)scale(0.1 -0.1)">
       <use xlink:href="#DejaVuSans-48"/>
       <use x="63.623047" xlink:href="#DejaVuSans-46"/>
       <use x="95.410156" xlink:href="#DejaVuSans-50"/>
      </g>
     </g>
    </g>
    <g id="ytick_3">
     <g id="line2d_64">
      <path clip-path="url(#p72887df936)" d="M 52.875 156.114147 
L 398.5 156.114147 
" style="fill:none;stroke:#b0b0b0;stroke-dasharray:3.7,1.6;stroke-dashoffset:0;"/>
     </g>
     <g id="line2d_65">
      <g>
       <use style="stroke:#000000;stroke-width:0.8;" x="52.875" xlink:href="#m76776721a8" y="156.114147"/>
      </g>
     </g>
     <g id="text_10">
      <!-- 0.4 -->
      <defs>
       <path d="M 37.796875 64.3125 
L 12.890625 25.390625 
L 37.796875 25.390625 
z
M 35.203125 72.90625 
L 47.609375 72.90625 
L 47.609375 25.390625 
L 58.015625 25.390625 
L 58.015625 17.1875 
L 47.609375 17.1875 
L 47.609375 0 
L 37.796875 0 
L 37.796875 17.1875 
L 4.890625 17.1875 
L 4.890625 26.703125 
z
" id="DejaVuSans-52"/>
      </defs>
      <g transform="translate(29.971875 159.913366)scale(0.1 -0.1)">
       <use xlink:href="#DejaVuSans-48"/>
       <use x="63.623047" xlink:href="#DejaVuSans-46"/>
       <use x="95.410156" xlink:href="#DejaVuSans-52"/>
      </g>
     </g>
    </g>
    <g id="ytick_4">
     <g id="line2d_66">
      <path clip-path="url(#p72887df936)" d="M 52.875 118.386704 
L 398.5 118.386704 
" style="fill:none;stroke:#b0b0b0;stroke-dasharray:3.7,1.6;stroke-dashoffset:0;"/>
     </g>
     <g id="line2d_67">
      <g>
       <use style="stroke:#000000;stroke-width:0.8;" x="52.875" xlink:href="#m76776721a8" y="118.386704"/>
      </g>
     </g>
     <g id="text_11">
      <!-- 0.6 -->
      <defs>
       <path d="M 33.015625 40.375 
Q 26.375 40.375 22.484375 35.828125 
Q 18.609375 31.296875 18.609375 23.390625 
Q 18.609375 15.53125 22.484375 10.953125 
Q 26.375 6.390625 33.015625 6.390625 
Q 39.65625 6.390625 43.53125 10.953125 
Q 47.40625 15.53125 47.40625 23.390625 
Q 47.40625 31.296875 43.53125 35.828125 
Q 39.65625 40.375 33.015625 40.375 
z
M 52.59375 71.296875 
L 52.59375 62.3125 
Q 48.875 64.0625 45.09375 64.984375 
Q 41.3125 65.921875 37.59375 65.921875 
Q 27.828125 65.921875 22.671875 59.328125 
Q 17.53125 52.734375 16.796875 39.40625 
Q 19.671875 43.65625 24.015625 45.921875 
Q 28.375 48.1875 33.59375 48.1875 
Q 44.578125 48.1875 50.953125 41.515625 
Q 57.328125 34.859375 57.328125 23.390625 
Q 57.328125 12.15625 50.6875 5.359375 
Q 44.046875 -1.421875 33.015625 -1.421875 
Q 20.359375 -1.421875 13.671875 8.265625 
Q 6.984375 17.96875 6.984375 36.375 
Q 6.984375 53.65625 15.1875 63.9375 
Q 23.390625 74.21875 37.203125 74.21875 
Q 40.921875 74.21875 44.703125 73.484375 
Q 48.484375 72.75 52.59375 71.296875 
z
" id="DejaVuSans-54"/>
      </defs>
      <g transform="translate(29.971875 122.185923)scale(0.1 -0.1)">
       <use xlink:href="#DejaVuSans-48"/>
       <use x="63.623047" xlink:href="#DejaVuSans-46"/>
       <use x="95.410156" xlink:href="#DejaVuSans-54"/>
      </g>
     </g>
    </g>
    <g id="ytick_5">
     <g id="line2d_68">
      <path clip-path="url(#p72887df936)" d="M 52.875 80.659261 
L 398.5 80.659261 
" style="fill:none;stroke:#b0b0b0;stroke-dasharray:3.7,1.6;stroke-dashoffset:0;"/>
     </g>
     <g id="line2d_69">
      <g>
       <use style="stroke:#000000;stroke-width:0.8;" x="52.875" xlink:href="#m76776721a8" y="80.659261"/>
      </g>
     </g>
     <g id="text_12">
      <!-- 0.8 -->
      <defs>
       <path d="M 31.78125 34.625 
Q 24.75 34.625 20.71875 30.859375 
Q 16.703125 27.09375 16.703125 20.515625 
Q 16.703125 13.921875 20.71875 10.15625 
Q 24.75 6.390625 31.78125 6.390625 
Q 38.8125 6.390625 42.859375 10.171875 
Q 46.921875 13.96875 46.921875 20.515625 
Q 46.921875 27.09375 42.890625 30.859375 
Q 38.875 34.625 31.78125 34.625 
z
M 21.921875 38.8125 
Q 15.578125 40.375 12.03125 44.71875 
Q 8.5 49.078125 8.5 55.328125 
Q 8.5 64.0625 14.71875 69.140625 
Q 20.953125 74.21875 31.78125 74.21875 
Q 42.671875 74.21875 48.875 69.140625 
Q 55.078125 64.0625 55.078125 55.328125 
Q 55.078125 49.078125 51.53125 44.71875 
Q 48 40.375 41.703125 38.8125 
Q 48.828125 37.15625 52.796875 32.3125 
Q 56.78125 27.484375 56.78125 20.515625 
Q 56.78125 9.90625 50.3125 4.234375 
Q 43.84375 -1.421875 31.78125 -1.421875 
Q 19.734375 -1.421875 13.25 4.234375 
Q 6.78125 9.90625 6.78125 20.515625 
Q 6.78125 27.484375 10.78125 32.3125 
Q 14.796875 37.15625 21.921875 38.8125 
z
M 18.3125 54.390625 
Q 18.3125 48.734375 21.84375 45.5625 
Q 25.390625 42.390625 31.78125 42.390625 
Q 38.140625 42.390625 41.71875 45.5625 
Q 45.3125 48.734375 45.3125 54.390625 
Q 45.3125 60.0625 41.71875 63.234375 
Q 38.140625 66.40625 31.78125 66.40625 
Q 25.390625 66.40625 21.84375 63.234375 
Q 18.3125 60.0625 18.3125 54.390625 
z
" id="DejaVuSans-56"/>
      </defs>
      <g transform="translate(29.971875 84.45848)scale(0.1 -0.1)">
       <use xlink:href="#DejaVuSans-48"/>
       <use x="63.623047" xlink:href="#DejaVuSans-46"/>
       <use x="95.410156" xlink:href="#DejaVuSans-56"/>
      </g>
     </g>
    </g>
    <g id="ytick_6">
     <g id="line2d_70">
      <path clip-path="url(#p72887df936)" d="M 52.875 42.931818 
L 398.5 42.931818 
" style="fill:none;stroke:#b0b0b0;stroke-dasharray:3.7,1.6;stroke-dashoffset:0;"/>
     </g>
     <g id="line2d_71">
      <g>
       <use style="stroke:#000000;stroke-width:0.8;" x="52.875" xlink:href="#m76776721a8" y="42.931818"/>
      </g>
     </g>
     <g id="text_13">
      <!-- 1.0 -->
      <g transform="translate(29.971875 46.731037)scale(0.1 -0.1)">
       <use xlink:href="#DejaVuSans-49"/>
       <use x="63.623047" xlink:href="#DejaVuSans-46"/>
       <use x="95.410156" xlink:href="#DejaVuSans-48"/>
      </g>
     </g>
    </g>
    <g id="text_14">
     <!-- Fraction of Requests -->
     <defs>
      <path d="M 9.8125 72.90625 
L 51.703125 72.90625 
L 51.703125 64.59375 
L 19.671875 64.59375 
L 19.671875 43.109375 
L 48.578125 43.109375 
L 48.578125 34.8125 
L 19.671875 34.8125 
L 19.671875 0 
L 9.8125 0 
z
" id="DejaVuSans-70"/>
      <path d="M 41.109375 46.296875 
Q 39.59375 47.171875 37.8125 47.578125 
Q 36.03125 48 33.890625 48 
Q 26.265625 48 22.1875 43.046875 
Q 18.109375 38.09375 18.109375 28.8125 
L 18.109375 0 
L 9.078125 0 
L 9.078125 54.6875 
L 18.109375 54.6875 
L 18.109375 46.1875 
Q 20.953125 51.171875 25.484375 53.578125 
Q 30.03125 56 36.53125 56 
Q 37.453125 56 38.578125 55.875 
Q 39.703125 55.765625 41.0625 55.515625 
z
" id="DejaVuSans-114"/>
      <path d="M 48.78125 52.59375 
L 48.78125 44.1875 
Q 44.96875 46.296875 41.140625 47.34375 
Q 37.3125 48.390625 33.40625 48.390625 
Q 24.65625 48.390625 19.8125 42.84375 
Q 14.984375 37.3125 14.984375 27.296875 
Q 14.984375 17.28125 19.8125 11.734375 
Q 24.65625 6.203125 33.40625 6.203125 
Q 37.3125 6.203125 41.140625 7.25 
Q 44.96875 8.296875 48.78125 10.40625 
L 48.78125 2.09375 
Q 45.015625 0.34375 40.984375 -0.53125 
Q 36.96875 -1.421875 32.421875 -1.421875 
Q 20.0625 -1.421875 12.78125 6.34375 
Q 5.515625 14.109375 5.515625 27.296875 
Q 5.515625 40.671875 12.859375 48.328125 
Q 20.21875 56 33.015625 56 
Q 37.15625 56 41.109375 55.140625 
Q 45.0625 54.296875 48.78125 52.59375 
z
" id="DejaVuSans-99"/>
      <path d="M 18.3125 70.21875 
L 18.3125 54.6875 
L 36.8125 54.6875 
L 36.8125 47.703125 
L 18.3125 47.703125 
L 18.3125 18.015625 
Q 18.3125 11.328125 20.140625 9.421875 
Q 21.96875 7.515625 27.59375 7.515625 
L 36.8125 7.515625 
L 36.8125 0 
L 27.59375 0 
Q 17.1875 0 13.234375 3.875 
Q 9.28125 7.765625 9.28125 18.015625 
L 9.28125 47.703125 
L 2.6875 47.703125 
L 2.6875 54.6875 
L 9.28125 54.6875 
L 9.28125 70.21875 
z
" id="DejaVuSans-116"/>
      <path d="M 54.890625 33.015625 
L 54.890625 0 
L 45.90625 0 
L 45.90625 32.71875 
Q 45.90625 40.484375 42.875 44.328125 
Q 39.84375 48.1875 33.796875 48.1875 
Q 26.515625 48.1875 22.3125 43.546875 
Q 18.109375 38.921875 18.109375 30.90625 
L 18.109375 0 
L 9.078125 0 
L 9.078125 54.6875 
L 18.109375 54.6875 
L 18.109375 46.1875 
Q 21.34375 51.125 25.703125 53.5625 
Q 30.078125 56 35.796875 56 
Q 45.21875 56 50.046875 50.171875 
Q 54.890625 44.34375 54.890625 33.015625 
z
" id="DejaVuSans-110"/>
      <path d="M 37.109375 75.984375 
L 37.109375 68.5 
L 28.515625 68.5 
Q 23.6875 68.5 21.796875 66.546875 
Q 19.921875 64.59375 19.921875 59.515625 
L 19.921875 54.6875 
L 34.71875 54.6875 
L 34.71875 47.703125 
L 19.921875 47.703125 
L 19.921875 0 
L 10.890625 0 
L 10.890625 47.703125 
L 2.296875 47.703125 
L 2.296875 54.6875 
L 10.890625 54.6875 
L 10.890625 58.5 
Q 10.890625 67.625 15.140625 71.796875 
Q 19.390625 75.984375 28.609375 75.984375 
z
" id="DejaVuSans-102"/>
      <path d="M 44.390625 34.1875 
Q 47.5625 33.109375 50.5625 29.59375 
Q 53.5625 26.078125 56.59375 19.921875 
L 66.609375 0 
L 56 0 
L 46.6875 18.703125 
Q 43.0625 26.03125 39.671875 28.421875 
Q 36.28125 30.8125 30.421875 30.8125 
L 19.671875 30.8125 
L 19.671875 0 
L 9.8125 0 
L 9.8125 72.90625 
L 32.078125 72.90625 
Q 44.578125 72.90625 50.734375 67.671875 
Q 56.890625 62.453125 56.890625 51.90625 
Q 56.890625 45.015625 53.6875 40.46875 
Q 50.484375 35.9375 44.390625 34.1875 
z
M 19.671875 64.796875 
L 19.671875 38.921875 
L 32.078125 38.921875 
Q 39.203125 38.921875 42.84375 42.21875 
Q 46.484375 45.515625 46.484375 51.90625 
Q 46.484375 58.296875 42.84375 61.546875 
Q 39.203125 64.796875 32.078125 64.796875 
z
" id="DejaVuSans-82"/>
      <path d="M 14.796875 27.296875 
Q 14.796875 17.390625 18.875 11.75 
Q 22.953125 6.109375 30.078125 6.109375 
Q 37.203125 6.109375 41.296875 11.75 
Q 45.40625 17.390625 45.40625 27.296875 
Q 45.40625 37.203125 41.296875 42.84375 
Q 37.203125 48.484375 30.078125 48.484375 
Q 22.953125 48.484375 18.875 42.84375 
Q 14.796875 37.203125 14.796875 27.296875 
z
M 45.40625 8.203125 
Q 42.578125 3.328125 38.25 0.953125 
Q 33.9375 -1.421875 27.875 -1.421875 
Q 17.96875 -1.421875 11.734375 6.484375 
Q 5.515625 14.40625 5.515625 27.296875 
Q 5.515625 40.1875 11.734375 48.09375 
Q 17.96875 56 27.875 56 
Q 33.9375 56 38.25 53.625 
Q 42.578125 51.265625 45.40625 46.390625 
L 45.40625 54.6875 
L 54.390625 54.6875 
L 54.390625 -20.796875 
L 45.40625 -20.796875 
z
" id="DejaVuSans-113"/>
      <path d="M 8.5 21.578125 
L 8.5 54.6875 
L 17.484375 54.6875 
L 17.484375 21.921875 
Q 17.484375 14.15625 20.5 10.265625 
Q 23.53125 6.390625 29.59375 6.390625 
Q 36.859375 6.390625 41.078125 11.03125 
Q 45.3125 15.671875 45.3125 23.6875 
L 45.3125 54.6875 
L 54.296875 54.6875 
L 54.296875 0 
L 45.3125 0 
L 45.3125 8.40625 
Q 42.046875 3.421875 37.71875 1 
Q 33.40625 -1.421875 27.6875 -1.421875 
Q 18.265625 -1.421875 13.375 4.4375 
Q 8.5 10.296875 8.5 21.578125 
z
M 31.109375 56 
z
" id="DejaVuSans-117"/>
     </defs>
     <g transform="translate(23.892187 188.700781)rotate(-90)scale(0.1 -0.1)">
      <use xlink:href="#DejaVuSans-70"/>
      <use x="57.410156" xlink:href="#DejaVuSans-114"/>
      <use x="98.523438" xlink:href="#DejaVuSans-97"/>
      <use x="159.802734" xlink:href="#DejaVuSans-99"/>
      <use x="214.783203" xlink:href="#DejaVuSans-116"/>
      <use x="253.992188" xlink:href="#DejaVuSans-105"/>
      <use x="281.775391" xlink:href="#DejaVuSans-111"/>
      <use x="342.957031" xlink:href="#DejaVuSans-110"/>
      <use x="406.335938" xlink:href="#DejaVuSans-32"/>
      <use x="438.123047" xlink:href="#DejaVuSans-111"/>
      <use x="499.304688" xlink:href="#DejaVuSans-102"/>
      <use x="534.509766" xlink:href="#DejaVuSans-32"/>
      <use x="566.296875" xlink:href="#DejaVuSans-82"/>
      <use x="635.716797" xlink:href="#DejaVuSans-101"/>
      <use x="697.240234" xlink:href="#DejaVuSans-113"/>
      <use x="760.716797" xlink:href="#DejaVuSans-117"/>
      <use x="824.095703" xlink:href="#DejaVuSans-101"/>
      <use x="885.619141" xlink:href="#DejaVuSans-115"/>
      <use x="937.71875" xlink:href="#DejaVuSans-116"/>
      <use x="976.927734" xlink:href="#DejaVuSans-115"/>
     </g>
    </g>
   </g>
   <g id="line2d_72">
    <path clip-path="url(#p72887df936)" d="M 109.553072 231.568182 
L 112.934828 231.549441 
L 115.8784 231.419958 
L 116.268301 231.385031 
L 117.446668 231.218066 
L 118.037256 231.09625 
L 118.751366 230.913952 
L 119.085494 230.800654 
L 119.578883 230.582577 
L 121.057387 229.477712 
L 122.064924 228.268068 
L 124.089392 224.375909 
L 124.65867 222.851076 
L 126.163657 217.675161 
L 128.06978 208.283381 
L 128.758037 204.089663 
L 129.62568 198.297852 
L 129.983735 195.758451 
L 130.797389 189.725563 
L 132.083984 179.155657 
L 133.898855 163.527393 
L 134.194757 160.985436 
L 136.831549 139.270617 
L 137.283523 135.81376 
L 139.659714 118.790146 
L 140.97801 110.850791 
L 141.446132 108.261981 
L 142.144645 104.57427 
L 142.381061 103.393589 
L 143.157327 99.685433 
L 143.510451 98.060932 
L 143.778428 96.915177 
L 144.457854 93.955808 
L 147.9426 81.599547 
L 148.087813 81.158282 
L 148.368048 80.344754 
L 151.203396 73.235964 
L 151.58434 72.485473 
L 154.54163 67.251632 
L 154.656826 67.083815 
L 155.12273 66.371658 
L 155.383601 66.007913 
L 155.586493 65.708058 
L 156.199528 64.874085 
L 156.568645 64.401301 
L 158.231399 62.360239 
L 158.345869 62.185607 
L 158.619293 61.819307 
L 159.024188 61.277522 
L 159.23037 61.010889 
L 159.419535 60.793665 
L 159.726182 60.429919 
L 159.945453 60.196509 
L 160.121236 60.0091 
L 160.259364 59.859172 
L 160.502239 59.610428 
L 162.798821 57.38792 
L 162.968622 57.243955 
L 163.49066 56.814616 
L 163.698365 56.663837 
L 164.28621 56.145053 
L 164.50897 55.963606 
L 164.985027 55.563231 
L 165.756255 54.960964 
L 165.916138 54.823814 
L 166.214489 54.612553 
L 166.551381 54.359549 
L 167.351164 53.731727 
L 167.69523 53.500021 
L 168.133569 53.211239 
L 168.45913 52.982088 
L 168.708524 52.821938 
L 169.166028 52.542527 
L 169.845245 52.093596 
L 170.157314 51.910446 
L 170.443179 51.744333 
L 171.188485 51.320105 
L 171.672115 51.014287 
L 171.8738 50.902693 
L 172.557385 50.511688 
L 172.761741 50.38902 
L 173.436079 49.974163 
L 173.737532 49.819976 
L 174.89193 49.205783 
L 175.231916 49.049892 
L 175.787773 48.766222 
L 179.321367 47.253315 
L 179.753762 47.107647 
L 180.313788 46.930459 
L 180.862933 46.743901 
L 181.741259 46.470454 
L 182.910406 46.164635 
L 183.246558 46.083708 
L 183.80653 45.939744 
L 183.940796 45.90141 
L 184.586888 45.748926 
L 186.664467 45.27955 
L 186.886196 45.21992 
L 189.733379 44.757359 
L 191.028265 44.595505 
L 195.083806 44.149981 
L 209.294517 43.480417 
L 214.060941 43.324527 
L 214.357263 43.312601 
L 217.492415 43.212081 
L 257.857937 42.994856 
L 347.818438 42.931818 
L 347.818438 42.931818 
" style="fill:none;stroke:#00aff0;stroke-dasharray:7.4,3.2;stroke-dashoffset:0;stroke-width:2;"/>
   </g>
   <g id="line2d_73">
    <path clip-path="url(#p72887df936)" d="M 108.605882 231.568182 
L 119.407635 231.435291 
L 125.121765 230.700134 
L 125.601582 230.525502 
L 125.932946 230.393464 
L 126.476133 230.126831 
L 128.075403 229.323525 
L 128.593163 229.066263 
L 129.008861 228.825186 
L 129.278817 228.66248 
L 131.149999 227.343797 
L 131.904677 226.557528 
L 132.343508 226.072819 
L 135.166388 222.375737 
L 137.579287 217.847238 
L 137.821305 217.314824 
L 138.575888 215.394726 
L 139.069683 214.025784 
L 139.481532 212.920918 
L 139.965978 211.539198 
L 140.194253 210.943746 
L 141.094964 208.259529 
L 141.408851 207.159774 
L 141.561033 206.605212 
L 142.88614 202.324605 
L 143.020487 201.904637 
L 143.840359 199.45894 
L 144.009926 198.890748 
L 144.34279 197.790142 
L 144.584448 196.982577 
L 144.871547 196.041269 
L 146.96086 189.725563 
L 147.234229 188.876256 
L 147.531698 187.957949 
L 148.529076 184.883578 
L 148.750822 184.202088 
L 152.732796 170.605516 
L 153.91157 166.496985 
L 154.11349 165.841903 
L 154.477643 164.615221 
L 155.453397 161.462479 
L 156.894982 155.783966 
L 158.665177 148.124021 
L 158.937074 146.887969 
L 159.221739 145.713251 
L 159.960566 142.62525 
L 160.49895 140.630189 
L 161.374126 137.476595 
L 161.742286 136.174098 
L 162.749027 132.783687 
L 162.983596 131.98038 
L 163.875519 128.88301 
L 167.033385 119.245041 
L 167.376524 118.177657 
L 167.480242 117.85395 
L 167.697734 117.215053 
L 168.732612 114.076793 
L 169.462778 111.899433 
L 169.520094 111.722246 
L 169.759701 110.980274 
L 171.064252 106.599998 
L 171.12919 106.413441 
L 171.459107 105.404836 
L 171.536074 105.204648 
L 175.843915 95.318787 
L 175.972316 95.048747 
L 176.379048 94.242034 
L 179.058976 88.936636 
L 179.28508 88.466408 
L 179.423511 88.158886 
L 179.769612 87.427136 
L 181.351679 83.762425 
L 181.527925 83.32116 
L 182.134587 81.649807 
L 182.317927 81.059466 
L 182.602669 80.099417 
L 183.073076 78.38973 
L 183.575051 76.506263 
L 183.79701 75.684216 
L 184.040712 74.775279 
L 184.469141 73.178037 
L 184.509551 73.020443 
L 184.750724 72.093617 
L 185.763479 68.594167 
L 188.006014 62.85943 
L 188.069136 62.706947 
L 188.227144 62.367054 
L 188.67862 61.376338 
L 188.751993 61.215336 
L 189.138055 60.401808 
L 189.646893 59.418759 
L 190.135943 58.554119 
L 190.246951 58.370117 
L 190.622393 57.757628 
L 190.740264 57.567662 
L 190.952671 57.249066 
L 191.265033 56.786505 
L 191.420857 56.574391 
L 191.615741 56.266869 
L 191.755434 56.059866 
L 191.870864 55.891198 
L 192.111637 55.580268 
L 192.336951 55.241227 
L 192.531069 54.968631 
L 193.105954 54.188325 
L 193.265556 53.964285 
L 193.449211 53.716394 
L 193.576731 53.562206 
L 193.894947 53.212943 
L 194.08626 53.003385 
L 194.391143 52.666899 
L 194.546346 52.521231 
L 194.778348 52.289524 
L 194.926837 52.156634 
L 195.094444 52.002447 
L 196.160596 51.130992 
L 196.351855 50.992138 
L 196.550127 50.837951 
L 197.362006 50.301278 
L 197.696598 50.109609 
L 198.422938 49.681974 
L 198.553868 49.600195 
L 198.97266 49.395748 
L 199.176931 49.290969 
L 200.119596 48.885483 
L 200.463142 48.74237 
L 200.679553 48.650369 
L 201.210303 48.491071 
L 202.564643 48.104325 
L 203.502019 47.893064 
L 204.892191 47.588097 
L 205.049454 47.556578 
L 205.667514 47.402391 
L 207.556983 46.969645 
L 208.100111 46.846977 
L 208.801251 46.666382 
L 211.403267 45.614332 
L 211.727737 45.473775 
L 216.586888 44.238575 
L 222.030272 43.707865 
L 225.008999 43.5409 
L 225.439649 43.520455 
L 236.417296 43.105598 
L 277.744163 42.939485 
L 324.072017 42.931818 
L 324.072017 42.931818 
" style="fill:none;stroke:#800000;stroke-dasharray:7.4,3.2;stroke-dashoffset:0;stroke-width:2;"/>
   </g>
   <g id="line2d_74">
    <path clip-path="url(#p72887df936)" d="M 129.176559 231.568182 
L 133.255356 231.454032 
L 138.90238 230.821951 
L 139.536206 230.654134 
L 140.001777 230.516984 
L 141.019347 230.035682 
L 141.520537 229.665974 
L 141.819415 229.46749 
L 142.177608 229.263043 
L 142.485458 229.103744 
L 151.998482 225.488441 
L 152.805556 225.225216 
L 153.085892 225.144289 
L 153.515897 224.999472 
L 153.788824 224.921953 
L 154.301397 224.743062 
L 154.492105 224.683432 
L 155.35763 224.453429 
L 155.596399 224.395502 
L 156.22275 224.250686 
L 156.766447 224.131425 
L 157.486053 223.979793 
L 157.752065 223.923571 
L 158.548546 223.766828 
L 158.70394 223.735309 
L 167.262215 222.242846 
L 167.569719 222.016251 
L 170.030408 220.483751 
L 170.288153 220.344897 
L 171.362308 219.400182 
L 171.536074 219.16592 
L 171.768858 218.841361 
L 172.923477 215.804472 
L 174.01982 210.786152 
L 174.3556 208.652237 
L 174.426515 208.160713 
L 174.761021 205.807869 
L 175.035467 203.742955 
L 175.520152 199.717054 
L 175.924697 195.934786 
L 177.387476 182.118433 
L 177.654068 179.885703 
L 177.946023 177.553304 
L 178.29266 174.791567 
L 178.527891 173.023101 
L 178.761043 171.249524 
L 179.278623 167.468108 
L 181.728022 152.668706 
L 181.945588 151.512729 
L 182.338778 149.544075 
L 182.840684 147.237232 
L 183.80381 143.131257 
L 184.896594 139.455471 
L 185.020245 139.111319 
L 185.286397 138.305457 
L 185.404399 137.965564 
L 185.614721 137.44678 
L 185.762217 137.064294 
L 186.096552 136.172394 
L 186.5985 134.891194 
L 186.876515 134.206296 
L 186.933339 134.058072 
L 187.20667 133.383398 
L 187.462998 132.824576 
L 187.924718 131.833008 
L 188.017028 131.628561 
L 188.429325 130.760514 
L 188.888038 129.876281 
L 189.070761 129.555981 
L 189.146385 129.426498 
L 189.337809 129.065308 
L 189.486227 128.810601 
L 192.047049 125.036 
L 192.624189 124.397103 
L 192.764949 124.237805 
L 192.877983 124.100655 
L 193.046152 123.914097 
L 194.303153 122.595415 
L 194.789559 122.162669 
L 194.923714 122.034038 
L 195.86355 121.286103 
L 196.034311 121.155768 
L 196.260851 120.94621 
L 196.473689 120.766467 
L 196.751081 120.53476 
L 196.946799 120.385684 
L 197.398175 120.076458 
L 197.635895 119.939308 
L 197.897805 119.761269 
L 198.347829 119.508266 
L 198.505235 119.431599 
L 199.390933 118.923037 
L 199.911079 118.6087 
L 200.067896 118.523513 
L 200.323934 118.376993 
L 202.46965 117.246572 
L 202.799977 117.102607 
L 202.947812 117.027643 
L 203.232557 116.887086 
L 203.3945 116.770381 
L 203.629312 116.626416 
L 203.758228 116.540378 
L 204.111343 116.254153 
L 204.311154 116.085484 
L 204.980386 115.62633 
L 205.498374 115.366512 
L 205.679682 115.297511 
L 206.578598 114.968693 
L 206.945941 114.831543 
L 207.376766 114.679911 
L 207.8097 114.544465 
L 209.428699 114.099793 
L 210.041319 113.935384 
L 211.726322 113.414896 
L 211.86327 113.230042 
L 212.494042 112.822852 
L 212.632087 112.510218 
L 213.024654 112.205252 
L 213.347647 111.974397 
L 213.659718 111.735876 
L 214.400572 111.170239 
L 214.616273 110.998163 
L 215.827083 110.051744 
L 215.969679 109.929076 
L 216.313319 109.644554 
L 216.788224 109.296994 
L 217.228315 108.959657 
L 217.361839 108.867656 
L 217.824389 108.577171 
L 217.992357 108.469836 
L 219.231216 107.79005 
L 219.625507 107.612863 
L 219.774773 107.541306 
L 220.633201 107.14519 
L 220.86763 107.006337 
L 221.403177 106.615332 
L 221.641749 106.450071 
L 221.840424 106.366588 
L 222.254085 106.206438 
L 222.806533 106.005399 
L 223.847805 105.506207 
L 223.970152 105.444021 
L 224.957331 104.84857 
L 225.078207 104.777865 
L 225.445821 104.591307 
L 226.401613 104.132154 
L 226.559256 104.055486 
L 226.881708 103.889373 
L 227.271948 103.679815 
L 227.499459 103.544369 
L 227.904251 103.312662 
L 228.199273 103.170401 
L 228.489531 103.00514 
L 228.764391 102.862879 
L 229.286151 102.603061 
L 233.044791 100.962374 
L 233.43586 100.836299 
L 234.872412 100.423997 
L 235.670776 100.279181 
L 235.792899 100.258736 
L 242.16391 99.448615 
L 242.941296 99.36854 
L 246.861868 98.92472 
L 247.213122 98.893201 
L 250.77994 98.511567 
L 257.270325 97.852226 
L 257.606432 97.737224 
L 257.85338 97.55237 
L 258.254866 96.887066 
L 258.498971 96.0335 
L 258.640412 95.386936 
L 258.760083 94.750595 
L 259.020876 93.146539 
L 259.109377 92.51105 
L 259.286466 91.075662 
L 259.454299 89.538902 
L 259.65384 87.588138 
L 259.719178 86.920278 
L 259.86482 85.383519 
L 260.305999 80.458903 
L 260.34596 80.009972 
L 260.491573 78.433175 
L 260.561985 77.725278 
L 260.720853 76.163814 
L 261.01882 73.279409 
L 261.040767 73.076666 
L 262.602414 61.762232 
L 262.646715 61.530525 
L 262.788915 60.726367 
L 262.988134 59.62491 
L 263.035942 59.386388 
L 264.504872 53.34413 
L 264.559597 53.165239 
L 264.828535 52.357673 
L 264.951602 52.028855 
L 265.189592 51.439366 
L 265.711184 50.332797 
L 265.840433 50.100239 
L 266.068498 49.751827 
L 266.867771 48.698073 
L 267.026395 48.525997 
L 267.182774 48.347958 
L 267.77067 47.838544 
L 268.156714 47.545504 
L 268.687422 47.195388 
L 268.799388 47.122128 
L 271.94036 45.725074 
L 272.690755 45.546183 
L 272.80001 45.516368 
L 273.921658 45.274439 
L 282.674717 44.120166 
L 286.026819 43.831385 
L 286.903441 43.770902 
L 296.994511 43.373083 
L 330.489482 43.05619 
L 382.789773 42.931818 
L 382.789773 42.931818 
" style="fill:none;stroke:#ff5500;stroke-dasharray:7.4,3.2;stroke-dashoffset:0;stroke-width:2;"/>
   </g>
   <g id="line2d_75">
    <path clip-path="url(#p72887df936)" d="M 203.503308 231.568182 
L 247.413554 231.339031 
L 249.590479 231.327957 
L 273.142617 231.118399 
L 274.59863 230.982952 
L 275.177016 230.726542 
L 275.517359 230.445427 
L 275.671987 230.270796 
L 275.846207 229.995644 
L 276.021347 229.601232 
L 276.161205 229.201709 
L 276.227225 228.983632 
L 276.542503 227.60106 
L 277.199684 222.967781 
L 277.400496 221.03235 
L 279.098531 194.777106 
L 279.233489 192.554597 
L 279.314617 191.264878 
L 280.37516 176.454402 
L 280.426315 175.911766 
L 280.551312 174.553897 
L 281.390857 167.406773 
L 281.415035 167.237253 
L 281.552019 166.358131 
L 281.711969 165.478157 
L 281.989258 164.267661 
L 282.9025 161.839854 
L 283.092037 161.560443 
L 283.220227 161.406256 
L 283.332299 161.272514 
L 283.724539 160.853398 
L 284.088869 160.533949 
L 284.285404 160.356762 
L 284.458901 160.216205 
L 285.930664 159.075561 
L 287.562804 158.331886 
L 288.394236 158.158957 
L 289.181137 158.048215 
L 291.727042 157.904251 
L 297.121963 157.693841 
L 297.570896 157.602691 
L 298.161078 157.418689 
L 299.060761 156.84709 
L 299.180596 156.700569 
L 299.33441 156.553197 
L 299.447387 156.431381 
L 299.590201 156.295083 
L 299.760314 156.19286 
L 300.269792 155.972227 
L 304.010591 155.603371 
L 306.446201 155.102476 
L 306.936918 154.876732 
L 307.425245 154.594766 
L 307.551244 154.500209 
L 308.588962 153.749719 
L 308.848383 153.449863 
L 309.055766 153.229231 
L 309.239655 153.017117 
L 309.679915 152.580112 
L 309.791151 152.453185 
L 311.893265 150.922388 
L 312.153263 150.764794 
L 312.55403 150.487087 
L 312.889125 150.239195 
L 313.161323 150.007488 
L 313.356045 149.866931 
L 313.845103 149.539816 
L 314.054247 149.369443 
L 314.228611 149.19396 
L 314.418401 149.022735 
L 314.615391 148.822548 
L 314.741977 148.692213 
L 314.881341 148.560174 
L 315.118592 148.322505 
L 315.342892 148.064391 
L 315.902444 147.393123 
L 316.03649 147.245751 
L 316.230061 147.024267 
L 316.412605 146.838561 
L 316.606558 146.672448 
L 317.101626 146.33937 
L 317.783635 145.998625 
L 320.321901 144.744684 
L 320.696955 144.373272 
L 320.874324 144.167121 
L 320.986442 144.024008 
L 321.262429 143.623633 
L 321.470607 143.342518 
L 321.684215 143.111664 
L 321.854284 142.879957 
L 321.973952 142.698511 
L 322.29586 142.249579 
L 322.412154 142.100503 
L 322.679777 141.841537 
L 322.791 141.758907 
L 323.074743 141.590238 
L 323.199245 141.502496 
L 324.272874 140.519447 
L 324.525113 140.290296 
L 324.7135 140.086701 
L 325.570648 138.776537 
L 325.695998 138.59935 
L 325.792099 138.456237 
L 325.95734 138.239864 
L 326.262956 137.763673 
L 326.400957 137.515781 
L 326.484759 137.363298 
L 326.613187 137.091554 
L 326.762378 136.844514 
L 326.884233 136.605992 
L 327.025157 136.334248 
L 327.18576 136.019059 
L 327.471257 135.467904 
L 327.598701 135.221716 
L 328.284644 133.846811 
L 328.400339 133.62703 
L 328.613852 133.154247 
L 328.869476 132.528128 
L 328.991103 132.16779 
L 329.772488 129.16668 
L 330.066559 127.464659 
L 330.093747 127.310472 
L 330.388055 125.354596 
L 330.437327 124.952517 
L 330.564275 123.894505 
L 330.597278 123.62702 
L 330.662344 123.02305 
L 330.911135 120.204238 
L 331.024656 118.614663 
L 331.254309 114.671393 
L 331.280105 114.15772 
L 331.464165 110.076448 
L 331.504391 109.137696 
L 332.28449 87.589842 
L 332.462905 81.723067 
L 332.542803 78.926403 
L 332.666039 74.653462 
L 332.927866 66.452585 
L 333.79821 51.384847 
L 333.870247 50.737431 
L 334.01921 49.650455 
L 334.0665 49.334414 
L 334.258633 48.360736 
L 334.312516 48.134992 
L 334.427712 47.778062 
L 334.557366 47.474799 
L 334.66912 47.220092 
L 334.810097 46.924496 
L 334.898629 46.747309 
L 335.16897 46.280488 
L 335.281234 46.114375 
L 335.438234 45.903965 
L 335.673023 45.657777 
L 335.99238 45.34344 
L 336.133229 45.194364 
L 336.314316 45.012066 
L 336.876155 44.582727 
L 337.093842 44.437059 
L 337.27671 44.303316 
L 337.704762 44.022202 
L 337.876054 43.914015 
L 338.609353 43.482121 
L 338.764893 43.351786 
L 340.476625 43.048523 
L 362.727945 42.931818 
L 362.727945 42.931818 
" style="fill:none;stroke:#58b792;stroke-dasharray:7.4,3.2;stroke-dashoffset:0;stroke-width:2;"/>
   </g>
   <g id="line2d_76">
    <path clip-path="url(#p72887df936)" d="M 68.585227 231.568182 
L 76.012897 231.448921 
L 77.545442 231.277697 
L 78.593291 230.81258 
L 79.706834 229.992237 
L 81.010656 228.540664 
L 81.899394 227.71095 
L 82.316857 227.415354 
L 87.688609 224.128869 
L 88.152329 223.759161 
L 89.326071 222.804224 
L 90.496579 221.891027 
L 94.115327 218.981918 
L 94.878268 218.337058 
L 95.232102 218.068722 
L 96.039712 217.479233 
L 101.785698 212.687508 
L 102.178758 212.362097 
L 105.275853 209.695768 
L 106.038634 209.07902 
L 106.817762 208.418827 
L 107.279375 208.043156 
L 107.793762 207.639373 
L 109.106817 206.675917 
L 109.49628 206.415247 
L 112.562921 204.478112 
L 112.854859 204.320518 
L 113.222702 204.123738 
L 113.789192 203.812808 
L 115.108461 203.127059 
L 117.396148 202.161899 
L 117.905315 201.981304 
L 118.831305 201.677189 
L 122.275907 200.689881 
L 132.822164 198.877118 
L 134.051704 198.692264 
L 134.64563 198.58493 
L 139.272734 197.572917 
L 140.392386 197.175098 
L 141.091531 196.892279 
L 141.5981 196.649499 
L 141.919402 196.497867 
L 142.253266 196.313013 
L 142.693022 196.085566 
L 143.682145 195.443262 
L 143.911402 195.266926 
L 145.392829 194.182506 
L 145.645325 193.993392 
L 146.106308 193.594721 
L 146.464342 193.257383 
L 146.645724 193.110011 
L 147.018503 192.742007 
L 147.687206 192.086925 
L 147.971706 191.775143 
L 148.748254 190.955652 
L 149.395069 190.156605 
L 149.783089 189.616524 
L 149.881668 189.470856 
L 150.119205 189.093481 
L 150.3836 188.683735 
L 150.716965 188.170914 
L 150.968385 187.733057 
L 151.22912 187.287533 
L 151.630422 186.56771 
L 152.406223 185.115285 
L 152.588891 184.738762 
L 153.778216 182.218101 
L 154.272255 181.002494 
L 154.47351 180.462413 
L 154.802158 179.576477 
L 155.021704 178.993803 
L 155.517049 177.693009 
L 156.417393 174.998569 
L 156.604892 174.441451 
L 157.077256 173.000952 
L 157.730151 170.90026 
L 158.020841 169.901878 
L 158.573329 168.00904 
L 158.875922 166.911842 
L 160.479204 161.052733 
L 160.837252 159.655679 
L 160.976537 159.105376 
L 161.204922 158.190476 
L 161.712456 156.089784 
L 162.142496 154.3128 
L 164.855663 141.850056 
L 165.177203 140.181258 
L 165.702295 137.416113 
L 165.932207 136.221802 
L 166.187988 134.843489 
L 166.787005 131.643895 
L 167.037236 130.273249 
L 168.584122 121.465845 
L 168.819147 120.06794 
L 168.999713 119.024408 
L 169.24171 117.624799 
L 169.346595 116.986754 
L 169.753911 114.633059 
L 169.86947 113.949013 
L 170.5973 109.855816 
L 170.856256 108.441724 
L 171.074168 107.214191 
L 171.371023 105.625468 
L 171.677498 103.949003 
L 171.843859 103.0554 
L 172.087739 101.787829 
L 172.410143 100.034696 
L 172.698632 98.598457 
L 172.824699 97.995338 
L 173.201356 96.025833 
L 173.31999 95.427826 
L 173.903309 92.652459 
L 177.30584 78.497065 
L 177.370128 78.280692 
L 177.756877 76.938157 
L 177.902691 76.402336 
L 178.09924 75.721698 
L 181.21253 66.649365 
L 181.365106 66.30862 
L 181.70889 65.5215 
L 181.811011 65.304275 
L 181.995149 64.889418 
L 182.196083 64.472006 
L 182.263203 64.326337 
L 182.434914 63.954073 
L 182.600534 63.636329 
L 182.715569 63.402919 
L 182.960295 62.935246 
L 183.502252 61.911308 
L 183.721412 61.463228 
L 183.942149 61.064557 
L 184.050818 60.898444 
L 184.458531 60.16925 
L 185.110987 59.150422 
L 185.40184 58.697232 
L 188.390498 54.901334 
L 188.521594 54.747147 
L 188.705735 54.545255 
L 188.9183 54.315253 
L 189.083566 54.15851 
L 189.257204 53.982175 
L 189.428058 53.814358 
L 190.12471 53.13372 
L 190.425291 52.863679 
L 190.555101 52.714604 
L 190.691608 52.594491 
L 191.747385 51.694073 
L 191.894891 51.575664 
L 192.076878 51.428292 
L 192.508593 51.122473 
L 193.676995 50.31576 
L 193.881493 50.171795 
L 194.697492 49.676863 
L 194.847777 49.583158 
L 196.52831 48.647813 
L 197.085655 48.393107 
L 197.30338 48.278957 
L 197.87189 47.993583 
L 198.376803 47.770395 
L 198.706575 47.618764 
L 199.271291 47.39302 
L 199.543002 47.29676 
L 204.751816 45.719111 
L 206.129469 45.441404 
L 206.563683 45.347699 
L 207.350323 45.198623 
L 208.485708 44.996732 
L 210.066455 44.759063 
L 210.181772 44.741173 
L 222.177205 43.65079 
L 227.466483 43.465936 
L 270.793768 43.049375 
L 280.917892 42.948855 
L 323.289202 42.931818 
L 323.289202 42.931818 
" style="fill:none;stroke:#c70d2c;stroke-dasharray:7.4,3.2;stroke-dashoffset:0;stroke-width:2;"/>
   </g>
   <g id="patch_3">
    <path d="M 52.875 241 
L 52.875 33.5 
" style="fill:none;stroke:#000000;stroke-linecap:square;stroke-linejoin:miter;stroke-width:0.8;"/>
   </g>
   <g id="patch_4">
    <path d="M 398.5 241 
L 398.5 33.5 
" style="fill:none;stroke:#000000;stroke-linecap:square;stroke-linejoin:miter;stroke-width:0.8;"/>
   </g>
   <g id="patch_5">
    <path d="M 52.875 241 
L 398.5 241 
" style="fill:none;stroke:#000000;stroke-linecap:square;stroke-linejoin:miter;stroke-width:0.8;"/>
   </g>
   <g id="patch_6">
    <path d="M 52.875 33.5 
L 398.5 33.5 
" style="fill:none;stroke:#000000;stroke-linecap:square;stroke-linejoin:miter;stroke-width:0.8;"/>
   </g>
   <g id="text_15">
    <!-- Cumulative Distribution Function: All Requests -->
    <defs>
     <path d="M 64.40625 67.28125 
L 64.40625 56.890625 
Q 59.421875 61.53125 53.78125 63.8125 
Q 48.140625 66.109375 41.796875 66.109375 
Q 29.296875 66.109375 22.65625 58.46875 
Q 16.015625 50.828125 16.015625 36.375 
Q 16.015625 21.96875 22.65625 14.328125 
Q 29.296875 6.6875 41.796875 6.6875 
Q 48.140625 6.6875 53.78125 8.984375 
Q 59.421875 11.28125 64.40625 15.921875 
L 64.40625 5.609375 
Q 59.234375 2.09375 53.4375 0.328125 
Q 47.65625 -1.421875 41.21875 -1.421875 
Q 24.65625 -1.421875 15.125 8.703125 
Q 5.609375 18.84375 5.609375 36.375 
Q 5.609375 53.953125 15.125 64.078125 
Q 24.65625 74.21875 41.21875 74.21875 
Q 47.75 74.21875 53.53125 72.484375 
Q 59.328125 70.75 64.40625 67.28125 
z
" id="DejaVuSans-67"/>
     <path d="M 2.984375 54.6875 
L 12.5 54.6875 
L 29.59375 8.796875 
L 46.6875 54.6875 
L 56.203125 54.6875 
L 35.6875 0 
L 23.484375 0 
z
" id="DejaVuSans-118"/>
     <path d="M 19.671875 64.796875 
L 19.671875 8.109375 
L 31.59375 8.109375 
Q 46.6875 8.109375 53.6875 14.9375 
Q 60.6875 21.78125 60.6875 36.53125 
Q 60.6875 51.171875 53.6875 57.984375 
Q 46.6875 64.796875 31.59375 64.796875 
z
M 9.8125 72.90625 
L 30.078125 72.90625 
Q 51.265625 72.90625 61.171875 64.09375 
Q 71.09375 55.28125 71.09375 36.53125 
Q 71.09375 17.671875 61.125 8.828125 
Q 51.171875 0 30.078125 0 
L 9.8125 0 
z
" id="DejaVuSans-68"/>
     <path d="M 11.71875 12.40625 
L 22.015625 12.40625 
L 22.015625 0 
L 11.71875 0 
z
M 11.71875 51.703125 
L 22.015625 51.703125 
L 22.015625 39.3125 
L 11.71875 39.3125 
z
" id="DejaVuSans-58"/>
     <path d="M 34.1875 63.1875 
L 20.796875 26.90625 
L 47.609375 26.90625 
z
M 28.609375 72.90625 
L 39.796875 72.90625 
L 67.578125 0 
L 57.328125 0 
L 50.6875 18.703125 
L 17.828125 18.703125 
L 11.1875 0 
L 0.78125 0 
z
" id="DejaVuSans-65"/>
    </defs>
    <g transform="translate(85.745937 27.5)scale(0.12 -0.12)">
     <use xlink:href="#DejaVuSans-67"/>
     <use x="69.824219" xlink:href="#DejaVuSans-117"/>
     <use x="133.203125" xlink:href="#DejaVuSans-109"/>
     <use x="230.615234" xlink:href="#DejaVuSans-117"/>
     <use x="293.994141" xlink:href="#DejaVuSans-108"/>
     <use x="321.777344" xlink:href="#DejaVuSans-97"/>
     <use x="383.056641" xlink:href="#DejaVuSans-116"/>
     <use x="422.265625" xlink:href="#DejaVuSans-105"/>
     <use x="450.048828" xlink:href="#DejaVuSans-118"/>
     <use x="509.228516" xlink:href="#DejaVuSans-101"/>
     <use x="570.751953" xlink:href="#DejaVuSans-32"/>
     <use x="602.539062" xlink:href="#DejaVuSans-68"/>
     <use x="679.541016" xlink:href="#DejaVuSans-105"/>
     <use x="707.324219" xlink:href="#DejaVuSans-115"/>
     <use x="759.423828" xlink:href="#DejaVuSans-116"/>
     <use x="798.632812" xlink:href="#DejaVuSans-114"/>
     <use x="839.746094" xlink:href="#DejaVuSans-105"/>
     <use x="867.529297" xlink:href="#DejaVuSans-98"/>
     <use x="931.005859" xlink:href="#DejaVuSans-117"/>
     <use x="994.384766" xlink:href="#DejaVuSans-116"/>
     <use x="1033.59375" xlink:href="#DejaVuSans-105"/>
     <use x="1061.376953" xlink:href="#DejaVuSans-111"/>
     <use x="1122.558594" xlink:href="#DejaVuSans-110"/>
     <use x="1185.9375" xlink:href="#DejaVuSans-32"/>
     <use x="1217.724609" xlink:href="#DejaVuSans-70"/>
     <use x="1275.166016" xlink:href="#DejaVuSans-117"/>
     <use x="1338.544922" xlink:href="#DejaVuSans-110"/>
     <use x="1401.923828" xlink:href="#DejaVuSans-99"/>
     <use x="1456.904297" xlink:href="#DejaVuSans-116"/>
     <use x="1496.113281" xlink:href="#DejaVuSans-105"/>
     <use x="1523.896484" xlink:href="#DejaVuSans-111"/>
     <use x="1585.078125" xlink:href="#DejaVuSans-110"/>
     <use x="1648.457031" xlink:href="#DejaVuSans-58"/>
     <use x="1682.148438" xlink:href="#DejaVuSans-32"/>
     <use x="1713.935547" xlink:href="#DejaVuSans-65"/>
     <use x="1782.34375" xlink:href="#DejaVuSans-108"/>
     <use x="1810.126953" xlink:href="#DejaVuSans-108"/>
     <use x="1837.910156" xlink:href="#DejaVuSans-32"/>
     <use x="1869.697266" xlink:href="#DejaVuSans-82"/>
     <use x="1939.117188" xlink:href="#DejaVuSans-101"/>
     <use x="2000.640625" xlink:href="#DejaVuSans-113"/>
     <use x="2064.117188" xlink:href="#DejaVuSans-117"/>
     <use x="2127.496094" xlink:href="#DejaVuSans-101"/>
     <use x="2189.019531" xlink:href="#DejaVuSans-115"/>
     <use x="2241.119141" xlink:href="#DejaVuSans-116"/>
     <use x="2280.328125" xlink:href="#DejaVuSans-115"/>
    </g>
   </g>
   <g id="legend_1">
    <g id="patch_7">
     <path d="M 292.7125 236 
L 391.5 236 
Q 393.5 236 393.5 234 
L 393.5 161.609375 
Q 393.5 159.609375 391.5 159.609375 
L 292.7125 159.609375 
Q 290.7125 159.609375 290.7125 161.609375 
L 290.7125 234 
Q 290.7125 236 292.7125 236 
z
" style="fill:#ffffff;opacity:0.8;stroke:#cccccc;stroke-linejoin:miter;"/>
    </g>
    <g id="line2d_77">
     <path d="M 294.7125 167.707813 
L 314.7125 167.707813 
" style="fill:none;stroke:#00aff0;stroke-dasharray:7.4,3.2;stroke-dashoffset:0;stroke-width:2;"/>
    </g>
    <g id="line2d_78"/>
    <g id="text_16">
     <!-- Ghostery -->
     <defs>
      <path d="M 59.515625 10.40625 
L 59.515625 29.984375 
L 43.40625 29.984375 
L 43.40625 38.09375 
L 69.28125 38.09375 
L 69.28125 6.78125 
Q 63.578125 2.734375 56.6875 0.65625 
Q 49.8125 -1.421875 42 -1.421875 
Q 24.90625 -1.421875 15.25 8.5625 
Q 5.609375 18.5625 5.609375 36.375 
Q 5.609375 54.25 15.25 64.234375 
Q 24.90625 74.21875 42 74.21875 
Q 49.125 74.21875 55.546875 72.453125 
Q 61.96875 70.703125 67.390625 67.28125 
L 67.390625 56.78125 
Q 61.921875 61.421875 55.765625 63.765625 
Q 49.609375 66.109375 42.828125 66.109375 
Q 29.4375 66.109375 22.71875 58.640625 
Q 16.015625 51.171875 16.015625 36.375 
Q 16.015625 21.625 22.71875 14.15625 
Q 29.4375 6.6875 42.828125 6.6875 
Q 48.046875 6.6875 52.140625 7.59375 
Q 56.25 8.5 59.515625 10.40625 
z
" id="DejaVuSans-71"/>
      <path d="M 54.890625 33.015625 
L 54.890625 0 
L 45.90625 0 
L 45.90625 32.71875 
Q 45.90625 40.484375 42.875 44.328125 
Q 39.84375 48.1875 33.796875 48.1875 
Q 26.515625 48.1875 22.3125 43.546875 
Q 18.109375 38.921875 18.109375 30.90625 
L 18.109375 0 
L 9.078125 0 
L 9.078125 75.984375 
L 18.109375 75.984375 
L 18.109375 46.1875 
Q 21.34375 51.125 25.703125 53.5625 
Q 30.078125 56 35.796875 56 
Q 45.21875 56 50.046875 50.171875 
Q 54.890625 44.34375 54.890625 33.015625 
z
" id="DejaVuSans-104"/>
      <path d="M 32.171875 -5.078125 
Q 28.375 -14.84375 24.75 -17.8125 
Q 21.140625 -20.796875 15.09375 -20.796875 
L 7.90625 -20.796875 
L 7.90625 -13.28125 
L 13.1875 -13.28125 
Q 16.890625 -13.28125 18.9375 -11.515625 
Q 21 -9.765625 23.484375 -3.21875 
L 25.09375 0.875 
L 2.984375 54.6875 
L 12.5 54.6875 
L 29.59375 11.921875 
L 46.6875 54.6875 
L 56.203125 54.6875 
z
" id="DejaVuSans-121"/>
     </defs>
     <g transform="translate(322.7125 171.207813)scale(0.1 -0.1)">
      <use xlink:href="#DejaVuSans-71"/>
      <use x="77.490234" xlink:href="#DejaVuSans-104"/>
      <use x="140.869141" xlink:href="#DejaVuSans-111"/>
      <use x="202.050781" xlink:href="#DejaVuSans-115"/>
      <use x="254.150391" xlink:href="#DejaVuSans-116"/>
      <use x="293.359375" xlink:href="#DejaVuSans-101"/>
      <use x="354.882812" xlink:href="#DejaVuSans-114"/>
      <use x="395.996094" xlink:href="#DejaVuSans-121"/>
     </g>
    </g>
    <g id="line2d_79">
     <path d="M 294.7125 182.385938 
L 314.7125 182.385938 
" style="fill:none;stroke:#800000;stroke-dasharray:7.4,3.2;stroke-dashoffset:0;stroke-width:2;"/>
    </g>
    <g id="line2d_80"/>
    <g id="text_17">
     <!-- uBlock Origin -->
     <defs>
      <path d="M 19.671875 34.8125 
L 19.671875 8.109375 
L 35.5 8.109375 
Q 43.453125 8.109375 47.28125 11.40625 
Q 51.125 14.703125 51.125 21.484375 
Q 51.125 28.328125 47.28125 31.5625 
Q 43.453125 34.8125 35.5 34.8125 
z
M 19.671875 64.796875 
L 19.671875 42.828125 
L 34.28125 42.828125 
Q 41.5 42.828125 45.03125 45.53125 
Q 48.578125 48.25 48.578125 53.8125 
Q 48.578125 59.328125 45.03125 62.0625 
Q 41.5 64.796875 34.28125 64.796875 
z
M 9.8125 72.90625 
L 35.015625 72.90625 
Q 46.296875 72.90625 52.390625 68.21875 
Q 58.5 63.53125 58.5 54.890625 
Q 58.5 48.1875 55.375 44.234375 
Q 52.25 40.28125 46.1875 39.3125 
Q 53.46875 37.75 57.5 32.78125 
Q 61.53125 27.828125 61.53125 20.40625 
Q 61.53125 10.640625 54.890625 5.3125 
Q 48.25 0 35.984375 0 
L 9.8125 0 
z
" id="DejaVuSans-66"/>
      <path d="M 9.078125 75.984375 
L 18.109375 75.984375 
L 18.109375 31.109375 
L 44.921875 54.6875 
L 56.390625 54.6875 
L 27.390625 29.109375 
L 57.625 0 
L 45.90625 0 
L 18.109375 26.703125 
L 18.109375 0 
L 9.078125 0 
z
" id="DejaVuSans-107"/>
      <path d="M 39.40625 66.21875 
Q 28.65625 66.21875 22.328125 58.203125 
Q 16.015625 50.203125 16.015625 36.375 
Q 16.015625 22.609375 22.328125 14.59375 
Q 28.65625 6.59375 39.40625 6.59375 
Q 50.140625 6.59375 56.421875 14.59375 
Q 62.703125 22.609375 62.703125 36.375 
Q 62.703125 50.203125 56.421875 58.203125 
Q 50.140625 66.21875 39.40625 66.21875 
z
M 39.40625 74.21875 
Q 54.734375 74.21875 63.90625 63.9375 
Q 73.09375 53.65625 73.09375 36.375 
Q 73.09375 19.140625 63.90625 8.859375 
Q 54.734375 -1.421875 39.40625 -1.421875 
Q 24.03125 -1.421875 14.8125 8.828125 
Q 5.609375 19.09375 5.609375 36.375 
Q 5.609375 53.65625 14.8125 63.9375 
Q 24.03125 74.21875 39.40625 74.21875 
z
" id="DejaVuSans-79"/>
     </defs>
     <g transform="translate(322.7125 185.885938)scale(0.1 -0.1)">
      <use xlink:href="#DejaVuSans-117"/>
      <use x="63.378906" xlink:href="#DejaVuSans-66"/>
      <use x="131.982422" xlink:href="#DejaVuSans-108"/>
      <use x="159.765625" xlink:href="#DejaVuSans-111"/>
      <use x="220.947266" xlink:href="#DejaVuSans-99"/>
      <use x="275.927734" xlink:href="#DejaVuSans-107"/>
      <use x="333.837891" xlink:href="#DejaVuSans-32"/>
      <use x="365.625" xlink:href="#DejaVuSans-79"/>
      <use x="444.335938" xlink:href="#DejaVuSans-114"/>
      <use x="485.449219" xlink:href="#DejaVuSans-105"/>
      <use x="513.232422" xlink:href="#DejaVuSans-103"/>
      <use x="576.708984" xlink:href="#DejaVuSans-105"/>
      <use x="604.492188" xlink:href="#DejaVuSans-110"/>
     </g>
    </g>
    <g id="line2d_81">
     <path d="M 294.7125 197.064063 
L 314.7125 197.064063 
" style="fill:none;stroke:#ff5500;stroke-dasharray:7.4,3.2;stroke-dashoffset:0;stroke-width:2;"/>
    </g>
    <g id="line2d_82"/>
    <g id="text_18">
     <!-- Brave -->
     <g transform="translate(322.7125 200.564063)scale(0.1 -0.1)">
      <use xlink:href="#DejaVuSans-66"/>
      <use x="68.603516" xlink:href="#DejaVuSans-114"/>
      <use x="109.716797" xlink:href="#DejaVuSans-97"/>
      <use x="170.996094" xlink:href="#DejaVuSans-118"/>
      <use x="230.175781" xlink:href="#DejaVuSans-101"/>
     </g>
    </g>
    <g id="line2d_83">
     <path d="M 294.7125 211.742188 
L 314.7125 211.742188 
" style="fill:none;stroke:#58b792;stroke-dasharray:7.4,3.2;stroke-dashoffset:0;stroke-width:2;"/>
    </g>
    <g id="line2d_84"/>
    <g id="text_19">
     <!-- DuckDuckGo -->
     <g transform="translate(322.7125 215.242188)scale(0.1 -0.1)">
      <use xlink:href="#DejaVuSans-68"/>
      <use x="77.001953" xlink:href="#DejaVuSans-117"/>
      <use x="140.380859" xlink:href="#DejaVuSans-99"/>
      <use x="195.361328" xlink:href="#DejaVuSans-107"/>
      <use x="253.271484" xlink:href="#DejaVuSans-68"/>
      <use x="330.273438" xlink:href="#DejaVuSans-117"/>
      <use x="393.652344" xlink:href="#DejaVuSans-99"/>
      <use x="448.632812" xlink:href="#DejaVuSans-107"/>
      <use x="506.542969" xlink:href="#DejaVuSans-71"/>
      <use x="584.033203" xlink:href="#DejaVuSans-111"/>
     </g>
    </g>
    <g id="line2d_85">
     <path d="M 294.7125 226.420313 
L 314.7125 226.420313 
" style="fill:none;stroke:#c70d2c;stroke-dasharray:7.4,3.2;stroke-dashoffset:0;stroke-width:2;"/>
    </g>
    <g id="line2d_86"/>
    <g id="text_20">
     <!-- Adblock Plus -->
     <defs>
      <path d="M 45.40625 46.390625 
L 45.40625 75.984375 
L 54.390625 75.984375 
L 54.390625 0 
L 45.40625 0 
L 45.40625 8.203125 
Q 42.578125 3.328125 38.25 0.953125 
Q 33.9375 -1.421875 27.875 -1.421875 
Q 17.96875 -1.421875 11.734375 6.484375 
Q 5.515625 14.40625 5.515625 27.296875 
Q 5.515625 40.1875 11.734375 48.09375 
Q 17.96875 56 27.875 56 
Q 33.9375 56 38.25 53.625 
Q 42.578125 51.265625 45.40625 46.390625 
z
M 14.796875 27.296875 
Q 14.796875 17.390625 18.875 11.75 
Q 22.953125 6.109375 30.078125 6.109375 
Q 37.203125 6.109375 41.296875 11.75 
Q 45.40625 17.390625 45.40625 27.296875 
Q 45.40625 37.203125 41.296875 42.84375 
Q 37.203125 48.484375 30.078125 48.484375 
Q 22.953125 48.484375 18.875 42.84375 
Q 14.796875 37.203125 14.796875 27.296875 
z
" id="DejaVuSans-100"/>
      <path d="M 19.671875 64.796875 
L 19.671875 37.40625 
L 32.078125 37.40625 
Q 38.96875 37.40625 42.71875 40.96875 
Q 46.484375 44.53125 46.484375 51.125 
Q 46.484375 57.671875 42.71875 61.234375 
Q 38.96875 64.796875 32.078125 64.796875 
z
M 9.8125 72.90625 
L 32.078125 72.90625 
Q 44.34375 72.90625 50.609375 67.359375 
Q 56.890625 61.8125 56.890625 51.125 
Q 56.890625 40.328125 50.609375 34.8125 
Q 44.34375 29.296875 32.078125 29.296875 
L 19.671875 29.296875 
L 19.671875 0 
L 9.8125 0 
z
" id="DejaVuSans-80"/>
     </defs>
     <g transform="translate(322.7125 229.920313)scale(0.1 -0.1)">
      <use xlink:href="#DejaVuSans-65"/>
      <use x="68.392578" xlink:href="#DejaVuSans-100"/>
      <use x="131.869141" xlink:href="#DejaVuSans-98"/>
      <use x="195.345703" xlink:href="#DejaVuSans-108"/>
      <use x="223.128906" xlink:href="#DejaVuSans-111"/>
      <use x="284.310547" xlink:href="#DejaVuSans-99"/>
      <use x="339.291016" xlink:href="#DejaVuSans-107"/>
      <use x="397.201172" xlink:href="#DejaVuSans-32"/>
      <use x="428.988281" xlink:href="#DejaVuSans-80"/>
      <use x="489.291016" xlink:href="#DejaVuSans-108"/>
      <use x="517.074219" xlink:href="#DejaVuSans-117"/>
      <use x="580.453125" xlink:href="#DejaVuSans-115"/>
     </g>
    </g>
   </g>
  </g>
 </g>
 <defs>
  <clipPath id="p72887df936">
   <rect height="207.5" width="345.625" x="52.875" y="33.5"/>
  </clipPath>
 </defs>
</svg>
