<?xml version="1.0" encoding="utf-8" standalone="no"?>
<!DOCTYPE svg PUBLIC "-//W3C//DTD SVG 1.1//EN"
  "http://www.w3.org/Graphics/SVG/1.1/DTD/svg11.dtd">
<!-- Created with matplotlib (https://matplotlib.org/) -->
<svg height="288pt" version="1.1" viewBox="0 0 432 288" width="432pt" xmlns="http://www.w3.org/2000/svg" xmlns:xlink="http://www.w3.org/1999/xlink">
 <defs>
  <style type="text/css">
*{stroke-linecap:butt;stroke-linejoin:round;}
  </style>
 </defs>
 <g id="figure_1">
  <g id="patch_1">
   <path d="M 0 288 
L 432 288 
L 432 0 
L 0 0 
z
" style="fill:#ffffff;"/>
  </g>
  <g id="axes_1">
   <g id="patch_2">
    <path d="M 52.875 241 
L 398.5 241 
L 398.5 33.5 
L 52.875 33.5 
z
" style="fill:#ffffff;"/>
   </g>
   <g id="matplotlib.axis_1">
    <g id="xtick_1">
     <g id="line2d_1">
      <path clip-path="url(#pd3e820b904)" d="M 82.653227 241 
L 82.653227 33.5 
" style="fill:none;stroke:#b0b0b0;stroke-dasharray:3.7,1.6;stroke-dashoffset:0;"/>
     </g>
     <g id="line2d_2">
      <defs>
       <path d="M 0 0 
L 0 3.5 
" id="m36ebf67546" style="stroke:#000000;stroke-width:0.8;"/>
      </defs>
      <g>
       <use style="stroke:#000000;stroke-width:0.8;" x="82.653227" xlink:href="#m36ebf67546" y="241"/>
      </g>
     </g>
     <g id="text_1">
      <!-- $\mathdefault{10^{-3}}$ -->
      <defs>
       <path d="M 12.40625 8.296875 
L 28.515625 8.296875 
L 28.515625 63.921875 
L 10.984375 60.40625 
L 10.984375 69.390625 
L 28.421875 72.90625 
L 38.28125 72.90625 
L 38.28125 8.296875 
L 54.390625 8.296875 
L 54.390625 0 
L 12.40625 0 
z
" id="DejaVuSans-49"/>
       <path d="M 31.78125 66.40625 
Q 24.171875 66.40625 20.328125 58.90625 
Q 16.5 51.421875 16.5 36.375 
Q 16.5 21.390625 20.328125 13.890625 
Q 24.171875 6.390625 31.78125 6.390625 
Q 39.453125 6.390625 43.28125 13.890625 
Q 47.125 21.390625 47.125 36.375 
Q 47.125 51.421875 43.28125 58.90625 
Q 39.453125 66.40625 31.78125 66.40625 
z
M 31.78125 74.21875 
Q 44.046875 74.21875 50.515625 64.515625 
Q 56.984375 54.828125 56.984375 36.375 
Q 56.984375 17.96875 50.515625 8.265625 
Q 44.046875 -1.421875 31.78125 -1.421875 
Q 19.53125 -1.421875 13.0625 8.265625 
Q 6.59375 17.96875 6.59375 36.375 
Q 6.59375 54.828125 13.0625 64.515625 
Q 19.53125 74.21875 31.78125 74.21875 
z
" id="DejaVuSans-48"/>
       <path d="M 10.59375 35.5 
L 73.1875 35.5 
L 73.1875 27.203125 
L 10.59375 27.203125 
z
" id="DejaVuSans-8722"/>
       <path d="M 40.578125 39.3125 
Q 47.65625 37.796875 51.625 33 
Q 55.609375 28.21875 55.609375 21.1875 
Q 55.609375 10.40625 48.1875 4.484375 
Q 40.765625 -1.421875 27.09375 -1.421875 
Q 22.515625 -1.421875 17.65625 -0.515625 
Q 12.796875 0.390625 7.625 2.203125 
L 7.625 11.71875 
Q 11.71875 9.328125 16.59375 8.109375 
Q 21.484375 6.890625 26.8125 6.890625 
Q 36.078125 6.890625 40.9375 10.546875 
Q 45.796875 14.203125 45.796875 21.1875 
Q 45.796875 27.640625 41.28125 31.265625 
Q 36.765625 34.90625 28.71875 34.90625 
L 20.21875 34.90625 
L 20.21875 43.015625 
L 29.109375 43.015625 
Q 36.375 43.015625 40.234375 45.921875 
Q 44.09375 48.828125 44.09375 54.296875 
Q 44.09375 59.90625 40.109375 62.90625 
Q 36.140625 65.921875 28.71875 65.921875 
Q 24.65625 65.921875 20.015625 65.03125 
Q 15.375 64.15625 9.8125 62.3125 
L 9.8125 71.09375 
Q 15.4375 72.65625 20.34375 73.4375 
Q 25.25 74.21875 29.59375 74.21875 
Q 40.828125 74.21875 47.359375 69.109375 
Q 53.90625 64.015625 53.90625 55.328125 
Q 53.90625 49.265625 50.4375 45.09375 
Q 46.96875 40.921875 40.578125 39.3125 
z
" id="DejaVuSans-51"/>
      </defs>
      <g transform="translate(70.903227 255.598438)scale(0.1 -0.1)">
       <use transform="translate(0 0.765625)" xlink:href="#DejaVuSans-49"/>
       <use transform="translate(63.623047 0.765625)" xlink:href="#DejaVuSans-48"/>
       <use transform="translate(128.203125 39.046875)scale(0.7)" xlink:href="#DejaVuSans-8722"/>
       <use transform="translate(186.855469 39.046875)scale(0.7)" xlink:href="#DejaVuSans-51"/>
      </g>
     </g>
    </g>
    <g id="xtick_2">
     <g id="line2d_3">
      <path clip-path="url(#pd3e820b904)" d="M 148.843265 241 
L 148.843265 33.5 
" style="fill:none;stroke:#b0b0b0;stroke-dasharray:3.7,1.6;stroke-dashoffset:0;"/>
     </g>
     <g id="line2d_4">
      <g>
       <use style="stroke:#000000;stroke-width:0.8;" x="148.843265" xlink:href="#m36ebf67546" y="241"/>
      </g>
     </g>
     <g id="text_2">
      <!-- $\mathdefault{10^{-2}}$ -->
      <defs>
       <path d="M 19.1875 8.296875 
L 53.609375 8.296875 
L 53.609375 0 
L 7.328125 0 
L 7.328125 8.296875 
Q 12.9375 14.109375 22.625 23.890625 
Q 32.328125 33.6875 34.8125 36.53125 
Q 39.546875 41.84375 41.421875 45.53125 
Q 43.3125 49.21875 43.3125 52.78125 
Q 43.3125 58.59375 39.234375 62.25 
Q 35.15625 65.921875 28.609375 65.921875 
Q 23.96875 65.921875 18.8125 64.3125 
Q 13.671875 62.703125 7.8125 59.421875 
L 7.8125 69.390625 
Q 13.765625 71.78125 18.9375 73 
Q 24.125 74.21875 28.421875 74.21875 
Q 39.75 74.21875 46.484375 68.546875 
Q 53.21875 62.890625 53.21875 53.421875 
Q 53.21875 48.921875 51.53125 44.890625 
Q 49.859375 40.875 45.40625 35.40625 
Q 44.1875 33.984375 37.640625 27.21875 
Q 31.109375 20.453125 19.1875 8.296875 
z
" id="DejaVuSans-50"/>
      </defs>
      <g transform="translate(137.093265 255.598438)scale(0.1 -0.1)">
       <use transform="translate(0 0.765625)" xlink:href="#DejaVuSans-49"/>
       <use transform="translate(63.623047 0.765625)" xlink:href="#DejaVuSans-48"/>
       <use transform="translate(128.203125 39.046875)scale(0.7)" xlink:href="#DejaVuSans-8722"/>
       <use transform="translate(186.855469 39.046875)scale(0.7)" xlink:href="#DejaVuSans-50"/>
      </g>
     </g>
    </g>
    <g id="xtick_3">
     <g id="line2d_5">
      <path clip-path="url(#pd3e820b904)" d="M 215.033303 241 
L 215.033303 33.5 
" style="fill:none;stroke:#b0b0b0;stroke-dasharray:3.7,1.6;stroke-dashoffset:0;"/>
     </g>
     <g id="line2d_6">
      <g>
       <use style="stroke:#000000;stroke-width:0.8;" x="215.033303" xlink:href="#m36ebf67546" y="241"/>
      </g>
     </g>
     <g id="text_3">
      <!-- $\mathdefault{10^{-1}}$ -->
      <g transform="translate(203.283303 255.598438)scale(0.1 -0.1)">
       <use transform="translate(0 0.684375)" xlink:href="#DejaVuSans-49"/>
       <use transform="translate(63.623047 0.684375)" xlink:href="#DejaVuSans-48"/>
       <use transform="translate(128.203125 38.965625)scale(0.7)" xlink:href="#DejaVuSans-8722"/>
       <use transform="translate(186.855469 38.965625)scale(0.7)" xlink:href="#DejaVuSans-49"/>
      </g>
     </g>
    </g>
    <g id="xtick_4">
     <g id="line2d_7">
      <path clip-path="url(#pd3e820b904)" d="M 281.223341 241 
L 281.223341 33.5 
" style="fill:none;stroke:#b0b0b0;stroke-dasharray:3.7,1.6;stroke-dashoffset:0;"/>
     </g>
     <g id="line2d_8">
      <g>
       <use style="stroke:#000000;stroke-width:0.8;" x="281.223341" xlink:href="#m36ebf67546" y="241"/>
      </g>
     </g>
     <g id="text_4">
      <!-- $\mathdefault{10^{0}}$ -->
      <g transform="translate(272.423341 255.598438)scale(0.1 -0.1)">
       <use transform="translate(0 0.765625)" xlink:href="#DejaVuSans-49"/>
       <use transform="translate(63.623047 0.765625)" xlink:href="#DejaVuSans-48"/>
       <use transform="translate(128.203125 39.046875)scale(0.7)" xlink:href="#DejaVuSans-48"/>
      </g>
     </g>
    </g>
    <g id="xtick_5">
     <g id="line2d_9">
      <path clip-path="url(#pd3e820b904)" d="M 347.413379 241 
L 347.413379 33.5 
" style="fill:none;stroke:#b0b0b0;stroke-dasharray:3.7,1.6;stroke-dashoffset:0;"/>
     </g>
     <g id="line2d_10">
      <g>
       <use style="stroke:#000000;stroke-width:0.8;" x="347.413379" xlink:href="#m36ebf67546" y="241"/>
      </g>
     </g>
     <g id="text_5">
      <!-- $\mathdefault{10^{1}}$ -->
      <g transform="translate(338.613379 255.598438)scale(0.1 -0.1)">
       <use transform="translate(0 0.684375)" xlink:href="#DejaVuSans-49"/>
       <use transform="translate(63.623047 0.684375)" xlink:href="#DejaVuSans-48"/>
       <use transform="translate(128.203125 38.965625)scale(0.7)" xlink:href="#DejaVuSans-49"/>
      </g>
     </g>
    </g>
    <g id="xtick_6">
     <g id="line2d_11">
      <defs>
       <path d="M 0 0 
L 0 2 
" id="m218bf9dfad" style="stroke:#000000;stroke-width:0.6;"/>
      </defs>
      <g>
       <use style="stroke:#000000;stroke-width:0.6;" x="56.313562" xlink:href="#m218bf9dfad" y="241"/>
      </g>
     </g>
    </g>
    <g id="xtick_7">
     <g id="line2d_12">
      <g>
       <use style="stroke:#000000;stroke-width:0.6;" x="62.72804" xlink:href="#m218bf9dfad" y="241"/>
      </g>
     </g>
    </g>
    <g id="xtick_8">
     <g id="line2d_13">
      <g>
       <use style="stroke:#000000;stroke-width:0.6;" x="67.969049" xlink:href="#m218bf9dfad" y="241"/>
      </g>
     </g>
    </g>
    <g id="xtick_9">
     <g id="line2d_14">
      <g>
       <use style="stroke:#000000;stroke-width:0.6;" x="72.40026" xlink:href="#m218bf9dfad" y="241"/>
      </g>
     </g>
    </g>
    <g id="xtick_10">
     <g id="line2d_15">
      <g>
       <use style="stroke:#000000;stroke-width:0.6;" x="76.238749" xlink:href="#m218bf9dfad" y="241"/>
      </g>
     </g>
    </g>
    <g id="xtick_11">
     <g id="line2d_16">
      <g>
       <use style="stroke:#000000;stroke-width:0.6;" x="79.624537" xlink:href="#m218bf9dfad" y="241"/>
      </g>
     </g>
    </g>
    <g id="xtick_12">
     <g id="line2d_17">
      <g>
       <use style="stroke:#000000;stroke-width:0.6;" x="102.578413" xlink:href="#m218bf9dfad" y="241"/>
      </g>
     </g>
    </g>
    <g id="xtick_13">
     <g id="line2d_18">
      <g>
       <use style="stroke:#000000;stroke-width:0.6;" x="114.233901" xlink:href="#m218bf9dfad" y="241"/>
      </g>
     </g>
    </g>
    <g id="xtick_14">
     <g id="line2d_19">
      <g>
       <use style="stroke:#000000;stroke-width:0.6;" x="122.5036" xlink:href="#m218bf9dfad" y="241"/>
      </g>
     </g>
    </g>
    <g id="xtick_15">
     <g id="line2d_20">
      <g>
       <use style="stroke:#000000;stroke-width:0.6;" x="128.918078" xlink:href="#m218bf9dfad" y="241"/>
      </g>
     </g>
    </g>
    <g id="xtick_16">
     <g id="line2d_21">
      <g>
       <use style="stroke:#000000;stroke-width:0.6;" x="134.159088" xlink:href="#m218bf9dfad" y="241"/>
      </g>
     </g>
    </g>
    <g id="xtick_17">
     <g id="line2d_22">
      <g>
       <use style="stroke:#000000;stroke-width:0.6;" x="138.590298" xlink:href="#m218bf9dfad" y="241"/>
      </g>
     </g>
    </g>
    <g id="xtick_18">
     <g id="line2d_23">
      <g>
       <use style="stroke:#000000;stroke-width:0.6;" x="142.428787" xlink:href="#m218bf9dfad" y="241"/>
      </g>
     </g>
    </g>
    <g id="xtick_19">
     <g id="line2d_24">
      <g>
       <use style="stroke:#000000;stroke-width:0.6;" x="145.814575" xlink:href="#m218bf9dfad" y="241"/>
      </g>
     </g>
    </g>
    <g id="xtick_20">
     <g id="line2d_25">
      <g>
       <use style="stroke:#000000;stroke-width:0.6;" x="168.768452" xlink:href="#m218bf9dfad" y="241"/>
      </g>
     </g>
    </g>
    <g id="xtick_21">
     <g id="line2d_26">
      <g>
       <use style="stroke:#000000;stroke-width:0.6;" x="180.423939" xlink:href="#m218bf9dfad" y="241"/>
      </g>
     </g>
    </g>
    <g id="xtick_22">
     <g id="line2d_27">
      <g>
       <use style="stroke:#000000;stroke-width:0.6;" x="188.693639" xlink:href="#m218bf9dfad" y="241"/>
      </g>
     </g>
    </g>
    <g id="xtick_23">
     <g id="line2d_28">
      <g>
       <use style="stroke:#000000;stroke-width:0.6;" x="195.108116" xlink:href="#m218bf9dfad" y="241"/>
      </g>
     </g>
    </g>
    <g id="xtick_24">
     <g id="line2d_29">
      <g>
       <use style="stroke:#000000;stroke-width:0.6;" x="200.349126" xlink:href="#m218bf9dfad" y="241"/>
      </g>
     </g>
    </g>
    <g id="xtick_25">
     <g id="line2d_30">
      <g>
       <use style="stroke:#000000;stroke-width:0.6;" x="204.780336" xlink:href="#m218bf9dfad" y="241"/>
      </g>
     </g>
    </g>
    <g id="xtick_26">
     <g id="line2d_31">
      <g>
       <use style="stroke:#000000;stroke-width:0.6;" x="208.618825" xlink:href="#m218bf9dfad" y="241"/>
      </g>
     </g>
    </g>
    <g id="xtick_27">
     <g id="line2d_32">
      <g>
       <use style="stroke:#000000;stroke-width:0.6;" x="212.004613" xlink:href="#m218bf9dfad" y="241"/>
      </g>
     </g>
    </g>
    <g id="xtick_28">
     <g id="line2d_33">
      <g>
       <use style="stroke:#000000;stroke-width:0.6;" x="234.95849" xlink:href="#m218bf9dfad" y="241"/>
      </g>
     </g>
    </g>
    <g id="xtick_29">
     <g id="line2d_34">
      <g>
       <use style="stroke:#000000;stroke-width:0.6;" x="246.613977" xlink:href="#m218bf9dfad" y="241"/>
      </g>
     </g>
    </g>
    <g id="xtick_30">
     <g id="line2d_35">
      <g>
       <use style="stroke:#000000;stroke-width:0.6;" x="254.883677" xlink:href="#m218bf9dfad" y="241"/>
      </g>
     </g>
    </g>
    <g id="xtick_31">
     <g id="line2d_36">
      <g>
       <use style="stroke:#000000;stroke-width:0.6;" x="261.298154" xlink:href="#m218bf9dfad" y="241"/>
      </g>
     </g>
    </g>
    <g id="xtick_32">
     <g id="line2d_37">
      <g>
       <use style="stroke:#000000;stroke-width:0.6;" x="266.539164" xlink:href="#m218bf9dfad" y="241"/>
      </g>
     </g>
    </g>
    <g id="xtick_33">
     <g id="line2d_38">
      <g>
       <use style="stroke:#000000;stroke-width:0.6;" x="270.970375" xlink:href="#m218bf9dfad" y="241"/>
      </g>
     </g>
    </g>
    <g id="xtick_34">
     <g id="line2d_39">
      <g>
       <use style="stroke:#000000;stroke-width:0.6;" x="274.808864" xlink:href="#m218bf9dfad" y="241"/>
      </g>
     </g>
    </g>
    <g id="xtick_35">
     <g id="line2d_40">
      <g>
       <use style="stroke:#000000;stroke-width:0.6;" x="278.194651" xlink:href="#m218bf9dfad" y="241"/>
      </g>
     </g>
    </g>
    <g id="xtick_36">
     <g id="line2d_41">
      <g>
       <use style="stroke:#000000;stroke-width:0.6;" x="301.148528" xlink:href="#m218bf9dfad" y="241"/>
      </g>
     </g>
    </g>
    <g id="xtick_37">
     <g id="line2d_42">
      <g>
       <use style="stroke:#000000;stroke-width:0.6;" x="312.804015" xlink:href="#m218bf9dfad" y="241"/>
      </g>
     </g>
    </g>
    <g id="xtick_38">
     <g id="line2d_43">
      <g>
       <use style="stroke:#000000;stroke-width:0.6;" x="321.073715" xlink:href="#m218bf9dfad" y="241"/>
      </g>
     </g>
    </g>
    <g id="xtick_39">
     <g id="line2d_44">
      <g>
       <use style="stroke:#000000;stroke-width:0.6;" x="327.488192" xlink:href="#m218bf9dfad" y="241"/>
      </g>
     </g>
    </g>
    <g id="xtick_40">
     <g id="line2d_45">
      <g>
       <use style="stroke:#000000;stroke-width:0.6;" x="332.729202" xlink:href="#m218bf9dfad" y="241"/>
      </g>
     </g>
    </g>
    <g id="xtick_41">
     <g id="line2d_46">
      <g>
       <use style="stroke:#000000;stroke-width:0.6;" x="337.160413" xlink:href="#m218bf9dfad" y="241"/>
      </g>
     </g>
    </g>
    <g id="xtick_42">
     <g id="line2d_47">
      <g>
       <use style="stroke:#000000;stroke-width:0.6;" x="340.998902" xlink:href="#m218bf9dfad" y="241"/>
      </g>
     </g>
    </g>
    <g id="xtick_43">
     <g id="line2d_48">
      <g>
       <use style="stroke:#000000;stroke-width:0.6;" x="344.384689" xlink:href="#m218bf9dfad" y="241"/>
      </g>
     </g>
    </g>
    <g id="xtick_44">
     <g id="line2d_49">
      <g>
       <use style="stroke:#000000;stroke-width:0.6;" x="367.338566" xlink:href="#m218bf9dfad" y="241"/>
      </g>
     </g>
    </g>
    <g id="xtick_45">
     <g id="line2d_50">
      <g>
       <use style="stroke:#000000;stroke-width:0.6;" x="378.994053" xlink:href="#m218bf9dfad" y="241"/>
      </g>
     </g>
    </g>
    <g id="xtick_46">
     <g id="line2d_51">
      <g>
       <use style="stroke:#000000;stroke-width:0.6;" x="387.263753" xlink:href="#m218bf9dfad" y="241"/>
      </g>
     </g>
    </g>
    <g id="xtick_47">
     <g id="line2d_52">
      <g>
       <use style="stroke:#000000;stroke-width:0.6;" x="393.678231" xlink:href="#m218bf9dfad" y="241"/>
      </g>
     </g>
    </g>
    <g id="xtick_48">
     <g id="line2d_53">
      <g>
       <use style="stroke:#000000;stroke-width:0.6;" x="398.91924" xlink:href="#m218bf9dfad" y="241"/>
      </g>
     </g>
    </g>
    <g id="text_6">
     <!-- Time (ms)  -->
     <defs>
      <path d="M -0.296875 72.90625 
L 61.375 72.90625 
L 61.375 64.59375 
L 35.5 64.59375 
L 35.5 0 
L 25.59375 0 
L 25.59375 64.59375 
L -0.296875 64.59375 
z
" id="DejaVuSans-84"/>
      <path d="M 9.421875 54.6875 
L 18.40625 54.6875 
L 18.40625 0 
L 9.421875 0 
z
M 9.421875 75.984375 
L 18.40625 75.984375 
L 18.40625 64.59375 
L 9.421875 64.59375 
z
" id="DejaVuSans-105"/>
      <path d="M 52 44.1875 
Q 55.375 50.25 60.0625 53.125 
Q 64.75 56 71.09375 56 
Q 79.640625 56 84.28125 50.015625 
Q 88.921875 44.046875 88.921875 33.015625 
L 88.921875 0 
L 79.890625 0 
L 79.890625 32.71875 
Q 79.890625 40.578125 77.09375 44.375 
Q 74.3125 48.1875 68.609375 48.1875 
Q 61.625 48.1875 57.5625 43.546875 
Q 53.515625 38.921875 53.515625 30.90625 
L 53.515625 0 
L 44.484375 0 
L 44.484375 32.71875 
Q 44.484375 40.625 41.703125 44.40625 
Q 38.921875 48.1875 33.109375 48.1875 
Q 26.21875 48.1875 22.15625 43.53125 
Q 18.109375 38.875 18.109375 30.90625 
L 18.109375 0 
L 9.078125 0 
L 9.078125 54.6875 
L 18.109375 54.6875 
L 18.109375 46.1875 
Q 21.1875 51.21875 25.484375 53.609375 
Q 29.78125 56 35.6875 56 
Q 41.65625 56 45.828125 52.96875 
Q 50 49.953125 52 44.1875 
z
" id="DejaVuSans-109"/>
      <path d="M 56.203125 29.59375 
L 56.203125 25.203125 
L 14.890625 25.203125 
Q 15.484375 15.921875 20.484375 11.0625 
Q 25.484375 6.203125 34.421875 6.203125 
Q 39.59375 6.203125 44.453125 7.46875 
Q 49.3125 8.734375 54.109375 11.28125 
L 54.109375 2.78125 
Q 49.265625 0.734375 44.1875 -0.34375 
Q 39.109375 -1.421875 33.890625 -1.421875 
Q 20.796875 -1.421875 13.15625 6.1875 
Q 5.515625 13.8125 5.515625 26.8125 
Q 5.515625 40.234375 12.765625 48.109375 
Q 20.015625 56 32.328125 56 
Q 43.359375 56 49.78125 48.890625 
Q 56.203125 41.796875 56.203125 29.59375 
z
M 47.21875 32.234375 
Q 47.125 39.59375 43.09375 43.984375 
Q 39.0625 48.390625 32.421875 48.390625 
Q 24.90625 48.390625 20.390625 44.140625 
Q 15.875 39.890625 15.1875 32.171875 
z
" id="DejaVuSans-101"/>
      <path id="DejaVuSans-32"/>
      <path d="M 31 75.875 
Q 24.46875 64.65625 21.28125 53.65625 
Q 18.109375 42.671875 18.109375 31.390625 
Q 18.109375 20.125 21.3125 9.0625 
Q 24.515625 -2 31 -13.1875 
L 23.1875 -13.1875 
Q 15.875 -1.703125 12.234375 9.375 
Q 8.59375 20.453125 8.59375 31.390625 
Q 8.59375 42.28125 12.203125 53.3125 
Q 15.828125 64.359375 23.1875 75.875 
z
" id="DejaVuSans-40"/>
      <path d="M 44.28125 53.078125 
L 44.28125 44.578125 
Q 40.484375 46.53125 36.375 47.5 
Q 32.28125 48.484375 27.875 48.484375 
Q 21.1875 48.484375 17.84375 46.4375 
Q 14.5 44.390625 14.5 40.28125 
Q 14.5 37.15625 16.890625 35.375 
Q 19.28125 33.59375 26.515625 31.984375 
L 29.59375 31.296875 
Q 39.15625 29.25 43.1875 25.515625 
Q 47.21875 21.78125 47.21875 15.09375 
Q 47.21875 7.46875 41.1875 3.015625 
Q 35.15625 -1.421875 24.609375 -1.421875 
Q 20.21875 -1.421875 15.453125 -0.5625 
Q 10.6875 0.296875 5.421875 2 
L 5.421875 11.28125 
Q 10.40625 8.6875 15.234375 7.390625 
Q 20.0625 6.109375 24.8125 6.109375 
Q 31.15625 6.109375 34.5625 8.28125 
Q 37.984375 10.453125 37.984375 14.40625 
Q 37.984375 18.0625 35.515625 20.015625 
Q 33.0625 21.96875 24.703125 23.78125 
L 21.578125 24.515625 
Q 13.234375 26.265625 9.515625 29.90625 
Q 5.8125 33.546875 5.8125 39.890625 
Q 5.8125 47.609375 11.28125 51.796875 
Q 16.75 56 26.8125 56 
Q 31.78125 56 36.171875 55.265625 
Q 40.578125 54.546875 44.28125 53.078125 
z
" id="DejaVuSans-115"/>
      <path d="M 8.015625 75.875 
L 15.828125 75.875 
Q 23.140625 64.359375 26.78125 53.3125 
Q 30.421875 42.28125 30.421875 31.390625 
Q 30.421875 20.453125 26.78125 9.375 
Q 23.140625 -1.703125 15.828125 -13.1875 
L 8.015625 -13.1875 
Q 14.5 -2 17.703125 9.0625 
Q 20.90625 20.125 20.90625 31.390625 
Q 20.90625 42.671875 17.703125 53.65625 
Q 14.5 64.65625 8.015625 75.875 
z
" id="DejaVuSans-41"/>
     </defs>
     <g transform="translate(198.745313 269.276563)scale(0.1 -0.1)">
      <use xlink:href="#DejaVuSans-84"/>
      <use x="61.037109" xlink:href="#DejaVuSans-105"/>
      <use x="88.820312" xlink:href="#DejaVuSans-109"/>
      <use x="186.232422" xlink:href="#DejaVuSans-101"/>
      <use x="247.755859" xlink:href="#DejaVuSans-32"/>
      <use x="279.542969" xlink:href="#DejaVuSans-40"/>
      <use x="318.556641" xlink:href="#DejaVuSans-109"/>
      <use x="415.96875" xlink:href="#DejaVuSans-115"/>
      <use x="468.068359" xlink:href="#DejaVuSans-41"/>
      <use x="507.082031" xlink:href="#DejaVuSans-32"/>
     </g>
     <!--  log (base 10) -->
     <defs>
      <path d="M 9.421875 75.984375 
L 18.40625 75.984375 
L 18.40625 0 
L 9.421875 0 
z
" id="DejaVuSans-108"/>
      <path d="M 30.609375 48.390625 
Q 23.390625 48.390625 19.1875 42.75 
Q 14.984375 37.109375 14.984375 27.296875 
Q 14.984375 17.484375 19.15625 11.84375 
Q 23.34375 6.203125 30.609375 6.203125 
Q 37.796875 6.203125 41.984375 11.859375 
Q 46.1875 17.53125 46.1875 27.296875 
Q 46.1875 37.015625 41.984375 42.703125 
Q 37.796875 48.390625 30.609375 48.390625 
z
M 30.609375 56 
Q 42.328125 56 49.015625 48.375 
Q 55.71875 40.765625 55.71875 27.296875 
Q 55.71875 13.875 49.015625 6.21875 
Q 42.328125 -1.421875 30.609375 -1.421875 
Q 18.84375 -1.421875 12.171875 6.21875 
Q 5.515625 13.875 5.515625 27.296875 
Q 5.515625 40.765625 12.171875 48.375 
Q 18.84375 56 30.609375 56 
z
" id="DejaVuSans-111"/>
      <path d="M 45.40625 27.984375 
Q 45.40625 37.75 41.375 43.109375 
Q 37.359375 48.484375 30.078125 48.484375 
Q 22.859375 48.484375 18.828125 43.109375 
Q 14.796875 37.75 14.796875 27.984375 
Q 14.796875 18.265625 18.828125 12.890625 
Q 22.859375 7.515625 30.078125 7.515625 
Q 37.359375 7.515625 41.375 12.890625 
Q 45.40625 18.265625 45.40625 27.984375 
z
M 54.390625 6.78125 
Q 54.390625 -7.171875 48.1875 -13.984375 
Q 42 -20.796875 29.203125 -20.796875 
Q 24.46875 -20.796875 20.265625 -20.09375 
Q 16.0625 -19.390625 12.109375 -17.921875 
L 12.109375 -9.1875 
Q 16.0625 -11.328125 19.921875 -12.34375 
Q 23.78125 -13.375 27.78125 -13.375 
Q 36.625 -13.375 41.015625 -8.765625 
Q 45.40625 -4.15625 45.40625 5.171875 
L 45.40625 9.625 
Q 42.625 4.78125 38.28125 2.390625 
Q 33.9375 0 27.875 0 
Q 17.828125 0 11.671875 7.65625 
Q 5.515625 15.328125 5.515625 27.984375 
Q 5.515625 40.671875 11.671875 48.328125 
Q 17.828125 56 27.875 56 
Q 33.9375 56 38.28125 53.609375 
Q 42.625 51.21875 45.40625 46.390625 
L 45.40625 54.6875 
L 54.390625 54.6875 
z
" id="DejaVuSans-103"/>
      <path d="M 48.6875 27.296875 
Q 48.6875 37.203125 44.609375 42.84375 
Q 40.53125 48.484375 33.40625 48.484375 
Q 26.265625 48.484375 22.1875 42.84375 
Q 18.109375 37.203125 18.109375 27.296875 
Q 18.109375 17.390625 22.1875 11.75 
Q 26.265625 6.109375 33.40625 6.109375 
Q 40.53125 6.109375 44.609375 11.75 
Q 48.6875 17.390625 48.6875 27.296875 
z
M 18.109375 46.390625 
Q 20.953125 51.265625 25.265625 53.625 
Q 29.59375 56 35.59375 56 
Q 45.5625 56 51.78125 48.09375 
Q 58.015625 40.1875 58.015625 27.296875 
Q 58.015625 14.40625 51.78125 6.484375 
Q 45.5625 -1.421875 35.59375 -1.421875 
Q 29.59375 -1.421875 25.265625 0.953125 
Q 20.953125 3.328125 18.109375 8.203125 
L 18.109375 0 
L 9.078125 0 
L 9.078125 75.984375 
L 18.109375 75.984375 
z
" id="DejaVuSans-98"/>
      <path d="M 34.28125 27.484375 
Q 23.390625 27.484375 19.1875 25 
Q 14.984375 22.515625 14.984375 16.5 
Q 14.984375 11.71875 18.140625 8.90625 
Q 21.296875 6.109375 26.703125 6.109375 
Q 34.1875 6.109375 38.703125 11.40625 
Q 43.21875 16.703125 43.21875 25.484375 
L 43.21875 27.484375 
z
M 52.203125 31.203125 
L 52.203125 0 
L 43.21875 0 
L 43.21875 8.296875 
Q 40.140625 3.328125 35.546875 0.953125 
Q 30.953125 -1.421875 24.3125 -1.421875 
Q 15.921875 -1.421875 10.953125 3.296875 
Q 6 8.015625 6 15.921875 
Q 6 25.140625 12.171875 29.828125 
Q 18.359375 34.515625 30.609375 34.515625 
L 43.21875 34.515625 
L 43.21875 35.40625 
Q 43.21875 41.609375 39.140625 45 
Q 35.0625 48.390625 27.6875 48.390625 
Q 23 48.390625 18.546875 47.265625 
Q 14.109375 46.140625 10.015625 43.890625 
L 10.015625 52.203125 
Q 14.9375 54.109375 19.578125 55.046875 
Q 24.21875 56 28.609375 56 
Q 40.484375 56 46.34375 49.84375 
Q 52.203125 43.703125 52.203125 31.203125 
z
" id="DejaVuSans-97"/>
     </defs>
     <g transform="translate(191.114062 280.474375)scale(0.1 -0.1)">
      <use xlink:href="#DejaVuSans-32"/>
      <use x="31.787109" xlink:href="#DejaVuSans-108"/>
      <use x="59.570312" xlink:href="#DejaVuSans-111"/>
      <use x="120.751953" xlink:href="#DejaVuSans-103"/>
      <use x="184.228516" xlink:href="#DejaVuSans-32"/>
      <use x="216.015625" xlink:href="#DejaVuSans-40"/>
      <use x="255.029297" xlink:href="#DejaVuSans-98"/>
      <use x="318.505859" xlink:href="#DejaVuSans-97"/>
      <use x="379.785156" xlink:href="#DejaVuSans-115"/>
      <use x="431.884766" xlink:href="#DejaVuSans-101"/>
      <use x="493.408203" xlink:href="#DejaVuSans-32"/>
      <use x="525.195312" xlink:href="#DejaVuSans-49"/>
      <use x="588.818359" xlink:href="#DejaVuSans-48"/>
      <use x="652.441406" xlink:href="#DejaVuSans-41"/>
     </g>
    </g>
   </g>
   <g id="matplotlib.axis_2">
    <g id="ytick_1">
     <g id="line2d_54">
      <path clip-path="url(#pd3e820b904)" d="M 52.875 231.57205 
L 398.5 231.57205 
" style="fill:none;stroke:#b0b0b0;stroke-dasharray:3.7,1.6;stroke-dashoffset:0;"/>
     </g>
     <g id="line2d_55">
      <defs>
       <path d="M 0 0 
L -3.5 0 
" id="m8b165906db" style="stroke:#000000;stroke-width:0.8;"/>
      </defs>
      <g>
       <use style="stroke:#000000;stroke-width:0.8;" x="52.875" xlink:href="#m8b165906db" y="231.57205"/>
      </g>
     </g>
     <g id="text_7">
      <!-- 0.0 -->
      <defs>
       <path d="M 10.6875 12.40625 
L 21 12.40625 
L 21 0 
L 10.6875 0 
z
" id="DejaVuSans-46"/>
      </defs>
      <g transform="translate(29.971875 235.371268)scale(0.1 -0.1)">
       <use xlink:href="#DejaVuSans-48"/>
       <use x="63.623047" xlink:href="#DejaVuSans-46"/>
       <use x="95.410156" xlink:href="#DejaVuSans-48"/>
      </g>
     </g>
    </g>
    <g id="ytick_2">
     <g id="line2d_56">
      <path clip-path="url(#pd3e820b904)" d="M 52.875 193.844003 
L 398.5 193.844003 
" style="fill:none;stroke:#b0b0b0;stroke-dasharray:3.7,1.6;stroke-dashoffset:0;"/>
     </g>
     <g id="line2d_57">
      <g>
       <use style="stroke:#000000;stroke-width:0.8;" x="52.875" xlink:href="#m8b165906db" y="193.844003"/>
      </g>
     </g>
     <g id="text_8">
      <!-- 0.2 -->
      <g transform="translate(29.971875 197.643222)scale(0.1 -0.1)">
       <use xlink:href="#DejaVuSans-48"/>
       <use x="63.623047" xlink:href="#DejaVuSans-46"/>
       <use x="95.410156" xlink:href="#DejaVuSans-50"/>
      </g>
     </g>
    </g>
    <g id="ytick_3">
     <g id="line2d_58">
      <path clip-path="url(#pd3e820b904)" d="M 52.875 156.115957 
L 398.5 156.115957 
" style="fill:none;stroke:#b0b0b0;stroke-dasharray:3.7,1.6;stroke-dashoffset:0;"/>
     </g>
     <g id="line2d_59">
      <g>
       <use style="stroke:#000000;stroke-width:0.8;" x="52.875" xlink:href="#m8b165906db" y="156.115957"/>
      </g>
     </g>
     <g id="text_9">
      <!-- 0.4 -->
      <defs>
       <path d="M 37.796875 64.3125 
L 12.890625 25.390625 
L 37.796875 25.390625 
z
M 35.203125 72.90625 
L 47.609375 72.90625 
L 47.609375 25.390625 
L 58.015625 25.390625 
L 58.015625 17.1875 
L 47.609375 17.1875 
L 47.609375 0 
L 37.796875 0 
L 37.796875 17.1875 
L 4.890625 17.1875 
L 4.890625 26.703125 
z
" id="DejaVuSans-52"/>
      </defs>
      <g transform="translate(29.971875 159.915176)scale(0.1 -0.1)">
       <use xlink:href="#DejaVuSans-48"/>
       <use x="63.623047" xlink:href="#DejaVuSans-46"/>
       <use x="95.410156" xlink:href="#DejaVuSans-52"/>
      </g>
     </g>
    </g>
    <g id="ytick_4">
     <g id="line2d_60">
      <path clip-path="url(#pd3e820b904)" d="M 52.875 118.387911 
L 398.5 118.387911 
" style="fill:none;stroke:#b0b0b0;stroke-dasharray:3.7,1.6;stroke-dashoffset:0;"/>
     </g>
     <g id="line2d_61">
      <g>
       <use style="stroke:#000000;stroke-width:0.8;" x="52.875" xlink:href="#m8b165906db" y="118.387911"/>
      </g>
     </g>
     <g id="text_10">
      <!-- 0.6 -->
      <defs>
       <path d="M 33.015625 40.375 
Q 26.375 40.375 22.484375 35.828125 
Q 18.609375 31.296875 18.609375 23.390625 
Q 18.609375 15.53125 22.484375 10.953125 
Q 26.375 6.390625 33.015625 6.390625 
Q 39.65625 6.390625 43.53125 10.953125 
Q 47.40625 15.53125 47.40625 23.390625 
Q 47.40625 31.296875 43.53125 35.828125 
Q 39.65625 40.375 33.015625 40.375 
z
M 52.59375 71.296875 
L 52.59375 62.3125 
Q 48.875 64.0625 45.09375 64.984375 
Q 41.3125 65.921875 37.59375 65.921875 
Q 27.828125 65.921875 22.671875 59.328125 
Q 17.53125 52.734375 16.796875 39.40625 
Q 19.671875 43.65625 24.015625 45.921875 
Q 28.375 48.1875 33.59375 48.1875 
Q 44.578125 48.1875 50.953125 41.515625 
Q 57.328125 34.859375 57.328125 23.390625 
Q 57.328125 12.15625 50.6875 5.359375 
Q 44.046875 -1.421875 33.015625 -1.421875 
Q 20.359375 -1.421875 13.671875 8.265625 
Q 6.984375 17.96875 6.984375 36.375 
Q 6.984375 53.65625 15.1875 63.9375 
Q 23.390625 74.21875 37.203125 74.21875 
Q 40.921875 74.21875 44.703125 73.484375 
Q 48.484375 72.75 52.59375 71.296875 
z
" id="DejaVuSans-54"/>
      </defs>
      <g transform="translate(29.971875 122.18713)scale(0.1 -0.1)">
       <use xlink:href="#DejaVuSans-48"/>
       <use x="63.623047" xlink:href="#DejaVuSans-46"/>
       <use x="95.410156" xlink:href="#DejaVuSans-54"/>
      </g>
     </g>
    </g>
    <g id="ytick_5">
     <g id="line2d_62">
      <path clip-path="url(#pd3e820b904)" d="M 52.875 80.659864 
L 398.5 80.659864 
" style="fill:none;stroke:#b0b0b0;stroke-dasharray:3.7,1.6;stroke-dashoffset:0;"/>
     </g>
     <g id="line2d_63">
      <g>
       <use style="stroke:#000000;stroke-width:0.8;" x="52.875" xlink:href="#m8b165906db" y="80.659864"/>
      </g>
     </g>
     <g id="text_11">
      <!-- 0.8 -->
      <defs>
       <path d="M 31.78125 34.625 
Q 24.75 34.625 20.71875 30.859375 
Q 16.703125 27.09375 16.703125 20.515625 
Q 16.703125 13.921875 20.71875 10.15625 
Q 24.75 6.390625 31.78125 6.390625 
Q 38.8125 6.390625 42.859375 10.171875 
Q 46.921875 13.96875 46.921875 20.515625 
Q 46.921875 27.09375 42.890625 30.859375 
Q 38.875 34.625 31.78125 34.625 
z
M 21.921875 38.8125 
Q 15.578125 40.375 12.03125 44.71875 
Q 8.5 49.078125 8.5 55.328125 
Q 8.5 64.0625 14.71875 69.140625 
Q 20.953125 74.21875 31.78125 74.21875 
Q 42.671875 74.21875 48.875 69.140625 
Q 55.078125 64.0625 55.078125 55.328125 
Q 55.078125 49.078125 51.53125 44.71875 
Q 48 40.375 41.703125 38.8125 
Q 48.828125 37.15625 52.796875 32.3125 
Q 56.78125 27.484375 56.78125 20.515625 
Q 56.78125 9.90625 50.3125 4.234375 
Q 43.84375 -1.421875 31.78125 -1.421875 
Q 19.734375 -1.421875 13.25 4.234375 
Q 6.78125 9.90625 6.78125 20.515625 
Q 6.78125 27.484375 10.78125 32.3125 
Q 14.796875 37.15625 21.921875 38.8125 
z
M 18.3125 54.390625 
Q 18.3125 48.734375 21.84375 45.5625 
Q 25.390625 42.390625 31.78125 42.390625 
Q 38.140625 42.390625 41.71875 45.5625 
Q 45.3125 48.734375 45.3125 54.390625 
Q 45.3125 60.0625 41.71875 63.234375 
Q 38.140625 66.40625 31.78125 66.40625 
Q 25.390625 66.40625 21.84375 63.234375 
Q 18.3125 60.0625 18.3125 54.390625 
z
" id="DejaVuSans-56"/>
      </defs>
      <g transform="translate(29.971875 84.459083)scale(0.1 -0.1)">
       <use xlink:href="#DejaVuSans-48"/>
       <use x="63.623047" xlink:href="#DejaVuSans-46"/>
       <use x="95.410156" xlink:href="#DejaVuSans-56"/>
      </g>
     </g>
    </g>
    <g id="ytick_6">
     <g id="line2d_64">
      <path clip-path="url(#pd3e820b904)" d="M 52.875 42.931818 
L 398.5 42.931818 
" style="fill:none;stroke:#b0b0b0;stroke-dasharray:3.7,1.6;stroke-dashoffset:0;"/>
     </g>
     <g id="line2d_65">
      <g>
       <use style="stroke:#000000;stroke-width:0.8;" x="52.875" xlink:href="#m8b165906db" y="42.931818"/>
      </g>
     </g>
     <g id="text_12">
      <!-- 1.0 -->
      <g transform="translate(29.971875 46.731037)scale(0.1 -0.1)">
       <use xlink:href="#DejaVuSans-49"/>
       <use x="63.623047" xlink:href="#DejaVuSans-46"/>
       <use x="95.410156" xlink:href="#DejaVuSans-48"/>
      </g>
     </g>
    </g>
    <g id="text_13">
     <!-- Fraction of Requests -->
     <defs>
      <path d="M 9.8125 72.90625 
L 51.703125 72.90625 
L 51.703125 64.59375 
L 19.671875 64.59375 
L 19.671875 43.109375 
L 48.578125 43.109375 
L 48.578125 34.8125 
L 19.671875 34.8125 
L 19.671875 0 
L 9.8125 0 
z
" id="DejaVuSans-70"/>
      <path d="M 41.109375 46.296875 
Q 39.59375 47.171875 37.8125 47.578125 
Q 36.03125 48 33.890625 48 
Q 26.265625 48 22.1875 43.046875 
Q 18.109375 38.09375 18.109375 28.8125 
L 18.109375 0 
L 9.078125 0 
L 9.078125 54.6875 
L 18.109375 54.6875 
L 18.109375 46.1875 
Q 20.953125 51.171875 25.484375 53.578125 
Q 30.03125 56 36.53125 56 
Q 37.453125 56 38.578125 55.875 
Q 39.703125 55.765625 41.0625 55.515625 
z
" id="DejaVuSans-114"/>
      <path d="M 48.78125 52.59375 
L 48.78125 44.1875 
Q 44.96875 46.296875 41.140625 47.34375 
Q 37.3125 48.390625 33.40625 48.390625 
Q 24.65625 48.390625 19.8125 42.84375 
Q 14.984375 37.3125 14.984375 27.296875 
Q 14.984375 17.28125 19.8125 11.734375 
Q 24.65625 6.203125 33.40625 6.203125 
Q 37.3125 6.203125 41.140625 7.25 
Q 44.96875 8.296875 48.78125 10.40625 
L 48.78125 2.09375 
Q 45.015625 0.34375 40.984375 -0.53125 
Q 36.96875 -1.421875 32.421875 -1.421875 
Q 20.0625 -1.421875 12.78125 6.34375 
Q 5.515625 14.109375 5.515625 27.296875 
Q 5.515625 40.671875 12.859375 48.328125 
Q 20.21875 56 33.015625 56 
Q 37.15625 56 41.109375 55.140625 
Q 45.0625 54.296875 48.78125 52.59375 
z
" id="DejaVuSans-99"/>
      <path d="M 18.3125 70.21875 
L 18.3125 54.6875 
L 36.8125 54.6875 
L 36.8125 47.703125 
L 18.3125 47.703125 
L 18.3125 18.015625 
Q 18.3125 11.328125 20.140625 9.421875 
Q 21.96875 7.515625 27.59375 7.515625 
L 36.8125 7.515625 
L 36.8125 0 
L 27.59375 0 
Q 17.1875 0 13.234375 3.875 
Q 9.28125 7.765625 9.28125 18.015625 
L 9.28125 47.703125 
L 2.6875 47.703125 
L 2.6875 54.6875 
L 9.28125 54.6875 
L 9.28125 70.21875 
z
" id="DejaVuSans-116"/>
      <path d="M 54.890625 33.015625 
L 54.890625 0 
L 45.90625 0 
L 45.90625 32.71875 
Q 45.90625 40.484375 42.875 44.328125 
Q 39.84375 48.1875 33.796875 48.1875 
Q 26.515625 48.1875 22.3125 43.546875 
Q 18.109375 38.921875 18.109375 30.90625 
L 18.109375 0 
L 9.078125 0 
L 9.078125 54.6875 
L 18.109375 54.6875 
L 18.109375 46.1875 
Q 21.34375 51.125 25.703125 53.5625 
Q 30.078125 56 35.796875 56 
Q 45.21875 56 50.046875 50.171875 
Q 54.890625 44.34375 54.890625 33.015625 
z
" id="DejaVuSans-110"/>
      <path d="M 37.109375 75.984375 
L 37.109375 68.5 
L 28.515625 68.5 
Q 23.6875 68.5 21.796875 66.546875 
Q 19.921875 64.59375 19.921875 59.515625 
L 19.921875 54.6875 
L 34.71875 54.6875 
L 34.71875 47.703125 
L 19.921875 47.703125 
L 19.921875 0 
L 10.890625 0 
L 10.890625 47.703125 
L 2.296875 47.703125 
L 2.296875 54.6875 
L 10.890625 54.6875 
L 10.890625 58.5 
Q 10.890625 67.625 15.140625 71.796875 
Q 19.390625 75.984375 28.609375 75.984375 
z
" id="DejaVuSans-102"/>
      <path d="M 44.390625 34.1875 
Q 47.5625 33.109375 50.5625 29.59375 
Q 53.5625 26.078125 56.59375 19.921875 
L 66.609375 0 
L 56 0 
L 46.6875 18.703125 
Q 43.0625 26.03125 39.671875 28.421875 
Q 36.28125 30.8125 30.421875 30.8125 
L 19.671875 30.8125 
L 19.671875 0 
L 9.8125 0 
L 9.8125 72.90625 
L 32.078125 72.90625 
Q 44.578125 72.90625 50.734375 67.671875 
Q 56.890625 62.453125 56.890625 51.90625 
Q 56.890625 45.015625 53.6875 40.46875 
Q 50.484375 35.9375 44.390625 34.1875 
z
M 19.671875 64.796875 
L 19.671875 38.921875 
L 32.078125 38.921875 
Q 39.203125 38.921875 42.84375 42.21875 
Q 46.484375 45.515625 46.484375 51.90625 
Q 46.484375 58.296875 42.84375 61.546875 
Q 39.203125 64.796875 32.078125 64.796875 
z
" id="DejaVuSans-82"/>
      <path d="M 14.796875 27.296875 
Q 14.796875 17.390625 18.875 11.75 
Q 22.953125 6.109375 30.078125 6.109375 
Q 37.203125 6.109375 41.296875 11.75 
Q 45.40625 17.390625 45.40625 27.296875 
Q 45.40625 37.203125 41.296875 42.84375 
Q 37.203125 48.484375 30.078125 48.484375 
Q 22.953125 48.484375 18.875 42.84375 
Q 14.796875 37.203125 14.796875 27.296875 
z
M 45.40625 8.203125 
Q 42.578125 3.328125 38.25 0.953125 
Q 33.9375 -1.421875 27.875 -1.421875 
Q 17.96875 -1.421875 11.734375 6.484375 
Q 5.515625 14.40625 5.515625 27.296875 
Q 5.515625 40.1875 11.734375 48.09375 
Q 17.96875 56 27.875 56 
Q 33.9375 56 38.25 53.625 
Q 42.578125 51.265625 45.40625 46.390625 
L 45.40625 54.6875 
L 54.390625 54.6875 
L 54.390625 -20.796875 
L 45.40625 -20.796875 
z
" id="DejaVuSans-113"/>
      <path d="M 8.5 21.578125 
L 8.5 54.6875 
L 17.484375 54.6875 
L 17.484375 21.921875 
Q 17.484375 14.15625 20.5 10.265625 
Q 23.53125 6.390625 29.59375 6.390625 
Q 36.859375 6.390625 41.078125 11.03125 
Q 45.3125 15.671875 45.3125 23.6875 
L 45.3125 54.6875 
L 54.296875 54.6875 
L 54.296875 0 
L 45.3125 0 
L 45.3125 8.40625 
Q 42.046875 3.421875 37.71875 1 
Q 33.40625 -1.421875 27.6875 -1.421875 
Q 18.265625 -1.421875 13.375 4.4375 
Q 8.5 10.296875 8.5 21.578125 
z
M 31.109375 56 
z
" id="DejaVuSans-117"/>
     </defs>
     <g transform="translate(23.892187 188.700781)rotate(-90)scale(0.1 -0.1)">
      <use xlink:href="#DejaVuSans-70"/>
      <use x="57.410156" xlink:href="#DejaVuSans-114"/>
      <use x="98.523438" xlink:href="#DejaVuSans-97"/>
      <use x="159.802734" xlink:href="#DejaVuSans-99"/>
      <use x="214.783203" xlink:href="#DejaVuSans-116"/>
      <use x="253.992188" xlink:href="#DejaVuSans-105"/>
      <use x="281.775391" xlink:href="#DejaVuSans-111"/>
      <use x="342.957031" xlink:href="#DejaVuSans-110"/>
      <use x="406.335938" xlink:href="#DejaVuSans-32"/>
      <use x="438.123047" xlink:href="#DejaVuSans-111"/>
      <use x="499.304688" xlink:href="#DejaVuSans-102"/>
      <use x="534.509766" xlink:href="#DejaVuSans-32"/>
      <use x="566.296875" xlink:href="#DejaVuSans-82"/>
      <use x="635.716797" xlink:href="#DejaVuSans-101"/>
      <use x="697.240234" xlink:href="#DejaVuSans-113"/>
      <use x="760.716797" xlink:href="#DejaVuSans-117"/>
      <use x="824.095703" xlink:href="#DejaVuSans-101"/>
      <use x="885.619141" xlink:href="#DejaVuSans-115"/>
      <use x="937.71875" xlink:href="#DejaVuSans-116"/>
      <use x="976.927734" xlink:href="#DejaVuSans-115"/>
     </g>
    </g>
   </g>
   <g id="line2d_66">
    <path clip-path="url(#pd3e820b904)" d="M 106.906776 231.567627 
L 107.457834 231.558782 
L 116.196719 231.262463 
L 117.207921 231.085556 
L 117.423119 231.01037 
L 117.848741 230.824618 
L 118.459046 230.550412 
L 120.059809 229.573002 
L 120.25475 229.396095 
L 120.486948 229.197075 
L 120.640712 229.024591 
L 120.854608 228.790189 
L 121.059368 228.529251 
L 121.389958 228.22851 
L 121.546409 228.060448 
L 121.820006 227.768552 
L 122.185643 227.33513 
L 122.482033 227.029965 
L 123.206401 225.924297 
L 123.360273 225.698741 
L 123.534133 225.46434 
L 124.042682 224.641723 
L 124.374539 223.934095 
L 125.380254 221.718336 
L 125.600481 221.209729 
L 125.754926 220.820534 
L 128.582676 210.688192 
L 129.124307 208.065548 
L 129.249612 207.503868 
L 130.150357 202.771609 
L 131.045098 197.743031 
L 132.466934 188.844615 
L 132.775246 186.938443 
L 133.0305 185.319745 
L 133.253858 183.811614 
L 133.450951 182.422895 
L 133.952333 178.906871 
L 139.757195 137.161269 
L 141.653052 127.161608 
L 143.07543 120.885836 
L 143.20513 120.262239 
L 143.538944 118.855829 
L 143.608004 118.594892 
L 146.701459 107.126903 
L 146.815818 106.781935 
L 147.021751 106.109689 
L 147.226219 105.574545 
L 147.459423 104.800578 
L 147.967685 103.062468 
L 148.402971 101.819697 
L 148.58338 101.280131 
L 149.16343 99.683546 
L 149.381493 99.020145 
L 149.656657 98.387703 
L 149.929212 97.609313 
L 149.992806 97.454519 
L 150.160791 96.985716 
L 150.237571 96.786696 
L 150.839177 95.216647 
L 150.938232 94.991091 
L 151.367957 93.94734 
L 151.61178 93.323744 
L 151.86908 92.563044 
L 151.931111 92.417096 
L 152.144607 91.846571 
L 152.305606 91.421995 
L 152.597188 90.701099 
L 152.833348 90.046544 
L 153.196344 89.184123 
L 153.368772 88.746278 
L 154.208571 87.008168 
L 154.474476 86.446489 
L 154.978126 85.274481 
L 155.156378 84.880863 
L 155.324356 84.566853 
L 158.738426 78.220319 
L 158.880693 77.981494 
L 160.573394 74.027625 
L 160.75251 73.536709 
L 160.84165 73.328843 
L 162.278417 70.255086 
L 162.413202 70.042798 
L 162.599064 69.680139 
L 162.778421 69.388242 
L 162.944349 69.118459 
L 163.361965 68.547935 
L 163.517667 68.322378 
L 163.742803 68.021637 
L 163.891352 67.809349 
L 164.005232 67.628019 
L 164.159184 67.411308 
L 164.429559 67.004422 
L 164.641056 66.734639 
L 164.944742 66.234877 
L 165.124773 66.000476 
L 165.358759 65.677621 
L 165.549088 65.447642 
L 165.817908 65.129209 
L 166.674608 64.12084 
L 166.814942 63.970469 
L 167.029511 63.67415 
L 167.204574 63.483975 
L 167.605462 63.090357 
L 167.870637 62.838265 
L 168.074552 62.572905 
L 168.690733 61.798937 
L 169.097144 61.374361 
L 169.444591 61.100155 
L 170.932821 59.6849 
L 171.106923 59.530106 
L 172.459239 58.495201 
L 172.718474 58.2608 
L 173.041123 58.044089 
L 173.258326 57.871604 
L 173.449485 57.685852 
L 173.736278 57.416069 
L 173.878609 57.314348 
L 174.131373 57.115327 
L 174.331048 56.942843 
L 174.486968 56.80574 
L 174.603356 56.712864 
L 174.861483 56.513844 
L 175.129988 56.314824 
L 175.32058 56.177721 
L 175.756684 55.846021 
L 176.089503 55.585083 
L 176.290459 55.38164 
L 176.470235 55.191465 
L 176.680564 55.023404 
L 177.108493 54.607672 
L 177.270412 54.461724 
L 177.489848 54.271549 
L 177.6623 54.147715 
L 177.935254 53.953117 
L 178.312054 53.599303 
L 178.547245 53.413551 
L 179.365027 52.688233 
L 179.610526 52.405182 
L 179.890086 52.122131 
L 180.556821 51.529493 
L 180.719456 51.379122 
L 181.057931 51.100493 
L 181.329399 50.892628 
L 181.916662 50.490165 
L 182.245005 50.264608 
L 183.048508 49.747156 
L 183.767961 49.296043 
L 184.073402 49.136827 
L 184.448196 48.906848 
L 184.616804 48.783013 
L 184.974812 48.641488 
L 185.115962 48.553034 
L 185.432446 48.389396 
L 185.576979 48.305365 
L 185.983376 48.141726 
L 186.106307 48.075386 
L 186.512319 47.942706 
L 187.060624 47.721572 
L 187.481967 47.562356 
L 187.603145 47.518129 
L 188.087215 47.332377 
L 188.398924 47.164315 
L 188.922691 46.95645 
L 189.07344 46.89011 
L 190.606968 46.217864 
L 191.151114 46.018843 
L 191.715573 45.802132 
L 194.647383 44.908753 
L 195.867246 44.661083 
L 195.905296 44.634547 
L 196.576813 44.501867 
L 196.709254 44.475331 
L 201.551095 43.918074 
L 204.717437 43.719054 
L 208.630681 43.555415 
L 208.725705 43.542147 
L 213.825679 43.382931 
L 216.402678 43.325436 
L 222.256142 43.197179 
L 233.213288 43.055653 
L 290.009036 42.931818 
L 290.009036 42.931818 
" style="fill:none;stroke:#00aff0;stroke-dasharray:7.4,3.2;stroke-dashoffset:0;stroke-width:2;"/>
   </g>
   <g id="line2d_67">
    <path clip-path="url(#pd3e820b904)" d="M 109.061799 231.567622 
L 117.857189 231.417082 
L 118.02564 231.386088 
L 121.516674 230.969889 
L 122.42444 230.814921 
L 125.529416 230.071075 
L 125.978681 229.889541 
L 129.385688 228.826904 
L 130.440806 228.295585 
L 130.857618 228.091913 
L 131.146363 227.954656 
L 131.337261 227.835109 
L 131.76741 227.688996 
L 132.865595 227.104546 
L 133.627187 226.564372 
L 133.836285 226.413832 
L 134.21174 226.121607 
L 134.378633 225.984349 
L 134.601232 225.824954 
L 135.337154 225.28478 
L 135.602644 225.085535 
L 137.841446 222.761017 
L 138.005361 222.535206 
L 138.164179 222.362528 
L 138.351125 222.039309 
L 138.462712 221.857775 
L 138.92102 221.136067 
L 139.159544 220.719868 
L 139.384123 220.3568 
L 140.346536 218.545889 
L 140.577398 218.005715 
L 140.779794 217.602799 
L 140.984555 217.058197 
L 141.086391 216.7704 
L 142.255792 211.802571 
L 142.356832 211.505918 
L 142.65071 210.611532 
L 143.124575 209.137123 
L 143.455853 208.008071 
L 143.906496 206.493813 
L 144.008711 206.183877 
L 144.797056 203.549423 
L 145.51276 201.317885 
L 145.919784 200.109135 
L 146.037289 199.763778 
L 146.393213 198.749845 
L 148.347457 192.896485 
L 148.571775 192.219054 
L 148.923641 191.116568 
L 148.975193 190.979311 
L 149.26842 190.142484 
L 152.770729 178.843109 
L 152.953196 177.931012 
L 152.995522 177.745051 
L 153.22104 176.536301 
L 153.42275 175.389538 
L 153.488858 175.048609 
L 153.771161 173.791155 
L 153.838889 173.583055 
L 156.287721 165.00226 
L 156.32763 164.865003 
L 156.493326 164.293835 
L 156.537351 164.094591 
L 156.804452 163.155928 
L 157.303492 160.663159 
L 158.823871 153.384094 
L 159.000059 152.750939 
L 159.161124 152.082364 
L 159.313304 151.480203 
L 159.482557 150.576961 
L 160.786681 142.602755 
L 160.870041 142.137851 
L 161.13743 140.676725 
L 162.318019 135.629198 
L 162.527721 134.818938 
L 162.702198 134.194638 
L 163.011155 133.136429 
L 163.163524 132.582972 
L 163.242019 132.308457 
L 163.643342 130.838476 
L 163.682824 130.710074 
L 163.853861 130.050353 
L 163.92029 129.851109 
L 164.27369 128.629076 
L 164.434573 128.080047 
L 164.493005 127.818815 
L 164.651009 127.31849 
L 165.227377 125.463303 
L 165.395956 124.816866 
L 165.452468 124.617621 
L 165.65019 123.900341 
L 165.7126 123.723235 
L 165.837014 123.364595 
L 166.006813 122.713729 
L 166.255725 121.930035 
L 166.332483 121.708652 
L 166.4885 121.199472 
L 167.724945 117.356267 
L 167.867671 116.878081 
L 167.932852 116.656698 
L 169.595812 111.330229 
L 169.794824 110.493402 
L 170.113423 109.107546 
L 170.46378 107.557867 
L 170.517928 107.336484 
L 173.617533 97.54694 
L 173.66606 97.409682 
L 173.802707 97.015621 
L 173.990291 96.612705 
L 174.426827 95.417238 
L 174.5881 95.040887 
L 176.504299 90.520252 
L 176.741622 90.015499 
L 177.000757 89.426621 
L 177.403765 88.54109 
L 177.667574 87.987633 
L 177.885057 87.553723 
L 177.977017 87.381044 
L 178.153839 87.110957 
L 178.304835 86.907285 
L 178.54213 86.375967 
L 179.823631 83.861059 
L 179.936904 83.639676 
L 180.129224 83.281036 
L 180.275996 83.019804 
L 180.552052 82.519479 
L 180.662496 82.360084 
L 181.448 80.792694 
L 181.574401 80.624443 
L 181.975733 79.938157 
L 182.072708 79.752195 
L 182.209007 79.490964 
L 182.359896 79.269581 
L 182.524251 79.008349 
L 182.639807 78.831243 
L 182.830787 78.441609 
L 183.190713 77.81731 
L 183.322691 77.569361 
L 183.453204 77.312557 
L 183.632018 76.971628 
L 184.025256 76.24992 
L 184.144207 76.055104 
L 184.302883 75.811583 
L 184.654047 75.187283 
L 184.798423 74.939335 
L 184.951901 74.713524 
L 188.22268 69.037271 
L 188.346601 68.833599 
L 190.975742 65.034671 
L 192.84092 62.701297 
L 192.971265 62.572895 
L 193.13614 62.395789 
L 193.349013 62.161123 
L 193.487421 62.006155 
L 193.634246 61.829049 
L 193.780324 61.700647 
L 194.068484 61.417277 
L 194.21475 61.226888 
L 194.373844 61.080775 
L 194.717402 60.761984 
L 195.125358 60.376778 
L 195.259495 60.266087 
L 197.239407 58.698697 
L 197.615426 58.490597 
L 199.02605 57.675909 
L 199.134706 57.618349 
L 199.713083 57.392539 
L 199.889366 57.286275 
L 200.374985 57.064892 
L 200.502983 56.985194 
L 202.343697 56.418455 
L 203.18674 56.121802 
L 203.327034 56.06867 
L 204.387125 55.758734 
L 205.085065 55.612621 
L 205.227738 55.55949 
L 206.349374 55.364673 
L 206.442545 55.346962 
L 207.365522 55.156573 
L 207.654203 55.099013 
L 209.111878 54.820071 
L 209.614323 54.713808 
L 210.262279 54.563267 
L 214.081758 53.434215 
L 214.277791 53.327952 
L 214.538665 53.19955 
L 214.941457 52.880758 
L 215.121704 52.743501 
L 215.655764 52.252031 
L 216.49599 51.238099 
L 216.708028 51.003433 
L 217.405145 50.082481 
L 217.597725 49.821249 
L 217.89747 49.475892 
L 218.580127 48.692197 
L 218.863311 48.457531 
L 218.986081 48.382261 
L 219.257373 48.191872 
L 219.876556 47.633988 
L 219.994599 47.55429 
L 220.264729 47.359473 
L 221.193 46.810444 
L 221.453529 46.686469 
L 222.653168 46.261415 
L 222.884447 46.168434 
L 223.305733 46.053315 
L 223.85618 45.876209 
L 224.613801 45.70353 
L 225.480966 45.482147 
L 225.591876 45.455581 
L 226.888359 45.167784 
L 227.109036 45.123507 
L 228.19752 44.977395 
L 228.571129 44.919835 
L 231.24964 44.62761 
L 232.642106 44.499208 
L 234.326072 44.348668 
L 234.462682 44.317674 
L 240.850475 43.697802 
L 241.132568 43.631388 
L 243.382178 43.387867 
L 243.46323 43.379011 
L 250.952064 43.237326 
L 265.758753 43.104497 
L 267.696253 43.086786 
L 310.376764 42.931818 
L 310.376764 42.931818 
" style="fill:none;stroke:#800000;stroke-dasharray:7.4,3.2;stroke-dashoffset:0;stroke-width:2;"/>
   </g>
   <g id="line2d_68">
    <path clip-path="url(#pd3e820b904)" d="M 134.043873 231.566507 
L 138.969694 231.416854 
L 140.961876 231.128634 
L 141.090156 231.073207 
L 141.597626 230.923554 
L 142.572159 230.624248 
L 143.697534 230.263973 
L 144.035906 230.125405 
L 144.63778 229.925868 
L 144.988345 229.776215 
L 145.648005 229.526794 
L 150.988966 227.575763 
L 151.488816 227.431653 
L 151.920781 227.326342 
L 152.988057 227.071378 
L 154.04832 226.716645 
L 154.978126 226.450595 
L 155.287623 226.312028 
L 155.736663 226.156832 
L 156.950089 225.846441 
L 157.237023 225.785472 
L 161.314938 224.931896 
L 161.997843 224.782243 
L 162.142997 224.737901 
L 164.135553 224.305571 
L 164.488001 224.150375 
L 165.126405 223.906496 
L 165.383024 223.779014 
L 166.493167 223.352226 
L 166.871805 223.17486 
L 167.01882 223.130519 
L 167.605462 222.958695 
L 167.922492 222.809042 
L 168.31794 222.581791 
L 168.58244 222.498651 
L 170.87945 221.584105 
L 171.118846 221.439995 
L 171.730806 221.207202 
L 172.52742 221.029835 
L 173.144993 220.769329 
L 174.059723 220.442309 
L 174.201655 220.392425 
L 174.399663 220.309285 
L 174.820758 220.098662 
L 174.936964 220.070948 
L 176.38545 219.627532 
L 176.513083 219.605362 
L 177.161136 219.444623 
L 177.266135 219.372568 
L 177.659136 219.222915 
L 178.801825 218.740701 
L 179.122426 218.59659 
L 179.505851 218.197516 
L 180.19208 217.421538 
L 180.379828 217.255257 
L 180.507182 217.144403 
L 181.860205 215.686673 
L 182.368852 214.40631 
L 183.222895 211.413252 
L 183.466998 210.288084 
L 183.632875 209.900095 
L 183.758577 209.556448 
L 183.904962 209.185087 
L 184.021875 208.786012 
L 185.436471 202.10706 
L 185.652969 200.64933 
L 185.784475 199.801297 
L 185.93991 198.853495 
L 186.000745 198.448878 
L 186.142455 197.362509 
L 186.255323 196.56436 
L 186.46421 195.173143 
L 186.51542 194.857209 
L 186.673903 193.837352 
L 188.315306 182.840637 
L 188.690764 180.97829 
L 188.854882 180.141342 
L 188.991053 179.487303 
L 189.129413 178.827722 
L 189.260771 178.179226 
L 189.560075 176.677155 
L 189.636677 176.350136 
L 189.857676 175.474389 
L 190.050951 174.642984 
L 190.289882 173.606499 
L 190.533586 172.625442 
L 190.774572 171.561243 
L 193.396037 161.163139 
L 193.470994 160.930346 
L 193.656628 160.198709 
L 193.707981 160.026886 
L 193.844676 159.516957 
L 193.910683 159.278621 
L 194.271628 158.12574 
L 194.329576 157.92066 
L 197.027227 149.839404 
L 197.429888 148.935944 
L 197.544735 148.642181 
L 197.652285 148.420473 
L 197.791921 148.015856 
L 197.855216 147.866203 
L 197.987631 147.622325 
L 198.110117 147.36736 
L 198.639182 146.25882 
L 198.750827 146.03157 
L 198.925541 145.687922 
L 199.55936 144.551669 
L 199.717981 144.296705 
L 200.6195 142.367845 
L 200.76531 142.129509 
L 202.612415 138.072253 
L 202.746279 137.878259 
L 204.787317 134.857488 
L 204.940048 134.713378 
L 205.055795 134.541554 
L 205.194969 134.342017 
L 205.329042 134.026083 
L 205.504969 133.715692 
L 205.645578 133.477356 
L 205.783915 133.288904 
L 206.200842 132.640408 
L 206.338095 132.429785 
L 208.079482 129.719405 
L 208.204062 129.558667 
L 209.294263 127.502326 
L 209.555605 126.720805 
L 210.741841 122.447384 
L 211.338022 121.31113 
L 211.495479 121.045081 
L 211.69053 120.823373 
L 213.287032 119.038624 
L 213.521585 118.822458 
L 215.456759 117.109764 
L 215.760218 116.8548 
L 215.884116 116.716233 
L 216.149406 116.488982 
L 217.185406 115.646492 
L 217.477316 115.413698 
L 219.260103 113.989225 
L 219.475928 113.8562 
L 219.634841 113.745346 
L 219.947876 113.50701 
L 220.144183 113.351814 
L 220.456034 113.130106 
L 221.144468 112.764288 
L 221.44893 112.586922 
L 221.866251 112.331957 
L 222.012066 112.198933 
L 222.127514 112.126878 
L 222.461113 111.888541 
L 222.661327 111.744431 
L 222.923141 111.533809 
L 223.131236 111.361985 
L 223.500597 111.079307 
L 223.641143 111.007252 
L 223.927573 110.802172 
L 224.121843 110.658062 
L 224.929076 110.170305 
L 225.469372 109.826657 
L 225.823877 109.638206 
L 226.000093 109.521809 
L 227.390376 108.10842 
L 227.517082 107.886712 
L 227.691576 107.631748 
L 227.820281 107.376784 
L 227.950063 107.160619 
L 228.03303 107.005423 
L 228.154938 106.622977 
L 228.271434 106.284872 
L 228.622418 105.237302 
L 228.676298 105.04885 
L 228.773778 104.683032 
L 229.049778 103.735231 
L 229.139139 103.541236 
L 229.251897 103.358327 
L 229.332943 103.203132 
L 230.482545 101.174504 
L 230.772963 100.526008 
L 230.931633 100.215617 
L 231.236718 99.506151 
L 231.412375 99.05165 
L 231.544428 98.691374 
L 231.791808 97.915396 
L 232.089534 97.011936 
L 232.259597 96.48538 
L 232.330712 96.263672 
L 232.507499 95.676146 
L 232.601415 95.304785 
L 232.734652 94.900168 
L 233.454194 92.904796 
L 233.632053 92.411496 
L 233.932863 91.724201 
L 234.2587 90.837369 
L 234.38185 90.532521 
L 234.657676 89.756543 
L 234.737448 89.534835 
L 235.009182 88.631375 
L 235.073388 88.481722 
L 235.322968 87.700201 
L 235.372313 87.522835 
L 235.54126 86.95748 
L 236.124874 85.228157 
L 236.287546 84.690515 
L 236.389605 84.396752 
L 236.511055 84.04202 
L 236.589927 83.859111 
L 236.989914 82.656345 
L 237.042498 82.506692 
L 238.444776 78.538119 
L 238.506203 78.405094 
L 238.759801 77.80094 
L 238.827846 77.629116 
L 239.179582 76.786626 
L 239.326266 76.454064 
L 239.395695 76.265612 
L 239.787409 75.301183 
L 239.946745 74.951993 
L 240.383126 73.788026 
L 240.525587 73.40558 
L 240.598916 73.228213 
L 240.729733 72.917822 
L 240.883359 72.651772 
L 240.964881 72.457778 
L 241.078718 72.213899 
L 241.23581 71.931221 
L 241.533496 71.382494 
L 241.806845 70.900279 
L 242.104311 70.212985 
L 242.373199 69.686428 
L 242.450277 69.531233 
L 242.622867 69.25964 
L 243.016597 68.677657 
L 243.194897 68.389437 
L 243.383786 68.195442 
L 243.720924 67.857337 
L 243.907031 67.696599 
L 245.750052 66.083674 
L 246.147011 65.817624 
L 246.253746 65.756654 
L 246.491643 65.584831 
L 247.476509 64.919707 
L 247.755323 64.797767 
L 248.104608 64.576059 
L 248.427847 64.326638 
L 248.585117 64.221327 
L 249.890108 63.373294 
L 250.32532 63.162671 
L 250.462597 63.062902 
L 252.248496 61.893393 
L 252.673113 61.671685 
L 253.225245 61.427806 
L 253.592439 61.294781 
L 253.715449 61.222726 
L 255.366414 60.585316 
L 255.697907 59.798252 
L 256.102665 59.554374 
L 256.45149 59.29941 
L 256.562808 59.227354 
L 256.719849 59.138671 
L 257.192718 58.867079 
L 257.363575 58.739597 
L 257.583711 58.584401 
L 257.941235 58.307266 
L 258.046684 58.240754 
L 258.613751 57.908192 
L 259.431462 57.43152 
L 259.778194 57.259696 
L 259.889387 57.171013 
L 260.15629 57.02136 
L 260.498045 56.832908 
L 260.616856 56.777481 
L 260.932023 56.566859 
L 261.695369 56.167784 
L 262.233904 55.896192 
L 262.37646 55.835222 
L 263.073261 55.41952 
L 263.307365 55.27541 
L 263.445082 55.170098 
L 263.821056 54.992732 
L 264.016187 54.887421 
L 264.926933 54.432919 
L 265.062469 54.383035 
L 265.469016 54.16687 
L 265.599254 54.1059 
L 265.989444 53.96179 
L 266.08763 53.87865 
L 266.453229 53.712369 
L 267.762491 52.526231 
L 267.937213 52.365493 
L 268.056803 52.226925 
L 270.463451 50.630628 
L 270.698345 50.536402 
L 271.06287 50.359035 
L 271.529674 50.148413 
L 272.106458 49.887906 
L 272.199939 49.85465 
L 272.920277 49.571972 
L 273.645463 49.233867 
L 273.874658 49.073129 
L 274.211099 48.862507 
L 274.313605 48.795994 
L 274.59242 48.635256 
L 276.223257 47.643113 
L 276.589125 47.482374 
L 276.690742 47.399234 
L 277.014595 47.216325 
L 278.188933 46.839421 
L 278.652455 46.667598 
L 280.540394 46.262981 
L 281.559649 46.124413 
L 282.280929 45.919333 
L 283.165863 45.747509 
L 289.299404 45.232038 
L 291.619434 45.093471 
L 291.742985 45.0713 
L 293.525471 44.92719 
L 300.842587 44.007102 
L 319.394179 43.330893 
L 325.08132 43.142441 
L 337.365068 42.931818 
L 337.365068 42.931818 
" style="fill:none;stroke:#ff5500;stroke-dasharray:7.4,3.2;stroke-dashoffset:0;stroke-width:2;"/>
   </g>
   <g id="line2d_69">
    <path clip-path="url(#pd3e820b904)" d="M 209.283732 231.568182 
L 250.489907 230.995736 
L 250.759848 230.972529 
L 252.286121 230.817814 
L 259.941387 230.465837 
L 277.994105 230.206689 
L 278.361817 230.16801 
L 283.960485 229.653583 
L 284.984025 229.572357 
L 289.924483 229.290002 
L 293.79901 229.023119 
L 298.34653 228.860668 
L 301.420554 228.566709 
L 301.511686 228.555106 
L 302.034678 228.415862 
L 302.304904 228.307561 
L 303.13913 228.148979 
L 304.327059 227.990396 
L 306.881342 227.677098 
L 308.366358 227.456629 
L 310.347566 227.224556 
L 310.818952 227.154934 
L 311.558202 226.934465 
L 312.475776 225.731555 
L 312.599114 225.4492 
L 312.861957 224.961848 
L 313.002738 224.718172 
L 313.307747 223.88271 
L 313.608865 222.327824 
L 313.916846 221.086235 
L 314.07101 220.610486 
L 314.229788 220.188888 
L 314.573068 219.550688 
L 314.8316 219.326351 
L 314.939105 219.23739 
L 320.423418 217.082982 
L 320.564349 216.955342 
L 321.408545 215.849129 
L 321.842355 215.106497 
L 321.987335 214.831878 
L 322.132225 214.553391 
L 322.249262 214.332922 
L 322.616985 213.319538 
L 322.741978 212.963693 
L 323.710665 210.205897 
L 323.864966 209.459397 
L 324.04699 208.604596 
L 324.124455 208.264223 
L 324.252175 207.707248 
L 324.771675 205.417465 
L 324.851241 205.104167 
L 324.969316 204.609079 
L 325.072335 204.094651 
L 325.196624 203.626638 
L 325.26246 203.328811 
L 325.413988 202.733158 
L 325.488032 202.435332 
L 325.86807 201.015821 
L 325.99512 200.652241 
L 326.292174 199.882533 
L 326.419832 199.584707 
L 326.531144 199.383577 
L 326.968218 198.258025 
L 327.170159 197.697183 
L 327.310986 197.28332 
L 327.395291 197.074454 
L 327.504711 196.784364 
L 327.591922 196.594838 
L 327.816618 195.999184 
L 327.943039 195.662679 
L 328.106552 195.144384 
L 328.965694 192.374984 
L 329.067648 192.119704 
L 329.76132 190.003975 
L 330.069726 188.739179 
L 330.145178 188.480032 
L 330.288044 187.884378 
L 331.415315 182.79812 
L 331.554327 182.086431 
L 331.602713 181.889169 
L 331.927802 180.326547 
L 331.981716 180.109946 
L 332.274276 178.721378 
L 332.36214 178.435155 
L 332.462838 178.063839 
L 332.905253 176.741025 
L 332.966182 176.570838 
L 333.249891 175.855281 
L 333.405037 175.561322 
L 333.765831 174.838029 
L 334.081762 174.25398 
L 334.192445 174.041246 
L 335.192311 172.443813 
L 335.319611 172.207873 
L 335.670155 171.565805 
L 335.800365 171.267979 
L 335.876184 171.082321 
L 336.186085 170.289406 
L 336.370478 169.77111 
L 336.729713 168.51405 
L 336.855731 168.030566 
L 337.517121 164.557212 
L 337.787274 162.967514 
L 337.865153 162.623273 
L 338.015814 161.957999 
L 338.234447 160.758957 
L 338.418234 159.606329 
L 338.464767 159.362653 
L 338.637166 158.349269 
L 338.736717 157.757484 
L 339.015013 156.426934 
L 339.074353 156.218069 
L 340.079841 153.239804 
L 340.572941 151.255583 
L 340.67291 150.868795 
L 340.792282 150.38531 
L 340.870845 150.064277 
L 341.049651 149.337116 
L 341.211021 148.745331 
L 341.339155 148.161281 
L 341.702874 145.79414 
L 341.7731 145.314524 
L 343.107893 137.106889 
L 343.26315 136.058694 
L 343.603244 133.474952 
L 343.771574 132.175345 
L 344.441136 127.085219 
L 344.559231 126.22655 
L 344.824182 124.265537 
L 344.903297 123.693091 
L 347.922915 104.09069 
L 348.03779 103.042495 
L 348.166349 101.781567 
L 348.363069 99.975269 
L 348.387858 99.739328 
L 348.897674 93.237427 
L 349.040004 91.380846 
L 349.121062 90.309444 
L 349.245746 88.808708 
L 349.762438 82.801895 
L 349.905543 80.925974 
L 351.835256 61.43961 
L 351.885192 61.106972 
L 353.546125 52.771697 
L 353.618766 52.516418 
L 353.832582 51.74671 
L 354.590111 49.464663 
L 354.74021 49.128157 
L 354.944561 48.59439 
L 355.055443 48.269489 
L 355.193136 47.913644 
L 355.316814 47.584874 
L 355.459158 47.225162 
L 355.522604 47.08205 
L 355.654071 46.733941 
L 356.066898 45.95263 
L 356.139587 45.790179 
L 356.295395 45.395656 
L 356.413507 45.066886 
L 356.565391 44.56793 
L 356.944433 43.763412 
L 357.604004 43.140684 
L 359.356213 43.028515 
L 372.427219 42.935686 
L 382.789773 42.931818 
L 382.789773 42.931818 
" style="fill:none;stroke:#58b792;stroke-dasharray:7.4,3.2;stroke-dashoffset:0;stroke-width:2;"/>
   </g>
   <g id="line2d_70">
    <path clip-path="url(#pd3e820b904)" d="M 68.585227 231.567236 
L 68.632083 231.557608 
L 71.986642 231.461331 
L 72.482274 231.254336 
L 72.84847 230.907739 
L 73.329585 230.363774 
L 73.645913 229.863134 
L 76.737453 223.311488 
L 77.607028 222.290952 
L 77.879827 222.069515 
L 78.38445 221.713291 
L 78.71601 221.453343 
L 82.996125 218.839424 
L 83.447051 218.473571 
L 83.808291 218.170299 
L 84.892151 217.091997 
L 85.183184 216.803166 
L 85.54938 216.480639 
L 86.090073 216.042579 
L 86.595731 215.527497 
L 87.043342 215.099064 
L 87.386728 214.776537 
L 88.180268 214.145923 
L 88.580669 213.784884 
L 88.883139 213.486426 
L 89.113661 213.327569 
L 89.319562 213.130201 
L 93.767051 209.230985 
L 94.116432 208.956595 
L 94.613714 208.585929 
L 95.325377 208.017895 
L 98.936367 205.336582 
L 99.613532 204.821501 
L 99.883152 204.614505 
L 100.661801 204.051285 
L 104.670708 201.663617 
L 105.095206 201.475877 
L 105.964201 201.119652 
L 106.332337 200.970423 
L 106.545969 200.893401 
L 109.483118 199.872866 
L 110.916304 199.559966 
L 111.290258 199.511827 
L 117.465966 198.221716 
L 118.268153 198.058045 
L 118.541649 198.024348 
L 119.089053 197.956954 
L 120.246978 197.78847 
L 121.783185 197.653682 
L 124.090325 197.451501 
L 125.138662 197.307085 
L 126.881376 197.085648 
L 126.936864 197.061579 
L 128.489458 196.91235 
L 135.661816 195.617425 
L 137.137428 194.957928 
L 137.463846 194.803885 
L 137.718952 194.678725 
L 138.536863 194.250292 
L 139.006146 193.869998 
L 139.247981 193.687072 
L 139.376132 193.595609 
L 140.016275 193.080527 
L 140.665405 192.42103 
L 140.825423 192.29587 
L 144.547797 187.405001 
L 144.710891 187.188378 
L 145.602994 185.700899 
L 145.782617 185.402441 
L 146.267726 184.478182 
L 146.449504 184.044936 
L 146.682871 183.669456 
L 146.750967 183.544296 
L 147.201882 182.494877 
L 147.519687 181.792055 
L 147.759488 181.175883 
L 147.878643 180.940005 
L 148.241978 180.14572 
L 148.461291 179.601755 
L 148.618167 179.231089 
L 148.774192 178.778587 
L 148.960882 178.350155 
L 149.032365 178.220181 
L 149.200362 177.815818 
L 149.28824 177.647333 
L 149.454753 177.170762 
L 149.695752 176.540148 
L 150.417746 174.446125 
L 150.569741 173.96474 
L 150.77743 173.266732 
L 150.911494 172.799789 
L 152.735602 165.829338 
L 152.958179 164.977287 
L 154.838458 157.279945 
L 154.987413 156.716725 
L 157.012898 148.783505 
L 157.135952 148.23954 
L 157.951495 145.091284 
L 158.028868 144.840964 
L 158.214132 144.162212 
L 158.47439 143.112793 
L 158.581115 142.780637 
L 158.750648 142.231859 
L 158.977842 141.413505 
L 159.696179 138.53001 
L 159.878869 137.798306 
L 160.035097 137.239899 
L 160.182732 136.787398 
L 160.600142 135.27585 
L 160.905963 134.207176 
L 161.062361 133.74986 
L 161.428342 132.450121 
L 163.57799 125.412277 
L 164.096688 123.635967 
L 164.34754 122.846496 
L 164.993954 120.661009 
L 165.183449 119.958188 
L 166.229046 116.525915 
L 166.402795 115.948253 
L 167.626408 111.817972 
L 167.79491 111.259566 
L 168.266794 109.497698 
L 168.31794 109.338841 
L 168.552044 108.515673 
L 168.640247 108.255725 
L 168.871751 107.456626 
L 168.916114 107.312211 
L 171.215369 99.181623 
L 171.385148 98.517312 
L 171.609972 97.684517 
L 171.772266 97.092413 
L 171.816251 96.928743 
L 172.053131 95.990042 
L 172.215499 95.450891 
L 173.343034 91.623883 
L 173.448263 91.306169 
L 173.913481 89.914967 
L 173.968709 89.770552 
L 174.143297 89.265098 
L 174.413838 88.470813 
L 174.821922 87.267351 
L 174.911439 87.017031 
L 175.345744 85.688409 
L 175.57124 85.182955 
L 175.842217 84.494575 
L 175.934219 84.292394 
L 176.210689 83.594386 
L 176.330261 83.34888 
L 177.024494 81.842145 
L 177.396313 81.091185 
L 177.64014 80.499082 
L 180.314496 75.844092 
L 180.522464 75.584144 
L 180.69194 75.300127 
L 181.241988 74.433634 
L 181.628665 73.875228 
L 183.717592 70.54886 
L 183.960089 70.192635 
L 184.18627 69.937501 
L 184.32548 69.749761 
L 184.445697 69.61016 
L 184.586147 69.446489 
L 184.824745 69.061381 
L 184.976448 68.830316 
L 185.335685 68.247841 
L 185.454977 68.064915 
L 185.694478 67.752015 
L 185.814676 67.525764 
L 186.816177 65.99496 
L 187.076593 65.537645 
L 188.405458 63.838357 
L 188.808393 63.299206 
L 188.956892 63.135535 
L 189.398543 62.601198 
L 189.651973 62.293112 
L 189.845942 62.018722 
L 191.010902 60.584196 
L 191.282765 60.189461 
L 191.404662 60.020976 
L 191.926346 59.279643 
L 192.050666 59.101531 
L 192.55332 58.37464 
L 192.666828 58.220597 
L 192.792355 58.090623 
L 193.211163 57.532217 
L 193.527539 57.147109 
L 193.794771 56.858278 
L 193.924466 56.699421 
L 194.239648 56.333569 
L 194.895184 55.625933 
L 195.048262 55.462263 
L 195.189639 55.293778 
L 196.412459 53.998853 
L 196.665719 53.796671 
L 196.824303 53.570421 
L 197.030991 53.373053 
L 197.188113 53.252707 
L 197.6912 52.776136 
L 197.893856 52.59321 
L 198.045306 52.477677 
L 198.355591 52.251426 
L 198.513827 52.126266 
L 198.712308 51.981851 
L 198.934098 51.789297 
L 199.115208 51.654509 
L 200.480577 50.840969 
L 200.636581 50.701368 
L 200.925886 50.532883 
L 202.355316 49.676018 
L 203.147213 49.160937 
L 203.488132 49.011707 
L 205.154463 48.092262 
L 205.483338 47.947847 
L 206.383183 47.504973 
L 206.834423 47.312419 
L 207.072774 47.206515 
L 207.702469 46.927311 
L 208.009833 46.792524 
L 208.662271 46.47481 
L 209.330041 46.229304 
L 209.44025 46.195607 
L 218.894995 44.130466 
L 227.953548 43.408389 
L 232.826128 43.249532 
L 239.75872 43.138814 
L 293.003907 42.931818 
L 293.003907 42.931818 
" style="fill:none;stroke:#c70d2c;stroke-dasharray:7.4,3.2;stroke-dashoffset:0;stroke-width:2;"/>
   </g>
   <g id="patch_3">
    <path d="M 52.875 241 
L 52.875 33.5 
" style="fill:none;stroke:#000000;stroke-linecap:square;stroke-linejoin:miter;stroke-width:0.8;"/>
   </g>
   <g id="patch_4">
    <path d="M 398.5 241 
L 398.5 33.5 
" style="fill:none;stroke:#000000;stroke-linecap:square;stroke-linejoin:miter;stroke-width:0.8;"/>
   </g>
   <g id="patch_5">
    <path d="M 52.875 241 
L 398.5 241 
" style="fill:none;stroke:#000000;stroke-linecap:square;stroke-linejoin:miter;stroke-width:0.8;"/>
   </g>
   <g id="patch_6">
    <path d="M 52.875 33.5 
L 398.5 33.5 
" style="fill:none;stroke:#000000;stroke-linecap:square;stroke-linejoin:miter;stroke-width:0.8;"/>
   </g>
   <g id="text_14">
    <!-- Cumulative Distribution Function: Blocked Requests -->
    <defs>
     <path d="M 64.40625 67.28125 
L 64.40625 56.890625 
Q 59.421875 61.53125 53.78125 63.8125 
Q 48.140625 66.109375 41.796875 66.109375 
Q 29.296875 66.109375 22.65625 58.46875 
Q 16.015625 50.828125 16.015625 36.375 
Q 16.015625 21.96875 22.65625 14.328125 
Q 29.296875 6.6875 41.796875 6.6875 
Q 48.140625 6.6875 53.78125 8.984375 
Q 59.421875 11.28125 64.40625 15.921875 
L 64.40625 5.609375 
Q 59.234375 2.09375 53.4375 0.328125 
Q 47.65625 -1.421875 41.21875 -1.421875 
Q 24.65625 -1.421875 15.125 8.703125 
Q 5.609375 18.84375 5.609375 36.375 
Q 5.609375 53.953125 15.125 64.078125 
Q 24.65625 74.21875 41.21875 74.21875 
Q 47.75 74.21875 53.53125 72.484375 
Q 59.328125 70.75 64.40625 67.28125 
z
" id="DejaVuSans-67"/>
     <path d="M 2.984375 54.6875 
L 12.5 54.6875 
L 29.59375 8.796875 
L 46.6875 54.6875 
L 56.203125 54.6875 
L 35.6875 0 
L 23.484375 0 
z
" id="DejaVuSans-118"/>
     <path d="M 19.671875 64.796875 
L 19.671875 8.109375 
L 31.59375 8.109375 
Q 46.6875 8.109375 53.6875 14.9375 
Q 60.6875 21.78125 60.6875 36.53125 
Q 60.6875 51.171875 53.6875 57.984375 
Q 46.6875 64.796875 31.59375 64.796875 
z
M 9.8125 72.90625 
L 30.078125 72.90625 
Q 51.265625 72.90625 61.171875 64.09375 
Q 71.09375 55.28125 71.09375 36.53125 
Q 71.09375 17.671875 61.125 8.828125 
Q 51.171875 0 30.078125 0 
L 9.8125 0 
z
" id="DejaVuSans-68"/>
     <path d="M 11.71875 12.40625 
L 22.015625 12.40625 
L 22.015625 0 
L 11.71875 0 
z
M 11.71875 51.703125 
L 22.015625 51.703125 
L 22.015625 39.3125 
L 11.71875 39.3125 
z
" id="DejaVuSans-58"/>
     <path d="M 19.671875 34.8125 
L 19.671875 8.109375 
L 35.5 8.109375 
Q 43.453125 8.109375 47.28125 11.40625 
Q 51.125 14.703125 51.125 21.484375 
Q 51.125 28.328125 47.28125 31.5625 
Q 43.453125 34.8125 35.5 34.8125 
z
M 19.671875 64.796875 
L 19.671875 42.828125 
L 34.28125 42.828125 
Q 41.5 42.828125 45.03125 45.53125 
Q 48.578125 48.25 48.578125 53.8125 
Q 48.578125 59.328125 45.03125 62.0625 
Q 41.5 64.796875 34.28125 64.796875 
z
M 9.8125 72.90625 
L 35.015625 72.90625 
Q 46.296875 72.90625 52.390625 68.21875 
Q 58.5 63.53125 58.5 54.890625 
Q 58.5 48.1875 55.375 44.234375 
Q 52.25 40.28125 46.1875 39.3125 
Q 53.46875 37.75 57.5 32.78125 
Q 61.53125 27.828125 61.53125 20.40625 
Q 61.53125 10.640625 54.890625 5.3125 
Q 48.25 0 35.984375 0 
L 9.8125 0 
z
" id="DejaVuSans-66"/>
     <path d="M 9.078125 75.984375 
L 18.109375 75.984375 
L 18.109375 31.109375 
L 44.921875 54.6875 
L 56.390625 54.6875 
L 27.390625 29.109375 
L 57.625 0 
L 45.90625 0 
L 18.109375 26.703125 
L 18.109375 0 
L 9.078125 0 
z
" id="DejaVuSans-107"/>
     <path d="M 45.40625 46.390625 
L 45.40625 75.984375 
L 54.390625 75.984375 
L 54.390625 0 
L 45.40625 0 
L 45.40625 8.203125 
Q 42.578125 3.328125 38.25 0.953125 
Q 33.9375 -1.421875 27.875 -1.421875 
Q 17.96875 -1.421875 11.734375 6.484375 
Q 5.515625 14.40625 5.515625 27.296875 
Q 5.515625 40.1875 11.734375 48.09375 
Q 17.96875 56 27.875 56 
Q 33.9375 56 38.25 53.625 
Q 42.578125 51.265625 45.40625 46.390625 
z
M 14.796875 27.296875 
Q 14.796875 17.390625 18.875 11.75 
Q 22.953125 6.109375 30.078125 6.109375 
Q 37.203125 6.109375 41.296875 11.75 
Q 45.40625 17.390625 45.40625 27.296875 
Q 45.40625 37.203125 41.296875 42.84375 
Q 37.203125 48.484375 30.078125 48.484375 
Q 22.953125 48.484375 18.875 42.84375 
Q 14.796875 37.203125 14.796875 27.296875 
z
" id="DejaVuSans-100"/>
    </defs>
    <g transform="translate(69.457813 27.5)scale(0.12 -0.12)">
     <use xlink:href="#DejaVuSans-67"/>
     <use x="69.824219" xlink:href="#DejaVuSans-117"/>
     <use x="133.203125" xlink:href="#DejaVuSans-109"/>
     <use x="230.615234" xlink:href="#DejaVuSans-117"/>
     <use x="293.994141" xlink:href="#DejaVuSans-108"/>
     <use x="321.777344" xlink:href="#DejaVuSans-97"/>
     <use x="383.056641" xlink:href="#DejaVuSans-116"/>
     <use x="422.265625" xlink:href="#DejaVuSans-105"/>
     <use x="450.048828" xlink:href="#DejaVuSans-118"/>
     <use x="509.228516" xlink:href="#DejaVuSans-101"/>
     <use x="570.751953" xlink:href="#DejaVuSans-32"/>
     <use x="602.539062" xlink:href="#DejaVuSans-68"/>
     <use x="679.541016" xlink:href="#DejaVuSans-105"/>
     <use x="707.324219" xlink:href="#DejaVuSans-115"/>
     <use x="759.423828" xlink:href="#DejaVuSans-116"/>
     <use x="798.632812" xlink:href="#DejaVuSans-114"/>
     <use x="839.746094" xlink:href="#DejaVuSans-105"/>
     <use x="867.529297" xlink:href="#DejaVuSans-98"/>
     <use x="931.005859" xlink:href="#DejaVuSans-117"/>
     <use x="994.384766" xlink:href="#DejaVuSans-116"/>
     <use x="1033.59375" xlink:href="#DejaVuSans-105"/>
     <use x="1061.376953" xlink:href="#DejaVuSans-111"/>
     <use x="1122.558594" xlink:href="#DejaVuSans-110"/>
     <use x="1185.9375" xlink:href="#DejaVuSans-32"/>
     <use x="1217.724609" xlink:href="#DejaVuSans-70"/>
     <use x="1275.166016" xlink:href="#DejaVuSans-117"/>
     <use x="1338.544922" xlink:href="#DejaVuSans-110"/>
     <use x="1401.923828" xlink:href="#DejaVuSans-99"/>
     <use x="1456.904297" xlink:href="#DejaVuSans-116"/>
     <use x="1496.113281" xlink:href="#DejaVuSans-105"/>
     <use x="1523.896484" xlink:href="#DejaVuSans-111"/>
     <use x="1585.078125" xlink:href="#DejaVuSans-110"/>
     <use x="1648.457031" xlink:href="#DejaVuSans-58"/>
     <use x="1682.148438" xlink:href="#DejaVuSans-32"/>
     <use x="1713.935547" xlink:href="#DejaVuSans-66"/>
     <use x="1782.539062" xlink:href="#DejaVuSans-108"/>
     <use x="1810.322266" xlink:href="#DejaVuSans-111"/>
     <use x="1871.503906" xlink:href="#DejaVuSans-99"/>
     <use x="1926.484375" xlink:href="#DejaVuSans-107"/>
     <use x="1984.347656" xlink:href="#DejaVuSans-101"/>
     <use x="2045.871094" xlink:href="#DejaVuSans-100"/>
     <use x="2109.347656" xlink:href="#DejaVuSans-32"/>
     <use x="2141.134766" xlink:href="#DejaVuSans-82"/>
     <use x="2210.554688" xlink:href="#DejaVuSans-101"/>
     <use x="2272.078125" xlink:href="#DejaVuSans-113"/>
     <use x="2335.554688" xlink:href="#DejaVuSans-117"/>
     <use x="2398.933594" xlink:href="#DejaVuSans-101"/>
     <use x="2460.457031" xlink:href="#DejaVuSans-115"/>
     <use x="2512.556641" xlink:href="#DejaVuSans-116"/>
     <use x="2551.765625" xlink:href="#DejaVuSans-115"/>
    </g>
   </g>
   <g id="legend_1">
    <g id="patch_7">
     <path d="M 292.7125 236 
L 391.5 236 
Q 393.5 236 393.5 234 
L 393.5 161.609375 
Q 393.5 159.609375 391.5 159.609375 
L 292.7125 159.609375 
Q 290.7125 159.609375 290.7125 161.609375 
L 290.7125 234 
Q 290.7125 236 292.7125 236 
z
" style="fill:#ffffff;opacity:0.8;stroke:#cccccc;stroke-linejoin:miter;"/>
    </g>
    <g id="line2d_71">
     <path d="M 294.7125 167.707813 
L 314.7125 167.707813 
" style="fill:none;stroke:#00aff0;stroke-dasharray:7.4,3.2;stroke-dashoffset:0;stroke-width:2;"/>
    </g>
    <g id="line2d_72"/>
    <g id="text_15">
     <!-- Ghostery -->
     <defs>
      <path d="M 59.515625 10.40625 
L 59.515625 29.984375 
L 43.40625 29.984375 
L 43.40625 38.09375 
L 69.28125 38.09375 
L 69.28125 6.78125 
Q 63.578125 2.734375 56.6875 0.65625 
Q 49.8125 -1.421875 42 -1.421875 
Q 24.90625 -1.421875 15.25 8.5625 
Q 5.609375 18.5625 5.609375 36.375 
Q 5.609375 54.25 15.25 64.234375 
Q 24.90625 74.21875 42 74.21875 
Q 49.125 74.21875 55.546875 72.453125 
Q 61.96875 70.703125 67.390625 67.28125 
L 67.390625 56.78125 
Q 61.921875 61.421875 55.765625 63.765625 
Q 49.609375 66.109375 42.828125 66.109375 
Q 29.4375 66.109375 22.71875 58.640625 
Q 16.015625 51.171875 16.015625 36.375 
Q 16.015625 21.625 22.71875 14.15625 
Q 29.4375 6.6875 42.828125 6.6875 
Q 48.046875 6.6875 52.140625 7.59375 
Q 56.25 8.5 59.515625 10.40625 
z
" id="DejaVuSans-71"/>
      <path d="M 54.890625 33.015625 
L 54.890625 0 
L 45.90625 0 
L 45.90625 32.71875 
Q 45.90625 40.484375 42.875 44.328125 
Q 39.84375 48.1875 33.796875 48.1875 
Q 26.515625 48.1875 22.3125 43.546875 
Q 18.109375 38.921875 18.109375 30.90625 
L 18.109375 0 
L 9.078125 0 
L 9.078125 75.984375 
L 18.109375 75.984375 
L 18.109375 46.1875 
Q 21.34375 51.125 25.703125 53.5625 
Q 30.078125 56 35.796875 56 
Q 45.21875 56 50.046875 50.171875 
Q 54.890625 44.34375 54.890625 33.015625 
z
" id="DejaVuSans-104"/>
      <path d="M 32.171875 -5.078125 
Q 28.375 -14.84375 24.75 -17.8125 
Q 21.140625 -20.796875 15.09375 -20.796875 
L 7.90625 -20.796875 
L 7.90625 -13.28125 
L 13.1875 -13.28125 
Q 16.890625 -13.28125 18.9375 -11.515625 
Q 21 -9.765625 23.484375 -3.21875 
L 25.09375 0.875 
L 2.984375 54.6875 
L 12.5 54.6875 
L 29.59375 11.921875 
L 46.6875 54.6875 
L 56.203125 54.6875 
z
" id="DejaVuSans-121"/>
     </defs>
     <g transform="translate(322.7125 171.207813)scale(0.1 -0.1)">
      <use xlink:href="#DejaVuSans-71"/>
      <use x="77.490234" xlink:href="#DejaVuSans-104"/>
      <use x="140.869141" xlink:href="#DejaVuSans-111"/>
      <use x="202.050781" xlink:href="#DejaVuSans-115"/>
      <use x="254.150391" xlink:href="#DejaVuSans-116"/>
      <use x="293.359375" xlink:href="#DejaVuSans-101"/>
      <use x="354.882812" xlink:href="#DejaVuSans-114"/>
      <use x="395.996094" xlink:href="#DejaVuSans-121"/>
     </g>
    </g>
    <g id="line2d_73">
     <path d="M 294.7125 182.385938 
L 314.7125 182.385938 
" style="fill:none;stroke:#800000;stroke-dasharray:7.4,3.2;stroke-dashoffset:0;stroke-width:2;"/>
    </g>
    <g id="line2d_74"/>
    <g id="text_16">
     <!-- uBlock Origin -->
     <defs>
      <path d="M 39.40625 66.21875 
Q 28.65625 66.21875 22.328125 58.203125 
Q 16.015625 50.203125 16.015625 36.375 
Q 16.015625 22.609375 22.328125 14.59375 
Q 28.65625 6.59375 39.40625 6.59375 
Q 50.140625 6.59375 56.421875 14.59375 
Q 62.703125 22.609375 62.703125 36.375 
Q 62.703125 50.203125 56.421875 58.203125 
Q 50.140625 66.21875 39.40625 66.21875 
z
M 39.40625 74.21875 
Q 54.734375 74.21875 63.90625 63.9375 
Q 73.09375 53.65625 73.09375 36.375 
Q 73.09375 19.140625 63.90625 8.859375 
Q 54.734375 -1.421875 39.40625 -1.421875 
Q 24.03125 -1.421875 14.8125 8.828125 
Q 5.609375 19.09375 5.609375 36.375 
Q 5.609375 53.65625 14.8125 63.9375 
Q 24.03125 74.21875 39.40625 74.21875 
z
" id="DejaVuSans-79"/>
     </defs>
     <g transform="translate(322.7125 185.885938)scale(0.1 -0.1)">
      <use xlink:href="#DejaVuSans-117"/>
      <use x="63.378906" xlink:href="#DejaVuSans-66"/>
      <use x="131.982422" xlink:href="#DejaVuSans-108"/>
      <use x="159.765625" xlink:href="#DejaVuSans-111"/>
      <use x="220.947266" xlink:href="#DejaVuSans-99"/>
      <use x="275.927734" xlink:href="#DejaVuSans-107"/>
      <use x="333.837891" xlink:href="#DejaVuSans-32"/>
      <use x="365.625" xlink:href="#DejaVuSans-79"/>
      <use x="444.335938" xlink:href="#DejaVuSans-114"/>
      <use x="485.449219" xlink:href="#DejaVuSans-105"/>
      <use x="513.232422" xlink:href="#DejaVuSans-103"/>
      <use x="576.708984" xlink:href="#DejaVuSans-105"/>
      <use x="604.492188" xlink:href="#DejaVuSans-110"/>
     </g>
    </g>
    <g id="line2d_75">
     <path d="M 294.7125 197.064063 
L 314.7125 197.064063 
" style="fill:none;stroke:#ff5500;stroke-dasharray:7.4,3.2;stroke-dashoffset:0;stroke-width:2;"/>
    </g>
    <g id="line2d_76"/>
    <g id="text_17">
     <!-- Brave -->
     <g transform="translate(322.7125 200.564063)scale(0.1 -0.1)">
      <use xlink:href="#DejaVuSans-66"/>
      <use x="68.603516" xlink:href="#DejaVuSans-114"/>
      <use x="109.716797" xlink:href="#DejaVuSans-97"/>
      <use x="170.996094" xlink:href="#DejaVuSans-118"/>
      <use x="230.175781" xlink:href="#DejaVuSans-101"/>
     </g>
    </g>
    <g id="line2d_77">
     <path d="M 294.7125 211.742188 
L 314.7125 211.742188 
" style="fill:none;stroke:#58b792;stroke-dasharray:7.4,3.2;stroke-dashoffset:0;stroke-width:2;"/>
    </g>
    <g id="line2d_78"/>
    <g id="text_18">
     <!-- DuckDuckGo -->
     <g transform="translate(322.7125 215.242188)scale(0.1 -0.1)">
      <use xlink:href="#DejaVuSans-68"/>
      <use x="77.001953" xlink:href="#DejaVuSans-117"/>
      <use x="140.380859" xlink:href="#DejaVuSans-99"/>
      <use x="195.361328" xlink:href="#DejaVuSans-107"/>
      <use x="253.271484" xlink:href="#DejaVuSans-68"/>
      <use x="330.273438" xlink:href="#DejaVuSans-117"/>
      <use x="393.652344" xlink:href="#DejaVuSans-99"/>
      <use x="448.632812" xlink:href="#DejaVuSans-107"/>
      <use x="506.542969" xlink:href="#DejaVuSans-71"/>
      <use x="584.033203" xlink:href="#DejaVuSans-111"/>
     </g>
    </g>
    <g id="line2d_79">
     <path d="M 294.7125 226.420313 
L 314.7125 226.420313 
" style="fill:none;stroke:#c70d2c;stroke-dasharray:7.4,3.2;stroke-dashoffset:0;stroke-width:2;"/>
    </g>
    <g id="line2d_80"/>
    <g id="text_19">
     <!-- Adblock Plus -->
     <defs>
      <path d="M 34.1875 63.1875 
L 20.796875 26.90625 
L 47.609375 26.90625 
z
M 28.609375 72.90625 
L 39.796875 72.90625 
L 67.578125 0 
L 57.328125 0 
L 50.6875 18.703125 
L 17.828125 18.703125 
L 11.1875 0 
L 0.78125 0 
z
" id="DejaVuSans-65"/>
      <path d="M 19.671875 64.796875 
L 19.671875 37.40625 
L 32.078125 37.40625 
Q 38.96875 37.40625 42.71875 40.96875 
Q 46.484375 44.53125 46.484375 51.125 
Q 46.484375 57.671875 42.71875 61.234375 
Q 38.96875 64.796875 32.078125 64.796875 
z
M 9.8125 72.90625 
L 32.078125 72.90625 
Q 44.34375 72.90625 50.609375 67.359375 
Q 56.890625 61.8125 56.890625 51.125 
Q 56.890625 40.328125 50.609375 34.8125 
Q 44.34375 29.296875 32.078125 29.296875 
L 19.671875 29.296875 
L 19.671875 0 
L 9.8125 0 
z
" id="DejaVuSans-80"/>
     </defs>
     <g transform="translate(322.7125 229.920313)scale(0.1 -0.1)">
      <use xlink:href="#DejaVuSans-65"/>
      <use x="68.392578" xlink:href="#DejaVuSans-100"/>
      <use x="131.869141" xlink:href="#DejaVuSans-98"/>
      <use x="195.345703" xlink:href="#DejaVuSans-108"/>
      <use x="223.128906" xlink:href="#DejaVuSans-111"/>
      <use x="284.310547" xlink:href="#DejaVuSans-99"/>
      <use x="339.291016" xlink:href="#DejaVuSans-107"/>
      <use x="397.201172" xlink:href="#DejaVuSans-32"/>
      <use x="428.988281" xlink:href="#DejaVuSans-80"/>
      <use x="489.291016" xlink:href="#DejaVuSans-108"/>
      <use x="517.074219" xlink:href="#DejaVuSans-117"/>
      <use x="580.453125" xlink:href="#DejaVuSans-115"/>
     </g>
    </g>
   </g>
  </g>
 </g>
 <defs>
  <clipPath id="pd3e820b904">
   <rect height="207.5" width="345.625" x="52.875" y="33.5"/>
  </clipPath>
 </defs>
</svg>
