<?xml version="1.0" encoding="utf-8" standalone="no"?>
<!DOCTYPE svg PUBLIC "-//W3C//DTD SVG 1.1//EN"
  "http://www.w3.org/Graphics/SVG/1.1/DTD/svg11.dtd">
<!-- Created with matplotlib (https://matplotlib.org/) -->
<svg height="288pt" version="1.1" viewBox="0 0 432 288" width="432pt" xmlns="http://www.w3.org/2000/svg" xmlns:xlink="http://www.w3.org/1999/xlink">
 <defs>
  <style type="text/css">
*{stroke-linecap:butt;stroke-linejoin:round;}
  </style>
 </defs>
 <g id="figure_1">
  <g id="patch_1">
   <path d="M 0 288 
L 432 288 
L 432 0 
L 0 0 
z
" style="fill:#ffffff;"/>
  </g>
  <g id="axes_1">
   <g id="patch_2">
    <path d="M 52.875 241 
L 398.5 241 
L 398.5 33.5 
L 52.875 33.5 
z
" style="fill:#ffffff;"/>
   </g>
   <g id="matplotlib.axis_1">
    <g id="xtick_1">
     <g id="line2d_1">
      <path clip-path="url(#pc6c05dd539)" d="M 66.521859 241 
L 66.521859 33.5 
" style="fill:none;stroke:#b0b0b0;stroke-dasharray:3.7,1.6;stroke-dashoffset:0;"/>
     </g>
     <g id="line2d_2">
      <defs>
       <path d="M 0 0 
L 0 3.5 
" id="m17aad6880a" style="stroke:#000000;stroke-width:0.8;"/>
      </defs>
      <g>
       <use style="stroke:#000000;stroke-width:0.8;" x="66.521859" xlink:href="#m17aad6880a" y="241"/>
      </g>
     </g>
     <g id="text_1">
      <!-- $\mathdefault{10^{-3}}$ -->
      <defs>
       <path d="M 12.40625 8.296875 
L 28.515625 8.296875 
L 28.515625 63.921875 
L 10.984375 60.40625 
L 10.984375 69.390625 
L 28.421875 72.90625 
L 38.28125 72.90625 
L 38.28125 8.296875 
L 54.390625 8.296875 
L 54.390625 0 
L 12.40625 0 
z
" id="DejaVuSans-49"/>
       <path d="M 31.78125 66.40625 
Q 24.171875 66.40625 20.328125 58.90625 
Q 16.5 51.421875 16.5 36.375 
Q 16.5 21.390625 20.328125 13.890625 
Q 24.171875 6.390625 31.78125 6.390625 
Q 39.453125 6.390625 43.28125 13.890625 
Q 47.125 21.390625 47.125 36.375 
Q 47.125 51.421875 43.28125 58.90625 
Q 39.453125 66.40625 31.78125 66.40625 
z
M 31.78125 74.21875 
Q 44.046875 74.21875 50.515625 64.515625 
Q 56.984375 54.828125 56.984375 36.375 
Q 56.984375 17.96875 50.515625 8.265625 
Q 44.046875 -1.421875 31.78125 -1.421875 
Q 19.53125 -1.421875 13.0625 8.265625 
Q 6.59375 17.96875 6.59375 36.375 
Q 6.59375 54.828125 13.0625 64.515625 
Q 19.53125 74.21875 31.78125 74.21875 
z
" id="DejaVuSans-48"/>
       <path d="M 10.59375 35.5 
L 73.1875 35.5 
L 73.1875 27.203125 
L 10.59375 27.203125 
z
" id="DejaVuSans-8722"/>
       <path d="M 40.578125 39.3125 
Q 47.65625 37.796875 51.625 33 
Q 55.609375 28.21875 55.609375 21.1875 
Q 55.609375 10.40625 48.1875 4.484375 
Q 40.765625 -1.421875 27.09375 -1.421875 
Q 22.515625 -1.421875 17.65625 -0.515625 
Q 12.796875 0.390625 7.625 2.203125 
L 7.625 11.71875 
Q 11.71875 9.328125 16.59375 8.109375 
Q 21.484375 6.890625 26.8125 6.890625 
Q 36.078125 6.890625 40.9375 10.546875 
Q 45.796875 14.203125 45.796875 21.1875 
Q 45.796875 27.640625 41.28125 31.265625 
Q 36.765625 34.90625 28.71875 34.90625 
L 20.21875 34.90625 
L 20.21875 43.015625 
L 29.109375 43.015625 
Q 36.375 43.015625 40.234375 45.921875 
Q 44.09375 48.828125 44.09375 54.296875 
Q 44.09375 59.90625 40.109375 62.90625 
Q 36.140625 65.921875 28.71875 65.921875 
Q 24.65625 65.921875 20.015625 65.03125 
Q 15.375 64.15625 9.8125 62.3125 
L 9.8125 71.09375 
Q 15.4375 72.65625 20.34375 73.4375 
Q 25.25 74.21875 29.59375 74.21875 
Q 40.828125 74.21875 47.359375 69.109375 
Q 53.90625 64.015625 53.90625 55.328125 
Q 53.90625 49.265625 50.4375 45.09375 
Q 46.96875 40.921875 40.578125 39.3125 
z
" id="DejaVuSans-51"/>
      </defs>
      <g transform="translate(54.771859 255.598438)scale(0.1 -0.1)">
       <use transform="translate(0 0.765625)" xlink:href="#DejaVuSans-49"/>
       <use transform="translate(63.623047 0.765625)" xlink:href="#DejaVuSans-48"/>
       <use transform="translate(128.203125 39.046875)scale(0.7)" xlink:href="#DejaVuSans-8722"/>
       <use transform="translate(186.855469 39.046875)scale(0.7)" xlink:href="#DejaVuSans-51"/>
      </g>
     </g>
    </g>
    <g id="xtick_2">
     <g id="line2d_3">
      <path clip-path="url(#pc6c05dd539)" d="M 139.783399 241 
L 139.783399 33.5 
" style="fill:none;stroke:#b0b0b0;stroke-dasharray:3.7,1.6;stroke-dashoffset:0;"/>
     </g>
     <g id="line2d_4">
      <g>
       <use style="stroke:#000000;stroke-width:0.8;" x="139.783399" xlink:href="#m17aad6880a" y="241"/>
      </g>
     </g>
     <g id="text_2">
      <!-- $\mathdefault{10^{-2}}$ -->
      <defs>
       <path d="M 19.1875 8.296875 
L 53.609375 8.296875 
L 53.609375 0 
L 7.328125 0 
L 7.328125 8.296875 
Q 12.9375 14.109375 22.625 23.890625 
Q 32.328125 33.6875 34.8125 36.53125 
Q 39.546875 41.84375 41.421875 45.53125 
Q 43.3125 49.21875 43.3125 52.78125 
Q 43.3125 58.59375 39.234375 62.25 
Q 35.15625 65.921875 28.609375 65.921875 
Q 23.96875 65.921875 18.8125 64.3125 
Q 13.671875 62.703125 7.8125 59.421875 
L 7.8125 69.390625 
Q 13.765625 71.78125 18.9375 73 
Q 24.125 74.21875 28.421875 74.21875 
Q 39.75 74.21875 46.484375 68.546875 
Q 53.21875 62.890625 53.21875 53.421875 
Q 53.21875 48.921875 51.53125 44.890625 
Q 49.859375 40.875 45.40625 35.40625 
Q 44.1875 33.984375 37.640625 27.21875 
Q 31.109375 20.453125 19.1875 8.296875 
z
" id="DejaVuSans-50"/>
      </defs>
      <g transform="translate(128.033399 255.598438)scale(0.1 -0.1)">
       <use transform="translate(0 0.765625)" xlink:href="#DejaVuSans-49"/>
       <use transform="translate(63.623047 0.765625)" xlink:href="#DejaVuSans-48"/>
       <use transform="translate(128.203125 39.046875)scale(0.7)" xlink:href="#DejaVuSans-8722"/>
       <use transform="translate(186.855469 39.046875)scale(0.7)" xlink:href="#DejaVuSans-50"/>
      </g>
     </g>
    </g>
    <g id="xtick_3">
     <g id="line2d_5">
      <path clip-path="url(#pc6c05dd539)" d="M 213.044939 241 
L 213.044939 33.5 
" style="fill:none;stroke:#b0b0b0;stroke-dasharray:3.7,1.6;stroke-dashoffset:0;"/>
     </g>
     <g id="line2d_6">
      <g>
       <use style="stroke:#000000;stroke-width:0.8;" x="213.044939" xlink:href="#m17aad6880a" y="241"/>
      </g>
     </g>
     <g id="text_3">
      <!-- $\mathdefault{10^{-1}}$ -->
      <g transform="translate(201.294939 255.598438)scale(0.1 -0.1)">
       <use transform="translate(0 0.684375)" xlink:href="#DejaVuSans-49"/>
       <use transform="translate(63.623047 0.684375)" xlink:href="#DejaVuSans-48"/>
       <use transform="translate(128.203125 38.965625)scale(0.7)" xlink:href="#DejaVuSans-8722"/>
       <use transform="translate(186.855469 38.965625)scale(0.7)" xlink:href="#DejaVuSans-49"/>
      </g>
     </g>
    </g>
    <g id="xtick_4">
     <g id="line2d_7">
      <path clip-path="url(#pc6c05dd539)" d="M 286.306479 241 
L 286.306479 33.5 
" style="fill:none;stroke:#b0b0b0;stroke-dasharray:3.7,1.6;stroke-dashoffset:0;"/>
     </g>
     <g id="line2d_8">
      <g>
       <use style="stroke:#000000;stroke-width:0.8;" x="286.306479" xlink:href="#m17aad6880a" y="241"/>
      </g>
     </g>
     <g id="text_4">
      <!-- $\mathdefault{10^{0}}$ -->
      <g transform="translate(277.506479 255.598438)scale(0.1 -0.1)">
       <use transform="translate(0 0.765625)" xlink:href="#DejaVuSans-49"/>
       <use transform="translate(63.623047 0.765625)" xlink:href="#DejaVuSans-48"/>
       <use transform="translate(128.203125 39.046875)scale(0.7)" xlink:href="#DejaVuSans-48"/>
      </g>
     </g>
    </g>
    <g id="xtick_5">
     <g id="line2d_9">
      <path clip-path="url(#pc6c05dd539)" d="M 359.568019 241 
L 359.568019 33.5 
" style="fill:none;stroke:#b0b0b0;stroke-dasharray:3.7,1.6;stroke-dashoffset:0;"/>
     </g>
     <g id="line2d_10">
      <g>
       <use style="stroke:#000000;stroke-width:0.8;" x="359.568019" xlink:href="#m17aad6880a" y="241"/>
      </g>
     </g>
     <g id="text_5">
      <!-- $\mathdefault{10^{1}}$ -->
      <g transform="translate(350.768019 255.598438)scale(0.1 -0.1)">
       <use transform="translate(0 0.684375)" xlink:href="#DejaVuSans-49"/>
       <use transform="translate(63.623047 0.684375)" xlink:href="#DejaVuSans-48"/>
       <use transform="translate(128.203125 38.965625)scale(0.7)" xlink:href="#DejaVuSans-49"/>
      </g>
     </g>
    </g>
    <g id="xtick_6">
     <g id="line2d_11">
      <defs>
       <path d="M 0 0 
L 0 2 
" id="m4537421edf" style="stroke:#000000;stroke-width:0.6;"/>
      </defs>
      <g>
       <use style="stroke:#000000;stroke-width:0.6;" x="55.173502" xlink:href="#m4537421edf" y="241"/>
      </g>
     </g>
    </g>
    <g id="xtick_7">
     <g id="line2d_12">
      <g>
       <use style="stroke:#000000;stroke-width:0.6;" x="59.422082" xlink:href="#m4537421edf" y="241"/>
      </g>
     </g>
    </g>
    <g id="xtick_8">
     <g id="line2d_13">
      <g>
       <use style="stroke:#000000;stroke-width:0.6;" x="63.169594" xlink:href="#m4537421edf" y="241"/>
      </g>
     </g>
    </g>
    <g id="xtick_9">
     <g id="line2d_14">
      <g>
       <use style="stroke:#000000;stroke-width:0.6;" x="88.57578" xlink:href="#m4537421edf" y="241"/>
      </g>
     </g>
    </g>
    <g id="xtick_10">
     <g id="line2d_15">
      <g>
       <use style="stroke:#000000;stroke-width:0.6;" x="101.476497" xlink:href="#m4537421edf" y="241"/>
      </g>
     </g>
    </g>
    <g id="xtick_11">
     <g id="line2d_16">
      <g>
       <use style="stroke:#000000;stroke-width:0.6;" x="110.629701" xlink:href="#m4537421edf" y="241"/>
      </g>
     </g>
    </g>
    <g id="xtick_12">
     <g id="line2d_17">
      <g>
       <use style="stroke:#000000;stroke-width:0.6;" x="117.729478" xlink:href="#m4537421edf" y="241"/>
      </g>
     </g>
    </g>
    <g id="xtick_13">
     <g id="line2d_18">
      <g>
       <use style="stroke:#000000;stroke-width:0.6;" x="123.530418" xlink:href="#m4537421edf" y="241"/>
      </g>
     </g>
    </g>
    <g id="xtick_14">
     <g id="line2d_19">
      <g>
       <use style="stroke:#000000;stroke-width:0.6;" x="128.435043" xlink:href="#m4537421edf" y="241"/>
      </g>
     </g>
    </g>
    <g id="xtick_15">
     <g id="line2d_20">
      <g>
       <use style="stroke:#000000;stroke-width:0.6;" x="132.683622" xlink:href="#m4537421edf" y="241"/>
      </g>
     </g>
    </g>
    <g id="xtick_16">
     <g id="line2d_21">
      <g>
       <use style="stroke:#000000;stroke-width:0.6;" x="136.431134" xlink:href="#m4537421edf" y="241"/>
      </g>
     </g>
    </g>
    <g id="xtick_17">
     <g id="line2d_22">
      <g>
       <use style="stroke:#000000;stroke-width:0.6;" x="161.83732" xlink:href="#m4537421edf" y="241"/>
      </g>
     </g>
    </g>
    <g id="xtick_18">
     <g id="line2d_23">
      <g>
       <use style="stroke:#000000;stroke-width:0.6;" x="174.738037" xlink:href="#m4537421edf" y="241"/>
      </g>
     </g>
    </g>
    <g id="xtick_19">
     <g id="line2d_24">
      <g>
       <use style="stroke:#000000;stroke-width:0.6;" x="183.891241" xlink:href="#m4537421edf" y="241"/>
      </g>
     </g>
    </g>
    <g id="xtick_20">
     <g id="line2d_25">
      <g>
       <use style="stroke:#000000;stroke-width:0.6;" x="190.991018" xlink:href="#m4537421edf" y="241"/>
      </g>
     </g>
    </g>
    <g id="xtick_21">
     <g id="line2d_26">
      <g>
       <use style="stroke:#000000;stroke-width:0.6;" x="196.791958" xlink:href="#m4537421edf" y="241"/>
      </g>
     </g>
    </g>
    <g id="xtick_22">
     <g id="line2d_27">
      <g>
       <use style="stroke:#000000;stroke-width:0.6;" x="201.696583" xlink:href="#m4537421edf" y="241"/>
      </g>
     </g>
    </g>
    <g id="xtick_23">
     <g id="line2d_28">
      <g>
       <use style="stroke:#000000;stroke-width:0.6;" x="205.945162" xlink:href="#m4537421edf" y="241"/>
      </g>
     </g>
    </g>
    <g id="xtick_24">
     <g id="line2d_29">
      <g>
       <use style="stroke:#000000;stroke-width:0.6;" x="209.692675" xlink:href="#m4537421edf" y="241"/>
      </g>
     </g>
    </g>
    <g id="xtick_25">
     <g id="line2d_30">
      <g>
       <use style="stroke:#000000;stroke-width:0.6;" x="235.09886" xlink:href="#m4537421edf" y="241"/>
      </g>
     </g>
    </g>
    <g id="xtick_26">
     <g id="line2d_31">
      <g>
       <use style="stroke:#000000;stroke-width:0.6;" x="247.999577" xlink:href="#m4537421edf" y="241"/>
      </g>
     </g>
    </g>
    <g id="xtick_27">
     <g id="line2d_32">
      <g>
       <use style="stroke:#000000;stroke-width:0.6;" x="257.152781" xlink:href="#m4537421edf" y="241"/>
      </g>
     </g>
    </g>
    <g id="xtick_28">
     <g id="line2d_33">
      <g>
       <use style="stroke:#000000;stroke-width:0.6;" x="264.252558" xlink:href="#m4537421edf" y="241"/>
      </g>
     </g>
    </g>
    <g id="xtick_29">
     <g id="line2d_34">
      <g>
       <use style="stroke:#000000;stroke-width:0.6;" x="270.053498" xlink:href="#m4537421edf" y="241"/>
      </g>
     </g>
    </g>
    <g id="xtick_30">
     <g id="line2d_35">
      <g>
       <use style="stroke:#000000;stroke-width:0.6;" x="274.958123" xlink:href="#m4537421edf" y="241"/>
      </g>
     </g>
    </g>
    <g id="xtick_31">
     <g id="line2d_36">
      <g>
       <use style="stroke:#000000;stroke-width:0.6;" x="279.206702" xlink:href="#m4537421edf" y="241"/>
      </g>
     </g>
    </g>
    <g id="xtick_32">
     <g id="line2d_37">
      <g>
       <use style="stroke:#000000;stroke-width:0.6;" x="282.954215" xlink:href="#m4537421edf" y="241"/>
      </g>
     </g>
    </g>
    <g id="xtick_33">
     <g id="line2d_38">
      <g>
       <use style="stroke:#000000;stroke-width:0.6;" x="308.3604" xlink:href="#m4537421edf" y="241"/>
      </g>
     </g>
    </g>
    <g id="xtick_34">
     <g id="line2d_39">
      <g>
       <use style="stroke:#000000;stroke-width:0.6;" x="321.261117" xlink:href="#m4537421edf" y="241"/>
      </g>
     </g>
    </g>
    <g id="xtick_35">
     <g id="line2d_40">
      <g>
       <use style="stroke:#000000;stroke-width:0.6;" x="330.414321" xlink:href="#m4537421edf" y="241"/>
      </g>
     </g>
    </g>
    <g id="xtick_36">
     <g id="line2d_41">
      <g>
       <use style="stroke:#000000;stroke-width:0.6;" x="337.514098" xlink:href="#m4537421edf" y="241"/>
      </g>
     </g>
    </g>
    <g id="xtick_37">
     <g id="line2d_42">
      <g>
       <use style="stroke:#000000;stroke-width:0.6;" x="343.315038" xlink:href="#m4537421edf" y="241"/>
      </g>
     </g>
    </g>
    <g id="xtick_38">
     <g id="line2d_43">
      <g>
       <use style="stroke:#000000;stroke-width:0.6;" x="348.219663" xlink:href="#m4537421edf" y="241"/>
      </g>
     </g>
    </g>
    <g id="xtick_39">
     <g id="line2d_44">
      <g>
       <use style="stroke:#000000;stroke-width:0.6;" x="352.468242" xlink:href="#m4537421edf" y="241"/>
      </g>
     </g>
    </g>
    <g id="xtick_40">
     <g id="line2d_45">
      <g>
       <use style="stroke:#000000;stroke-width:0.6;" x="356.215755" xlink:href="#m4537421edf" y="241"/>
      </g>
     </g>
    </g>
    <g id="xtick_41">
     <g id="line2d_46">
      <g>
       <use style="stroke:#000000;stroke-width:0.6;" x="381.62194" xlink:href="#m4537421edf" y="241"/>
      </g>
     </g>
    </g>
    <g id="xtick_42">
     <g id="line2d_47">
      <g>
       <use style="stroke:#000000;stroke-width:0.6;" x="394.522657" xlink:href="#m4537421edf" y="241"/>
      </g>
     </g>
    </g>
    <g id="text_6">
     <!-- Time (ms)  -->
     <defs>
      <path d="M -0.296875 72.90625 
L 61.375 72.90625 
L 61.375 64.59375 
L 35.5 64.59375 
L 35.5 0 
L 25.59375 0 
L 25.59375 64.59375 
L -0.296875 64.59375 
z
" id="DejaVuSans-84"/>
      <path d="M 9.421875 54.6875 
L 18.40625 54.6875 
L 18.40625 0 
L 9.421875 0 
z
M 9.421875 75.984375 
L 18.40625 75.984375 
L 18.40625 64.59375 
L 9.421875 64.59375 
z
" id="DejaVuSans-105"/>
      <path d="M 52 44.1875 
Q 55.375 50.25 60.0625 53.125 
Q 64.75 56 71.09375 56 
Q 79.640625 56 84.28125 50.015625 
Q 88.921875 44.046875 88.921875 33.015625 
L 88.921875 0 
L 79.890625 0 
L 79.890625 32.71875 
Q 79.890625 40.578125 77.09375 44.375 
Q 74.3125 48.1875 68.609375 48.1875 
Q 61.625 48.1875 57.5625 43.546875 
Q 53.515625 38.921875 53.515625 30.90625 
L 53.515625 0 
L 44.484375 0 
L 44.484375 32.71875 
Q 44.484375 40.625 41.703125 44.40625 
Q 38.921875 48.1875 33.109375 48.1875 
Q 26.21875 48.1875 22.15625 43.53125 
Q 18.109375 38.875 18.109375 30.90625 
L 18.109375 0 
L 9.078125 0 
L 9.078125 54.6875 
L 18.109375 54.6875 
L 18.109375 46.1875 
Q 21.1875 51.21875 25.484375 53.609375 
Q 29.78125 56 35.6875 56 
Q 41.65625 56 45.828125 52.96875 
Q 50 49.953125 52 44.1875 
z
" id="DejaVuSans-109"/>
      <path d="M 56.203125 29.59375 
L 56.203125 25.203125 
L 14.890625 25.203125 
Q 15.484375 15.921875 20.484375 11.0625 
Q 25.484375 6.203125 34.421875 6.203125 
Q 39.59375 6.203125 44.453125 7.46875 
Q 49.3125 8.734375 54.109375 11.28125 
L 54.109375 2.78125 
Q 49.265625 0.734375 44.1875 -0.34375 
Q 39.109375 -1.421875 33.890625 -1.421875 
Q 20.796875 -1.421875 13.15625 6.1875 
Q 5.515625 13.8125 5.515625 26.8125 
Q 5.515625 40.234375 12.765625 48.109375 
Q 20.015625 56 32.328125 56 
Q 43.359375 56 49.78125 48.890625 
Q 56.203125 41.796875 56.203125 29.59375 
z
M 47.21875 32.234375 
Q 47.125 39.59375 43.09375 43.984375 
Q 39.0625 48.390625 32.421875 48.390625 
Q 24.90625 48.390625 20.390625 44.140625 
Q 15.875 39.890625 15.1875 32.171875 
z
" id="DejaVuSans-101"/>
      <path id="DejaVuSans-32"/>
      <path d="M 31 75.875 
Q 24.46875 64.65625 21.28125 53.65625 
Q 18.109375 42.671875 18.109375 31.390625 
Q 18.109375 20.125 21.3125 9.0625 
Q 24.515625 -2 31 -13.1875 
L 23.1875 -13.1875 
Q 15.875 -1.703125 12.234375 9.375 
Q 8.59375 20.453125 8.59375 31.390625 
Q 8.59375 42.28125 12.203125 53.3125 
Q 15.828125 64.359375 23.1875 75.875 
z
" id="DejaVuSans-40"/>
      <path d="M 44.28125 53.078125 
L 44.28125 44.578125 
Q 40.484375 46.53125 36.375 47.5 
Q 32.28125 48.484375 27.875 48.484375 
Q 21.1875 48.484375 17.84375 46.4375 
Q 14.5 44.390625 14.5 40.28125 
Q 14.5 37.15625 16.890625 35.375 
Q 19.28125 33.59375 26.515625 31.984375 
L 29.59375 31.296875 
Q 39.15625 29.25 43.1875 25.515625 
Q 47.21875 21.78125 47.21875 15.09375 
Q 47.21875 7.46875 41.1875 3.015625 
Q 35.15625 -1.421875 24.609375 -1.421875 
Q 20.21875 -1.421875 15.453125 -0.5625 
Q 10.6875 0.296875 5.421875 2 
L 5.421875 11.28125 
Q 10.40625 8.6875 15.234375 7.390625 
Q 20.0625 6.109375 24.8125 6.109375 
Q 31.15625 6.109375 34.5625 8.28125 
Q 37.984375 10.453125 37.984375 14.40625 
Q 37.984375 18.0625 35.515625 20.015625 
Q 33.0625 21.96875 24.703125 23.78125 
L 21.578125 24.515625 
Q 13.234375 26.265625 9.515625 29.90625 
Q 5.8125 33.546875 5.8125 39.890625 
Q 5.8125 47.609375 11.28125 51.796875 
Q 16.75 56 26.8125 56 
Q 31.78125 56 36.171875 55.265625 
Q 40.578125 54.546875 44.28125 53.078125 
z
" id="DejaVuSans-115"/>
      <path d="M 8.015625 75.875 
L 15.828125 75.875 
Q 23.140625 64.359375 26.78125 53.3125 
Q 30.421875 42.28125 30.421875 31.390625 
Q 30.421875 20.453125 26.78125 9.375 
Q 23.140625 -1.703125 15.828125 -13.1875 
L 8.015625 -13.1875 
Q 14.5 -2 17.703125 9.0625 
Q 20.90625 20.125 20.90625 31.390625 
Q 20.90625 42.671875 17.703125 53.65625 
Q 14.5 64.65625 8.015625 75.875 
z
" id="DejaVuSans-41"/>
     </defs>
     <g transform="translate(198.745313 269.276563)scale(0.1 -0.1)">
      <use xlink:href="#DejaVuSans-84"/>
      <use x="61.037109" xlink:href="#DejaVuSans-105"/>
      <use x="88.820312" xlink:href="#DejaVuSans-109"/>
      <use x="186.232422" xlink:href="#DejaVuSans-101"/>
      <use x="247.755859" xlink:href="#DejaVuSans-32"/>
      <use x="279.542969" xlink:href="#DejaVuSans-40"/>
      <use x="318.556641" xlink:href="#DejaVuSans-109"/>
      <use x="415.96875" xlink:href="#DejaVuSans-115"/>
      <use x="468.068359" xlink:href="#DejaVuSans-41"/>
      <use x="507.082031" xlink:href="#DejaVuSans-32"/>
     </g>
     <!--  log (base 10) -->
     <defs>
      <path d="M 9.421875 75.984375 
L 18.40625 75.984375 
L 18.40625 0 
L 9.421875 0 
z
" id="DejaVuSans-108"/>
      <path d="M 30.609375 48.390625 
Q 23.390625 48.390625 19.1875 42.75 
Q 14.984375 37.109375 14.984375 27.296875 
Q 14.984375 17.484375 19.15625 11.84375 
Q 23.34375 6.203125 30.609375 6.203125 
Q 37.796875 6.203125 41.984375 11.859375 
Q 46.1875 17.53125 46.1875 27.296875 
Q 46.1875 37.015625 41.984375 42.703125 
Q 37.796875 48.390625 30.609375 48.390625 
z
M 30.609375 56 
Q 42.328125 56 49.015625 48.375 
Q 55.71875 40.765625 55.71875 27.296875 
Q 55.71875 13.875 49.015625 6.21875 
Q 42.328125 -1.421875 30.609375 -1.421875 
Q 18.84375 -1.421875 12.171875 6.21875 
Q 5.515625 13.875 5.515625 27.296875 
Q 5.515625 40.765625 12.171875 48.375 
Q 18.84375 56 30.609375 56 
z
" id="DejaVuSans-111"/>
      <path d="M 45.40625 27.984375 
Q 45.40625 37.75 41.375 43.109375 
Q 37.359375 48.484375 30.078125 48.484375 
Q 22.859375 48.484375 18.828125 43.109375 
Q 14.796875 37.75 14.796875 27.984375 
Q 14.796875 18.265625 18.828125 12.890625 
Q 22.859375 7.515625 30.078125 7.515625 
Q 37.359375 7.515625 41.375 12.890625 
Q 45.40625 18.265625 45.40625 27.984375 
z
M 54.390625 6.78125 
Q 54.390625 -7.171875 48.1875 -13.984375 
Q 42 -20.796875 29.203125 -20.796875 
Q 24.46875 -20.796875 20.265625 -20.09375 
Q 16.0625 -19.390625 12.109375 -17.921875 
L 12.109375 -9.1875 
Q 16.0625 -11.328125 19.921875 -12.34375 
Q 23.78125 -13.375 27.78125 -13.375 
Q 36.625 -13.375 41.015625 -8.765625 
Q 45.40625 -4.15625 45.40625 5.171875 
L 45.40625 9.625 
Q 42.625 4.78125 38.28125 2.390625 
Q 33.9375 0 27.875 0 
Q 17.828125 0 11.671875 7.65625 
Q 5.515625 15.328125 5.515625 27.984375 
Q 5.515625 40.671875 11.671875 48.328125 
Q 17.828125 56 27.875 56 
Q 33.9375 56 38.28125 53.609375 
Q 42.625 51.21875 45.40625 46.390625 
L 45.40625 54.6875 
L 54.390625 54.6875 
z
" id="DejaVuSans-103"/>
      <path d="M 48.6875 27.296875 
Q 48.6875 37.203125 44.609375 42.84375 
Q 40.53125 48.484375 33.40625 48.484375 
Q 26.265625 48.484375 22.1875 42.84375 
Q 18.109375 37.203125 18.109375 27.296875 
Q 18.109375 17.390625 22.1875 11.75 
Q 26.265625 6.109375 33.40625 6.109375 
Q 40.53125 6.109375 44.609375 11.75 
Q 48.6875 17.390625 48.6875 27.296875 
z
M 18.109375 46.390625 
Q 20.953125 51.265625 25.265625 53.625 
Q 29.59375 56 35.59375 56 
Q 45.5625 56 51.78125 48.09375 
Q 58.015625 40.1875 58.015625 27.296875 
Q 58.015625 14.40625 51.78125 6.484375 
Q 45.5625 -1.421875 35.59375 -1.421875 
Q 29.59375 -1.421875 25.265625 0.953125 
Q 20.953125 3.328125 18.109375 8.203125 
L 18.109375 0 
L 9.078125 0 
L 9.078125 75.984375 
L 18.109375 75.984375 
z
" id="DejaVuSans-98"/>
      <path d="M 34.28125 27.484375 
Q 23.390625 27.484375 19.1875 25 
Q 14.984375 22.515625 14.984375 16.5 
Q 14.984375 11.71875 18.140625 8.90625 
Q 21.296875 6.109375 26.703125 6.109375 
Q 34.1875 6.109375 38.703125 11.40625 
Q 43.21875 16.703125 43.21875 25.484375 
L 43.21875 27.484375 
z
M 52.203125 31.203125 
L 52.203125 0 
L 43.21875 0 
L 43.21875 8.296875 
Q 40.140625 3.328125 35.546875 0.953125 
Q 30.953125 -1.421875 24.3125 -1.421875 
Q 15.921875 -1.421875 10.953125 3.296875 
Q 6 8.015625 6 15.921875 
Q 6 25.140625 12.171875 29.828125 
Q 18.359375 34.515625 30.609375 34.515625 
L 43.21875 34.515625 
L 43.21875 35.40625 
Q 43.21875 41.609375 39.140625 45 
Q 35.0625 48.390625 27.6875 48.390625 
Q 23 48.390625 18.546875 47.265625 
Q 14.109375 46.140625 10.015625 43.890625 
L 10.015625 52.203125 
Q 14.9375 54.109375 19.578125 55.046875 
Q 24.21875 56 28.609375 56 
Q 40.484375 56 46.34375 49.84375 
Q 52.203125 43.703125 52.203125 31.203125 
z
" id="DejaVuSans-97"/>
     </defs>
     <g transform="translate(191.114062 280.474375)scale(0.1 -0.1)">
      <use xlink:href="#DejaVuSans-32"/>
      <use x="31.787109" xlink:href="#DejaVuSans-108"/>
      <use x="59.570312" xlink:href="#DejaVuSans-111"/>
      <use x="120.751953" xlink:href="#DejaVuSans-103"/>
      <use x="184.228516" xlink:href="#DejaVuSans-32"/>
      <use x="216.015625" xlink:href="#DejaVuSans-40"/>
      <use x="255.029297" xlink:href="#DejaVuSans-98"/>
      <use x="318.505859" xlink:href="#DejaVuSans-97"/>
      <use x="379.785156" xlink:href="#DejaVuSans-115"/>
      <use x="431.884766" xlink:href="#DejaVuSans-101"/>
      <use x="493.408203" xlink:href="#DejaVuSans-32"/>
      <use x="525.195312" xlink:href="#DejaVuSans-49"/>
      <use x="588.818359" xlink:href="#DejaVuSans-48"/>
      <use x="652.441406" xlink:href="#DejaVuSans-41"/>
     </g>
    </g>
   </g>
   <g id="matplotlib.axis_2">
    <g id="ytick_1">
     <g id="line2d_48">
      <path clip-path="url(#pc6c05dd539)" d="M 52.875 231.572186 
L 398.5 231.572186 
" style="fill:none;stroke:#b0b0b0;stroke-dasharray:3.7,1.6;stroke-dashoffset:0;"/>
     </g>
     <g id="line2d_49">
      <defs>
       <path d="M 0 0 
L -3.5 0 
" id="me73a2518ea" style="stroke:#000000;stroke-width:0.8;"/>
      </defs>
      <g>
       <use style="stroke:#000000;stroke-width:0.8;" x="52.875" xlink:href="#me73a2518ea" y="231.572186"/>
      </g>
     </g>
     <g id="text_7">
      <!-- 0.0 -->
      <defs>
       <path d="M 10.6875 12.40625 
L 21 12.40625 
L 21 0 
L 10.6875 0 
z
" id="DejaVuSans-46"/>
      </defs>
      <g transform="translate(29.971875 235.371405)scale(0.1 -0.1)">
       <use xlink:href="#DejaVuSans-48"/>
       <use x="63.623047" xlink:href="#DejaVuSans-46"/>
       <use x="95.410156" xlink:href="#DejaVuSans-48"/>
      </g>
     </g>
    </g>
    <g id="ytick_2">
     <g id="line2d_50">
      <path clip-path="url(#pc6c05dd539)" d="M 52.875 193.844113 
L 398.5 193.844113 
" style="fill:none;stroke:#b0b0b0;stroke-dasharray:3.7,1.6;stroke-dashoffset:0;"/>
     </g>
     <g id="line2d_51">
      <g>
       <use style="stroke:#000000;stroke-width:0.8;" x="52.875" xlink:href="#me73a2518ea" y="193.844113"/>
      </g>
     </g>
     <g id="text_8">
      <!-- 0.2 -->
      <g transform="translate(29.971875 197.643332)scale(0.1 -0.1)">
       <use xlink:href="#DejaVuSans-48"/>
       <use x="63.623047" xlink:href="#DejaVuSans-46"/>
       <use x="95.410156" xlink:href="#DejaVuSans-50"/>
      </g>
     </g>
    </g>
    <g id="ytick_3">
     <g id="line2d_52">
      <path clip-path="url(#pc6c05dd539)" d="M 52.875 156.116039 
L 398.5 156.116039 
" style="fill:none;stroke:#b0b0b0;stroke-dasharray:3.7,1.6;stroke-dashoffset:0;"/>
     </g>
     <g id="line2d_53">
      <g>
       <use style="stroke:#000000;stroke-width:0.8;" x="52.875" xlink:href="#me73a2518ea" y="156.116039"/>
      </g>
     </g>
     <g id="text_9">
      <!-- 0.4 -->
      <defs>
       <path d="M 37.796875 64.3125 
L 12.890625 25.390625 
L 37.796875 25.390625 
z
M 35.203125 72.90625 
L 47.609375 72.90625 
L 47.609375 25.390625 
L 58.015625 25.390625 
L 58.015625 17.1875 
L 47.609375 17.1875 
L 47.609375 0 
L 37.796875 0 
L 37.796875 17.1875 
L 4.890625 17.1875 
L 4.890625 26.703125 
z
" id="DejaVuSans-52"/>
      </defs>
      <g transform="translate(29.971875 159.915258)scale(0.1 -0.1)">
       <use xlink:href="#DejaVuSans-48"/>
       <use x="63.623047" xlink:href="#DejaVuSans-46"/>
       <use x="95.410156" xlink:href="#DejaVuSans-52"/>
      </g>
     </g>
    </g>
    <g id="ytick_4">
     <g id="line2d_54">
      <path clip-path="url(#pc6c05dd539)" d="M 52.875 118.387965 
L 398.5 118.387965 
" style="fill:none;stroke:#b0b0b0;stroke-dasharray:3.7,1.6;stroke-dashoffset:0;"/>
     </g>
     <g id="line2d_55">
      <g>
       <use style="stroke:#000000;stroke-width:0.8;" x="52.875" xlink:href="#me73a2518ea" y="118.387965"/>
      </g>
     </g>
     <g id="text_10">
      <!-- 0.6 -->
      <defs>
       <path d="M 33.015625 40.375 
Q 26.375 40.375 22.484375 35.828125 
Q 18.609375 31.296875 18.609375 23.390625 
Q 18.609375 15.53125 22.484375 10.953125 
Q 26.375 6.390625 33.015625 6.390625 
Q 39.65625 6.390625 43.53125 10.953125 
Q 47.40625 15.53125 47.40625 23.390625 
Q 47.40625 31.296875 43.53125 35.828125 
Q 39.65625 40.375 33.015625 40.375 
z
M 52.59375 71.296875 
L 52.59375 62.3125 
Q 48.875 64.0625 45.09375 64.984375 
Q 41.3125 65.921875 37.59375 65.921875 
Q 27.828125 65.921875 22.671875 59.328125 
Q 17.53125 52.734375 16.796875 39.40625 
Q 19.671875 43.65625 24.015625 45.921875 
Q 28.375 48.1875 33.59375 48.1875 
Q 44.578125 48.1875 50.953125 41.515625 
Q 57.328125 34.859375 57.328125 23.390625 
Q 57.328125 12.15625 50.6875 5.359375 
Q 44.046875 -1.421875 33.015625 -1.421875 
Q 20.359375 -1.421875 13.671875 8.265625 
Q 6.984375 17.96875 6.984375 36.375 
Q 6.984375 53.65625 15.1875 63.9375 
Q 23.390625 74.21875 37.203125 74.21875 
Q 40.921875 74.21875 44.703125 73.484375 
Q 48.484375 72.75 52.59375 71.296875 
z
" id="DejaVuSans-54"/>
      </defs>
      <g transform="translate(29.971875 122.187184)scale(0.1 -0.1)">
       <use xlink:href="#DejaVuSans-48"/>
       <use x="63.623047" xlink:href="#DejaVuSans-46"/>
       <use x="95.410156" xlink:href="#DejaVuSans-54"/>
      </g>
     </g>
    </g>
    <g id="ytick_5">
     <g id="line2d_56">
      <path clip-path="url(#pc6c05dd539)" d="M 52.875 80.659892 
L 398.5 80.659892 
" style="fill:none;stroke:#b0b0b0;stroke-dasharray:3.7,1.6;stroke-dashoffset:0;"/>
     </g>
     <g id="line2d_57">
      <g>
       <use style="stroke:#000000;stroke-width:0.8;" x="52.875" xlink:href="#me73a2518ea" y="80.659892"/>
      </g>
     </g>
     <g id="text_11">
      <!-- 0.8 -->
      <defs>
       <path d="M 31.78125 34.625 
Q 24.75 34.625 20.71875 30.859375 
Q 16.703125 27.09375 16.703125 20.515625 
Q 16.703125 13.921875 20.71875 10.15625 
Q 24.75 6.390625 31.78125 6.390625 
Q 38.8125 6.390625 42.859375 10.171875 
Q 46.921875 13.96875 46.921875 20.515625 
Q 46.921875 27.09375 42.890625 30.859375 
Q 38.875 34.625 31.78125 34.625 
z
M 21.921875 38.8125 
Q 15.578125 40.375 12.03125 44.71875 
Q 8.5 49.078125 8.5 55.328125 
Q 8.5 64.0625 14.71875 69.140625 
Q 20.953125 74.21875 31.78125 74.21875 
Q 42.671875 74.21875 48.875 69.140625 
Q 55.078125 64.0625 55.078125 55.328125 
Q 55.078125 49.078125 51.53125 44.71875 
Q 48 40.375 41.703125 38.8125 
Q 48.828125 37.15625 52.796875 32.3125 
Q 56.78125 27.484375 56.78125 20.515625 
Q 56.78125 9.90625 50.3125 4.234375 
Q 43.84375 -1.421875 31.78125 -1.421875 
Q 19.734375 -1.421875 13.25 4.234375 
Q 6.78125 9.90625 6.78125 20.515625 
Q 6.78125 27.484375 10.78125 32.3125 
Q 14.796875 37.15625 21.921875 38.8125 
z
M 18.3125 54.390625 
Q 18.3125 48.734375 21.84375 45.5625 
Q 25.390625 42.390625 31.78125 42.390625 
Q 38.140625 42.390625 41.71875 45.5625 
Q 45.3125 48.734375 45.3125 54.390625 
Q 45.3125 60.0625 41.71875 63.234375 
Q 38.140625 66.40625 31.78125 66.40625 
Q 25.390625 66.40625 21.84375 63.234375 
Q 18.3125 60.0625 18.3125 54.390625 
z
" id="DejaVuSans-56"/>
      </defs>
      <g transform="translate(29.971875 84.459111)scale(0.1 -0.1)">
       <use xlink:href="#DejaVuSans-48"/>
       <use x="63.623047" xlink:href="#DejaVuSans-46"/>
       <use x="95.410156" xlink:href="#DejaVuSans-56"/>
      </g>
     </g>
    </g>
    <g id="ytick_6">
     <g id="line2d_58">
      <path clip-path="url(#pc6c05dd539)" d="M 52.875 42.931818 
L 398.5 42.931818 
" style="fill:none;stroke:#b0b0b0;stroke-dasharray:3.7,1.6;stroke-dashoffset:0;"/>
     </g>
     <g id="line2d_59">
      <g>
       <use style="stroke:#000000;stroke-width:0.8;" x="52.875" xlink:href="#me73a2518ea" y="42.931818"/>
      </g>
     </g>
     <g id="text_12">
      <!-- 1.0 -->
      <g transform="translate(29.971875 46.731037)scale(0.1 -0.1)">
       <use xlink:href="#DejaVuSans-49"/>
       <use x="63.623047" xlink:href="#DejaVuSans-46"/>
       <use x="95.410156" xlink:href="#DejaVuSans-48"/>
      </g>
     </g>
    </g>
    <g id="text_13">
     <!-- Fraction of Requests -->
     <defs>
      <path d="M 9.8125 72.90625 
L 51.703125 72.90625 
L 51.703125 64.59375 
L 19.671875 64.59375 
L 19.671875 43.109375 
L 48.578125 43.109375 
L 48.578125 34.8125 
L 19.671875 34.8125 
L 19.671875 0 
L 9.8125 0 
z
" id="DejaVuSans-70"/>
      <path d="M 41.109375 46.296875 
Q 39.59375 47.171875 37.8125 47.578125 
Q 36.03125 48 33.890625 48 
Q 26.265625 48 22.1875 43.046875 
Q 18.109375 38.09375 18.109375 28.8125 
L 18.109375 0 
L 9.078125 0 
L 9.078125 54.6875 
L 18.109375 54.6875 
L 18.109375 46.1875 
Q 20.953125 51.171875 25.484375 53.578125 
Q 30.03125 56 36.53125 56 
Q 37.453125 56 38.578125 55.875 
Q 39.703125 55.765625 41.0625 55.515625 
z
" id="DejaVuSans-114"/>
      <path d="M 48.78125 52.59375 
L 48.78125 44.1875 
Q 44.96875 46.296875 41.140625 47.34375 
Q 37.3125 48.390625 33.40625 48.390625 
Q 24.65625 48.390625 19.8125 42.84375 
Q 14.984375 37.3125 14.984375 27.296875 
Q 14.984375 17.28125 19.8125 11.734375 
Q 24.65625 6.203125 33.40625 6.203125 
Q 37.3125 6.203125 41.140625 7.25 
Q 44.96875 8.296875 48.78125 10.40625 
L 48.78125 2.09375 
Q 45.015625 0.34375 40.984375 -0.53125 
Q 36.96875 -1.421875 32.421875 -1.421875 
Q 20.0625 -1.421875 12.78125 6.34375 
Q 5.515625 14.109375 5.515625 27.296875 
Q 5.515625 40.671875 12.859375 48.328125 
Q 20.21875 56 33.015625 56 
Q 37.15625 56 41.109375 55.140625 
Q 45.0625 54.296875 48.78125 52.59375 
z
" id="DejaVuSans-99"/>
      <path d="M 18.3125 70.21875 
L 18.3125 54.6875 
L 36.8125 54.6875 
L 36.8125 47.703125 
L 18.3125 47.703125 
L 18.3125 18.015625 
Q 18.3125 11.328125 20.140625 9.421875 
Q 21.96875 7.515625 27.59375 7.515625 
L 36.8125 7.515625 
L 36.8125 0 
L 27.59375 0 
Q 17.1875 0 13.234375 3.875 
Q 9.28125 7.765625 9.28125 18.015625 
L 9.28125 47.703125 
L 2.6875 47.703125 
L 2.6875 54.6875 
L 9.28125 54.6875 
L 9.28125 70.21875 
z
" id="DejaVuSans-116"/>
      <path d="M 54.890625 33.015625 
L 54.890625 0 
L 45.90625 0 
L 45.90625 32.71875 
Q 45.90625 40.484375 42.875 44.328125 
Q 39.84375 48.1875 33.796875 48.1875 
Q 26.515625 48.1875 22.3125 43.546875 
Q 18.109375 38.921875 18.109375 30.90625 
L 18.109375 0 
L 9.078125 0 
L 9.078125 54.6875 
L 18.109375 54.6875 
L 18.109375 46.1875 
Q 21.34375 51.125 25.703125 53.5625 
Q 30.078125 56 35.796875 56 
Q 45.21875 56 50.046875 50.171875 
Q 54.890625 44.34375 54.890625 33.015625 
z
" id="DejaVuSans-110"/>
      <path d="M 37.109375 75.984375 
L 37.109375 68.5 
L 28.515625 68.5 
Q 23.6875 68.5 21.796875 66.546875 
Q 19.921875 64.59375 19.921875 59.515625 
L 19.921875 54.6875 
L 34.71875 54.6875 
L 34.71875 47.703125 
L 19.921875 47.703125 
L 19.921875 0 
L 10.890625 0 
L 10.890625 47.703125 
L 2.296875 47.703125 
L 2.296875 54.6875 
L 10.890625 54.6875 
L 10.890625 58.5 
Q 10.890625 67.625 15.140625 71.796875 
Q 19.390625 75.984375 28.609375 75.984375 
z
" id="DejaVuSans-102"/>
      <path d="M 44.390625 34.1875 
Q 47.5625 33.109375 50.5625 29.59375 
Q 53.5625 26.078125 56.59375 19.921875 
L 66.609375 0 
L 56 0 
L 46.6875 18.703125 
Q 43.0625 26.03125 39.671875 28.421875 
Q 36.28125 30.8125 30.421875 30.8125 
L 19.671875 30.8125 
L 19.671875 0 
L 9.8125 0 
L 9.8125 72.90625 
L 32.078125 72.90625 
Q 44.578125 72.90625 50.734375 67.671875 
Q 56.890625 62.453125 56.890625 51.90625 
Q 56.890625 45.015625 53.6875 40.46875 
Q 50.484375 35.9375 44.390625 34.1875 
z
M 19.671875 64.796875 
L 19.671875 38.921875 
L 32.078125 38.921875 
Q 39.203125 38.921875 42.84375 42.21875 
Q 46.484375 45.515625 46.484375 51.90625 
Q 46.484375 58.296875 42.84375 61.546875 
Q 39.203125 64.796875 32.078125 64.796875 
z
" id="DejaVuSans-82"/>
      <path d="M 14.796875 27.296875 
Q 14.796875 17.390625 18.875 11.75 
Q 22.953125 6.109375 30.078125 6.109375 
Q 37.203125 6.109375 41.296875 11.75 
Q 45.40625 17.390625 45.40625 27.296875 
Q 45.40625 37.203125 41.296875 42.84375 
Q 37.203125 48.484375 30.078125 48.484375 
Q 22.953125 48.484375 18.875 42.84375 
Q 14.796875 37.203125 14.796875 27.296875 
z
M 45.40625 8.203125 
Q 42.578125 3.328125 38.25 0.953125 
Q 33.9375 -1.421875 27.875 -1.421875 
Q 17.96875 -1.421875 11.734375 6.484375 
Q 5.515625 14.40625 5.515625 27.296875 
Q 5.515625 40.1875 11.734375 48.09375 
Q 17.96875 56 27.875 56 
Q 33.9375 56 38.25 53.625 
Q 42.578125 51.265625 45.40625 46.390625 
L 45.40625 54.6875 
L 54.390625 54.6875 
L 54.390625 -20.796875 
L 45.40625 -20.796875 
z
" id="DejaVuSans-113"/>
      <path d="M 8.5 21.578125 
L 8.5 54.6875 
L 17.484375 54.6875 
L 17.484375 21.921875 
Q 17.484375 14.15625 20.5 10.265625 
Q 23.53125 6.390625 29.59375 6.390625 
Q 36.859375 6.390625 41.078125 11.03125 
Q 45.3125 15.671875 45.3125 23.6875 
L 45.3125 54.6875 
L 54.296875 54.6875 
L 54.296875 0 
L 45.3125 0 
L 45.3125 8.40625 
Q 42.046875 3.421875 37.71875 1 
Q 33.40625 -1.421875 27.6875 -1.421875 
Q 18.265625 -1.421875 13.375 4.4375 
Q 8.5 10.296875 8.5 21.578125 
z
M 31.109375 56 
z
" id="DejaVuSans-117"/>
     </defs>
     <g transform="translate(23.892187 188.700781)rotate(-90)scale(0.1 -0.1)">
      <use xlink:href="#DejaVuSans-70"/>
      <use x="57.410156" xlink:href="#DejaVuSans-114"/>
      <use x="98.523438" xlink:href="#DejaVuSans-97"/>
      <use x="159.802734" xlink:href="#DejaVuSans-99"/>
      <use x="214.783203" xlink:href="#DejaVuSans-116"/>
      <use x="253.992188" xlink:href="#DejaVuSans-105"/>
      <use x="281.775391" xlink:href="#DejaVuSans-111"/>
      <use x="342.957031" xlink:href="#DejaVuSans-110"/>
      <use x="406.335938" xlink:href="#DejaVuSans-32"/>
      <use x="438.123047" xlink:href="#DejaVuSans-111"/>
      <use x="499.304688" xlink:href="#DejaVuSans-102"/>
      <use x="534.509766" xlink:href="#DejaVuSans-32"/>
      <use x="566.296875" xlink:href="#DejaVuSans-82"/>
      <use x="635.716797" xlink:href="#DejaVuSans-101"/>
      <use x="697.240234" xlink:href="#DejaVuSans-113"/>
      <use x="760.716797" xlink:href="#DejaVuSans-117"/>
      <use x="824.095703" xlink:href="#DejaVuSans-101"/>
      <use x="885.619141" xlink:href="#DejaVuSans-115"/>
      <use x="937.71875" xlink:href="#DejaVuSans-116"/>
      <use x="976.927734" xlink:href="#DejaVuSans-115"/>
     </g>
    </g>
   </g>
   <g id="line2d_60">
    <path clip-path="url(#pc6c05dd539)" d="M 114.185736 231.567774 
L 120.483074 231.228057 
L 121.227131 231.038344 
L 121.380686 230.95893 
L 122.462739 229.988308 
L 123.604571 227.513222 
L 123.704932 227.372041 
L 124.071976 226.922025 
L 124.578826 225.351382 
L 124.757904 224.760185 
L 125.484261 223.180719 
L 125.727691 222.818942 
L 126.427641 221.795377 
L 126.66879 221.429187 
L 127.069851 220.467389 
L 127.42841 219.086459 
L 127.531454 218.693798 
L 127.713306 217.96142 
L 127.940324 217.29522 
L 128.197805 216.606961 
L 128.922186 214.974552 
L 129.490047 213.178901 
L 129.560322 212.962717 
L 130.013366 211.595023 
L 130.060909 211.396486 
L 130.288989 210.562634 
L 131.097637 207.703711 
L 131.64472 205.621286 
L 131.853599 204.681548 
L 132.198712 202.91678 
L 132.615939 200.91377 
L 132.834395 199.81079 
L 133.082798 198.434272 
L 133.247329 197.512181 
L 133.542906 195.641528 
L 134.892028 187.175058 
L 135.021629 186.32797 
L 135.242582 184.739679 
L 135.925129 179.97922 
L 136.17201 178.302691 
L 139.114624 157.271079 
L 139.254038 156.247514 
L 139.486115 154.74305 
L 139.582317 154.160677 
L 139.973731 151.40764 
L 140.172362 149.814938 
L 140.250841 149.26786 
L 140.785594 145.08095 
L 140.844119 144.591228 
L 141.095469 142.574981 
L 142.490274 133.296718 
L 142.595301 132.648166 
L 142.784058 131.562834 
L 142.833241 131.289295 
L 143.112428 129.749536 
L 143.266797 128.920096 
L 143.823691 126.144999 
L 143.902059 125.822929 
L 144.210843 124.256698 
L 144.268926 123.956688 
L 144.472759 122.946359 
L 144.743428 121.666903 
L 145.745666 117.343223 
L 146.1988 115.441687 
L 146.681453 113.557798 
L 146.773536 113.182785 
L 147.199766 111.545963 
L 147.260193 111.356251 
L 147.49077 110.517987 
L 147.610412 110.085619 
L 148.387016 107.147281 
L 149.941111 101.914747 
L 149.989628 101.720623 
L 150.240276 100.904418 
L 150.397928 100.361752 
L 150.636344 99.624962 
L 150.688331 99.430837 
L 150.852772 99.011705 
L 151.045414 98.389625 
L 151.199136 97.961669 
L 151.462518 97.198407 
L 151.607661 96.779275 
L 152.008841 95.614528 
L 152.093228 95.380697 
L 152.280673 94.917445 
L 152.417862 94.617435 
L 152.766733 93.646813 
L 152.825915 93.474748 
L 153.193334 92.415888 
L 153.320415 92.124701 
L 153.62665 91.308497 
L 154.395668 89.40696 
L 154.568064 89.009887 
L 154.715661 88.687817 
L 154.878419 88.23339 
L 155.103317 87.717195 
L 155.166162 87.540719 
L 155.466878 86.698042 
L 155.650977 86.323029 
L 157.510465 82.339068 
L 157.579649 82.189063 
L 157.782687 81.752283 
L 161.757678 72.332838 
L 161.826182 72.15195 
L 162.210564 71.406335 
L 162.348626 71.203387 
L 163.811105 68.684182 
L 163.949852 68.507706 
L 165.303603 66.306159 
L 165.545213 65.909086 
L 165.939203 65.339949 
L 166.080132 65.145824 
L 166.235683 64.881109 
L 166.398749 64.594334 
L 166.693728 64.2855 
L 166.823202 64.1002 
L 167.050884 63.725187 
L 167.264878 63.482531 
L 167.424101 63.323702 
L 167.691244 63.054575 
L 168.087146 62.60456 
L 168.283914 62.339844 
L 168.507865 62.176604 
L 168.69821 61.911888 
L 169.673039 60.932443 
L 169.807063 60.747142 
L 170.01443 60.517722 
L 170.768223 59.785344 
L 170.986149 59.604455 
L 171.118331 59.529453 
L 171.521002 59.150028 
L 171.744338 58.964727 
L 172.071241 58.664717 
L 172.201297 58.576479 
L 172.517876 58.320587 
L 173.592392 57.424968 
L 173.798421 57.257315 
L 173.990097 57.120546 
L 175.400315 55.845502 
L 175.738177 55.554315 
L 176.175041 55.121947 
L 177.380559 53.926317 
L 177.534401 53.732193 
L 178.567461 52.646861 
L 178.703514 52.523327 
L 179.033247 52.263024 
L 179.976349 51.51741 
L 180.395477 51.164457 
L 180.767063 50.87327 
L 180.931606 50.740913 
L 181.080535 50.64385 
L 181.334107 50.467374 
L 181.486315 50.379135 
L 182.347032 49.783526 
L 182.677633 49.567343 
L 182.862199 49.457045 
L 187.309695 47.383443 
L 187.763655 47.242262 
L 188.52839 46.880485 
L 188.879163 46.734891 
L 188.975578 46.68636 
L 189.302699 46.545179 
L 189.933866 46.2937 
L 191.252747 45.826036 
L 192.393333 45.433376 
L 193.268956 45.243663 
L 193.426139 45.164249 
L 194.223041 44.930417 
L 194.526276 44.84659 
L 195.271398 44.705409 
L 197.271416 44.387751 
L 198.912925 44.202451 
L 200.39964 44.061269 
L 207.160529 43.690668 
L 211.950927 43.527427 
L 214.942679 43.439189 
L 228.802186 43.196533 
L 228.892029 43.187709 
L 248.832991 43.055352 
L 293.506893 42.931818 
L 293.506893 42.931818 
" style="fill:none;stroke:#00aff0;stroke-dasharray:7.4,3.2;stroke-dashoffset:0;stroke-width:2;"/>
   </g>
   <g id="line2d_61">
    <path clip-path="url(#pc6c05dd539)" d="M 110.229481 231.567776 
L 116.68811 231.435462 
L 116.99565 231.351663 
L 117.493156 231.192886 
L 117.881834 231.056161 
L 118.817882 230.813585 
L 119.631414 230.681271 
L 119.852429 230.641576 
L 121.090013 230.346075 
L 121.987601 230.006468 
L 124.409052 229.256688 
L 124.558295 229.168478 
L 127.704006 228.15848 
L 129.096282 227.492498 
L 129.446046 227.3249 
L 129.717876 227.201407 
L 130.060909 227.007346 
L 130.224604 226.919137 
L 130.468578 226.76036 
L 130.634436 226.66774 
L 131.243616 226.226692 
L 131.451002 226.045863 
L 133.376009 223.831805 
L 133.539035 223.655386 
L 134.015531 222.94971 
L 134.26627 222.47779 
L 134.432338 222.116131 
L 135.549361 218.592162 
L 137.106221 215.103478 
L 137.282245 214.710946 
L 137.532518 214.00527 
L 137.679023 213.63479 
L 139.818378 207.782092 
L 140.024294 207.11611 
L 140.150353 206.754451 
L 140.559732 205.506287 
L 140.733139 205.06965 
L 141.760174 201.8059 
L 142.320333 199.164026 
L 142.472736 198.356909 
L 142.925615 196.288397 
L 143.10383 195.604774 
L 143.677638 193.478926 
L 144.113802 191.767662 
L 144.33242 190.572423 
L 144.824996 187.524786 
L 144.965888 186.691207 
L 145.331451 184.618284 
L 146.364812 178.52742 
L 146.424261 178.218687 
L 146.707059 176.749999 
L 146.946746 175.537119 
L 147.134174 174.602098 
L 147.222439 174.227208 
L 147.525712 172.882014 
L 148.425838 169.30512 
L 148.583067 168.709706 
L 148.662595 168.348047 
L 148.849783 167.63355 
L 148.890435 167.457131 
L 149.071539 166.79997 
L 149.185392 166.358923 
L 149.66244 164.316874 
L 149.748624 163.928752 
L 149.927235 162.901112 
L 149.978083 162.570326 
L 150.212778 161.150154 
L 150.864004 158.04077 
L 150.940277 157.820246 
L 151.332206 156.166319 
L 151.491159 155.610599 
L 151.736852 154.521212 
L 151.791436 154.309509 
L 151.915539 153.811126 
L 157.364322 132.1557 
L 157.444784 131.886661 
L 157.65594 131.167754 
L 157.935918 130.19745 
L 158.327348 128.830203 
L 158.568025 127.948108 
L 158.733318 127.41003 
L 158.951801 126.602914 
L 159.206832 125.659072 
L 159.550562 124.472655 
L 159.66659 124.14628 
L 159.851697 123.564097 
L 159.931182 123.361216 
L 160.076112 122.862832 
L 160.139941 122.686413 
L 160.784444 120.587028 
L 160.938641 120.084234 
L 161.179915 119.391789 
L 161.256155 119.180087 
L 161.429044 118.664061 
L 161.572136 118.28035 
L 161.695418 117.830482 
L 161.875477 117.25712 
L 164.665237 109.185953 
L 165.159184 107.337965 
L 165.407578 106.482333 
L 165.445949 106.314735 
L 165.679436 105.560544 
L 167.071134 101.569065 
L 167.197739 101.269153 
L 167.699184 100.003347 
L 167.836498 99.685793 
L 168.291708 98.547891 
L 168.552982 97.88632 
L 168.870848 97.193875 
L 168.944732 97.008636 
L 169.252427 96.342654 
L 169.312856 96.153004 
L 169.445898 95.83545 
L 169.746326 95.182699 
L 169.83677 95.023922 
L 170.003355 94.62698 
L 170.459141 93.815453 
L 170.556052 93.634623 
L 170.710498 93.312659 
L 170.965856 92.743708 
L 171.129024 92.364407 
L 171.231025 92.139473 
L 171.509266 91.522006 
L 171.598353 91.358819 
L 171.857163 90.80751 
L 171.969589 90.582575 
L 176.612988 81.960099 
L 176.722784 81.792501 
L 177.098209 81.051542 
L 177.272033 80.66342 
L 177.593597 80.226783 
L 182.139279 73.527274 
L 182.280163 73.346444 
L 183.119133 72.195311 
L 183.262245 72.018892 
L 184.080782 70.964789 
L 184.424457 70.545794 
L 184.524422 70.395838 
L 184.648939 70.219419 
L 185.432236 69.328503 
L 185.554012 69.20501 
L 185.979201 68.711037 
L 186.127093 68.494923 
L 189.222075 64.984186 
L 190.33004 63.797769 
L 190.486234 63.656634 
L 191.068557 63.021526 
L 191.201585 62.87157 
L 191.359859 62.717203 
L 192.086186 62.03799 
L 193.40963 60.842752 
L 193.553207 60.697206 
L 193.846578 60.476682 
L 194.626904 59.784238 
L 194.798996 59.643103 
L 194.92352 59.541662 
L 195.932529 58.809523 
L 197.425659 58.002407 
L 198.030667 57.777472 
L 198.194984 57.684853 
L 198.600848 57.517255 
L 198.76026 57.411403 
L 199.000117 57.279089 
L 199.297539 57.129133 
L 200.409107 56.754243 
L 200.530985 56.723369 
L 201.1256 56.533719 
L 201.249379 56.480793 
L 201.959124 56.282322 
L 202.481786 56.17206 
L 203.093592 56.017693 
L 204.419735 55.61193 
L 206.519027 55.0518 
L 207.223247 54.897433 
L 207.424335 54.857739 
L 208.131298 54.712193 
L 208.454542 54.637215 
L 210.16987 54.156474 
L 210.274871 54.12119 
L 211.489874 53.609575 
L 212.050549 53.252327 
L 212.264518 53.120012 
L 212.525281 52.877436 
L 212.745729 52.705428 
L 215.803204 49.631328 
L 215.976614 49.499013 
L 216.942556 48.656613 
L 217.244283 48.480194 
L 218.061544 47.97299 
L 219.108871 47.41727 
L 221.072338 46.535175 
L 221.633014 46.39404 
L 221.771169 46.354346 
L 223.008768 46.045613 
L 223.088227 46.014739 
L 223.763228 45.83832 
L 224.081942 45.736879 
L 224.846155 45.520766 
L 225.760793 45.322295 
L 225.877282 45.287011 
L 226.982158 45.066487 
L 228.639476 44.894479 
L 228.806258 44.854785 
L 231.395741 44.634261 
L 231.910561 44.594567 
L 234.006659 44.413737 
L 234.269164 44.382864 
L 236.891665 44.135877 
L 238.210074 44.030026 
L 242.225352 43.588979 
L 242.374797 43.571337 
L 245.118703 43.399328 
L 254.520479 43.22732 
L 270.339832 43.086185 
L 271.144823 43.072953 
L 283.869727 42.953871 
L 347.55959 42.931818 
L 347.55959 42.931818 
" style="fill:none;stroke:#800000;stroke-dasharray:7.4,3.2;stroke-dashoffset:0;stroke-width:2;"/>
   </g>
   <g id="line2d_62">
    <path clip-path="url(#pc6c05dd539)" d="M 125.138284 231.567176 
L 130.778329 231.276567 
L 130.87109 231.241493 
L 132.069226 231.076147 
L 132.247134 231.031052 
L 132.528134 230.985958 
L 133.173004 230.835643 
L 139.716513 228.626012 
L 141.308476 228.10993 
L 142.087391 227.899489 
L 142.293881 227.824331 
L 142.821675 227.674016 
L 145.866784 226.8072 
L 146.712177 226.521601 
L 147.670064 226.220971 
L 147.813764 226.145813 
L 148.616831 225.970446 
L 149.251618 225.765015 
L 151.307851 225.394238 
L 152.119148 225.203839 
L 152.261334 225.153734 
L 153.669864 224.90822 
L 153.976843 224.838072 
L 156.145643 224.372096 
L 156.376903 224.066455 
L 156.890244 223.680647 
L 157.193583 223.505279 
L 157.483114 223.369996 
L 157.887325 223.219681 
L 158.477984 222.999218 
L 159.004014 222.828861 
L 164.746644 220.579146 
L 165.237909 220.423821 
L 165.40189 220.373716 
L 165.887419 220.203359 
L 166.934536 219.857634 
L 167.671385 219.637172 
L 170.970632 218.785387 
L 171.80836 218.61503 
L 173.727338 218.2192 
L 174.37002 218.028801 
L 175.067226 217.853434 
L 175.309818 217.683076 
L 175.475015 217.567835 
L 175.661002 217.327331 
L 177.34247 215.438372 
L 177.57032 215.283046 
L 177.76185 215.072605 
L 178.005874 214.847133 
L 178.572162 214.195767 
L 178.689466 214.000358 
L 178.862287 213.664654 
L 178.985953 213.369035 
L 179.747938 209.846652 
L 179.793209 209.696337 
L 179.872729 209.445812 
L 180.126224 208.644132 
L 180.191518 208.433691 
L 180.33238 208.072935 
L 180.453132 207.712179 
L 180.702063 206.93054 
L 180.810908 206.584816 
L 181.128288 205.412358 
L 181.496608 204.009418 
L 181.931007 202.120459 
L 182.035735 201.669514 
L 182.167842 201.113348 
L 182.239137 200.907918 
L 182.3086 200.607288 
L 185.090909 189.033029 
L 185.258221 188.281454 
L 185.396599 187.605036 
L 185.557787 186.93864 
L 186.824511 181.832939 
L 186.90565 181.472183 
L 187.053628 180.875933 
L 187.094651 180.725618 
L 187.238891 180.264652 
L 187.484243 179.332699 
L 190.867327 167.798524 
L 190.963643 167.55301 
L 191.336577 166.580972 
L 191.469745 166.175122 
L 191.586124 165.904555 
L 191.714522 165.608935 
L 193.035893 162.377162 
L 193.57903 161.249799 
L 193.782525 160.85898 
L 194.020039 160.443108 
L 195.636417 157.201314 
L 195.856165 156.76039 
L 196.133471 156.26435 
L 196.257744 155.998793 
L 196.718163 155.197113 
L 196.905237 154.881452 
L 197.918773 153.328196 
L 198.056668 153.152829 
L 198.738819 152.245928 
L 198.869736 151.985382 
L 198.949614 151.810014 
L 199.059923 151.409174 
L 199.371951 149.254658 
L 199.564029 148.152348 
L 200.588455 145.807433 
L 200.737767 145.591982 
L 200.969732 145.251268 
L 201.047761 145.120995 
L 201.212481 144.840407 
L 201.302346 144.67005 
L 201.435065 144.409504 
L 202.023972 143.417424 
L 202.174325 142.981511 
L 202.31996 142.47545 
L 202.616752 141.438276 
L 202.689528 141.167709 
L 203.995501 137.78061 
L 204.10483 137.600232 
L 204.385503 137.094172 
L 204.574573 136.78352 
L 205.104524 136.041966 
L 205.312515 135.696242 
L 206.444333 133.957598 
L 206.572104 133.742146 
L 207.268679 132.689941 
L 207.380646 132.534615 
L 208.129441 131.467378 
L 208.266166 131.297021 
L 208.374683 131.131675 
L 208.674312 130.78094 
L 208.791268 130.625614 
L 209.379329 129.924144 
L 209.577927 129.698671 
L 209.696917 129.58844 
L 209.902329 129.337915 
L 210.007515 129.167558 
L 210.479701 128.641456 
L 210.636925 128.48112 
L 211.457114 127.393841 
L 211.587617 127.093211 
L 211.937093 126.371698 
L 212.065974 126.18631 
L 212.467986 125.700291 
L 212.626671 125.509892 
L 212.878099 125.199241 
L 213.045575 125.033895 
L 214.550297 123.500681 
L 214.909389 123.240135 
L 215.130068 123.064768 
L 215.329393 122.879379 
L 215.56865 122.648896 
L 215.686875 122.528644 
L 215.869945 122.338245 
L 216.069042 122.122793 
L 216.264025 121.962457 
L 216.690474 121.501491 
L 217.493416 120.223813 
L 217.868008 119.036324 
L 217.956199 118.680579 
L 218.093867 118.19456 
L 219.237985 115.829603 
L 219.425211 115.669267 
L 219.550717 115.508931 
L 221.239269 114.216222 
L 221.401414 114.085949 
L 221.902706 113.730203 
L 222.071818 113.574878 
L 222.232169 113.444605 
L 222.563446 113.249195 
L 225.24719 111.771097 
L 225.406588 111.665877 
L 225.780841 111.39531 
L 225.915946 111.265037 
L 226.171391 111.104701 
L 226.270856 111.034554 
L 226.494095 110.89927 
L 226.769564 110.613671 
L 226.889014 110.488409 
L 227.281328 110.107611 
L 227.428043 109.937254 
L 228.337521 109.015322 
L 228.514499 108.809891 
L 228.720255 108.644544 
L 229.170971 108.023242 
L 229.328895 107.817812 
L 229.598188 107.49714 
L 230.024783 106.810701 
L 230.183919 106.595249 
L 230.296416 106.439924 
L 230.544279 106.129273 
L 231.048925 104.981868 
L 231.180009 104.696269 
L 231.341542 104.355555 
L 231.554229 103.914631 
L 231.737933 103.583938 
L 231.857761 103.258255 
L 231.990123 102.987688 
L 232.227447 102.40647 
L 232.354641 102.145924 
L 232.429123 101.970556 
L 232.598223 101.544664 
L 232.796714 100.988498 
L 232.930514 100.652795 
L 233.334794 99.615621 
L 234.064231 96.990118 
L 234.187578 96.699509 
L 235.429938 93.227232 
L 235.640992 92.590898 
L 235.911036 91.804249 
L 236.038563 91.398398 
L 236.252688 90.842233 
L 236.45578 90.225941 
L 236.52248 90.030532 
L 236.669851 89.634702 
L 238.577267 84.22336 
L 238.657456 84.063024 
L 239.352669 82.264254 
L 239.499855 81.868425 
L 239.560891 81.72312 
L 239.966465 80.761104 
L 240.222901 80.064644 
L 240.288918 79.929361 
L 240.555915 79.277996 
L 240.640364 79.137701 
L 240.75377 78.882166 
L 240.888397 78.611599 
L 241.195514 77.885076 
L 241.375733 77.534341 
L 241.505548 77.298847 
L 242.251664 75.675445 
L 242.355426 75.500077 
L 242.601175 74.978985 
L 243.540248 73.345562 
L 243.636979 73.190236 
L 244.18737 72.258283 
L 244.335276 71.937611 
L 244.510323 71.62696 
L 244.651672 71.391466 
L 244.868671 71.03071 
L 245.07862 70.765154 
L 246.01226 69.312108 
L 246.133839 69.116699 
L 246.468447 68.675775 
L 246.582089 68.550512 
L 248.544471 66.441091 
L 248.788845 66.195576 
L 249.072604 65.93002 
L 249.317549 65.73461 
L 249.422284 65.6344 
L 249.568195 65.469054 
L 249.802255 65.293686 
L 250.033311 65.03314 
L 250.165656 64.857772 
L 250.705965 64.301607 
L 251.138238 64.03104 
L 251.694442 63.615168 
L 252.273282 63.294496 
L 252.389164 63.184265 
L 252.896565 62.818498 
L 253.633215 62.197196 
L 254.073763 61.946671 
L 254.734985 61.575894 
L 255.601391 61.290295 
L 255.936694 61.160022 
L 257.710001 60.413458 
L 257.811138 60.343311 
L 258.167076 60.187985 
L 258.378405 59.882345 
L 258.682407 59.316158 
L 258.906542 59.165843 
L 259.047299 59.015528 
L 259.808916 58.569593 
L 259.946838 58.454352 
L 260.207971 58.273974 
L 260.375318 58.143701 
L 263.476375 56.725729 
L 263.754691 56.575414 
L 263.887374 56.460172 
L 264.086805 56.294825 
L 264.295609 56.054321 
L 264.508923 55.893985 
L 264.902141 55.628429 
L 265.001307 55.573313 
L 265.484412 55.34283 
L 266.441397 54.851801 
L 267.654348 53.769533 
L 268.215975 53.448861 
L 268.558015 53.24343 
L 269.001937 53.088105 
L 269.206107 52.912737 
L 269.692186 52.64217 
L 269.970879 52.496865 
L 270.313439 52.261372 
L 270.621946 51.860532 
L 271.394916 50.963652 
L 271.743938 50.768242 
L 271.882021 50.678053 
L 273.574612 49.971573 
L 274.020988 49.806226 
L 274.509813 49.64589 
L 276.942714 48.819157 
L 277.164854 48.754021 
L 277.949805 48.578653 
L 278.579491 48.313097 
L 278.722398 48.212887 
L 279.638303 47.802026 
L 282.175098 47.030408 
L 282.394537 46.94523 
L 282.713263 46.804936 
L 282.974677 46.704726 
L 283.189216 46.554411 
L 283.646325 46.308896 
L 283.937633 46.153571 
L 284.683886 45.772772 
L 285.198271 45.622457 
L 285.310087 45.592394 
L 286.13804 45.396985 
L 288.006039 45.221617 
L 297.158135 44.525158 
L 297.224395 44.505116 
L 300.114271 44.304696 
L 301.538955 44.169412 
L 302.68063 44.064192 
L 303.693074 43.918887 
L 304.02877 43.85375 
L 305.201174 43.703435 
L 305.302002 43.678383 
L 307.157946 43.55312 
L 309.799518 43.407816 
L 310.588807 43.377753 
L 330.996489 42.931818 
L 330.996489 42.931818 
" style="fill:none;stroke:#ff5500;stroke-dasharray:7.4,3.2;stroke-dashoffset:0;stroke-width:2;"/>
   </g>
   <g id="line2d_63">
    <path clip-path="url(#pc6c05dd539)" d="M 205.556217 231.568182 
L 226.997552 231.299874 
L 247.109625 231.151704 
L 252.391381 230.883396 
L 253.071935 230.787286 
L 266.226941 230.378818 
L 277.568796 230.246666 
L 281.173871 230.038427 
L 281.286989 230.00639 
L 281.907843 229.958335 
L 285.471622 229.770119 
L 285.982175 229.734078 
L 287.955387 229.597922 
L 289.364097 229.46577 
L 293.703183 229.16943 
L 294.510325 229.133389 
L 298.088784 228.889109 
L 301.290915 228.744944 
L 302.44786 228.704898 
L 306.766204 228.504668 
L 306.901379 228.408558 
L 307.508963 228.232356 
L 309.86547 227.972057 
L 319.229595 226.770679 
L 319.422179 226.302142 
L 320.08048 222.329585 
L 321.032573 220.463445 
L 321.395958 220.147082 
L 321.511548 219.978889 
L 321.631751 219.67454 
L 321.960373 219.226026 
L 322.664103 218.917672 
L 323.502465 218.745474 
L 323.656494 218.661378 
L 324.28303 218.369043 
L 324.478334 218.304969 
L 328.779287 216.679104 
L 328.949138 216.550957 
L 329.118691 216.370751 
L 329.235475 216.186539 
L 329.348197 216.03036 
L 329.62136 215.485735 
L 329.837863 215.061249 
L 330.160317 214.35644 
L 330.575068 213.583554 
L 330.790788 213.12703 
L 331.000089 212.622451 
L 331.485372 211.204825 
L 331.674154 210.56409 
L 331.790969 210.123585 
L 331.923078 209.514887 
L 331.99367 209.218547 
L 332.924943 204.701366 
L 332.984539 204.409031 
L 333.107591 204.000562 
L 333.231677 203.471956 
L 333.782485 201.822063 
L 333.904962 201.533733 
L 334.080746 201.057186 
L 334.207843 200.740823 
L 334.369662 200.348373 
L 334.440817 200.212217 
L 334.639433 199.655578 
L 334.814195 199.29116 
L 335.054929 198.834637 
L 335.198404 198.50626 
L 335.342632 198.221934 
L 335.490231 197.801452 
L 335.661452 197.473075 
L 335.781999 197.148703 
L 339.0305 189.15153 
L 339.26517 188.146378 
L 339.337402 187.78196 
L 339.488966 186.84088 
L 339.640561 185.963874 
L 340.068954 183.645215 
L 340.098883 183.477022 
L 340.429334 181.91523 
L 340.524976 181.566831 
L 341.23926 178.919795 
L 341.373275 178.543363 
L 341.488755 178.170936 
L 342.089445 176.284772 
L 342.228061 175.880308 
L 342.427889 175.239574 
L 342.63627 174.751013 
L 342.850717 174.318517 
L 342.963465 174.118287 
L 345.598599 169.777308 
L 345.74111 169.312776 
L 345.80018 169.128564 
L 346.744616 165.652577 
L 346.798973 165.48038 
L 347.609804 163.11767 
L 347.816396 162.47293 
L 348.11323 161.49581 
L 348.174205 161.315603 
L 348.301491 160.879102 
L 348.460144 160.434592 
L 348.570312 160.130243 
L 348.648181 159.942027 
L 348.992452 159.065022 
L 349.367806 158.268108 
L 349.624945 157.815588 
L 349.751758 157.611354 
L 350.161252 156.754371 
L 350.688832 155.004364 
L 350.732573 154.772098 
L 351.063712 152.689709 
L 351.1538 152.253208 
L 351.33647 151.524373 
L 351.738473 149.766356 
L 352.739623 143.967705 
L 352.887011 142.842414 
L 353.064496 141.613004 
L 353.193333 140.723985 
L 353.303381 140.003158 
L 353.903084 135.570073 
L 354.085588 134.148443 
L 355.637348 123.836615 
L 355.706481 123.420137 
L 355.889937 122.382948 
L 355.974813 121.946447 
L 356.098729 121.361776 
L 356.299095 120.392665 
L 356.409868 119.9001 
L 356.605343 119.095177 
L 356.784414 118.27023 
L 357.56884 113.733026 
L 357.605785 113.520783 
L 358.771806 103.825663 
L 360.044995 89.77755 
L 360.192612 87.983492 
L 360.325512 86.637949 
L 360.470532 84.931992 
L 360.622122 83.426265 
L 360.794902 81.85246 
L 361.107117 79.19341 
L 361.235549 78.152216 
L 361.404765 76.854727 
L 361.431612 76.626466 
L 361.610478 75.393051 
L 361.709035 74.612155 
L 361.877749 72.762033 
L 362.489362 66.971391 
L 362.549537 66.550909 
L 362.688898 65.725963 
L 362.742578 65.457655 
L 363.215747 63.159019 
L 363.276935 62.838651 
L 363.409298 62.197916 
L 363.586447 61.328919 
L 363.676539 60.848368 
L 363.792443 60.055459 
L 363.824912 59.843215 
L 363.976719 58.66186 
L 364.069799 58.093208 
L 364.464566 56.311164 
L 364.543642 56.018829 
L 364.666542 55.622374 
L 364.911089 54.78141 
L 365.008905 54.481065 
L 365.27392 53.491931 
L 365.381474 53.119503 
L 365.537603 52.618929 
L 366.551768 49.303126 
L 366.684428 48.694428 
L 367.256991 46.596021 
L 367.624873 45.891213 
L 367.735957 45.638923 
L 367.825549 45.482744 
L 367.932761 45.282514 
L 368.015817 45.126335 
L 368.148884 44.910087 
L 368.332814 44.681825 
L 368.52655 44.377476 
L 368.707031 44.165233 
L 369.412327 43.524498 
L 373.114293 43.051956 
L 382.789773 42.931818 
L 382.789773 42.931818 
" style="fill:none;stroke:#58b792;stroke-dasharray:7.4,3.2;stroke-dashoffset:0;stroke-width:2;"/>
   </g>
   <g id="line2d_64">
    <path clip-path="url(#pc6c05dd539)" d="M 68.585227 231.567776 
L 72.029797 231.41782 
L 76.234862 230.835637 
L 77.204689 230.632756 
L 78.475312 230.275507 
L 79.633985 229.92708 
L 80.445318 229.644809 
L 81.456111 229.318434 
L 81.890885 229.146426 
L 82.26165 229.022933 
L 83.924679 228.537781 
L 84.27261 228.418698 
L 84.598756 228.229047 
L 84.885883 227.893851 
L 85.905524 224.819751 
L 86.283893 223.809753 
L 87.110796 221.864734 
L 87.639441 220.193164 
L 88.62347 218.786223 
L 88.750294 218.65832 
L 89.033815 218.345176 
L 90.203805 217.224916 
L 90.474719 216.969108 
L 90.668954 216.805921 
L 90.876812 216.629502 
L 91.273887 216.272253 
L 92.195769 215.324002 
L 92.365687 215.160814 
L 94.37672 213.145228 
L 94.574958 212.915883 
L 94.74577 212.743874 
L 95.006782 212.382216 
L 95.650093 211.694182 
L 96.105353 211.12082 
L 96.825395 210.203442 
L 97.094308 209.824141 
L 97.852037 208.836195 
L 99.788625 206.516286 
L 100.111305 206.114933 
L 100.920165 205.329868 
L 101.124569 205.122576 
L 102.251795 203.905285 
L 104.614869 201.748564 
L 104.835124 201.572145 
L 105.053864 201.351621 
L 105.224009 201.223717 
L 105.589565 200.945857 
L 105.775413 200.778259 
L 106.042979 200.60184 
L 106.580489 200.235771 
L 107.126833 199.860881 
L 107.30394 199.702104 
L 108.269354 199.097869 
L 108.686382 198.82442 
L 108.980948 198.634769 
L 114.651773 195.772372 
L 115.014206 195.604774 
L 115.693015 195.300451 
L 118.477853 194.506566 
L 119.221177 194.338968 
L 122.495625 193.655344 
L 124.47604 193.448052 
L 124.829254 193.399537 
L 126.922428 193.214297 
L 127.069851 193.192245 
L 128.534882 192.949669 
L 128.652472 192.927616 
L 129.67856 192.649757 
L 130.323275 192.446875 
L 131.706297 191.983775 
L 131.939211 191.838229 
L 132.247134 191.666221 
L 132.375899 191.595653 
L 132.699526 191.428055 
L 134.122147 190.519498 
L 134.270054 190.404825 
L 135.102824 189.79618 
L 135.520271 189.460984 
L 135.726959 189.288976 
L 135.910758 189.116967 
L 136.072057 188.936138 
L 139.117873 185.006406 
L 139.347717 184.697673 
L 139.495749 184.463917 
L 139.652681 184.256625 
L 139.751566 184.106669 
L 140.491348 182.893789 
L 140.631067 182.690907 
L 141.223444 181.654446 
L 141.562216 181.001696 
L 141.718286 180.75912 
L 141.915278 180.384229 
L 142.282118 179.64768 
L 142.434704 179.338947 
L 142.507803 179.193401 
L 142.630232 179.008162 
L 142.893891 178.412748 
L 143.121024 177.87467 
L 143.21828 177.676198 
L 143.522426 176.939649 
L 143.601537 176.741178 
L 143.826493 176.211921 
L 143.971867 175.779695 
L 144.631612 174.05961 
L 144.811416 173.561227 
L 145.326106 172.255726 
L 145.398196 172.057255 
L 145.634676 171.439789 
L 145.70343 171.285422 
L 145.935038 170.469485 
L 146.042374 170.235729 
L 146.25856 169.653547 
L 147.310461 165.692942 
L 147.602947 164.422725 
L 148.072271 162.349803 
L 149.138003 157.20719 
L 149.20906 156.951383 
L 149.730009 154.662347 
L 149.862402 154.181605 
L 150.019626 153.56855 
L 153.187071 141.889615 
L 153.260063 141.65145 
L 153.44492 141.025162 
L 154.147466 138.515603 
L 154.307102 137.906958 
L 154.500019 137.196871 
L 154.639954 136.62351 
L 155.032468 135.379756 
L 155.11118 135.128359 
L 155.515429 133.822859 
L 155.743592 133.028974 
L 156.223549 131.335352 
L 156.35423 130.929588 
L 156.593366 130.038673 
L 156.653338 129.879896 
L 156.815818 129.377102 
L 156.882809 129.125705 
L 157.186219 128.120117 
L 157.393605 127.423262 
L 157.477641 127.158633 
L 157.672264 126.558809 
L 157.782687 126.250076 
L 158.052599 125.301824 
L 158.377048 124.252131 
L 158.47268 123.956629 
L 158.880304 122.651129 
L 159.016185 122.214492 
L 159.113384 121.918991 
L 159.303451 121.319166 
L 159.349931 121.160389 
L 159.816117 119.660828 
L 160.060976 118.972794 
L 160.433912 117.684936 
L 160.695523 116.891051 
L 160.789376 116.591139 
L 160.953366 116.000135 
L 161.025254 115.788432 
L 161.540036 114.165378 
L 161.612215 114.011011 
L 162.698927 110.694335 
L 162.916499 110.076869 
L 162.99483 109.851935 
L 163.160074 109.388835 
L 163.321428 108.961019 
L 163.561935 108.211239 
L 163.704771 107.805475 
L 166.868054 98.16418 
L 167.104855 97.348242 
L 167.18295 97.101255 
L 169.82192 88.822796 
L 169.926958 88.531705 
L 170.099208 88.086247 
L 170.19355 87.852492 
L 170.348545 87.526117 
L 170.496729 87.17769 
L 170.674367 86.816031 
L 170.773029 86.670485 
L 171.014775 86.189744 
L 171.08147 86.030967 
L 171.318532 85.567867 
L 171.464628 85.281186 
L 172.374263 83.340578 
L 172.532656 83.075949 
L 172.990837 82.286475 
L 173.209689 81.920405 
L 173.52856 81.391148 
L 173.686805 81.188267 
L 174.383965 80.032722 
L 174.703019 79.54757 
L 174.883004 79.269711 
L 175.065126 79.009493 
L 178.203369 73.946269 
L 178.275572 73.765439 
L 178.459142 73.443475 
L 178.627584 73.183257 
L 178.885569 72.790725 
L 179.197763 72.309983 
L 179.321971 72.155617 
L 179.485004 71.917451 
L 179.763337 71.524919 
L 179.921427 71.299985 
L 180.683592 70.263523 
L 180.881808 69.985664 
L 181.138697 69.628415 
L 181.406432 69.279988 
L 181.665962 68.909508 
L 181.828479 68.688984 
L 182.476192 67.762785 
L 182.629668 67.62165 
L 182.922938 67.259991 
L 183.137872 66.995362 
L 183.343273 66.743965 
L 183.565844 66.448464 
L 183.702164 66.249992 
L 183.950048 65.888333 
L 184.199167 65.606063 
L 185.251362 64.309384 
L 185.38977 64.172659 
L 185.569862 63.978598 
L 185.722668 63.815411 
L 185.922538 63.564014 
L 186.151551 63.317027 
L 186.290533 63.15384 
L 188.028764 60.750132 
L 188.243851 60.498735 
L 190.274117 58.081795 
L 190.480415 57.909787 
L 190.722625 57.627516 
L 190.892232 57.442276 
L 191.033624 57.226163 
L 194.934203 53.508134 
L 195.097376 53.340536 
L 195.283633 53.137654 
L 195.483177 52.965646 
L 195.640816 52.828921 
L 195.821741 52.670144 
L 196.412137 52.158529 
L 197.563116 51.351412 
L 197.760736 51.223509 
L 198.811562 50.464907 
L 199.247998 50.169405 
L 199.392971 50.081196 
L 199.708056 49.891546 
L 199.934654 49.772463 
L 200.703553 49.27849 
L 201.03477 49.066787 
L 201.320288 48.916831 
L 201.876973 48.669844 
L 206.17145 46.786572 
L 206.638328 46.623385 
L 206.773849 46.574869 
L 207.242344 46.429324 
L 209.327877 45.74129 
L 210.002614 45.569281 
L 212.18126 45.08854 
L 212.835852 44.951815 
L 213.387351 44.841553 
L 213.984796 44.673955 
L 214.832481 44.488715 
L 215.961521 44.321117 
L 216.504944 44.228497 
L 217.718645 44.082952 
L 217.823136 44.06972 
L 219.71084 43.866839 
L 220.782014 43.791861 
L 223.458267 43.575747 
L 223.934284 43.531643 
L 234.794189 43.192036 
L 255.311775 43.086185 
L 292.214304 42.94946 
L 333.228124 42.931818 
L 333.228124 42.931818 
" style="fill:none;stroke:#c70d2c;stroke-dasharray:7.4,3.2;stroke-dashoffset:0;stroke-width:2;"/>
   </g>
   <g id="patch_3">
    <path d="M 52.875 241 
L 52.875 33.5 
" style="fill:none;stroke:#000000;stroke-linecap:square;stroke-linejoin:miter;stroke-width:0.8;"/>
   </g>
   <g id="patch_4">
    <path d="M 398.5 241 
L 398.5 33.5 
" style="fill:none;stroke:#000000;stroke-linecap:square;stroke-linejoin:miter;stroke-width:0.8;"/>
   </g>
   <g id="patch_5">
    <path d="M 52.875 241 
L 398.5 241 
" style="fill:none;stroke:#000000;stroke-linecap:square;stroke-linejoin:miter;stroke-width:0.8;"/>
   </g>
   <g id="patch_6">
    <path d="M 52.875 33.5 
L 398.5 33.5 
" style="fill:none;stroke:#000000;stroke-linecap:square;stroke-linejoin:miter;stroke-width:0.8;"/>
   </g>
   <g id="text_14">
    <!-- Decision Time: Blocked Requests (CDF) -->
    <defs>
     <path d="M 19.671875 64.796875 
L 19.671875 8.109375 
L 31.59375 8.109375 
Q 46.6875 8.109375 53.6875 14.9375 
Q 60.6875 21.78125 60.6875 36.53125 
Q 60.6875 51.171875 53.6875 57.984375 
Q 46.6875 64.796875 31.59375 64.796875 
z
M 9.8125 72.90625 
L 30.078125 72.90625 
Q 51.265625 72.90625 61.171875 64.09375 
Q 71.09375 55.28125 71.09375 36.53125 
Q 71.09375 17.671875 61.125 8.828125 
Q 51.171875 0 30.078125 0 
L 9.8125 0 
z
" id="DejaVuSans-68"/>
     <path d="M 11.71875 12.40625 
L 22.015625 12.40625 
L 22.015625 0 
L 11.71875 0 
z
M 11.71875 51.703125 
L 22.015625 51.703125 
L 22.015625 39.3125 
L 11.71875 39.3125 
z
" id="DejaVuSans-58"/>
     <path d="M 19.671875 34.8125 
L 19.671875 8.109375 
L 35.5 8.109375 
Q 43.453125 8.109375 47.28125 11.40625 
Q 51.125 14.703125 51.125 21.484375 
Q 51.125 28.328125 47.28125 31.5625 
Q 43.453125 34.8125 35.5 34.8125 
z
M 19.671875 64.796875 
L 19.671875 42.828125 
L 34.28125 42.828125 
Q 41.5 42.828125 45.03125 45.53125 
Q 48.578125 48.25 48.578125 53.8125 
Q 48.578125 59.328125 45.03125 62.0625 
Q 41.5 64.796875 34.28125 64.796875 
z
M 9.8125 72.90625 
L 35.015625 72.90625 
Q 46.296875 72.90625 52.390625 68.21875 
Q 58.5 63.53125 58.5 54.890625 
Q 58.5 48.1875 55.375 44.234375 
Q 52.25 40.28125 46.1875 39.3125 
Q 53.46875 37.75 57.5 32.78125 
Q 61.53125 27.828125 61.53125 20.40625 
Q 61.53125 10.640625 54.890625 5.3125 
Q 48.25 0 35.984375 0 
L 9.8125 0 
z
" id="DejaVuSans-66"/>
     <path d="M 9.078125 75.984375 
L 18.109375 75.984375 
L 18.109375 31.109375 
L 44.921875 54.6875 
L 56.390625 54.6875 
L 27.390625 29.109375 
L 57.625 0 
L 45.90625 0 
L 18.109375 26.703125 
L 18.109375 0 
L 9.078125 0 
z
" id="DejaVuSans-107"/>
     <path d="M 45.40625 46.390625 
L 45.40625 75.984375 
L 54.390625 75.984375 
L 54.390625 0 
L 45.40625 0 
L 45.40625 8.203125 
Q 42.578125 3.328125 38.25 0.953125 
Q 33.9375 -1.421875 27.875 -1.421875 
Q 17.96875 -1.421875 11.734375 6.484375 
Q 5.515625 14.40625 5.515625 27.296875 
Q 5.515625 40.1875 11.734375 48.09375 
Q 17.96875 56 27.875 56 
Q 33.9375 56 38.25 53.625 
Q 42.578125 51.265625 45.40625 46.390625 
z
M 14.796875 27.296875 
Q 14.796875 17.390625 18.875 11.75 
Q 22.953125 6.109375 30.078125 6.109375 
Q 37.203125 6.109375 41.296875 11.75 
Q 45.40625 17.390625 45.40625 27.296875 
Q 45.40625 37.203125 41.296875 42.84375 
Q 37.203125 48.484375 30.078125 48.484375 
Q 22.953125 48.484375 18.875 42.84375 
Q 14.796875 37.203125 14.796875 27.296875 
z
" id="DejaVuSans-100"/>
     <path d="M 64.40625 67.28125 
L 64.40625 56.890625 
Q 59.421875 61.53125 53.78125 63.8125 
Q 48.140625 66.109375 41.796875 66.109375 
Q 29.296875 66.109375 22.65625 58.46875 
Q 16.015625 50.828125 16.015625 36.375 
Q 16.015625 21.96875 22.65625 14.328125 
Q 29.296875 6.6875 41.796875 6.6875 
Q 48.140625 6.6875 53.78125 8.984375 
Q 59.421875 11.28125 64.40625 15.921875 
L 64.40625 5.609375 
Q 59.234375 2.09375 53.4375 0.328125 
Q 47.65625 -1.421875 41.21875 -1.421875 
Q 24.65625 -1.421875 15.125 8.703125 
Q 5.609375 18.84375 5.609375 36.375 
Q 5.609375 53.953125 15.125 64.078125 
Q 24.65625 74.21875 41.21875 74.21875 
Q 47.75 74.21875 53.53125 72.484375 
Q 59.328125 70.75 64.40625 67.28125 
z
" id="DejaVuSans-67"/>
    </defs>
    <g transform="translate(107.196875 27.5)scale(0.12 -0.12)">
     <use xlink:href="#DejaVuSans-68"/>
     <use x="77.001953" xlink:href="#DejaVuSans-101"/>
     <use x="138.525391" xlink:href="#DejaVuSans-99"/>
     <use x="193.505859" xlink:href="#DejaVuSans-105"/>
     <use x="221.289062" xlink:href="#DejaVuSans-115"/>
     <use x="273.388672" xlink:href="#DejaVuSans-105"/>
     <use x="301.171875" xlink:href="#DejaVuSans-111"/>
     <use x="362.353516" xlink:href="#DejaVuSans-110"/>
     <use x="425.732422" xlink:href="#DejaVuSans-32"/>
     <use x="457.519531" xlink:href="#DejaVuSans-84"/>
     <use x="518.556641" xlink:href="#DejaVuSans-105"/>
     <use x="546.339844" xlink:href="#DejaVuSans-109"/>
     <use x="643.751953" xlink:href="#DejaVuSans-101"/>
     <use x="705.275391" xlink:href="#DejaVuSans-58"/>
     <use x="738.966797" xlink:href="#DejaVuSans-32"/>
     <use x="770.753906" xlink:href="#DejaVuSans-66"/>
     <use x="839.357422" xlink:href="#DejaVuSans-108"/>
     <use x="867.140625" xlink:href="#DejaVuSans-111"/>
     <use x="928.322266" xlink:href="#DejaVuSans-99"/>
     <use x="983.302734" xlink:href="#DejaVuSans-107"/>
     <use x="1041.166016" xlink:href="#DejaVuSans-101"/>
     <use x="1102.689453" xlink:href="#DejaVuSans-100"/>
     <use x="1166.166016" xlink:href="#DejaVuSans-32"/>
     <use x="1197.953125" xlink:href="#DejaVuSans-82"/>
     <use x="1267.373047" xlink:href="#DejaVuSans-101"/>
     <use x="1328.896484" xlink:href="#DejaVuSans-113"/>
     <use x="1392.373047" xlink:href="#DejaVuSans-117"/>
     <use x="1455.751953" xlink:href="#DejaVuSans-101"/>
     <use x="1517.275391" xlink:href="#DejaVuSans-115"/>
     <use x="1569.375" xlink:href="#DejaVuSans-116"/>
     <use x="1608.583984" xlink:href="#DejaVuSans-115"/>
     <use x="1660.683594" xlink:href="#DejaVuSans-32"/>
     <use x="1692.470703" xlink:href="#DejaVuSans-40"/>
     <use x="1731.484375" xlink:href="#DejaVuSans-67"/>
     <use x="1801.308594" xlink:href="#DejaVuSans-68"/>
     <use x="1878.310547" xlink:href="#DejaVuSans-70"/>
     <use x="1935.830078" xlink:href="#DejaVuSans-41"/>
    </g>
   </g>
   <g id="legend_1">
    <g id="patch_7">
     <path d="M 292.7125 236 
L 391.5 236 
Q 393.5 236 393.5 234 
L 393.5 161.609375 
Q 393.5 159.609375 391.5 159.609375 
L 292.7125 159.609375 
Q 290.7125 159.609375 290.7125 161.609375 
L 290.7125 234 
Q 290.7125 236 292.7125 236 
z
" style="fill:#ffffff;opacity:0.8;stroke:#cccccc;stroke-linejoin:miter;"/>
    </g>
    <g id="line2d_65">
     <path d="M 294.7125 167.707813 
L 314.7125 167.707813 
" style="fill:none;stroke:#00aff0;stroke-dasharray:7.4,3.2;stroke-dashoffset:0;stroke-width:2;"/>
    </g>
    <g id="line2d_66"/>
    <g id="text_15">
     <!-- Ghostery -->
     <defs>
      <path d="M 59.515625 10.40625 
L 59.515625 29.984375 
L 43.40625 29.984375 
L 43.40625 38.09375 
L 69.28125 38.09375 
L 69.28125 6.78125 
Q 63.578125 2.734375 56.6875 0.65625 
Q 49.8125 -1.421875 42 -1.421875 
Q 24.90625 -1.421875 15.25 8.5625 
Q 5.609375 18.5625 5.609375 36.375 
Q 5.609375 54.25 15.25 64.234375 
Q 24.90625 74.21875 42 74.21875 
Q 49.125 74.21875 55.546875 72.453125 
Q 61.96875 70.703125 67.390625 67.28125 
L 67.390625 56.78125 
Q 61.921875 61.421875 55.765625 63.765625 
Q 49.609375 66.109375 42.828125 66.109375 
Q 29.4375 66.109375 22.71875 58.640625 
Q 16.015625 51.171875 16.015625 36.375 
Q 16.015625 21.625 22.71875 14.15625 
Q 29.4375 6.6875 42.828125 6.6875 
Q 48.046875 6.6875 52.140625 7.59375 
Q 56.25 8.5 59.515625 10.40625 
z
" id="DejaVuSans-71"/>
      <path d="M 54.890625 33.015625 
L 54.890625 0 
L 45.90625 0 
L 45.90625 32.71875 
Q 45.90625 40.484375 42.875 44.328125 
Q 39.84375 48.1875 33.796875 48.1875 
Q 26.515625 48.1875 22.3125 43.546875 
Q 18.109375 38.921875 18.109375 30.90625 
L 18.109375 0 
L 9.078125 0 
L 9.078125 75.984375 
L 18.109375 75.984375 
L 18.109375 46.1875 
Q 21.34375 51.125 25.703125 53.5625 
Q 30.078125 56 35.796875 56 
Q 45.21875 56 50.046875 50.171875 
Q 54.890625 44.34375 54.890625 33.015625 
z
" id="DejaVuSans-104"/>
      <path d="M 32.171875 -5.078125 
Q 28.375 -14.84375 24.75 -17.8125 
Q 21.140625 -20.796875 15.09375 -20.796875 
L 7.90625 -20.796875 
L 7.90625 -13.28125 
L 13.1875 -13.28125 
Q 16.890625 -13.28125 18.9375 -11.515625 
Q 21 -9.765625 23.484375 -3.21875 
L 25.09375 0.875 
L 2.984375 54.6875 
L 12.5 54.6875 
L 29.59375 11.921875 
L 46.6875 54.6875 
L 56.203125 54.6875 
z
" id="DejaVuSans-121"/>
     </defs>
     <g transform="translate(322.7125 171.207813)scale(0.1 -0.1)">
      <use xlink:href="#DejaVuSans-71"/>
      <use x="77.490234" xlink:href="#DejaVuSans-104"/>
      <use x="140.869141" xlink:href="#DejaVuSans-111"/>
      <use x="202.050781" xlink:href="#DejaVuSans-115"/>
      <use x="254.150391" xlink:href="#DejaVuSans-116"/>
      <use x="293.359375" xlink:href="#DejaVuSans-101"/>
      <use x="354.882812" xlink:href="#DejaVuSans-114"/>
      <use x="395.996094" xlink:href="#DejaVuSans-121"/>
     </g>
    </g>
    <g id="line2d_67">
     <path d="M 294.7125 182.385938 
L 314.7125 182.385938 
" style="fill:none;stroke:#800000;stroke-dasharray:7.4,3.2;stroke-dashoffset:0;stroke-width:2;"/>
    </g>
    <g id="line2d_68"/>
    <g id="text_16">
     <!-- uBlock Origin -->
     <defs>
      <path d="M 39.40625 66.21875 
Q 28.65625 66.21875 22.328125 58.203125 
Q 16.015625 50.203125 16.015625 36.375 
Q 16.015625 22.609375 22.328125 14.59375 
Q 28.65625 6.59375 39.40625 6.59375 
Q 50.140625 6.59375 56.421875 14.59375 
Q 62.703125 22.609375 62.703125 36.375 
Q 62.703125 50.203125 56.421875 58.203125 
Q 50.140625 66.21875 39.40625 66.21875 
z
M 39.40625 74.21875 
Q 54.734375 74.21875 63.90625 63.9375 
Q 73.09375 53.65625 73.09375 36.375 
Q 73.09375 19.140625 63.90625 8.859375 
Q 54.734375 -1.421875 39.40625 -1.421875 
Q 24.03125 -1.421875 14.8125 8.828125 
Q 5.609375 19.09375 5.609375 36.375 
Q 5.609375 53.65625 14.8125 63.9375 
Q 24.03125 74.21875 39.40625 74.21875 
z
" id="DejaVuSans-79"/>
     </defs>
     <g transform="translate(322.7125 185.885938)scale(0.1 -0.1)">
      <use xlink:href="#DejaVuSans-117"/>
      <use x="63.378906" xlink:href="#DejaVuSans-66"/>
      <use x="131.982422" xlink:href="#DejaVuSans-108"/>
      <use x="159.765625" xlink:href="#DejaVuSans-111"/>
      <use x="220.947266" xlink:href="#DejaVuSans-99"/>
      <use x="275.927734" xlink:href="#DejaVuSans-107"/>
      <use x="333.837891" xlink:href="#DejaVuSans-32"/>
      <use x="365.625" xlink:href="#DejaVuSans-79"/>
      <use x="444.335938" xlink:href="#DejaVuSans-114"/>
      <use x="485.449219" xlink:href="#DejaVuSans-105"/>
      <use x="513.232422" xlink:href="#DejaVuSans-103"/>
      <use x="576.708984" xlink:href="#DejaVuSans-105"/>
      <use x="604.492188" xlink:href="#DejaVuSans-110"/>
     </g>
    </g>
    <g id="line2d_69">
     <path d="M 294.7125 197.064063 
L 314.7125 197.064063 
" style="fill:none;stroke:#ff5500;stroke-dasharray:7.4,3.2;stroke-dashoffset:0;stroke-width:2;"/>
    </g>
    <g id="line2d_70"/>
    <g id="text_17">
     <!-- Brave -->
     <defs>
      <path d="M 2.984375 54.6875 
L 12.5 54.6875 
L 29.59375 8.796875 
L 46.6875 54.6875 
L 56.203125 54.6875 
L 35.6875 0 
L 23.484375 0 
z
" id="DejaVuSans-118"/>
     </defs>
     <g transform="translate(322.7125 200.564063)scale(0.1 -0.1)">
      <use xlink:href="#DejaVuSans-66"/>
      <use x="68.603516" xlink:href="#DejaVuSans-114"/>
      <use x="109.716797" xlink:href="#DejaVuSans-97"/>
      <use x="170.996094" xlink:href="#DejaVuSans-118"/>
      <use x="230.175781" xlink:href="#DejaVuSans-101"/>
     </g>
    </g>
    <g id="line2d_71">
     <path d="M 294.7125 211.742188 
L 314.7125 211.742188 
" style="fill:none;stroke:#58b792;stroke-dasharray:7.4,3.2;stroke-dashoffset:0;stroke-width:2;"/>
    </g>
    <g id="line2d_72"/>
    <g id="text_18">
     <!-- DuckDuckGo -->
     <g transform="translate(322.7125 215.242188)scale(0.1 -0.1)">
      <use xlink:href="#DejaVuSans-68"/>
      <use x="77.001953" xlink:href="#DejaVuSans-117"/>
      <use x="140.380859" xlink:href="#DejaVuSans-99"/>
      <use x="195.361328" xlink:href="#DejaVuSans-107"/>
      <use x="253.271484" xlink:href="#DejaVuSans-68"/>
      <use x="330.273438" xlink:href="#DejaVuSans-117"/>
      <use x="393.652344" xlink:href="#DejaVuSans-99"/>
      <use x="448.632812" xlink:href="#DejaVuSans-107"/>
      <use x="506.542969" xlink:href="#DejaVuSans-71"/>
      <use x="584.033203" xlink:href="#DejaVuSans-111"/>
     </g>
    </g>
    <g id="line2d_73">
     <path d="M 294.7125 226.420313 
L 314.7125 226.420313 
" style="fill:none;stroke:#c70d2c;stroke-dasharray:7.4,3.2;stroke-dashoffset:0;stroke-width:2;"/>
    </g>
    <g id="line2d_74"/>
    <g id="text_19">
     <!-- Adblock Plus -->
     <defs>
      <path d="M 34.1875 63.1875 
L 20.796875 26.90625 
L 47.609375 26.90625 
z
M 28.609375 72.90625 
L 39.796875 72.90625 
L 67.578125 0 
L 57.328125 0 
L 50.6875 18.703125 
L 17.828125 18.703125 
L 11.1875 0 
L 0.78125 0 
z
" id="DejaVuSans-65"/>
      <path d="M 19.671875 64.796875 
L 19.671875 37.40625 
L 32.078125 37.40625 
Q 38.96875 37.40625 42.71875 40.96875 
Q 46.484375 44.53125 46.484375 51.125 
Q 46.484375 57.671875 42.71875 61.234375 
Q 38.96875 64.796875 32.078125 64.796875 
z
M 9.8125 72.90625 
L 32.078125 72.90625 
Q 44.34375 72.90625 50.609375 67.359375 
Q 56.890625 61.8125 56.890625 51.125 
Q 56.890625 40.328125 50.609375 34.8125 
Q 44.34375 29.296875 32.078125 29.296875 
L 19.671875 29.296875 
L 19.671875 0 
L 9.8125 0 
z
" id="DejaVuSans-80"/>
     </defs>
     <g transform="translate(322.7125 229.920313)scale(0.1 -0.1)">
      <use xlink:href="#DejaVuSans-65"/>
      <use x="68.392578" xlink:href="#DejaVuSans-100"/>
      <use x="131.869141" xlink:href="#DejaVuSans-98"/>
      <use x="195.345703" xlink:href="#DejaVuSans-108"/>
      <use x="223.128906" xlink:href="#DejaVuSans-111"/>
      <use x="284.310547" xlink:href="#DejaVuSans-99"/>
      <use x="339.291016" xlink:href="#DejaVuSans-107"/>
      <use x="397.201172" xlink:href="#DejaVuSans-32"/>
      <use x="428.988281" xlink:href="#DejaVuSans-80"/>
      <use x="489.291016" xlink:href="#DejaVuSans-108"/>
      <use x="517.074219" xlink:href="#DejaVuSans-117"/>
      <use x="580.453125" xlink:href="#DejaVuSans-115"/>
     </g>
    </g>
   </g>
  </g>
 </g>
 <defs>
  <clipPath id="pc6c05dd539">
   <rect height="207.5" width="345.625" x="52.875" y="33.5"/>
  </clipPath>
 </defs>
</svg>
