<?xml version="1.0" encoding="utf-8" standalone="no"?>
<!DOCTYPE svg PUBLIC "-//W3C//DTD SVG 1.1//EN"
  "http://www.w3.org/Graphics/SVG/1.1/DTD/svg11.dtd">
<!-- Created with matplotlib (https://matplotlib.org/) -->
<svg height="288pt" version="1.1" viewBox="0 0 432 288" width="432pt" xmlns="http://www.w3.org/2000/svg" xmlns:xlink="http://www.w3.org/1999/xlink">
 <defs>
  <style type="text/css">
*{stroke-linecap:butt;stroke-linejoin:round;}
  </style>
 </defs>
 <g id="figure_1">
  <g id="patch_1">
   <path d="M 0 288 
L 432 288 
L 432 0 
L 0 0 
z
" style="fill:#ffffff;"/>
  </g>
  <g id="axes_1">
   <g id="patch_2">
    <path d="M 52.875 241 
L 398.5 241 
L 398.5 33.5 
L 52.875 33.5 
z
" style="fill:#ffffff;"/>
   </g>
   <g id="matplotlib.axis_1">
    <g id="xtick_1">
     <g id="line2d_1">
      <path clip-path="url(#pfa8e56c863)" d="M 57.278949 241 
L 57.278949 33.5 
" style="fill:none;stroke:#b0b0b0;stroke-dasharray:3.7,1.6;stroke-dashoffset:0;"/>
     </g>
     <g id="line2d_2">
      <defs>
       <path d="M 0 0 
L 0 3.5 
" id="m01787b6a8c" style="stroke:#000000;stroke-width:0.8;"/>
      </defs>
      <g>
       <use style="stroke:#000000;stroke-width:0.8;" x="57.278949" xlink:href="#m01787b6a8c" y="241"/>
      </g>
     </g>
     <g id="text_1">
      <!-- $\mathdefault{10^{-3}}$ -->
      <defs>
       <path d="M 12.40625 8.296875 
L 28.515625 8.296875 
L 28.515625 63.921875 
L 10.984375 60.40625 
L 10.984375 69.390625 
L 28.421875 72.90625 
L 38.28125 72.90625 
L 38.28125 8.296875 
L 54.390625 8.296875 
L 54.390625 0 
L 12.40625 0 
z
" id="DejaVuSans-49"/>
       <path d="M 31.78125 66.40625 
Q 24.171875 66.40625 20.328125 58.90625 
Q 16.5 51.421875 16.5 36.375 
Q 16.5 21.390625 20.328125 13.890625 
Q 24.171875 6.390625 31.78125 6.390625 
Q 39.453125 6.390625 43.28125 13.890625 
Q 47.125 21.390625 47.125 36.375 
Q 47.125 51.421875 43.28125 58.90625 
Q 39.453125 66.40625 31.78125 66.40625 
z
M 31.78125 74.21875 
Q 44.046875 74.21875 50.515625 64.515625 
Q 56.984375 54.828125 56.984375 36.375 
Q 56.984375 17.96875 50.515625 8.265625 
Q 44.046875 -1.421875 31.78125 -1.421875 
Q 19.53125 -1.421875 13.0625 8.265625 
Q 6.59375 17.96875 6.59375 36.375 
Q 6.59375 54.828125 13.0625 64.515625 
Q 19.53125 74.21875 31.78125 74.21875 
z
" id="DejaVuSans-48"/>
       <path d="M 10.59375 35.5 
L 73.1875 35.5 
L 73.1875 27.203125 
L 10.59375 27.203125 
z
" id="DejaVuSans-8722"/>
       <path d="M 40.578125 39.3125 
Q 47.65625 37.796875 51.625 33 
Q 55.609375 28.21875 55.609375 21.1875 
Q 55.609375 10.40625 48.1875 4.484375 
Q 40.765625 -1.421875 27.09375 -1.421875 
Q 22.515625 -1.421875 17.65625 -0.515625 
Q 12.796875 0.390625 7.625 2.203125 
L 7.625 11.71875 
Q 11.71875 9.328125 16.59375 8.109375 
Q 21.484375 6.890625 26.8125 6.890625 
Q 36.078125 6.890625 40.9375 10.546875 
Q 45.796875 14.203125 45.796875 21.1875 
Q 45.796875 27.640625 41.28125 31.265625 
Q 36.765625 34.90625 28.71875 34.90625 
L 20.21875 34.90625 
L 20.21875 43.015625 
L 29.109375 43.015625 
Q 36.375 43.015625 40.234375 45.921875 
Q 44.09375 48.828125 44.09375 54.296875 
Q 44.09375 59.90625 40.109375 62.90625 
Q 36.140625 65.921875 28.71875 65.921875 
Q 24.65625 65.921875 20.015625 65.03125 
Q 15.375 64.15625 9.8125 62.3125 
L 9.8125 71.09375 
Q 15.4375 72.65625 20.34375 73.4375 
Q 25.25 74.21875 29.59375 74.21875 
Q 40.828125 74.21875 47.359375 69.109375 
Q 53.90625 64.015625 53.90625 55.328125 
Q 53.90625 49.265625 50.4375 45.09375 
Q 46.96875 40.921875 40.578125 39.3125 
z
" id="DejaVuSans-51"/>
      </defs>
      <g transform="translate(45.528949 255.598438)scale(0.1 -0.1)">
       <use transform="translate(0 0.765625)" xlink:href="#DejaVuSans-49"/>
       <use transform="translate(63.623047 0.765625)" xlink:href="#DejaVuSans-48"/>
       <use transform="translate(128.203125 39.046875)scale(0.7)" xlink:href="#DejaVuSans-8722"/>
       <use transform="translate(186.855469 39.046875)scale(0.7)" xlink:href="#DejaVuSans-51"/>
      </g>
     </g>
    </g>
    <g id="xtick_2">
     <g id="line2d_3">
      <path clip-path="url(#pfa8e56c863)" d="M 127.214367 241 
L 127.214367 33.5 
" style="fill:none;stroke:#b0b0b0;stroke-dasharray:3.7,1.6;stroke-dashoffset:0;"/>
     </g>
     <g id="line2d_4">
      <g>
       <use style="stroke:#000000;stroke-width:0.8;" x="127.214367" xlink:href="#m01787b6a8c" y="241"/>
      </g>
     </g>
     <g id="text_2">
      <!-- $\mathdefault{10^{-2}}$ -->
      <defs>
       <path d="M 19.1875 8.296875 
L 53.609375 8.296875 
L 53.609375 0 
L 7.328125 0 
L 7.328125 8.296875 
Q 12.9375 14.109375 22.625 23.890625 
Q 32.328125 33.6875 34.8125 36.53125 
Q 39.546875 41.84375 41.421875 45.53125 
Q 43.3125 49.21875 43.3125 52.78125 
Q 43.3125 58.59375 39.234375 62.25 
Q 35.15625 65.921875 28.609375 65.921875 
Q 23.96875 65.921875 18.8125 64.3125 
Q 13.671875 62.703125 7.8125 59.421875 
L 7.8125 69.390625 
Q 13.765625 71.78125 18.9375 73 
Q 24.125 74.21875 28.421875 74.21875 
Q 39.75 74.21875 46.484375 68.546875 
Q 53.21875 62.890625 53.21875 53.421875 
Q 53.21875 48.921875 51.53125 44.890625 
Q 49.859375 40.875 45.40625 35.40625 
Q 44.1875 33.984375 37.640625 27.21875 
Q 31.109375 20.453125 19.1875 8.296875 
z
" id="DejaVuSans-50"/>
      </defs>
      <g transform="translate(115.464367 255.598438)scale(0.1 -0.1)">
       <use transform="translate(0 0.765625)" xlink:href="#DejaVuSans-49"/>
       <use transform="translate(63.623047 0.765625)" xlink:href="#DejaVuSans-48"/>
       <use transform="translate(128.203125 39.046875)scale(0.7)" xlink:href="#DejaVuSans-8722"/>
       <use transform="translate(186.855469 39.046875)scale(0.7)" xlink:href="#DejaVuSans-50"/>
      </g>
     </g>
    </g>
    <g id="xtick_3">
     <g id="line2d_5">
      <path clip-path="url(#pfa8e56c863)" d="M 197.149785 241 
L 197.149785 33.5 
" style="fill:none;stroke:#b0b0b0;stroke-dasharray:3.7,1.6;stroke-dashoffset:0;"/>
     </g>
     <g id="line2d_6">
      <g>
       <use style="stroke:#000000;stroke-width:0.8;" x="197.149785" xlink:href="#m01787b6a8c" y="241"/>
      </g>
     </g>
     <g id="text_3">
      <!-- $\mathdefault{10^{-1}}$ -->
      <g transform="translate(185.399785 255.598438)scale(0.1 -0.1)">
       <use transform="translate(0 0.684375)" xlink:href="#DejaVuSans-49"/>
       <use transform="translate(63.623047 0.684375)" xlink:href="#DejaVuSans-48"/>
       <use transform="translate(128.203125 38.965625)scale(0.7)" xlink:href="#DejaVuSans-8722"/>
       <use transform="translate(186.855469 38.965625)scale(0.7)" xlink:href="#DejaVuSans-49"/>
      </g>
     </g>
    </g>
    <g id="xtick_4">
     <g id="line2d_7">
      <path clip-path="url(#pfa8e56c863)" d="M 267.085203 241 
L 267.085203 33.5 
" style="fill:none;stroke:#b0b0b0;stroke-dasharray:3.7,1.6;stroke-dashoffset:0;"/>
     </g>
     <g id="line2d_8">
      <g>
       <use style="stroke:#000000;stroke-width:0.8;" x="267.085203" xlink:href="#m01787b6a8c" y="241"/>
      </g>
     </g>
     <g id="text_4">
      <!-- $\mathdefault{10^{0}}$ -->
      <g transform="translate(258.285203 255.598438)scale(0.1 -0.1)">
       <use transform="translate(0 0.765625)" xlink:href="#DejaVuSans-49"/>
       <use transform="translate(63.623047 0.765625)" xlink:href="#DejaVuSans-48"/>
       <use transform="translate(128.203125 39.046875)scale(0.7)" xlink:href="#DejaVuSans-48"/>
      </g>
     </g>
    </g>
    <g id="xtick_5">
     <g id="line2d_9">
      <path clip-path="url(#pfa8e56c863)" d="M 337.020621 241 
L 337.020621 33.5 
" style="fill:none;stroke:#b0b0b0;stroke-dasharray:3.7,1.6;stroke-dashoffset:0;"/>
     </g>
     <g id="line2d_10">
      <g>
       <use style="stroke:#000000;stroke-width:0.8;" x="337.020621" xlink:href="#m01787b6a8c" y="241"/>
      </g>
     </g>
     <g id="text_5">
      <!-- $\mathdefault{10^{1}}$ -->
      <g transform="translate(328.220621 255.598438)scale(0.1 -0.1)">
       <use transform="translate(0 0.684375)" xlink:href="#DejaVuSans-49"/>
       <use transform="translate(63.623047 0.684375)" xlink:href="#DejaVuSans-48"/>
       <use transform="translate(128.203125 38.965625)scale(0.7)" xlink:href="#DejaVuSans-49"/>
      </g>
     </g>
    </g>
    <g id="xtick_6">
     <g id="line2d_11">
      <defs>
       <path d="M 0 0 
L 0 2 
" id="m23c598257a" style="stroke:#000000;stroke-width:0.6;"/>
      </defs>
      <g>
       <use style="stroke:#000000;stroke-width:0.6;" x="54.07888" xlink:href="#m23c598257a" y="241"/>
      </g>
     </g>
    </g>
    <g id="xtick_7">
     <g id="line2d_12">
      <g>
       <use style="stroke:#000000;stroke-width:0.6;" x="78.331608" xlink:href="#m23c598257a" y="241"/>
      </g>
     </g>
    </g>
    <g id="xtick_8">
     <g id="line2d_13">
      <g>
       <use style="stroke:#000000;stroke-width:0.6;" x="90.646624" xlink:href="#m23c598257a" y="241"/>
      </g>
     </g>
    </g>
    <g id="xtick_9">
     <g id="line2d_14">
      <g>
       <use style="stroke:#000000;stroke-width:0.6;" x="99.384266" xlink:href="#m23c598257a" y="241"/>
      </g>
     </g>
    </g>
    <g id="xtick_10">
     <g id="line2d_15">
      <g>
       <use style="stroke:#000000;stroke-width:0.6;" x="106.161709" xlink:href="#m23c598257a" y="241"/>
      </g>
     </g>
    </g>
    <g id="xtick_11">
     <g id="line2d_16">
      <g>
       <use style="stroke:#000000;stroke-width:0.6;" x="111.699282" xlink:href="#m23c598257a" y="241"/>
      </g>
     </g>
    </g>
    <g id="xtick_12">
     <g id="line2d_17">
      <g>
       <use style="stroke:#000000;stroke-width:0.6;" x="116.381234" xlink:href="#m23c598257a" y="241"/>
      </g>
     </g>
    </g>
    <g id="xtick_13">
     <g id="line2d_18">
      <g>
       <use style="stroke:#000000;stroke-width:0.6;" x="120.436925" xlink:href="#m23c598257a" y="241"/>
      </g>
     </g>
    </g>
    <g id="xtick_14">
     <g id="line2d_19">
      <g>
       <use style="stroke:#000000;stroke-width:0.6;" x="124.014298" xlink:href="#m23c598257a" y="241"/>
      </g>
     </g>
    </g>
    <g id="xtick_15">
     <g id="line2d_20">
      <g>
       <use style="stroke:#000000;stroke-width:0.6;" x="148.267026" xlink:href="#m23c598257a" y="241"/>
      </g>
     </g>
    </g>
    <g id="xtick_16">
     <g id="line2d_21">
      <g>
       <use style="stroke:#000000;stroke-width:0.6;" x="160.582042" xlink:href="#m23c598257a" y="241"/>
      </g>
     </g>
    </g>
    <g id="xtick_17">
     <g id="line2d_22">
      <g>
       <use style="stroke:#000000;stroke-width:0.6;" x="169.319684" xlink:href="#m23c598257a" y="241"/>
      </g>
     </g>
    </g>
    <g id="xtick_18">
     <g id="line2d_23">
      <g>
       <use style="stroke:#000000;stroke-width:0.6;" x="176.097127" xlink:href="#m23c598257a" y="241"/>
      </g>
     </g>
    </g>
    <g id="xtick_19">
     <g id="line2d_24">
      <g>
       <use style="stroke:#000000;stroke-width:0.6;" x="181.6347" xlink:href="#m23c598257a" y="241"/>
      </g>
     </g>
    </g>
    <g id="xtick_20">
     <g id="line2d_25">
      <g>
       <use style="stroke:#000000;stroke-width:0.6;" x="186.316652" xlink:href="#m23c598257a" y="241"/>
      </g>
     </g>
    </g>
    <g id="xtick_21">
     <g id="line2d_26">
      <g>
       <use style="stroke:#000000;stroke-width:0.6;" x="190.372343" xlink:href="#m23c598257a" y="241"/>
      </g>
     </g>
    </g>
    <g id="xtick_22">
     <g id="line2d_27">
      <g>
       <use style="stroke:#000000;stroke-width:0.6;" x="193.949716" xlink:href="#m23c598257a" y="241"/>
      </g>
     </g>
    </g>
    <g id="xtick_23">
     <g id="line2d_28">
      <g>
       <use style="stroke:#000000;stroke-width:0.6;" x="218.202444" xlink:href="#m23c598257a" y="241"/>
      </g>
     </g>
    </g>
    <g id="xtick_24">
     <g id="line2d_29">
      <g>
       <use style="stroke:#000000;stroke-width:0.6;" x="230.517459" xlink:href="#m23c598257a" y="241"/>
      </g>
     </g>
    </g>
    <g id="xtick_25">
     <g id="line2d_30">
      <g>
       <use style="stroke:#000000;stroke-width:0.6;" x="239.255102" xlink:href="#m23c598257a" y="241"/>
      </g>
     </g>
    </g>
    <g id="xtick_26">
     <g id="line2d_31">
      <g>
       <use style="stroke:#000000;stroke-width:0.6;" x="246.032544" xlink:href="#m23c598257a" y="241"/>
      </g>
     </g>
    </g>
    <g id="xtick_27">
     <g id="line2d_32">
      <g>
       <use style="stroke:#000000;stroke-width:0.6;" x="251.570118" xlink:href="#m23c598257a" y="241"/>
      </g>
     </g>
    </g>
    <g id="xtick_28">
     <g id="line2d_33">
      <g>
       <use style="stroke:#000000;stroke-width:0.6;" x="256.25207" xlink:href="#m23c598257a" y="241"/>
      </g>
     </g>
    </g>
    <g id="xtick_29">
     <g id="line2d_34">
      <g>
       <use style="stroke:#000000;stroke-width:0.6;" x="260.307761" xlink:href="#m23c598257a" y="241"/>
      </g>
     </g>
    </g>
    <g id="xtick_30">
     <g id="line2d_35">
      <g>
       <use style="stroke:#000000;stroke-width:0.6;" x="263.885134" xlink:href="#m23c598257a" y="241"/>
      </g>
     </g>
    </g>
    <g id="xtick_31">
     <g id="line2d_36">
      <g>
       <use style="stroke:#000000;stroke-width:0.6;" x="288.137862" xlink:href="#m23c598257a" y="241"/>
      </g>
     </g>
    </g>
    <g id="xtick_32">
     <g id="line2d_37">
      <g>
       <use style="stroke:#000000;stroke-width:0.6;" x="300.452877" xlink:href="#m23c598257a" y="241"/>
      </g>
     </g>
    </g>
    <g id="xtick_33">
     <g id="line2d_38">
      <g>
       <use style="stroke:#000000;stroke-width:0.6;" x="309.19052" xlink:href="#m23c598257a" y="241"/>
      </g>
     </g>
    </g>
    <g id="xtick_34">
     <g id="line2d_39">
      <g>
       <use style="stroke:#000000;stroke-width:0.6;" x="315.967962" xlink:href="#m23c598257a" y="241"/>
      </g>
     </g>
    </g>
    <g id="xtick_35">
     <g id="line2d_40">
      <g>
       <use style="stroke:#000000;stroke-width:0.6;" x="321.505536" xlink:href="#m23c598257a" y="241"/>
      </g>
     </g>
    </g>
    <g id="xtick_36">
     <g id="line2d_41">
      <g>
       <use style="stroke:#000000;stroke-width:0.6;" x="326.187488" xlink:href="#m23c598257a" y="241"/>
      </g>
     </g>
    </g>
    <g id="xtick_37">
     <g id="line2d_42">
      <g>
       <use style="stroke:#000000;stroke-width:0.6;" x="330.243179" xlink:href="#m23c598257a" y="241"/>
      </g>
     </g>
    </g>
    <g id="xtick_38">
     <g id="line2d_43">
      <g>
       <use style="stroke:#000000;stroke-width:0.6;" x="333.820552" xlink:href="#m23c598257a" y="241"/>
      </g>
     </g>
    </g>
    <g id="xtick_39">
     <g id="line2d_44">
      <g>
       <use style="stroke:#000000;stroke-width:0.6;" x="358.07328" xlink:href="#m23c598257a" y="241"/>
      </g>
     </g>
    </g>
    <g id="xtick_40">
     <g id="line2d_45">
      <g>
       <use style="stroke:#000000;stroke-width:0.6;" x="370.388295" xlink:href="#m23c598257a" y="241"/>
      </g>
     </g>
    </g>
    <g id="xtick_41">
     <g id="line2d_46">
      <g>
       <use style="stroke:#000000;stroke-width:0.6;" x="379.125938" xlink:href="#m23c598257a" y="241"/>
      </g>
     </g>
    </g>
    <g id="xtick_42">
     <g id="line2d_47">
      <g>
       <use style="stroke:#000000;stroke-width:0.6;" x="385.90338" xlink:href="#m23c598257a" y="241"/>
      </g>
     </g>
    </g>
    <g id="xtick_43">
     <g id="line2d_48">
      <g>
       <use style="stroke:#000000;stroke-width:0.6;" x="391.440954" xlink:href="#m23c598257a" y="241"/>
      </g>
     </g>
    </g>
    <g id="xtick_44">
     <g id="line2d_49">
      <g>
       <use style="stroke:#000000;stroke-width:0.6;" x="396.122906" xlink:href="#m23c598257a" y="241"/>
      </g>
     </g>
    </g>
    <g id="text_6">
     <!-- Time (ms)  -->
     <defs>
      <path d="M -0.296875 72.90625 
L 61.375 72.90625 
L 61.375 64.59375 
L 35.5 64.59375 
L 35.5 0 
L 25.59375 0 
L 25.59375 64.59375 
L -0.296875 64.59375 
z
" id="DejaVuSans-84"/>
      <path d="M 9.421875 54.6875 
L 18.40625 54.6875 
L 18.40625 0 
L 9.421875 0 
z
M 9.421875 75.984375 
L 18.40625 75.984375 
L 18.40625 64.59375 
L 9.421875 64.59375 
z
" id="DejaVuSans-105"/>
      <path d="M 52 44.1875 
Q 55.375 50.25 60.0625 53.125 
Q 64.75 56 71.09375 56 
Q 79.640625 56 84.28125 50.015625 
Q 88.921875 44.046875 88.921875 33.015625 
L 88.921875 0 
L 79.890625 0 
L 79.890625 32.71875 
Q 79.890625 40.578125 77.09375 44.375 
Q 74.3125 48.1875 68.609375 48.1875 
Q 61.625 48.1875 57.5625 43.546875 
Q 53.515625 38.921875 53.515625 30.90625 
L 53.515625 0 
L 44.484375 0 
L 44.484375 32.71875 
Q 44.484375 40.625 41.703125 44.40625 
Q 38.921875 48.1875 33.109375 48.1875 
Q 26.21875 48.1875 22.15625 43.53125 
Q 18.109375 38.875 18.109375 30.90625 
L 18.109375 0 
L 9.078125 0 
L 9.078125 54.6875 
L 18.109375 54.6875 
L 18.109375 46.1875 
Q 21.1875 51.21875 25.484375 53.609375 
Q 29.78125 56 35.6875 56 
Q 41.65625 56 45.828125 52.96875 
Q 50 49.953125 52 44.1875 
z
" id="DejaVuSans-109"/>
      <path d="M 56.203125 29.59375 
L 56.203125 25.203125 
L 14.890625 25.203125 
Q 15.484375 15.921875 20.484375 11.0625 
Q 25.484375 6.203125 34.421875 6.203125 
Q 39.59375 6.203125 44.453125 7.46875 
Q 49.3125 8.734375 54.109375 11.28125 
L 54.109375 2.78125 
Q 49.265625 0.734375 44.1875 -0.34375 
Q 39.109375 -1.421875 33.890625 -1.421875 
Q 20.796875 -1.421875 13.15625 6.1875 
Q 5.515625 13.8125 5.515625 26.8125 
Q 5.515625 40.234375 12.765625 48.109375 
Q 20.015625 56 32.328125 56 
Q 43.359375 56 49.78125 48.890625 
Q 56.203125 41.796875 56.203125 29.59375 
z
M 47.21875 32.234375 
Q 47.125 39.59375 43.09375 43.984375 
Q 39.0625 48.390625 32.421875 48.390625 
Q 24.90625 48.390625 20.390625 44.140625 
Q 15.875 39.890625 15.1875 32.171875 
z
" id="DejaVuSans-101"/>
      <path id="DejaVuSans-32"/>
      <path d="M 31 75.875 
Q 24.46875 64.65625 21.28125 53.65625 
Q 18.109375 42.671875 18.109375 31.390625 
Q 18.109375 20.125 21.3125 9.0625 
Q 24.515625 -2 31 -13.1875 
L 23.1875 -13.1875 
Q 15.875 -1.703125 12.234375 9.375 
Q 8.59375 20.453125 8.59375 31.390625 
Q 8.59375 42.28125 12.203125 53.3125 
Q 15.828125 64.359375 23.1875 75.875 
z
" id="DejaVuSans-40"/>
      <path d="M 44.28125 53.078125 
L 44.28125 44.578125 
Q 40.484375 46.53125 36.375 47.5 
Q 32.28125 48.484375 27.875 48.484375 
Q 21.1875 48.484375 17.84375 46.4375 
Q 14.5 44.390625 14.5 40.28125 
Q 14.5 37.15625 16.890625 35.375 
Q 19.28125 33.59375 26.515625 31.984375 
L 29.59375 31.296875 
Q 39.15625 29.25 43.1875 25.515625 
Q 47.21875 21.78125 47.21875 15.09375 
Q 47.21875 7.46875 41.1875 3.015625 
Q 35.15625 -1.421875 24.609375 -1.421875 
Q 20.21875 -1.421875 15.453125 -0.5625 
Q 10.6875 0.296875 5.421875 2 
L 5.421875 11.28125 
Q 10.40625 8.6875 15.234375 7.390625 
Q 20.0625 6.109375 24.8125 6.109375 
Q 31.15625 6.109375 34.5625 8.28125 
Q 37.984375 10.453125 37.984375 14.40625 
Q 37.984375 18.0625 35.515625 20.015625 
Q 33.0625 21.96875 24.703125 23.78125 
L 21.578125 24.515625 
Q 13.234375 26.265625 9.515625 29.90625 
Q 5.8125 33.546875 5.8125 39.890625 
Q 5.8125 47.609375 11.28125 51.796875 
Q 16.75 56 26.8125 56 
Q 31.78125 56 36.171875 55.265625 
Q 40.578125 54.546875 44.28125 53.078125 
z
" id="DejaVuSans-115"/>
      <path d="M 8.015625 75.875 
L 15.828125 75.875 
Q 23.140625 64.359375 26.78125 53.3125 
Q 30.421875 42.28125 30.421875 31.390625 
Q 30.421875 20.453125 26.78125 9.375 
Q 23.140625 -1.703125 15.828125 -13.1875 
L 8.015625 -13.1875 
Q 14.5 -2 17.703125 9.0625 
Q 20.90625 20.125 20.90625 31.390625 
Q 20.90625 42.671875 17.703125 53.65625 
Q 14.5 64.65625 8.015625 75.875 
z
" id="DejaVuSans-41"/>
     </defs>
     <g transform="translate(198.745313 269.276563)scale(0.1 -0.1)">
      <use xlink:href="#DejaVuSans-84"/>
      <use x="61.037109" xlink:href="#DejaVuSans-105"/>
      <use x="88.820312" xlink:href="#DejaVuSans-109"/>
      <use x="186.232422" xlink:href="#DejaVuSans-101"/>
      <use x="247.755859" xlink:href="#DejaVuSans-32"/>
      <use x="279.542969" xlink:href="#DejaVuSans-40"/>
      <use x="318.556641" xlink:href="#DejaVuSans-109"/>
      <use x="415.96875" xlink:href="#DejaVuSans-115"/>
      <use x="468.068359" xlink:href="#DejaVuSans-41"/>
      <use x="507.082031" xlink:href="#DejaVuSans-32"/>
     </g>
     <!--  log (base 10) -->
     <defs>
      <path d="M 9.421875 75.984375 
L 18.40625 75.984375 
L 18.40625 0 
L 9.421875 0 
z
" id="DejaVuSans-108"/>
      <path d="M 30.609375 48.390625 
Q 23.390625 48.390625 19.1875 42.75 
Q 14.984375 37.109375 14.984375 27.296875 
Q 14.984375 17.484375 19.15625 11.84375 
Q 23.34375 6.203125 30.609375 6.203125 
Q 37.796875 6.203125 41.984375 11.859375 
Q 46.1875 17.53125 46.1875 27.296875 
Q 46.1875 37.015625 41.984375 42.703125 
Q 37.796875 48.390625 30.609375 48.390625 
z
M 30.609375 56 
Q 42.328125 56 49.015625 48.375 
Q 55.71875 40.765625 55.71875 27.296875 
Q 55.71875 13.875 49.015625 6.21875 
Q 42.328125 -1.421875 30.609375 -1.421875 
Q 18.84375 -1.421875 12.171875 6.21875 
Q 5.515625 13.875 5.515625 27.296875 
Q 5.515625 40.765625 12.171875 48.375 
Q 18.84375 56 30.609375 56 
z
" id="DejaVuSans-111"/>
      <path d="M 45.40625 27.984375 
Q 45.40625 37.75 41.375 43.109375 
Q 37.359375 48.484375 30.078125 48.484375 
Q 22.859375 48.484375 18.828125 43.109375 
Q 14.796875 37.75 14.796875 27.984375 
Q 14.796875 18.265625 18.828125 12.890625 
Q 22.859375 7.515625 30.078125 7.515625 
Q 37.359375 7.515625 41.375 12.890625 
Q 45.40625 18.265625 45.40625 27.984375 
z
M 54.390625 6.78125 
Q 54.390625 -7.171875 48.1875 -13.984375 
Q 42 -20.796875 29.203125 -20.796875 
Q 24.46875 -20.796875 20.265625 -20.09375 
Q 16.0625 -19.390625 12.109375 -17.921875 
L 12.109375 -9.1875 
Q 16.0625 -11.328125 19.921875 -12.34375 
Q 23.78125 -13.375 27.78125 -13.375 
Q 36.625 -13.375 41.015625 -8.765625 
Q 45.40625 -4.15625 45.40625 5.171875 
L 45.40625 9.625 
Q 42.625 4.78125 38.28125 2.390625 
Q 33.9375 0 27.875 0 
Q 17.828125 0 11.671875 7.65625 
Q 5.515625 15.328125 5.515625 27.984375 
Q 5.515625 40.671875 11.671875 48.328125 
Q 17.828125 56 27.875 56 
Q 33.9375 56 38.28125 53.609375 
Q 42.625 51.21875 45.40625 46.390625 
L 45.40625 54.6875 
L 54.390625 54.6875 
z
" id="DejaVuSans-103"/>
      <path d="M 48.6875 27.296875 
Q 48.6875 37.203125 44.609375 42.84375 
Q 40.53125 48.484375 33.40625 48.484375 
Q 26.265625 48.484375 22.1875 42.84375 
Q 18.109375 37.203125 18.109375 27.296875 
Q 18.109375 17.390625 22.1875 11.75 
Q 26.265625 6.109375 33.40625 6.109375 
Q 40.53125 6.109375 44.609375 11.75 
Q 48.6875 17.390625 48.6875 27.296875 
z
M 18.109375 46.390625 
Q 20.953125 51.265625 25.265625 53.625 
Q 29.59375 56 35.59375 56 
Q 45.5625 56 51.78125 48.09375 
Q 58.015625 40.1875 58.015625 27.296875 
Q 58.015625 14.40625 51.78125 6.484375 
Q 45.5625 -1.421875 35.59375 -1.421875 
Q 29.59375 -1.421875 25.265625 0.953125 
Q 20.953125 3.328125 18.109375 8.203125 
L 18.109375 0 
L 9.078125 0 
L 9.078125 75.984375 
L 18.109375 75.984375 
z
" id="DejaVuSans-98"/>
      <path d="M 34.28125 27.484375 
Q 23.390625 27.484375 19.1875 25 
Q 14.984375 22.515625 14.984375 16.5 
Q 14.984375 11.71875 18.140625 8.90625 
Q 21.296875 6.109375 26.703125 6.109375 
Q 34.1875 6.109375 38.703125 11.40625 
Q 43.21875 16.703125 43.21875 25.484375 
L 43.21875 27.484375 
z
M 52.203125 31.203125 
L 52.203125 0 
L 43.21875 0 
L 43.21875 8.296875 
Q 40.140625 3.328125 35.546875 0.953125 
Q 30.953125 -1.421875 24.3125 -1.421875 
Q 15.921875 -1.421875 10.953125 3.296875 
Q 6 8.015625 6 15.921875 
Q 6 25.140625 12.171875 29.828125 
Q 18.359375 34.515625 30.609375 34.515625 
L 43.21875 34.515625 
L 43.21875 35.40625 
Q 43.21875 41.609375 39.140625 45 
Q 35.0625 48.390625 27.6875 48.390625 
Q 23 48.390625 18.546875 47.265625 
Q 14.109375 46.140625 10.015625 43.890625 
L 10.015625 52.203125 
Q 14.9375 54.109375 19.578125 55.046875 
Q 24.21875 56 28.609375 56 
Q 40.484375 56 46.34375 49.84375 
Q 52.203125 43.703125 52.203125 31.203125 
z
" id="DejaVuSans-97"/>
     </defs>
     <g transform="translate(191.114062 280.474375)scale(0.1 -0.1)">
      <use xlink:href="#DejaVuSans-32"/>
      <use x="31.787109" xlink:href="#DejaVuSans-108"/>
      <use x="59.570312" xlink:href="#DejaVuSans-111"/>
      <use x="120.751953" xlink:href="#DejaVuSans-103"/>
      <use x="184.228516" xlink:href="#DejaVuSans-32"/>
      <use x="216.015625" xlink:href="#DejaVuSans-40"/>
      <use x="255.029297" xlink:href="#DejaVuSans-98"/>
      <use x="318.505859" xlink:href="#DejaVuSans-97"/>
      <use x="379.785156" xlink:href="#DejaVuSans-115"/>
      <use x="431.884766" xlink:href="#DejaVuSans-101"/>
      <use x="493.408203" xlink:href="#DejaVuSans-32"/>
      <use x="525.195312" xlink:href="#DejaVuSans-49"/>
      <use x="588.818359" xlink:href="#DejaVuSans-48"/>
      <use x="652.441406" xlink:href="#DejaVuSans-41"/>
     </g>
    </g>
   </g>
   <g id="matplotlib.axis_2">
    <g id="ytick_1">
     <g id="line2d_50">
      <path clip-path="url(#pfa8e56c863)" d="M 52.875 231.569034 
L 398.5 231.569034 
" style="fill:none;stroke:#b0b0b0;stroke-dasharray:3.7,1.6;stroke-dashoffset:0;"/>
     </g>
     <g id="line2d_51">
      <defs>
       <path d="M 0 0 
L -3.5 0 
" id="m526340f3aa" style="stroke:#000000;stroke-width:0.8;"/>
      </defs>
      <g>
       <use style="stroke:#000000;stroke-width:0.8;" x="52.875" xlink:href="#m526340f3aa" y="231.569034"/>
      </g>
     </g>
     <g id="text_7">
      <!-- 0.0 -->
      <defs>
       <path d="M 10.6875 12.40625 
L 21 12.40625 
L 21 0 
L 10.6875 0 
z
" id="DejaVuSans-46"/>
      </defs>
      <g transform="translate(29.971875 235.368252)scale(0.1 -0.1)">
       <use xlink:href="#DejaVuSans-48"/>
       <use x="63.623047" xlink:href="#DejaVuSans-46"/>
       <use x="95.410156" xlink:href="#DejaVuSans-48"/>
      </g>
     </g>
    </g>
    <g id="ytick_2">
     <g id="line2d_52">
      <path clip-path="url(#pfa8e56c863)" d="M 52.875 193.841591 
L 398.5 193.841591 
" style="fill:none;stroke:#b0b0b0;stroke-dasharray:3.7,1.6;stroke-dashoffset:0;"/>
     </g>
     <g id="line2d_53">
      <g>
       <use style="stroke:#000000;stroke-width:0.8;" x="52.875" xlink:href="#m526340f3aa" y="193.841591"/>
      </g>
     </g>
     <g id="text_8">
      <!-- 0.2 -->
      <g transform="translate(29.971875 197.640809)scale(0.1 -0.1)">
       <use xlink:href="#DejaVuSans-48"/>
       <use x="63.623047" xlink:href="#DejaVuSans-46"/>
       <use x="95.410156" xlink:href="#DejaVuSans-50"/>
      </g>
     </g>
    </g>
    <g id="ytick_3">
     <g id="line2d_54">
      <path clip-path="url(#pfa8e56c863)" d="M 52.875 156.114147 
L 398.5 156.114147 
" style="fill:none;stroke:#b0b0b0;stroke-dasharray:3.7,1.6;stroke-dashoffset:0;"/>
     </g>
     <g id="line2d_55">
      <g>
       <use style="stroke:#000000;stroke-width:0.8;" x="52.875" xlink:href="#m526340f3aa" y="156.114147"/>
      </g>
     </g>
     <g id="text_9">
      <!-- 0.4 -->
      <defs>
       <path d="M 37.796875 64.3125 
L 12.890625 25.390625 
L 37.796875 25.390625 
z
M 35.203125 72.90625 
L 47.609375 72.90625 
L 47.609375 25.390625 
L 58.015625 25.390625 
L 58.015625 17.1875 
L 47.609375 17.1875 
L 47.609375 0 
L 37.796875 0 
L 37.796875 17.1875 
L 4.890625 17.1875 
L 4.890625 26.703125 
z
" id="DejaVuSans-52"/>
      </defs>
      <g transform="translate(29.971875 159.913366)scale(0.1 -0.1)">
       <use xlink:href="#DejaVuSans-48"/>
       <use x="63.623047" xlink:href="#DejaVuSans-46"/>
       <use x="95.410156" xlink:href="#DejaVuSans-52"/>
      </g>
     </g>
    </g>
    <g id="ytick_4">
     <g id="line2d_56">
      <path clip-path="url(#pfa8e56c863)" d="M 52.875 118.386704 
L 398.5 118.386704 
" style="fill:none;stroke:#b0b0b0;stroke-dasharray:3.7,1.6;stroke-dashoffset:0;"/>
     </g>
     <g id="line2d_57">
      <g>
       <use style="stroke:#000000;stroke-width:0.8;" x="52.875" xlink:href="#m526340f3aa" y="118.386704"/>
      </g>
     </g>
     <g id="text_10">
      <!-- 0.6 -->
      <defs>
       <path d="M 33.015625 40.375 
Q 26.375 40.375 22.484375 35.828125 
Q 18.609375 31.296875 18.609375 23.390625 
Q 18.609375 15.53125 22.484375 10.953125 
Q 26.375 6.390625 33.015625 6.390625 
Q 39.65625 6.390625 43.53125 10.953125 
Q 47.40625 15.53125 47.40625 23.390625 
Q 47.40625 31.296875 43.53125 35.828125 
Q 39.65625 40.375 33.015625 40.375 
z
M 52.59375 71.296875 
L 52.59375 62.3125 
Q 48.875 64.0625 45.09375 64.984375 
Q 41.3125 65.921875 37.59375 65.921875 
Q 27.828125 65.921875 22.671875 59.328125 
Q 17.53125 52.734375 16.796875 39.40625 
Q 19.671875 43.65625 24.015625 45.921875 
Q 28.375 48.1875 33.59375 48.1875 
Q 44.578125 48.1875 50.953125 41.515625 
Q 57.328125 34.859375 57.328125 23.390625 
Q 57.328125 12.15625 50.6875 5.359375 
Q 44.046875 -1.421875 33.015625 -1.421875 
Q 20.359375 -1.421875 13.671875 8.265625 
Q 6.984375 17.96875 6.984375 36.375 
Q 6.984375 53.65625 15.1875 63.9375 
Q 23.390625 74.21875 37.203125 74.21875 
Q 40.921875 74.21875 44.703125 73.484375 
Q 48.484375 72.75 52.59375 71.296875 
z
" id="DejaVuSans-54"/>
      </defs>
      <g transform="translate(29.971875 122.185923)scale(0.1 -0.1)">
       <use xlink:href="#DejaVuSans-48"/>
       <use x="63.623047" xlink:href="#DejaVuSans-46"/>
       <use x="95.410156" xlink:href="#DejaVuSans-54"/>
      </g>
     </g>
    </g>
    <g id="ytick_5">
     <g id="line2d_58">
      <path clip-path="url(#pfa8e56c863)" d="M 52.875 80.659261 
L 398.5 80.659261 
" style="fill:none;stroke:#b0b0b0;stroke-dasharray:3.7,1.6;stroke-dashoffset:0;"/>
     </g>
     <g id="line2d_59">
      <g>
       <use style="stroke:#000000;stroke-width:0.8;" x="52.875" xlink:href="#m526340f3aa" y="80.659261"/>
      </g>
     </g>
     <g id="text_11">
      <!-- 0.8 -->
      <defs>
       <path d="M 31.78125 34.625 
Q 24.75 34.625 20.71875 30.859375 
Q 16.703125 27.09375 16.703125 20.515625 
Q 16.703125 13.921875 20.71875 10.15625 
Q 24.75 6.390625 31.78125 6.390625 
Q 38.8125 6.390625 42.859375 10.171875 
Q 46.921875 13.96875 46.921875 20.515625 
Q 46.921875 27.09375 42.890625 30.859375 
Q 38.875 34.625 31.78125 34.625 
z
M 21.921875 38.8125 
Q 15.578125 40.375 12.03125 44.71875 
Q 8.5 49.078125 8.5 55.328125 
Q 8.5 64.0625 14.71875 69.140625 
Q 20.953125 74.21875 31.78125 74.21875 
Q 42.671875 74.21875 48.875 69.140625 
Q 55.078125 64.0625 55.078125 55.328125 
Q 55.078125 49.078125 51.53125 44.71875 
Q 48 40.375 41.703125 38.8125 
Q 48.828125 37.15625 52.796875 32.3125 
Q 56.78125 27.484375 56.78125 20.515625 
Q 56.78125 9.90625 50.3125 4.234375 
Q 43.84375 -1.421875 31.78125 -1.421875 
Q 19.734375 -1.421875 13.25 4.234375 
Q 6.78125 9.90625 6.78125 20.515625 
Q 6.78125 27.484375 10.78125 32.3125 
Q 14.796875 37.15625 21.921875 38.8125 
z
M 18.3125 54.390625 
Q 18.3125 48.734375 21.84375 45.5625 
Q 25.390625 42.390625 31.78125 42.390625 
Q 38.140625 42.390625 41.71875 45.5625 
Q 45.3125 48.734375 45.3125 54.390625 
Q 45.3125 60.0625 41.71875 63.234375 
Q 38.140625 66.40625 31.78125 66.40625 
Q 25.390625 66.40625 21.84375 63.234375 
Q 18.3125 60.0625 18.3125 54.390625 
z
" id="DejaVuSans-56"/>
      </defs>
      <g transform="translate(29.971875 84.45848)scale(0.1 -0.1)">
       <use xlink:href="#DejaVuSans-48"/>
       <use x="63.623047" xlink:href="#DejaVuSans-46"/>
       <use x="95.410156" xlink:href="#DejaVuSans-56"/>
      </g>
     </g>
    </g>
    <g id="ytick_6">
     <g id="line2d_60">
      <path clip-path="url(#pfa8e56c863)" d="M 52.875 42.931818 
L 398.5 42.931818 
" style="fill:none;stroke:#b0b0b0;stroke-dasharray:3.7,1.6;stroke-dashoffset:0;"/>
     </g>
     <g id="line2d_61">
      <g>
       <use style="stroke:#000000;stroke-width:0.8;" x="52.875" xlink:href="#m526340f3aa" y="42.931818"/>
      </g>
     </g>
     <g id="text_12">
      <!-- 1.0 -->
      <g transform="translate(29.971875 46.731037)scale(0.1 -0.1)">
       <use xlink:href="#DejaVuSans-49"/>
       <use x="63.623047" xlink:href="#DejaVuSans-46"/>
       <use x="95.410156" xlink:href="#DejaVuSans-48"/>
      </g>
     </g>
    </g>
    <g id="text_13">
     <!-- Fraction of Requests -->
     <defs>
      <path d="M 9.8125 72.90625 
L 51.703125 72.90625 
L 51.703125 64.59375 
L 19.671875 64.59375 
L 19.671875 43.109375 
L 48.578125 43.109375 
L 48.578125 34.8125 
L 19.671875 34.8125 
L 19.671875 0 
L 9.8125 0 
z
" id="DejaVuSans-70"/>
      <path d="M 41.109375 46.296875 
Q 39.59375 47.171875 37.8125 47.578125 
Q 36.03125 48 33.890625 48 
Q 26.265625 48 22.1875 43.046875 
Q 18.109375 38.09375 18.109375 28.8125 
L 18.109375 0 
L 9.078125 0 
L 9.078125 54.6875 
L 18.109375 54.6875 
L 18.109375 46.1875 
Q 20.953125 51.171875 25.484375 53.578125 
Q 30.03125 56 36.53125 56 
Q 37.453125 56 38.578125 55.875 
Q 39.703125 55.765625 41.0625 55.515625 
z
" id="DejaVuSans-114"/>
      <path d="M 48.78125 52.59375 
L 48.78125 44.1875 
Q 44.96875 46.296875 41.140625 47.34375 
Q 37.3125 48.390625 33.40625 48.390625 
Q 24.65625 48.390625 19.8125 42.84375 
Q 14.984375 37.3125 14.984375 27.296875 
Q 14.984375 17.28125 19.8125 11.734375 
Q 24.65625 6.203125 33.40625 6.203125 
Q 37.3125 6.203125 41.140625 7.25 
Q 44.96875 8.296875 48.78125 10.40625 
L 48.78125 2.09375 
Q 45.015625 0.34375 40.984375 -0.53125 
Q 36.96875 -1.421875 32.421875 -1.421875 
Q 20.0625 -1.421875 12.78125 6.34375 
Q 5.515625 14.109375 5.515625 27.296875 
Q 5.515625 40.671875 12.859375 48.328125 
Q 20.21875 56 33.015625 56 
Q 37.15625 56 41.109375 55.140625 
Q 45.0625 54.296875 48.78125 52.59375 
z
" id="DejaVuSans-99"/>
      <path d="M 18.3125 70.21875 
L 18.3125 54.6875 
L 36.8125 54.6875 
L 36.8125 47.703125 
L 18.3125 47.703125 
L 18.3125 18.015625 
Q 18.3125 11.328125 20.140625 9.421875 
Q 21.96875 7.515625 27.59375 7.515625 
L 36.8125 7.515625 
L 36.8125 0 
L 27.59375 0 
Q 17.1875 0 13.234375 3.875 
Q 9.28125 7.765625 9.28125 18.015625 
L 9.28125 47.703125 
L 2.6875 47.703125 
L 2.6875 54.6875 
L 9.28125 54.6875 
L 9.28125 70.21875 
z
" id="DejaVuSans-116"/>
      <path d="M 54.890625 33.015625 
L 54.890625 0 
L 45.90625 0 
L 45.90625 32.71875 
Q 45.90625 40.484375 42.875 44.328125 
Q 39.84375 48.1875 33.796875 48.1875 
Q 26.515625 48.1875 22.3125 43.546875 
Q 18.109375 38.921875 18.109375 30.90625 
L 18.109375 0 
L 9.078125 0 
L 9.078125 54.6875 
L 18.109375 54.6875 
L 18.109375 46.1875 
Q 21.34375 51.125 25.703125 53.5625 
Q 30.078125 56 35.796875 56 
Q 45.21875 56 50.046875 50.171875 
Q 54.890625 44.34375 54.890625 33.015625 
z
" id="DejaVuSans-110"/>
      <path d="M 37.109375 75.984375 
L 37.109375 68.5 
L 28.515625 68.5 
Q 23.6875 68.5 21.796875 66.546875 
Q 19.921875 64.59375 19.921875 59.515625 
L 19.921875 54.6875 
L 34.71875 54.6875 
L 34.71875 47.703125 
L 19.921875 47.703125 
L 19.921875 0 
L 10.890625 0 
L 10.890625 47.703125 
L 2.296875 47.703125 
L 2.296875 54.6875 
L 10.890625 54.6875 
L 10.890625 58.5 
Q 10.890625 67.625 15.140625 71.796875 
Q 19.390625 75.984375 28.609375 75.984375 
z
" id="DejaVuSans-102"/>
      <path d="M 44.390625 34.1875 
Q 47.5625 33.109375 50.5625 29.59375 
Q 53.5625 26.078125 56.59375 19.921875 
L 66.609375 0 
L 56 0 
L 46.6875 18.703125 
Q 43.0625 26.03125 39.671875 28.421875 
Q 36.28125 30.8125 30.421875 30.8125 
L 19.671875 30.8125 
L 19.671875 0 
L 9.8125 0 
L 9.8125 72.90625 
L 32.078125 72.90625 
Q 44.578125 72.90625 50.734375 67.671875 
Q 56.890625 62.453125 56.890625 51.90625 
Q 56.890625 45.015625 53.6875 40.46875 
Q 50.484375 35.9375 44.390625 34.1875 
z
M 19.671875 64.796875 
L 19.671875 38.921875 
L 32.078125 38.921875 
Q 39.203125 38.921875 42.84375 42.21875 
Q 46.484375 45.515625 46.484375 51.90625 
Q 46.484375 58.296875 42.84375 61.546875 
Q 39.203125 64.796875 32.078125 64.796875 
z
" id="DejaVuSans-82"/>
      <path d="M 14.796875 27.296875 
Q 14.796875 17.390625 18.875 11.75 
Q 22.953125 6.109375 30.078125 6.109375 
Q 37.203125 6.109375 41.296875 11.75 
Q 45.40625 17.390625 45.40625 27.296875 
Q 45.40625 37.203125 41.296875 42.84375 
Q 37.203125 48.484375 30.078125 48.484375 
Q 22.953125 48.484375 18.875 42.84375 
Q 14.796875 37.203125 14.796875 27.296875 
z
M 45.40625 8.203125 
Q 42.578125 3.328125 38.25 0.953125 
Q 33.9375 -1.421875 27.875 -1.421875 
Q 17.96875 -1.421875 11.734375 6.484375 
Q 5.515625 14.40625 5.515625 27.296875 
Q 5.515625 40.1875 11.734375 48.09375 
Q 17.96875 56 27.875 56 
Q 33.9375 56 38.25 53.625 
Q 42.578125 51.265625 45.40625 46.390625 
L 45.40625 54.6875 
L 54.390625 54.6875 
L 54.390625 -20.796875 
L 45.40625 -20.796875 
z
" id="DejaVuSans-113"/>
      <path d="M 8.5 21.578125 
L 8.5 54.6875 
L 17.484375 54.6875 
L 17.484375 21.921875 
Q 17.484375 14.15625 20.5 10.265625 
Q 23.53125 6.390625 29.59375 6.390625 
Q 36.859375 6.390625 41.078125 11.03125 
Q 45.3125 15.671875 45.3125 23.6875 
L 45.3125 54.6875 
L 54.296875 54.6875 
L 54.296875 0 
L 45.3125 0 
L 45.3125 8.40625 
Q 42.046875 3.421875 37.71875 1 
Q 33.40625 -1.421875 27.6875 -1.421875 
Q 18.265625 -1.421875 13.375 4.4375 
Q 8.5 10.296875 8.5 21.578125 
z
M 31.109375 56 
z
" id="DejaVuSans-117"/>
     </defs>
     <g transform="translate(23.892187 188.700781)rotate(-90)scale(0.1 -0.1)">
      <use xlink:href="#DejaVuSans-70"/>
      <use x="57.410156" xlink:href="#DejaVuSans-114"/>
      <use x="98.523438" xlink:href="#DejaVuSans-97"/>
      <use x="159.802734" xlink:href="#DejaVuSans-99"/>
      <use x="214.783203" xlink:href="#DejaVuSans-116"/>
      <use x="253.992188" xlink:href="#DejaVuSans-105"/>
      <use x="281.775391" xlink:href="#DejaVuSans-111"/>
      <use x="342.957031" xlink:href="#DejaVuSans-110"/>
      <use x="406.335938" xlink:href="#DejaVuSans-32"/>
      <use x="438.123047" xlink:href="#DejaVuSans-111"/>
      <use x="499.304688" xlink:href="#DejaVuSans-102"/>
      <use x="534.509766" xlink:href="#DejaVuSans-32"/>
      <use x="566.296875" xlink:href="#DejaVuSans-82"/>
      <use x="635.716797" xlink:href="#DejaVuSans-101"/>
      <use x="697.240234" xlink:href="#DejaVuSans-113"/>
      <use x="760.716797" xlink:href="#DejaVuSans-117"/>
      <use x="824.095703" xlink:href="#DejaVuSans-101"/>
      <use x="885.619141" xlink:href="#DejaVuSans-115"/>
      <use x="937.71875" xlink:href="#DejaVuSans-116"/>
      <use x="976.927734" xlink:href="#DejaVuSans-115"/>
     </g>
    </g>
   </g>
   <g id="line2d_62">
    <path clip-path="url(#pfa8e56c863)" d="M 103.390562 231.568182 
L 109.353272 231.454889 
L 110.104051 231.336486 
L 111.891035 230.842428 
L 112.488743 230.416516 
L 113.815689 228.639612 
L 114.14907 228.098704 
L 115.572189 225.274056 
L 116.027731 223.848103 
L 118.15101 215.605005 
L 118.521238 213.663699 
L 119.078181 210.697649 
L 121.21282 195.754957 
L 122.260379 186.700923 
L 122.601687 183.579841 
L 123.283381 177.255901 
L 123.807739 172.247178 
L 124.29646 167.516149 
L 124.549511 165.104636 
L 126.786147 143.809043 
L 129.67536 119.998866 
L 130.485122 114.478196 
L 132.845445 101.137785 
L 133.698824 97.138473 
L 137.005672 84.942912 
L 137.141783 84.528074 
L 139.983583 77.113801 
L 142.202499 72.637467 
L 142.285826 72.47988 
L 142.636979 71.835049 
L 143.998853 69.530014 
L 144.223481 69.156915 
L 144.549617 68.65008 
L 145.199967 67.604892 
L 145.562354 67.080169 
L 145.760912 66.777772 
L 146.035095 66.335675 
L 146.416777 65.793915 
L 146.868553 65.156751 
L 147.033484 64.930166 
L 147.145569 64.785356 
L 147.840345 63.869645 
L 148.421532 63.061265 
L 148.69079 62.725646 
L 148.875926 62.494802 
L 149.389551 61.832935 
L 149.621365 61.569721 
L 149.884558 61.234955 
L 151.886217 59.038101 
L 152.040846 58.872847 
L 152.776231 58.11728 
L 153.295411 57.647073 
L 153.855178 57.088277 
L 154.054145 56.904283 
L 154.516279 56.46389 
L 155.025023 55.979202 
L 155.956396 55.158044 
L 156.13976 55.012382 
L 157.766497 53.693759 
L 157.930446 53.545542 
L 160.921325 51.375947 
L 161.139794 51.23284 
L 161.342883 51.105067 
L 161.595583 50.937258 
L 162.154425 50.598232 
L 163.221763 50.004511 
L 163.36898 49.922735 
L 163.740776 49.725112 
L 164.222344 49.488305 
L 164.610512 49.268535 
L 164.929799 49.118614 
L 165.514615 48.828142 
L 165.947014 48.629667 
L 167.360294 48.041909 
L 167.837612 47.901358 
L 168.548381 47.647514 
L 170.944415 46.891095 
L 171.641014 46.687509 
L 172.019212 46.584438 
L 172.679623 46.419185 
L 173.769267 46.136379 
L 173.93996 46.093788 
L 174.596711 45.942163 
L 175.215182 45.785428 
L 175.942441 45.631248 
L 180.150767 44.905494 
L 186.766292 44.199332 
L 190.090089 43.98808 
L 190.629419 43.948896 
L 194.911316 43.739347 
L 199.232557 43.580908 
L 207.180851 43.331324 
L 207.986077 43.302362 
L 236.9197 43.061295 
L 334.663435 42.931818 
L 334.663435 42.931818 
" style="fill:none;stroke:#00aff0;stroke-dasharray:7.4,3.2;stroke-dashoffset:0;stroke-width:2;"/>
   </g>
   <g id="line2d_63">
    <path clip-path="url(#pfa8e56c863)" d="M 98.529512 231.568182 
L 105.801181 231.429335 
L 110.322005 230.690803 
L 110.596203 230.610732 
L 111.281328 230.387554 
L 111.608027 230.251262 
L 111.956358 230.121785 
L 112.963439 229.664356 
L 113.363814 229.459066 
L 113.84872 229.169446 
L 114.543434 228.66687 
L 115.335094 227.944524 
L 115.886933 227.395949 
L 116.424592 226.843116 
L 116.820612 226.426574 
L 117.139677 226.10714 
L 119.730197 222.806323 
L 120.07025 222.218565 
L 120.235037 221.928093 
L 121.30151 220.03534 
L 121.492787 219.645205 
L 124.021047 214.049575 
L 124.209404 213.633033 
L 125.013475 211.750503 
L 125.470457 210.589467 
L 125.595652 210.244479 
L 126.053491 209.153292 
L 127.61566 205.067094 
L 128.061973 203.646252 
L 128.209298 203.172638 
L 128.670205 201.664058 
L 130.745809 193.931202 
L 131.113999 192.401327 
L 135.79824 171.992482 
L 136.037691 171.063143 
L 136.549 168.967656 
L 136.729385 168.172053 
L 138.648064 160.555045 
L 138.851656 159.763701 
L 139.260921 158.177605 
L 141.654287 149.626147 
L 142.204353 147.819429 
L 142.501411 146.889237 
L 142.976889 145.37725 
L 143.050909 145.160887 
L 143.386244 144.113144 
L 145.583927 137.479992 
L 145.831747 136.716758 
L 145.961457 136.310438 
L 149.133824 125.182213 
L 149.214891 124.919 
L 151.052579 118.136779 
L 152.85337 110.877538 
L 153.071954 109.999307 
L 153.635817 107.629534 
L 154.864128 102.404447 
L 154.984879 101.895908 
L 155.395963 100.22463 
L 155.631628 99.224589 
L 156.03058 97.586532 
L 156.302215 96.459569 
L 156.716666 94.692035 
L 156.755735 94.526781 
L 157.026681 93.465409 
L 159.562836 84.402856 
L 159.738219 83.905391 
L 160.666966 81.245146 
L 164.36212 72.193667 
L 164.482563 71.927898 
L 164.757342 71.315436 
L 166.057118 68.567453 
L 166.219848 68.263352 
L 166.536057 67.656854 
L 166.745049 67.284607 
L 167.841598 65.274303 
L 167.966498 65.08179 
L 168.312255 64.548549 
L 168.80509 63.743575 
L 169.06118 63.296368 
L 169.293857 62.906233 
L 169.66172 62.326993 
L 170.4817 61.148069 
L 170.589668 60.987074 
L 171.128833 60.18636 
L 171.395933 59.835408 
L 171.580457 59.596046 
L 171.817067 59.311537 
L 171.932245 59.160764 
L 172.454458 58.531266 
L 172.689139 58.245053 
L 172.857209 58.057652 
L 172.992749 57.910287 
L 173.963429 56.859988 
L 174.13563 56.664068 
L 174.334554 56.452816 
L 174.810397 56.005609 
L 174.956439 55.839503 
L 175.112451 55.66999 
L 175.616494 55.193821 
L 176.132338 54.670801 
L 176.296927 54.509806 
L 176.741432 54.131597 
L 178.121421 52.966302 
L 178.407058 52.74142 
L 178.677203 52.529316 
L 178.892931 52.369173 
L 179.122538 52.217549 
L 179.425643 52.025036 
L 179.651273 51.876819 
L 181.238806 50.917666 
L 181.438163 50.800114 
L 181.894787 50.576936 
L 183.041281 50.070953 
L 183.210448 49.99514 
L 188.213057 48.338343 
L 189.166071 48.116869 
L 189.305201 48.080241 
L 191.018804 47.781251 
L 191.728861 47.610034 
L 191.853502 47.587035 
L 192.659184 47.389412 
L 192.897687 47.339154 
L 193.938577 47.13642 
L 195.217434 46.896206 
L 201.887225 44.818608 
L 202.677233 44.663576 
L 205.601265 44.257256 
L 207.458994 44.041744 
L 211.162093 43.747865 
L 220.918363 43.334731 
L 248.523324 43.00252 
L 279.178053 42.940336 
L 317.636073 42.931818 
L 317.636073 42.931818 
" style="fill:none;stroke:#800000;stroke-dasharray:7.4,3.2;stroke-dashoffset:0;stroke-width:2;"/>
   </g>
   <g id="line2d_64">
    <path clip-path="url(#pfa8e56c863)" d="M 112.086583 231.568182 
L 120.844211 231.449778 
L 133.293785 230.772578 
L 134.286808 230.708692 
L 142.891814 230.321112 
L 143.221729 230.28278 
L 146.331114 230.066417 
L 146.90987 230.02127 
L 148.693785 229.864534 
L 149.238433 229.702688 
L 149.545746 229.516138 
L 150.25948 229.037414 
L 150.576394 228.827013 
L 150.830079 228.693277 
L 151.359995 228.416434 
L 151.915859 228.196664 
L 152.245358 228.05952 
L 154.875125 226.246839 
L 155.149981 225.929109 
L 155.39236 225.623304 
L 156.26956 224.186277 
L 157.795363 219.388806 
L 159.15281 211.488141 
L 160.822046 197.19028 
L 162.968253 178.209944 
L 164.644186 166.821061 
L 164.82697 165.677061 
L 167.041137 153.47639 
L 169.334867 144.402764 
L 169.610622 143.510904 
L 171.229539 138.403369 
L 171.340569 138.102676 
L 171.497171 137.667394 
L 171.635386 137.328368 
L 171.824759 136.86242 
L 171.970541 136.510617 
L 172.308921 135.688607 
L 176.08619 128.149967 
L 176.209298 127.928493 
L 176.440814 127.606504 
L 176.584024 127.416547 
L 176.945323 126.902897 
L 177.075005 126.739347 
L 177.293033 126.448023 
L 177.52284 126.145626 
L 177.662203 125.984631 
L 177.942454 125.639643 
L 178.143576 125.386651 
L 178.268252 125.233323 
L 178.447565 125.021219 
L 178.598985 124.847447 
L 178.993046 124.407906 
L 179.390236 123.99903 
L 179.788217 123.548415 
L 179.931508 123.405309 
L 180.254244 123.096949 
L 180.420131 122.937658 
L 180.767448 122.586706 
L 181.025224 122.361825 
L 181.852599 121.682921 
L 181.998002 121.57474 
L 182.258977 121.387339 
L 182.435996 121.238269 
L 182.652648 121.080682 
L 182.843938 120.938428 
L 183.057226 120.786803 
L 183.513164 120.465665 
L 183.66695 120.325966 
L 183.91215 119.956275 
L 184.364781 119.363405 
L 184.558953 119.216892 
L 184.686494 119.132561 
L 185.347659 118.667465 
L 185.598375 118.484323 
L 186.615002 117.704053 
L 186.765437 117.560095 
L 187.529572 116.727863 
L 187.68883 116.556646 
L 187.912373 116.350505 
L 188.452612 115.950148 
L 188.638484 115.80193 
L 190.186885 114.841925 
L 190.578554 114.656228 
L 190.790116 114.53612 
L 191.4128 114.217538 
L 191.707069 114.044618 
L 192.02621 113.874253 
L 192.180061 113.794182 
L 192.829835 113.456008 
L 193.052759 113.354641 
L 193.432376 113.203016 
L 195.847525 112.229382 
L 195.970285 112.17231 
L 196.622523 111.923577 
L 196.778806 111.868209 
L 197.274663 111.694436 
L 197.701175 111.558145 
L 198.518355 111.343485 
L 199.368661 111.127974 
L 201.390752 110.45844 
L 202.820705 109.565729 
L 203.415105 109.408993 
L 211.624613 107.806713 
L 211.815239 107.758159 
L 212.36569 107.536685 
L 212.516045 107.468539 
L 216.237221 105.907146 
L 216.398804 105.793002 
L 223.374239 102.230675 
L 223.769742 102.080754 
L 230.383932 100.074709 
L 236.287085 99.197331 
L 238.8171 98.992893 
L 244.198754 98.346359 
L 245.748819 98.214326 
L 245.853182 98.199845 
L 247.797908 97.976667 
L 248.030118 97.952816 
L 249.401211 97.755193 
L 249.989661 97.676825 
L 252.107437 97.432352 
L 253.381413 96.878666 
L 253.934608 96.262798 
L 254.102961 95.920365 
L 254.196285 95.727001 
L 254.442559 94.931397 
L 254.583201 94.383675 
L 254.645709 94.059982 
L 254.798982 93.272045 
L 254.88366 92.84017 
L 255.269725 90.265107 
L 255.306541 89.927785 
L 255.452203 88.611717 
L 255.514238 88.043551 
L 255.894045 84.274231 
L 256.354729 79.756158 
L 256.40023 79.297025 
L 256.550377 77.757779 
L 256.621702 77.020952 
L 256.836506 74.962946 
L 257.51477 69.290651 
L 257.57797 68.823852 
L 257.746553 67.644928 
L 257.910713 66.49667 
L 258.075381 65.388447 
L 260.115732 55.34289 
L 260.19506 55.026011 
L 260.361473 54.411847 
L 260.766474 53.100038 
L 260.842033 52.875157 
L 262.519649 49.319644 
L 262.656618 49.13565 
L 262.794126 48.982322 
L 263.029165 48.689295 
L 263.395277 48.269346 
L 263.568901 48.09387 
L 263.719422 47.942245 
L 264.526399 47.255675 
L 264.760623 47.092977 
L 264.908172 46.988203 
L 265.158289 46.813579 
L 267.324505 45.860388 
L 268.021231 45.631248 
L 271.207443 44.900383 
L 272.040506 44.739388 
L 272.158726 44.722352 
L 275.584223 44.297292 
L 278.554689 43.980413 
L 280.526471 43.821122 
L 281.422998 43.736792 
L 289.978872 43.373915 
L 325.18178 43.03063 
L 351.021829 42.972706 
L 382.789773 42.931818 
L 382.789773 42.931818 
" style="fill:none;stroke:#ff5500;stroke-dasharray:7.4,3.2;stroke-dashoffset:0;stroke-width:2;"/>
   </g>
   <g id="line2d_65">
    <path clip-path="url(#pfa8e56c863)" d="M 189.547252 231.568182 
L 263.44791 231.211268 
L 272.677145 230.989794 
L 273.500519 230.595399 
L 273.750205 230.258077 
L 273.886327 229.958235 
L 273.951713 229.789574 
L 275.107078 222.359116 
L 275.368747 219.609429 
L 275.424744 218.979079 
L 275.599556 216.622935 
L 275.64537 215.962771 
L 275.829147 213.261638 
L 276.199452 207.255429 
L 276.392931 204.137754 
L 276.956295 195.524113 
L 277.054209 194.16375 
L 277.399776 189.600531 
L 277.444834 189.0724 
L 277.575805 187.505896 
L 277.7326 185.694067 
L 277.819837 184.69573 
L 278.332626 178.461232 
L 279.008735 170.815262 
L 279.038339 170.511161 
L 279.180664 169.21213 
L 280.022294 164.132705 
L 280.062974 163.964896 
L 280.626944 162.027848 
L 280.683171 161.854928 
L 280.796862 161.560197 
L 280.950829 161.180284 
L 281.061396 160.95881 
L 281.201039 160.702411 
L 281.304501 160.538861 
L 281.727897 160.049914 
L 282.067512 159.784145 
L 282.262619 159.649557 
L 286.82287 156.931387 
L 287.334515 156.765282 
L 288.846342 156.566807 
L 294.394148 156.361517 
L 297.756682 156.223522 
L 298.732998 156.04975 
L 298.990316 155.557395 
L 299.205066 155.261813 
L 299.502066 154.979007 
L 299.881091 154.803531 
L 300.936138 154.566724 
L 301.333959 154.49943 
L 304.077496 154.263475 
L 304.390827 154.244735 
L 307.967383 153.857155 
L 308.790726 153.481501 
L 308.981225 153.393763 
L 309.302896 153.237879 
L 310.752675 152.205469 
L 310.878445 152.094732 
L 311.386237 151.569157 
L 312.174444 150.868106 
L 312.488126 150.684964 
L 312.624236 150.609151 
L 313.130001 150.279496 
L 313.315571 150.159389 
L 313.626734 149.992431 
L 313.933702 149.863806 
L 314.535345 149.567371 
L 314.647569 149.505188 
L 315.063772 149.294787 
L 315.297616 149.167866 
L 315.60993 149.028167 
L 317.227726 148.16101 
L 317.70649 147.718062 
L 317.852833 147.540031 
L 318.166945 147.135414 
L 319.017767 146.189038 
L 319.16237 146.051895 
L 319.309971 145.917306 
L 319.553623 145.724794 
L 320.242431 145.187293 
L 320.515558 145.017781 
L 322.307868 144.314174 
L 322.844079 144.144661 
L 323.203575 143.68638 
L 323.36785 143.406982 
L 323.497834 143.241728 
L 324.962228 141.777443 
L 325.088839 141.610486 
L 325.285776 141.440121 
L 325.799158 141.021875 
L 326.047229 140.85577 
L 326.239194 140.731404 
L 326.594821 140.491189 
L 327.058132 140.247568 
L 327.24252 140.152163 
L 327.641233 139.971577 
L 327.764298 139.924726 
L 328.352104 139.738177 
L 329.49234 138.521773 
L 329.660706 138.368445 
L 329.953973 138.077973 
L 330.137686 137.86672 
L 330.401564 137.479992 
L 330.567107 137.204853 
L 330.691004 137.000416 
L 331.022989 136.546394 
L 331.136101 136.368362 
L 333.59007 132.610116 
L 333.695928 132.467862 
L 333.902733 132.237869 
L 334.099792 132.00021 
L 334.7369 130.93969 
L 335.07451 129.950723 
L 335.130108 129.741174 
L 335.278332 129.090381 
L 335.565185 127.74024 
L 335.902816 125.961632 
L 335.931478 125.792971 
L 336.022612 125.294654 
L 336.591975 120.991241 
L 336.920424 116.311321 
L 337.070315 112.689367 
L 337.093101 112.051351 
L 337.452837 100.402661 
L 337.57986 95.883736 
L 337.751682 90.097298 
L 337.789697 88.932855 
L 337.912606 85.531523 
L 338.044204 82.189818 
L 338.43096 73.771244 
L 338.46944 73.015677 
L 339.608262 54.120523 
L 339.655973 53.613688 
L 339.936526 51.14851 
L 340.623521 48.091314 
L 340.834889 47.607479 
L 341.039013 47.230973 
L 342.09576 45.70706 
L 342.324841 45.518807 
L 342.468735 45.391033 
L 342.757819 45.124412 
L 342.866719 45.025601 
L 343.099686 44.854384 
L 343.219605 44.763239 
L 343.579742 44.549431 
L 344.379908 43.823678 
L 344.773887 43.608166 
L 345.332398 43.363693 
L 345.801142 43.216327 
L 347.023085 43.055333 
L 354.188874 42.975261 
L 380.498935 42.931818 
L 380.498935 42.931818 
" style="fill:none;stroke:#58b792;stroke-dasharray:7.4,3.2;stroke-dashoffset:0;stroke-width:2;"/>
   </g>
   <g id="line2d_66">
    <path clip-path="url(#pfa8e56c863)" d="M 105.77043 231.568182 
L 112.880779 231.454889 
L 117.224198 231.040051 
L 117.908538 230.883316 
L 118.428089 230.664397 
L 118.762899 230.471885 
L 120.588409 229.580025 
L 120.772954 229.472695 
L 123.116994 227.746901 
L 123.393802 227.403616 
L 124.017672 226.63016 
L 124.536245 225.832853 
L 126.151157 223.937545 
L 126.348677 223.704997 
L 126.826165 223.020131 
L 127.059071 222.735622 
L 127.305348 222.472408 
L 127.510569 222.221972 
L 127.925799 221.586511 
L 128.229867 221.162303 
L 128.414361 220.929755 
L 128.707818 220.581359 
L 129.286361 219.9229 
L 129.887483 219.219293 
L 131.210013 217.85382 
L 131.488334 217.559089 
L 131.656735 217.388724 
L 134.939085 214.345158 
L 135.211066 214.130498 
L 135.43201 213.956726 
L 136.939592 212.983944 
L 137.213982 212.81869 
L 137.901056 212.423444 
L 138.278966 212.153416 
L 139.959636 210.937011 
L 140.20222 210.790498 
L 140.640686 210.481286 
L 141.352598 210.005116 
L 141.582457 209.859454 
L 142.468344 209.211216 
L 142.918992 208.881561 
L 143.189437 208.691604 
L 143.62251 208.363652 
L 145.656831 206.251981 
L 145.917188 205.8874 
L 146.049801 205.69574 
L 147.093524 204.153939 
L 147.332506 203.754434 
L 147.633266 203.264635 
L 148.19861 202.290149 
L 148.335287 202.032898 
L 148.731198 201.24922 
L 148.907168 200.882084 
L 149.145629 200.383767 
L 149.31482 200.021742 
L 149.484532 199.655458 
L 149.832679 198.840263 
L 150.67195 196.705592 
L 150.73362 196.538635 
L 151.058121 195.642516 
L 151.884869 193.316186 
L 152.102478 192.719909 
L 152.150625 192.558063 
L 152.596352 191.075889 
L 152.697583 190.764122 
L 153.790675 186.841474 
L 154.260545 184.920611 
L 154.600225 183.367736 
L 155.124546 180.805451 
L 155.373137 179.527715 
L 155.990566 176.305266 
L 156.225186 175.04116 
L 157.361717 169.069875 
L 157.603892 167.719735 
L 158.430092 163.363508 
L 158.727489 161.749302 
L 158.972936 160.478381 
L 159.415905 158.100941 
L 159.778789 156.169005 
L 160.153821 154.011335 
L 168.169851 108.112518 
L 168.247036 107.681495 
L 169.178122 103.155755 
L 169.459078 101.830318 
L 169.506658 101.611399 
L 170.040016 99.237366 
L 170.435623 97.477499 
L 170.723365 96.250021 
L 171.203858 94.151127 
L 171.412947 93.220084 
L 172.179965 90.076854 
L 172.244856 89.822159 
L 175.464917 78.314872 
L 175.580679 77.967328 
L 175.762406 77.486048 
L 177.539644 72.883644 
L 177.640271 72.672392 
L 178.095269 71.675758 
L 178.329834 71.124628 
L 178.554758 70.620348 
L 178.864662 69.947408 
L 179.222996 69.205469 
L 179.677739 68.294018 
L 179.974845 67.724148 
L 180.111407 67.474563 
L 180.294478 67.137241 
L 180.418024 66.897027 
L 180.584069 66.548631 
L 181.451407 64.926759 
L 181.623055 64.632028 
L 182.049478 63.855164 
L 182.170079 63.659245 
L 183.660321 61.326951 
L 183.966111 60.904447 
L 184.117159 60.696602 
L 184.312915 60.401871 
L 184.813045 59.713597 
L 184.960857 59.521937 
L 185.145856 59.253613 
L 185.29251 59.062804 
L 185.465245 58.836219 
L 185.572596 58.705038 
L 185.985967 58.149649 
L 186.115965 57.999728 
L 186.279314 57.809771 
L 186.636907 57.352342 
L 186.76501 57.210939 
L 187.66103 56.162344 
L 187.811342 56.008164 
L 187.987618 55.841207 
L 188.478485 55.348001 
L 188.652147 55.194673 
L 188.865146 55.00216 
L 192.105923 52.379395 
L 192.442208 52.163884 
L 196.974639 49.57008 
L 197.376729 49.383531 
L 197.496776 49.334125 
L 197.984392 49.114355 
L 203.270695 47.056349 
L 203.953943 46.8468 
L 204.405037 46.709656 
L 205.542341 46.42174 
L 205.857724 46.352742 
L 206.430764 46.204525 
L 206.726467 46.148305 
L 207.805695 45.918312 
L 208.881137 45.702801 
L 209.074753 45.661061 
L 215.05868 44.641428 
L 216.496628 44.473619 
L 232.572048 43.544279 
L 255.27443 43.281066 
L 270.900679 43.127738 
L 275.688096 43.00763 
L 300.398066 42.936077 
L 335.387125 42.931818 
L 335.387125 42.931818 
" style="fill:none;stroke:#c70d2c;stroke-dasharray:7.4,3.2;stroke-dashoffset:0;stroke-width:2;"/>
   </g>
   <g id="line2d_67">
    <path clip-path="url(#pfa8e56c863)" d="M 68.585227 231.568182 
L 72.854719 231.440408 
L 74.672499 231.074124 
L 75.450458 230.810059 
L 76.917229 230.097082 
L 78.133542 228.84916 
L 78.693909 227.600387 
L 80.471612 221.158044 
L 81.719406 214.521485 
L 82.681997 207.805707 
L 83.397291 199.498722 
L 84.483042 182.207552 
L 86.053971 152.864781 
L 87.401525 127.80583 
L 88.355251 112.573519 
L 89.64835 95.328347 
L 90.463839 86.720669 
L 91.208352 80.396729 
L 93.198974 68.160281 
L 95.423882 59.656525 
L 97.131081 56.060125 
L 98.817111 53.795978 
L 100.996039 51.789933 
L 101.53842 51.411723 
L 102.914356 50.553937 
L 103.582941 50.184245 
L 103.865968 50.051361 
L 106.518007 48.794921 
L 106.923537 48.625408 
L 108.784719 47.941394 
L 109.33139 47.746326 
L 112.1465 46.551217 
L 112.513395 46.408963 
L 114.181741 45.717282 
L 114.386302 45.632951 
L 115.692265 45.270926 
L 120.603516 44.439546 
L 151.997898 43.132849 
L 182.273851 42.982928 
L 326.31285 42.931818 
L 326.31285 42.931818 
" style="fill:none;stroke:#98b3be;stroke-dasharray:7.4,3.2;stroke-dashoffset:0;stroke-width:2;"/>
   </g>
   <g id="line2d_68">
    <path clip-path="url(#pfa8e56c863)" d="M 93.105749 231.568182 
L 97.682145 231.452334 
L 98.824847 231.100531 
L 100.22301 229.884978 
L 100.706636 229.034858 
L 101.146878 228.009262 
L 101.296973 227.63446 
L 101.630234 226.705972 
L 102.036515 225.379682 
L 103.760964 217.282246 
L 105.715 202.562732 
L 108.307374 176.41004 
L 109.598367 162.197361 
L 113.026498 128.852722 
L 113.531077 124.423238 
L 113.881716 121.597739 
L 115.590008 108.028187 
L 117.87138 94.336824 
L 118.597972 91.047081 
L 120.508974 83.832986 
L 120.866679 82.654914 
L 121.386262 80.99045 
L 121.976605 79.343875 
L 122.725174 77.55249 
L 122.827114 77.302905 
L 123.200301 76.492821 
L 125.656458 71.90575 
L 125.854035 71.60676 
L 127.019358 69.860522 
L 127.214367 69.594753 
L 128.352987 68.152615 
L 128.594839 67.870661 
L 129.984676 66.027315 
L 130.172622 65.821173 
L 130.397727 65.556256 
L 130.558667 65.390151 
L 130.842993 65.092012 
L 132.385265 63.321071 
L 132.581885 63.057005 
L 133.079207 62.400249 
L 133.49451 61.804825 
L 133.595608 61.654052 
L 133.950475 61.171068 
L 134.397298 60.542422 
L 134.590884 60.290282 
L 134.778509 60.067104 
L 134.964982 59.835408 
L 135.274024 59.47679 
L 135.589177 59.045768 
L 135.71341 58.854107 
L 135.978574 58.412011 
L 136.098961 58.253572 
L 136.322564 57.933286 
L 136.461764 57.764625 
L 136.756018 57.443487 
L 136.924153 57.261197 
L 137.36439 56.785027 
L 137.552979 56.592515 
L 137.864716 56.307154 
L 138.039603 56.147011 
L 138.221945 55.984313 
L 138.367455 55.853132 
L 138.5583 55.681064 
L 139.00037 55.31478 
L 139.254792 55.091602 
L 139.409682 54.974902 
L 139.59815 54.822426 
L 139.941664 54.566878 
L 140.405527 54.248296 
L 140.712828 54.031081 
L 141.205414 53.747424 
L 141.413557 53.612836 
L 141.934307 53.290846 
L 142.298767 53.094927 
L 143.434356 52.444134 
L 143.70733 52.289954 
L 143.946375 52.139181 
L 146.640301 50.706413 
L 146.849465 50.577788 
L 147.090367 50.43383 
L 151.141125 48.37412 
L 151.78765 48.128795 
L 152.25335 47.965245 
L 156.142104 46.591253 
L 158.386591 46.052048 
L 159.278831 45.887647 
L 160.708331 45.61847 
L 161.68944 45.431921 
L 163.617349 45.03923 
L 164.994656 44.727463 
L 166.250105 44.480434 
L 166.453558 44.431028 
L 175.712001 43.492318 
L 185.809559 43.191624 
L 213.251852 42.967595 
L 289.415738 42.931818 
L 289.415738 42.931818 
" style="fill:none;stroke:#1f3757;stroke-dasharray:7.4,3.2;stroke-dashoffset:0;stroke-width:2;"/>
   </g>
   <g id="patch_3">
    <path d="M 52.875 241 
L 52.875 33.5 
" style="fill:none;stroke:#000000;stroke-linecap:square;stroke-linejoin:miter;stroke-width:0.8;"/>
   </g>
   <g id="patch_4">
    <path d="M 398.5 241 
L 398.5 33.5 
" style="fill:none;stroke:#000000;stroke-linecap:square;stroke-linejoin:miter;stroke-width:0.8;"/>
   </g>
   <g id="patch_5">
    <path d="M 52.875 241 
L 398.5 241 
" style="fill:none;stroke:#000000;stroke-linecap:square;stroke-linejoin:miter;stroke-width:0.8;"/>
   </g>
   <g id="patch_6">
    <path d="M 52.875 33.5 
L 398.5 33.5 
" style="fill:none;stroke:#000000;stroke-linecap:square;stroke-linejoin:miter;stroke-width:0.8;"/>
   </g>
   <g id="text_14">
    <!-- Decision Time: All Requests (CDF) -->
    <defs>
     <path d="M 19.671875 64.796875 
L 19.671875 8.109375 
L 31.59375 8.109375 
Q 46.6875 8.109375 53.6875 14.9375 
Q 60.6875 21.78125 60.6875 36.53125 
Q 60.6875 51.171875 53.6875 57.984375 
Q 46.6875 64.796875 31.59375 64.796875 
z
M 9.8125 72.90625 
L 30.078125 72.90625 
Q 51.265625 72.90625 61.171875 64.09375 
Q 71.09375 55.28125 71.09375 36.53125 
Q 71.09375 17.671875 61.125 8.828125 
Q 51.171875 0 30.078125 0 
L 9.8125 0 
z
" id="DejaVuSans-68"/>
     <path d="M 11.71875 12.40625 
L 22.015625 12.40625 
L 22.015625 0 
L 11.71875 0 
z
M 11.71875 51.703125 
L 22.015625 51.703125 
L 22.015625 39.3125 
L 11.71875 39.3125 
z
" id="DejaVuSans-58"/>
     <path d="M 34.1875 63.1875 
L 20.796875 26.90625 
L 47.609375 26.90625 
z
M 28.609375 72.90625 
L 39.796875 72.90625 
L 67.578125 0 
L 57.328125 0 
L 50.6875 18.703125 
L 17.828125 18.703125 
L 11.1875 0 
L 0.78125 0 
z
" id="DejaVuSans-65"/>
     <path d="M 64.40625 67.28125 
L 64.40625 56.890625 
Q 59.421875 61.53125 53.78125 63.8125 
Q 48.140625 66.109375 41.796875 66.109375 
Q 29.296875 66.109375 22.65625 58.46875 
Q 16.015625 50.828125 16.015625 36.375 
Q 16.015625 21.96875 22.65625 14.328125 
Q 29.296875 6.6875 41.796875 6.6875 
Q 48.140625 6.6875 53.78125 8.984375 
Q 59.421875 11.28125 64.40625 15.921875 
L 64.40625 5.609375 
Q 59.234375 2.09375 53.4375 0.328125 
Q 47.65625 -1.421875 41.21875 -1.421875 
Q 24.65625 -1.421875 15.125 8.703125 
Q 5.609375 18.84375 5.609375 36.375 
Q 5.609375 53.953125 15.125 64.078125 
Q 24.65625 74.21875 41.21875 74.21875 
Q 47.75 74.21875 53.53125 72.484375 
Q 59.328125 70.75 64.40625 67.28125 
z
" id="DejaVuSans-67"/>
    </defs>
    <g transform="translate(123.485 27.5)scale(0.12 -0.12)">
     <use xlink:href="#DejaVuSans-68"/>
     <use x="77.001953" xlink:href="#DejaVuSans-101"/>
     <use x="138.525391" xlink:href="#DejaVuSans-99"/>
     <use x="193.505859" xlink:href="#DejaVuSans-105"/>
     <use x="221.289062" xlink:href="#DejaVuSans-115"/>
     <use x="273.388672" xlink:href="#DejaVuSans-105"/>
     <use x="301.171875" xlink:href="#DejaVuSans-111"/>
     <use x="362.353516" xlink:href="#DejaVuSans-110"/>
     <use x="425.732422" xlink:href="#DejaVuSans-32"/>
     <use x="457.519531" xlink:href="#DejaVuSans-84"/>
     <use x="518.556641" xlink:href="#DejaVuSans-105"/>
     <use x="546.339844" xlink:href="#DejaVuSans-109"/>
     <use x="643.751953" xlink:href="#DejaVuSans-101"/>
     <use x="705.275391" xlink:href="#DejaVuSans-58"/>
     <use x="738.966797" xlink:href="#DejaVuSans-32"/>
     <use x="770.753906" xlink:href="#DejaVuSans-65"/>
     <use x="839.162109" xlink:href="#DejaVuSans-108"/>
     <use x="866.945312" xlink:href="#DejaVuSans-108"/>
     <use x="894.728516" xlink:href="#DejaVuSans-32"/>
     <use x="926.515625" xlink:href="#DejaVuSans-82"/>
     <use x="995.935547" xlink:href="#DejaVuSans-101"/>
     <use x="1057.458984" xlink:href="#DejaVuSans-113"/>
     <use x="1120.935547" xlink:href="#DejaVuSans-117"/>
     <use x="1184.314453" xlink:href="#DejaVuSans-101"/>
     <use x="1245.837891" xlink:href="#DejaVuSans-115"/>
     <use x="1297.9375" xlink:href="#DejaVuSans-116"/>
     <use x="1337.146484" xlink:href="#DejaVuSans-115"/>
     <use x="1389.246094" xlink:href="#DejaVuSans-32"/>
     <use x="1421.033203" xlink:href="#DejaVuSans-40"/>
     <use x="1460.046875" xlink:href="#DejaVuSans-67"/>
     <use x="1529.871094" xlink:href="#DejaVuSans-68"/>
     <use x="1606.873047" xlink:href="#DejaVuSans-70"/>
     <use x="1664.392578" xlink:href="#DejaVuSans-41"/>
    </g>
   </g>
   <g id="legend_1">
    <g id="patch_7">
     <path d="M 290.071875 236 
L 391.5 236 
Q 393.5 236 393.5 234 
L 393.5 132.253125 
Q 393.5 130.253125 391.5 130.253125 
L 290.071875 130.253125 
Q 288.071875 130.253125 288.071875 132.253125 
L 288.071875 234 
Q 288.071875 236 290.071875 236 
z
" style="fill:#ffffff;opacity:0.8;stroke:#cccccc;stroke-linejoin:miter;"/>
    </g>
    <g id="line2d_69">
     <path d="M 292.071875 138.351563 
L 312.071875 138.351563 
" style="fill:none;stroke:#00aff0;stroke-dasharray:7.4,3.2;stroke-dashoffset:0;stroke-width:2;"/>
    </g>
    <g id="line2d_70"/>
    <g id="text_15">
     <!-- Ghostery -->
     <defs>
      <path d="M 59.515625 10.40625 
L 59.515625 29.984375 
L 43.40625 29.984375 
L 43.40625 38.09375 
L 69.28125 38.09375 
L 69.28125 6.78125 
Q 63.578125 2.734375 56.6875 0.65625 
Q 49.8125 -1.421875 42 -1.421875 
Q 24.90625 -1.421875 15.25 8.5625 
Q 5.609375 18.5625 5.609375 36.375 
Q 5.609375 54.25 15.25 64.234375 
Q 24.90625 74.21875 42 74.21875 
Q 49.125 74.21875 55.546875 72.453125 
Q 61.96875 70.703125 67.390625 67.28125 
L 67.390625 56.78125 
Q 61.921875 61.421875 55.765625 63.765625 
Q 49.609375 66.109375 42.828125 66.109375 
Q 29.4375 66.109375 22.71875 58.640625 
Q 16.015625 51.171875 16.015625 36.375 
Q 16.015625 21.625 22.71875 14.15625 
Q 29.4375 6.6875 42.828125 6.6875 
Q 48.046875 6.6875 52.140625 7.59375 
Q 56.25 8.5 59.515625 10.40625 
z
" id="DejaVuSans-71"/>
      <path d="M 54.890625 33.015625 
L 54.890625 0 
L 45.90625 0 
L 45.90625 32.71875 
Q 45.90625 40.484375 42.875 44.328125 
Q 39.84375 48.1875 33.796875 48.1875 
Q 26.515625 48.1875 22.3125 43.546875 
Q 18.109375 38.921875 18.109375 30.90625 
L 18.109375 0 
L 9.078125 0 
L 9.078125 75.984375 
L 18.109375 75.984375 
L 18.109375 46.1875 
Q 21.34375 51.125 25.703125 53.5625 
Q 30.078125 56 35.796875 56 
Q 45.21875 56 50.046875 50.171875 
Q 54.890625 44.34375 54.890625 33.015625 
z
" id="DejaVuSans-104"/>
      <path d="M 32.171875 -5.078125 
Q 28.375 -14.84375 24.75 -17.8125 
Q 21.140625 -20.796875 15.09375 -20.796875 
L 7.90625 -20.796875 
L 7.90625 -13.28125 
L 13.1875 -13.28125 
Q 16.890625 -13.28125 18.9375 -11.515625 
Q 21 -9.765625 23.484375 -3.21875 
L 25.09375 0.875 
L 2.984375 54.6875 
L 12.5 54.6875 
L 29.59375 11.921875 
L 46.6875 54.6875 
L 56.203125 54.6875 
z
" id="DejaVuSans-121"/>
     </defs>
     <g transform="translate(320.071875 141.851563)scale(0.1 -0.1)">
      <use xlink:href="#DejaVuSans-71"/>
      <use x="77.490234" xlink:href="#DejaVuSans-104"/>
      <use x="140.869141" xlink:href="#DejaVuSans-111"/>
      <use x="202.050781" xlink:href="#DejaVuSans-115"/>
      <use x="254.150391" xlink:href="#DejaVuSans-116"/>
      <use x="293.359375" xlink:href="#DejaVuSans-101"/>
      <use x="354.882812" xlink:href="#DejaVuSans-114"/>
      <use x="395.996094" xlink:href="#DejaVuSans-121"/>
     </g>
    </g>
    <g id="line2d_71">
     <path d="M 292.071875 153.029688 
L 312.071875 153.029688 
" style="fill:none;stroke:#800000;stroke-dasharray:7.4,3.2;stroke-dashoffset:0;stroke-width:2;"/>
    </g>
    <g id="line2d_72"/>
    <g id="text_16">
     <!-- uBlock Origin -->
     <defs>
      <path d="M 19.671875 34.8125 
L 19.671875 8.109375 
L 35.5 8.109375 
Q 43.453125 8.109375 47.28125 11.40625 
Q 51.125 14.703125 51.125 21.484375 
Q 51.125 28.328125 47.28125 31.5625 
Q 43.453125 34.8125 35.5 34.8125 
z
M 19.671875 64.796875 
L 19.671875 42.828125 
L 34.28125 42.828125 
Q 41.5 42.828125 45.03125 45.53125 
Q 48.578125 48.25 48.578125 53.8125 
Q 48.578125 59.328125 45.03125 62.0625 
Q 41.5 64.796875 34.28125 64.796875 
z
M 9.8125 72.90625 
L 35.015625 72.90625 
Q 46.296875 72.90625 52.390625 68.21875 
Q 58.5 63.53125 58.5 54.890625 
Q 58.5 48.1875 55.375 44.234375 
Q 52.25 40.28125 46.1875 39.3125 
Q 53.46875 37.75 57.5 32.78125 
Q 61.53125 27.828125 61.53125 20.40625 
Q 61.53125 10.640625 54.890625 5.3125 
Q 48.25 0 35.984375 0 
L 9.8125 0 
z
" id="DejaVuSans-66"/>
      <path d="M 9.078125 75.984375 
L 18.109375 75.984375 
L 18.109375 31.109375 
L 44.921875 54.6875 
L 56.390625 54.6875 
L 27.390625 29.109375 
L 57.625 0 
L 45.90625 0 
L 18.109375 26.703125 
L 18.109375 0 
L 9.078125 0 
z
" id="DejaVuSans-107"/>
      <path d="M 39.40625 66.21875 
Q 28.65625 66.21875 22.328125 58.203125 
Q 16.015625 50.203125 16.015625 36.375 
Q 16.015625 22.609375 22.328125 14.59375 
Q 28.65625 6.59375 39.40625 6.59375 
Q 50.140625 6.59375 56.421875 14.59375 
Q 62.703125 22.609375 62.703125 36.375 
Q 62.703125 50.203125 56.421875 58.203125 
Q 50.140625 66.21875 39.40625 66.21875 
z
M 39.40625 74.21875 
Q 54.734375 74.21875 63.90625 63.9375 
Q 73.09375 53.65625 73.09375 36.375 
Q 73.09375 19.140625 63.90625 8.859375 
Q 54.734375 -1.421875 39.40625 -1.421875 
Q 24.03125 -1.421875 14.8125 8.828125 
Q 5.609375 19.09375 5.609375 36.375 
Q 5.609375 53.65625 14.8125 63.9375 
Q 24.03125 74.21875 39.40625 74.21875 
z
" id="DejaVuSans-79"/>
     </defs>
     <g transform="translate(320.071875 156.529688)scale(0.1 -0.1)">
      <use xlink:href="#DejaVuSans-117"/>
      <use x="63.378906" xlink:href="#DejaVuSans-66"/>
      <use x="131.982422" xlink:href="#DejaVuSans-108"/>
      <use x="159.765625" xlink:href="#DejaVuSans-111"/>
      <use x="220.947266" xlink:href="#DejaVuSans-99"/>
      <use x="275.927734" xlink:href="#DejaVuSans-107"/>
      <use x="333.837891" xlink:href="#DejaVuSans-32"/>
      <use x="365.625" xlink:href="#DejaVuSans-79"/>
      <use x="444.335938" xlink:href="#DejaVuSans-114"/>
      <use x="485.449219" xlink:href="#DejaVuSans-105"/>
      <use x="513.232422" xlink:href="#DejaVuSans-103"/>
      <use x="576.708984" xlink:href="#DejaVuSans-105"/>
      <use x="604.492188" xlink:href="#DejaVuSans-110"/>
     </g>
    </g>
    <g id="line2d_73">
     <path d="M 292.071875 167.707813 
L 312.071875 167.707813 
" style="fill:none;stroke:#ff5500;stroke-dasharray:7.4,3.2;stroke-dashoffset:0;stroke-width:2;"/>
    </g>
    <g id="line2d_74"/>
    <g id="text_17">
     <!-- Brave -->
     <defs>
      <path d="M 2.984375 54.6875 
L 12.5 54.6875 
L 29.59375 8.796875 
L 46.6875 54.6875 
L 56.203125 54.6875 
L 35.6875 0 
L 23.484375 0 
z
" id="DejaVuSans-118"/>
     </defs>
     <g transform="translate(320.071875 171.207813)scale(0.1 -0.1)">
      <use xlink:href="#DejaVuSans-66"/>
      <use x="68.603516" xlink:href="#DejaVuSans-114"/>
      <use x="109.716797" xlink:href="#DejaVuSans-97"/>
      <use x="170.996094" xlink:href="#DejaVuSans-118"/>
      <use x="230.175781" xlink:href="#DejaVuSans-101"/>
     </g>
    </g>
    <g id="line2d_75">
     <path d="M 292.071875 182.385938 
L 312.071875 182.385938 
" style="fill:none;stroke:#58b792;stroke-dasharray:7.4,3.2;stroke-dashoffset:0;stroke-width:2;"/>
    </g>
    <g id="line2d_76"/>
    <g id="text_18">
     <!-- DuckDuckGo -->
     <g transform="translate(320.071875 185.885938)scale(0.1 -0.1)">
      <use xlink:href="#DejaVuSans-68"/>
      <use x="77.001953" xlink:href="#DejaVuSans-117"/>
      <use x="140.380859" xlink:href="#DejaVuSans-99"/>
      <use x="195.361328" xlink:href="#DejaVuSans-107"/>
      <use x="253.271484" xlink:href="#DejaVuSans-68"/>
      <use x="330.273438" xlink:href="#DejaVuSans-117"/>
      <use x="393.652344" xlink:href="#DejaVuSans-99"/>
      <use x="448.632812" xlink:href="#DejaVuSans-107"/>
      <use x="506.542969" xlink:href="#DejaVuSans-71"/>
      <use x="584.033203" xlink:href="#DejaVuSans-111"/>
     </g>
    </g>
    <g id="line2d_77">
     <path d="M 292.071875 197.064063 
L 312.071875 197.064063 
" style="fill:none;stroke:#c70d2c;stroke-dasharray:7.4,3.2;stroke-dashoffset:0;stroke-width:2;"/>
    </g>
    <g id="line2d_78"/>
    <g id="text_19">
     <!-- Adblock Plus -->
     <defs>
      <path d="M 45.40625 46.390625 
L 45.40625 75.984375 
L 54.390625 75.984375 
L 54.390625 0 
L 45.40625 0 
L 45.40625 8.203125 
Q 42.578125 3.328125 38.25 0.953125 
Q 33.9375 -1.421875 27.875 -1.421875 
Q 17.96875 -1.421875 11.734375 6.484375 
Q 5.515625 14.40625 5.515625 27.296875 
Q 5.515625 40.1875 11.734375 48.09375 
Q 17.96875 56 27.875 56 
Q 33.9375 56 38.25 53.625 
Q 42.578125 51.265625 45.40625 46.390625 
z
M 14.796875 27.296875 
Q 14.796875 17.390625 18.875 11.75 
Q 22.953125 6.109375 30.078125 6.109375 
Q 37.203125 6.109375 41.296875 11.75 
Q 45.40625 17.390625 45.40625 27.296875 
Q 45.40625 37.203125 41.296875 42.84375 
Q 37.203125 48.484375 30.078125 48.484375 
Q 22.953125 48.484375 18.875 42.84375 
Q 14.796875 37.203125 14.796875 27.296875 
z
" id="DejaVuSans-100"/>
      <path d="M 19.671875 64.796875 
L 19.671875 37.40625 
L 32.078125 37.40625 
Q 38.96875 37.40625 42.71875 40.96875 
Q 46.484375 44.53125 46.484375 51.125 
Q 46.484375 57.671875 42.71875 61.234375 
Q 38.96875 64.796875 32.078125 64.796875 
z
M 9.8125 72.90625 
L 32.078125 72.90625 
Q 44.34375 72.90625 50.609375 67.359375 
Q 56.890625 61.8125 56.890625 51.125 
Q 56.890625 40.328125 50.609375 34.8125 
Q 44.34375 29.296875 32.078125 29.296875 
L 19.671875 29.296875 
L 19.671875 0 
L 9.8125 0 
z
" id="DejaVuSans-80"/>
     </defs>
     <g transform="translate(320.071875 200.564063)scale(0.1 -0.1)">
      <use xlink:href="#DejaVuSans-65"/>
      <use x="68.392578" xlink:href="#DejaVuSans-100"/>
      <use x="131.869141" xlink:href="#DejaVuSans-98"/>
      <use x="195.345703" xlink:href="#DejaVuSans-108"/>
      <use x="223.128906" xlink:href="#DejaVuSans-111"/>
      <use x="284.310547" xlink:href="#DejaVuSans-99"/>
      <use x="339.291016" xlink:href="#DejaVuSans-107"/>
      <use x="397.201172" xlink:href="#DejaVuSans-32"/>
      <use x="428.988281" xlink:href="#DejaVuSans-80"/>
      <use x="489.291016" xlink:href="#DejaVuSans-108"/>
      <use x="517.074219" xlink:href="#DejaVuSans-117"/>
      <use x="580.453125" xlink:href="#DejaVuSans-115"/>
     </g>
    </g>
    <g id="line2d_79">
     <path d="M 292.071875 211.742188 
L 312.071875 211.742188 
" style="fill:none;stroke:#98b3be;stroke-dasharray:7.4,3.2;stroke-dashoffset:0;stroke-width:2;"/>
    </g>
    <g id="line2d_80"/>
    <g id="text_20">
     <!-- Tldts baseline -->
     <g transform="translate(320.071875 215.242188)scale(0.1 -0.1)">
      <use xlink:href="#DejaVuSans-84"/>
      <use x="61.083984" xlink:href="#DejaVuSans-108"/>
      <use x="88.867188" xlink:href="#DejaVuSans-100"/>
      <use x="152.34375" xlink:href="#DejaVuSans-116"/>
      <use x="191.552734" xlink:href="#DejaVuSans-115"/>
      <use x="243.652344" xlink:href="#DejaVuSans-32"/>
      <use x="275.439453" xlink:href="#DejaVuSans-98"/>
      <use x="338.916016" xlink:href="#DejaVuSans-97"/>
      <use x="400.195312" xlink:href="#DejaVuSans-115"/>
      <use x="452.294922" xlink:href="#DejaVuSans-101"/>
      <use x="513.818359" xlink:href="#DejaVuSans-108"/>
      <use x="541.601562" xlink:href="#DejaVuSans-105"/>
      <use x="569.384766" xlink:href="#DejaVuSans-110"/>
      <use x="632.763672" xlink:href="#DejaVuSans-101"/>
     </g>
    </g>
    <g id="line2d_81">
     <path d="M 292.071875 226.420313 
L 312.071875 226.420313 
" style="fill:none;stroke:#1f3757;stroke-dasharray:7.4,3.2;stroke-dashoffset:0;stroke-width:2;"/>
    </g>
    <g id="line2d_82"/>
    <g id="text_21">
     <!-- URL baseline -->
     <defs>
      <path d="M 8.6875 72.90625 
L 18.609375 72.90625 
L 18.609375 28.609375 
Q 18.609375 16.890625 22.84375 11.734375 
Q 27.09375 6.59375 36.625 6.59375 
Q 46.09375 6.59375 50.34375 11.734375 
Q 54.59375 16.890625 54.59375 28.609375 
L 54.59375 72.90625 
L 64.5 72.90625 
L 64.5 27.390625 
Q 64.5 13.140625 57.4375 5.859375 
Q 50.390625 -1.421875 36.625 -1.421875 
Q 22.796875 -1.421875 15.734375 5.859375 
Q 8.6875 13.140625 8.6875 27.390625 
z
" id="DejaVuSans-85"/>
      <path d="M 9.8125 72.90625 
L 19.671875 72.90625 
L 19.671875 8.296875 
L 55.171875 8.296875 
L 55.171875 0 
L 9.8125 0 
z
" id="DejaVuSans-76"/>
     </defs>
     <g transform="translate(320.071875 229.920313)scale(0.1 -0.1)">
      <use xlink:href="#DejaVuSans-85"/>
      <use x="73.193359" xlink:href="#DejaVuSans-82"/>
      <use x="142.675781" xlink:href="#DejaVuSans-76"/>
      <use x="198.388672" xlink:href="#DejaVuSans-32"/>
      <use x="230.175781" xlink:href="#DejaVuSans-98"/>
      <use x="293.652344" xlink:href="#DejaVuSans-97"/>
      <use x="354.931641" xlink:href="#DejaVuSans-115"/>
      <use x="407.03125" xlink:href="#DejaVuSans-101"/>
      <use x="468.554688" xlink:href="#DejaVuSans-108"/>
      <use x="496.337891" xlink:href="#DejaVuSans-105"/>
      <use x="524.121094" xlink:href="#DejaVuSans-110"/>
      <use x="587.5" xlink:href="#DejaVuSans-101"/>
     </g>
    </g>
   </g>
  </g>
 </g>
 <defs>
  <clipPath id="pfa8e56c863">
   <rect height="207.5" width="345.625" x="52.875" y="33.5"/>
  </clipPath>
 </defs>
</svg>
