<?xml version="1.0" encoding="utf-8" standalone="no"?>
<!DOCTYPE svg PUBLIC "-//W3C//DTD SVG 1.1//EN"
  "http://www.w3.org/Graphics/SVG/1.1/DTD/svg11.dtd">
<!-- Created with matplotlib (https://matplotlib.org/) -->
<svg height="288pt" version="1.1" viewBox="0 0 432 288" width="432pt" xmlns="http://www.w3.org/2000/svg" xmlns:xlink="http://www.w3.org/1999/xlink">
 <defs>
  <style type="text/css">
*{stroke-linecap:butt;stroke-linejoin:round;}
  </style>
 </defs>
 <g id="figure_1">
  <g id="patch_1">
   <path d="M 0 288 
L 432 288 
L 432 0 
L 0 0 
z
" style="fill:#ffffff;"/>
  </g>
  <g id="axes_1">
   <g id="patch_2">
    <path d="M 52.875 241 
L 398.5 241 
L 398.5 33.5 
L 52.875 33.5 
z
" style="fill:#ffffff;"/>
   </g>
   <g id="matplotlib.axis_1">
    <g id="xtick_1">
     <g id="line2d_1">
      <path clip-path="url(#pc70d0dca0c)" d="M 99.942336 241 
L 99.942336 33.5 
" style="fill:none;stroke:#b0b0b0;stroke-dasharray:3.7,1.6;stroke-dashoffset:0;"/>
     </g>
     <g id="line2d_2">
      <defs>
       <path d="M 0 0 
L 0 3.5 
" id="m0df51b32e1" style="stroke:#000000;stroke-width:0.8;"/>
      </defs>
      <g>
       <use style="stroke:#000000;stroke-width:0.8;" x="99.942336" xlink:href="#m0df51b32e1" y="241"/>
      </g>
     </g>
     <g id="text_1">
      <!-- $\mathdefault{10^{-2}}$ -->
      <defs>
       <path d="M 12.40625 8.296875 
L 28.515625 8.296875 
L 28.515625 63.921875 
L 10.984375 60.40625 
L 10.984375 69.390625 
L 28.421875 72.90625 
L 38.28125 72.90625 
L 38.28125 8.296875 
L 54.390625 8.296875 
L 54.390625 0 
L 12.40625 0 
z
" id="DejaVuSans-49"/>
       <path d="M 31.78125 66.40625 
Q 24.171875 66.40625 20.328125 58.90625 
Q 16.5 51.421875 16.5 36.375 
Q 16.5 21.390625 20.328125 13.890625 
Q 24.171875 6.390625 31.78125 6.390625 
Q 39.453125 6.390625 43.28125 13.890625 
Q 47.125 21.390625 47.125 36.375 
Q 47.125 51.421875 43.28125 58.90625 
Q 39.453125 66.40625 31.78125 66.40625 
z
M 31.78125 74.21875 
Q 44.046875 74.21875 50.515625 64.515625 
Q 56.984375 54.828125 56.984375 36.375 
Q 56.984375 17.96875 50.515625 8.265625 
Q 44.046875 -1.421875 31.78125 -1.421875 
Q 19.53125 -1.421875 13.0625 8.265625 
Q 6.59375 17.96875 6.59375 36.375 
Q 6.59375 54.828125 13.0625 64.515625 
Q 19.53125 74.21875 31.78125 74.21875 
z
" id="DejaVuSans-48"/>
       <path d="M 10.59375 35.5 
L 73.1875 35.5 
L 73.1875 27.203125 
L 10.59375 27.203125 
z
" id="DejaVuSans-8722"/>
       <path d="M 19.1875 8.296875 
L 53.609375 8.296875 
L 53.609375 0 
L 7.328125 0 
L 7.328125 8.296875 
Q 12.9375 14.109375 22.625 23.890625 
Q 32.328125 33.6875 34.8125 36.53125 
Q 39.546875 41.84375 41.421875 45.53125 
Q 43.3125 49.21875 43.3125 52.78125 
Q 43.3125 58.59375 39.234375 62.25 
Q 35.15625 65.921875 28.609375 65.921875 
Q 23.96875 65.921875 18.8125 64.3125 
Q 13.671875 62.703125 7.8125 59.421875 
L 7.8125 69.390625 
Q 13.765625 71.78125 18.9375 73 
Q 24.125 74.21875 28.421875 74.21875 
Q 39.75 74.21875 46.484375 68.546875 
Q 53.21875 62.890625 53.21875 53.421875 
Q 53.21875 48.921875 51.53125 44.890625 
Q 49.859375 40.875 45.40625 35.40625 
Q 44.1875 33.984375 37.640625 27.21875 
Q 31.109375 20.453125 19.1875 8.296875 
z
" id="DejaVuSans-50"/>
      </defs>
      <g transform="translate(88.192336 255.598438)scale(0.1 -0.1)">
       <use transform="translate(0 0.765625)" xlink:href="#DejaVuSans-49"/>
       <use transform="translate(63.623047 0.765625)" xlink:href="#DejaVuSans-48"/>
       <use transform="translate(128.203125 39.046875)scale(0.7)" xlink:href="#DejaVuSans-8722"/>
       <use transform="translate(186.855469 39.046875)scale(0.7)" xlink:href="#DejaVuSans-50"/>
      </g>
     </g>
    </g>
    <g id="xtick_2">
     <g id="line2d_3">
      <path clip-path="url(#pc70d0dca0c)" d="M 180.48151 241 
L 180.48151 33.5 
" style="fill:none;stroke:#b0b0b0;stroke-dasharray:3.7,1.6;stroke-dashoffset:0;"/>
     </g>
     <g id="line2d_4">
      <g>
       <use style="stroke:#000000;stroke-width:0.8;" x="180.48151" xlink:href="#m0df51b32e1" y="241"/>
      </g>
     </g>
     <g id="text_2">
      <!-- $\mathdefault{10^{-1}}$ -->
      <g transform="translate(168.73151 255.598438)scale(0.1 -0.1)">
       <use transform="translate(0 0.684375)" xlink:href="#DejaVuSans-49"/>
       <use transform="translate(63.623047 0.684375)" xlink:href="#DejaVuSans-48"/>
       <use transform="translate(128.203125 38.965625)scale(0.7)" xlink:href="#DejaVuSans-8722"/>
       <use transform="translate(186.855469 38.965625)scale(0.7)" xlink:href="#DejaVuSans-49"/>
      </g>
     </g>
    </g>
    <g id="xtick_3">
     <g id="line2d_5">
      <path clip-path="url(#pc70d0dca0c)" d="M 261.020684 241 
L 261.020684 33.5 
" style="fill:none;stroke:#b0b0b0;stroke-dasharray:3.7,1.6;stroke-dashoffset:0;"/>
     </g>
     <g id="line2d_6">
      <g>
       <use style="stroke:#000000;stroke-width:0.8;" x="261.020684" xlink:href="#m0df51b32e1" y="241"/>
      </g>
     </g>
     <g id="text_3">
      <!-- $\mathdefault{10^{0}}$ -->
      <g transform="translate(252.220684 255.598438)scale(0.1 -0.1)">
       <use transform="translate(0 0.765625)" xlink:href="#DejaVuSans-49"/>
       <use transform="translate(63.623047 0.765625)" xlink:href="#DejaVuSans-48"/>
       <use transform="translate(128.203125 39.046875)scale(0.7)" xlink:href="#DejaVuSans-48"/>
      </g>
     </g>
    </g>
    <g id="xtick_4">
     <g id="line2d_7">
      <path clip-path="url(#pc70d0dca0c)" d="M 341.559858 241 
L 341.559858 33.5 
" style="fill:none;stroke:#b0b0b0;stroke-dasharray:3.7,1.6;stroke-dashoffset:0;"/>
     </g>
     <g id="line2d_8">
      <g>
       <use style="stroke:#000000;stroke-width:0.8;" x="341.559858" xlink:href="#m0df51b32e1" y="241"/>
      </g>
     </g>
     <g id="text_4">
      <!-- $\mathdefault{10^{1}}$ -->
      <g transform="translate(332.759858 255.598438)scale(0.1 -0.1)">
       <use transform="translate(0 0.684375)" xlink:href="#DejaVuSans-49"/>
       <use transform="translate(63.623047 0.684375)" xlink:href="#DejaVuSans-48"/>
       <use transform="translate(128.203125 38.965625)scale(0.7)" xlink:href="#DejaVuSans-49"/>
      </g>
     </g>
    </g>
    <g id="xtick_5">
     <g id="line2d_9">
      <defs>
       <path d="M 0 0 
L 0 2 
" id="m9463e08e58" style="stroke:#000000;stroke-width:0.6;"/>
      </defs>
      <g>
       <use style="stroke:#000000;stroke-width:0.6;" x="57.830114" xlink:href="#m9463e08e58" y="241"/>
      </g>
     </g>
    </g>
    <g id="xtick_6">
     <g id="line2d_10">
      <g>
       <use style="stroke:#000000;stroke-width:0.6;" x="67.892577" xlink:href="#m9463e08e58" y="241"/>
      </g>
     </g>
    </g>
    <g id="xtick_7">
     <g id="line2d_11">
      <g>
       <use style="stroke:#000000;stroke-width:0.6;" x="75.697629" xlink:href="#m9463e08e58" y="241"/>
      </g>
     </g>
    </g>
    <g id="xtick_8">
     <g id="line2d_12">
      <g>
       <use style="stroke:#000000;stroke-width:0.6;" x="82.074821" xlink:href="#m9463e08e58" y="241"/>
      </g>
     </g>
    </g>
    <g id="xtick_9">
     <g id="line2d_13">
      <g>
       <use style="stroke:#000000;stroke-width:0.6;" x="87.46666" xlink:href="#m9463e08e58" y="241"/>
      </g>
     </g>
    </g>
    <g id="xtick_10">
     <g id="line2d_14">
      <g>
       <use style="stroke:#000000;stroke-width:0.6;" x="92.137284" xlink:href="#m9463e08e58" y="241"/>
      </g>
     </g>
    </g>
    <g id="xtick_11">
     <g id="line2d_15">
      <g>
       <use style="stroke:#000000;stroke-width:0.6;" x="96.257066" xlink:href="#m9463e08e58" y="241"/>
      </g>
     </g>
    </g>
    <g id="xtick_12">
     <g id="line2d_16">
      <g>
       <use style="stroke:#000000;stroke-width:0.6;" x="124.187043" xlink:href="#m9463e08e58" y="241"/>
      </g>
     </g>
    </g>
    <g id="xtick_13">
     <g id="line2d_17">
      <g>
       <use style="stroke:#000000;stroke-width:0.6;" x="138.369288" xlink:href="#m9463e08e58" y="241"/>
      </g>
     </g>
    </g>
    <g id="xtick_14">
     <g id="line2d_18">
      <g>
       <use style="stroke:#000000;stroke-width:0.6;" x="148.43175" xlink:href="#m9463e08e58" y="241"/>
      </g>
     </g>
    </g>
    <g id="xtick_15">
     <g id="line2d_19">
      <g>
       <use style="stroke:#000000;stroke-width:0.6;" x="156.236803" xlink:href="#m9463e08e58" y="241"/>
      </g>
     </g>
    </g>
    <g id="xtick_16">
     <g id="line2d_20">
      <g>
       <use style="stroke:#000000;stroke-width:0.6;" x="162.613995" xlink:href="#m9463e08e58" y="241"/>
      </g>
     </g>
    </g>
    <g id="xtick_17">
     <g id="line2d_21">
      <g>
       <use style="stroke:#000000;stroke-width:0.6;" x="168.005834" xlink:href="#m9463e08e58" y="241"/>
      </g>
     </g>
    </g>
    <g id="xtick_18">
     <g id="line2d_22">
      <g>
       <use style="stroke:#000000;stroke-width:0.6;" x="172.676458" xlink:href="#m9463e08e58" y="241"/>
      </g>
     </g>
    </g>
    <g id="xtick_19">
     <g id="line2d_23">
      <g>
       <use style="stroke:#000000;stroke-width:0.6;" x="176.796239" xlink:href="#m9463e08e58" y="241"/>
      </g>
     </g>
    </g>
    <g id="xtick_20">
     <g id="line2d_24">
      <g>
       <use style="stroke:#000000;stroke-width:0.6;" x="204.726217" xlink:href="#m9463e08e58" y="241"/>
      </g>
     </g>
    </g>
    <g id="xtick_21">
     <g id="line2d_25">
      <g>
       <use style="stroke:#000000;stroke-width:0.6;" x="218.908462" xlink:href="#m9463e08e58" y="241"/>
      </g>
     </g>
    </g>
    <g id="xtick_22">
     <g id="line2d_26">
      <g>
       <use style="stroke:#000000;stroke-width:0.6;" x="228.970924" xlink:href="#m9463e08e58" y="241"/>
      </g>
     </g>
    </g>
    <g id="xtick_23">
     <g id="line2d_27">
      <g>
       <use style="stroke:#000000;stroke-width:0.6;" x="236.775977" xlink:href="#m9463e08e58" y="241"/>
      </g>
     </g>
    </g>
    <g id="xtick_24">
     <g id="line2d_28">
      <g>
       <use style="stroke:#000000;stroke-width:0.6;" x="243.153169" xlink:href="#m9463e08e58" y="241"/>
      </g>
     </g>
    </g>
    <g id="xtick_25">
     <g id="line2d_29">
      <g>
       <use style="stroke:#000000;stroke-width:0.6;" x="248.545008" xlink:href="#m9463e08e58" y="241"/>
      </g>
     </g>
    </g>
    <g id="xtick_26">
     <g id="line2d_30">
      <g>
       <use style="stroke:#000000;stroke-width:0.6;" x="253.215631" xlink:href="#m9463e08e58" y="241"/>
      </g>
     </g>
    </g>
    <g id="xtick_27">
     <g id="line2d_31">
      <g>
       <use style="stroke:#000000;stroke-width:0.6;" x="257.335413" xlink:href="#m9463e08e58" y="241"/>
      </g>
     </g>
    </g>
    <g id="xtick_28">
     <g id="line2d_32">
      <g>
       <use style="stroke:#000000;stroke-width:0.6;" x="285.265391" xlink:href="#m9463e08e58" y="241"/>
      </g>
     </g>
    </g>
    <g id="xtick_29">
     <g id="line2d_33">
      <g>
       <use style="stroke:#000000;stroke-width:0.6;" x="299.447635" xlink:href="#m9463e08e58" y="241"/>
      </g>
     </g>
    </g>
    <g id="xtick_30">
     <g id="line2d_34">
      <g>
       <use style="stroke:#000000;stroke-width:0.6;" x="309.510098" xlink:href="#m9463e08e58" y="241"/>
      </g>
     </g>
    </g>
    <g id="xtick_31">
     <g id="line2d_35">
      <g>
       <use style="stroke:#000000;stroke-width:0.6;" x="317.31515" xlink:href="#m9463e08e58" y="241"/>
      </g>
     </g>
    </g>
    <g id="xtick_32">
     <g id="line2d_36">
      <g>
       <use style="stroke:#000000;stroke-width:0.6;" x="323.692343" xlink:href="#m9463e08e58" y="241"/>
      </g>
     </g>
    </g>
    <g id="xtick_33">
     <g id="line2d_37">
      <g>
       <use style="stroke:#000000;stroke-width:0.6;" x="329.084182" xlink:href="#m9463e08e58" y="241"/>
      </g>
     </g>
    </g>
    <g id="xtick_34">
     <g id="line2d_38">
      <g>
       <use style="stroke:#000000;stroke-width:0.6;" x="333.754805" xlink:href="#m9463e08e58" y="241"/>
      </g>
     </g>
    </g>
    <g id="xtick_35">
     <g id="line2d_39">
      <g>
       <use style="stroke:#000000;stroke-width:0.6;" x="337.874587" xlink:href="#m9463e08e58" y="241"/>
      </g>
     </g>
    </g>
    <g id="xtick_36">
     <g id="line2d_40">
      <g>
       <use style="stroke:#000000;stroke-width:0.6;" x="365.804565" xlink:href="#m9463e08e58" y="241"/>
      </g>
     </g>
    </g>
    <g id="xtick_37">
     <g id="line2d_41">
      <g>
       <use style="stroke:#000000;stroke-width:0.6;" x="379.986809" xlink:href="#m9463e08e58" y="241"/>
      </g>
     </g>
    </g>
    <g id="xtick_38">
     <g id="line2d_42">
      <g>
       <use style="stroke:#000000;stroke-width:0.6;" x="390.049272" xlink:href="#m9463e08e58" y="241"/>
      </g>
     </g>
    </g>
    <g id="xtick_39">
     <g id="line2d_43">
      <g>
       <use style="stroke:#000000;stroke-width:0.6;" x="397.854324" xlink:href="#m9463e08e58" y="241"/>
      </g>
     </g>
    </g>
    <g id="text_5">
     <!-- Time (ms)  -->
     <defs>
      <path d="M -0.296875 72.90625 
L 61.375 72.90625 
L 61.375 64.59375 
L 35.5 64.59375 
L 35.5 0 
L 25.59375 0 
L 25.59375 64.59375 
L -0.296875 64.59375 
z
" id="DejaVuSans-84"/>
      <path d="M 9.421875 54.6875 
L 18.40625 54.6875 
L 18.40625 0 
L 9.421875 0 
z
M 9.421875 75.984375 
L 18.40625 75.984375 
L 18.40625 64.59375 
L 9.421875 64.59375 
z
" id="DejaVuSans-105"/>
      <path d="M 52 44.1875 
Q 55.375 50.25 60.0625 53.125 
Q 64.75 56 71.09375 56 
Q 79.640625 56 84.28125 50.015625 
Q 88.921875 44.046875 88.921875 33.015625 
L 88.921875 0 
L 79.890625 0 
L 79.890625 32.71875 
Q 79.890625 40.578125 77.09375 44.375 
Q 74.3125 48.1875 68.609375 48.1875 
Q 61.625 48.1875 57.5625 43.546875 
Q 53.515625 38.921875 53.515625 30.90625 
L 53.515625 0 
L 44.484375 0 
L 44.484375 32.71875 
Q 44.484375 40.625 41.703125 44.40625 
Q 38.921875 48.1875 33.109375 48.1875 
Q 26.21875 48.1875 22.15625 43.53125 
Q 18.109375 38.875 18.109375 30.90625 
L 18.109375 0 
L 9.078125 0 
L 9.078125 54.6875 
L 18.109375 54.6875 
L 18.109375 46.1875 
Q 21.1875 51.21875 25.484375 53.609375 
Q 29.78125 56 35.6875 56 
Q 41.65625 56 45.828125 52.96875 
Q 50 49.953125 52 44.1875 
z
" id="DejaVuSans-109"/>
      <path d="M 56.203125 29.59375 
L 56.203125 25.203125 
L 14.890625 25.203125 
Q 15.484375 15.921875 20.484375 11.0625 
Q 25.484375 6.203125 34.421875 6.203125 
Q 39.59375 6.203125 44.453125 7.46875 
Q 49.3125 8.734375 54.109375 11.28125 
L 54.109375 2.78125 
Q 49.265625 0.734375 44.1875 -0.34375 
Q 39.109375 -1.421875 33.890625 -1.421875 
Q 20.796875 -1.421875 13.15625 6.1875 
Q 5.515625 13.8125 5.515625 26.8125 
Q 5.515625 40.234375 12.765625 48.109375 
Q 20.015625 56 32.328125 56 
Q 43.359375 56 49.78125 48.890625 
Q 56.203125 41.796875 56.203125 29.59375 
z
M 47.21875 32.234375 
Q 47.125 39.59375 43.09375 43.984375 
Q 39.0625 48.390625 32.421875 48.390625 
Q 24.90625 48.390625 20.390625 44.140625 
Q 15.875 39.890625 15.1875 32.171875 
z
" id="DejaVuSans-101"/>
      <path id="DejaVuSans-32"/>
      <path d="M 31 75.875 
Q 24.46875 64.65625 21.28125 53.65625 
Q 18.109375 42.671875 18.109375 31.390625 
Q 18.109375 20.125 21.3125 9.0625 
Q 24.515625 -2 31 -13.1875 
L 23.1875 -13.1875 
Q 15.875 -1.703125 12.234375 9.375 
Q 8.59375 20.453125 8.59375 31.390625 
Q 8.59375 42.28125 12.203125 53.3125 
Q 15.828125 64.359375 23.1875 75.875 
z
" id="DejaVuSans-40"/>
      <path d="M 44.28125 53.078125 
L 44.28125 44.578125 
Q 40.484375 46.53125 36.375 47.5 
Q 32.28125 48.484375 27.875 48.484375 
Q 21.1875 48.484375 17.84375 46.4375 
Q 14.5 44.390625 14.5 40.28125 
Q 14.5 37.15625 16.890625 35.375 
Q 19.28125 33.59375 26.515625 31.984375 
L 29.59375 31.296875 
Q 39.15625 29.25 43.1875 25.515625 
Q 47.21875 21.78125 47.21875 15.09375 
Q 47.21875 7.46875 41.1875 3.015625 
Q 35.15625 -1.421875 24.609375 -1.421875 
Q 20.21875 -1.421875 15.453125 -0.5625 
Q 10.6875 0.296875 5.421875 2 
L 5.421875 11.28125 
Q 10.40625 8.6875 15.234375 7.390625 
Q 20.0625 6.109375 24.8125 6.109375 
Q 31.15625 6.109375 34.5625 8.28125 
Q 37.984375 10.453125 37.984375 14.40625 
Q 37.984375 18.0625 35.515625 20.015625 
Q 33.0625 21.96875 24.703125 23.78125 
L 21.578125 24.515625 
Q 13.234375 26.265625 9.515625 29.90625 
Q 5.8125 33.546875 5.8125 39.890625 
Q 5.8125 47.609375 11.28125 51.796875 
Q 16.75 56 26.8125 56 
Q 31.78125 56 36.171875 55.265625 
Q 40.578125 54.546875 44.28125 53.078125 
z
" id="DejaVuSans-115"/>
      <path d="M 8.015625 75.875 
L 15.828125 75.875 
Q 23.140625 64.359375 26.78125 53.3125 
Q 30.421875 42.28125 30.421875 31.390625 
Q 30.421875 20.453125 26.78125 9.375 
Q 23.140625 -1.703125 15.828125 -13.1875 
L 8.015625 -13.1875 
Q 14.5 -2 17.703125 9.0625 
Q 20.90625 20.125 20.90625 31.390625 
Q 20.90625 42.671875 17.703125 53.65625 
Q 14.5 64.65625 8.015625 75.875 
z
" id="DejaVuSans-41"/>
     </defs>
     <g transform="translate(198.745313 269.276563)scale(0.1 -0.1)">
      <use xlink:href="#DejaVuSans-84"/>
      <use x="61.037109" xlink:href="#DejaVuSans-105"/>
      <use x="88.820312" xlink:href="#DejaVuSans-109"/>
      <use x="186.232422" xlink:href="#DejaVuSans-101"/>
      <use x="247.755859" xlink:href="#DejaVuSans-32"/>
      <use x="279.542969" xlink:href="#DejaVuSans-40"/>
      <use x="318.556641" xlink:href="#DejaVuSans-109"/>
      <use x="415.96875" xlink:href="#DejaVuSans-115"/>
      <use x="468.068359" xlink:href="#DejaVuSans-41"/>
      <use x="507.082031" xlink:href="#DejaVuSans-32"/>
     </g>
     <!--  log (base 10) -->
     <defs>
      <path d="M 9.421875 75.984375 
L 18.40625 75.984375 
L 18.40625 0 
L 9.421875 0 
z
" id="DejaVuSans-108"/>
      <path d="M 30.609375 48.390625 
Q 23.390625 48.390625 19.1875 42.75 
Q 14.984375 37.109375 14.984375 27.296875 
Q 14.984375 17.484375 19.15625 11.84375 
Q 23.34375 6.203125 30.609375 6.203125 
Q 37.796875 6.203125 41.984375 11.859375 
Q 46.1875 17.53125 46.1875 27.296875 
Q 46.1875 37.015625 41.984375 42.703125 
Q 37.796875 48.390625 30.609375 48.390625 
z
M 30.609375 56 
Q 42.328125 56 49.015625 48.375 
Q 55.71875 40.765625 55.71875 27.296875 
Q 55.71875 13.875 49.015625 6.21875 
Q 42.328125 -1.421875 30.609375 -1.421875 
Q 18.84375 -1.421875 12.171875 6.21875 
Q 5.515625 13.875 5.515625 27.296875 
Q 5.515625 40.765625 12.171875 48.375 
Q 18.84375 56 30.609375 56 
z
" id="DejaVuSans-111"/>
      <path d="M 45.40625 27.984375 
Q 45.40625 37.75 41.375 43.109375 
Q 37.359375 48.484375 30.078125 48.484375 
Q 22.859375 48.484375 18.828125 43.109375 
Q 14.796875 37.75 14.796875 27.984375 
Q 14.796875 18.265625 18.828125 12.890625 
Q 22.859375 7.515625 30.078125 7.515625 
Q 37.359375 7.515625 41.375 12.890625 
Q 45.40625 18.265625 45.40625 27.984375 
z
M 54.390625 6.78125 
Q 54.390625 -7.171875 48.1875 -13.984375 
Q 42 -20.796875 29.203125 -20.796875 
Q 24.46875 -20.796875 20.265625 -20.09375 
Q 16.0625 -19.390625 12.109375 -17.921875 
L 12.109375 -9.1875 
Q 16.0625 -11.328125 19.921875 -12.34375 
Q 23.78125 -13.375 27.78125 -13.375 
Q 36.625 -13.375 41.015625 -8.765625 
Q 45.40625 -4.15625 45.40625 5.171875 
L 45.40625 9.625 
Q 42.625 4.78125 38.28125 2.390625 
Q 33.9375 0 27.875 0 
Q 17.828125 0 11.671875 7.65625 
Q 5.515625 15.328125 5.515625 27.984375 
Q 5.515625 40.671875 11.671875 48.328125 
Q 17.828125 56 27.875 56 
Q 33.9375 56 38.28125 53.609375 
Q 42.625 51.21875 45.40625 46.390625 
L 45.40625 54.6875 
L 54.390625 54.6875 
z
" id="DejaVuSans-103"/>
      <path d="M 48.6875 27.296875 
Q 48.6875 37.203125 44.609375 42.84375 
Q 40.53125 48.484375 33.40625 48.484375 
Q 26.265625 48.484375 22.1875 42.84375 
Q 18.109375 37.203125 18.109375 27.296875 
Q 18.109375 17.390625 22.1875 11.75 
Q 26.265625 6.109375 33.40625 6.109375 
Q 40.53125 6.109375 44.609375 11.75 
Q 48.6875 17.390625 48.6875 27.296875 
z
M 18.109375 46.390625 
Q 20.953125 51.265625 25.265625 53.625 
Q 29.59375 56 35.59375 56 
Q 45.5625 56 51.78125 48.09375 
Q 58.015625 40.1875 58.015625 27.296875 
Q 58.015625 14.40625 51.78125 6.484375 
Q 45.5625 -1.421875 35.59375 -1.421875 
Q 29.59375 -1.421875 25.265625 0.953125 
Q 20.953125 3.328125 18.109375 8.203125 
L 18.109375 0 
L 9.078125 0 
L 9.078125 75.984375 
L 18.109375 75.984375 
z
" id="DejaVuSans-98"/>
      <path d="M 34.28125 27.484375 
Q 23.390625 27.484375 19.1875 25 
Q 14.984375 22.515625 14.984375 16.5 
Q 14.984375 11.71875 18.140625 8.90625 
Q 21.296875 6.109375 26.703125 6.109375 
Q 34.1875 6.109375 38.703125 11.40625 
Q 43.21875 16.703125 43.21875 25.484375 
L 43.21875 27.484375 
z
M 52.203125 31.203125 
L 52.203125 0 
L 43.21875 0 
L 43.21875 8.296875 
Q 40.140625 3.328125 35.546875 0.953125 
Q 30.953125 -1.421875 24.3125 -1.421875 
Q 15.921875 -1.421875 10.953125 3.296875 
Q 6 8.015625 6 15.921875 
Q 6 25.140625 12.171875 29.828125 
Q 18.359375 34.515625 30.609375 34.515625 
L 43.21875 34.515625 
L 43.21875 35.40625 
Q 43.21875 41.609375 39.140625 45 
Q 35.0625 48.390625 27.6875 48.390625 
Q 23 48.390625 18.546875 47.265625 
Q 14.109375 46.140625 10.015625 43.890625 
L 10.015625 52.203125 
Q 14.9375 54.109375 19.578125 55.046875 
Q 24.21875 56 28.609375 56 
Q 40.484375 56 46.34375 49.84375 
Q 52.203125 43.703125 52.203125 31.203125 
z
" id="DejaVuSans-97"/>
     </defs>
     <g transform="translate(191.114062 280.474375)scale(0.1 -0.1)">
      <use xlink:href="#DejaVuSans-32"/>
      <use x="31.787109" xlink:href="#DejaVuSans-108"/>
      <use x="59.570312" xlink:href="#DejaVuSans-111"/>
      <use x="120.751953" xlink:href="#DejaVuSans-103"/>
      <use x="184.228516" xlink:href="#DejaVuSans-32"/>
      <use x="216.015625" xlink:href="#DejaVuSans-40"/>
      <use x="255.029297" xlink:href="#DejaVuSans-98"/>
      <use x="318.505859" xlink:href="#DejaVuSans-97"/>
      <use x="379.785156" xlink:href="#DejaVuSans-115"/>
      <use x="431.884766" xlink:href="#DejaVuSans-101"/>
      <use x="493.408203" xlink:href="#DejaVuSans-32"/>
      <use x="525.195312" xlink:href="#DejaVuSans-49"/>
      <use x="588.818359" xlink:href="#DejaVuSans-48"/>
      <use x="652.441406" xlink:href="#DejaVuSans-41"/>
     </g>
    </g>
   </g>
   <g id="matplotlib.axis_2">
    <g id="ytick_1">
     <g id="line2d_44">
      <path clip-path="url(#pc70d0dca0c)" d="M 52.875 231.572186 
L 398.5 231.572186 
" style="fill:none;stroke:#b0b0b0;stroke-dasharray:3.7,1.6;stroke-dashoffset:0;"/>
     </g>
     <g id="line2d_45">
      <defs>
       <path d="M 0 0 
L -3.5 0 
" id="me70131f476" style="stroke:#000000;stroke-width:0.8;"/>
      </defs>
      <g>
       <use style="stroke:#000000;stroke-width:0.8;" x="52.875" xlink:href="#me70131f476" y="231.572186"/>
      </g>
     </g>
     <g id="text_6">
      <!-- 0.0 -->
      <defs>
       <path d="M 10.6875 12.40625 
L 21 12.40625 
L 21 0 
L 10.6875 0 
z
" id="DejaVuSans-46"/>
      </defs>
      <g transform="translate(29.971875 235.371405)scale(0.1 -0.1)">
       <use xlink:href="#DejaVuSans-48"/>
       <use x="63.623047" xlink:href="#DejaVuSans-46"/>
       <use x="95.410156" xlink:href="#DejaVuSans-48"/>
      </g>
     </g>
    </g>
    <g id="ytick_2">
     <g id="line2d_46">
      <path clip-path="url(#pc70d0dca0c)" d="M 52.875 193.844113 
L 398.5 193.844113 
" style="fill:none;stroke:#b0b0b0;stroke-dasharray:3.7,1.6;stroke-dashoffset:0;"/>
     </g>
     <g id="line2d_47">
      <g>
       <use style="stroke:#000000;stroke-width:0.8;" x="52.875" xlink:href="#me70131f476" y="193.844113"/>
      </g>
     </g>
     <g id="text_7">
      <!-- 0.2 -->
      <g transform="translate(29.971875 197.643332)scale(0.1 -0.1)">
       <use xlink:href="#DejaVuSans-48"/>
       <use x="63.623047" xlink:href="#DejaVuSans-46"/>
       <use x="95.410156" xlink:href="#DejaVuSans-50"/>
      </g>
     </g>
    </g>
    <g id="ytick_3">
     <g id="line2d_48">
      <path clip-path="url(#pc70d0dca0c)" d="M 52.875 156.116039 
L 398.5 156.116039 
" style="fill:none;stroke:#b0b0b0;stroke-dasharray:3.7,1.6;stroke-dashoffset:0;"/>
     </g>
     <g id="line2d_49">
      <g>
       <use style="stroke:#000000;stroke-width:0.8;" x="52.875" xlink:href="#me70131f476" y="156.116039"/>
      </g>
     </g>
     <g id="text_8">
      <!-- 0.4 -->
      <defs>
       <path d="M 37.796875 64.3125 
L 12.890625 25.390625 
L 37.796875 25.390625 
z
M 35.203125 72.90625 
L 47.609375 72.90625 
L 47.609375 25.390625 
L 58.015625 25.390625 
L 58.015625 17.1875 
L 47.609375 17.1875 
L 47.609375 0 
L 37.796875 0 
L 37.796875 17.1875 
L 4.890625 17.1875 
L 4.890625 26.703125 
z
" id="DejaVuSans-52"/>
      </defs>
      <g transform="translate(29.971875 159.915258)scale(0.1 -0.1)">
       <use xlink:href="#DejaVuSans-48"/>
       <use x="63.623047" xlink:href="#DejaVuSans-46"/>
       <use x="95.410156" xlink:href="#DejaVuSans-52"/>
      </g>
     </g>
    </g>
    <g id="ytick_4">
     <g id="line2d_50">
      <path clip-path="url(#pc70d0dca0c)" d="M 52.875 118.387965 
L 398.5 118.387965 
" style="fill:none;stroke:#b0b0b0;stroke-dasharray:3.7,1.6;stroke-dashoffset:0;"/>
     </g>
     <g id="line2d_51">
      <g>
       <use style="stroke:#000000;stroke-width:0.8;" x="52.875" xlink:href="#me70131f476" y="118.387965"/>
      </g>
     </g>
     <g id="text_9">
      <!-- 0.6 -->
      <defs>
       <path d="M 33.015625 40.375 
Q 26.375 40.375 22.484375 35.828125 
Q 18.609375 31.296875 18.609375 23.390625 
Q 18.609375 15.53125 22.484375 10.953125 
Q 26.375 6.390625 33.015625 6.390625 
Q 39.65625 6.390625 43.53125 10.953125 
Q 47.40625 15.53125 47.40625 23.390625 
Q 47.40625 31.296875 43.53125 35.828125 
Q 39.65625 40.375 33.015625 40.375 
z
M 52.59375 71.296875 
L 52.59375 62.3125 
Q 48.875 64.0625 45.09375 64.984375 
Q 41.3125 65.921875 37.59375 65.921875 
Q 27.828125 65.921875 22.671875 59.328125 
Q 17.53125 52.734375 16.796875 39.40625 
Q 19.671875 43.65625 24.015625 45.921875 
Q 28.375 48.1875 33.59375 48.1875 
Q 44.578125 48.1875 50.953125 41.515625 
Q 57.328125 34.859375 57.328125 23.390625 
Q 57.328125 12.15625 50.6875 5.359375 
Q 44.046875 -1.421875 33.015625 -1.421875 
Q 20.359375 -1.421875 13.671875 8.265625 
Q 6.984375 17.96875 6.984375 36.375 
Q 6.984375 53.65625 15.1875 63.9375 
Q 23.390625 74.21875 37.203125 74.21875 
Q 40.921875 74.21875 44.703125 73.484375 
Q 48.484375 72.75 52.59375 71.296875 
z
" id="DejaVuSans-54"/>
      </defs>
      <g transform="translate(29.971875 122.187184)scale(0.1 -0.1)">
       <use xlink:href="#DejaVuSans-48"/>
       <use x="63.623047" xlink:href="#DejaVuSans-46"/>
       <use x="95.410156" xlink:href="#DejaVuSans-54"/>
      </g>
     </g>
    </g>
    <g id="ytick_5">
     <g id="line2d_52">
      <path clip-path="url(#pc70d0dca0c)" d="M 52.875 80.659892 
L 398.5 80.659892 
" style="fill:none;stroke:#b0b0b0;stroke-dasharray:3.7,1.6;stroke-dashoffset:0;"/>
     </g>
     <g id="line2d_53">
      <g>
       <use style="stroke:#000000;stroke-width:0.8;" x="52.875" xlink:href="#me70131f476" y="80.659892"/>
      </g>
     </g>
     <g id="text_10">
      <!-- 0.8 -->
      <defs>
       <path d="M 31.78125 34.625 
Q 24.75 34.625 20.71875 30.859375 
Q 16.703125 27.09375 16.703125 20.515625 
Q 16.703125 13.921875 20.71875 10.15625 
Q 24.75 6.390625 31.78125 6.390625 
Q 38.8125 6.390625 42.859375 10.171875 
Q 46.921875 13.96875 46.921875 20.515625 
Q 46.921875 27.09375 42.890625 30.859375 
Q 38.875 34.625 31.78125 34.625 
z
M 21.921875 38.8125 
Q 15.578125 40.375 12.03125 44.71875 
Q 8.5 49.078125 8.5 55.328125 
Q 8.5 64.0625 14.71875 69.140625 
Q 20.953125 74.21875 31.78125 74.21875 
Q 42.671875 74.21875 48.875 69.140625 
Q 55.078125 64.0625 55.078125 55.328125 
Q 55.078125 49.078125 51.53125 44.71875 
Q 48 40.375 41.703125 38.8125 
Q 48.828125 37.15625 52.796875 32.3125 
Q 56.78125 27.484375 56.78125 20.515625 
Q 56.78125 9.90625 50.3125 4.234375 
Q 43.84375 -1.421875 31.78125 -1.421875 
Q 19.734375 -1.421875 13.25 4.234375 
Q 6.78125 9.90625 6.78125 20.515625 
Q 6.78125 27.484375 10.78125 32.3125 
Q 14.796875 37.15625 21.921875 38.8125 
z
M 18.3125 54.390625 
Q 18.3125 48.734375 21.84375 45.5625 
Q 25.390625 42.390625 31.78125 42.390625 
Q 38.140625 42.390625 41.71875 45.5625 
Q 45.3125 48.734375 45.3125 54.390625 
Q 45.3125 60.0625 41.71875 63.234375 
Q 38.140625 66.40625 31.78125 66.40625 
Q 25.390625 66.40625 21.84375 63.234375 
Q 18.3125 60.0625 18.3125 54.390625 
z
" id="DejaVuSans-56"/>
      </defs>
      <g transform="translate(29.971875 84.459111)scale(0.1 -0.1)">
       <use xlink:href="#DejaVuSans-48"/>
       <use x="63.623047" xlink:href="#DejaVuSans-46"/>
       <use x="95.410156" xlink:href="#DejaVuSans-56"/>
      </g>
     </g>
    </g>
    <g id="ytick_6">
     <g id="line2d_54">
      <path clip-path="url(#pc70d0dca0c)" d="M 52.875 42.931818 
L 398.5 42.931818 
" style="fill:none;stroke:#b0b0b0;stroke-dasharray:3.7,1.6;stroke-dashoffset:0;"/>
     </g>
     <g id="line2d_55">
      <g>
       <use style="stroke:#000000;stroke-width:0.8;" x="52.875" xlink:href="#me70131f476" y="42.931818"/>
      </g>
     </g>
     <g id="text_11">
      <!-- 1.0 -->
      <g transform="translate(29.971875 46.731037)scale(0.1 -0.1)">
       <use xlink:href="#DejaVuSans-49"/>
       <use x="63.623047" xlink:href="#DejaVuSans-46"/>
       <use x="95.410156" xlink:href="#DejaVuSans-48"/>
      </g>
     </g>
    </g>
    <g id="text_12">
     <!-- Fraction of Requests -->
     <defs>
      <path d="M 9.8125 72.90625 
L 51.703125 72.90625 
L 51.703125 64.59375 
L 19.671875 64.59375 
L 19.671875 43.109375 
L 48.578125 43.109375 
L 48.578125 34.8125 
L 19.671875 34.8125 
L 19.671875 0 
L 9.8125 0 
z
" id="DejaVuSans-70"/>
      <path d="M 41.109375 46.296875 
Q 39.59375 47.171875 37.8125 47.578125 
Q 36.03125 48 33.890625 48 
Q 26.265625 48 22.1875 43.046875 
Q 18.109375 38.09375 18.109375 28.8125 
L 18.109375 0 
L 9.078125 0 
L 9.078125 54.6875 
L 18.109375 54.6875 
L 18.109375 46.1875 
Q 20.953125 51.171875 25.484375 53.578125 
Q 30.03125 56 36.53125 56 
Q 37.453125 56 38.578125 55.875 
Q 39.703125 55.765625 41.0625 55.515625 
z
" id="DejaVuSans-114"/>
      <path d="M 48.78125 52.59375 
L 48.78125 44.1875 
Q 44.96875 46.296875 41.140625 47.34375 
Q 37.3125 48.390625 33.40625 48.390625 
Q 24.65625 48.390625 19.8125 42.84375 
Q 14.984375 37.3125 14.984375 27.296875 
Q 14.984375 17.28125 19.8125 11.734375 
Q 24.65625 6.203125 33.40625 6.203125 
Q 37.3125 6.203125 41.140625 7.25 
Q 44.96875 8.296875 48.78125 10.40625 
L 48.78125 2.09375 
Q 45.015625 0.34375 40.984375 -0.53125 
Q 36.96875 -1.421875 32.421875 -1.421875 
Q 20.0625 -1.421875 12.78125 6.34375 
Q 5.515625 14.109375 5.515625 27.296875 
Q 5.515625 40.671875 12.859375 48.328125 
Q 20.21875 56 33.015625 56 
Q 37.15625 56 41.109375 55.140625 
Q 45.0625 54.296875 48.78125 52.59375 
z
" id="DejaVuSans-99"/>
      <path d="M 18.3125 70.21875 
L 18.3125 54.6875 
L 36.8125 54.6875 
L 36.8125 47.703125 
L 18.3125 47.703125 
L 18.3125 18.015625 
Q 18.3125 11.328125 20.140625 9.421875 
Q 21.96875 7.515625 27.59375 7.515625 
L 36.8125 7.515625 
L 36.8125 0 
L 27.59375 0 
Q 17.1875 0 13.234375 3.875 
Q 9.28125 7.765625 9.28125 18.015625 
L 9.28125 47.703125 
L 2.6875 47.703125 
L 2.6875 54.6875 
L 9.28125 54.6875 
L 9.28125 70.21875 
z
" id="DejaVuSans-116"/>
      <path d="M 54.890625 33.015625 
L 54.890625 0 
L 45.90625 0 
L 45.90625 32.71875 
Q 45.90625 40.484375 42.875 44.328125 
Q 39.84375 48.1875 33.796875 48.1875 
Q 26.515625 48.1875 22.3125 43.546875 
Q 18.109375 38.921875 18.109375 30.90625 
L 18.109375 0 
L 9.078125 0 
L 9.078125 54.6875 
L 18.109375 54.6875 
L 18.109375 46.1875 
Q 21.34375 51.125 25.703125 53.5625 
Q 30.078125 56 35.796875 56 
Q 45.21875 56 50.046875 50.171875 
Q 54.890625 44.34375 54.890625 33.015625 
z
" id="DejaVuSans-110"/>
      <path d="M 37.109375 75.984375 
L 37.109375 68.5 
L 28.515625 68.5 
Q 23.6875 68.5 21.796875 66.546875 
Q 19.921875 64.59375 19.921875 59.515625 
L 19.921875 54.6875 
L 34.71875 54.6875 
L 34.71875 47.703125 
L 19.921875 47.703125 
L 19.921875 0 
L 10.890625 0 
L 10.890625 47.703125 
L 2.296875 47.703125 
L 2.296875 54.6875 
L 10.890625 54.6875 
L 10.890625 58.5 
Q 10.890625 67.625 15.140625 71.796875 
Q 19.390625 75.984375 28.609375 75.984375 
z
" id="DejaVuSans-102"/>
      <path d="M 44.390625 34.1875 
Q 47.5625 33.109375 50.5625 29.59375 
Q 53.5625 26.078125 56.59375 19.921875 
L 66.609375 0 
L 56 0 
L 46.6875 18.703125 
Q 43.0625 26.03125 39.671875 28.421875 
Q 36.28125 30.8125 30.421875 30.8125 
L 19.671875 30.8125 
L 19.671875 0 
L 9.8125 0 
L 9.8125 72.90625 
L 32.078125 72.90625 
Q 44.578125 72.90625 50.734375 67.671875 
Q 56.890625 62.453125 56.890625 51.90625 
Q 56.890625 45.015625 53.6875 40.46875 
Q 50.484375 35.9375 44.390625 34.1875 
z
M 19.671875 64.796875 
L 19.671875 38.921875 
L 32.078125 38.921875 
Q 39.203125 38.921875 42.84375 42.21875 
Q 46.484375 45.515625 46.484375 51.90625 
Q 46.484375 58.296875 42.84375 61.546875 
Q 39.203125 64.796875 32.078125 64.796875 
z
" id="DejaVuSans-82"/>
      <path d="M 14.796875 27.296875 
Q 14.796875 17.390625 18.875 11.75 
Q 22.953125 6.109375 30.078125 6.109375 
Q 37.203125 6.109375 41.296875 11.75 
Q 45.40625 17.390625 45.40625 27.296875 
Q 45.40625 37.203125 41.296875 42.84375 
Q 37.203125 48.484375 30.078125 48.484375 
Q 22.953125 48.484375 18.875 42.84375 
Q 14.796875 37.203125 14.796875 27.296875 
z
M 45.40625 8.203125 
Q 42.578125 3.328125 38.25 0.953125 
Q 33.9375 -1.421875 27.875 -1.421875 
Q 17.96875 -1.421875 11.734375 6.484375 
Q 5.515625 14.40625 5.515625 27.296875 
Q 5.515625 40.1875 11.734375 48.09375 
Q 17.96875 56 27.875 56 
Q 33.9375 56 38.25 53.625 
Q 42.578125 51.265625 45.40625 46.390625 
L 45.40625 54.6875 
L 54.390625 54.6875 
L 54.390625 -20.796875 
L 45.40625 -20.796875 
z
" id="DejaVuSans-113"/>
      <path d="M 8.5 21.578125 
L 8.5 54.6875 
L 17.484375 54.6875 
L 17.484375 21.921875 
Q 17.484375 14.15625 20.5 10.265625 
Q 23.53125 6.390625 29.59375 6.390625 
Q 36.859375 6.390625 41.078125 11.03125 
Q 45.3125 15.671875 45.3125 23.6875 
L 45.3125 54.6875 
L 54.296875 54.6875 
L 54.296875 0 
L 45.3125 0 
L 45.3125 8.40625 
Q 42.046875 3.421875 37.71875 1 
Q 33.40625 -1.421875 27.6875 -1.421875 
Q 18.265625 -1.421875 13.375 4.4375 
Q 8.5 10.296875 8.5 21.578125 
z
M 31.109375 56 
z
" id="DejaVuSans-117"/>
     </defs>
     <g transform="translate(23.892187 188.700781)rotate(-90)scale(0.1 -0.1)">
      <use xlink:href="#DejaVuSans-70"/>
      <use x="57.410156" xlink:href="#DejaVuSans-114"/>
      <use x="98.523438" xlink:href="#DejaVuSans-97"/>
      <use x="159.802734" xlink:href="#DejaVuSans-99"/>
      <use x="214.783203" xlink:href="#DejaVuSans-116"/>
      <use x="253.992188" xlink:href="#DejaVuSans-105"/>
      <use x="281.775391" xlink:href="#DejaVuSans-111"/>
      <use x="342.957031" xlink:href="#DejaVuSans-110"/>
      <use x="406.335938" xlink:href="#DejaVuSans-32"/>
      <use x="438.123047" xlink:href="#DejaVuSans-111"/>
      <use x="499.304688" xlink:href="#DejaVuSans-102"/>
      <use x="534.509766" xlink:href="#DejaVuSans-32"/>
      <use x="566.296875" xlink:href="#DejaVuSans-82"/>
      <use x="635.716797" xlink:href="#DejaVuSans-101"/>
      <use x="697.240234" xlink:href="#DejaVuSans-113"/>
      <use x="760.716797" xlink:href="#DejaVuSans-117"/>
      <use x="824.095703" xlink:href="#DejaVuSans-101"/>
      <use x="885.619141" xlink:href="#DejaVuSans-115"/>
      <use x="937.71875" xlink:href="#DejaVuSans-116"/>
      <use x="976.927734" xlink:href="#DejaVuSans-115"/>
     </g>
    </g>
   </g>
   <g id="line2d_56">
    <path clip-path="url(#pc70d0dca0c)" d="M 76.609062 231.567774 
L 81.758596 231.400122 
L 83.513872 230.963342 
L 83.925445 230.504502 
L 84.392298 229.551528 
L 84.604433 229.057393 
L 84.67486 228.9118 
L 85.656755 227.522046 
L 86.22568 226.904377 
L 86.473311 226.573484 
L 86.7855 225.823458 
L 87.431665 223.979276 
L 87.551503 223.732209 
L 87.8147 223.193955 
L 88.611961 221.945382 
L 91.251725 215.018671 
L 91.318925 214.846606 
L 93.584726 207.818421 
L 93.739597 207.266931 
L 94.364622 204.562426 
L 94.962546 201.513791 
L 95.271713 199.775495 
L 95.451137 198.809285 
L 95.968282 195.650352 
L 96.046567 195.204748 
L 96.338585 193.382626 
L 96.896333 189.822209 
L 97.006823 189.050123 
L 99.128453 173.506937 
L 99.714239 168.830304 
L 100.986422 158.647598 
L 101.468555 154.795993 
L 101.848208 151.967954 
L 101.973849 151.01498 
L 102.387248 147.785456 
L 102.546704 146.678065 
L 102.82482 144.635347 
L 102.979091 143.532367 
L 103.513744 140.029305 
L 103.58946 139.491051 
L 103.756088 138.313069 
L 104.970522 130.852516 
L 105.269156 129.220106 
L 105.586105 127.715642 
L 105.66341 127.402396 
L 105.847067 126.542072 
L 106.572202 122.796354 
L 106.777063 121.781613 
L 106.857524 121.463955 
L 107.057872 120.502156 
L 107.353428 119.235936 
L 107.548149 118.313845 
L 107.638087 117.969716 
L 107.964971 116.584373 
L 108.250234 115.476982 
L 108.30811 115.176972 
L 108.876244 112.988661 
L 108.973645 112.622471 
L 109.2106 111.797443 
L 109.317779 111.413606 
L 109.737953 109.88267 
L 109.790781 109.69737 
L 112.633509 100.577936 
L 112.924305 99.823498 
L 113.088023 99.347011 
L 113.18397 99.108767 
L 113.565151 98.116086 
L 113.685784 97.80284 
L 113.864783 97.286645 
L 113.967997 97.039578 
L 114.210753 96.346907 
L 114.458765 95.702767 
L 114.846938 94.727733 
L 115.026925 94.295365 
L 115.181112 93.990943 
L 115.748883 92.640896 
L 116.0437 91.899694 
L 116.123074 91.736453 
L 122.208341 79.303668 
L 122.34318 79.043365 
L 122.462806 78.809534 
L 122.761005 78.147746 
L 123.323002 77.071238 
L 123.435756 76.837406 
L 123.617542 76.497689 
L 123.732895 76.259445 
L 124.304023 75.134406 
L 124.358015 74.971165 
L 124.688854 74.428499 
L 124.812761 74.17702 
L 125.193765 73.501996 
L 125.402153 73.051981 
L 125.538709 72.822561 
L 125.743385 72.496079 
L 126.034903 72.006356 
L 126.140911 71.869587 
L 126.445546 71.450455 
L 126.804396 70.801903 
L 127.426846 69.778338 
L 127.557324 69.597449 
L 130.735788 65.362008 
L 130.894955 65.198767 
L 131.087877 64.964936 
L 131.365309 64.611982 
L 131.548576 64.40021 
L 131.84769 64.122259 
L 132.035441 63.879604 
L 132.327666 63.601653 
L 132.893986 63.010456 
L 133.066722 62.825155 
L 133.332991 62.600148 
L 134.127747 61.947184 
L 135.23413 60.875088 
L 135.503445 60.614785 
L 135.612107 60.469191 
L 135.787024 60.248595 
L 136.667091 59.494158 
L 137.193136 59.035318 
L 139.959069 56.357284 
L 140.121353 56.167572 
L 140.641997 55.642553 
L 140.7968 55.492548 
L 143.228428 53.176291 
L 143.461034 52.960107 
L 143.66205 52.783631 
L 144.888047 51.738006 
L 145.70956 51.142397 
L 145.914073 51.018863 
L 146.97473 50.485021 
L 147.256202 50.317369 
L 150.841582 48.495246 
L 151.247333 48.336417 
L 151.311013 48.309946 
L 151.693068 48.168765 
L 151.921738 48.062879 
L 152.281553 47.934933 
L 152.553087 47.846695 
L 153.109041 47.648158 
L 153.241897 47.546684 
L 153.554478 47.396679 
L 153.675872 47.365796 
L 154.47948 47.10108 
L 155.464424 46.690772 
L 155.990393 46.496648 
L 156.709294 46.289288 
L 156.880038 46.24958 
L 158.514319 45.786329 
L 162.036197 44.952477 
L 167.589631 44.233334 
L 170.719032 44.021562 
L 172.046911 43.906852 
L 174.949713 43.756847 
L 175.056484 43.748023 
L 187.372004 43.37301 
L 223.64644 43.108295 
L 271.352563 42.953878 
L 271.546069 42.949466 
L 338.84527 42.931818 
L 338.84527 42.931818 
" style="fill:none;stroke:#00aff0;stroke-dasharray:7.4,3.2;stroke-dashoffset:0;stroke-width:2;"/>
   </g>
   <g id="line2d_57">
    <path clip-path="url(#pc70d0dca0c)" d="M 68.585227 231.56801 
L 74.768994 231.451057 
L 74.883745 231.434349 
L 75.781475 231.275628 
L 77.610125 230.799464 
L 77.742341 230.766049 
L 78.531763 230.594797 
L 78.692669 230.519613 
L 80.372624 230.085218 
L 81.699721 229.792836 
L 82.039826 229.675884 
L 82.727442 229.46704 
L 82.881592 229.404386 
L 83.463484 229.233134 
L 84.67486 228.894807 
L 84.933675 228.794562 
L 85.524952 228.606603 
L 86.749817 228.172207 
L 86.917722 228.1012 
L 87.536546 227.817173 
L 88.72783 227.203171 
L 88.924888 227.082042 
L 89.912504 226.530694 
L 90.370764 226.267551 
L 90.636477 226.033645 
L 90.76858 225.916693 
L 91.040324 225.699495 
L 91.269657 225.490651 
L 91.421715 225.34446 
L 91.781329 224.905888 
L 92.709706 223.882553 
L 92.915559 223.602702 
L 93.030821 223.423096 
L 93.408092 222.900986 
L 93.597309 222.604428 
L 93.810524 222.236863 
L 94.047296 221.856767 
L 94.154767 221.660453 
L 94.30714 221.338834 
L 94.479303 221.088221 
L 95.087345 219.567837 
L 95.163614 219.409116 
L 95.530587 218.352366 
L 95.653378 218.064161 
L 95.862319 217.546228 
L 96.342462 216.27228 
L 96.655093 215.41602 
L 97.147288 214.083596 
L 97.298511 213.63667 
L 97.595268 212.717756 
L 97.8784 211.93668 
L 97.948826 211.769605 
L 98.306177 210.666909 
L 98.401344 210.395412 
L 98.598176 209.802295 
L 98.920187 208.795667 
L 99.103383 208.210904 
L 99.802145 206.15588 
L 99.851276 206.018043 
L 100.03316 205.424926 
L 100.32499 204.439183 
L 101.006785 202.379982 
L 101.118573 202.066716 
L 101.685529 200.391788 
L 102.243441 198.700152 
L 102.468694 197.965021 
L 102.605097 197.61834 
L 102.882751 196.76208 
L 102.985504 196.457168 
L 103.260166 195.613439 
L 104.546877 190.099959 
L 104.779146 188.942963 
L 108.31637 170.151187 
L 108.423575 169.787798 
L 108.721469 168.64751 
L 108.786721 168.346775 
L 109.189125 166.751207 
L 109.925134 163.8441 
L 110.415984 161.918559 
L 110.584103 161.175074 
L 110.961356 159.458377 
L 111.691374 156.43014 
L 112.128602 154.58396 
L 112.701578 152.249085 
L 113.610141 148.727976 
L 113.939878 147.579335 
L 115.013288 143.34398 
L 115.276007 142.516958 
L 118.968497 129.259545 
L 119.023272 129.100824 
L 119.201204 128.541122 
L 119.275746 128.311394 
L 122.543552 118.483198 
L 122.59667 118.337008 
L 122.859236 117.622761 
L 122.917318 117.476571 
L 123.155889 116.895984 
L 123.222471 116.716379 
L 123.358836 116.411467 
L 123.442902 116.223507 
L 123.617542 115.776581 
L 123.997652 114.84096 
L 124.092476 114.632116 
L 124.491767 113.617135 
L 126.560126 108.345914 
L 126.851425 107.435354 
L 127.501692 105.463868 
L 127.650905 104.958465 
L 130.419654 97.958017 
L 130.523404 97.711581 
L 130.684991 97.406669 
L 130.754636 97.256301 
L 131.178212 96.370803 
L 131.399478 95.85287 
L 131.899632 94.725113 
L 132.038236 94.432731 
L 132.396885 93.701778 
L 132.490803 93.492934 
L 132.688861 93.108661 
L 132.929418 92.716034 
L 133.061295 92.436183 
L 134.915141 88.873306 
L 135.025643 88.706231 
L 135.206063 88.376257 
L 135.779492 87.227616 
L 135.938581 86.905996 
L 136.04964 86.701329 
L 136.203787 86.404771 
L 136.373309 86.049736 
L 136.57762 85.732293 
L 136.692787 85.548511 
L 136.842914 85.264483 
L 136.945071 85.101585 
L 137.155737 84.763257 
L 137.302692 84.550237 
L 138.872823 82.035756 
L 138.947445 81.889565 
L 139.407715 81.150257 
L 140.25749 79.805302 
L 140.342445 79.642404 
L 140.562148 79.337492 
L 140.755441 79.028403 
L 141.05905 78.585654 
L 141.244255 78.305803 
L 142.724569 76.200656 
L 142.869417 76.004343 
L 143.01571 75.841445 
L 143.136985 75.666016 
L 143.933591 74.546612 
L 144.06164 74.404598 
L 144.313389 74.024502 
L 145.236604 72.884215 
L 145.385747 72.725493 
L 145.561795 72.504119 
L 145.808667 72.228445 
L 146.691893 71.117395 
L 146.886189 70.89602 
L 147.374469 70.353026 
L 147.562331 70.119121 
L 147.70547 69.952046 
L 147.837354 69.801678 
L 148.024522 69.542712 
L 148.193089 69.267038 
L 148.961995 68.519376 
L 149.14754 68.360655 
L 149.310794 68.181049 
L 149.567379 67.963852 
L 149.702558 67.817661 
L 156.565444 61.172247 
L 157.03081 60.792151 
L 157.163227 60.666845 
L 158.777475 59.392897 
L 159.031563 59.213291 
L 160.2451 58.373738 
L 161.829337 57.60937 
L 162.150396 57.438118 
L 162.357134 57.342049 
L 162.754788 57.204212 
L 163.333497 56.978661 
L 163.456067 56.932715 
L 164.100568 56.694633 
L 164.26055 56.640334 
L 165.226479 56.314537 
L 165.520092 56.226823 
L 169.153553 55.161719 
L 170.401787 54.869337 
L 170.59814 54.806684 
L 171.977843 54.568602 
L 172.104734 54.53101 
L 175.201595 53.94207 
L 175.329493 53.904478 
L 176.019331 53.720696 
L 176.130022 53.670573 
L 176.732833 53.478437 
L 177.101541 53.328069 
L 177.429019 53.186055 
L 179.481323 51.937168 
L 179.864337 51.619726 
L 180.089318 51.423412 
L 180.807379 50.558799 
L 181.311743 50.040866 
L 181.553423 49.832022 
L 181.728024 49.635708 
L 181.844615 49.543817 
L 182.207727 49.222197 
L 184.128319 47.939896 
L 184.441741 47.789528 
L 187.035475 46.845553 
L 187.27824 46.711893 
L 187.566209 46.624179 
L 188.156483 46.452927 
L 188.471037 46.38192 
L 190.653369 45.905756 
L 190.912352 45.822218 
L 191.45941 45.667674 
L 191.606556 45.617551 
L 195.296915 44.999373 
L 196.301855 44.853182 
L 197.302954 44.761291 
L 200.336483 44.523209 
L 203.896757 44.239181 
L 205.969187 44.047045 
L 209.649731 43.737956 
L 209.776359 43.712894 
L 212.061526 43.487343 
L 229.383924 43.182431 
L 286.589906 42.935995 
L 313.206483 42.931818 
L 313.206483 42.931818 
" style="fill:none;stroke:#800000;stroke-dasharray:7.4,3.2;stroke-dashoffset:0;stroke-width:2;"/>
   </g>
   <g id="line2d_58">
    <path clip-path="url(#pc70d0dca0c)" d="M 82.520846 231.567176 
L 88.178901 231.431892 
L 89.457602 231.291598 
L 89.617727 231.276567 
L 92.580431 230.880737 
L 92.859927 230.820611 
L 93.517542 230.680317 
L 93.689443 230.620191 
L 94.323573 230.459855 
L 94.914117 230.259435 
L 95.271713 230.159225 
L 95.56628 230.00891 
L 95.73237 229.938763 
L 96.361842 229.758385 
L 96.524205 229.693248 
L 97.324908 229.477797 
L 97.963634 229.297419 
L 98.419616 229.152114 
L 98.583634 229.096999 
L 99.826719 228.771316 
L 104.204846 227.628922 
L 105.043152 227.463575 
L 105.550368 227.30825 
L 106.808695 226.932462 
L 106.963565 226.867326 
L 107.361916 226.717011 
L 107.730595 226.626822 
L 108.376885 226.446443 
L 109.084244 226.296128 
L 109.55508 226.180887 
L 110.395236 225.995498 
L 110.522122 225.955414 
L 111.407746 225.770026 
L 111.656359 225.699879 
L 112.953252 225.539543 
L 113.822471 225.384217 
L 114.755451 225.21386 
L 115.386393 225.098619 
L 116.954414 224.853104 
L 117.468911 224.697778 
L 117.66123 224.502369 
L 117.862977 224.357064 
L 118.057315 224.176686 
L 119.466416 223.600479 
L 120.207111 223.430122 
L 121.188708 223.049323 
L 121.695667 222.833872 
L 122.817431 222.443053 
L 123.34809 222.272696 
L 124.611189 221.791688 
L 125.149556 221.621331 
L 125.501672 221.491058 
L 126.00835 221.305669 
L 126.447186 221.160364 
L 127.214176 221.000028 
L 128.573194 220.584157 
L 130.31853 219.992918 
L 131.103666 219.807529 
L 131.172483 219.787487 
L 131.619353 219.637172 
L 132.287456 219.461804 
L 134.060554 219.055954 
L 134.898407 218.92067 
L 137.887962 218.229221 
L 138.016572 218.209179 
L 138.763472 218.01878 
L 138.868225 217.963665 
L 139.156684 217.798318 
L 139.434868 217.457604 
L 139.820645 217.051753 
L 139.971322 216.91647 
L 140.542431 216.255084 
L 140.757619 216.079716 
L 140.89673 215.914369 
L 141.069845 215.769065 
L 141.203422 215.668855 
L 141.467988 215.453403 
L 141.787712 215.182836 
L 142.020613 214.907259 
L 142.714273 214.215809 
L 143.065698 213.649623 
L 143.14614 213.459224 
L 143.370198 212.898048 
L 143.423719 212.727691 
L 143.60287 212.056283 
L 144.125984 209.976925 
L 144.190209 209.806568 
L 144.332075 209.330571 
L 145.14931 206.950582 
L 145.299781 206.534711 
L 145.439131 206.068734 
L 145.787925 204.841161 
L 149.629119 190.826789 
L 149.970524 189.458922 
L 150.0516 189.13825 
L 150.214853 188.506927 
L 150.904375 186.076833 
L 151.029624 185.655951 
L 151.096943 185.470563 
L 151.247333 184.964502 
L 151.367341 184.573683 
L 152.504086 180.675513 
L 152.877247 179.322678 
L 153.00101 179.027058 
L 154.452988 174.662911 
L 154.590379 174.211966 
L 154.964538 173.024477 
L 155.031218 172.844099 
L 155.228337 172.24785 
L 155.317505 171.937198 
L 155.5323 171.220697 
L 155.982643 169.887903 
L 156.156962 169.436958 
L 156.377828 168.815656 
L 158.393507 164.266121 
L 158.447399 164.105785 
L 158.598771 163.805155 
L 158.761208 163.419346 
L 158.990205 162.968401 
L 159.152126 162.682802 
L 159.336997 162.312025 
L 161.060816 159.16543 
L 161.150896 159.015115 
L 162.106063 157.291503 
L 162.223571 157.111125 
L 162.506565 156.650159 
L 163.096837 155.638037 
L 163.211642 155.472691 
L 164.0592 154.195013 
L 164.164761 154.054719 
L 164.349422 153.844278 
L 164.571721 153.583732 
L 164.847897 153.087692 
L 164.899813 152.947398 
L 165.683338 148.828766 
L 165.789973 148.533146 
L 166.850175 146.76945 
L 167.108998 146.393662 
L 167.356249 146.07299 
L 167.469583 145.882591 
L 167.599237 145.682171 
L 167.75258 145.411604 
L 168.160891 144.67506 
L 168.277602 144.539777 
L 168.636705 143.718054 
L 169.941504 139.664559 
L 170.086818 139.328855 
L 170.233876 139.028225 
L 170.340142 138.827805 
L 170.897519 137.840736 
L 171.053582 137.58019 
L 171.248142 137.314634 
L 171.371804 137.164319 
L 171.569571 136.943856 
L 171.724917 136.703352 
L 172.48223 135.701252 
L 172.687386 135.470769 
L 173.770582 133.912503 
L 173.925756 133.656968 
L 174.169595 133.266148 
L 174.28921 133.08076 
L 174.460807 132.850277 
L 174.75085 132.404342 
L 174.901334 132.153817 
L 175.063019 131.948387 
L 175.1841 131.78805 
L 177.229983 129.658587 
L 177.395797 129.48322 
L 177.814665 128.98718 
L 177.978489 128.846886 
L 178.251325 128.646466 
L 178.657552 128.105332 
L 178.792164 127.78967 
L 179.067128 127.238515 
L 179.206343 127.048116 
L 179.513342 126.677339 
L 179.6891 126.49195 
L 179.808756 126.341635 
L 180.102403 126.056037 
L 180.211139 125.925764 
L 180.375367 125.735365 
L 180.574776 125.539955 
L 180.677882 125.38463 
L 180.858628 125.224294 
L 180.996076 125.08901 
L 181.945393 124.332424 
L 182.089669 124.212172 
L 182.669442 123.801311 
L 182.967494 123.535755 
L 183.163714 123.355377 
L 183.26109 123.275209 
L 183.451497 123.119883 
L 183.714298 122.874368 
L 183.874337 122.719043 
L 184.102152 122.513612 
L 185.245748 121.050546 
L 185.373105 120.779979 
L 185.776176 119.627564 
L 186.271717 118.034224 
L 186.360824 117.843825 
L 186.49244 117.488079 
L 186.91404 116.621263 
L 187.217418 116.345685 
L 187.466091 116.105181 
L 187.89628 115.739414 
L 188.200271 115.538994 
L 188.391896 115.373648 
L 188.536944 115.243375 
L 188.684159 115.108091 
L 188.84811 114.977818 
L 188.969061 114.89264 
L 189.172086 114.727293 
L 189.778208 114.376558 
L 190.011248 114.226243 
L 190.265758 114.060896 
L 192.221298 112.868397 
L 193.355924 112.337284 
L 193.4712 112.307221 
L 193.800191 112.106801 
L 194.087735 111.90137 
L 194.422276 111.640824 
L 194.750624 111.415352 
L 194.95079 111.244995 
L 195.343143 111.004491 
L 195.497858 110.889249 
L 195.686785 110.738934 
L 195.853517 110.553545 
L 196.071462 110.338094 
L 196.447522 109.99738 
L 196.574926 109.857086 
L 196.729135 109.721802 
L 197.166675 109.240794 
L 197.2863 109.135574 
L 198.036471 108.258736 
L 198.25558 107.953095 
L 199.186225 106.760596 
L 199.313647 106.60026 
L 199.456267 106.444934 
L 199.619158 106.224472 
L 199.817134 105.923842 
L 200.020998 105.512981 
L 200.142231 105.257445 
L 200.679397 104.365576 
L 200.789762 104.10002 
L 200.918115 103.939684 
L 201.07513 103.624022 
L 201.190061 103.40857 
L 201.310593 103.163056 
L 201.764637 102.266176 
L 201.880173 101.985588 
L 203.321121 97.601399 
L 203.396412 97.416011 
L 204.080908 95.927892 
L 204.248851 95.391768 
L 204.340391 95.166296 
L 204.465891 94.950844 
L 204.71992 94.344573 
L 204.89336 93.903649 
L 207.173575 87.625491 
L 208.622987 83.526901 
L 208.732955 83.291407 
L 208.845377 83.045893 
L 208.960073 82.830441 
L 209.156771 82.409559 
L 209.242643 82.259244 
L 209.403508 81.853393 
L 209.507392 81.652973 
L 209.656567 81.297228 
L 209.80042 81.031671 
L 210.367455 79.974455 
L 210.421888 79.804098 
L 210.559377 79.493447 
L 210.636709 79.348143 
L 210.772034 79.072565 
L 211.09583 78.481326 
L 211.30439 78.095517 
L 212.30796 76.046222 
L 212.407088 75.865844 
L 213.178214 74.583156 
L 213.308998 74.407788 
L 213.451698 74.207368 
L 213.539622 74.052043 
L 213.842664 73.601097 
L 217.17467 68.62567 
L 217.356624 68.450302 
L 217.47465 68.294976 
L 217.773765 67.994346 
L 217.919551 67.813968 
L 218.049798 67.648622 
L 219.646805 66.220629 
L 219.762824 66.105387 
L 219.96092 65.919999 
L 220.120305 65.804757 
L 221.833438 64.351712 
L 221.968726 64.261523 
L 222.17939 64.116218 
L 222.278637 64.056092 
L 222.590549 63.840641 
L 223.243457 63.474874 
L 223.565908 63.314538 
L 225.860753 61.93164 
L 226.235498 61.781325 
L 226.931189 61.445621 
L 230.059285 60.248111 
L 230.219717 60.072744 
L 230.352443 59.817208 
L 230.49145 59.511567 
L 230.637662 59.361252 
L 231.012502 59.045591 
L 231.539803 58.800076 
L 231.812395 58.679824 
L 231.960104 58.53953 
L 232.148659 58.374184 
L 232.895922 57.978354 
L 236.036266 56.820928 
L 236.150543 56.705687 
L 236.816178 56.309857 
L 236.954188 56.184594 
L 238.143859 55.523208 
L 238.469751 55.352851 
L 238.576227 55.287715 
L 239.108181 55.03719 
L 239.21704 54.972053 
L 239.672952 54.551171 
L 239.918399 54.360772 
L 240.338793 54.065152 
L 240.82268 53.789575 
L 241.007199 53.649281 
L 241.115257 53.579134 
L 241.732109 53.223388 
L 241.850421 53.158252 
L 242.399499 52.847601 
L 243.765427 52.015857 
L 243.935549 51.750301 
L 244.35003 51.294345 
L 244.520872 51.128999 
L 244.656053 51.053841 
L 244.964292 50.8434 
L 245.526687 50.597885 
L 245.733502 50.507696 
L 246.034095 50.357381 
L 246.172548 50.312287 
L 247.129221 49.951531 
L 247.497124 49.796205 
L 248.064831 49.620838 
L 248.662436 49.465512 
L 248.776443 49.415407 
L 249.542552 49.214987 
L 249.751574 49.164882 
L 250.410637 48.899325 
L 250.521266 48.854231 
L 251.481564 48.623748 
L 252.158305 48.493475 
L 252.309528 48.408296 
L 253.08593 48.122698 
L 253.556658 47.882194 
L 254.097489 47.7419 
L 258.134739 46.308896 
L 258.245407 46.268812 
L 259.196799 45.822878 
L 263.366792 45.211596 
L 266.59834 45.031218 
L 268.759944 44.890924 
L 271.95982 44.685494 
L 273.07955 44.560231 
L 275.409224 44.354801 
L 276.111794 44.324738 
L 278.100354 44.114297 
L 278.400236 44.084234 
L 281.027285 43.828698 
L 284.42332 43.533078 
L 310.265002 42.931818 
L 310.265002 42.931818 
" style="fill:none;stroke:#ff5500;stroke-dasharray:7.4,3.2;stroke-dashoffset:0;stroke-width:2;"/>
   </g>
   <g id="line2d_59">
    <path clip-path="url(#pc70d0dca0c)" d="M 171.726264 231.568182 
L 200.933712 231.275847 
L 218.07727 231.13969 
L 222.388793 230.959484 
L 226.621144 230.631107 
L 229.30355 230.510969 
L 231.69813 230.438887 
L 241.418335 230.374813 
L 251.209992 230.25868 
L 255.280916 230.074469 
L 255.420973 229.998381 
L 260.984883 229.633963 
L 262.721722 229.485793 
L 269.975989 229.105357 
L 273.444453 228.889109 
L 278.013917 228.720916 
L 278.868536 228.688879 
L 283.575292 228.496659 
L 283.849006 228.360503 
L 285.452232 228.08819 
L 287.592081 227.883956 
L 290.358044 227.635671 
L 293.033557 227.327318 
L 294.571044 227.171138 
L 295.331543 227.075028 
L 296.266717 226.882808 
L 296.454215 226.842762 
L 297.308371 226.618505 
L 297.493317 225.933719 
L 297.615618 225.156828 
L 297.70507 224.339891 
L 297.83064 223.310711 
L 297.882266 223.046407 
L 298.024366 222.353613 
L 298.072869 222.101323 
L 298.245731 221.388506 
L 298.301797 221.248345 
L 298.55502 220.65967 
L 298.645505 220.503491 
L 298.789153 220.303261 
L 299.136681 220.01493 
L 299.265347 219.974884 
L 299.611135 219.790673 
L 299.777789 219.550398 
L 300.349718 219.013782 
L 300.90199 218.861608 
L 301.813429 218.633346 
L 302.150394 218.465153 
L 302.634716 218.252909 
L 302.746744 218.188836 
L 307.466627 216.81526 
L 307.580146 216.731164 
L 307.83068 216.510911 
L 308.105394 216.206562 
L 308.566463 215.525781 
L 308.825004 214.965138 
L 308.905276 214.80095 
L 309.874298 213.026915 
L 309.996959 212.774626 
L 310.099842 212.522336 
L 310.260603 212.093845 
L 310.314499 211.94167 
L 310.431421 211.645331 
L 311.903242 206.427346 
L 312.027197 205.79462 
L 312.500916 203.816351 
L 312.568925 203.600103 
L 315.13872 197.561176 
L 315.293479 197.280855 
L 315.999694 195.731077 
L 316.359257 194.958191 
L 316.488928 194.649837 
L 316.61732 194.413566 
L 316.756967 194.149263 
L 316.838579 194.017111 
L 317.322698 193.068023 
L 317.65034 192.303145 
L 317.915847 191.738498 
L 318.039164 191.442158 
L 318.186239 191.193873 
L 318.344635 190.881515 
L 318.57355 190.376936 
L 319.234389 188.114341 
L 319.481542 186.945 
L 319.625176 186.212159 
L 319.798014 185.331148 
L 319.877616 184.846593 
L 320.031554 183.933545 
L 320.452189 181.823125 
L 320.495216 181.642918 
L 320.827373 180.581701 
L 320.870725 180.417513 
L 321.009501 179.876893 
L 321.062661 179.660644 
L 321.234923 179.104006 
L 321.305752 178.855721 
L 321.455782 178.363156 
L 321.523275 178.190959 
L 321.806384 177.237866 
L 321.892169 177.009604 
L 322.018239 176.617154 
L 322.228946 175.91635 
L 322.343106 175.579964 
L 322.432246 175.367721 
L 322.713822 174.710967 
L 322.822553 174.482705 
L 324.098405 172.404322 
L 324.518283 171.93178 
L 324.764809 171.567362 
L 325.366756 170.914613 
L 325.466209 170.818503 
L 325.609182 170.678342 
L 325.720643 170.514154 
L 325.850823 170.386007 
L 326.07549 170.129713 
L 326.211367 169.913465 
L 326.476003 169.136574 
L 327.123955 166.869974 
L 327.246002 166.377409 
L 327.321215 166.137133 
L 327.430833 165.6726 
L 327.508808 165.484384 
L 327.771444 164.607379 
L 327.884942 164.287011 
L 328.171404 163.490097 
L 328.28734 163.21378 
L 328.460778 162.737234 
L 328.865664 161.543865 
L 328.924389 161.395695 
L 329.302072 160.438597 
L 329.42426 160.182303 
L 329.584978 159.71777 
L 329.736796 159.365366 
L 329.81697 159.237219 
L 329.932406 159.02898 
L 330.000497 158.876806 
L 330.127128 158.652548 
L 331.032374 157.042702 
L 331.264974 156.850482 
L 331.58426 156.317871 
L 331.783163 155.781255 
L 332.100498 154.15539 
L 332.286966 153.0301 
L 332.368161 152.657672 
L 332.582191 151.760644 
L 332.634982 151.544395 
L 333.645548 147.503761 
L 333.76079 146.826985 
L 335.203149 137.756581 
L 335.334617 136.839529 
L 335.504848 135.650165 
L 335.642994 134.657026 
L 335.786195 133.768006 
L 335.94238 132.790885 
L 336.301844 130.520281 
L 336.446047 129.667303 
L 336.733503 127.985374 
L 336.907981 127.012257 
L 337.615228 122.859494 
L 337.727059 122.26281 
L 338.999732 116.824572 
L 339.059391 116.580292 
L 339.243041 115.787383 
L 339.33047 115.330859 
L 339.492444 114.43383 
L 340.131873 110.933816 
L 340.181976 110.645485 
L 340.34384 109.720424 
L 340.792595 106.164345 
L 340.831295 105.707822 
L 340.987974 104.005869 
L 341.028791 103.501291 
L 341.173328 101.987554 
L 341.25851 101.058489 
L 341.459762 99.200358 
L 341.649206 97.266139 
L 341.775483 95.888559 
L 342.114534 92.28042 
L 342.258307 90.430298 
L 342.308277 89.841623 
L 342.428118 88.524112 
L 343.958407 74.864445 
L 344.002522 74.556091 
L 344.128817 73.574966 
L 344.218188 72.806084 
L 344.378464 71.332393 
L 344.511671 70.086965 
L 344.650056 68.725403 
L 344.696627 68.31293 
L 344.887847 66.723107 
L 344.934989 66.414753 
L 345.058303 65.549761 
L 345.230083 64.524585 
L 345.345282 63.875841 
L 345.833934 61.737388 
L 345.982962 61.02457 
L 346.089681 60.628116 
L 346.248976 59.971362 
L 346.299284 59.719073 
L 346.418242 59.06232 
L 346.958811 55.734503 
L 347.099903 55.225919 
L 348.346734 51.393524 
L 348.895989 49.891801 
L 349.037618 49.55942 
L 349.144459 49.399236 
L 350.252147 45.755056 
L 350.334878 45.562836 
L 350.496605 45.298533 
L 350.595357 45.146358 
L 350.887258 44.697844 
L 351.012037 44.513633 
L 351.321945 44.057109 
L 352.166799 43.220149 
L 352.779598 43.059965 
L 353.29799 42.999896 
L 374.6914 42.935823 
L 382.789773 42.931818 
L 382.789773 42.931818 
" style="fill:none;stroke:#58b792;stroke-dasharray:7.4,3.2;stroke-dashoffset:0;stroke-width:2;"/>
   </g>
   <g id="line2d_60">
    <path clip-path="url(#pc70d0dca0c)" d="M 79.454879 231.567776 
L 85.524952 231.439872 
L 85.593552 231.426641 
L 87.120169 231.263453 
L 88.466584 231.04734 
L 88.68925 230.990004 
L 90.112284 230.619524 
L 90.99518 230.310791 
L 91.40386 230.156424 
L 92.670974 229.627168 
L 92.812784 229.56101 
L 93.281376 229.327255 
L 93.61827 229.133194 
L 94.401525 228.709789 
L 94.719729 228.568654 
L 95.047136 228.374593 
L 95.787559 227.845336 
L 95.964363 227.713022 
L 96.097359 227.563066 
L 96.942095 225.379881 
L 97.759465 222.936479 
L 98.521762 221.864734 
L 99.317686 219.650676 
L 99.512983 219.099367 
L 99.583731 218.945 
L 99.847769 218.38046 
L 100.200218 217.767404 
L 100.432077 217.317536 
L 100.586945 217.039676 
L 100.771886 216.726532 
L 100.884426 216.589807 
L 101.105042 216.281074 
L 101.424998 215.756228 
L 101.7819 215.103478 
L 102.905254 213.109944 
L 103.526375 212.069072 
L 103.84067 211.517763 
L 103.974954 211.292829 
L 104.145964 211.050253 
L 104.979609 209.674185 
L 105.221064 209.312526 
L 105.618832 208.770038 
L 107.080696 206.794145 
L 107.259916 206.578032 
L 108.247476 205.246069 
L 108.606985 204.818253 
L 108.781288 204.60214 
L 108.973645 204.355154 
L 109.13 204.13904 
L 109.616144 203.539216 
L 109.806614 203.371618 
L 110.111318 203.076116 
L 110.789915 202.361619 
L 111.070944 202.096991 
L 112.372161 201.06494 
L 112.596989 200.8797 
L 112.936369 200.69005 
L 113.143225 200.531273 
L 113.379844 200.368085 
L 113.51773 200.249003 
L 113.878876 200.04171 
L 114.021829 199.984374 
L 114.292072 199.838829 
L 114.47262 199.732977 
L 115.343631 199.283109 
L 115.503158 199.159616 
L 115.835591 199.01407 
L 117.264872 198.198132 
L 117.60639 197.982019 
L 118.015613 197.704159 
L 118.221555 197.580666 
L 118.70765 197.223418 
L 119.319994 196.839706 
L 119.492427 196.698571 
L 119.705785 196.544205 
L 119.888199 196.394249 
L 120.0913 196.213419 
L 120.259981 196.03259 
L 121.003392 195.207831 
L 121.148671 195.044644 
L 121.278148 194.841762 
L 121.433647 194.643291 
L 121.778202 194.118444 
L 121.920304 193.867047 
L 122.479338 192.821765 
L 122.677108 192.49539 
L 122.882844 192.036701 
L 123.105419 191.595653 
L 123.389267 190.960545 
L 123.621097 190.501856 
L 123.807229 190.140197 
L 127.14514 181.522131 
L 127.334262 180.873792 
L 127.447564 180.534185 
L 127.61604 180.062265 
L 128.587076 177.03668 
L 128.880395 176.000218 
L 129.318078 174.403627 
L 129.512361 173.675899 
L 129.937805 172.088128 
L 130.139014 171.285422 
L 130.473759 169.935817 
L 130.741588 168.987565 
L 130.800989 168.705295 
L 130.98147 168.034903 
L 131.026085 167.871716 
L 131.221147 167.099883 
L 131.409438 166.160452 
L 131.678694 164.687354 
L 131.79567 163.959625 
L 132.141481 161.754389 
L 133.690668 152.651171 
L 133.78251 152.183661 
L 134.230263 149.951961 
L 134.311536 149.599123 
L 134.56593 148.35537 
L 134.734504 147.579126 
L 134.777167 147.367424 
L 134.990988 146.300089 
L 135.389366 144.54031 
L 135.562872 143.865508 
L 135.609584 143.70232 
L 135.872277 142.643806 
L 135.933582 142.40123 
L 136.003512 142.052803 
L 137.072349 137.867263 
L 137.319516 136.874907 
L 141.507447 121.905759 
L 141.601119 121.627899 
L 142.149568 119.824016 
L 142.242582 119.510872 
L 142.390475 119.038951 
L 142.611149 118.315634 
L 142.797582 117.676115 
L 143.002436 116.97485 
L 143.441877 115.567909 
L 145.808667 108.175955 
L 145.86141 107.981894 
L 146.004168 107.677571 
L 146.073459 107.509973 
L 147.036666 104.96072 
L 147.181062 104.643165 
L 147.291453 104.413821 
L 147.436602 104.043341 
L 147.500421 103.893385 
L 147.565917 103.730197 
L 147.745622 103.227403 
L 147.98646 102.618758 
L 148.255544 101.838104 
L 148.309991 101.666096 
L 148.899065 100.078325 
L 149.307383 99.165357 
L 149.464801 98.812519 
L 151.069382 94.953355 
L 152.888026 90.736942 
L 153.023257 90.313537 
L 153.774336 87.821619 
L 153.937581 87.208563 
L 155.179341 83.878655 
L 155.299546 83.649311 
L 155.670501 82.864247 
L 155.833644 82.484946 
L 155.993916 82.185034 
L 156.123993 81.893942 
L 156.27945 81.602851 
L 156.395242 81.355865 
L 156.526613 81.069184 
L 156.598692 80.901586 
L 156.908872 80.279709 
L 157.100494 79.91364 
L 157.225168 79.631369 
L 157.294465 79.490234 
L 157.63891 78.736043 
L 157.831263 78.436131 
L 157.967348 78.255302 
L 158.107547 78.021546 
L 158.235296 77.752508 
L 159.157274 76.226484 
L 159.288947 76.041244 
L 159.402238 75.869235 
L 159.532357 75.679585 
L 159.784832 75.278232 
L 160.115732 74.682818 
L 161.015079 73.315571 
L 161.144209 73.139152 
L 161.35394 72.790725 
L 161.511922 72.539328 
L 161.648224 72.354088 
L 163.826852 69.337324 
L 163.944903 69.178547 
L 164.201548 68.794836 
L 164.308347 68.64488 
L 164.523731 68.397893 
L 164.803022 67.965667 
L 164.934745 67.745143 
L 165.697753 66.713092 
L 165.834662 66.549905 
L 166.077857 66.22794 
L 166.211712 66.03829 
L 167.246632 64.626938 
L 167.562821 64.199122 
L 167.795838 63.938904 
L 167.924792 63.762485 
L 168.334079 63.206766 
L 168.452681 63.109735 
L 168.779222 62.801002 
L 168.900224 62.646635 
L 169.085306 62.439343 
L 169.217324 62.254103 
L 169.361826 62.082095 
L 169.637132 61.733667 
L 169.783238 61.592532 
L 169.973639 61.407292 
L 170.099528 61.257336 
L 171.062283 60.291442 
L 171.219437 60.154718 
L 171.423956 59.965067 
L 172.415779 58.933017 
L 175.525103 56.401405 
L 175.638974 56.299964 
L 175.820879 56.154418 
L 176.23602 55.867737 
L 176.373968 55.757476 
L 176.665412 55.528131 
L 176.785745 55.444332 
L 177.008569 55.289965 
L 177.457251 54.923896 
L 177.731519 54.734246 
L 177.914933 54.58429 
L 178.67634 54.12119 
L 178.896627 53.962413 
L 179.635032 53.508134 
L 180.159638 53.221453 
L 180.292822 53.137654 
L 180.717164 52.881847 
L 181.062878 52.683375 
L 181.466134 52.462852 
L 181.627295 52.334948 
L 181.859414 52.180581 
L 182.213719 51.990931 
L 182.57271 51.79246 
L 183.261413 51.364644 
L 183.578823 51.223509 
L 183.701858 51.152941 
L 184.130525 50.914775 
L 184.234676 50.848618 
L 184.443615 50.703073 
L 184.617145 50.619274 
L 185.373409 50.164995 
L 185.497273 50.094427 
L 185.870451 49.940061 
L 185.986294 49.895956 
L 186.270827 49.746 
L 186.43348 49.64897 
L 186.793057 49.450498 
L 187.657211 49.027093 
L 187.96582 48.868316 
L 188.259409 48.700718 
L 188.888565 48.365522 
L 189.046361 48.294954 
L 189.915227 47.946527 
L 190.406942 47.805392 
L 196.284717 45.864783 
L 197.426424 45.608976 
L 199.409267 45.207623 
L 200.233427 45.044435 
L 200.620249 44.969457 
L 201.570713 44.81509 
L 203.23691 44.550462 
L 203.341142 44.523999 
L 208.233612 44.127057 
L 211.350729 43.924175 
L 211.921429 43.871249 
L 214.642562 43.712472 
L 221.088069 43.368455 
L 234.424869 43.161163 
L 269.66575 42.975923 
L 271.623648 42.94505 
L 272.838325 42.931818 
L 272.838325 42.931818 
" style="fill:none;stroke:#c70d2c;stroke-dasharray:7.4,3.2;stroke-dashoffset:0;stroke-width:2;"/>
   </g>
   <g id="patch_3">
    <path d="M 52.875 241 
L 52.875 33.5 
" style="fill:none;stroke:#000000;stroke-linecap:square;stroke-linejoin:miter;stroke-width:0.8;"/>
   </g>
   <g id="patch_4">
    <path d="M 398.5 241 
L 398.5 33.5 
" style="fill:none;stroke:#000000;stroke-linecap:square;stroke-linejoin:miter;stroke-width:0.8;"/>
   </g>
   <g id="patch_5">
    <path d="M 52.875 241 
L 398.5 241 
" style="fill:none;stroke:#000000;stroke-linecap:square;stroke-linejoin:miter;stroke-width:0.8;"/>
   </g>
   <g id="patch_6">
    <path d="M 52.875 33.5 
L 398.5 33.5 
" style="fill:none;stroke:#000000;stroke-linecap:square;stroke-linejoin:miter;stroke-width:0.8;"/>
   </g>
   <g id="text_13">
    <!-- Decision Time: Blocked Requests (CDF) -->
    <defs>
     <path d="M 19.671875 64.796875 
L 19.671875 8.109375 
L 31.59375 8.109375 
Q 46.6875 8.109375 53.6875 14.9375 
Q 60.6875 21.78125 60.6875 36.53125 
Q 60.6875 51.171875 53.6875 57.984375 
Q 46.6875 64.796875 31.59375 64.796875 
z
M 9.8125 72.90625 
L 30.078125 72.90625 
Q 51.265625 72.90625 61.171875 64.09375 
Q 71.09375 55.28125 71.09375 36.53125 
Q 71.09375 17.671875 61.125 8.828125 
Q 51.171875 0 30.078125 0 
L 9.8125 0 
z
" id="DejaVuSans-68"/>
     <path d="M 11.71875 12.40625 
L 22.015625 12.40625 
L 22.015625 0 
L 11.71875 0 
z
M 11.71875 51.703125 
L 22.015625 51.703125 
L 22.015625 39.3125 
L 11.71875 39.3125 
z
" id="DejaVuSans-58"/>
     <path d="M 19.671875 34.8125 
L 19.671875 8.109375 
L 35.5 8.109375 
Q 43.453125 8.109375 47.28125 11.40625 
Q 51.125 14.703125 51.125 21.484375 
Q 51.125 28.328125 47.28125 31.5625 
Q 43.453125 34.8125 35.5 34.8125 
z
M 19.671875 64.796875 
L 19.671875 42.828125 
L 34.28125 42.828125 
Q 41.5 42.828125 45.03125 45.53125 
Q 48.578125 48.25 48.578125 53.8125 
Q 48.578125 59.328125 45.03125 62.0625 
Q 41.5 64.796875 34.28125 64.796875 
z
M 9.8125 72.90625 
L 35.015625 72.90625 
Q 46.296875 72.90625 52.390625 68.21875 
Q 58.5 63.53125 58.5 54.890625 
Q 58.5 48.1875 55.375 44.234375 
Q 52.25 40.28125 46.1875 39.3125 
Q 53.46875 37.75 57.5 32.78125 
Q 61.53125 27.828125 61.53125 20.40625 
Q 61.53125 10.640625 54.890625 5.3125 
Q 48.25 0 35.984375 0 
L 9.8125 0 
z
" id="DejaVuSans-66"/>
     <path d="M 9.078125 75.984375 
L 18.109375 75.984375 
L 18.109375 31.109375 
L 44.921875 54.6875 
L 56.390625 54.6875 
L 27.390625 29.109375 
L 57.625 0 
L 45.90625 0 
L 18.109375 26.703125 
L 18.109375 0 
L 9.078125 0 
z
" id="DejaVuSans-107"/>
     <path d="M 45.40625 46.390625 
L 45.40625 75.984375 
L 54.390625 75.984375 
L 54.390625 0 
L 45.40625 0 
L 45.40625 8.203125 
Q 42.578125 3.328125 38.25 0.953125 
Q 33.9375 -1.421875 27.875 -1.421875 
Q 17.96875 -1.421875 11.734375 6.484375 
Q 5.515625 14.40625 5.515625 27.296875 
Q 5.515625 40.1875 11.734375 48.09375 
Q 17.96875 56 27.875 56 
Q 33.9375 56 38.25 53.625 
Q 42.578125 51.265625 45.40625 46.390625 
z
M 14.796875 27.296875 
Q 14.796875 17.390625 18.875 11.75 
Q 22.953125 6.109375 30.078125 6.109375 
Q 37.203125 6.109375 41.296875 11.75 
Q 45.40625 17.390625 45.40625 27.296875 
Q 45.40625 37.203125 41.296875 42.84375 
Q 37.203125 48.484375 30.078125 48.484375 
Q 22.953125 48.484375 18.875 42.84375 
Q 14.796875 37.203125 14.796875 27.296875 
z
" id="DejaVuSans-100"/>
     <path d="M 64.40625 67.28125 
L 64.40625 56.890625 
Q 59.421875 61.53125 53.78125 63.8125 
Q 48.140625 66.109375 41.796875 66.109375 
Q 29.296875 66.109375 22.65625 58.46875 
Q 16.015625 50.828125 16.015625 36.375 
Q 16.015625 21.96875 22.65625 14.328125 
Q 29.296875 6.6875 41.796875 6.6875 
Q 48.140625 6.6875 53.78125 8.984375 
Q 59.421875 11.28125 64.40625 15.921875 
L 64.40625 5.609375 
Q 59.234375 2.09375 53.4375 0.328125 
Q 47.65625 -1.421875 41.21875 -1.421875 
Q 24.65625 -1.421875 15.125 8.703125 
Q 5.609375 18.84375 5.609375 36.375 
Q 5.609375 53.953125 15.125 64.078125 
Q 24.65625 74.21875 41.21875 74.21875 
Q 47.75 74.21875 53.53125 72.484375 
Q 59.328125 70.75 64.40625 67.28125 
z
" id="DejaVuSans-67"/>
    </defs>
    <g transform="translate(107.196875 27.5)scale(0.12 -0.12)">
     <use xlink:href="#DejaVuSans-68"/>
     <use x="77.001953" xlink:href="#DejaVuSans-101"/>
     <use x="138.525391" xlink:href="#DejaVuSans-99"/>
     <use x="193.505859" xlink:href="#DejaVuSans-105"/>
     <use x="221.289062" xlink:href="#DejaVuSans-115"/>
     <use x="273.388672" xlink:href="#DejaVuSans-105"/>
     <use x="301.171875" xlink:href="#DejaVuSans-111"/>
     <use x="362.353516" xlink:href="#DejaVuSans-110"/>
     <use x="425.732422" xlink:href="#DejaVuSans-32"/>
     <use x="457.519531" xlink:href="#DejaVuSans-84"/>
     <use x="518.556641" xlink:href="#DejaVuSans-105"/>
     <use x="546.339844" xlink:href="#DejaVuSans-109"/>
     <use x="643.751953" xlink:href="#DejaVuSans-101"/>
     <use x="705.275391" xlink:href="#DejaVuSans-58"/>
     <use x="738.966797" xlink:href="#DejaVuSans-32"/>
     <use x="770.753906" xlink:href="#DejaVuSans-66"/>
     <use x="839.357422" xlink:href="#DejaVuSans-108"/>
     <use x="867.140625" xlink:href="#DejaVuSans-111"/>
     <use x="928.322266" xlink:href="#DejaVuSans-99"/>
     <use x="983.302734" xlink:href="#DejaVuSans-107"/>
     <use x="1041.166016" xlink:href="#DejaVuSans-101"/>
     <use x="1102.689453" xlink:href="#DejaVuSans-100"/>
     <use x="1166.166016" xlink:href="#DejaVuSans-32"/>
     <use x="1197.953125" xlink:href="#DejaVuSans-82"/>
     <use x="1267.373047" xlink:href="#DejaVuSans-101"/>
     <use x="1328.896484" xlink:href="#DejaVuSans-113"/>
     <use x="1392.373047" xlink:href="#DejaVuSans-117"/>
     <use x="1455.751953" xlink:href="#DejaVuSans-101"/>
     <use x="1517.275391" xlink:href="#DejaVuSans-115"/>
     <use x="1569.375" xlink:href="#DejaVuSans-116"/>
     <use x="1608.583984" xlink:href="#DejaVuSans-115"/>
     <use x="1660.683594" xlink:href="#DejaVuSans-32"/>
     <use x="1692.470703" xlink:href="#DejaVuSans-40"/>
     <use x="1731.484375" xlink:href="#DejaVuSans-67"/>
     <use x="1801.308594" xlink:href="#DejaVuSans-68"/>
     <use x="1878.310547" xlink:href="#DejaVuSans-70"/>
     <use x="1935.830078" xlink:href="#DejaVuSans-41"/>
    </g>
   </g>
   <g id="legend_1">
    <g id="patch_7">
     <path d="M 292.7125 236 
L 391.5 236 
Q 393.5 236 393.5 234 
L 393.5 161.609375 
Q 393.5 159.609375 391.5 159.609375 
L 292.7125 159.609375 
Q 290.7125 159.609375 290.7125 161.609375 
L 290.7125 234 
Q 290.7125 236 292.7125 236 
z
" style="fill:#ffffff;opacity:0.8;stroke:#cccccc;stroke-linejoin:miter;"/>
    </g>
    <g id="line2d_61">
     <path d="M 294.7125 167.707813 
L 314.7125 167.707813 
" style="fill:none;stroke:#00aff0;stroke-dasharray:7.4,3.2;stroke-dashoffset:0;stroke-width:2;"/>
    </g>
    <g id="line2d_62"/>
    <g id="text_14">
     <!-- Ghostery -->
     <defs>
      <path d="M 59.515625 10.40625 
L 59.515625 29.984375 
L 43.40625 29.984375 
L 43.40625 38.09375 
L 69.28125 38.09375 
L 69.28125 6.78125 
Q 63.578125 2.734375 56.6875 0.65625 
Q 49.8125 -1.421875 42 -1.421875 
Q 24.90625 -1.421875 15.25 8.5625 
Q 5.609375 18.5625 5.609375 36.375 
Q 5.609375 54.25 15.25 64.234375 
Q 24.90625 74.21875 42 74.21875 
Q 49.125 74.21875 55.546875 72.453125 
Q 61.96875 70.703125 67.390625 67.28125 
L 67.390625 56.78125 
Q 61.921875 61.421875 55.765625 63.765625 
Q 49.609375 66.109375 42.828125 66.109375 
Q 29.4375 66.109375 22.71875 58.640625 
Q 16.015625 51.171875 16.015625 36.375 
Q 16.015625 21.625 22.71875 14.15625 
Q 29.4375 6.6875 42.828125 6.6875 
Q 48.046875 6.6875 52.140625 7.59375 
Q 56.25 8.5 59.515625 10.40625 
z
" id="DejaVuSans-71"/>
      <path d="M 54.890625 33.015625 
L 54.890625 0 
L 45.90625 0 
L 45.90625 32.71875 
Q 45.90625 40.484375 42.875 44.328125 
Q 39.84375 48.1875 33.796875 48.1875 
Q 26.515625 48.1875 22.3125 43.546875 
Q 18.109375 38.921875 18.109375 30.90625 
L 18.109375 0 
L 9.078125 0 
L 9.078125 75.984375 
L 18.109375 75.984375 
L 18.109375 46.1875 
Q 21.34375 51.125 25.703125 53.5625 
Q 30.078125 56 35.796875 56 
Q 45.21875 56 50.046875 50.171875 
Q 54.890625 44.34375 54.890625 33.015625 
z
" id="DejaVuSans-104"/>
      <path d="M 32.171875 -5.078125 
Q 28.375 -14.84375 24.75 -17.8125 
Q 21.140625 -20.796875 15.09375 -20.796875 
L 7.90625 -20.796875 
L 7.90625 -13.28125 
L 13.1875 -13.28125 
Q 16.890625 -13.28125 18.9375 -11.515625 
Q 21 -9.765625 23.484375 -3.21875 
L 25.09375 0.875 
L 2.984375 54.6875 
L 12.5 54.6875 
L 29.59375 11.921875 
L 46.6875 54.6875 
L 56.203125 54.6875 
z
" id="DejaVuSans-121"/>
     </defs>
     <g transform="translate(322.7125 171.207813)scale(0.1 -0.1)">
      <use xlink:href="#DejaVuSans-71"/>
      <use x="77.490234" xlink:href="#DejaVuSans-104"/>
      <use x="140.869141" xlink:href="#DejaVuSans-111"/>
      <use x="202.050781" xlink:href="#DejaVuSans-115"/>
      <use x="254.150391" xlink:href="#DejaVuSans-116"/>
      <use x="293.359375" xlink:href="#DejaVuSans-101"/>
      <use x="354.882812" xlink:href="#DejaVuSans-114"/>
      <use x="395.996094" xlink:href="#DejaVuSans-121"/>
     </g>
    </g>
    <g id="line2d_63">
     <path d="M 294.7125 182.385938 
L 314.7125 182.385938 
" style="fill:none;stroke:#800000;stroke-dasharray:7.4,3.2;stroke-dashoffset:0;stroke-width:2;"/>
    </g>
    <g id="line2d_64"/>
    <g id="text_15">
     <!-- uBlock Origin -->
     <defs>
      <path d="M 39.40625 66.21875 
Q 28.65625 66.21875 22.328125 58.203125 
Q 16.015625 50.203125 16.015625 36.375 
Q 16.015625 22.609375 22.328125 14.59375 
Q 28.65625 6.59375 39.40625 6.59375 
Q 50.140625 6.59375 56.421875 14.59375 
Q 62.703125 22.609375 62.703125 36.375 
Q 62.703125 50.203125 56.421875 58.203125 
Q 50.140625 66.21875 39.40625 66.21875 
z
M 39.40625 74.21875 
Q 54.734375 74.21875 63.90625 63.9375 
Q 73.09375 53.65625 73.09375 36.375 
Q 73.09375 19.140625 63.90625 8.859375 
Q 54.734375 -1.421875 39.40625 -1.421875 
Q 24.03125 -1.421875 14.8125 8.828125 
Q 5.609375 19.09375 5.609375 36.375 
Q 5.609375 53.65625 14.8125 63.9375 
Q 24.03125 74.21875 39.40625 74.21875 
z
" id="DejaVuSans-79"/>
     </defs>
     <g transform="translate(322.7125 185.885938)scale(0.1 -0.1)">
      <use xlink:href="#DejaVuSans-117"/>
      <use x="63.378906" xlink:href="#DejaVuSans-66"/>
      <use x="131.982422" xlink:href="#DejaVuSans-108"/>
      <use x="159.765625" xlink:href="#DejaVuSans-111"/>
      <use x="220.947266" xlink:href="#DejaVuSans-99"/>
      <use x="275.927734" xlink:href="#DejaVuSans-107"/>
      <use x="333.837891" xlink:href="#DejaVuSans-32"/>
      <use x="365.625" xlink:href="#DejaVuSans-79"/>
      <use x="444.335938" xlink:href="#DejaVuSans-114"/>
      <use x="485.449219" xlink:href="#DejaVuSans-105"/>
      <use x="513.232422" xlink:href="#DejaVuSans-103"/>
      <use x="576.708984" xlink:href="#DejaVuSans-105"/>
      <use x="604.492188" xlink:href="#DejaVuSans-110"/>
     </g>
    </g>
    <g id="line2d_65">
     <path d="M 294.7125 197.064063 
L 314.7125 197.064063 
" style="fill:none;stroke:#ff5500;stroke-dasharray:7.4,3.2;stroke-dashoffset:0;stroke-width:2;"/>
    </g>
    <g id="line2d_66"/>
    <g id="text_16">
     <!-- Brave -->
     <defs>
      <path d="M 2.984375 54.6875 
L 12.5 54.6875 
L 29.59375 8.796875 
L 46.6875 54.6875 
L 56.203125 54.6875 
L 35.6875 0 
L 23.484375 0 
z
" id="DejaVuSans-118"/>
     </defs>
     <g transform="translate(322.7125 200.564063)scale(0.1 -0.1)">
      <use xlink:href="#DejaVuSans-66"/>
      <use x="68.603516" xlink:href="#DejaVuSans-114"/>
      <use x="109.716797" xlink:href="#DejaVuSans-97"/>
      <use x="170.996094" xlink:href="#DejaVuSans-118"/>
      <use x="230.175781" xlink:href="#DejaVuSans-101"/>
     </g>
    </g>
    <g id="line2d_67">
     <path d="M 294.7125 211.742188 
L 314.7125 211.742188 
" style="fill:none;stroke:#58b792;stroke-dasharray:7.4,3.2;stroke-dashoffset:0;stroke-width:2;"/>
    </g>
    <g id="line2d_68"/>
    <g id="text_17">
     <!-- DuckDuckGo -->
     <g transform="translate(322.7125 215.242188)scale(0.1 -0.1)">
      <use xlink:href="#DejaVuSans-68"/>
      <use x="77.001953" xlink:href="#DejaVuSans-117"/>
      <use x="140.380859" xlink:href="#DejaVuSans-99"/>
      <use x="195.361328" xlink:href="#DejaVuSans-107"/>
      <use x="253.271484" xlink:href="#DejaVuSans-68"/>
      <use x="330.273438" xlink:href="#DejaVuSans-117"/>
      <use x="393.652344" xlink:href="#DejaVuSans-99"/>
      <use x="448.632812" xlink:href="#DejaVuSans-107"/>
      <use x="506.542969" xlink:href="#DejaVuSans-71"/>
      <use x="584.033203" xlink:href="#DejaVuSans-111"/>
     </g>
    </g>
    <g id="line2d_69">
     <path d="M 294.7125 226.420313 
L 314.7125 226.420313 
" style="fill:none;stroke:#c70d2c;stroke-dasharray:7.4,3.2;stroke-dashoffset:0;stroke-width:2;"/>
    </g>
    <g id="line2d_70"/>
    <g id="text_18">
     <!-- Adblock Plus -->
     <defs>
      <path d="M 34.1875 63.1875 
L 20.796875 26.90625 
L 47.609375 26.90625 
z
M 28.609375 72.90625 
L 39.796875 72.90625 
L 67.578125 0 
L 57.328125 0 
L 50.6875 18.703125 
L 17.828125 18.703125 
L 11.1875 0 
L 0.78125 0 
z
" id="DejaVuSans-65"/>
      <path d="M 19.671875 64.796875 
L 19.671875 37.40625 
L 32.078125 37.40625 
Q 38.96875 37.40625 42.71875 40.96875 
Q 46.484375 44.53125 46.484375 51.125 
Q 46.484375 57.671875 42.71875 61.234375 
Q 38.96875 64.796875 32.078125 64.796875 
z
M 9.8125 72.90625 
L 32.078125 72.90625 
Q 44.34375 72.90625 50.609375 67.359375 
Q 56.890625 61.8125 56.890625 51.125 
Q 56.890625 40.328125 50.609375 34.8125 
Q 44.34375 29.296875 32.078125 29.296875 
L 19.671875 29.296875 
L 19.671875 0 
L 9.8125 0 
z
" id="DejaVuSans-80"/>
     </defs>
     <g transform="translate(322.7125 229.920313)scale(0.1 -0.1)">
      <use xlink:href="#DejaVuSans-65"/>
      <use x="68.392578" xlink:href="#DejaVuSans-100"/>
      <use x="131.869141" xlink:href="#DejaVuSans-98"/>
      <use x="195.345703" xlink:href="#DejaVuSans-108"/>
      <use x="223.128906" xlink:href="#DejaVuSans-111"/>
      <use x="284.310547" xlink:href="#DejaVuSans-99"/>
      <use x="339.291016" xlink:href="#DejaVuSans-107"/>
      <use x="397.201172" xlink:href="#DejaVuSans-32"/>
      <use x="428.988281" xlink:href="#DejaVuSans-80"/>
      <use x="489.291016" xlink:href="#DejaVuSans-108"/>
      <use x="517.074219" xlink:href="#DejaVuSans-117"/>
      <use x="580.453125" xlink:href="#DejaVuSans-115"/>
     </g>
    </g>
   </g>
  </g>
 </g>
 <defs>
  <clipPath id="pc70d0dca0c">
   <rect height="207.5" width="345.625" x="52.875" y="33.5"/>
  </clipPath>
 </defs>
</svg>
